<?xml version="1.0" encoding="UTF-8" standalone="no"?>
<!DOCTYPE svg PUBLIC "-//W3C//DTD SVG 1.1//EN"
 "http://www.w3.org/Graphics/SVG/1.1/DTD/svg11.dtd">
<!-- Generated by graphviz version 2.38.0 (20140413.2041)
 -->
<!-- Title: interface~~tvd_runge_kutta_integrator~~CalledByGraph Pages: 1 -->
<svg width="383pt" height="242pt"
 viewBox="0.00 0.00 383.00 242.00" xmlns="http://www.w3.org/2000/svg" xmlns:xlink="http://www.w3.org/1999/xlink">
<g id="graph0" class="graph" transform="scale(1 1) rotate(0) translate(4 238)">
<title>interface~~tvd_runge_kutta_integrator~~CalledByGraph</title>
<polygon fill="white" stroke="none" points="-4,4 -4,-238 379,-238 379,4 -4,4"/>
<!-- interface~tvd_runge_kutta_integrator -->
<g id="node1" class="node"><title>interface~tvd_runge_kutta_integrator</title>
<polygon fill="none" stroke="black" points="375,-129 233,-129 233,-105 375,-105 375,-129"/>
<text text-anchor="middle" x="304" y="-114.6" font-family="Helvetica,sans-Serif" font-size="10.50">tvd_runge_kutta_integrator</text>
</g>
<!-- proc~test_ab -->
<g id="node2" class="node"><title>proc~test_ab</title>
<g id="a_node2"><a xlink:href="../proc/test_ab.html" xlink:title="test_ab">
<polygon fill="#d9534f" stroke="#d9534f" points="197,-234 143,-234 143,-210 197,-210 197,-234"/>
<text text-anchor="middle" x="170" y="-219.6" font-family="Helvetica,sans-Serif" font-size="10.50" fill="white">test_ab</text>
</a>
</g>
</g>
<!-- proc~test_ab&#45;&gt;interface~tvd_runge_kutta_integrator -->
<g id="edge7" class="edge"><title>proc~test_ab&#45;&gt;interface~tvd_runge_kutta_integrator</title>
<path fill="none" stroke="black" d="M186.142,-209.955C208.996,-191.776 252.492,-157.177 279.489,-135.702"/>
<polygon fill="black" stroke="black" points="281.981,-138.192 287.628,-129.228 277.623,-132.714 281.981,-138.192"/>
</g>
<!-- proc~test_rk -->
<g id="node3" class="node"><title>proc~test_rk</title>
<g id="a_node3"><a xlink:href="../proc/test_rk.html" xlink:title="test_rk">
<polygon fill="#d9534f" stroke="#d9534f" points="197,-192 143,-192 143,-168 197,-168 197,-192"/>
<text text-anchor="middle" x="170" y="-177.6" font-family="Helvetica,sans-Serif" font-size="10.50" fill="white">test_rk</text>
</a>
</g>
</g>
<!-- proc~test_rk&#45;&gt;interface~tvd_runge_kutta_integrator -->
<g id="edge8" class="edge"><title>proc~test_rk&#45;&gt;interface~tvd_runge_kutta_integrator</title>
<path fill="none" stroke="black" d="M196.451,-167.853C216.903,-158.092 245.838,-144.282 268.394,-133.516"/>
<polygon fill="black" stroke="black" points="270.11,-136.576 277.627,-129.11 267.095,-130.258 270.11,-136.576"/>
</g>
<!-- proc~test_rk~3 -->
<g id="node4" class="node"><title>proc~test_rk~3</title>
<g id="a_node4"><a xlink:href="../proc/test_rk%7E3.html" xlink:title="test_rk">
<polygon fill="#d9534f" stroke="#d9534f" points="197,-150 143,-150 143,-126 197,-126 197,-150"/>
<text text-anchor="middle" x="170" y="-135.6" font-family="Helvetica,sans-Serif" font-size="10.50" fill="white">test_rk</text>
</a>
</g>
</g>
<!-- proc~test_rk~3&#45;&gt;interface~tvd_runge_kutta_integrator -->
<g id="edge9" class="edge"><title>proc~test_rk~3&#45;&gt;interface~tvd_runge_kutta_integrator</title>
<path fill="none" stroke="black" d="M197.079,-133.851C204.749,-132.631 213.57,-131.227 222.78,-129.762"/>
<polygon fill="black" stroke="black" points="223.563,-133.182 232.889,-128.154 222.463,-126.269 223.563,-133.182"/>
</g>
<!-- proc~test_ab~2 -->
<g id="node5" class="node"><title>proc~test_ab~2</title>
<g id="a_node5"><a xlink:href="../proc/test_ab%7E2.html" xlink:title="test_ab">
<polygon fill="#d9534f" stroke="#d9534f" points="197,-66 143,-66 143,-42 197,-42 197,-66"/>
<text text-anchor="middle" x="170" y="-51.6" font-family="Helvetica,sans-Serif" font-size="10.50" fill="white">test_ab</text>
</a>
</g>
</g>
<!-- proc~test_ab~2&#45;&gt;interface~tvd_runge_kutta_integrator -->
<g id="edge10" class="edge"><title>proc~test_ab~2&#45;&gt;interface~tvd_runge_kutta_integrator</title>
<path fill="none" stroke="black" d="M196.451,-66.147C216.903,-75.9084 245.838,-89.718 268.394,-100.484"/>
<polygon fill="black" stroke="black" points="267.095,-103.742 277.627,-104.89 270.11,-97.4242 267.095,-103.742"/>
</g>
<!-- proc~test_rk~2 -->
<g id="node6" class="node"><title>proc~test_rk~2</title>
<g id="a_node6"><a xlink:href="../proc/test_rk%7E2.html" xlink:title="test_rk">
<polygon fill="#d9534f" stroke="#d9534f" points="197,-24 143,-24 143,-0 197,-0 197,-24"/>
<text text-anchor="middle" x="170" y="-9.6" font-family="Helvetica,sans-Serif" font-size="10.50" fill="white">test_rk</text>
</a>
</g>
</g>
<!-- proc~test_rk~2&#45;&gt;interface~tvd_runge_kutta_integrator -->
<g id="edge11" class="edge"><title>proc~test_rk~2&#45;&gt;interface~tvd_runge_kutta_integrator</title>
<path fill="none" stroke="black" d="M186.142,-24.0448C208.996,-42.2238 252.492,-76.8231 279.489,-98.2983"/>
<polygon fill="black" stroke="black" points="277.623,-101.286 287.628,-104.772 281.981,-95.8078 277.623,-101.286"/>
</g>
<!-- proc~test_ab~3 -->
<g id="node7" class="node"><title>proc~test_ab~3</title>
<g id="a_node7"><a xlink:href="../proc/test_ab%7E3.html" xlink:title="test_ab">
<polygon fill="#d9534f" stroke="#d9534f" points="197,-108 143,-108 143,-84 197,-84 197,-108"/>
<text text-anchor="middle" x="170" y="-93.6" font-family="Helvetica,sans-Serif" font-size="10.50" fill="white">test_ab</text>
</a>
</g>
</g>
<!-- proc~test_ab~3&#45;&gt;interface~tvd_runge_kutta_integrator -->
<g id="edge12" class="edge"><title>proc~test_ab~3&#45;&gt;interface~tvd_runge_kutta_integrator</title>
<path fill="none" stroke="black" d="M197.079,-100.149C204.749,-101.369 213.57,-102.773 222.78,-104.238"/>
<polygon fill="black" stroke="black" points="222.463,-107.731 232.889,-105.846 223.563,-100.818 222.463,-107.731"/>
</g>
<!-- program~integrate_oscillation -->
<g id="node8" class="node"><title>program~integrate_oscillation</title>
<g id="a_node8"><a xlink:href="../program/integrate_oscillation.html" xlink:title="integrate_oscillation">
<polygon fill="#f0ad4e" stroke="#f0ad4e" points="107,-213 0,-213 0,-189 107,-189 107,-213"/>
<text text-anchor="middle" x="53.5" y="-198.6" font-family="Helvetica,sans-Serif" font-size="10.50" fill="white">integrate_oscillation</text>
</a>
</g>
</g>
<!-- program~integrate_oscillation&#45;&gt;proc~test_ab -->
<g id="edge1" class="edge"><title>program~integrate_oscillation&#45;&gt;proc~test_ab</title>
<path fill="none" stroke="black" d="M107.058,-210.64C115.822,-212.247 124.733,-213.881 132.962,-215.39"/>
<polygon fill="black" stroke="black" points="132.493,-218.863 142.96,-217.224 133.755,-211.977 132.493,-218.863"/>
</g>
<!-- program~integrate_oscillation&#45;&gt;proc~test_rk -->
<g id="edge2" class="edge"><title>program~integrate_oscillation&#45;&gt;proc~test_rk</title>
<path fill="none" stroke="black" d="M107.058,-191.36C115.822,-189.753 124.733,-188.119 132.962,-186.61"/>
<polygon fill="black" stroke="black" points="133.755,-190.023 142.96,-184.776 132.493,-183.137 133.755,-190.023"/>
</g>
<!-- program~integrate_burgers -->
<g id="node9" class="node"><title>program~integrate_burgers</title>
<g id="a_node9"><a xlink:href="../program/integrate_burgers.html" xlink:title="integrate_burgers">
<polygon fill="#f0ad4e" stroke="#f0ad4e" points="102,-118 5,-118 5,-94 102,-94 102,-118"/>
<text text-anchor="middle" x="53.5" y="-103.6" font-family="Helvetica,sans-Serif" font-size="10.50" fill="white">integrate_burgers</text>
</a>
</g>
</g>
<!-- program~integrate_burgers&#45;&gt;proc~test_rk~3 -->
<g id="edge3" class="edge"><title>program~integrate_burgers&#45;&gt;proc~test_rk~3</title>
<path fill="none" stroke="black" d="M97.4613,-118.007C109.122,-121.265 121.626,-124.76 132.868,-127.902"/>
<polygon fill="black" stroke="black" points="132.203,-131.35 142.776,-130.671 134.087,-124.609 132.203,-131.35"/>
</g>
<!-- program~integrate_burgers&#45;&gt;proc~test_ab~3 -->
<g id="edge6" class="edge"><title>program~integrate_burgers&#45;&gt;proc~test_ab~3</title>
<path fill="none" stroke="black" d="M102.064,-101.846C112.351,-100.947 123.069,-100.011 132.835,-99.1585"/>
<polygon fill="black" stroke="black" points="133.336,-102.628 142.994,-98.2713 132.727,-95.6547 133.336,-102.628"/>
</g>
<!-- program~integrate_lorenz -->
<g id="node10" class="node"><title>program~integrate_lorenz</title>
<g id="a_node10"><a xlink:href="../program/integrate_lorenz.html" xlink:title="integrate_lorenz">
<polygon fill="#f0ad4e" stroke="#f0ad4e" points="98.5,-55 8.5,-55 8.5,-31 98.5,-31 98.5,-55"/>
<text text-anchor="middle" x="53.5" y="-40.6" font-family="Helvetica,sans-Serif" font-size="10.50" fill="white">integrate_lorenz</text>
</a>
</g>
</g>
<!-- program~integrate_lorenz&#45;&gt;proc~test_ab~2 -->
<g id="edge4" class="edge"><title>program~integrate_lorenz&#45;&gt;proc~test_ab~2</title>
<path fill="none" stroke="black" d="M98.7687,-47.2529C109.907,-48.323 121.738,-49.4596 132.451,-50.4888"/>
<polygon fill="black" stroke="black" points="132.436,-54.0033 142.725,-51.4757 133.105,-47.0354 132.436,-54.0033"/>
</g>
<!-- program~integrate_lorenz&#45;&gt;proc~test_rk~2 -->
<g id="edge5" class="edge"><title>program~integrate_lorenz&#45;&gt;proc~test_rk~2</title>
<path fill="none" stroke="black" d="M98.7687,-31.0146C110.023,-27.9675 121.985,-24.7291 132.786,-21.8048"/>
<polygon fill="black" stroke="black" points="133.987,-25.1056 142.725,-19.1138 132.157,-18.3489 133.987,-25.1056"/>
</g>
</g>
</svg>
