<?xml version="1.0" encoding="UTF-8" standalone="no"?>
<!DOCTYPE svg PUBLIC "-//W3C//DTD SVG 1.1//EN"
 "http://www.w3.org/Graphics/SVG/1.1/DTD/svg11.dtd">
<!-- Generated by graphviz version 2.38.0 (20140413.2041)
 -->
<!-- Title: module~~foodie_integrator_tvd_runge_kutta~~UsedByGraph Pages: 1 -->
<svg width="539pt" height="234pt"
 viewBox="0.00 0.00 539.00 234.00" xmlns="http://www.w3.org/2000/svg" xmlns:xlink="http://www.w3.org/1999/xlink">
<g id="graph0" class="graph" transform="scale(1 1) rotate(0) translate(4 230)">
<title>module~~foodie_integrator_tvd_runge_kutta~~UsedByGraph</title>
<polygon fill="white" stroke="none" points="-4,4 -4,-230 535,-230 535,4 -4,4"/>
<!-- module~foodie_integrator_tvd_runge_kutta -->
<g id="node1" class="node"><title>module~foodie_integrator_tvd_runge_kutta</title>
<polygon fill="none" stroke="black" points="177,-125 1.42109e-14,-125 1.42109e-14,-101 177,-101 177,-125"/>
<text text-anchor="middle" x="88.5" y="-110.6" font-family="Helvetica,sans-Serif" font-size="10.50">foodie_integrator_tvd_runge_kutta</text>
</g>
<!-- module~foodie -->
<g id="node2" class="node"><title>module~foodie</title>
<g id="a_node2"><a xlink:href="../module/foodie.html" xlink:title="foodie">
<polygon fill="#337ab7" stroke="#337ab7" points="267,-125 213,-125 213,-101 267,-101 267,-125"/>
<text text-anchor="middle" x="240" y="-110.6" font-family="Helvetica,sans-Serif" font-size="10.50" fill="white">foodie</text>
</a>
</g>
</g>
<!-- module~foodie_integrator_tvd_runge_kutta&#45;&gt;module~foodie -->
<g id="edge11" class="edge"><title>module~foodie_integrator_tvd_runge_kutta&#45;&gt;module~foodie</title>
<path fill="none" stroke="black" stroke-dasharray="5,2" d="M177.329,-113C186.244,-113 194.902,-113 202.775,-113"/>
<polygon fill="black" stroke="black" points="202.975,-116.5 212.975,-113 202.975,-109.5 202.975,-116.5"/>
</g>
<!-- module~type_burgers -->
<g id="node3" class="node"><title>module~type_burgers</title>
<g id="a_node3"><a xlink:href="../module/type_burgers.html" xlink:title="type_burgers">
<polygon fill="#337ab7" stroke="#337ab7" points="383.5,-226 307.5,-226 307.5,-202 383.5,-202 383.5,-226"/>
<text text-anchor="middle" x="345.5" y="-211.6" font-family="Helvetica,sans-Serif" font-size="10.50" fill="white">type_burgers</text>
</a>
</g>
</g>
<!-- module~foodie&#45;&gt;module~type_burgers -->
<g id="edge4" class="edge"><title>module~foodie&#45;&gt;module~type_burgers</title>
<path fill="none" stroke="black" stroke-dasharray="5,2" d="M249.205,-125.19C260.198,-140.937 280.897,-168.621 303,-188 306.236,-190.838 309.816,-193.57 313.476,-196.127"/>
<polygon fill="black" stroke="black" points="311.758,-199.186 322.039,-201.744 315.597,-193.333 311.758,-199.186"/>
</g>
<!-- program~integrate_lorenz -->
<g id="node4" class="node"><title>program~integrate_lorenz</title>
<g id="a_node4"><a xlink:href="../program/integrate_lorenz.html" xlink:title="integrate_lorenz">
<polygon fill="#f0ad4e" stroke="#f0ad4e" points="522.5,-146 432.5,-146 432.5,-122 522.5,-122 522.5,-146"/>
<text text-anchor="middle" x="477.5" y="-131.6" font-family="Helvetica,sans-Serif" font-size="10.50" fill="white">integrate_lorenz</text>
</a>
</g>
</g>
<!-- module~foodie&#45;&gt;program~integrate_lorenz -->
<g id="edge5" class="edge"><title>module~foodie&#45;&gt;program~integrate_lorenz</title>
<path fill="none" stroke="black" stroke-dasharray="5,2" d="M254.445,-125.11C273.053,-140.821 308.456,-167.044 344.5,-174"/>
<path fill="none" stroke="black" stroke-dasharray="5,2" d="M346.5,-174C355.258,-175.69 398.959,-161.453 433.307,-149.499"/>
<polygon fill="black" stroke="black" points="434.884,-152.655 443.163,-146.044 432.568,-146.05 434.884,-152.655"/>
</g>
<!-- module~type_oscillation -->
<g id="node5" class="node"><title>module~type_oscillation</title>
<g id="a_node5"><a xlink:href="../module/type_oscillation.html" xlink:title="type_oscillation">
<polygon fill="#337ab7" stroke="#337ab7" points="388,-104 303,-104 303,-80 388,-80 388,-104"/>
<text text-anchor="middle" x="345.5" y="-89.6" font-family="Helvetica,sans-Serif" font-size="10.50" fill="white">type_oscillation</text>
</a>
</g>
</g>
<!-- module~foodie&#45;&gt;module~type_oscillation -->
<g id="edge6" class="edge"><title>module~foodie&#45;&gt;module~type_oscillation</title>
<path fill="none" stroke="black" stroke-dasharray="5,2" d="M267.117,-107.701C274.949,-106.112 283.829,-104.31 292.71,-102.508"/>
<polygon fill="black" stroke="black" points="293.578,-105.903 302.682,-100.485 292.186,-99.0432 293.578,-105.903"/>
</g>
<!-- module~type_lorenz -->
<g id="node6" class="node"><title>module~type_lorenz</title>
<g id="a_node6"><a xlink:href="../module/type_lorenz.html" xlink:title="type_lorenz">
<polygon fill="#337ab7" stroke="#337ab7" points="379.5,-146 311.5,-146 311.5,-122 379.5,-122 379.5,-146"/>
<text text-anchor="middle" x="345.5" y="-131.6" font-family="Helvetica,sans-Serif" font-size="10.50" fill="white">type_lorenz</text>
</a>
</g>
</g>
<!-- module~foodie&#45;&gt;module~type_lorenz -->
<g id="edge7" class="edge"><title>module~foodie&#45;&gt;module~type_lorenz</title>
<path fill="none" stroke="black" stroke-dasharray="5,2" d="M267.117,-118.299C277.492,-120.404 289.706,-122.882 301.327,-125.24"/>
<polygon fill="black" stroke="black" points="300.829,-128.71 311.325,-127.269 302.221,-121.85 300.829,-128.71"/>
</g>
<!-- program~integrate_burgers -->
<g id="node7" class="node"><title>program~integrate_burgers</title>
<g id="a_node7"><a xlink:href="../program/integrate_burgers.html" xlink:title="integrate_burgers">
<polygon fill="#f0ad4e" stroke="#f0ad4e" points="526,-188 429,-188 429,-164 526,-164 526,-188"/>
<text text-anchor="middle" x="477.5" y="-173.6" font-family="Helvetica,sans-Serif" font-size="10.50" fill="white">integrate_burgers</text>
</a>
</g>
</g>
<!-- module~foodie&#45;&gt;program~integrate_burgers -->
<g id="edge8" class="edge"><title>module~foodie&#45;&gt;program~integrate_burgers</title>
<path fill="none" stroke="black" stroke-dasharray="5,2" d="M346.5,-174C369.852,-178.506 396.003,-179.642 418.693,-179.419"/>
<polygon fill="black" stroke="black" points="418.92,-182.915 428.853,-179.227 418.788,-175.916 418.92,-182.915"/>
</g>
<!-- program~integrate_oscillation -->
<g id="node8" class="node"><title>program~integrate_oscillation</title>
<g id="a_node8"><a xlink:href="../program/integrate_oscillation.html" xlink:title="integrate_oscillation">
<polygon fill="#f0ad4e" stroke="#f0ad4e" points="531,-84 424,-84 424,-60 531,-60 531,-84"/>
<text text-anchor="middle" x="477.5" y="-69.6" font-family="Helvetica,sans-Serif" font-size="10.50" fill="white">integrate_oscillation</text>
</a>
</g>
</g>
<!-- module~foodie&#45;&gt;program~integrate_oscillation -->
<g id="edge9" class="edge"><title>module~foodie&#45;&gt;program~integrate_oscillation</title>
<path fill="none" stroke="black" stroke-dasharray="5,2" d="M254.029,-100.707C265.792,-90.5164 284.108,-76.7966 303,-71 338.492,-60.1101 380.025,-59.9378 413.555,-62.6874"/>
<polygon fill="black" stroke="black" points="413.408,-66.1886 423.688,-63.6258 414.054,-59.2185 413.408,-66.1886"/>
</g>
<!-- module~type_euler_1d -->
<g id="node9" class="node"><title>module~type_euler_1d</title>
<g id="a_node9"><a xlink:href="../module/type_euler_1d.html" xlink:title="type_euler_1D">
<polygon fill="#337ab7" stroke="#337ab7" points="386.5,-24 304.5,-24 304.5,-0 386.5,-0 386.5,-24"/>
<text text-anchor="middle" x="345.5" y="-9.6" font-family="Helvetica,sans-Serif" font-size="10.50" fill="white">type_euler_1D</text>
</a>
</g>
</g>
<!-- module~foodie&#45;&gt;module~type_euler_1d -->
<g id="edge10" class="edge"><title>module~foodie&#45;&gt;module~type_euler_1d</title>
<path fill="none" stroke="black" stroke-dasharray="5,2" d="M249.205,-100.81C260.198,-85.0631 280.897,-57.3794 303,-38 306.236,-35.1624 309.816,-32.4303 313.476,-29.873"/>
<polygon fill="black" stroke="black" points="315.597,-32.6673 322.039,-24.2556 311.758,-26.8142 315.597,-32.6673"/>
</g>
<!-- module~type_burgers&#45;&gt;program~integrate_burgers -->
<g id="edge1" class="edge"><title>module~type_burgers&#45;&gt;program~integrate_burgers</title>
<path fill="none" stroke="black" stroke-dasharray="5,2" d="M383.753,-203.111C396.673,-199.334 411.394,-195.031 425.242,-190.983"/>
<polygon fill="black" stroke="black" points="426.518,-194.257 435.134,-188.092 424.554,-187.538 426.518,-194.257"/>
</g>
<!-- module~type_oscillation&#45;&gt;program~integrate_oscillation -->
<g id="edge2" class="edge"><title>module~type_oscillation&#45;&gt;program~integrate_oscillation</title>
<path fill="none" stroke="black" stroke-dasharray="5,2" d="M388.348,-85.5618C396.457,-84.3142 405.12,-82.9816 413.729,-81.657"/>
<polygon fill="black" stroke="black" points="414.425,-85.0913 423.776,-80.1113 413.36,-78.1727 414.425,-85.0913"/>
</g>
<!-- module~type_lorenz&#45;&gt;program~integrate_lorenz -->
<g id="edge3" class="edge"><title>module~type_lorenz&#45;&gt;program~integrate_lorenz</title>
<path fill="none" stroke="black" stroke-dasharray="5,2" d="M379.641,-134C392.474,-134 407.508,-134 421.852,-134"/>
<polygon fill="black" stroke="black" points="422.134,-137.5 432.133,-134 422.133,-130.5 422.134,-137.5"/>
</g>
</g>
</svg>
