<?xml version="1.0" encoding="UTF-8" standalone="no"?>
<!DOCTYPE svg PUBLIC "-//W3C//DTD SVG 1.1//EN"
 "http://www.w3.org/Graphics/SVG/1.1/DTD/svg11.dtd">
<!-- Generated by graphviz version 2.26.3 (20100126.1600)
 -->
<!-- Title: module~~graph~~ModuleGraph Pages: 1 -->
<svg width="855pt" height="440pt"
 viewBox="0.00 0.00 855.00 440.22" xmlns="http://www.w3.org/2000/svg" xmlns:xlink="http://www.w3.org/1999/xlink">
<g id="graph1" class="graph" transform="scale(0.925325 0.925325) rotate(0) translate(4 471.75)">
<title>module~~graph~~ModuleGraph</title>
<polygon fill="white" stroke="white" points="-4,5 -4,-471.75 921,-471.75 921,5 -4,5"/>
<!-- module~foodie -->
<g id="node1" class="node"><title>module~foodie</title>
<a xlink:href="../module/foodie.html" xlink:title="foodie">
<polygon fill="#337ab7" stroke="#337ab7" points="540,-278 486,-278 486,-252 540,-252 540,-278"/>
<text text-anchor="middle" x="513" y="-262.55" font-family="Helvetica,sans-Serif" font-size="10.50" fill="white">foodie</text>
</a>
</g>
<!-- module~type_lorenz -->
<g id="node3" class="node"><title>module~type_lorenz</title>
<a xlink:href="../module/type_lorenz.html" xlink:title="type_lorenz">
<polygon fill="#337ab7" stroke="#337ab7" points="708,-111 640,-111 640,-85 708,-85 708,-111"/>
<text text-anchor="middle" x="674" y="-95.55" font-family="Helvetica,sans-Serif" font-size="10.50" fill="white">type_lorenz</text>
</a>
</g>
<!-- module~foodie&#45;&gt;module~type_lorenz -->
<g id="edge20" class="edge"><title>module~foodie&#45;&gt;module~type_lorenz</title>
<path fill="none" stroke="black" stroke-dasharray="5,2" d="M515.065,-251.985C520.153,-224.307 535.924,-159.335 576,-125 590.926,-112.212 611.414,-105.441 629.799,-101.871"/>
<polygon fill="black" stroke="black" points="630.466,-105.308 639.748,-100.2 629.306,-98.405 630.466,-105.308"/>
</g>
<!-- module~type_euler_1d -->
<g id="node4" class="node"><title>module~type_euler_1d</title>
<a xlink:href="../module/type_euler_1d.html" xlink:title="type_euler_1D">
<polygon fill="#337ab7" stroke="#337ab7" points="715,-29 633,-29 633,-3 715,-3 715,-29"/>
<text text-anchor="middle" x="674" y="-13.55" font-family="Helvetica,sans-Serif" font-size="10.50" fill="white">type_euler_1D</text>
</a>
</g>
<!-- module~foodie&#45;&gt;module~type_euler_1d -->
<g id="edge26" class="edge"><title>module~foodie&#45;&gt;module~type_euler_1d</title>
<path fill="none" stroke="black" stroke-dasharray="5,2" d="M515.026,-251.776C521.882,-208.67 545.501,-73.2663 576,-43 588.345,-30.7497 605.707,-23.9299 622.395,-20.1749"/>
<polygon fill="black" stroke="black" points="623.485,-23.53 632.648,-18.2119 622.168,-16.6549 623.485,-23.53"/>
</g>
<!-- module~type_burgers -->
<g id="node6" class="node"><title>module~type_burgers</title>
<a xlink:href="../module/type_burgers.html" xlink:title="type_burgers">
<polygon fill="#337ab7" stroke="#337ab7" points="712,-439 636,-439 636,-413 712,-413 712,-439"/>
<text text-anchor="middle" x="674" y="-423.55" font-family="Helvetica,sans-Serif" font-size="10.50" fill="white">type_burgers</text>
</a>
</g>
<!-- module~foodie&#45;&gt;module~type_burgers -->
<g id="edge34" class="edge"><title>module~foodie&#45;&gt;module~type_burgers</title>
<path fill="none" stroke="black" stroke-dasharray="5,2" d="M519.5,-278.306C529.594,-298.024 550.548,-335.424 576,-361 594.733,-379.824 619.73,-396.301 639.79,-407.955"/>
<polygon fill="black" stroke="black" points="638.194,-411.073 648.619,-412.961 641.647,-404.984 638.194,-411.073"/>
</g>
<!-- module~type_oscillation -->
<g id="node10" class="node"><title>module~type_oscillation</title>
<a xlink:href="../module/type_oscillation.html" xlink:title="type_oscillation">
<polygon fill="#337ab7" stroke="#337ab7" points="716,-319 632,-319 632,-293 716,-293 716,-319"/>
<text text-anchor="middle" x="674" y="-303.55" font-family="Helvetica,sans-Serif" font-size="10.50" fill="white">type_oscillation</text>
</a>
</g>
<!-- module~foodie&#45;&gt;module~type_oscillation -->
<g id="edge48" class="edge"><title>module~foodie&#45;&gt;module~type_oscillation</title>
<path fill="none" stroke="black" stroke-dasharray="5,2" d="M540.311,-271.955C562.524,-277.612 594.517,-285.759 621.636,-292.665"/>
<polygon fill="black" stroke="black" points="620.825,-296.07 631.38,-295.146 622.553,-289.287 620.825,-296.07"/>
</g>
<!-- program~integrate_oscillation -->
<g id="node12" class="node"><title>program~integrate_oscillation</title>
<a xlink:href="../program/integrate_oscillation.html" xlink:title="integrate_oscillation">
<polygon fill="#f0ad4e" stroke="#f0ad4e" points="915,-278 809,-278 809,-252 915,-252 915,-278"/>
<text text-anchor="middle" x="862" y="-262.55" font-family="Helvetica,sans-Serif" font-size="10.50" fill="white">integrate_oscillation</text>
</a>
</g>
<!-- module~foodie&#45;&gt;program~integrate_oscillation -->
<g id="edge56" class="edge"><title>module~foodie&#45;&gt;program~integrate_oscillation</title>
<path fill="none" stroke="black" stroke-dasharray="5,2" d="M540.095,-265C595.12,-265 721.25,-265 798.279,-265"/>
<polygon fill="black" stroke="black" points="798.346,-268.5 808.346,-265 798.346,-261.5 798.346,-268.5"/>
</g>
<!-- program~integrate_burgers -->
<g id="node13" class="node"><title>program~integrate_burgers</title>
<a xlink:href="../program/integrate_burgers.html" xlink:title="integrate_burgers">
<polygon fill="#f0ad4e" stroke="#f0ad4e" points="910,-360 814,-360 814,-334 910,-334 910,-360"/>
<text text-anchor="middle" x="862" y="-344.55" font-family="Helvetica,sans-Serif" font-size="10.50" fill="white">integrate_burgers</text>
</a>
</g>
<!-- module~foodie&#45;&gt;program~integrate_burgers -->
<g id="edge66" class="edge"><title>module~foodie&#45;&gt;program~integrate_burgers</title>
<path fill="none" stroke="black" stroke-dasharray="5,2" d="M521.635,-278.141C532.364,-293.204 552.194,-317.201 576,-328 649.041,-361.133 743.476,-360.077 803.414,-354.749"/>
<polygon fill="black" stroke="black" points="803.839,-358.224 813.46,-353.787 803.172,-351.256 803.839,-358.224"/>
</g>
<!-- program~integrate_lorenz -->
<g id="node14" class="node"><title>program~integrate_lorenz</title>
<a xlink:href="../program/integrate_lorenz.html" xlink:title="integrate_lorenz">
<polygon fill="#f0ad4e" stroke="#f0ad4e" points="907,-70 817,-70 817,-44 907,-44 907,-70"/>
<text text-anchor="middle" x="862" y="-54.55" font-family="Helvetica,sans-Serif" font-size="10.50" fill="white">integrate_lorenz</text>
</a>
</g>
<!-- module~foodie&#45;&gt;program~integrate_lorenz -->
<g id="edge76" class="edge"><title>module~foodie&#45;&gt;program~integrate_lorenz</title>
<path fill="none" stroke="black" stroke-dasharray="5,2" d="M674,-139C710.997,-114.513 731.155,-137.323 772,-120 797.2,-109.313 822.43,-90.8084 839.738,-76.6105"/>
<polygon fill="black" stroke="black" points="842.155,-79.1508 847.562,-70.0397 837.654,-73.7901 842.155,-79.1508"/>
</g>
<!-- program~integrate_euler_1d -->
<g id="node15" class="node"><title>program~integrate_euler_1d</title>
<a xlink:href="../program/integrate_euler_1d.html" xlink:title="integrate_euler_1D">
<polygon fill="#f0ad4e" stroke="#f0ad4e" points="914,-26 810,-26 810,-1.24345e-14 914,-3.55271e-15 914,-26"/>
<text text-anchor="middle" x="862" y="-10.55" font-family="Helvetica,sans-Serif" font-size="10.50" fill="white">integrate_euler_1D</text>
</a>
</g>
<!-- module~foodie&#45;&gt;program~integrate_euler_1d -->
<g id="edge86" class="edge"><title>module~foodie&#45;&gt;program~integrate_euler_1d</title>
<path fill="none" stroke="black" stroke-dasharray="5,2" d="M516.849,-251.68C524.243,-228.627 542.724,-181.51 576,-158 612.235,-132.399 637.003,-163.487 674,-139"/>
<path fill="none" stroke="black" stroke-dasharray="5,2" d="M674,-139C710.997,-114.513 737.525,-147.926 772,-120 803.879,-94.1762 778.791,-63.8099 808,-35 809.104,-33.9115 810.268,-32.8744 811.483,-31.8867"/>
<polygon fill="black" stroke="black" points="813.78,-34.5584 820.105,-26.0581 809.86,-28.7592 813.78,-34.5584"/>
</g>
<!-- module~foodie_integrator_low_storage_runge_kutta -->
<g id="node2" class="node"><title>module~foodie_integrator_low_storage_runge_kutta</title>
<a xlink:href="../module/foodie_integrator_low_storage_runge_kutta.html" xlink:title="foodie_integrator_low_storage_runge_kutta">
<polygon fill="#337ab7" stroke="#337ab7" points="450,-212 230,-212 230,-186 450,-186 450,-212"/>
<text text-anchor="middle" x="340" y="-196.55" font-family="Helvetica,sans-Serif" font-size="10.50" fill="white">foodie_integrator_low_storage_runge_kutta</text>
</a>
</g>
<!-- module~foodie_integrator_low_storage_runge_kutta&#45;&gt;module~foodie -->
<g id="edge4" class="edge"><title>module~foodie_integrator_low_storage_runge_kutta&#45;&gt;module~foodie</title>
<path fill="none" stroke="black" stroke-dasharray="5,2" d="M407.687,-212.071C421.932,-215.797 436.674,-220.405 450,-226 462.822,-231.383 476.049,-239.174 487.052,-246.38"/>
<polygon fill="black" stroke="black" points="485.102,-249.286 495.35,-251.976 489.016,-243.483 485.102,-249.286"/>
</g>
<!-- module~type_lorenz&#45;&gt;program~integrate_lorenz -->
<g id="edge82" class="edge"><title>module~type_lorenz&#45;&gt;program~integrate_lorenz</title>
<path fill="none" stroke="black" stroke-dasharray="5,2" d="M708.045,-90.5752C735.544,-84.5783 774.79,-76.0192 806.774,-69.0439"/>
<polygon fill="black" stroke="black" points="807.855,-72.3905 816.88,-66.8401 806.363,-65.5513 807.855,-72.3905"/>
</g>
<!-- module~type_euler_1d&#45;&gt;program~integrate_euler_1d -->
<g id="edge92" class="edge"><title>module~type_euler_1d&#45;&gt;program~integrate_euler_1d</title>
<path fill="none" stroke="black" stroke-dasharray="5,2" d="M715.257,-15.3416C739.998,-14.9468 771.945,-14.4371 799.711,-13.994"/>
<polygon fill="black" stroke="black" points="799.787,-17.4933 809.73,-13.8341 799.675,-10.4942 799.787,-17.4933"/>
</g>
<!-- module~foodie_integrator_euler_explicit -->
<g id="node5" class="node"><title>module~foodie_integrator_euler_explicit</title>
<a xlink:href="../module/foodie_integrator_euler_explicit.html" xlink:title="foodie_integrator_euler_explicit">
<polygon fill="#337ab7" stroke="#337ab7" points="421,-168 259,-168 259,-142 421,-142 421,-168"/>
<text text-anchor="middle" x="340" y="-152.55" font-family="Helvetica,sans-Serif" font-size="10.50" fill="white">foodie_integrator_euler_explicit</text>
</a>
</g>
<!-- module~foodie_integrator_euler_explicit&#45;&gt;module~foodie -->
<g id="edge12" class="edge"><title>module~foodie_integrator_euler_explicit&#45;&gt;module~foodie</title>
<path fill="none" stroke="black" stroke-dasharray="5,2" d="M421.166,-163.908C431.349,-167.096 441.247,-171.347 450,-177 474.687,-192.943 492.725,-222.253 503.023,-242.646"/>
<polygon fill="black" stroke="black" points="499.96,-244.351 507.452,-251.842 506.266,-241.314 499.96,-244.351"/>
</g>
<!-- module~type_burgers&#45;&gt;program~integrate_burgers -->
<g id="edge72" class="edge"><title>module~type_burgers&#45;&gt;program~integrate_burgers</title>
<path fill="none" stroke="black" stroke-dasharray="5,2" d="M712.455,-417.815C730.846,-413.297 752.953,-406.972 772,-399 793.83,-389.863 816.912,-376.442 834.235,-365.523"/>
<polygon fill="black" stroke="black" points="836.201,-368.42 842.731,-360.077 832.424,-362.527 836.201,-368.42"/>
</g>
<!-- module~foodie_integrator_tvd_runge_kutta -->
<g id="node7" class="node"><title>module~foodie_integrator_tvd_runge_kutta</title>
<a xlink:href="../module/foodie_integrator_tvd_runge_kutta.html" xlink:title="foodie_integrator_tvd_runge_kutta">
<polygon fill="#337ab7" stroke="#337ab7" points="428,-382 252,-382 252,-356 428,-356 428,-382"/>
<text text-anchor="middle" x="340" y="-366.55" font-family="Helvetica,sans-Serif" font-size="10.50" fill="white">foodie_integrator_tvd_runge_kutta</text>
</a>
</g>
<!-- module~foodie_integrator_tvd_runge_kutta&#45;&gt;module~foodie -->
<g id="edge6" class="edge"><title>module~foodie_integrator_tvd_runge_kutta&#45;&gt;module~foodie</title>
<path fill="none" stroke="black" stroke-dasharray="5,2" d="M428.656,-357.232C436.152,-354.481 443.385,-351.115 450,-347 473.342,-332.478 491.301,-305.99 501.964,-287.047"/>
<polygon fill="black" stroke="black" points="505.076,-288.65 506.735,-278.185 498.913,-285.331 505.076,-288.65"/>
</g>
<!-- module~type_integrand -->
<g id="node8" class="node"><title>module~type_integrand</title>
<a xlink:href="../module/type_integrand.html" xlink:title="type_integrand">
<polygon fill="#337ab7" stroke="#337ab7" points="194,-273 110,-273 110,-247 194,-247 194,-273"/>
<text text-anchor="middle" x="152" y="-257.55" font-family="Helvetica,sans-Serif" font-size="10.50" fill="white">type_integrand</text>
</a>
</g>
<!-- module~type_integrand&#45;&gt;module~foodie -->
<g id="edge8" class="edge"><title>module~type_integrand&#45;&gt;module~foodie</title>
<path fill="none" stroke="black" stroke-dasharray="5,2" d="M194.099,-259.362C205.729,-259.212 218.353,-259.075 230,-259 327.776,-258.373 352.332,-254.36 450,-259 458.348,-259.397 467.298,-260.087 475.755,-260.862"/>
<polygon fill="black" stroke="black" points="475.46,-264.35 485.752,-261.835 476.138,-257.383 475.46,-264.35"/>
</g>
<!-- module~type_integrand&#45;&gt;module~foodie_integrator_low_storage_runge_kutta -->
<g id="edge16" class="edge"><title>module~type_integrand&#45;&gt;module~foodie_integrator_low_storage_runge_kutta</title>
<path fill="none" stroke="black" stroke-dasharray="5,2" d="M178.986,-246.881C193.804,-240.025 212.646,-231.864 230,-226 242.47,-221.786 255.939,-217.93 269.033,-214.532"/>
<polygon fill="black" stroke="black" points="270.112,-217.87 278.95,-212.025 268.397,-211.083 270.112,-217.87"/>
</g>
<!-- module~type_integrand&#45;&gt;module~foodie_integrator_euler_explicit -->
<g id="edge30" class="edge"><title>module~type_integrand&#45;&gt;module~foodie_integrator_euler_explicit</title>
<path fill="none" stroke="black" stroke-dasharray="5,2" d="M160.314,-246.967C172.962,-228.294 198.883,-194.28 230,-177 236.006,-173.665 242.445,-170.831 249.084,-168.424"/>
<polygon fill="black" stroke="black" points="250.517,-171.637 258.927,-165.194 248.334,-164.987 250.517,-171.637"/>
</g>
<!-- module~type_integrand&#45;&gt;module~foodie_integrator_tvd_runge_kutta -->
<g id="edge38" class="edge"><title>module~type_integrand&#45;&gt;module~foodie_integrator_tvd_runge_kutta</title>
<path fill="none" stroke="black" stroke-dasharray="5,2" d="M159.747,-273.018C172.039,-292.447 197.935,-328.699 230,-347 233.758,-349.145 237.693,-351.083 241.744,-352.835"/>
<polygon fill="black" stroke="black" points="240.795,-356.221 251.384,-356.592 243.337,-349.699 240.795,-356.221"/>
</g>
<!-- module~foodie_integrator_leapfrog -->
<g id="node9" class="node"><title>module~foodie_integrator_leapfrog</title>
<a xlink:href="../module/foodie_integrator_leapfrog.html" xlink:title="foodie_integrator_leapfrog">
<polygon fill="#337ab7" stroke="#337ab7" points="409,-338 271,-338 271,-312 409,-312 409,-338"/>
<text text-anchor="middle" x="340" y="-322.55" font-family="Helvetica,sans-Serif" font-size="10.50" fill="white">foodie_integrator_leapfrog</text>
</a>
</g>
<!-- module~type_integrand&#45;&gt;module~foodie_integrator_leapfrog -->
<g id="edge44" class="edge"><title>module~type_integrand&#45;&gt;module~foodie_integrator_leapfrog</title>
<path fill="none" stroke="black" stroke-dasharray="5,2" d="M171.717,-273.098C187.022,-282.702 209.088,-295.352 230,-303 239.703,-306.548 250.107,-309.571 260.507,-312.133"/>
<polygon fill="black" stroke="black" points="259.919,-315.59 270.452,-314.451 261.507,-308.772 259.919,-315.59"/>
</g>
<!-- module~foodie_integrator_adams_bashforth -->
<g id="node11" class="node"><title>module~foodie_integrator_adams_bashforth</title>
<a xlink:href="../module/foodie_integrator_adams_bashforth.html" xlink:title="foodie_integrator_adams_bashforth">
<polygon fill="#337ab7" stroke="#337ab7" points="431,-294 249,-294 249,-268 431,-268 431,-294"/>
<text text-anchor="middle" x="340" y="-278.55" font-family="Helvetica,sans-Serif" font-size="10.50" fill="white">foodie_integrator_adams_bashforth</text>
</a>
</g>
<!-- module~type_integrand&#45;&gt;module~foodie_integrator_adams_bashforth -->
<g id="edge52" class="edge"><title>module~type_integrand&#45;&gt;module~foodie_integrator_adams_bashforth</title>
<path fill="none" stroke="black" stroke-dasharray="5,2" d="M194.191,-264.713C207.423,-266.191 222.647,-267.891 238.158,-269.624"/>
<polygon fill="black" stroke="black" points="238.047,-273.133 248.374,-270.765 238.824,-266.177 238.047,-273.133"/>
</g>
<!-- module~foodie_integrator_leapfrog&#45;&gt;module~foodie -->
<g id="edge2" class="edge"><title>module~foodie_integrator_leapfrog&#45;&gt;module~foodie</title>
<path fill="none" stroke="black" stroke-dasharray="5,2" d="M409.696,-314.844C423.306,-311.81 437.29,-307.931 450,-303 462.653,-298.091 475.655,-290.712 486.537,-283.757"/>
<polygon fill="black" stroke="black" points="488.713,-286.514 495.125,-278.079 484.853,-280.675 488.713,-286.514"/>
</g>
<!-- module~type_oscillation&#45;&gt;program~integrate_oscillation -->
<g id="edge62" class="edge"><title>module~type_oscillation&#45;&gt;program~integrate_oscillation</title>
<path fill="none" stroke="black" stroke-dasharray="5,2" d="M716.66,-296.696C740.772,-291.438 771.385,-284.762 798.291,-278.894"/>
<polygon fill="black" stroke="black" points="799.375,-282.24 808.4,-276.689 797.884,-275.401 799.375,-282.24"/>
</g>
<!-- module~foodie_integrator_adams_bashforth&#45;&gt;module~foodie -->
<g id="edge10" class="edge"><title>module~foodie_integrator_adams_bashforth&#45;&gt;module~foodie</title>
<path fill="none" stroke="black" stroke-dasharray="5,2" d="M431.566,-272.531C447.17,-271.088 462.554,-269.666 475.677,-268.452"/>
<polygon fill="black" stroke="black" points="476.042,-271.933 485.677,-267.527 475.397,-264.963 476.042,-271.933"/>
</g>
<!-- IR_Precision -->
<g id="node22" class="node"><title>IR_Precision</title>
<polygon fill="#337ab7" stroke="#337ab7" points="73,-273 1,-273 1,-247 73,-247 73,-273"/>
<text text-anchor="middle" x="37" y="-257.55" font-family="Helvetica,sans-Serif" font-size="10.50" fill="white">IR_Precision</text>
</g>
<!-- IR_Precision&#45;&gt;module~foodie_integrator_low_storage_runge_kutta -->
<g id="edge14" class="edge"><title>IR_Precision&#45;&gt;module~foodie_integrator_low_storage_runge_kutta</title>
<path fill="none" stroke="black" stroke-dasharray="5,2" d="M152,-155C185.43,-141.589 194.981,-168.573 230,-177 239.901,-179.383 250.346,-181.71 260.701,-183.905"/>
<polygon fill="black" stroke="black" points="260.076,-187.349 270.58,-185.966 261.506,-180.497 260.076,-187.349"/>
</g>
<!-- IR_Precision&#45;&gt;module~type_lorenz -->
<g id="edge18" class="edge"><title>IR_Precision&#45;&gt;module~type_lorenz</title>
<path fill="none" stroke="black" stroke-dasharray="5,2" d="M513,-98C552.393,-95.5021 597.317,-95.7601 629.682,-96.4935"/>
<polygon fill="black" stroke="black" points="629.642,-99.9935 639.726,-96.7455 629.817,-92.9957 629.642,-99.9935"/>
</g>
<!-- IR_Precision&#45;&gt;module~type_euler_1d -->
<g id="edge22" class="edge"><title>IR_Precision&#45;&gt;module~type_euler_1d</title>
<path fill="none" stroke="black" stroke-dasharray="5,2" d="M46.2078,-246.848C63.6476,-223.212 104.075,-174.226 152,-155"/>
<path fill="none" stroke="black" stroke-dasharray="5,2" d="M152,-155C233.034,-122.492 255.703,-120.745 340,-98"/>
<path fill="none" stroke="black" stroke-dasharray="5,2" d="M340,-98C408.232,-79.5898 417.596,-52.7615 486,-35 531.132,-23.2813 584.102,-18.7184 622.294,-16.9777"/>
<polygon fill="black" stroke="black" points="622.805,-20.46 632.655,-16.558 622.522,-13.4657 622.805,-20.46"/>
</g>
<!-- IR_Precision&#45;&gt;module~foodie_integrator_euler_explicit -->
<g id="edge28" class="edge"><title>IR_Precision&#45;&gt;module~foodie_integrator_euler_explicit</title>
<path fill="none" stroke="black" stroke-dasharray="5,2" d="M152,-155C182.204,-142.883 217.4,-140.205 249.117,-141.451"/>
<polygon fill="black" stroke="black" points="249.111,-144.956 259.281,-141.987 249.479,-137.965 249.111,-144.956"/>
</g>
<!-- IR_Precision&#45;&gt;module~type_burgers -->
<g id="edge32" class="edge"><title>IR_Precision&#45;&gt;module~type_burgers</title>
<path fill="none" stroke="black" stroke-dasharray="5,2" d="M513,-426C550.749,-424.154 593.537,-424.258 625.509,-424.767"/>
<polygon fill="black" stroke="black" points="625.854,-428.274 635.915,-424.953 625.979,-421.275 625.854,-428.274"/>
</g>
<!-- IR_Precision&#45;&gt;module~foodie_integrator_tvd_runge_kutta -->
<g id="edge36" class="edge"><title>IR_Precision&#45;&gt;module~foodie_integrator_tvd_runge_kutta</title>
<path fill="none" stroke="black" stroke-dasharray="5,2" d="M152,-369C180,-378.251 211.652,-380.972 240.892,-380.62"/>
<polygon fill="black" stroke="black" points="241.211,-384.114 251.123,-380.373 241.042,-377.116 241.211,-384.114"/>
</g>
<!-- IR_Precision&#45;&gt;module~type_integrand -->
<g id="edge40" class="edge"><title>IR_Precision&#45;&gt;module~type_integrand</title>
<path fill="none" stroke="black" stroke-dasharray="5,2" d="M73.7029,-260C81.9237,-260 90.8,-260 99.521,-260"/>
<polygon fill="black" stroke="black" points="99.6389,-263.5 109.639,-260 99.6388,-256.5 99.6389,-263.5"/>
</g>
<!-- IR_Precision&#45;&gt;module~foodie_integrator_leapfrog -->
<g id="edge42" class="edge"><title>IR_Precision&#45;&gt;module~foodie_integrator_leapfrog</title>
<path fill="none" stroke="black" stroke-dasharray="5,2" d="M152,-369C186.201,-380.3 194.981,-355.427 230,-347 239.901,-344.617 250.346,-342.29 260.701,-340.095"/>
<polygon fill="black" stroke="black" points="261.506,-343.503 270.58,-338.034 260.076,-336.651 261.506,-343.503"/>
</g>
<!-- IR_Precision&#45;&gt;module~type_oscillation -->
<g id="edge46" class="edge"><title>IR_Precision&#45;&gt;module~type_oscillation</title>
<path fill="none" stroke="black" stroke-dasharray="5,2" d="M152,-369C306.232,-419.956 350.74,-433.469 513,-426"/>
<path fill="none" stroke="black" stroke-dasharray="5,2" d="M513,-426C550.125,-424.184 546.448,-393.544 576,-371 597.959,-354.248 624.077,-337.05 643.825,-324.555"/>
<polygon fill="black" stroke="black" points="645.805,-327.445 652.413,-319.163 642.083,-321.516 645.805,-327.445"/>
</g>
<!-- IR_Precision&#45;&gt;module~foodie_integrator_adams_bashforth -->
<g id="edge50" class="edge"><title>IR_Precision&#45;&gt;module~foodie_integrator_adams_bashforth</title>
<path fill="none" stroke="black" stroke-dasharray="5,2" d="M45.0521,-273.137C61.4134,-298.294 101.328,-352.258 152,-369"/>
<path fill="none" stroke="black" stroke-dasharray="5,2" d="M152,-369C195.119,-383.246 189.106,-322.745 230,-303 234.321,-300.913 238.83,-299.025 243.45,-297.315"/>
<polygon fill="black" stroke="black" points="244.72,-300.58 253.064,-294.051 242.47,-293.952 244.72,-300.58"/>
</g>
<!-- IR_Precision&#45;&gt;program~integrate_oscillation -->
<g id="edge54" class="edge"><title>IR_Precision&#45;&gt;program~integrate_oscillation</title>
<path fill="none" stroke="black" stroke-dasharray="5,2" d="M513,-426C520.683,-425.624 765.199,-331.595 772,-328 795.62,-315.515 820.338,-297.831 837.88,-284.375"/>
<polygon fill="black" stroke="black" points="840.137,-287.054 845.879,-278.15 835.838,-281.53 840.137,-287.054"/>
</g>
<!-- IR_Precision&#45;&gt;program~integrate_burgers -->
<g id="edge64" class="edge"><title>IR_Precision&#45;&gt;program~integrate_burgers</title>
<path fill="none" stroke="black" stroke-dasharray="5,2" d="M513,-426C542.598,-424.11 546.759,-443.041 576,-448 661.885,-462.565 692.512,-483.637 772,-448 807.947,-431.884 835.426,-393.527 850.101,-368.993"/>
<polygon fill="black" stroke="black" points="853.3,-370.45 855.258,-360.038 847.234,-366.957 853.3,-370.45"/>
</g>
<!-- IR_Precision&#45;&gt;program~integrate_lorenz -->
<g id="edge74" class="edge"><title>IR_Precision&#45;&gt;program~integrate_lorenz</title>
<path fill="none" stroke="black" stroke-dasharray="5,2" d="M674,-57C718.004,-48.8595 768.8,-49.4388 806.491,-51.7327"/>
<polygon fill="black" stroke="black" points="806.546,-55.2441 816.757,-52.4193 807.013,-48.2597 806.546,-55.2441"/>
</g>
<!-- IR_Precision&#45;&gt;program~integrate_euler_1d -->
<g id="edge84" class="edge"><title>IR_Precision&#45;&gt;program~integrate_euler_1d</title>
<path fill="none" stroke="black" stroke-dasharray="5,2" d="M340,-98C414.581,-79.3045 436.265,-102.866 513,-98"/>
<path fill="none" stroke="black" stroke-dasharray="5,2" d="M513,-98C542.599,-96.1232 547.367,-83.7315 576,-76 618.833,-64.4342 630.374,-65.0706 674,-57"/>
<path fill="none" stroke="black" stroke-dasharray="5,2" d="M674,-57C717.626,-48.9294 728.814,-48.1675 772,-38 783.715,-35.2418 796.203,-31.9816 808.029,-28.7423"/>
<polygon fill="black" stroke="black" points="809.077,-32.084 817.777,-26.0377 807.205,-25.3388 809.077,-32.084"/>
</g>
<!-- wenoof -->
<g id="node28" class="node"><title>wenoof</title>
<polygon fill="#337ab7" stroke="#337ab7" points="540,-70 486,-70 486,-44 540,-44 540,-70"/>
<text text-anchor="middle" x="513" y="-54.55" font-family="Helvetica,sans-Serif" font-size="10.50" fill="white">wenoof</text>
</g>
<!-- wenoof&#45;&gt;module~type_euler_1d -->
<g id="edge24" class="edge"><title>wenoof&#45;&gt;module~type_euler_1d</title>
<path fill="none" stroke="black" stroke-dasharray="5,2" d="M540.311,-50.0449C562.924,-44.2865 595.671,-35.9472 623.095,-28.9635"/>
<polygon fill="black" stroke="black" points="624.102,-32.3188 632.929,-26.4592 622.374,-25.5353 624.102,-32.3188"/>
</g>
<!-- Data_Type_Command_Line_Interface -->
<g id="node46" class="node"><title>Data_Type_Command_Line_Interface</title>
<polygon fill="#337ab7" stroke="#337ab7" points="771,-237 577,-237 577,-211 771,-211 771,-237"/>
<text text-anchor="middle" x="674" y="-221.55" font-family="Helvetica,sans-Serif" font-size="10.50" fill="white">Data_Type_Command_Line_Interface</text>
</g>
<!-- Data_Type_Command_Line_Interface&#45;&gt;program~integrate_oscillation -->
<g id="edge58" class="edge"><title>Data_Type_Command_Line_Interface&#45;&gt;program~integrate_oscillation</title>
<path fill="none" stroke="black" stroke-dasharray="5,2" d="M733.743,-237.029C754.441,-241.543 777.707,-246.617 798.683,-251.191"/>
<polygon fill="black" stroke="black" points="797.941,-254.612 808.457,-253.323 799.433,-247.773 797.941,-254.612"/>
</g>
<!-- Data_Type_Command_Line_Interface&#45;&gt;program~integrate_burgers -->
<g id="edge68" class="edge"><title>Data_Type_Command_Line_Interface&#45;&gt;program~integrate_burgers</title>
<path fill="none" stroke="black" stroke-dasharray="5,2" d="M696.429,-237.199C716.451,-249.107 746.47,-267.272 772,-284 793.798,-298.283 817.967,-315.267 835.766,-328"/>
<polygon fill="black" stroke="black" points="833.789,-330.889 843.953,-333.878 837.871,-325.203 833.789,-330.889"/>
</g>
<!-- Data_Type_Command_Line_Interface&#45;&gt;program~integrate_lorenz -->
<g id="edge78" class="edge"><title>Data_Type_Command_Line_Interface&#45;&gt;program~integrate_lorenz</title>
<path fill="none" stroke="black" stroke-dasharray="5,2" d="M756.372,-210.812C761.891,-208.346 767.168,-205.435 772,-202 815.36,-171.171 842.173,-112.25 854.318,-79.8143"/>
<polygon fill="black" stroke="black" points="857.655,-80.8774 857.748,-70.283 851.069,-78.5069 857.655,-80.8774"/>
</g>
<!-- Data_Type_Command_Line_Interface&#45;&gt;program~integrate_euler_1d -->
<g id="edge88" class="edge"><title>Data_Type_Command_Line_Interface&#45;&gt;program~integrate_euler_1d</title>
<path fill="none" stroke="black" stroke-dasharray="5,2" d="M760.559,-210.982C764.704,-208.439 768.562,-205.467 772,-202 825.46,-148.083 759.196,-93.1642 808,-35 808.732,-34.1276 809.504,-33.2893 810.311,-32.484"/>
<polygon fill="black" stroke="black" points="812.721,-35.0402 818.387,-26.0876 808.375,-29.5529 812.721,-35.0402"/>
</g>
<!-- pyplot_module -->
<g id="node48" class="node"><title>pyplot_module</title>
<polygon fill="#337ab7" stroke="#337ab7" points="715,-193 633,-193 633,-167 715,-167 715,-193"/>
<text text-anchor="middle" x="674" y="-177.55" font-family="Helvetica,sans-Serif" font-size="10.50" fill="white">pyplot_module</text>
</g>
<!-- pyplot_module&#45;&gt;program~integrate_oscillation -->
<g id="edge60" class="edge"><title>pyplot_module&#45;&gt;program~integrate_oscillation</title>
<path fill="none" stroke="black" stroke-dasharray="5,2" d="M715.181,-185.564C733.143,-188.915 754.134,-194.112 772,-202 796.89,-212.99 821.988,-231.295 839.333,-245.349"/>
<polygon fill="black" stroke="black" points="837.256,-248.174 847.19,-251.857 841.721,-242.783 837.256,-248.174"/>
</g>
<!-- pyplot_module&#45;&gt;program~integrate_burgers -->
<g id="edge70" class="edge"><title>pyplot_module&#45;&gt;program~integrate_burgers</title>
<path fill="none" stroke="black" stroke-dasharray="5,2" d="M715.448,-180.852C734.521,-183.208 756.337,-188.927 772,-202 803.497,-228.288 785.974,-252.387 808,-287 817.17,-301.41 829.847,-315.698 840.615,-326.715"/>
<polygon fill="black" stroke="black" points="838.146,-329.195 847.697,-333.78 843.089,-324.24 838.146,-329.195"/>
</g>
<!-- pyplot_module&#45;&gt;program~integrate_lorenz -->
<g id="edge80" class="edge"><title>pyplot_module&#45;&gt;program~integrate_lorenz</title>
<path fill="none" stroke="black" stroke-dasharray="5,2" d="M715.11,-173.893C733.46,-169.891 754.778,-163.4 772,-153 803.799,-133.799 831.511,-100.261 847.499,-78.3446"/>
<polygon fill="black" stroke="black" points="850.479,-80.1938 853.42,-70.0155 844.774,-76.138 850.479,-80.1938"/>
</g>
<!-- pyplot_module&#45;&gt;program~integrate_euler_1d -->
<g id="edge90" class="edge"><title>pyplot_module&#45;&gt;program~integrate_euler_1d</title>
<path fill="none" stroke="black" stroke-dasharray="5,2" d="M715.228,-177.662C734.715,-174.51 756.949,-167.646 772,-153 811.296,-114.761 771.028,-75.4902 808,-35 808.902,-34.0118 809.855,-33.067 810.852,-32.1638"/>
<polygon fill="black" stroke="black" points="813.223,-34.7649 819.207,-26.0222 809.077,-29.1247 813.223,-34.7649"/>
</g>
</g>
</svg>
