<?xml version="1.0" encoding="UTF-8" standalone="no"?>
<!DOCTYPE svg PUBLIC "-//W3C//DTD SVG 1.1//EN"
 "http://www.w3.org/Graphics/SVG/1.1/DTD/svg11.dtd">
<!-- Generated by graphviz version 2.26.3 (20100126.1600)
 -->
<!-- Title: module~~graph~~ModuleGraph Pages: 1 -->
<svg width="855pt" height="477pt"
 viewBox="0.00 0.00 855.00 477.08" xmlns="http://www.w3.org/2000/svg" xmlns:xlink="http://www.w3.org/1999/xlink">
<g id="graph1" class="graph" transform="scale(0.925325 0.925325) rotate(0) translate(4 511.58)">
<title>module~~graph~~ModuleGraph</title>
<polygon fill="white" stroke="white" points="-4,5 -4,-511.58 921,-511.58 921,5 -4,5"/>
<!-- module~type_lorenz -->
<g id="node1" class="node"><title>module~type_lorenz</title>
<a xlink:href="../module/type_lorenz.html" xlink:title="type_lorenz">
<polygon fill="#337ab7" stroke="#337ab7" points="708,-142.937 640,-142.937 640,-116.937 708,-116.937 708,-142.937"/>
<text text-anchor="middle" x="674" y="-127.487" font-family="Helvetica,sans-Serif" font-size="10.50" fill="white">type_lorenz</text>
</a>
</g>
<!-- program~integrate_lorenz -->
<g id="node15" class="node"><title>program~integrate_lorenz</title>
<a xlink:href="../program/integrate_lorenz.html" xlink:title="integrate_lorenz">
<polygon fill="#f0ad4e" stroke="#f0ad4e" points="907,-183.937 817,-183.937 817,-157.937 907,-157.937 907,-183.937"/>
<text text-anchor="middle" x="862" y="-168.487" font-family="Helvetica,sans-Serif" font-size="10.50" fill="white">integrate_lorenz</text>
</a>
</g>
<!-- module~type_lorenz&#45;&gt;program~integrate_lorenz -->
<g id="edge92" class="edge"><title>module~type_lorenz&#45;&gt;program~integrate_lorenz</title>
<path fill="none" stroke="black" stroke-dasharray="5,2" d="M708.045,-137.361C735.544,-143.358 774.79,-151.918 806.774,-158.893"/>
<polygon fill="black" stroke="black" points="806.363,-162.385 816.88,-161.097 807.855,-155.546 806.363,-162.385"/>
</g>
<!-- module~foodie -->
<g id="node2" class="node"><title>module~foodie</title>
<a xlink:href="../module/foodie.html" xlink:title="foodie">
<polygon fill="#337ab7" stroke="#337ab7" points="540,-317.937 486,-317.937 486,-291.937 540,-291.937 540,-317.937"/>
<text text-anchor="middle" x="513" y="-302.487" font-family="Helvetica,sans-Serif" font-size="10.50" fill="white">foodie</text>
</a>
</g>
<!-- module~foodie&#45;&gt;module~type_lorenz -->
<g id="edge4" class="edge"><title>module~foodie&#45;&gt;module~type_lorenz</title>
<path fill="none" stroke="black" stroke-dasharray="5,2" d="M514.758,-291.634C519.304,-262.659 534.169,-193.521 576,-156.937 590.795,-143.997 611.266,-137.206 629.673,-133.663"/>
<polygon fill="black" stroke="black" points="630.346,-137.099 639.638,-132.01 629.2,-130.193 630.346,-137.099"/>
</g>
<!-- module~type_burgers -->
<g id="node4" class="node"><title>module~type_burgers</title>
<a xlink:href="../module/type_burgers.html" xlink:title="type_burgers">
<polygon fill="#337ab7" stroke="#337ab7" points="712,-350.937 636,-350.937 636,-324.937 712,-324.937 712,-350.937"/>
<text text-anchor="middle" x="674" y="-335.487" font-family="Helvetica,sans-Serif" font-size="10.50" fill="white">type_burgers</text>
</a>
</g>
<!-- module~foodie&#45;&gt;module~type_burgers -->
<g id="edge24" class="edge"><title>module~foodie&#45;&gt;module~type_burgers</title>
<path fill="none" stroke="black" stroke-dasharray="5,2" d="M540.311,-310.535C563.723,-315.333 597.998,-322.359 625.981,-328.094"/>
<polygon fill="black" stroke="black" points="625.475,-331.563 635.974,-330.143 626.881,-324.706 625.475,-331.563"/>
</g>
<!-- module~type_euler_1d -->
<g id="node6" class="node"><title>module~type_euler_1d</title>
<a xlink:href="../module/type_euler_1d.html" xlink:title="type_euler_1D">
<polygon fill="#337ab7" stroke="#337ab7" points="715,-470.937 633,-470.937 633,-444.937 715,-444.937 715,-470.937"/>
<text text-anchor="middle" x="674" y="-455.487" font-family="Helvetica,sans-Serif" font-size="10.50" fill="white">type_euler_1D</text>
</a>
</g>
<!-- module~foodie&#45;&gt;module~type_euler_1d -->
<g id="edge34" class="edge"><title>module~foodie&#45;&gt;module~type_euler_1d</title>
<path fill="none" stroke="black" stroke-dasharray="5,2" d="M520.279,-317.999C530.876,-336.24 551.933,-369.713 576,-392.937 595.238,-411.5 620.436,-428.079 640.463,-439.848"/>
<polygon fill="black" stroke="black" points="638.847,-442.956 649.261,-444.906 642.336,-436.887 638.847,-442.956"/>
</g>
<!-- module~type_oscillation -->
<g id="node10" class="node"><title>module~type_oscillation</title>
<a xlink:href="../module/type_oscillation.html" xlink:title="type_oscillation">
<polygon fill="#337ab7" stroke="#337ab7" points="716,-60.9367 632,-60.9367 632,-34.9367 716,-34.9367 716,-60.9367"/>
<text text-anchor="middle" x="674" y="-45.4867" font-family="Helvetica,sans-Serif" font-size="10.50" fill="white">type_oscillation</text>
</a>
</g>
<!-- module~foodie&#45;&gt;module~type_oscillation -->
<g id="edge50" class="edge"><title>module~foodie&#45;&gt;module~type_oscillation</title>
<path fill="none" stroke="black" stroke-dasharray="5,2" d="M514.093,-291.491C517.492,-257.334 530.551,-165.841 576,-107.937 590.461,-89.5124 612.271,-75.3677 631.646,-65.4524"/>
<polygon fill="black" stroke="black" points="633.184,-68.5966 640.63,-61.0596 630.109,-62.3081 633.184,-68.5966"/>
</g>
<!-- program~integrate_euler_1d -->
<g id="node12" class="node"><title>program~integrate_euler_1d</title>
<a xlink:href="../program/integrate_euler_1d.html" xlink:title="integrate_euler_1D">
<polygon fill="#f0ad4e" stroke="#f0ad4e" points="914,-391.937 810,-391.937 810,-365.937 914,-365.937 914,-391.937"/>
<text text-anchor="middle" x="862" y="-376.487" font-family="Helvetica,sans-Serif" font-size="10.50" fill="white">integrate_euler_1D</text>
</a>
</g>
<!-- module~foodie&#45;&gt;program~integrate_euler_1d -->
<g id="edge54" class="edge"><title>module~foodie&#45;&gt;program~integrate_euler_1d</title>
<path fill="none" stroke="black" stroke-dasharray="5,2" d="M523.452,-318.103C534.809,-331.313 554.263,-350.95 576,-359.937 648.49,-389.905 740.144,-390.172 799.878,-385.951"/>
<polygon fill="black" stroke="black" points="800.212,-389.436 809.914,-385.179 799.675,-382.457 800.212,-389.436"/>
</g>
<!-- program~integrate_burgers -->
<g id="node13" class="node"><title>program~integrate_burgers</title>
<a xlink:href="../program/integrate_burgers.html" xlink:title="integrate_burgers">
<polygon fill="#f0ad4e" stroke="#f0ad4e" points="910,-309.937 814,-309.937 814,-283.937 910,-283.937 910,-309.937"/>
<text text-anchor="middle" x="862" y="-294.487" font-family="Helvetica,sans-Serif" font-size="10.50" fill="white">integrate_burgers</text>
</a>
</g>
<!-- module~foodie&#45;&gt;program~integrate_burgers -->
<g id="edge64" class="edge"><title>module~foodie&#45;&gt;program~integrate_burgers</title>
<path fill="none" stroke="black" stroke-dasharray="5,2" d="M540.095,-304.316C596.231,-303.029 726.374,-300.046 802.885,-298.292"/>
<polygon fill="black" stroke="black" points="803.395,-301.781 813.312,-298.053 803.234,-294.783 803.395,-301.781"/>
</g>
<!-- program~integrate_oscillation -->
<g id="node14" class="node"><title>program~integrate_oscillation</title>
<a xlink:href="../program/integrate_oscillation.html" xlink:title="integrate_oscillation">
<polygon fill="#f0ad4e" stroke="#f0ad4e" points="915,-139.937 809,-139.937 809,-113.937 915,-113.937 915,-139.937"/>
<text text-anchor="middle" x="862" y="-124.487" font-family="Helvetica,sans-Serif" font-size="10.50" fill="white">integrate_oscillation</text>
</a>
</g>
<!-- module~foodie&#45;&gt;program~integrate_oscillation -->
<g id="edge74" class="edge"><title>module~foodie&#45;&gt;program~integrate_oscillation</title>
<path fill="none" stroke="black" stroke-dasharray="5,2" d="M516.224,-291.8C522.911,-267.509 540.697,-215.707 576,-189.937 611.835,-163.778 633.228,-188.431 674,-170.937"/>
<path fill="none" stroke="black" stroke-dasharray="5,2" d="M674,-170.937C714.772,-153.443 728.814,-162.104 772,-151.937 783.715,-149.178 796.203,-145.918 808.029,-142.679"/>
<polygon fill="black" stroke="black" points="809.077,-146.021 817.777,-139.974 807.205,-139.275 809.077,-146.021"/>
</g>
<!-- module~foodie&#45;&gt;program~integrate_lorenz -->
<g id="edge84" class="edge"><title>module~foodie&#45;&gt;program~integrate_lorenz</title>
<path fill="none" stroke="black" stroke-dasharray="5,2" d="M674,-170.937C715.852,-152.98 767.931,-154.597 806.656,-159.786"/>
<polygon fill="black" stroke="black" points="806.3,-163.271 816.701,-161.251 807.311,-156.345 806.3,-163.271"/>
</g>
<!-- module~foodie_integrator_adams_bashforth -->
<g id="node3" class="node"><title>module~foodie_integrator_adams_bashforth</title>
<a xlink:href="../module/foodie_integrator_adams_bashforth.html" xlink:title="foodie_integrator_adams_bashforth">
<polygon fill="#337ab7" stroke="#337ab7" points="431,-232.937 249,-232.937 249,-206.937 431,-206.937 431,-232.937"/>
<text text-anchor="middle" x="340" y="-217.487" font-family="Helvetica,sans-Serif" font-size="10.50" fill="white">foodie_integrator_adams_bashforth</text>
</a>
</g>
<!-- module~foodie_integrator_adams_bashforth&#45;&gt;module~foodie -->
<g id="edge12" class="edge"><title>module~foodie_integrator_adams_bashforth&#45;&gt;module~foodie</title>
<path fill="none" stroke="black" stroke-dasharray="5,2" d="M429.253,-233.029C436.463,-235.505 443.475,-238.445 450,-241.937 468.861,-252.031 485.729,-269.604 497.254,-283.631"/>
<polygon fill="black" stroke="black" points="494.765,-286.127 503.709,-291.807 500.26,-281.79 494.765,-286.127"/>
</g>
<!-- module~type_burgers&#45;&gt;program~integrate_burgers -->
<g id="edge72" class="edge"><title>module~type_burgers&#45;&gt;program~integrate_burgers</title>
<path fill="none" stroke="black" stroke-dasharray="5,2" d="M712.045,-329.64C738.264,-323.922 773.616,-316.212 803.41,-309.714"/>
<polygon fill="black" stroke="black" points="804.255,-313.112 813.28,-307.562 802.764,-306.273 804.255,-313.112"/>
</g>
<!-- module~foodie_integrator_euler_explicit -->
<g id="node5" class="node"><title>module~foodie_integrator_euler_explicit</title>
<a xlink:href="../module/foodie_integrator_euler_explicit.html" xlink:title="foodie_integrator_euler_explicit">
<polygon fill="#337ab7" stroke="#337ab7" points="421,-446.937 259,-446.937 259,-420.937 421,-420.937 421,-446.937"/>
<text text-anchor="middle" x="340" y="-431.487" font-family="Helvetica,sans-Serif" font-size="10.50" fill="white">foodie_integrator_euler_explicit</text>
</a>
</g>
<!-- module~foodie_integrator_euler_explicit&#45;&gt;module~foodie -->
<g id="edge14" class="edge"><title>module~foodie_integrator_euler_explicit&#45;&gt;module~foodie</title>
<path fill="none" stroke="black" stroke-dasharray="5,2" d="M421.088,-425.934C431.396,-422.615 441.349,-418.087 450,-411.937 479.056,-391.28 496.862,-352.659 505.828,-327.904"/>
<polygon fill="black" stroke="black" points="509.21,-328.831 509.137,-318.237 502.587,-326.565 509.21,-328.831"/>
</g>
<!-- module~type_euler_1d&#45;&gt;program~integrate_euler_1d -->
<g id="edge62" class="edge"><title>module~type_euler_1d&#45;&gt;program~integrate_euler_1d</title>
<path fill="none" stroke="black" stroke-dasharray="5,2" d="M715.313,-449.042C733.105,-444.58 753.93,-438.5 772,-430.937 793.83,-421.8 816.912,-408.378 834.235,-397.46"/>
<polygon fill="black" stroke="black" points="836.201,-400.357 842.731,-392.014 832.424,-394.463 836.201,-400.357"/>
</g>
<!-- module~foodie_integrator_tvd_runge_kutta -->
<g id="node7" class="node"><title>module~foodie_integrator_tvd_runge_kutta</title>
<a xlink:href="../module/foodie_integrator_tvd_runge_kutta.html" xlink:title="foodie_integrator_tvd_runge_kutta">
<polygon fill="#337ab7" stroke="#337ab7" points="428,-402.937 252,-402.937 252,-376.937 428,-376.937 428,-402.937"/>
<text text-anchor="middle" x="340" y="-387.487" font-family="Helvetica,sans-Serif" font-size="10.50" fill="white">foodie_integrator_tvd_runge_kutta</text>
</a>
</g>
<!-- module~foodie_integrator_tvd_runge_kutta&#45;&gt;module~foodie -->
<g id="edge8" class="edge"><title>module~foodie_integrator_tvd_runge_kutta&#45;&gt;module~foodie</title>
<path fill="none" stroke="black" stroke-dasharray="5,2" d="M428.684,-377.038C436.094,-374.523 443.303,-371.521 450,-367.937 468.861,-357.843 485.729,-340.269 497.254,-326.243"/>
<polygon fill="black" stroke="black" points="500.26,-328.084 503.709,-318.066 494.765,-323.746 500.26,-328.084"/>
</g>
<!-- module~foodie_integrator_low_storage_runge_kutta -->
<g id="node8" class="node"><title>module~foodie_integrator_low_storage_runge_kutta</title>
<a xlink:href="../module/foodie_integrator_low_storage_runge_kutta.html" xlink:title="foodie_integrator_low_storage_runge_kutta">
<polygon fill="#337ab7" stroke="#337ab7" points="450,-358.937 230,-358.937 230,-332.937 450,-332.937 450,-358.937"/>
<text text-anchor="middle" x="340" y="-343.487" font-family="Helvetica,sans-Serif" font-size="10.50" fill="white">foodie_integrator_low_storage_runge_kutta</text>
</a>
</g>
<!-- module~foodie_integrator_low_storage_runge_kutta&#45;&gt;module~foodie -->
<g id="edge6" class="edge"><title>module~foodie_integrator_low_storage_runge_kutta&#45;&gt;module~foodie</title>
<path fill="none" stroke="black" stroke-dasharray="5,2" d="M395.214,-332.851C421.572,-326.604 452.41,-319.296 475.919,-313.725"/>
<polygon fill="black" stroke="black" points="476.913,-317.086 485.836,-311.374 475.299,-310.275 476.913,-317.086"/>
</g>
<!-- module~foodie_integrator_leapfrog -->
<g id="node9" class="node"><title>module~foodie_integrator_leapfrog</title>
<a xlink:href="../module/foodie_integrator_leapfrog.html" xlink:title="foodie_integrator_leapfrog">
<polygon fill="#337ab7" stroke="#337ab7" points="409,-276.937 271,-276.937 271,-250.937 409,-250.937 409,-276.937"/>
<text text-anchor="middle" x="340" y="-261.487" font-family="Helvetica,sans-Serif" font-size="10.50" fill="white">foodie_integrator_leapfrog</text>
</a>
</g>
<!-- module~foodie_integrator_leapfrog&#45;&gt;module~foodie -->
<g id="edge16" class="edge"><title>module~foodie_integrator_leapfrog&#45;&gt;module~foodie</title>
<path fill="none" stroke="black" stroke-dasharray="5,2" d="M395.214,-277.022C421.572,-283.269 452.41,-290.577 475.919,-296.149"/>
<polygon fill="black" stroke="black" points="475.299,-299.599 485.836,-298.499 476.913,-292.787 475.299,-299.599"/>
</g>
<!-- module~type_oscillation&#45;&gt;program~integrate_oscillation -->
<g id="edge76" class="edge"><title>module~type_oscillation&#45;&gt;program~integrate_oscillation</title>
<path fill="none" stroke="black" stroke-dasharray="5,2" d="M716.762,-57.1967C734.229,-61.6229 754.418,-67.5781 772,-74.9367 793.83,-84.0733 816.912,-97.4949 834.235,-108.414"/>
<polygon fill="black" stroke="black" points="832.424,-111.41 842.731,-113.86 836.201,-105.517 832.424,-111.41"/>
</g>
<!-- module~type_integrand -->
<g id="node11" class="node"><title>module~type_integrand</title>
<a xlink:href="../module/type_integrand.html" xlink:title="type_integrand">
<polygon fill="#337ab7" stroke="#337ab7" points="194,-337.937 110,-337.937 110,-311.937 194,-311.937 194,-337.937"/>
<text text-anchor="middle" x="152" y="-322.487" font-family="Helvetica,sans-Serif" font-size="10.50" fill="white">type_integrand</text>
</a>
</g>
<!-- module~type_integrand&#45;&gt;module~foodie -->
<g id="edge10" class="edge"><title>module~type_integrand&#45;&gt;module~foodie</title>
<path fill="none" stroke="black" stroke-dasharray="5,2" d="M194.118,-322.603C265.266,-318.662 408.104,-310.748 475.792,-306.998"/>
<polygon fill="black" stroke="black" points="476.196,-310.481 485.987,-306.433 475.809,-303.492 476.196,-310.481"/>
</g>
<!-- module~type_integrand&#45;&gt;module~foodie_integrator_adams_bashforth -->
<g id="edge18" class="edge"><title>module~type_integrand&#45;&gt;module~foodie_integrator_adams_bashforth</title>
<path fill="none" stroke="black" stroke-dasharray="5,2" d="M160.314,-311.903C172.962,-293.231 198.883,-259.217 230,-241.937 233.445,-240.024 237.033,-238.275 240.719,-236.678"/>
<polygon fill="black" stroke="black" points="242.031,-239.923 250.06,-233.01 239.473,-233.407 242.031,-239.923"/>
</g>
<!-- module~type_integrand&#45;&gt;module~foodie_integrator_euler_explicit -->
<g id="edge26" class="edge"><title>module~type_integrand&#45;&gt;module~foodie_integrator_euler_explicit</title>
<path fill="none" stroke="black" stroke-dasharray="5,2" d="M159.747,-337.955C172.039,-357.384 197.935,-393.635 230,-411.937 235.966,-415.342 242.377,-418.227 248.996,-420.669"/>
<polygon fill="black" stroke="black" points="248.222,-424.1 258.815,-423.941 250.434,-417.459 248.222,-424.1"/>
</g>
<!-- module~type_integrand&#45;&gt;module~foodie_integrator_tvd_runge_kutta -->
<g id="edge36" class="edge"><title>module~type_integrand&#45;&gt;module~foodie_integrator_tvd_runge_kutta</title>
<path fill="none" stroke="black" stroke-dasharray="5,2" d="M171.717,-338.035C187.022,-347.639 209.088,-360.289 230,-367.937 236.39,-370.274 243.085,-372.383 249.882,-374.282"/>
<polygon fill="black" stroke="black" points="249.329,-377.756 259.891,-376.918 251.112,-370.987 249.329,-377.756"/>
</g>
<!-- module~type_integrand&#45;&gt;module~foodie_integrator_low_storage_runge_kutta -->
<g id="edge40" class="edge"><title>module~type_integrand&#45;&gt;module~foodie_integrator_low_storage_runge_kutta</title>
<path fill="none" stroke="black" stroke-dasharray="5,2" d="M194.191,-329.65C202.057,-330.528 210.626,-331.485 219.541,-332.481"/>
<polygon fill="black" stroke="black" points="219.408,-335.988 229.735,-333.62 220.185,-329.031 219.408,-335.988"/>
</g>
<!-- module~type_integrand&#45;&gt;module~foodie_integrator_leapfrog -->
<g id="edge44" class="edge"><title>module~type_integrand&#45;&gt;module~foodie_integrator_leapfrog</title>
<path fill="none" stroke="black" stroke-dasharray="5,2" d="M178.986,-311.817C193.804,-304.961 212.646,-296.801 230,-290.937 242.47,-286.723 255.939,-282.867 269.033,-279.469"/>
<polygon fill="black" stroke="black" points="270.112,-282.806 278.95,-276.962 268.397,-276.02 270.112,-282.806"/>
</g>
<!-- IR_Precision -->
<g id="node16" class="node"><title>IR_Precision</title>
<polygon fill="#337ab7" stroke="#337ab7" points="73,-337.937 1,-337.937 1,-311.937 73,-311.937 73,-337.937"/>
<text text-anchor="middle" x="37" y="-322.487" font-family="Helvetica,sans-Serif" font-size="10.50" fill="white">IR_Precision</text>
</g>
<!-- IR_Precision&#45;&gt;module~type_lorenz -->
<g id="edge2" class="edge"><title>IR_Precision&#45;&gt;module~type_lorenz</title>
<path fill="none" stroke="black" stroke-dasharray="5,2" d="M513,-88.9367C518.842,-87.7444 584.316,-105.2 629.945,-117.71"/>
<polygon fill="black" stroke="black" points="629.067,-121.098 639.637,-120.374 630.923,-114.349 629.067,-121.098"/>
</g>
<!-- IR_Precision&#45;&gt;module~foodie_integrator_adams_bashforth -->
<g id="edge20" class="edge"><title>IR_Precision&#45;&gt;module~foodie_integrator_adams_bashforth</title>
<path fill="none" stroke="black" stroke-dasharray="5,2" d="M152,-219.937C184.643,-205.996 223.478,-203.899 257.354,-206.1"/>
<polygon fill="black" stroke="black" points="257.452,-209.618 267.696,-206.912 258.001,-202.64 257.452,-209.618"/>
</g>
<!-- IR_Precision&#45;&gt;module~type_burgers -->
<g id="edge22" class="edge"><title>IR_Precision&#45;&gt;module~type_burgers</title>
<path fill="none" stroke="black" stroke-dasharray="5,2" d="M152,-433.937C234.612,-462.197 252.811,-486.316 340,-490.937"/>
<path fill="none" stroke="black" stroke-dasharray="5,2" d="M340,-490.937C391.232,-493.652 403.392,-477.379 450,-455.937 479.917,-442.173 481.766,-427.37 513,-416.937"/>
<path fill="none" stroke="black" stroke-dasharray="5,2" d="M513,-416.937C560.439,-401.09 611.738,-374.023 643.373,-356.058"/>
<polygon fill="black" stroke="black" points="645.213,-359.037 652.143,-351.024 641.728,-352.966 645.213,-359.037"/>
</g>
<!-- IR_Precision&#45;&gt;module~foodie_integrator_euler_explicit -->
<g id="edge28" class="edge"><title>IR_Precision&#45;&gt;module~foodie_integrator_euler_explicit</title>
<path fill="none" stroke="black" stroke-dasharray="5,2" d="M152,-433.937C182.513,-444.375 217.479,-446.756 248.914,-445.744"/>
<polygon fill="black" stroke="black" points="249.149,-449.237 258.986,-445.302 248.842,-442.243 249.149,-449.237"/>
</g>
<!-- IR_Precision&#45;&gt;module~type_euler_1d -->
<g id="edge32" class="edge"><title>IR_Precision&#45;&gt;module~type_euler_1d</title>
<path fill="none" stroke="black" stroke-dasharray="5,2" d="M340,-490.937C416.863,-495.01 436.091,-502.032 513,-498.937"/>
<path fill="none" stroke="black" stroke-dasharray="5,2" d="M513,-498.937C524.096,-498.49 580.107,-483.743 622.978,-472.063"/>
<polygon fill="black" stroke="black" points="624.006,-475.41 632.729,-469.398 622.16,-468.658 624.006,-475.41"/>
</g>
<!-- IR_Precision&#45;&gt;module~foodie_integrator_tvd_runge_kutta -->
<g id="edge38" class="edge"><title>IR_Precision&#45;&gt;module~foodie_integrator_tvd_runge_kutta</title>
<path fill="none" stroke="black" stroke-dasharray="5,2" d="M152,-433.937C186.08,-445.595 194.981,-420.364 230,-411.937 239.901,-409.554 250.346,-407.227 260.701,-405.032"/>
<polygon fill="black" stroke="black" points="261.506,-408.44 270.58,-402.971 260.076,-401.587 261.506,-408.44"/>
</g>
<!-- IR_Precision&#45;&gt;module~foodie_integrator_low_storage_runge_kutta -->
<g id="edge42" class="edge"><title>IR_Precision&#45;&gt;module~foodie_integrator_low_storage_runge_kutta</title>
<path fill="none" stroke="black" stroke-dasharray="5,2" d="M45.0836,-337.981C61.4999,-362.974 101.506,-416.664 152,-433.937"/>
<path fill="none" stroke="black" stroke-dasharray="5,2" d="M152,-433.937C194.967,-448.635 189.106,-387.682 230,-367.937 234.321,-365.85 238.83,-363.961 243.45,-362.252"/>
<polygon fill="black" stroke="black" points="244.72,-365.517 253.064,-358.988 242.47,-358.888 244.72,-365.517"/>
</g>
<!-- IR_Precision&#45;&gt;module~foodie_integrator_leapfrog -->
<g id="edge46" class="edge"><title>IR_Precision&#45;&gt;module~foodie_integrator_leapfrog</title>
<path fill="none" stroke="black" stroke-dasharray="5,2" d="M152,-219.937C185.125,-205.79 194.981,-233.51 230,-241.937 239.901,-244.319 250.346,-246.646 260.701,-248.841"/>
<polygon fill="black" stroke="black" points="260.076,-252.286 270.58,-250.903 261.506,-245.434 260.076,-252.286"/>
</g>
<!-- IR_Precision&#45;&gt;module~type_oscillation -->
<g id="edge48" class="edge"><title>IR_Precision&#45;&gt;module~type_oscillation</title>
<path fill="none" stroke="black" stroke-dasharray="5,2" d="M513,-88.9367C549.467,-81.4941 590.075,-71.1379 621.386,-62.696"/>
<polygon fill="black" stroke="black" points="622.475,-66.0272 631.208,-60.0286 620.64,-59.2718 622.475,-66.0272"/>
</g>
<!-- IR_Precision&#45;&gt;module~type_integrand -->
<g id="edge52" class="edge"><title>IR_Precision&#45;&gt;module~type_integrand</title>
<path fill="none" stroke="black" stroke-dasharray="5,2" d="M73.7029,-324.937C81.9237,-324.937 90.8,-324.937 99.521,-324.937"/>
<polygon fill="black" stroke="black" points="99.6389,-328.437 109.639,-324.937 99.6388,-321.437 99.6389,-328.437"/>
</g>
<!-- IR_Precision&#45;&gt;program~integrate_euler_1d -->
<g id="edge60" class="edge"><title>IR_Precision&#45;&gt;program~integrate_euler_1d</title>
<path fill="none" stroke="black" stroke-dasharray="5,2" d="M513,-498.937C628.327,-494.296 668.479,-530.978 772,-479.937 807.147,-462.607 834.711,-424.963 849.646,-400.846"/>
<polygon fill="black" stroke="black" points="852.785,-402.415 854.914,-392.036 846.778,-398.822 852.785,-402.415"/>
</g>
<!-- IR_Precision&#45;&gt;program~integrate_burgers -->
<g id="edge70" class="edge"><title>IR_Precision&#45;&gt;program~integrate_burgers</title>
<path fill="none" stroke="black" stroke-dasharray="5,2" d="M513,-416.937C624.793,-379.593 664.076,-407.316 772,-359.937 796.913,-349 822.008,-330.689 839.346,-316.618"/>
<polygon fill="black" stroke="black" points="841.738,-319.181 847.2,-310.102 837.269,-313.794 841.738,-319.181"/>
</g>
<!-- IR_Precision&#45;&gt;program~integrate_oscillation -->
<g id="edge80" class="edge"><title>IR_Precision&#45;&gt;program~integrate_oscillation</title>
<path fill="none" stroke="black" stroke-dasharray="5,2" d="M46.5702,-311.621C64.2952,-288.178 104.76,-240.111 152,-219.937"/>
<path fill="none" stroke="black" stroke-dasharray="5,2" d="M152,-219.937C308.966,-152.901 345.766,-123.068 513,-88.9367"/>
<path fill="none" stroke="black" stroke-dasharray="5,2" d="M513,-88.9367C551.69,-80.504 539.416,-41.0902 576,-25.9367 656.48,7.39928 692.512,9.70011 772,-25.9367 807.947,-42.0529 835.426,-80.4096 850.101,-104.944"/>
<polygon fill="black" stroke="black" points="847.234,-106.98 855.258,-113.899 853.3,-103.486 847.234,-106.98"/>
</g>
<!-- IR_Precision&#45;&gt;program~integrate_lorenz -->
<g id="edge90" class="edge"><title>IR_Precision&#45;&gt;program~integrate_lorenz</title>
<path fill="none" stroke="black" stroke-dasharray="5,2" d="M513,-88.9367C626.089,-65.856 668.666,-56.5166 772,-107.937 793.71,-118.74 788.243,-134.875 808,-148.937 810.093,-150.426 812.301,-151.837 814.582,-153.169"/>
<polygon fill="black" stroke="black" points="813.163,-156.377 823.644,-157.923 816.415,-150.178 813.163,-156.377"/>
</g>
<!-- wenoof -->
<g id="node31" class="node"><title>wenoof</title>
<polygon fill="#337ab7" stroke="#337ab7" points="540,-470.937 486,-470.937 486,-444.937 540,-444.937 540,-470.937"/>
<text text-anchor="middle" x="513" y="-455.487" font-family="Helvetica,sans-Serif" font-size="10.50" fill="white">wenoof</text>
</g>
<!-- wenoof&#45;&gt;module~type_euler_1d -->
<g id="edge30" class="edge"><title>wenoof&#45;&gt;module~type_euler_1d</title>
<path fill="none" stroke="black" stroke-dasharray="5,2" d="M540.311,-457.937C562.825,-457.937 595.384,-457.937 622.733,-457.937"/>
<polygon fill="black" stroke="black" points="622.929,-461.437 632.929,-457.937 622.929,-454.437 622.929,-461.437"/>
</g>
<!-- pyplot_module -->
<g id="node45" class="node"><title>pyplot_module</title>
<polygon fill="#337ab7" stroke="#337ab7" points="715,-268.937 633,-268.937 633,-242.937 715,-242.937 715,-268.937"/>
<text text-anchor="middle" x="674" y="-253.487" font-family="Helvetica,sans-Serif" font-size="10.50" fill="white">pyplot_module</text>
</g>
<!-- pyplot_module&#45;&gt;program~integrate_euler_1d -->
<g id="edge56" class="edge"><title>pyplot_module&#45;&gt;program~integrate_euler_1d</title>
<path fill="none" stroke="black" stroke-dasharray="5,2" d="M696.429,-269.135C716.451,-281.044 746.47,-299.208 772,-315.937 793.798,-330.22 817.967,-347.204 835.766,-359.936"/>
<polygon fill="black" stroke="black" points="833.789,-362.826 843.953,-365.815 837.871,-357.139 833.789,-362.826"/>
</g>
<!-- pyplot_module&#45;&gt;program~integrate_burgers -->
<g id="edge66" class="edge"><title>pyplot_module&#45;&gt;program~integrate_burgers</title>
<path fill="none" stroke="black" stroke-dasharray="5,2" d="M715.257,-264.934C741.073,-270.564 774.736,-277.906 803.307,-284.137"/>
<polygon fill="black" stroke="black" points="802.663,-287.578 813.179,-286.29 804.155,-280.739 802.663,-287.578"/>
</g>
<!-- pyplot_module&#45;&gt;program~integrate_oscillation -->
<g id="edge78" class="edge"><title>pyplot_module&#45;&gt;program~integrate_oscillation</title>
<path fill="none" stroke="black" stroke-dasharray="5,2" d="M715.448,-255.084C734.521,-252.728 756.337,-247.009 772,-233.937 803.497,-207.648 778.791,-177.747 808,-148.937 809.104,-147.848 810.268,-146.811 811.483,-145.823"/>
<polygon fill="black" stroke="black" points="813.78,-148.495 820.105,-139.995 809.86,-142.696 813.78,-148.495"/>
</g>
<!-- pyplot_module&#45;&gt;program~integrate_lorenz -->
<g id="edge86" class="edge"><title>pyplot_module&#45;&gt;program~integrate_lorenz</title>
<path fill="none" stroke="black" stroke-dasharray="5,2" d="M715.181,-250.372C733.143,-247.022 754.134,-241.825 772,-233.937 796.89,-222.947 821.988,-204.642 839.333,-190.587"/>
<polygon fill="black" stroke="black" points="841.721,-193.154 847.19,-184.08 837.256,-187.763 841.721,-193.154"/>
</g>
<!-- Data_Type_Command_Line_Interface -->
<g id="node47" class="node"><title>Data_Type_Command_Line_Interface</title>
<polygon fill="#337ab7" stroke="#337ab7" points="771,-224.937 577,-224.937 577,-198.937 771,-198.937 771,-224.937"/>
<text text-anchor="middle" x="674" y="-209.487" font-family="Helvetica,sans-Serif" font-size="10.50" fill="white">Data_Type_Command_Line_Interface</text>
</g>
<!-- Data_Type_Command_Line_Interface&#45;&gt;program~integrate_euler_1d -->
<g id="edge58" class="edge"><title>Data_Type_Command_Line_Interface&#45;&gt;program~integrate_euler_1d</title>
<path fill="none" stroke="black" stroke-dasharray="5,2" d="M758.419,-225.02C763.268,-227.526 767.85,-230.473 772,-233.937 803.497,-260.225 785.974,-284.324 808,-318.937 817.17,-333.346 829.847,-347.635 840.615,-358.651"/>
<polygon fill="black" stroke="black" points="838.146,-361.132 847.697,-365.717 843.089,-356.176 838.146,-361.132"/>
</g>
<!-- Data_Type_Command_Line_Interface&#45;&gt;program~integrate_burgers -->
<g id="edge68" class="edge"><title>Data_Type_Command_Line_Interface&#45;&gt;program~integrate_burgers</title>
<path fill="none" stroke="black" stroke-dasharray="5,2" d="M747.012,-224.982C755.597,-227.49 764.104,-230.45 772,-233.937 796.89,-244.926 821.988,-263.231 839.333,-277.286"/>
<polygon fill="black" stroke="black" points="837.256,-280.11 847.19,-283.794 841.721,-274.719 837.256,-280.11"/>
</g>
<!-- Data_Type_Command_Line_Interface&#45;&gt;program~integrate_oscillation -->
<g id="edge82" class="edge"><title>Data_Type_Command_Line_Interface&#45;&gt;program~integrate_oscillation</title>
<path fill="none" stroke="black" stroke-dasharray="5,2" d="M739.699,-198.911C750.889,-195.288 762.086,-190.707 772,-184.937 791.556,-173.554 789.149,-161.453 808,-148.937 810.372,-147.362 812.874,-145.867 815.45,-144.455"/>
<polygon fill="black" stroke="black" points="817.033,-147.577 824.407,-139.969 813.898,-141.318 817.033,-147.577"/>
</g>
<!-- Data_Type_Command_Line_Interface&#45;&gt;program~integrate_lorenz -->
<g id="edge88" class="edge"><title>Data_Type_Command_Line_Interface&#45;&gt;program~integrate_lorenz</title>
<path fill="none" stroke="black" stroke-dasharray="5,2" d="M733.743,-198.908C757.157,-193.801 783.857,-187.979 806.811,-182.973"/>
<polygon fill="black" stroke="black" points="807.708,-186.359 816.733,-180.809 806.217,-179.52 807.708,-186.359"/>
</g>
</g>
</svg>
