<?xml version="1.0" encoding="UTF-8" standalone="no"?>
<!DOCTYPE svg PUBLIC "-//W3C//DTD SVG 1.1//EN"
 "http://www.w3.org/Graphics/SVG/1.1/DTD/svg11.dtd">
<!-- Generated by graphviz version 2.26.3 (20100126.1600)
 -->
<!-- Title: module~~foodie~~UsedByGraph Pages: 1 -->
<svg width="328pt" height="268pt"
 viewBox="0.00 0.00 328.00 267.97" xmlns="http://www.w3.org/2000/svg" xmlns:xlink="http://www.w3.org/1999/xlink">
<g id="graph1" class="graph" transform="scale(1 1) rotate(0) translate(4 263.974)">
<title>module~~foodie~~UsedByGraph</title>
<polygon fill="white" stroke="white" points="-4,5 -4,-263.974 325,-263.974 325,5 -4,5"/>
<!-- module~foodie -->
<g id="node1" class="node"><title>module~foodie</title>
<polygon fill="none" stroke="black" points="54,-136.974 2.13163e-14,-136.974 0,-110.974 54,-110.974 54,-136.974"/>
<text text-anchor="middle" x="27" y="-121.524" font-family="Helvetica,sans-Serif" font-size="10.50">foodie</text>
</g>
<!-- module~type_burgers -->
<g id="node2" class="node"><title>module~type_burgers</title>
<a xlink:href="../module/type_burgers.html" xlink:title="type_burgers">
<polygon fill="#337ab7" stroke="#337ab7" points="171,-259.974 95,-259.974 95,-233.974 171,-233.974 171,-259.974"/>
<text text-anchor="middle" x="133" y="-244.524" font-family="Helvetica,sans-Serif" font-size="10.50" fill="white">type_burgers</text>
</a>
</g>
<!-- module~foodie&#45;&gt;module~type_burgers -->
<g id="edge10" class="edge"><title>module~foodie&#45;&gt;module~type_burgers</title>
<path fill="none" stroke="black" stroke-dasharray="5,2" d="M33.2538,-137.035C43.1778,-156.77 64.0887,-194.577 90,-219.974 92.8919,-222.808 96.1306,-225.495 99.4984,-227.995"/>
<polygon fill="black" stroke="black" points="97.7794,-231.059 108.012,-233.806 101.726,-225.278 97.7794,-231.059"/>
</g>
<!-- module~type_oscillation -->
<g id="node3" class="node"><title>module~type_oscillation</title>
<a xlink:href="../module/type_oscillation.html" xlink:title="type_oscillation">
<polygon fill="#337ab7" stroke="#337ab7" points="175,-177.974 91,-177.974 91,-151.974 175,-151.974 175,-177.974"/>
<text text-anchor="middle" x="133" y="-162.524" font-family="Helvetica,sans-Serif" font-size="10.50" fill="white">type_oscillation</text>
</a>
</g>
<!-- module~foodie&#45;&gt;module~type_oscillation -->
<g id="edge12" class="edge"><title>module~foodie&#45;&gt;module~type_oscillation</title>
<path fill="none" stroke="black" stroke-dasharray="5,2" d="M54.0225,-134.426C64.8641,-138.619 77.6323,-143.558 89.7049,-148.227"/>
<polygon fill="black" stroke="black" points="88.5985,-151.552 99.1877,-151.895 91.1237,-145.023 88.5985,-151.552"/>
</g>
<!-- program~integrate_lorenz -->
<g id="node4" class="node"><title>program~integrate_lorenz</title>
<a xlink:href="../program/integrate_lorenz.html" xlink:title="integrate_lorenz">
<polygon fill="#f0ad4e" stroke="#f0ad4e" points="311,-95.9736 221,-95.9736 221,-69.9736 311,-69.9736 311,-95.9736"/>
<text text-anchor="middle" x="266" y="-80.5236" font-family="Helvetica,sans-Serif" font-size="10.50" fill="white">integrate_lorenz</text>
</a>
</g>
<!-- module~foodie&#45;&gt;program~integrate_lorenz -->
<g id="edge14" class="edge"><title>module~foodie&#45;&gt;program~integrate_lorenz</title>
<path fill="none" stroke="black" stroke-dasharray="5,2" d="M54.0494,-125.029C75.4912,-125.61 106.2,-125.878 133,-123.974"/>
<path fill="none" stroke="black" stroke-dasharray="5,2" d="M133,-123.974C150.146,-122.755 189.317,-110.226 220.733,-99.3357"/>
<polygon fill="black" stroke="black" points="221.918,-102.629 230.201,-96.0228 219.607,-96.0219 221.918,-102.629"/>
</g>
<!-- program~integrate_burgers -->
<g id="node5" class="node"><title>program~integrate_burgers</title>
<a xlink:href="../program/integrate_burgers.html" xlink:title="integrate_burgers">
<polygon fill="#f0ad4e" stroke="#f0ad4e" points="314,-238.974 218,-238.974 218,-212.974 314,-212.974 314,-238.974"/>
<text text-anchor="middle" x="266" y="-223.524" font-family="Helvetica,sans-Serif" font-size="10.50" fill="white">integrate_burgers</text>
</a>
</g>
<!-- module~foodie&#45;&gt;program~integrate_burgers -->
<g id="edge16" class="edge"><title>module~foodie&#45;&gt;program~integrate_burgers</title>
<path fill="none" stroke="black" stroke-dasharray="5,2" d="M36.3371,-137.018C47.4429,-151.526 67.3522,-174.55 90,-186.974 126.088,-206.77 171.548,-216.519 207.225,-221.319"/>
<polygon fill="black" stroke="black" points="207.13,-224.835 217.486,-222.601 207.997,-217.889 207.13,-224.835"/>
</g>
<!-- module~type_euler_1d -->
<g id="node6" class="node"><title>module~type_euler_1d</title>
<a xlink:href="../module/type_euler_1d.html" xlink:title="type_euler_1D">
<polygon fill="#337ab7" stroke="#337ab7" points="174,-51.9736 92,-51.9736 92,-25.9736 174,-25.9736 174,-51.9736"/>
<text text-anchor="middle" x="133" y="-36.5236" font-family="Helvetica,sans-Serif" font-size="10.50" fill="white">type_euler_1D</text>
</a>
</g>
<!-- module~foodie&#45;&gt;module~type_euler_1d -->
<g id="edge18" class="edge"><title>module~foodie&#45;&gt;module~type_euler_1d</title>
<path fill="none" stroke="black" stroke-dasharray="5,2" d="M37.8312,-110.946C49.648,-97.2943 69.6148,-75.8103 90,-60.9736 91.6272,-59.7893 93.3272,-58.6337 95.0721,-57.5118"/>
<polygon fill="black" stroke="black" points="97.2159,-60.3103 104.041,-52.2068 93.6522,-54.2853 97.2159,-60.3103"/>
</g>
<!-- program~integrate_oscillation -->
<g id="node7" class="node"><title>program~integrate_oscillation</title>
<a xlink:href="../program/integrate_oscillation.html" xlink:title="integrate_oscillation">
<polygon fill="#f0ad4e" stroke="#f0ad4e" points="319,-139.974 213,-139.974 213,-113.974 319,-113.974 319,-139.974"/>
<text text-anchor="middle" x="266" y="-124.524" font-family="Helvetica,sans-Serif" font-size="10.50" fill="white">integrate_oscillation</text>
</a>
</g>
<!-- module~foodie&#45;&gt;program~integrate_oscillation -->
<g id="edge20" class="edge"><title>module~foodie&#45;&gt;program~integrate_oscillation</title>
<path fill="none" stroke="black" stroke-dasharray="5,2" d="M133,-123.974C155.474,-122.376 180.132,-122.432 202.047,-123.113"/>
<polygon fill="black" stroke="black" points="202.114,-126.617 212.233,-123.479 202.365,-119.622 202.114,-126.617"/>
</g>
<!-- module~type_lorenz -->
<g id="node8" class="node"><title>module~type_lorenz</title>
<a xlink:href="../module/type_lorenz.html" xlink:title="type_lorenz">
<polygon fill="#337ab7" stroke="#337ab7" points="167,-95.9736 99,-95.9736 99,-69.9736 167,-69.9736 167,-95.9736"/>
<text text-anchor="middle" x="133" y="-80.5236" font-family="Helvetica,sans-Serif" font-size="10.50" fill="white">type_lorenz</text>
</a>
</g>
<!-- module~foodie&#45;&gt;module~type_lorenz -->
<g id="edge22" class="edge"><title>module~foodie&#45;&gt;module~type_lorenz</title>
<path fill="none" stroke="black" stroke-dasharray="5,2" d="M54.0225,-113.522C64.8641,-109.328 77.6323,-104.389 89.7049,-99.7198"/>
<polygon fill="black" stroke="black" points="91.1237,-102.924 99.1877,-96.052 88.5985,-96.3952 91.1237,-102.924"/>
</g>
<!-- program~integrate_euler_1d -->
<g id="node9" class="node"><title>program~integrate_euler_1d</title>
<a xlink:href="../program/integrate_euler_1d.html" xlink:title="integrate_euler_1D">
<polygon fill="#f0ad4e" stroke="#f0ad4e" points="318,-31.9736 214,-31.9736 214,-5.97363 318,-5.97363 318,-31.9736"/>
<text text-anchor="middle" x="266" y="-16.5236" font-family="Helvetica,sans-Serif" font-size="10.50" fill="white">integrate_euler_1D</text>
</a>
</g>
<!-- module~foodie&#45;&gt;program~integrate_euler_1d -->
<g id="edge24" class="edge"><title>module~foodie&#45;&gt;program~integrate_euler_1d</title>
<path fill="none" stroke="black" stroke-dasharray="5,2" d="M30.2087,-110.734C36.7787,-86.9128 54.2546,-37.4084 90,-16.9736 125.403,3.26548 171.724,1.85973 207.958,-4.12397"/>
<polygon fill="black" stroke="black" points="207.43,-7.58518 217.893,-5.91889 208.675,-0.696698 207.43,-7.58518"/>
</g>
<!-- module~type_burgers&#45;&gt;program~integrate_burgers -->
<g id="edge2" class="edge"><title>module~type_burgers&#45;&gt;program~integrate_burgers</title>
<path fill="none" stroke="black" stroke-dasharray="5,2" d="M171.112,-240.956C182.387,-239.176 195.001,-237.184 207.259,-235.249"/>
<polygon fill="black" stroke="black" points="208.102,-238.659 217.434,-233.642 207.011,-231.744 208.102,-238.659"/>
</g>
<!-- module~type_oscillation&#45;&gt;program~integrate_oscillation -->
<g id="edge4" class="edge"><title>module~type_oscillation&#45;&gt;program~integrate_oscillation</title>
<path fill="none" stroke="black" stroke-dasharray="5,2" d="M175.814,-152.741C186.738,-149.62 198.644,-146.218 210.116,-142.94"/>
<polygon fill="black" stroke="black" points="211.398,-146.214 220.051,-140.102 209.475,-139.484 211.398,-146.214"/>
</g>
<!-- module~type_euler_1d&#45;&gt;program~integrate_euler_1d -->
<g id="edge6" class="edge"><title>module~type_euler_1d&#45;&gt;program~integrate_euler_1d</title>
<path fill="none" stroke="black" stroke-dasharray="5,2" d="M174.353,-32.7551C183.732,-31.3447 193.894,-29.8166 203.922,-28.3087"/>
<polygon fill="black" stroke="black" points="204.502,-31.7609 213.87,-26.8127 203.461,-24.8387 204.502,-31.7609"/>
</g>
<!-- module~type_lorenz&#45;&gt;program~integrate_lorenz -->
<g id="edge8" class="edge"><title>module~type_lorenz&#45;&gt;program~integrate_lorenz</title>
<path fill="none" stroke="black" stroke-dasharray="5,2" d="M167.251,-82.9736C180.508,-82.9736 196.022,-82.9736 210.774,-82.9736"/>
<polygon fill="black" stroke="black" points="210.827,-86.4737 220.827,-82.9736 210.827,-79.4737 210.827,-86.4737"/>
</g>
</g>
</svg>
