<?xml version="1.0" encoding="UTF-8" standalone="no"?>
<!DOCTYPE svg PUBLIC "-//W3C//DTD SVG 1.1//EN"
 "http://www.w3.org/Graphics/SVG/1.1/DTD/svg11.dtd">
<!-- Generated by graphviz version 2.26.3 (20100126.1600)
 -->
<!-- Title: module~~foodie~~UsesGraph Pages: 1 -->
<svg width="548pt" height="204pt"
 viewBox="0.00 0.00 548.00 204.00" xmlns="http://www.w3.org/2000/svg" xmlns:xlink="http://www.w3.org/1999/xlink">
<g id="graph1" class="graph" transform="scale(1 1) rotate(0) translate(4 200)">
<title>module~~foodie~~UsesGraph</title>
<polygon fill="white" stroke="white" points="-4,5 -4,-200 545,-200 545,5 -4,5"/>
<!-- module~foodie -->
<g id="node1" class="node"><title>module~foodie</title>
<polygon fill="none" stroke="black" points="540,-111 486,-111 486,-85 540,-85 540,-111"/>
<text text-anchor="middle" x="513" y="-95.55" font-family="Helvetica,sans-Serif" font-size="10.50">foodie</text>
</g>
<!-- module~foodie_integrator_low_storage_runge_kutta -->
<g id="node2" class="node"><title>module~foodie_integrator_low_storage_runge_kutta</title>
<a xlink:href="../module/foodie_integrator_low_storage_runge_kutta.html" xlink:title="foodie_integrator_low_storage_runge_kutta">
<polygon fill="#337ab7" stroke="#337ab7" points="450,-196 230,-196 230,-170 450,-170 450,-196"/>
<text text-anchor="middle" x="340" y="-180.55" font-family="Helvetica,sans-Serif" font-size="10.50" fill="white">foodie_integrator_low_storage_runge_kutta</text>
</a>
</g>
<!-- module~foodie_integrator_low_storage_runge_kutta&#45;&gt;module~foodie -->
<g id="edge20" class="edge"><title>module~foodie_integrator_low_storage_runge_kutta&#45;&gt;module~foodie</title>
<path fill="none" stroke="black" stroke-dasharray="5,2" d="M429.253,-169.907C436.463,-167.432 443.475,-164.492 450,-161 468.861,-150.906 485.729,-133.332 497.254,-119.306"/>
<polygon fill="black" stroke="black" points="500.26,-121.147 503.709,-111.129 494.765,-116.809 500.26,-121.147"/>
</g>
<!-- module~foodie_integrator_tvd_runge_kutta -->
<g id="node3" class="node"><title>module~foodie_integrator_tvd_runge_kutta</title>
<a xlink:href="../module/foodie_integrator_tvd_runge_kutta.html" xlink:title="foodie_integrator_tvd_runge_kutta">
<polygon fill="#337ab7" stroke="#337ab7" points="428,-152 252,-152 252,-126 428,-126 428,-152"/>
<text text-anchor="middle" x="340" y="-136.55" font-family="Helvetica,sans-Serif" font-size="10.50" fill="white">foodie_integrator_tvd_runge_kutta</text>
</a>
</g>
<!-- module~foodie_integrator_tvd_runge_kutta&#45;&gt;module~foodie -->
<g id="edge22" class="edge"><title>module~foodie_integrator_tvd_runge_kutta&#45;&gt;module~foodie</title>
<path fill="none" stroke="black" stroke-dasharray="5,2" d="M395.214,-125.915C421.572,-119.668 452.41,-112.359 475.919,-106.788"/>
<polygon fill="black" stroke="black" points="476.913,-110.149 485.836,-104.438 475.299,-103.338 476.913,-110.149"/>
</g>
<!-- module~type_integrand -->
<g id="node4" class="node"><title>module~type_integrand</title>
<a xlink:href="../module/type_integrand.html" xlink:title="type_integrand">
<polygon fill="#337ab7" stroke="#337ab7" points="194,-111 110,-111 110,-85 194,-85 194,-111"/>
<text text-anchor="middle" x="152" y="-95.55" font-family="Helvetica,sans-Serif" font-size="10.50" fill="white">type_integrand</text>
</a>
</g>
<!-- module~type_integrand&#45;&gt;module~foodie -->
<g id="edge24" class="edge"><title>module~type_integrand&#45;&gt;module~foodie</title>
<path fill="none" stroke="black" stroke-dasharray="5,2" d="M194.118,-98C265.266,-98 408.104,-98 475.792,-98"/>
<polygon fill="black" stroke="black" points="475.987,-101.5 485.987,-98 475.987,-94.5001 475.987,-101.5"/>
</g>
<!-- module~type_integrand&#45;&gt;module~foodie_integrator_low_storage_runge_kutta -->
<g id="edge4" class="edge"><title>module~type_integrand&#45;&gt;module~foodie_integrator_low_storage_runge_kutta</title>
<path fill="none" stroke="black" stroke-dasharray="5,2" d="M164.184,-111.075C178.506,-125.61 203.679,-148.66 230,-161 234.567,-163.141 239.335,-165.074 244.218,-166.819"/>
<polygon fill="black" stroke="black" points="243.133,-170.147 253.726,-169.949 245.322,-163.498 243.133,-170.147"/>
</g>
<!-- module~type_integrand&#45;&gt;module~foodie_integrator_tvd_runge_kutta -->
<g id="edge8" class="edge"><title>module~type_integrand&#45;&gt;module~foodie_integrator_tvd_runge_kutta</title>
<path fill="none" stroke="black" stroke-dasharray="5,2" d="M194.191,-107.201C216.555,-112.078 244.609,-118.197 270.12,-123.76"/>
<polygon fill="black" stroke="black" points="269.61,-127.231 280.126,-125.942 271.101,-120.392 269.61,-127.231"/>
</g>
<!-- module~foodie_integrator_euler_explicit -->
<g id="node5" class="node"><title>module~foodie_integrator_euler_explicit</title>
<a xlink:href="../module/foodie_integrator_euler_explicit.html" xlink:title="foodie_integrator_euler_explicit">
<polygon fill="#337ab7" stroke="#337ab7" points="421,-70 259,-70 259,-44 421,-44 421,-70"/>
<text text-anchor="middle" x="340" y="-54.55" font-family="Helvetica,sans-Serif" font-size="10.50" fill="white">foodie_integrator_euler_explicit</text>
</a>
</g>
<!-- module~type_integrand&#45;&gt;module~foodie_integrator_euler_explicit -->
<g id="edge14" class="edge"><title>module~type_integrand&#45;&gt;module~foodie_integrator_euler_explicit</title>
<path fill="none" stroke="black" stroke-dasharray="5,2" d="M194.191,-88.7988C216.555,-83.9216 244.609,-77.8034 270.12,-72.2397"/>
<polygon fill="black" stroke="black" points="271.101,-75.6081 280.126,-70.0576 269.61,-68.7688 271.101,-75.6081"/>
</g>
<!-- module~foodie_integrator_adams_bashforth -->
<g id="node6" class="node"><title>module~foodie_integrator_adams_bashforth</title>
<a xlink:href="../module/foodie_integrator_adams_bashforth.html" xlink:title="foodie_integrator_adams_bashforth">
<polygon fill="#337ab7" stroke="#337ab7" points="431,-26 249,-26 249,-1.24345e-14 431,-3.55271e-15 431,-26"/>
<text text-anchor="middle" x="340" y="-10.55" font-family="Helvetica,sans-Serif" font-size="10.50" fill="white">foodie_integrator_adams_bashforth</text>
</a>
</g>
<!-- module~type_integrand&#45;&gt;module~foodie_integrator_adams_bashforth -->
<g id="edge18" class="edge"><title>module~type_integrand&#45;&gt;module~foodie_integrator_adams_bashforth</title>
<path fill="none" stroke="black" stroke-dasharray="5,2" d="M174.415,-84.8403C180.931,-80.6862 187.926,-75.8957 194,-71 211.618,-56.8008 210.05,-45.6769 230,-35 233.568,-33.0903 237.282,-31.3456 241.094,-29.7519"/>
<polygon fill="black" stroke="black" points="242.637,-32.9104 250.747,-26.0928 240.155,-26.3649 242.637,-32.9104"/>
</g>
<!-- module~foodie_integrator_euler_explicit&#45;&gt;module~foodie -->
<g id="edge26" class="edge"><title>module~foodie_integrator_euler_explicit&#45;&gt;module~foodie</title>
<path fill="none" stroke="black" stroke-dasharray="5,2" d="M395.214,-70.0854C421.572,-76.3322 452.41,-83.6406 475.919,-89.2121"/>
<polygon fill="black" stroke="black" points="475.299,-92.6619 485.836,-91.5624 476.913,-85.8506 475.299,-92.6619"/>
</g>
<!-- module~foodie_integrator_adams_bashforth&#45;&gt;module~foodie -->
<g id="edge28" class="edge"><title>module~foodie_integrator_adams_bashforth&#45;&gt;module~foodie</title>
<path fill="none" stroke="black" stroke-dasharray="5,2" d="M429.253,-26.0928C436.463,-28.5678 443.475,-31.5079 450,-35 468.861,-45.0938 485.729,-62.6678 497.254,-76.6942"/>
<polygon fill="black" stroke="black" points="494.765,-79.1906 503.709,-84.8706 500.26,-74.853 494.765,-79.1906"/>
</g>
<!-- IR_Precision -->
<g id="node7" class="node"><title>IR_Precision</title>
<polygon fill="#337ab7" stroke="#337ab7" points="73,-111 1,-111 1,-85 73,-85 73,-111"/>
<text text-anchor="middle" x="37" y="-95.55" font-family="Helvetica,sans-Serif" font-size="10.50" fill="white">IR_Precision</text>
</g>
<!-- IR_Precision&#45;&gt;module~foodie_integrator_low_storage_runge_kutta -->
<g id="edge2" class="edge"><title>IR_Precision&#45;&gt;module~foodie_integrator_low_storage_runge_kutta</title>
<path fill="none" stroke="black" stroke-dasharray="5,2" d="M152,-161C173.631,-166.537 197.022,-170.684 219.717,-173.79"/>
<polygon fill="black" stroke="black" points="219.369,-177.274 229.738,-175.101 220.277,-170.333 219.369,-177.274"/>
</g>
<!-- IR_Precision&#45;&gt;module~foodie_integrator_tvd_runge_kutta -->
<g id="edge6" class="edge"><title>IR_Precision&#45;&gt;module~foodie_integrator_tvd_runge_kutta</title>
<path fill="none" stroke="black" stroke-dasharray="5,2" d="M54.1427,-111.031C75.6458,-126.48 114.288,-151.347 152,-161"/>
<path fill="none" stroke="black" stroke-dasharray="5,2" d="M152,-161C172.557,-166.262 220.219,-160.616 262.406,-153.728"/>
<polygon fill="black" stroke="black" points="263.144,-157.154 272.43,-152.053 261.989,-150.249 263.144,-157.154"/>
</g>
<!-- IR_Precision&#45;&gt;module~type_integrand -->
<g id="edge10" class="edge"><title>IR_Precision&#45;&gt;module~type_integrand</title>
<path fill="none" stroke="black" stroke-dasharray="5,2" d="M73.7029,-98C81.9237,-98 90.8,-98 99.521,-98"/>
<polygon fill="black" stroke="black" points="99.6389,-101.5 109.639,-98 99.6388,-94.5001 99.6389,-101.5"/>
</g>
<!-- IR_Precision&#45;&gt;module~foodie_integrator_euler_explicit -->
<g id="edge12" class="edge"><title>IR_Precision&#45;&gt;module~foodie_integrator_euler_explicit</title>
<path fill="none" stroke="black" stroke-dasharray="5,2" d="M152,-57C182.84,-49.7959 217.31,-48.053 248.227,-48.6662"/>
<polygon fill="black" stroke="black" points="248.471,-52.1744 258.566,-48.96 248.67,-45.1773 248.471,-52.1744"/>
</g>
<!-- IR_Precision&#45;&gt;module~foodie_integrator_adams_bashforth -->
<g id="edge16" class="edge"><title>IR_Precision&#45;&gt;module~foodie_integrator_adams_bashforth</title>
<path fill="none" stroke="black" stroke-dasharray="5,2" d="M67.6675,-84.923C90.5132,-75.7126 122.69,-63.8466 152,-57"/>
<path fill="none" stroke="black" stroke-dasharray="5,2" d="M152,-57C187.075,-48.8066 194.981,-43.4272 230,-35 239.901,-32.6174 250.346,-30.2903 260.701,-28.0954"/>
<polygon fill="black" stroke="black" points="261.506,-31.503 270.58,-26.034 260.076,-24.6506 261.506,-31.503"/>
</g>
</g>
</svg>
