<?xml version="1.0" encoding="UTF-8" standalone="no"?>
<!DOCTYPE svg PUBLIC "-//W3C//DTD SVG 1.1//EN"
 "http://www.w3.org/Graphics/SVG/1.1/DTD/svg11.dtd">
<!-- Generated by graphviz version 2.26.3 (20100126.1600)
 -->
<!-- Title: module~~type_integrand~~UsesGraph Pages: 1 -->
<svg width="202pt" height="34pt"
 viewBox="0.00 0.00 202.00 34.00" xmlns="http://www.w3.org/2000/svg" xmlns:xlink="http://www.w3.org/1999/xlink">
<g id="graph1" class="graph" transform="scale(1 1) rotate(0) translate(4 30)">
<title>module~~type_integrand~~UsesGraph</title>
<polygon fill="white" stroke="white" points="-4,5 -4,-30 199,-30 199,5 -4,5"/>
<!-- module~type_integrand -->
<g id="node1" class="node"><title>module~type_integrand</title>
<polygon fill="none" stroke="black" points="194,-26 110,-26 110,-1.24345e-14 194,-3.55271e-15 194,-26"/>
<text text-anchor="middle" x="152" y="-10.55" font-family="Helvetica,sans-Serif" font-size="10.50">type_integrand</text>
</g>
<!-- IR_Precision -->
<g id="node2" class="node"><title>IR_Precision</title>
<polygon fill="#337ab7" stroke="#337ab7" points="73,-26 1,-26 1,-1.24345e-14 73,-3.55271e-15 73,-26"/>
<text text-anchor="middle" x="37" y="-10.55" font-family="Helvetica,sans-Serif" font-size="10.50" fill="white">IR_Precision</text>
</g>
<!-- IR_Precision&#45;&gt;module~type_integrand -->
<g id="edge2" class="edge"><title>IR_Precision&#45;&gt;module~type_integrand</title>
<path fill="none" stroke="black" stroke-dasharray="5,2" d="M73.7029,-13C81.9237,-13 90.8,-13 99.521,-13"/>
<polygon fill="black" stroke="black" points="99.6389,-16.5001 109.639,-13 99.6388,-9.5001 99.6389,-16.5001"/>
</g>
</g>
</svg>
