<?xml version="1.0" encoding="UTF-8" standalone="no"?>
<!DOCTYPE svg PUBLIC "-//W3C//DTD SVG 1.1//EN"
 "http://www.w3.org/Graphics/SVG/1.1/DTD/svg11.dtd">
<!-- Generated by graphviz version 2.26.3 (20100126.1600)
 -->
<!-- Title: module~~foodie_integrator_leapfrog~~UsedByGraph Pages: 1 -->
<svg width="504pt" height="294pt"
 viewBox="0.00 0.00 504.00 294.08" xmlns="http://www.w3.org/2000/svg" xmlns:xlink="http://www.w3.org/1999/xlink">
<g id="graph1" class="graph" transform="scale(1 1) rotate(0) translate(4 290.081)">
<title>module~~foodie_integrator_leapfrog~~UsedByGraph</title>
<polygon fill="white" stroke="white" points="-4,5 -4,-290.081 501,-290.081 501,5 -4,5"/>
<!-- module~foodie_integrator_leapfrog -->
<g id="node1" class="node"><title>module~foodie_integrator_leapfrog</title>
<polygon fill="none" stroke="black" points="139,-155.03 1,-155.03 1,-129.03 139,-129.03 139,-155.03"/>
<text text-anchor="middle" x="70" y="-139.58" font-family="Helvetica,sans-Serif" font-size="10.50">foodie_integrator_leapfrog</text>
</g>
<!-- module~foodie -->
<g id="node2" class="node"><title>module~foodie</title>
<a xlink:href="../module/foodie.html" xlink:title="foodie">
<polygon fill="#337ab7" stroke="#337ab7" points="230,-155.03 176,-155.03 176,-129.03 230,-129.03 230,-155.03"/>
<text text-anchor="middle" x="203" y="-139.58" font-family="Helvetica,sans-Serif" font-size="10.50" fill="white">foodie</text>
</a>
</g>
<!-- module~foodie_integrator_leapfrog&#45;&gt;module~foodie -->
<g id="edge26" class="edge"><title>module~foodie_integrator_leapfrog&#45;&gt;module~foodie</title>
<path fill="none" stroke="black" stroke-dasharray="5,2" d="M139.616,-142.03C148.531,-142.03 157.371,-142.03 165.494,-142.03"/>
<polygon fill="black" stroke="black" points="165.704,-145.53 175.704,-142.03 165.704,-138.53 165.704,-145.53"/>
</g>
<!-- program~integrate_burgers -->
<g id="node3" class="node"><title>program~integrate_burgers</title>
<a xlink:href="../program/integrate_burgers.html" xlink:title="integrate_burgers">
<polygon fill="#f0ad4e" stroke="#f0ad4e" points="490,-279.03 394,-279.03 394,-253.03 490,-253.03 490,-279.03"/>
<text text-anchor="middle" x="442" y="-263.58" font-family="Helvetica,sans-Serif" font-size="10.50" fill="white">integrate_burgers</text>
</a>
</g>
<!-- module~foodie&#45;&gt;program~integrate_burgers -->
<g id="edge10" class="edge"><title>module~foodie&#45;&gt;program~integrate_burgers</title>
<path fill="none" stroke="black" stroke-dasharray="5,2" d="M205.04,-155.396C209.957,-182.358 225.223,-242.828 266,-268.03 301.759,-290.13 349.909,-287.9 386.807,-281.108"/>
<polygon fill="black" stroke="black" points="387.778,-284.483 396.896,-279.087 386.404,-277.619 387.778,-284.483"/>
</g>
<!-- program~integrate_lorenz -->
<g id="node4" class="node"><title>program~integrate_lorenz</title>
<a xlink:href="../program/integrate_lorenz.html" xlink:title="integrate_lorenz">
<polygon fill="#f0ad4e" stroke="#f0ad4e" points="487,-197.03 397,-197.03 397,-171.03 487,-171.03 487,-197.03"/>
<text text-anchor="middle" x="442" y="-181.58" font-family="Helvetica,sans-Serif" font-size="10.50" fill="white">integrate_lorenz</text>
</a>
</g>
<!-- module~foodie&#45;&gt;program~integrate_lorenz -->
<g id="edge12" class="edge"><title>module~foodie&#45;&gt;program~integrate_lorenz</title>
<path fill="none" stroke="black" stroke-dasharray="5,2" d="M216.641,-155.324C228.563,-165.95 246.911,-180.023 266,-186.03 304.999,-198.3 351.307,-197.198 386.632,-193.35"/>
<polygon fill="black" stroke="black" points="387.24,-196.803 396.754,-192.141 386.409,-189.852 387.24,-196.803"/>
</g>
<!-- module~type_euler_1d -->
<g id="node5" class="node"><title>module~type_euler_1d</title>
<a xlink:href="../module/type_euler_1d.html" xlink:title="type_euler_1D">
<polygon fill="#337ab7" stroke="#337ab7" points="350,-133.03 268,-133.03 268,-107.03 350,-107.03 350,-133.03"/>
<text text-anchor="middle" x="309" y="-117.58" font-family="Helvetica,sans-Serif" font-size="10.50" fill="white">type_euler_1D</text>
</a>
</g>
<!-- module~foodie&#45;&gt;module~type_euler_1d -->
<g id="edge14" class="edge"><title>module~foodie&#45;&gt;module~type_euler_1d</title>
<path fill="none" stroke="black" stroke-dasharray="5,2" d="M230.023,-136.421C238.49,-134.664 248.133,-132.662 257.702,-130.676"/>
<polygon fill="black" stroke="black" points="258.514,-134.082 267.594,-128.623 257.092,-127.228 258.514,-134.082"/>
</g>
<!-- program~integrate_euler_1d -->
<g id="node6" class="node"><title>program~integrate_euler_1d</title>
<a xlink:href="../program/integrate_euler_1d.html" xlink:title="integrate_euler_1D">
<polygon fill="#f0ad4e" stroke="#f0ad4e" points="494,-103.03 390,-103.03 390,-77.0295 494,-77.0295 494,-103.03"/>
<text text-anchor="middle" x="442" y="-87.5795" font-family="Helvetica,sans-Serif" font-size="10.50" fill="white">integrate_euler_1D</text>
</a>
</g>
<!-- module~foodie&#45;&gt;program~integrate_euler_1d -->
<g id="edge16" class="edge"><title>module~foodie&#45;&gt;program~integrate_euler_1d</title>
<path fill="none" stroke="black" stroke-dasharray="5,2" d="M216.713,-128.957C228.68,-118.467 247.052,-104.468 266,-98.0295 302.219,-85.7229 345.054,-83.5312 379.397,-84.5087"/>
<polygon fill="black" stroke="black" points="379.639,-88.0205 389.766,-84.9062 379.907,-81.0256 379.639,-88.0205"/>
</g>
<!-- module~type_oscillation -->
<g id="node7" class="node"><title>module~type_oscillation</title>
<a xlink:href="../module/type_oscillation.html" xlink:title="type_oscillation">
<polygon fill="#337ab7" stroke="#337ab7" points="351,-51.0295 267,-51.0295 267,-25.0295 351,-25.0295 351,-51.0295"/>
<text text-anchor="middle" x="309" y="-35.5795" font-family="Helvetica,sans-Serif" font-size="10.50" fill="white">type_oscillation</text>
</a>
</g>
<!-- module~foodie&#45;&gt;module~type_oscillation -->
<g id="edge18" class="edge"><title>module~foodie&#45;&gt;module~type_oscillation</title>
<path fill="none" stroke="black" stroke-dasharray="5,2" d="M211.702,-128.947C222.941,-112.686 243.721,-84.683 266,-65.0295 269.198,-62.2086 272.722,-59.4896 276.336,-56.9348"/>
<polygon fill="black" stroke="black" points="278.425,-59.7493 284.819,-51.301 274.552,-53.9183 278.425,-59.7493"/>
</g>
<!-- module~type_lorenz -->
<g id="node8" class="node"><title>module~type_lorenz</title>
<a xlink:href="../module/type_lorenz.html" xlink:title="type_lorenz">
<polygon fill="#337ab7" stroke="#337ab7" points="343,-177.03 275,-177.03 275,-151.03 343,-151.03 343,-177.03"/>
<text text-anchor="middle" x="309" y="-161.58" font-family="Helvetica,sans-Serif" font-size="10.50" fill="white">type_lorenz</text>
</a>
</g>
<!-- module~foodie&#45;&gt;module~type_lorenz -->
<g id="edge20" class="edge"><title>module~foodie&#45;&gt;module~type_lorenz</title>
<path fill="none" stroke="black" stroke-dasharray="5,2" d="M230.023,-147.638C240.555,-149.824 252.905,-152.387 264.669,-154.829"/>
<polygon fill="black" stroke="black" points="264.294,-158.325 274.796,-156.931 265.716,-151.471 264.294,-158.325"/>
</g>
<!-- program~integrate_oscillation -->
<g id="node9" class="node"><title>program~integrate_oscillation</title>
<a xlink:href="../program/integrate_oscillation.html" xlink:title="integrate_oscillation">
<polygon fill="#f0ad4e" stroke="#f0ad4e" points="495,-40.0295 389,-40.0295 389,-14.0295 495,-14.0295 495,-40.0295"/>
<text text-anchor="middle" x="442" y="-24.5795" font-family="Helvetica,sans-Serif" font-size="10.50" fill="white">integrate_oscillation</text>
</a>
</g>
<!-- module~foodie&#45;&gt;program~integrate_oscillation -->
<g id="edge22" class="edge"><title>module~foodie&#45;&gt;program~integrate_oscillation</title>
<path fill="none" stroke="black" stroke-dasharray="5,2" d="M205.04,-128.663C209.957,-101.702 225.223,-41.2308 266,-16.0295 305.685,8.49702 360.485,-0.0725494 398.345,-11.0278"/>
<polygon fill="black" stroke="black" points="397.479,-14.4231 408.066,-14 399.526,-7.72896 397.479,-14.4231"/>
</g>
<!-- module~type_burgers -->
<g id="node10" class="node"><title>module~type_burgers</title>
<a xlink:href="../module/type_burgers.html" xlink:title="type_burgers">
<polygon fill="#337ab7" stroke="#337ab7" points="347,-259.03 271,-259.03 271,-233.03 347,-233.03 347,-259.03"/>
<text text-anchor="middle" x="309" y="-243.58" font-family="Helvetica,sans-Serif" font-size="10.50" fill="white">type_burgers</text>
</a>
</g>
<!-- module~foodie&#45;&gt;module~type_burgers -->
<g id="edge24" class="edge"><title>module~foodie&#45;&gt;module~type_burgers</title>
<path fill="none" stroke="black" stroke-dasharray="5,2" d="M211.702,-155.112C222.941,-171.373 243.721,-199.376 266,-219.03 269.198,-221.851 272.722,-224.569 276.336,-227.124"/>
<polygon fill="black" stroke="black" points="274.552,-230.141 284.819,-232.758 278.425,-224.31 274.552,-230.141"/>
</g>
<!-- module~type_euler_1d&#45;&gt;program~integrate_euler_1d -->
<g id="edge2" class="edge"><title>module~type_euler_1d&#45;&gt;program~integrate_euler_1d</title>
<path fill="none" stroke="black" stroke-dasharray="5,2" d="M350.353,-110.702C359.732,-108.586 369.894,-106.294 379.922,-104.032"/>
<polygon fill="black" stroke="black" points="380.885,-107.403 389.87,-101.788 379.345,-100.574 380.885,-107.403"/>
</g>
<!-- module~type_oscillation&#45;&gt;program~integrate_oscillation -->
<g id="edge4" class="edge"><title>module~type_oscillation&#45;&gt;program~integrate_oscillation</title>
<path fill="none" stroke="black" stroke-dasharray="5,2" d="M351.814,-34.4885C360.201,-33.7949 369.165,-33.0535 378.068,-32.3171"/>
<polygon fill="black" stroke="black" points="378.382,-35.8032 388.06,-31.4908 377.805,-28.827 378.382,-35.8032"/>
</g>
<!-- module~type_lorenz&#45;&gt;program~integrate_lorenz -->
<g id="edge6" class="edge"><title>module~type_lorenz&#45;&gt;program~integrate_lorenz</title>
<path fill="none" stroke="black" stroke-dasharray="5,2" d="M343.251,-169.18C356.508,-171.174 372.022,-173.507 386.774,-175.725"/>
<polygon fill="black" stroke="black" points="386.418,-179.211 396.827,-177.237 387.459,-172.288 386.418,-179.211"/>
</g>
<!-- module~type_burgers&#45;&gt;program~integrate_burgers -->
<g id="edge8" class="edge"><title>module~type_burgers&#45;&gt;program~integrate_burgers</title>
<path fill="none" stroke="black" stroke-dasharray="5,2" d="M347.112,-251.761C358.387,-253.456 371.001,-255.353 383.259,-257.196"/>
<polygon fill="black" stroke="black" points="383.025,-260.7 393.434,-258.726 384.066,-253.778 383.025,-260.7"/>
</g>
</g>
</svg>
