<?xml version="1.0" encoding="UTF-8" standalone="no"?>
<!DOCTYPE svg PUBLIC "-//W3C//DTD SVG 1.1//EN"
 "http://www.w3.org/Graphics/SVG/1.1/DTD/svg11.dtd">
<!-- Generated by graphviz version 2.26.3 (20100126.1600)
 -->
<!-- Title: module~~foodie_integrator_low_storage_runge_kutta~~UsedByGraph Pages: 1 -->
<svg width="641pt" height="339pt"
 viewBox="0.00 0.00 641.00 338.84" xmlns="http://www.w3.org/2000/svg" xmlns:xlink="http://www.w3.org/1999/xlink">
<g id="graph1" class="graph" transform="scale(0.959581 0.959581) rotate(0) translate(4 349.113)">
<title>module~~foodie_integrator_low_storage_runge_kutta~~UsedByGraph</title>
<polygon fill="white" stroke="white" points="-4,5 -4,-349.113 665,-349.113 665,5 -4,5"/>
<!-- module~foodie_integrator_low_storage_runge_kutta -->
<g id="node1" class="node"><title>module~foodie_integrator_low_storage_runge_kutta</title>
<polygon fill="none" stroke="black" points="220,-184.407 8.52651e-14,-184.407 0,-158.407 220,-158.407 220,-184.407"/>
<text text-anchor="middle" x="110" y="-168.957" font-family="Helvetica,sans-Serif" font-size="10.50">foodie_integrator_low_storage_runge_kutta</text>
</g>
<!-- module~foodie -->
<g id="node2" class="node"><title>module~foodie</title>
<a xlink:href="../module/foodie.html" xlink:title="foodie">
<polygon fill="#337ab7" stroke="#337ab7" points="310,-184.407 256,-184.407 256,-158.407 310,-158.407 310,-184.407"/>
<text text-anchor="middle" x="283" y="-168.957" font-family="Helvetica,sans-Serif" font-size="10.50" fill="white">foodie</text>
</a>
</g>
<!-- module~foodie_integrator_low_storage_runge_kutta&#45;&gt;module~foodie -->
<g id="edge32" class="edge"><title>module~foodie_integrator_low_storage_runge_kutta&#45;&gt;module~foodie</title>
<path fill="none" stroke="black" stroke-dasharray="5,2" d="M220.054,-171.407C229.125,-171.407 237.822,-171.407 245.703,-171.407"/>
<polygon fill="black" stroke="black" points="245.902,-174.907 255.902,-171.407 245.902,-167.907 245.902,-174.907"/>
</g>
<!-- program~integrate_burgers -->
<g id="node3" class="node"><title>program~integrate_burgers</title>
<a xlink:href="../program/integrate_burgers.html" xlink:title="integrate_burgers">
<polygon fill="#f0ad4e" stroke="#f0ad4e" points="633,-330.407 537,-330.407 537,-304.407 633,-304.407 633,-330.407"/>
<text text-anchor="middle" x="585" y="-314.957" font-family="Helvetica,sans-Serif" font-size="10.50" fill="white">integrate_burgers</text>
</a>
</g>
<!-- module~foodie&#45;&gt;program~integrate_burgers -->
<g id="edge12" class="edge"><title>module~foodie&#45;&gt;program~integrate_burgers</title>
<path fill="none" stroke="black" stroke-dasharray="5,2" d="M283.991,-184.679C287.044,-214.868 299.178,-288.45 346,-319.407 401.976,-356.416 482.606,-345.869 534.404,-333.08"/>
<polygon fill="black" stroke="black" points="535.557,-336.397 544.363,-330.506 533.806,-329.62 535.557,-336.397"/>
</g>
<!-- module~type_euler_1d -->
<g id="node4" class="node"><title>module~type_euler_1d</title>
<a xlink:href="../module/type_euler_1d.html" xlink:title="type_euler_1D">
<polygon fill="#337ab7" stroke="#337ab7" points="451,-266.407 369,-266.407 369,-240.407 451,-240.407 451,-266.407"/>
<text text-anchor="middle" x="410" y="-250.957" font-family="Helvetica,sans-Serif" font-size="10.50" fill="white">type_euler_1D</text>
</a>
</g>
<!-- module~foodie&#45;&gt;module~type_euler_1d -->
<g id="edge14" class="edge"><title>module~foodie&#45;&gt;module~type_euler_1d</title>
<path fill="none" stroke="black" stroke-dasharray="5,2" d="M295.536,-184.534C307.599,-196.607 326.791,-214.405 346,-226.407 351.703,-229.97 357.959,-233.263 364.255,-236.233"/>
<polygon fill="black" stroke="black" points="362.893,-239.457 373.45,-240.348 365.752,-233.068 362.893,-239.457"/>
</g>
<!-- program~integrate_lorenz -->
<g id="node5" class="node"><title>program~integrate_lorenz</title>
<a xlink:href="../program/integrate_lorenz.html" xlink:title="integrate_lorenz">
<polygon fill="#f0ad4e" stroke="#f0ad4e" points="630,-184.407 540,-184.407 540,-158.407 630,-158.407 630,-184.407"/>
<text text-anchor="middle" x="585" y="-168.957" font-family="Helvetica,sans-Serif" font-size="10.50" fill="white">integrate_lorenz</text>
</a>
</g>
<!-- module~foodie&#45;&gt;program~integrate_lorenz -->
<g id="edge16" class="edge"><title>module~foodie&#45;&gt;program~integrate_lorenz</title>
<path fill="none" stroke="black" stroke-dasharray="5,2" d="M310.024,-183.808C335.253,-194.49 374.275,-208.748 410,-212.407"/>
<path fill="none" stroke="black" stroke-dasharray="5,2" d="M410,-212.407C421.991,-213.635 483.256,-198.445 529.948,-186.209"/>
<polygon fill="black" stroke="black" points="530.888,-189.58 539.667,-183.649 529.106,-182.811 530.888,-189.58"/>
</g>
<!-- program~integrate_oscillation -->
<g id="node6" class="node"><title>program~integrate_oscillation</title>
<a xlink:href="../program/integrate_oscillation.html" xlink:title="integrate_oscillation">
<polygon fill="#f0ad4e" stroke="#f0ad4e" points="638,-112.407 532,-112.407 532,-86.407 638,-86.407 638,-112.407"/>
<text text-anchor="middle" x="585" y="-96.957" font-family="Helvetica,sans-Serif" font-size="10.50" fill="white">integrate_oscillation</text>
</a>
</g>
<!-- module~foodie&#45;&gt;program~integrate_oscillation -->
<g id="edge18" class="edge"><title>module~foodie&#45;&gt;program~integrate_oscillation</title>
<path fill="none" stroke="black" stroke-dasharray="5,2" d="M310.045,-161.098C321.091,-157.115 334.057,-152.727 346,-149.407 404.722,-133.086 472.869,-119.327 521.333,-110.399"/>
<polygon fill="black" stroke="black" points="522.156,-113.807 531.365,-108.569 520.899,-106.921 522.156,-113.807"/>
</g>
<!-- module~type_lorenz -->
<g id="node7" class="node"><title>module~type_lorenz</title>
<a xlink:href="../module/type_lorenz.html" xlink:title="type_lorenz">
<polygon fill="#337ab7" stroke="#337ab7" points="444,-184.407 376,-184.407 376,-158.407 444,-158.407 444,-184.407"/>
<text text-anchor="middle" x="410" y="-168.957" font-family="Helvetica,sans-Serif" font-size="10.50" fill="white">type_lorenz</text>
</a>
</g>
<!-- module~foodie&#45;&gt;module~type_lorenz -->
<g id="edge20" class="edge"><title>module~foodie&#45;&gt;module~type_lorenz</title>
<path fill="none" stroke="black" stroke-dasharray="5,2" d="M310.245,-171.407C326.282,-171.407 346.959,-171.407 365.326,-171.407"/>
<polygon fill="black" stroke="black" points="365.534,-174.907 375.534,-171.407 365.534,-167.907 365.534,-174.907"/>
</g>
<!-- module~type_burgers -->
<g id="node8" class="node"><title>module~type_burgers</title>
<a xlink:href="../module/type_burgers.html" xlink:title="type_burgers">
<polygon fill="#337ab7" stroke="#337ab7" points="448,-310.407 372,-310.407 372,-284.407 448,-284.407 448,-310.407"/>
<text text-anchor="middle" x="410" y="-294.957" font-family="Helvetica,sans-Serif" font-size="10.50" fill="white">type_burgers</text>
</a>
</g>
<!-- module~foodie&#45;&gt;module~type_burgers -->
<g id="edge22" class="edge"><title>module~foodie&#45;&gt;module~type_burgers</title>
<path fill="none" stroke="black" stroke-dasharray="5,2" d="M287.566,-184.6C295.819,-206.556 315.271,-250.627 346,-275.407 350.922,-279.376 356.602,-282.648 362.505,-285.342"/>
<polygon fill="black" stroke="black" points="361.303,-288.631 371.887,-289.114 363.915,-282.136 361.303,-288.631"/>
</g>
<!-- program~integrate_euler_1d -->
<g id="node9" class="node"><title>program~integrate_euler_1d</title>
<a xlink:href="../program/integrate_euler_1d.html" xlink:title="integrate_euler_1D">
<polygon fill="#f0ad4e" stroke="#f0ad4e" points="637,-228.407 533,-228.407 533,-202.407 637,-202.407 637,-228.407"/>
<text text-anchor="middle" x="585" y="-212.957" font-family="Helvetica,sans-Serif" font-size="10.50" fill="white">integrate_euler_1D</text>
</a>
</g>
<!-- module~foodie&#45;&gt;program~integrate_euler_1d -->
<g id="edge24" class="edge"><title>module~foodie&#45;&gt;program~integrate_euler_1d</title>
<path fill="none" stroke="black" stroke-dasharray="5,2" d="M410,-212.407C447.256,-216.223 489.202,-217.06 522.686,-216.902"/>
<polygon fill="black" stroke="black" points="522.819,-220.401 532.792,-216.823 522.765,-213.401 522.819,-220.401"/>
</g>
<!-- module~type_oscillation -->
<g id="node10" class="node"><title>module~type_oscillation</title>
<a xlink:href="../module/type_oscillation.html" xlink:title="type_oscillation">
<polygon fill="#337ab7" stroke="#337ab7" points="452,-102.407 368,-102.407 368,-76.407 452,-76.407 452,-102.407"/>
<text text-anchor="middle" x="410" y="-86.957" font-family="Helvetica,sans-Serif" font-size="10.50" fill="white">type_oscillation</text>
</a>
</g>
<!-- module~foodie&#45;&gt;module~type_oscillation -->
<g id="edge26" class="edge"><title>module~foodie&#45;&gt;module~type_oscillation</title>
<path fill="none" stroke="black" stroke-dasharray="5,2" d="M295.536,-158.281C307.599,-146.207 326.791,-128.409 346,-116.407 351.703,-112.844 357.959,-109.551 364.255,-106.581"/>
<polygon fill="black" stroke="black" points="365.752,-109.746 373.45,-102.466 362.893,-103.357 365.752,-109.746"/>
</g>
<!-- module~type_euler_1d_openmp -->
<g id="node11" class="node"><title>module~type_euler_1d_openmp</title>
<a xlink:href="../module/type_euler_1d_openmp.html" xlink:title="type_euler_1D_openmp">
<polygon fill="#337ab7" stroke="#337ab7" points="473,-58.407 347,-58.407 347,-32.407 473,-32.407 473,-58.407"/>
<text text-anchor="middle" x="410" y="-42.957" font-family="Helvetica,sans-Serif" font-size="10.50" fill="white">type_euler_1D_openmp</text>
</a>
</g>
<!-- module~foodie&#45;&gt;module~type_euler_1d_openmp -->
<g id="edge28" class="edge"><title>module~foodie&#45;&gt;module~type_euler_1d_openmp</title>
<path fill="none" stroke="black" stroke-dasharray="5,2" d="M287.566,-158.214C295.819,-136.258 315.271,-92.1867 346,-67.407 347.746,-65.9988 349.588,-64.6783 351.502,-63.4402"/>
<polygon fill="black" stroke="black" points="353.263,-66.4655 360.275,-58.5235 349.84,-60.3591 353.263,-66.4655"/>
</g>
<!-- program~integrate_euler_1d_openmp -->
<g id="node12" class="node"><title>program~integrate_euler_1d_openmp</title>
<a xlink:href="../program/integrate_euler_1d_openmp.html" xlink:title="integrate_euler_1D_openmp">
<polygon fill="#f0ad4e" stroke="#f0ad4e" points="659,-48.407 511,-48.407 511,-22.407 659,-22.407 659,-48.407"/>
<text text-anchor="middle" x="585" y="-32.957" font-family="Helvetica,sans-Serif" font-size="10.50" fill="white">integrate_euler_1D_openmp</text>
</a>
</g>
<!-- module~foodie&#45;&gt;program~integrate_euler_1d_openmp -->
<g id="edge30" class="edge"><title>module~foodie&#45;&gt;program~integrate_euler_1d_openmp</title>
<path fill="none" stroke="black" stroke-dasharray="5,2" d="M283.991,-158.135C287.044,-127.946 299.178,-54.3636 346,-23.407 404.969,15.5805 491.136,-2.56135 542.293,-19.1122"/>
<polygon fill="black" stroke="black" points="541.445,-22.5195 552.039,-22.3837 543.673,-15.8834 541.445,-22.5195"/>
</g>
<!-- module~type_euler_1d&#45;&gt;program~integrate_euler_1d -->
<g id="edge2" class="edge"><title>module~type_euler_1d&#45;&gt;program~integrate_euler_1d</title>
<path fill="none" stroke="black" stroke-dasharray="5,2" d="M451.03,-244.498C472.422,-239.853 499.034,-234.074 522.89,-228.894"/>
<polygon fill="black" stroke="black" points="523.892,-232.258 532.922,-226.715 522.407,-225.417 523.892,-232.258"/>
</g>
<!-- module~type_lorenz&#45;&gt;program~integrate_lorenz -->
<g id="edge4" class="edge"><title>module~type_lorenz&#45;&gt;program~integrate_lorenz</title>
<path fill="none" stroke="black" stroke-dasharray="5,2" d="M444.157,-171.407C468.519,-171.407 501.803,-171.407 529.898,-171.407"/>
<polygon fill="black" stroke="black" points="529.987,-174.907 539.987,-171.407 529.987,-167.907 529.987,-174.907"/>
</g>
<!-- module~type_burgers&#45;&gt;program~integrate_burgers -->
<g id="edge6" class="edge"><title>module~type_burgers&#45;&gt;program~integrate_burgers</title>
<path fill="none" stroke="black" stroke-dasharray="5,2" d="M448.404,-301.796C471.232,-304.405 500.651,-307.767 526.337,-310.703"/>
<polygon fill="black" stroke="black" points="526.012,-314.188 536.344,-311.846 526.807,-307.233 526.012,-314.188"/>
</g>
<!-- module~type_oscillation&#45;&gt;program~integrate_oscillation -->
<g id="edge8" class="edge"><title>module~type_oscillation&#45;&gt;program~integrate_oscillation</title>
<path fill="none" stroke="black" stroke-dasharray="5,2" d="M452.81,-91.8533C473.343,-93.0266 498.365,-94.4564 521.092,-95.7551"/>
<polygon fill="black" stroke="black" points="521.164,-99.2649 531.348,-96.3412 521.564,-92.2763 521.164,-99.2649"/>
</g>
<!-- module~type_euler_1d_openmp&#45;&gt;program~integrate_euler_1d_openmp -->
<g id="edge10" class="edge"><title>module~type_euler_1d_openmp&#45;&gt;program~integrate_euler_1d_openmp</title>
<path fill="none" stroke="black" stroke-dasharray="5,2" d="M473.674,-41.7685C482.337,-41.2735 491.337,-40.7592 500.297,-40.2472"/>
<polygon fill="black" stroke="black" points="500.594,-43.736 510.378,-39.6711 500.194,-36.7474 500.594,-43.736"/>
</g>
</g>
</svg>
