<?xml version="1.0" encoding="UTF-8" standalone="no"?>
<!DOCTYPE svg PUBLIC "-//W3C//DTD SVG 1.1//EN"
 "http://www.w3.org/Graphics/SVG/1.1/DTD/svg11.dtd">
<!-- Generated by graphviz version 2.26.3 (20100126.1600)
 -->
<!-- Title: module~~foodie_integrator_leapfrog~~UsedByGraph Pages: 1 -->
<svg width="504pt" height="266pt"
 viewBox="0.00 0.00 504.00 265.79" xmlns="http://www.w3.org/2000/svg" xmlns:xlink="http://www.w3.org/1999/xlink">
<g id="graph1" class="graph" transform="scale(1 1) rotate(0) translate(4 261.791)">
<title>module~~foodie_integrator_leapfrog~~UsedByGraph</title>
<polygon fill="white" stroke="white" points="-4,5 -4,-261.791 501,-261.791 501,5 -4,5"/>
<!-- module~foodie_integrator_leapfrog -->
<g id="node1" class="node"><title>module~foodie_integrator_leapfrog</title>
<polygon fill="none" stroke="black" points="139,-131.791 1,-131.791 1,-105.791 139,-105.791 139,-131.791"/>
<text text-anchor="middle" x="70" y="-116.341" font-family="Helvetica,sans-Serif" font-size="10.50">foodie_integrator_leapfrog</text>
</g>
<!-- module~foodie -->
<g id="node2" class="node"><title>module~foodie</title>
<a xlink:href="../module/foodie.html" xlink:title="foodie">
<polygon fill="#337ab7" stroke="#337ab7" points="230,-131.791 176,-131.791 176,-105.791 230,-105.791 230,-131.791"/>
<text text-anchor="middle" x="203" y="-116.341" font-family="Helvetica,sans-Serif" font-size="10.50" fill="white">foodie</text>
</a>
</g>
<!-- module~foodie_integrator_leapfrog&#45;&gt;module~foodie -->
<g id="edge26" class="edge"><title>module~foodie_integrator_leapfrog&#45;&gt;module~foodie</title>
<path fill="none" stroke="black" stroke-dasharray="5,2" d="M139.616,-118.791C148.531,-118.791 157.371,-118.791 165.494,-118.791"/>
<polygon fill="black" stroke="black" points="165.704,-122.291 175.704,-118.791 165.704,-115.291 165.704,-122.291"/>
</g>
<!-- module~type_oscillation -->
<g id="node3" class="node"><title>module~type_oscillation</title>
<a xlink:href="../module/type_oscillation.html" xlink:title="type_oscillation">
<polygon fill="#337ab7" stroke="#337ab7" points="351,-257.791 267,-257.791 267,-231.791 351,-231.791 351,-257.791"/>
<text text-anchor="middle" x="309" y="-242.341" font-family="Helvetica,sans-Serif" font-size="10.50" fill="white">type_oscillation</text>
</a>
</g>
<!-- module~foodie&#45;&gt;module~type_oscillation -->
<g id="edge10" class="edge"><title>module~foodie&#45;&gt;module~type_oscillation</title>
<path fill="none" stroke="black" stroke-dasharray="5,2" d="M208.997,-131.938C218.727,-152.212 239.558,-191.508 266,-217.791 268.872,-220.645 272.098,-223.345 275.458,-225.853"/>
<polygon fill="black" stroke="black" points="273.733,-228.914 283.963,-231.673 277.687,-223.137 273.733,-228.914"/>
</g>
<!-- program~integrate_lorenz -->
<g id="node4" class="node"><title>program~integrate_lorenz</title>
<a xlink:href="../program/integrate_lorenz.html" xlink:title="integrate_lorenz">
<polygon fill="#f0ad4e" stroke="#f0ad4e" points="487,-175.791 397,-175.791 397,-149.791 487,-149.791 487,-175.791"/>
<text text-anchor="middle" x="442" y="-160.341" font-family="Helvetica,sans-Serif" font-size="10.50" fill="white">integrate_lorenz</text>
</a>
</g>
<!-- module~foodie&#45;&gt;program~integrate_lorenz -->
<g id="edge12" class="edge"><title>module~foodie&#45;&gt;program~integrate_lorenz</title>
<path fill="none" stroke="black" stroke-dasharray="5,2" d="M212.906,-131.923C224.381,-146.412 244.483,-169.676 266,-184.791 283.097,-196.8 288.847,-198.278 309,-203.791"/>
<path fill="none" stroke="black" stroke-dasharray="5,2" d="M309,-203.791C317.734,-206.18 361.844,-191.712 396.905,-179.31"/>
<polygon fill="black" stroke="black" points="398.274,-182.538 406.517,-175.883 395.923,-175.945 398.274,-182.538"/>
</g>
<!-- module~type_euler_1d -->
<g id="node5" class="node"><title>module~type_euler_1d</title>
<a xlink:href="../module/type_euler_1d.html" xlink:title="type_euler_1D">
<polygon fill="#337ab7" stroke="#337ab7" points="350,-131.791 268,-131.791 268,-105.791 350,-105.791 350,-131.791"/>
<text text-anchor="middle" x="309" y="-116.341" font-family="Helvetica,sans-Serif" font-size="10.50" fill="white">type_euler_1D</text>
</a>
</g>
<!-- module~foodie&#45;&gt;module~type_euler_1d -->
<g id="edge14" class="edge"><title>module~foodie&#45;&gt;module~type_euler_1d</title>
<path fill="none" stroke="black" stroke-dasharray="5,2" d="M230.023,-118.791C238.401,-118.791 247.93,-118.791 257.4,-118.791"/>
<polygon fill="black" stroke="black" points="257.594,-122.291 267.594,-118.791 257.594,-115.291 257.594,-122.291"/>
</g>
<!-- module~type_burgers -->
<g id="node6" class="node"><title>module~type_burgers</title>
<a xlink:href="../module/type_burgers.html" xlink:title="type_burgers">
<polygon fill="#337ab7" stroke="#337ab7" points="347,-49.7905 271,-49.7905 271,-23.7905 347,-23.7905 347,-49.7905"/>
<text text-anchor="middle" x="309" y="-34.3405" font-family="Helvetica,sans-Serif" font-size="10.50" fill="white">type_burgers</text>
</a>
</g>
<!-- module~foodie&#45;&gt;module~type_burgers -->
<g id="edge16" class="edge"><title>module~foodie&#45;&gt;module~type_burgers</title>
<path fill="none" stroke="black" stroke-dasharray="5,2" d="M216.975,-105.453C229.399,-93.877 248.288,-76.9558 266,-63.7905 269.865,-60.918 274.038,-58.0421 278.212,-55.2949"/>
<polygon fill="black" stroke="black" points="280.142,-58.2148 286.682,-49.8793 276.372,-52.3171 280.142,-58.2148"/>
</g>
<!-- program~integrate_burgers -->
<g id="node7" class="node"><title>program~integrate_burgers</title>
<a xlink:href="../program/integrate_burgers.html" xlink:title="integrate_burgers">
<polygon fill="#f0ad4e" stroke="#f0ad4e" points="490,-38.7905 394,-38.7905 394,-12.7905 490,-12.7905 490,-38.7905"/>
<text text-anchor="middle" x="442" y="-23.3405" font-family="Helvetica,sans-Serif" font-size="10.50" fill="white">integrate_burgers</text>
</a>
</g>
<!-- module~foodie&#45;&gt;program~integrate_burgers -->
<g id="edge18" class="edge"><title>module~foodie&#45;&gt;program~integrate_burgers</title>
<path fill="none" stroke="black" stroke-dasharray="5,2" d="M206.435,-105.543C213.279,-82.2296 231.055,-34.4783 266,-14.7905 305.788,7.62623 358.966,0.183857 396.419,-9.93135"/>
<polygon fill="black" stroke="black" points="395.485,-13.3046 406.062,-12.6877 397.409,-6.57414 395.485,-13.3046"/>
</g>
<!-- program~integrate_oscillation -->
<g id="node8" class="node"><title>program~integrate_oscillation</title>
<a xlink:href="../program/integrate_oscillation.html" xlink:title="integrate_oscillation">
<polygon fill="#f0ad4e" stroke="#f0ad4e" points="495,-219.791 389,-219.791 389,-193.791 495,-193.791 495,-219.791"/>
<text text-anchor="middle" x="442" y="-204.341" font-family="Helvetica,sans-Serif" font-size="10.50" fill="white">integrate_oscillation</text>
</a>
</g>
<!-- module~foodie&#45;&gt;program~integrate_oscillation -->
<g id="edge20" class="edge"><title>module~foodie&#45;&gt;program~integrate_oscillation</title>
<path fill="none" stroke="black" stroke-dasharray="5,2" d="M309,-203.791C331.12,-209.841 356.09,-211.649 378.37,-211.596"/>
<polygon fill="black" stroke="black" points="378.45,-215.095 388.398,-211.449 378.348,-208.096 378.45,-215.095"/>
</g>
<!-- module~type_lorenz -->
<g id="node9" class="node"><title>module~type_lorenz</title>
<a xlink:href="../module/type_lorenz.html" xlink:title="type_lorenz">
<polygon fill="#337ab7" stroke="#337ab7" points="343,-175.791 275,-175.791 275,-149.791 343,-149.791 343,-175.791"/>
<text text-anchor="middle" x="309" y="-160.341" font-family="Helvetica,sans-Serif" font-size="10.50" fill="white">type_lorenz</text>
</a>
</g>
<!-- module~foodie&#45;&gt;module~type_lorenz -->
<g id="edge22" class="edge"><title>module~foodie&#45;&gt;module~type_lorenz</title>
<path fill="none" stroke="black" stroke-dasharray="5,2" d="M230.023,-130.007C241.558,-134.796 255.275,-140.489 268.014,-145.777"/>
<polygon fill="black" stroke="black" points="266.935,-149.119 277.513,-149.72 269.619,-142.654 266.935,-149.119"/>
</g>
<!-- program~integrate_euler_1d -->
<g id="node10" class="node"><title>program~integrate_euler_1d</title>
<a xlink:href="../program/integrate_euler_1d.html" xlink:title="integrate_euler_1D">
<polygon fill="#f0ad4e" stroke="#f0ad4e" points="494,-101.791 390,-101.791 390,-75.7905 494,-75.7905 494,-101.791"/>
<text text-anchor="middle" x="442" y="-86.3405" font-family="Helvetica,sans-Serif" font-size="10.50" fill="white">integrate_euler_1D</text>
</a>
</g>
<!-- module~foodie&#45;&gt;program~integrate_euler_1d -->
<g id="edge24" class="edge"><title>module~foodie&#45;&gt;program~integrate_euler_1d</title>
<path fill="none" stroke="black" stroke-dasharray="5,2" d="M230.122,-107.38C241.069,-103.29 253.942,-99.1182 266,-96.7905 303.287,-89.5925 345.804,-87.4947 379.708,-87.243"/>
<polygon fill="black" stroke="black" points="379.945,-90.7426 389.938,-87.2206 379.93,-83.7426 379.945,-90.7426"/>
</g>
<!-- module~type_oscillation&#45;&gt;program~integrate_oscillation -->
<g id="edge2" class="edge"><title>module~type_oscillation&#45;&gt;program~integrate_oscillation</title>
<path fill="none" stroke="black" stroke-dasharray="5,2" d="M351.814,-232.558C362.738,-229.437 374.644,-226.035 386.116,-222.757"/>
<polygon fill="black" stroke="black" points="387.398,-226.031 396.051,-219.919 385.475,-219.301 387.398,-226.031"/>
</g>
<!-- module~type_euler_1d&#45;&gt;program~integrate_euler_1d -->
<g id="edge4" class="edge"><title>module~type_euler_1d&#45;&gt;program~integrate_euler_1d</title>
<path fill="none" stroke="black" stroke-dasharray="5,2" d="M350.353,-109.463C359.732,-107.347 369.894,-105.055 379.922,-102.793"/>
<polygon fill="black" stroke="black" points="380.885,-106.164 389.87,-100.549 379.345,-99.3353 380.885,-106.164"/>
</g>
<!-- module~type_burgers&#45;&gt;program~integrate_burgers -->
<g id="edge6" class="edge"><title>module~type_burgers&#45;&gt;program~integrate_burgers</title>
<path fill="none" stroke="black" stroke-dasharray="5,2" d="M347.112,-33.6384C358.387,-32.7059 371.001,-31.6626 383.259,-30.6488"/>
<polygon fill="black" stroke="black" points="383.757,-34.1197 393.434,-29.8072 383.18,-27.1435 383.757,-34.1197"/>
</g>
<!-- module~type_lorenz&#45;&gt;program~integrate_lorenz -->
<g id="edge8" class="edge"><title>module~type_lorenz&#45;&gt;program~integrate_lorenz</title>
<path fill="none" stroke="black" stroke-dasharray="5,2" d="M343.251,-162.791C356.508,-162.791 372.022,-162.791 386.774,-162.791"/>
<polygon fill="black" stroke="black" points="386.827,-166.291 396.827,-162.791 386.827,-159.291 386.827,-166.291"/>
</g>
</g>
</svg>
