<?xml version="1.0" encoding="UTF-8" standalone="no"?>
<!DOCTYPE svg PUBLIC "-//W3C//DTD SVG 1.1//EN"
 "http://www.w3.org/Graphics/SVG/1.1/DTD/svg11.dtd">
<!-- Generated by graphviz version 2.26.3 (20100126.1600)
 -->
<!-- Title: module~~foodie_integrator_euler_explicit~~UsedByGraph Pages: 1 -->
<svg width="526pt" height="268pt"
 viewBox="0.00 0.00 526.00 268.01" xmlns="http://www.w3.org/2000/svg" xmlns:xlink="http://www.w3.org/1999/xlink">
<g id="graph1" class="graph" transform="scale(1 1) rotate(0) translate(4 264.012)">
<title>module~~foodie_integrator_euler_explicit~~UsedByGraph</title>
<polygon fill="white" stroke="white" points="-4,5 -4,-264.012 523,-264.012 523,5 -4,5"/>
<!-- module~foodie_integrator_euler_explicit -->
<g id="node1" class="node"><title>module~foodie_integrator_euler_explicit</title>
<polygon fill="none" stroke="black" points="162,-137.012 8.52651e-14,-137.012 0,-111.012 162,-111.012 162,-137.012"/>
<text text-anchor="middle" x="81" y="-121.562" font-family="Helvetica,sans-Serif" font-size="10.50">foodie_integrator_euler_explicit</text>
</g>
<!-- module~foodie -->
<g id="node2" class="node"><title>module~foodie</title>
<a xlink:href="../module/foodie.html" xlink:title="foodie">
<polygon fill="#337ab7" stroke="#337ab7" points="252,-137.012 198,-137.012 198,-111.012 252,-111.012 252,-137.012"/>
<text text-anchor="middle" x="225" y="-121.562" font-family="Helvetica,sans-Serif" font-size="10.50" fill="white">foodie</text>
</a>
</g>
<!-- module~foodie_integrator_euler_explicit&#45;&gt;module~foodie -->
<g id="edge26" class="edge"><title>module~foodie_integrator_euler_explicit&#45;&gt;module~foodie</title>
<path fill="none" stroke="black" stroke-dasharray="5,2" d="M162.258,-124.012C171.03,-124.012 179.616,-124.012 187.482,-124.012"/>
<polygon fill="black" stroke="black" points="187.714,-127.512 197.714,-124.012 187.714,-120.512 187.714,-127.512"/>
</g>
<!-- module~type_euler_1d -->
<g id="node3" class="node"><title>module~type_euler_1d</title>
<a xlink:href="../module/type_euler_1d.html" xlink:title="type_euler_1D">
<polygon fill="#337ab7" stroke="#337ab7" points="372,-260.012 290,-260.012 290,-234.012 372,-234.012 372,-260.012"/>
<text text-anchor="middle" x="331" y="-244.562" font-family="Helvetica,sans-Serif" font-size="10.50" fill="white">type_euler_1D</text>
</a>
</g>
<!-- module~foodie&#45;&gt;module~type_euler_1d -->
<g id="edge10" class="edge"><title>module~foodie&#45;&gt;module~type_euler_1d</title>
<path fill="none" stroke="black" stroke-dasharray="5,2" d="M231.254,-137.073C241.178,-156.808 262.089,-194.616 288,-220.012 290.892,-222.846 294.131,-225.533 297.498,-228.034"/>
<polygon fill="black" stroke="black" points="295.779,-231.098 306.012,-233.844 299.726,-225.316 295.779,-231.098"/>
</g>
<!-- module~type_burgers -->
<g id="node4" class="node"><title>module~type_burgers</title>
<a xlink:href="../module/type_burgers.html" xlink:title="type_burgers">
<polygon fill="#337ab7" stroke="#337ab7" points="369,-178.012 293,-178.012 293,-152.012 369,-152.012 369,-178.012"/>
<text text-anchor="middle" x="331" y="-162.562" font-family="Helvetica,sans-Serif" font-size="10.50" fill="white">type_burgers</text>
</a>
</g>
<!-- module~foodie&#45;&gt;module~type_burgers -->
<g id="edge12" class="edge"><title>module~foodie&#45;&gt;module~type_burgers</title>
<path fill="none" stroke="black" stroke-dasharray="5,2" d="M252.023,-134.464C262.864,-138.658 275.632,-143.596 287.705,-148.266"/>
<polygon fill="black" stroke="black" points="286.598,-151.59 297.188,-151.934 289.124,-145.062 286.598,-151.59"/>
</g>
<!-- program~integrate_burgers -->
<g id="node5" class="node"><title>program~integrate_burgers</title>
<a xlink:href="../program/integrate_burgers.html" xlink:title="integrate_burgers">
<polygon fill="#f0ad4e" stroke="#f0ad4e" points="512,-140.012 416,-140.012 416,-114.012 512,-114.012 512,-140.012"/>
<text text-anchor="middle" x="464" y="-124.562" font-family="Helvetica,sans-Serif" font-size="10.50" fill="white">integrate_burgers</text>
</a>
</g>
<!-- module~foodie&#45;&gt;program~integrate_burgers -->
<g id="edge14" class="edge"><title>module~foodie&#45;&gt;program~integrate_burgers</title>
<path fill="none" stroke="black" stroke-dasharray="5,2" d="M331,-124.012C355.283,-122.286 382.116,-122.49 405.283,-123.327"/>
<polygon fill="black" stroke="black" points="405.172,-126.826 415.307,-123.736 405.458,-119.831 405.172,-126.826"/>
</g>
<!-- program~integrate_oscillation -->
<g id="node6" class="node"><title>program~integrate_oscillation</title>
<a xlink:href="../program/integrate_oscillation.html" xlink:title="integrate_oscillation">
<polygon fill="#f0ad4e" stroke="#f0ad4e" points="517,-96.012 411,-96.012 411,-70.012 517,-70.012 517,-96.012"/>
<text text-anchor="middle" x="464" y="-80.562" font-family="Helvetica,sans-Serif" font-size="10.50" fill="white">integrate_oscillation</text>
</a>
</g>
<!-- module~foodie&#45;&gt;program~integrate_oscillation -->
<g id="edge16" class="edge"><title>module~foodie&#45;&gt;program~integrate_oscillation</title>
<path fill="none" stroke="black" stroke-dasharray="5,2" d="M252.049,-125.067C273.491,-125.649 304.2,-125.917 331,-124.012"/>
<path fill="none" stroke="black" stroke-dasharray="5,2" d="M331,-124.012C348.146,-122.793 387.317,-110.265 418.733,-99.3741"/>
<polygon fill="black" stroke="black" points="419.918,-102.668 428.201,-96.0612 417.607,-96.0603 419.918,-102.668"/>
</g>
<!-- module~type_lorenz -->
<g id="node7" class="node"><title>module~type_lorenz</title>
<a xlink:href="../module/type_lorenz.html" xlink:title="type_lorenz">
<polygon fill="#337ab7" stroke="#337ab7" points="365,-52.012 297,-52.012 297,-26.012 365,-26.012 365,-52.012"/>
<text text-anchor="middle" x="331" y="-36.562" font-family="Helvetica,sans-Serif" font-size="10.50" fill="white">type_lorenz</text>
</a>
</g>
<!-- module~foodie&#45;&gt;module~type_lorenz -->
<g id="edge18" class="edge"><title>module~foodie&#45;&gt;module~type_lorenz</title>
<path fill="none" stroke="black" stroke-dasharray="5,2" d="M235.831,-110.984C247.648,-97.3327 267.615,-75.8487 288,-61.012 289.627,-59.8277 291.327,-58.6721 293.072,-57.5502"/>
<polygon fill="black" stroke="black" points="295.216,-60.3487 302.041,-52.2452 291.652,-54.3237 295.216,-60.3487"/>
</g>
<!-- program~integrate_euler_1d -->
<g id="node8" class="node"><title>program~integrate_euler_1d</title>
<a xlink:href="../program/integrate_euler_1d.html" xlink:title="integrate_euler_1D">
<polygon fill="#f0ad4e" stroke="#f0ad4e" points="516,-239.012 412,-239.012 412,-213.012 516,-213.012 516,-239.012"/>
<text text-anchor="middle" x="464" y="-223.562" font-family="Helvetica,sans-Serif" font-size="10.50" fill="white">integrate_euler_1D</text>
</a>
</g>
<!-- module~foodie&#45;&gt;program~integrate_euler_1d -->
<g id="edge20" class="edge"><title>module~foodie&#45;&gt;program~integrate_euler_1d</title>
<path fill="none" stroke="black" stroke-dasharray="5,2" d="M234.337,-137.056C245.443,-151.564 265.352,-174.588 288,-187.012 322.839,-206.123 366.413,-215.871 401.487,-220.842"/>
<polygon fill="black" stroke="black" points="401.237,-224.339 411.609,-222.178 402.154,-217.399 401.237,-224.339"/>
</g>
<!-- module~type_oscillation -->
<g id="node9" class="node"><title>module~type_oscillation</title>
<a xlink:href="../module/type_oscillation.html" xlink:title="type_oscillation">
<polygon fill="#337ab7" stroke="#337ab7" points="373,-96.012 289,-96.012 289,-70.012 373,-70.012 373,-96.012"/>
<text text-anchor="middle" x="331" y="-80.562" font-family="Helvetica,sans-Serif" font-size="10.50" fill="white">type_oscillation</text>
</a>
</g>
<!-- module~foodie&#45;&gt;module~type_oscillation -->
<g id="edge22" class="edge"><title>module~foodie&#45;&gt;module~type_oscillation</title>
<path fill="none" stroke="black" stroke-dasharray="5,2" d="M252.023,-113.56C262.864,-109.366 275.632,-104.428 287.705,-99.7582"/>
<polygon fill="black" stroke="black" points="289.124,-102.962 297.188,-96.0904 286.598,-96.4336 289.124,-102.962"/>
</g>
<!-- program~integrate_lorenz -->
<g id="node10" class="node"><title>program~integrate_lorenz</title>
<a xlink:href="../program/integrate_lorenz.html" xlink:title="integrate_lorenz">
<polygon fill="#f0ad4e" stroke="#f0ad4e" points="509,-32.012 419,-32.012 419,-6.01202 509,-6.01202 509,-32.012"/>
<text text-anchor="middle" x="464" y="-16.562" font-family="Helvetica,sans-Serif" font-size="10.50" fill="white">integrate_lorenz</text>
</a>
</g>
<!-- module~foodie&#45;&gt;program~integrate_lorenz -->
<g id="edge24" class="edge"><title>module~foodie&#45;&gt;program~integrate_lorenz</title>
<path fill="none" stroke="black" stroke-dasharray="5,2" d="M228.209,-110.773C234.779,-86.9512 252.255,-37.4468 288,-17.012 324.373,3.78159 372.27,1.72807 408.913,-4.66413"/>
<polygon fill="black" stroke="black" points="408.454,-8.13934 418.931,-6.56673 409.76,-1.26227 408.454,-8.13934"/>
</g>
<!-- module~type_euler_1d&#45;&gt;program~integrate_euler_1d -->
<g id="edge2" class="edge"><title>module~type_euler_1d&#45;&gt;program~integrate_euler_1d</title>
<path fill="none" stroke="black" stroke-dasharray="5,2" d="M372.353,-240.483C381.732,-239.002 391.894,-237.397 401.922,-235.814"/>
<polygon fill="black" stroke="black" points="402.539,-239.26 411.87,-234.243 401.447,-232.346 402.539,-239.26"/>
</g>
<!-- module~type_burgers&#45;&gt;program~integrate_burgers -->
<g id="edge4" class="edge"><title>module~type_burgers&#45;&gt;program~integrate_burgers</title>
<path fill="none" stroke="black" stroke-dasharray="5,2" d="M369.112,-154.123C381.346,-150.627 395.158,-146.681 408.38,-142.904"/>
<polygon fill="black" stroke="black" points="409.686,-146.171 418.339,-140.058 407.763,-139.44 409.686,-146.171"/>
</g>
<!-- module~type_lorenz&#45;&gt;program~integrate_lorenz -->
<g id="edge6" class="edge"><title>module~type_lorenz&#45;&gt;program~integrate_lorenz</title>
<path fill="none" stroke="black" stroke-dasharray="5,2" d="M365.251,-33.8615C378.508,-31.8679 394.022,-29.535 408.774,-27.3167"/>
<polygon fill="black" stroke="black" points="409.459,-30.7531 418.827,-25.8049 408.418,-23.8309 409.459,-30.7531"/>
</g>
<!-- module~type_oscillation&#45;&gt;program~integrate_oscillation -->
<g id="edge8" class="edge"><title>module~type_oscillation&#45;&gt;program~integrate_oscillation</title>
<path fill="none" stroke="black" stroke-dasharray="5,2" d="M373.814,-83.012C382.11,-83.012 390.972,-83.012 399.781,-83.012"/>
<polygon fill="black" stroke="black" points="400.06,-86.5121 410.06,-83.012 400.06,-79.5121 400.06,-86.5121"/>
</g>
</g>
</svg>
