<?xml version="1.0" encoding="UTF-8" standalone="no"?>
<!DOCTYPE svg PUBLIC "-//W3C//DTD SVG 1.1//EN"
 "http://www.w3.org/Graphics/SVG/1.1/DTD/svg11.dtd">
<!-- Generated by graphviz version 2.26.3 (20100126.1600)
 -->
<!-- Title: module~~type_burgers~~UsedByGraph Pages: 1 -->
<svg width="218pt" height="34pt"
 viewBox="0.00 0.00 218.00 34.00" xmlns="http://www.w3.org/2000/svg" xmlns:xlink="http://www.w3.org/1999/xlink">
<g id="graph1" class="graph" transform="scale(1 1) rotate(0) translate(4 30)">
<title>module~~type_burgers~~UsedByGraph</title>
<polygon fill="white" stroke="white" points="-4,5 -4,-30 215,-30 215,5 -4,5"/>
<!-- module~type_burgers -->
<g id="node1" class="node"><title>module~type_burgers</title>
<polygon fill="none" stroke="black" points="76,-26 3.55271e-14,-26 0,-1.24345e-14 76,-3.55271e-15 76,-26"/>
<text text-anchor="middle" x="38" y="-10.55" font-family="Helvetica,sans-Serif" font-size="10.50">type_burgers</text>
</g>
<!-- program~integrate_burgers -->
<g id="node2" class="node"><title>program~integrate_burgers</title>
<a xlink:href="../program/integrate_burgers.html" xlink:title="integrate_burgers">
<polygon fill="#f0ad4e" stroke="#f0ad4e" points="209,-26 113,-26 113,-1.24345e-14 209,-3.55271e-15 209,-26"/>
<text text-anchor="middle" x="161" y="-10.55" font-family="Helvetica,sans-Serif" font-size="10.50" fill="white">integrate_burgers</text>
</a>
</g>
<!-- module~type_burgers&#45;&gt;program~integrate_burgers -->
<g id="edge2" class="edge"><title>module~type_burgers&#45;&gt;program~integrate_burgers</title>
<path fill="none" stroke="black" stroke-dasharray="5,2" d="M76.2437,-13C84.4551,-13 93.3151,-13 102.104,-13"/>
<polygon fill="black" stroke="black" points="102.346,-16.5001 112.346,-13 102.346,-9.5001 102.346,-16.5001"/>
</g>
</g>
</svg>
