<?xml version="1.0" encoding="UTF-8" standalone="no"?>
<!DOCTYPE svg PUBLIC "-//W3C//DTD SVG 1.1//EN"
 "http://www.w3.org/Graphics/SVG/1.1/DTD/svg11.dtd">
<!-- Generated by graphviz version 2.26.3 (20100126.1600)
 -->
<!-- Title: module~~type_integrand~~UsedByGraph Pages: 1 -->
<svg width="641pt" height="255pt"
 viewBox="0.00 0.00 641.00 254.94" xmlns="http://www.w3.org/2000/svg" xmlns:xlink="http://www.w3.org/1999/xlink">
<g id="graph1" class="graph" transform="scale(0.910511 0.910511) rotate(0) translate(4 276)">
<title>module~~type_integrand~~UsedByGraph</title>
<polygon fill="white" stroke="white" points="-4,5 -4,-276 701,-276 701,5 -4,5"/>
<!-- module~type_integrand -->
<g id="node1" class="node"><title>module~type_integrand</title>
<polygon fill="none" stroke="black" points="84,-149 4.26326e-14,-149 0,-123 84,-123 84,-149"/>
<text text-anchor="middle" x="42" y="-133.55" font-family="Helvetica,sans-Serif" font-size="10.50">type_integrand</text>
</g>
<!-- module~foodie_integrator_tvd_runge_kutta -->
<g id="node2" class="node"><title>module~foodie_integrator_tvd_runge_kutta</title>
<a xlink:href="../module/foodie_integrator_tvd_runge_kutta.html" xlink:title="foodie_integrator_tvd_runge_kutta">
<polygon fill="#337ab7" stroke="#337ab7" points="318,-259 142,-259 142,-233 318,-233 318,-259"/>
<text text-anchor="middle" x="230" y="-243.55" font-family="Helvetica,sans-Serif" font-size="10.50" fill="white">foodie_integrator_tvd_runge_kutta</text>
</a>
</g>
<!-- module~type_integrand&#45;&gt;module~foodie_integrator_tvd_runge_kutta -->
<g id="edge36" class="edge"><title>module~type_integrand&#45;&gt;module~foodie_integrator_tvd_runge_kutta</title>
<path fill="none" stroke="black" stroke-dasharray="5,2" d="M49.7085,-149.168C61.9507,-168.821 87.7827,-205.49 120,-224 123.752,-226.156 127.681,-228.103 131.729,-229.862"/>
<polygon fill="black" stroke="black" points="130.773,-233.246 141.36,-233.632 133.325,-226.727 130.773,-233.246"/>
</g>
<!-- module~foodie_integrator_adams_bashforth -->
<g id="node3" class="node"><title>module~foodie_integrator_adams_bashforth</title>
<a xlink:href="../module/foodie_integrator_adams_bashforth.html" xlink:title="foodie_integrator_adams_bashforth">
<polygon fill="#337ab7" stroke="#337ab7" points="321,-215 139,-215 139,-189 321,-189 321,-215"/>
<text text-anchor="middle" x="230" y="-199.55" font-family="Helvetica,sans-Serif" font-size="10.50" fill="white">foodie_integrator_adams_bashforth</text>
</a>
</g>
<!-- module~type_integrand&#45;&gt;module~foodie_integrator_adams_bashforth -->
<g id="edge38" class="edge"><title>module~type_integrand&#45;&gt;module~foodie_integrator_adams_bashforth</title>
<path fill="none" stroke="black" stroke-dasharray="5,2" d="M61.0407,-149.014C76.3423,-158.899 98.7198,-172.099 120,-180 126.317,-182.346 132.937,-184.459 139.661,-186.36"/>
<polygon fill="black" stroke="black" points="139.001,-189.806 149.564,-188.996 140.801,-183.042 139.001,-189.806"/>
</g>
<!-- module~foodie_integrator_euler_explicit -->
<g id="node4" class="node"><title>module~foodie_integrator_euler_explicit</title>
<a xlink:href="../module/foodie_integrator_euler_explicit.html" xlink:title="foodie_integrator_euler_explicit">
<polygon fill="#337ab7" stroke="#337ab7" points="311,-171 149,-171 149,-145 311,-145 311,-171"/>
<text text-anchor="middle" x="230" y="-155.55" font-family="Helvetica,sans-Serif" font-size="10.50" fill="white">foodie_integrator_euler_explicit</text>
</a>
</g>
<!-- module~type_integrand&#45;&gt;module~foodie_integrator_euler_explicit -->
<g id="edge40" class="edge"><title>module~type_integrand&#45;&gt;module~foodie_integrator_euler_explicit</title>
<path fill="none" stroke="black" stroke-dasharray="5,2" d="M84.1909,-140.937C100.416,-142.836 119.636,-145.085 138.708,-147.317"/>
<polygon fill="black" stroke="black" points="138.312,-150.794 148.651,-148.48 139.126,-143.842 138.312,-150.794"/>
</g>
<!-- module~foodie_integrator_leapfrog -->
<g id="node5" class="node"><title>module~foodie_integrator_leapfrog</title>
<a xlink:href="../module/foodie_integrator_leapfrog.html" xlink:title="foodie_integrator_leapfrog">
<polygon fill="#337ab7" stroke="#337ab7" points="299,-127 161,-127 161,-101 299,-101 299,-127"/>
<text text-anchor="middle" x="230" y="-111.55" font-family="Helvetica,sans-Serif" font-size="10.50" fill="white">foodie_integrator_leapfrog</text>
</a>
</g>
<!-- module~type_integrand&#45;&gt;module~foodie_integrator_leapfrog -->
<g id="edge42" class="edge"><title>module~type_integrand&#45;&gt;module~foodie_integrator_leapfrog</title>
<path fill="none" stroke="black" stroke-dasharray="5,2" d="M84.1909,-131.063C103.712,-128.778 127.568,-125.987 150.284,-123.328"/>
<polygon fill="black" stroke="black" points="150.751,-126.798 160.276,-122.159 149.937,-119.845 150.751,-126.798"/>
</g>
<!-- module~foodie -->
<g id="node6" class="node"><title>module~foodie</title>
<a xlink:href="../module/foodie.html" xlink:title="foodie">
<polygon fill="#337ab7" stroke="#337ab7" points="430,-149 376,-149 376,-123 430,-123 430,-149"/>
<text text-anchor="middle" x="403" y="-133.55" font-family="Helvetica,sans-Serif" font-size="10.50" fill="white">foodie</text>
</a>
</g>
<!-- module~type_integrand&#45;&gt;module~foodie -->
<g id="edge44" class="edge"><title>module~type_integrand&#45;&gt;module~foodie</title>
<path fill="none" stroke="black" stroke-dasharray="5,2" d="M59.1415,-122.875C74.2357,-112.2 97.2929,-97.9629 120,-92 214.571,-67.1655 246.73,-62.6539 340,-92 355.361,-96.833 370.242,-106.89 381.681,-116.171"/>
<polygon fill="black" stroke="black" points="379.475,-118.89 389.359,-122.705 384.012,-113.559 379.475,-118.89"/>
</g>
<!-- module~foodie_integrator_low_storage_runge_kutta -->
<g id="node7" class="node"><title>module~foodie_integrator_low_storage_runge_kutta</title>
<a xlink:href="../module/foodie_integrator_low_storage_runge_kutta.html" xlink:title="foodie_integrator_low_storage_runge_kutta">
<polygon fill="#337ab7" stroke="#337ab7" points="340,-45 120,-45 120,-19 340,-19 340,-45"/>
<text text-anchor="middle" x="230" y="-29.55" font-family="Helvetica,sans-Serif" font-size="10.50" fill="white">foodie_integrator_low_storage_runge_kutta</text>
</a>
</g>
<!-- module~type_integrand&#45;&gt;module~foodie_integrator_low_storage_runge_kutta -->
<g id="edge46" class="edge"><title>module~type_integrand&#45;&gt;module~foodie_integrator_low_storage_runge_kutta</title>
<path fill="none" stroke="black" stroke-dasharray="5,2" d="M51.527,-122.929C64.8633,-105.609 90.7688,-75.3439 120,-59 127.545,-54.7817 135.741,-51.2159 144.144,-48.203"/>
<polygon fill="black" stroke="black" points="145.307,-51.5047 153.694,-45.0309 143.101,-44.8615 145.307,-51.5047"/>
</g>
<!-- module~foodie_integrator_tvd_runge_kutta&#45;&gt;module~foodie -->
<g id="edge2" class="edge"><title>module~foodie_integrator_tvd_runge_kutta&#45;&gt;module~foodie</title>
<path fill="none" stroke="black" stroke-dasharray="5,2" d="M318.526,-234.575C326.092,-231.755 333.374,-228.279 340,-224 364.687,-208.057 382.725,-178.747 393.023,-158.354"/>
<polygon fill="black" stroke="black" points="396.266,-159.686 397.452,-149.158 389.96,-156.649 396.266,-159.686"/>
</g>
<!-- module~foodie_integrator_adams_bashforth&#45;&gt;module~foodie -->
<g id="edge4" class="edge"><title>module~foodie_integrator_adams_bashforth&#45;&gt;module~foodie</title>
<path fill="none" stroke="black" stroke-dasharray="5,2" d="M313.989,-188.977C322.931,-186.482 331.761,-183.518 340,-180 354.275,-173.905 368.587,-164.262 379.954,-155.555"/>
<polygon fill="black" stroke="black" points="382.364,-158.111 388.023,-149.154 378.014,-152.627 382.364,-158.111"/>
</g>
<!-- module~foodie_integrator_euler_explicit&#45;&gt;module~foodie -->
<g id="edge6" class="edge"><title>module~foodie_integrator_euler_explicit&#45;&gt;module~foodie</title>
<path fill="none" stroke="black" stroke-dasharray="5,2" d="M311.181,-147.676C330.337,-145.24 349.842,-142.76 365.92,-140.715"/>
<polygon fill="black" stroke="black" points="366.473,-144.173 375.952,-139.44 365.59,-137.229 366.473,-144.173"/>
</g>
<!-- module~foodie_integrator_leapfrog&#45;&gt;module~foodie -->
<g id="edge8" class="edge"><title>module~foodie_integrator_leapfrog&#45;&gt;module~foodie</title>
<path fill="none" stroke="black" stroke-dasharray="5,2" d="M299.867,-122.885C322.338,-125.742 346.366,-128.798 365.571,-131.24"/>
<polygon fill="black" stroke="black" points="365.342,-134.739 375.704,-132.529 366.225,-127.795 365.342,-134.739"/>
</g>
<!-- module~type_burgers -->
<g id="node12" class="node"><title>module~type_burgers</title>
<a xlink:href="../module/type_burgers.html" xlink:title="type_burgers">
<polygon fill="#337ab7" stroke="#337ab7" points="547,-272 471,-272 471,-246 547,-246 547,-272"/>
<text text-anchor="middle" x="509" y="-256.55" font-family="Helvetica,sans-Serif" font-size="10.50" fill="white">type_burgers</text>
</a>
</g>
<!-- module~foodie&#45;&gt;module~type_burgers -->
<g id="edge18" class="edge"><title>module~foodie&#45;&gt;module~type_burgers</title>
<path fill="none" stroke="black" stroke-dasharray="5,2" d="M409.254,-149.061C419.178,-168.796 440.089,-206.604 466,-232 468.892,-234.834 472.131,-237.521 475.498,-240.022"/>
<polygon fill="black" stroke="black" points="473.779,-243.086 484.012,-245.832 477.726,-237.304 473.779,-243.086"/>
</g>
<!-- program~integrate_burgers -->
<g id="node13" class="node"><title>program~integrate_burgers</title>
<a xlink:href="../program/integrate_burgers.html" xlink:title="integrate_burgers">
<polygon fill="#f0ad4e" stroke="#f0ad4e" points="690,-251 594,-251 594,-225 690,-225 690,-251"/>
<text text-anchor="middle" x="642" y="-235.55" font-family="Helvetica,sans-Serif" font-size="10.50" fill="white">integrate_burgers</text>
</a>
</g>
<!-- module~foodie&#45;&gt;program~integrate_burgers -->
<g id="edge20" class="edge"><title>module~foodie&#45;&gt;program~integrate_burgers</title>
<path fill="none" stroke="black" stroke-dasharray="5,2" d="M412.337,-149.044C423.443,-163.552 443.352,-186.576 466,-199 502.088,-218.796 547.548,-228.545 583.225,-233.346"/>
<polygon fill="black" stroke="black" points="583.13,-236.861 593.486,-234.628 583.997,-229.915 583.13,-236.861"/>
</g>
<!-- module~type_euler_1d -->
<g id="node14" class="node"><title>module~type_euler_1d</title>
<a xlink:href="../module/type_euler_1d.html" xlink:title="type_euler_1D">
<polygon fill="#337ab7" stroke="#337ab7" points="550,-190 468,-190 468,-164 550,-164 550,-190"/>
<text text-anchor="middle" x="509" y="-174.55" font-family="Helvetica,sans-Serif" font-size="10.50" fill="white">type_euler_1D</text>
</a>
</g>
<!-- module~foodie&#45;&gt;module~type_euler_1d -->
<g id="edge22" class="edge"><title>module~foodie&#45;&gt;module~type_euler_1d</title>
<path fill="none" stroke="black" stroke-dasharray="5,2" d="M430.023,-146.452C440.864,-150.646 453.632,-155.584 465.705,-160.254"/>
<polygon fill="black" stroke="black" points="464.598,-163.578 475.188,-163.922 467.124,-157.05 464.598,-163.578"/>
</g>
<!-- program~integrate_oscillation -->
<g id="node15" class="node"><title>program~integrate_oscillation</title>
<a xlink:href="../program/integrate_oscillation.html" xlink:title="integrate_oscillation">
<polygon fill="#f0ad4e" stroke="#f0ad4e" points="695,-108 589,-108 589,-82 695,-82 695,-108"/>
<text text-anchor="middle" x="642" y="-92.55" font-family="Helvetica,sans-Serif" font-size="10.50" fill="white">integrate_oscillation</text>
</a>
</g>
<!-- module~foodie&#45;&gt;program~integrate_oscillation -->
<g id="edge24" class="edge"><title>module~foodie&#45;&gt;program~integrate_oscillation</title>
<path fill="none" stroke="black" stroke-dasharray="5,2" d="M430.049,-137.055C451.491,-137.637 482.2,-137.905 509,-136"/>
<path fill="none" stroke="black" stroke-dasharray="5,2" d="M509,-136C526.146,-134.781 565.317,-122.253 596.733,-111.362"/>
<polygon fill="black" stroke="black" points="597.918,-114.655 606.201,-108.049 595.607,-108.048 597.918,-114.655"/>
</g>
<!-- program~integrate_euler_1d -->
<g id="node16" class="node"><title>program~integrate_euler_1d</title>
<a xlink:href="../program/integrate_euler_1d.html" xlink:title="integrate_euler_1D">
<polygon fill="#f0ad4e" stroke="#f0ad4e" points="694,-152 590,-152 590,-126 694,-126 694,-152"/>
<text text-anchor="middle" x="642" y="-136.55" font-family="Helvetica,sans-Serif" font-size="10.50" fill="white">integrate_euler_1D</text>
</a>
</g>
<!-- module~foodie&#45;&gt;program~integrate_euler_1d -->
<g id="edge26" class="edge"><title>module~foodie&#45;&gt;program~integrate_euler_1d</title>
<path fill="none" stroke="black" stroke-dasharray="5,2" d="M509,-136C532.075,-134.36 557.453,-134.463 579.8,-135.195"/>
<polygon fill="black" stroke="black" points="579.71,-138.694 589.835,-135.572 579.973,-131.699 579.71,-138.694"/>
</g>
<!-- program~integrate_lorenz -->
<g id="node17" class="node"><title>program~integrate_lorenz</title>
<a xlink:href="../program/integrate_lorenz.html" xlink:title="integrate_lorenz">
<polygon fill="#f0ad4e" stroke="#f0ad4e" points="687,-45 597,-45 597,-19 687,-19 687,-45"/>
<text text-anchor="middle" x="642" y="-29.55" font-family="Helvetica,sans-Serif" font-size="10.50" fill="white">integrate_lorenz</text>
</a>
</g>
<!-- module~foodie&#45;&gt;program~integrate_lorenz -->
<g id="edge28" class="edge"><title>module~foodie&#45;&gt;program~integrate_lorenz</title>
<path fill="none" stroke="black" stroke-dasharray="5,2" d="M412.362,-123C423.49,-108.533 443.42,-85.5457 466,-73 503.192,-52.336 550.37,-42.0595 586.516,-36.964"/>
<polygon fill="black" stroke="black" points="587.42,-40.3754 596.878,-35.6014 586.507,-33.4351 587.42,-40.3754"/>
</g>
<!-- module~type_lorenz -->
<g id="node18" class="node"><title>module~type_lorenz</title>
<a xlink:href="../module/type_lorenz.html" xlink:title="type_lorenz">
<polygon fill="#337ab7" stroke="#337ab7" points="543,-26 475,-26 475,-1.24345e-14 543,-3.55271e-15 543,-26"/>
<text text-anchor="middle" x="509" y="-10.55" font-family="Helvetica,sans-Serif" font-size="10.50" fill="white">type_lorenz</text>
</a>
</g>
<!-- module~foodie&#45;&gt;module~type_lorenz -->
<g id="edge30" class="edge"><title>module~foodie&#45;&gt;module~type_lorenz</title>
<path fill="none" stroke="black" stroke-dasharray="5,2" d="M409.254,-122.939C419.178,-103.204 440.089,-65.3964 466,-40 468.892,-37.1655 472.131,-34.4789 475.498,-31.9784"/>
<polygon fill="black" stroke="black" points="477.726,-34.6959 484.012,-26.1677 473.779,-28.9141 477.726,-34.6959"/>
</g>
<!-- module~type_oscillation -->
<g id="node19" class="node"><title>module~type_oscillation</title>
<a xlink:href="../module/type_oscillation.html" xlink:title="type_oscillation">
<polygon fill="#337ab7" stroke="#337ab7" points="551,-108 467,-108 467,-82 551,-82 551,-108"/>
<text text-anchor="middle" x="509" y="-92.55" font-family="Helvetica,sans-Serif" font-size="10.50" fill="white">type_oscillation</text>
</a>
</g>
<!-- module~foodie&#45;&gt;module~type_oscillation -->
<g id="edge32" class="edge"><title>module~foodie&#45;&gt;module~type_oscillation</title>
<path fill="none" stroke="black" stroke-dasharray="5,2" d="M430.023,-125.548C440.864,-121.354 453.632,-116.416 465.705,-111.746"/>
<polygon fill="black" stroke="black" points="467.124,-114.95 475.188,-108.078 464.598,-108.422 467.124,-114.95"/>
</g>
<!-- module~foodie_integrator_low_storage_runge_kutta&#45;&gt;module~foodie -->
<g id="edge34" class="edge"><title>module~foodie_integrator_low_storage_runge_kutta&#45;&gt;module~foodie</title>
<path fill="none" stroke="black" stroke-dasharray="5,2" d="M309.746,-45.0262C320.372,-48.6086 330.77,-53.1762 340,-59 361.692,-72.6872 379.417,-96.4049 390.478,-113.911"/>
<polygon fill="black" stroke="black" points="387.745,-116.154 395.92,-122.894 393.732,-112.527 387.745,-116.154"/>
</g>
<!-- module~type_burgers&#45;&gt;program~integrate_burgers -->
<g id="edge10" class="edge"><title>module~type_burgers&#45;&gt;program~integrate_burgers</title>
<path fill="none" stroke="black" stroke-dasharray="5,2" d="M547.112,-252.982C558.387,-251.202 571.001,-249.21 583.259,-247.275"/>
<polygon fill="black" stroke="black" points="584.102,-250.685 593.434,-245.668 583.011,-243.771 584.102,-250.685"/>
</g>
<!-- module~type_euler_1d&#45;&gt;program~integrate_euler_1d -->
<g id="edge12" class="edge"><title>module~type_euler_1d&#45;&gt;program~integrate_euler_1d</title>
<path fill="none" stroke="black" stroke-dasharray="5,2" d="M550.353,-165.185C561.672,-161.951 574.131,-158.391 586.118,-154.966"/>
<polygon fill="black" stroke="black" points="587.386,-158.244 596.04,-152.131 585.463,-151.513 587.386,-158.244"/>
</g>
<!-- module~type_lorenz&#45;&gt;program~integrate_lorenz -->
<g id="edge14" class="edge"><title>module~type_lorenz&#45;&gt;program~integrate_lorenz</title>
<path fill="none" stroke="black" stroke-dasharray="5,2" d="M543.251,-17.893C556.508,-19.7869 572.022,-22.0032 586.774,-24.1105"/>
<polygon fill="black" stroke="black" points="586.433,-27.5973 596.827,-25.5468 587.423,-20.6676 586.433,-27.5973"/>
</g>
<!-- module~type_oscillation&#45;&gt;program~integrate_oscillation -->
<g id="edge16" class="edge"><title>module~type_oscillation&#45;&gt;program~integrate_oscillation</title>
<path fill="none" stroke="black" stroke-dasharray="5,2" d="M551.814,-95C560.11,-95 568.972,-95 577.781,-95"/>
<polygon fill="black" stroke="black" points="578.06,-98.5001 588.06,-95 578.06,-91.5001 578.06,-98.5001"/>
</g>
</g>
</svg>
