<?xml version="1.0" encoding="UTF-8" standalone="no"?>
<!DOCTYPE svg PUBLIC "-//W3C//DTD SVG 1.1//EN"
 "http://www.w3.org/Graphics/SVG/1.1/DTD/svg11.dtd">
<!-- Generated by graphviz version 2.26.3 (20100126.1600)
 -->
<!-- Title: module~~graph~~ModuleGraph Pages: 1 -->
<svg width="855pt" height="489pt"
 viewBox="0.00 0.00 855.00 488.82" xmlns="http://www.w3.org/2000/svg" xmlns:xlink="http://www.w3.org/1999/xlink">
<g id="graph1" class="graph" transform="scale(0.962838 0.962838) rotate(0) translate(4 503.687)">
<title>module~~graph~~ModuleGraph</title>
<polygon fill="white" stroke="white" points="-4,5 -4,-503.687 885,-503.687 885,5 -4,5"/>
<!-- module~foodie -->
<g id="node1" class="node"><title>module~foodie</title>
<a xlink:href="../module/foodie.html" xlink:title="foodie">
<polygon fill="#337ab7" stroke="#337ab7" points="504,-227.937 450,-227.937 450,-201.937 504,-201.937 504,-227.937"/>
<text text-anchor="middle" x="477" y="-212.487" font-family="Helvetica,sans-Serif" font-size="10.50" fill="white">foodie</text>
</a>
</g>
<!-- module~type_oscillation -->
<g id="node3" class="node"><title>module~type_oscillation</title>
<a xlink:href="../module/type_oscillation.html" xlink:title="type_oscillation">
<polygon fill="#337ab7" stroke="#337ab7" points="680,-142.937 596,-142.937 596,-116.937 680,-116.937 680,-142.937"/>
<text text-anchor="middle" x="638" y="-127.487" font-family="Helvetica,sans-Serif" font-size="10.50" fill="white">type_oscillation</text>
</a>
</g>
<!-- module~foodie&#45;&gt;module~type_oscillation -->
<g id="edge16" class="edge"><title>module~foodie&#45;&gt;module~type_oscillation</title>
<path fill="none" stroke="black" stroke-dasharray="5,2" d="M488.158,-201.453C499.79,-188.247 519.199,-168.476 540,-156.937 553.925,-149.212 570.209,-143.578 585.459,-139.521"/>
<polygon fill="black" stroke="black" points="586.436,-142.885 595.296,-137.077 584.747,-136.092 586.436,-142.885"/>
</g>
<!-- module~type_burgers -->
<g id="node5" class="node"><title>module~type_burgers</title>
<a xlink:href="../module/type_burgers.html" xlink:title="type_burgers">
<polygon fill="#337ab7" stroke="#337ab7" points="676,-470.937 600,-470.937 600,-444.937 676,-444.937 676,-470.937"/>
<text text-anchor="middle" x="638" y="-455.487" font-family="Helvetica,sans-Serif" font-size="10.50" fill="white">type_burgers</text>
</a>
</g>
<!-- module~foodie&#45;&gt;module~type_burgers -->
<g id="edge22" class="edge"><title>module~foodie&#45;&gt;module~type_burgers</title>
<path fill="none" stroke="black" stroke-dasharray="5,2" d="M478.789,-228.387C483.588,-260.087 499.261,-340.733 540,-392.937 555.685,-413.036 579.386,-428.992 599.551,-440.066"/>
<polygon fill="black" stroke="black" points="598.049,-443.231 608.526,-444.807 601.319,-437.041 598.049,-443.231"/>
</g>
<!-- module~type_euler_1d -->
<g id="node7" class="node"><title>module~type_euler_1d</title>
<a xlink:href="../module/type_euler_1d.html" xlink:title="type_euler_1D">
<polygon fill="#337ab7" stroke="#337ab7" points="679,-60.9367 597,-60.9367 597,-34.9367 679,-34.9367 679,-60.9367"/>
<text text-anchor="middle" x="638" y="-45.4867" font-family="Helvetica,sans-Serif" font-size="10.50" fill="white">type_euler_1D</text>
</a>
</g>
<!-- module~foodie&#45;&gt;module~type_euler_1d -->
<g id="edge30" class="edge"><title>module~foodie&#45;&gt;module~type_euler_1d</title>
<path fill="none" stroke="black" stroke-dasharray="5,2" d="M482.251,-201.725C491.372,-180.06 511.893,-136.532 540,-107.937 557.143,-90.4958 580.339,-76.0002 599.861,-65.6283"/>
<polygon fill="black" stroke="black" points="601.532,-68.7047 608.82,-61.0155 598.328,-62.4811 601.532,-68.7047"/>
</g>
<!-- module~type_lorenz -->
<g id="node9" class="node"><title>module~type_lorenz</title>
<a xlink:href="../module/type_lorenz.html" xlink:title="type_lorenz">
<polygon fill="#337ab7" stroke="#337ab7" points="672,-350.937 604,-350.937 604,-324.937 672,-324.937 672,-350.937"/>
<text text-anchor="middle" x="638" y="-335.487" font-family="Helvetica,sans-Serif" font-size="10.50" fill="white">type_lorenz</text>
</a>
</g>
<!-- module~foodie&#45;&gt;module~type_lorenz -->
<g id="edge38" class="edge"><title>module~foodie&#45;&gt;module~type_lorenz</title>
<path fill="none" stroke="black" stroke-dasharray="5,2" d="M481.97,-227.984C490.563,-248.76 510.188,-289.226 540,-310.937 555.575,-322.28 575.69,-328.858 593.64,-332.673"/>
<polygon fill="black" stroke="black" points="593.149,-336.143 603.626,-334.568 594.454,-329.265 593.149,-336.143"/>
</g>
<!-- program~integrate_burgers -->
<g id="node10" class="node"><title>program~integrate_burgers</title>
<a xlink:href="../program/integrate_burgers.html" xlink:title="integrate_burgers">
<polygon fill="#f0ad4e" stroke="#f0ad4e" points="874,-391.937 778,-391.937 778,-365.937 874,-365.937 874,-391.937"/>
<text text-anchor="middle" x="826" y="-376.487" font-family="Helvetica,sans-Serif" font-size="10.50" fill="white">integrate_burgers</text>
</a>
</g>
<!-- module~foodie&#45;&gt;program~integrate_burgers -->
<g id="edge44" class="edge"><title>module~foodie&#45;&gt;program~integrate_burgers</title>
<path fill="none" stroke="black" stroke-dasharray="5,2" d="M478.282,-228.179C481.913,-257.606 495.121,-328.327 540,-359.937 606.671,-406.896 705.183,-401.519 767.449,-391.569"/>
<polygon fill="black" stroke="black" points="768.221,-394.988 777.499,-389.873 767.056,-388.086 768.221,-394.988"/>
</g>
<!-- program~integrate_lorenz -->
<g id="node11" class="node"><title>program~integrate_lorenz</title>
<a xlink:href="../program/integrate_lorenz.html" xlink:title="integrate_lorenz">
<polygon fill="#f0ad4e" stroke="#f0ad4e" points="871,-309.937 781,-309.937 781,-283.937 871,-283.937 871,-309.937"/>
<text text-anchor="middle" x="826" y="-294.487" font-family="Helvetica,sans-Serif" font-size="10.50" fill="white">integrate_lorenz</text>
</a>
</g>
<!-- module~foodie&#45;&gt;program~integrate_lorenz -->
<g id="edge54" class="edge"><title>module~foodie&#45;&gt;program~integrate_lorenz</title>
<path fill="none" stroke="black" stroke-dasharray="5,2" d="M485.635,-228.078C496.364,-243.141 516.194,-267.138 540,-277.937 614.433,-311.702 711.084,-309.961 770.804,-304.376"/>
<polygon fill="black" stroke="black" points="771.186,-307.855 780.786,-303.374 770.487,-300.89 771.186,-307.855"/>
</g>
<!-- program~integrate_oscillation -->
<g id="node12" class="node"><title>program~integrate_oscillation</title>
<a xlink:href="../program/integrate_oscillation.html" xlink:title="integrate_oscillation">
<polygon fill="#f0ad4e" stroke="#f0ad4e" points="879,-183.937 773,-183.937 773,-157.937 879,-157.937 879,-183.937"/>
<text text-anchor="middle" x="826" y="-168.487" font-family="Helvetica,sans-Serif" font-size="10.50" fill="white">integrate_oscillation</text>
</a>
</g>
<!-- module~foodie&#45;&gt;program~integrate_oscillation -->
<g id="edge64" class="edge"><title>module~foodie&#45;&gt;program~integrate_oscillation</title>
<path fill="none" stroke="black" stroke-dasharray="5,2" d="M638,-170.937C678.857,-163.01 725.655,-162.98 762.339,-164.946"/>
<polygon fill="black" stroke="black" points="762.213,-168.445 772.404,-165.549 762.631,-161.457 762.213,-168.445"/>
</g>
<!-- program~integrate_euler_1d -->
<g id="node13" class="node"><title>program~integrate_euler_1d</title>
<a xlink:href="../program/integrate_euler_1d.html" xlink:title="integrate_euler_1D">
<polygon fill="#f0ad4e" stroke="#f0ad4e" points="878,-139.937 774,-139.937 774,-113.937 878,-113.937 878,-139.937"/>
<text text-anchor="middle" x="826" y="-124.487" font-family="Helvetica,sans-Serif" font-size="10.50" fill="white">integrate_euler_1D</text>
</a>
</g>
<!-- module~foodie&#45;&gt;program~integrate_euler_1d -->
<g id="edge74" class="edge"><title>module~foodie&#45;&gt;program~integrate_euler_1d</title>
<path fill="none" stroke="black" stroke-dasharray="5,2" d="M504.211,-202.853C515.17,-198.327 528.029,-193.439 540,-189.937 582.581,-177.478 594.446,-179.387 638,-170.937"/>
<path fill="none" stroke="black" stroke-dasharray="5,2" d="M638,-170.937C681.554,-162.486 692.814,-162.104 736,-151.937 747.715,-149.178 760.203,-145.918 772.029,-142.679"/>
<polygon fill="black" stroke="black" points="773.077,-146.021 781.777,-139.974 771.205,-139.275 773.077,-146.021"/>
</g>
<!-- module~foodie_integrator_euler_explicit -->
<g id="node2" class="node"><title>module~foodie_integrator_euler_explicit</title>
<a xlink:href="../module/foodie_integrator_euler_explicit.html" xlink:title="foodie_integrator_euler_explicit">
<polygon fill="#337ab7" stroke="#337ab7" points="403,-268.937 241,-268.937 241,-242.937 403,-242.937 403,-268.937"/>
<text text-anchor="middle" x="322" y="-253.487" font-family="Helvetica,sans-Serif" font-size="10.50" fill="white">foodie_integrator_euler_explicit</text>
</a>
</g>
<!-- module~foodie_integrator_euler_explicit&#45;&gt;module~foodie -->
<g id="edge8" class="edge"><title>module~foodie_integrator_euler_explicit&#45;&gt;module~foodie</title>
<path fill="none" stroke="black" stroke-dasharray="5,2" d="M371.469,-242.851C393.6,-236.997 419.256,-230.211 439.73,-224.795"/>
<polygon fill="black" stroke="black" points="440.848,-228.12 449.621,-222.179 439.058,-221.353 440.848,-228.12"/>
</g>
<!-- module~type_oscillation&#45;&gt;program~integrate_oscillation -->
<g id="edge66" class="edge"><title>module~type_oscillation&#45;&gt;program~integrate_oscillation</title>
<path fill="none" stroke="black" stroke-dasharray="5,2" d="M680.66,-139.24C704.772,-144.499 735.385,-151.175 762.291,-157.043"/>
<polygon fill="black" stroke="black" points="761.884,-160.536 772.4,-159.247 763.375,-153.697 761.884,-160.536"/>
</g>
<!-- module~type_integrand -->
<g id="node4" class="node"><title>module~type_integrand</title>
<a xlink:href="../module/type_integrand.html" xlink:title="type_integrand">
<polygon fill="#337ab7" stroke="#337ab7" points="194,-206.937 110,-206.937 110,-180.937 194,-180.937 194,-206.937"/>
<text text-anchor="middle" x="152" y="-191.487" font-family="Helvetica,sans-Serif" font-size="10.50" fill="white">type_integrand</text>
</a>
</g>
<!-- module~type_integrand&#45;&gt;module~foodie -->
<g id="edge6" class="edge"><title>module~type_integrand&#45;&gt;module~foodie</title>
<path fill="none" stroke="black" stroke-dasharray="5,2" d="M194.155,-196.661C257.992,-200.785 378.203,-208.553 439.297,-212.501"/>
<polygon fill="black" stroke="black" points="439.432,-216.016 449.637,-213.169 439.884,-209.031 439.432,-216.016"/>
</g>
<!-- module~type_integrand&#45;&gt;module~foodie_integrator_euler_explicit -->
<g id="edge12" class="edge"><title>module~type_integrand&#45;&gt;module~foodie_integrator_euler_explicit</title>
<path fill="none" stroke="black" stroke-dasharray="5,2" d="M178.698,-207.005C193.59,-214.017 212.595,-222.512 230,-228.937 240.629,-232.86 252.109,-236.606 263.236,-239.991"/>
<polygon fill="black" stroke="black" points="262.311,-243.367 272.894,-242.869 264.31,-236.659 262.311,-243.367"/>
</g>
<!-- module~foodie_integrator_tvd_runge_kutta -->
<g id="node6" class="node"><title>module~foodie_integrator_tvd_runge_kutta</title>
<a xlink:href="../module/foodie_integrator_tvd_runge_kutta.html" xlink:title="foodie_integrator_tvd_runge_kutta">
<polygon fill="#337ab7" stroke="#337ab7" points="410,-186.937 234,-186.937 234,-160.937 410,-160.937 410,-186.937"/>
<text text-anchor="middle" x="322" y="-171.487" font-family="Helvetica,sans-Serif" font-size="10.50" fill="white">foodie_integrator_tvd_runge_kutta</text>
</a>
</g>
<!-- module~type_integrand&#45;&gt;module~foodie_integrator_tvd_runge_kutta -->
<g id="edge26" class="edge"><title>module~type_integrand&#45;&gt;module~foodie_integrator_tvd_runge_kutta</title>
<path fill="none" stroke="black" stroke-dasharray="5,2" d="M194.022,-188.993C203.019,-187.934 212.887,-186.773 223.029,-185.58"/>
<polygon fill="black" stroke="black" points="223.716,-189.024 233.239,-184.379 222.898,-182.072 223.716,-189.024"/>
</g>
<!-- module~foodie_integrator_adams_bashforth -->
<g id="node8" class="node"><title>module~foodie_integrator_adams_bashforth</title>
<a xlink:href="../module/foodie_integrator_adams_bashforth.html" xlink:title="foodie_integrator_adams_bashforth">
<polygon fill="#337ab7" stroke="#337ab7" points="413,-142.937 231,-142.937 231,-116.937 413,-116.937 413,-142.937"/>
<text text-anchor="middle" x="322" y="-127.487" font-family="Helvetica,sans-Serif" font-size="10.50" fill="white">foodie_integrator_adams_bashforth</text>
</a>
</g>
<!-- module~type_integrand&#45;&gt;module~foodie_integrator_adams_bashforth -->
<g id="edge34" class="edge"><title>module~type_integrand&#45;&gt;module~foodie_integrator_adams_bashforth</title>
<path fill="none" stroke="black" stroke-dasharray="5,2" d="M172.812,-180.803C188.133,-171.62 209.738,-159.664 230,-151.937 235.841,-149.709 241.978,-147.658 248.195,-145.78"/>
<polygon fill="black" stroke="black" points="249.351,-149.089 257.999,-142.97 247.422,-142.36 249.351,-149.089"/>
</g>
<!-- module~type_burgers&#45;&gt;program~integrate_burgers -->
<g id="edge48" class="edge"><title>module~type_burgers&#45;&gt;program~integrate_burgers</title>
<path fill="none" stroke="black" stroke-dasharray="5,2" d="M676.455,-449.751C694.846,-445.233 716.953,-438.908 736,-430.937 757.83,-421.8 780.912,-408.378 798.235,-397.46"/>
<polygon fill="black" stroke="black" points="800.201,-400.357 806.731,-392.014 796.424,-394.463 800.201,-400.357"/>
</g>
<!-- module~foodie_integrator_tvd_runge_kutta&#45;&gt;module~foodie -->
<g id="edge2" class="edge"><title>module~foodie_integrator_tvd_runge_kutta&#45;&gt;module~foodie</title>
<path fill="none" stroke="black" stroke-dasharray="5,2" d="M371.469,-187.022C393.6,-192.876 419.256,-199.663 439.73,-205.078"/>
<polygon fill="black" stroke="black" points="439.058,-208.521 449.621,-207.694 440.848,-201.754 439.058,-208.521"/>
</g>
<!-- module~type_euler_1d&#45;&gt;program~integrate_euler_1d -->
<g id="edge76" class="edge"><title>module~type_euler_1d&#45;&gt;program~integrate_euler_1d</title>
<path fill="none" stroke="black" stroke-dasharray="5,2" d="M679.313,-56.8314C697.105,-61.2932 717.93,-67.3737 736,-74.9367 757.83,-84.0733 780.912,-97.4949 798.235,-108.414"/>
<polygon fill="black" stroke="black" points="796.424,-111.41 806.731,-113.86 800.201,-105.517 796.424,-111.41"/>
</g>
<!-- module~foodie_integrator_adams_bashforth&#45;&gt;module~foodie -->
<g id="edge4" class="edge"><title>module~foodie_integrator_adams_bashforth&#45;&gt;module~foodie</title>
<path fill="none" stroke="black" stroke-dasharray="5,2" d="M393.807,-142.952C400.838,-145.444 407.694,-148.409 414,-151.937 432.557,-162.318 449.351,-179.717 460.924,-193.602"/>
<polygon fill="black" stroke="black" points="458.435,-196.093 467.424,-201.7 463.894,-191.711 458.435,-196.093"/>
</g>
<!-- module~type_lorenz&#45;&gt;program~integrate_lorenz -->
<g id="edge56" class="edge"><title>module~type_lorenz&#45;&gt;program~integrate_lorenz</title>
<path fill="none" stroke="black" stroke-dasharray="5,2" d="M672.045,-330.512C699.544,-324.515 738.79,-315.956 770.774,-308.981"/>
<polygon fill="black" stroke="black" points="771.855,-312.327 780.88,-306.777 770.363,-305.488 771.855,-312.327"/>
</g>
<!-- IR_Precision -->
<g id="node18" class="node"><title>IR_Precision</title>
<polygon fill="#337ab7" stroke="#337ab7" points="73,-206.937 1,-206.937 1,-180.937 73,-180.937 73,-206.937"/>
<text text-anchor="middle" x="37" y="-191.487" font-family="Helvetica,sans-Serif" font-size="10.50" fill="white">IR_Precision</text>
</g>
<!-- IR_Precision&#45;&gt;module~foodie_integrator_euler_explicit -->
<g id="edge10" class="edge"><title>IR_Precision&#45;&gt;module~foodie_integrator_euler_explicit</title>
<path fill="none" stroke="black" stroke-dasharray="5,2" d="M40.0779,-207.129C52.3494,-258.219 99.6617,-441.059 152,-457.937"/>
<path fill="none" stroke="black" stroke-dasharray="5,2" d="M152,-457.937C242.144,-487.006 297.525,-337.535 315.531,-278.813"/>
<polygon fill="black" stroke="black" points="318.963,-279.551 318.458,-268.968 312.253,-277.556 318.963,-279.551"/>
</g>
<!-- IR_Precision&#45;&gt;module~type_oscillation -->
<g id="edge14" class="edge"><title>IR_Precision&#45;&gt;module~type_oscillation</title>
<path fill="none" stroke="black" stroke-dasharray="5,2" d="M477,-88.9367C482.587,-88.5825 540.615,-103.738 585.421,-115.721"/>
<polygon fill="black" stroke="black" points="584.766,-119.169 595.331,-118.378 586.578,-112.408 584.766,-119.169"/>
</g>
<!-- IR_Precision&#45;&gt;module~type_integrand -->
<g id="edge18" class="edge"><title>IR_Precision&#45;&gt;module~type_integrand</title>
<path fill="none" stroke="black" stroke-dasharray="5,2" d="M73.7029,-193.937C81.9237,-193.937 90.8,-193.937 99.521,-193.937"/>
<polygon fill="black" stroke="black" points="99.6389,-197.437 109.639,-193.937 99.6388,-190.437 99.6389,-197.437"/>
</g>
<!-- IR_Precision&#45;&gt;module~type_burgers -->
<g id="edge20" class="edge"><title>IR_Precision&#45;&gt;module~type_burgers</title>
<path fill="none" stroke="black" stroke-dasharray="5,2" d="M477,-457.937C514.586,-452.627 557.601,-452.95 589.709,-454.425"/>
<polygon fill="black" stroke="black" points="589.563,-457.922 599.729,-454.938 589.922,-450.931 589.563,-457.922"/>
</g>
<!-- IR_Precision&#45;&gt;module~foodie_integrator_tvd_runge_kutta -->
<g id="edge24" class="edge"><title>IR_Precision&#45;&gt;module~foodie_integrator_tvd_runge_kutta</title>
<path fill="none" stroke="black" stroke-dasharray="5,2" d="M152,-129.937C186.891,-120.991 195.144,-142.857 230,-151.937 238.429,-154.132 247.315,-156.362 256.105,-158.519"/>
<polygon fill="black" stroke="black" points="255.417,-161.953 265.961,-160.916 257.072,-155.151 255.417,-161.953"/>
</g>
<!-- IR_Precision&#45;&gt;module~type_euler_1d -->
<g id="edge28" class="edge"><title>IR_Precision&#45;&gt;module~type_euler_1d</title>
<path fill="none" stroke="black" stroke-dasharray="5,2" d="M477,-88.9367C488.083,-88.234 544.096,-73.539 586.971,-61.9409"/>
<polygon fill="black" stroke="black" points="587.989,-65.2914 596.724,-59.2951 586.156,-58.5356 587.989,-65.2914"/>
</g>
<!-- IR_Precision&#45;&gt;module~foodie_integrator_adams_bashforth -->
<g id="edge32" class="edge"><title>IR_Precision&#45;&gt;module~foodie_integrator_adams_bashforth</title>
<path fill="none" stroke="black" stroke-dasharray="5,2" d="M152,-129.937C173.569,-124.407 197.19,-122.136 219.78,-121.684"/>
<polygon fill="black" stroke="black" points="220.105,-125.182 230.076,-121.599 220.047,-118.182 220.105,-125.182"/>
</g>
<!-- IR_Precision&#45;&gt;module~type_lorenz -->
<g id="edge36" class="edge"><title>IR_Precision&#45;&gt;module~type_lorenz</title>
<path fill="none" stroke="black" stroke-dasharray="5,2" d="M152,-457.937C289.473,-502.268 333.168,-471.223 477,-457.937"/>
<path fill="none" stroke="black" stroke-dasharray="5,2" d="M477,-457.937C513.803,-452.737 510.448,-425.48 540,-402.937 561.959,-386.185 588.077,-368.987 607.825,-356.492"/>
<polygon fill="black" stroke="black" points="609.805,-359.381 616.413,-351.1 606.083,-353.453 609.805,-359.381"/>
</g>
<!-- IR_Precision&#45;&gt;program~integrate_burgers -->
<g id="edge40" class="edge"><title>IR_Precision&#45;&gt;program~integrate_burgers</title>
<path fill="none" stroke="black" stroke-dasharray="5,2" d="M477,-457.937C506.301,-453.35 510.759,-474.978 540,-479.937 625.885,-494.501 656.512,-515.573 736,-479.937 771.947,-463.821 799.426,-425.464 814.101,-400.93"/>
<polygon fill="black" stroke="black" points="817.3,-402.387 819.258,-391.975 811.234,-398.894 817.3,-402.387"/>
</g>
<!-- IR_Precision&#45;&gt;program~integrate_lorenz -->
<g id="edge50" class="edge"><title>IR_Precision&#45;&gt;program~integrate_lorenz</title>
<path fill="none" stroke="black" stroke-dasharray="5,2" d="M477,-457.937C484.617,-456.861 729.199,-363.531 736,-359.937 759.62,-347.452 784.338,-329.768 801.88,-316.312"/>
<polygon fill="black" stroke="black" points="804.137,-318.991 809.879,-310.087 799.838,-313.466 804.137,-318.991"/>
</g>
<!-- IR_Precision&#45;&gt;program~integrate_oscillation -->
<g id="edge60" class="edge"><title>IR_Precision&#45;&gt;program~integrate_oscillation</title>
<path fill="none" stroke="black" stroke-dasharray="5,2" d="M477,-88.9367C592.189,-81.6327 632.666,-56.5166 736,-107.937 757.71,-118.74 752.243,-134.875 772,-148.937 774.093,-150.426 776.301,-151.837 778.582,-153.169"/>
<polygon fill="black" stroke="black" points="777.163,-156.377 787.644,-157.923 780.415,-150.178 777.163,-156.377"/>
</g>
<!-- IR_Precision&#45;&gt;program~integrate_euler_1d -->
<g id="edge70" class="edge"><title>IR_Precision&#45;&gt;program~integrate_euler_1d</title>
<path fill="none" stroke="black" stroke-dasharray="5,2" d="M54.0979,-180.664C75.556,-164.936 114.153,-139.64 152,-129.937"/>
<path fill="none" stroke="black" stroke-dasharray="5,2" d="M152,-129.937C186.891,-120.991 194.536,-114.238 230,-107.937 338.404,-88.6759 367.098,-95.568 477,-88.9367"/>
<path fill="none" stroke="black" stroke-dasharray="5,2" d="M477,-88.9367C516.417,-85.1533 503.416,-41.0902 540,-25.9367 620.48,7.39928 656.512,9.70011 736,-25.9367 771.947,-42.0529 799.426,-80.4096 814.101,-104.944"/>
<polygon fill="black" stroke="black" points="811.234,-106.98 819.258,-113.899 817.3,-103.486 811.234,-106.98"/>
</g>
<!-- pyplot_module -->
<g id="node35" class="node"><title>pyplot_module</title>
<polygon fill="#337ab7" stroke="#337ab7" points="679,-268.937 597,-268.937 597,-242.937 679,-242.937 679,-268.937"/>
<text text-anchor="middle" x="638" y="-253.487" font-family="Helvetica,sans-Serif" font-size="10.50" fill="white">pyplot_module</text>
</g>
<!-- pyplot_module&#45;&gt;program~integrate_burgers -->
<g id="edge42" class="edge"><title>pyplot_module&#45;&gt;program~integrate_burgers</title>
<path fill="none" stroke="black" stroke-dasharray="5,2" d="M660.429,-269.135C680.451,-281.044 710.47,-299.208 736,-315.937 757.798,-330.22 781.967,-347.204 799.766,-359.936"/>
<polygon fill="black" stroke="black" points="797.789,-362.826 807.953,-365.815 801.871,-357.139 797.789,-362.826"/>
</g>
<!-- pyplot_module&#45;&gt;program~integrate_lorenz -->
<g id="edge52" class="edge"><title>pyplot_module&#45;&gt;program~integrate_lorenz</title>
<path fill="none" stroke="black" stroke-dasharray="5,2" d="M679.257,-264.934C706.137,-270.796 741.523,-278.513 770.811,-284.901"/>
<polygon fill="black" stroke="black" points="770.377,-288.388 780.893,-287.099 771.868,-281.549 770.377,-288.388"/>
</g>
<!-- pyplot_module&#45;&gt;program~integrate_oscillation -->
<g id="edge62" class="edge"><title>pyplot_module&#45;&gt;program~integrate_oscillation</title>
<path fill="none" stroke="black" stroke-dasharray="5,2" d="M679.181,-250.372C697.143,-247.022 718.134,-241.825 736,-233.937 760.89,-222.947 785.988,-204.642 803.333,-190.587"/>
<polygon fill="black" stroke="black" points="805.721,-193.154 811.19,-184.08 801.256,-187.763 805.721,-193.154"/>
</g>
<!-- pyplot_module&#45;&gt;program~integrate_euler_1d -->
<g id="edge72" class="edge"><title>pyplot_module&#45;&gt;program~integrate_euler_1d</title>
<path fill="none" stroke="black" stroke-dasharray="5,2" d="M679.448,-255.084C698.521,-252.728 720.337,-247.009 736,-233.937 767.497,-207.648 742.791,-177.747 772,-148.937 773.104,-147.848 774.268,-146.811 775.483,-145.823"/>
<polygon fill="black" stroke="black" points="777.78,-148.495 784.105,-139.995 773.86,-142.696 777.78,-148.495"/>
</g>
<!-- Data_Type_Command_Line_Interface -->
<g id="node38" class="node"><title>Data_Type_Command_Line_Interface</title>
<polygon fill="#337ab7" stroke="#337ab7" points="735,-224.937 541,-224.937 541,-198.937 735,-198.937 735,-224.937"/>
<text text-anchor="middle" x="638" y="-209.487" font-family="Helvetica,sans-Serif" font-size="10.50" fill="white">Data_Type_Command_Line_Interface</text>
</g>
<!-- Data_Type_Command_Line_Interface&#45;&gt;program~integrate_burgers -->
<g id="edge46" class="edge"><title>Data_Type_Command_Line_Interface&#45;&gt;program~integrate_burgers</title>
<path fill="none" stroke="black" stroke-dasharray="5,2" d="M722.419,-225.02C727.268,-227.526 731.85,-230.473 736,-233.937 767.497,-260.225 749.974,-284.324 772,-318.937 781.17,-333.346 793.847,-347.635 804.615,-358.651"/>
<polygon fill="black" stroke="black" points="802.146,-361.132 811.697,-365.717 807.089,-356.176 802.146,-361.132"/>
</g>
<!-- Data_Type_Command_Line_Interface&#45;&gt;program~integrate_lorenz -->
<g id="edge58" class="edge"><title>Data_Type_Command_Line_Interface&#45;&gt;program~integrate_lorenz</title>
<path fill="none" stroke="black" stroke-dasharray="5,2" d="M711.012,-224.982C719.597,-227.49 728.104,-230.45 736,-233.937 760.89,-244.926 785.988,-263.231 803.333,-277.286"/>
<polygon fill="black" stroke="black" points="801.256,-280.11 811.19,-283.794 805.721,-274.719 801.256,-280.11"/>
</g>
<!-- Data_Type_Command_Line_Interface&#45;&gt;program~integrate_oscillation -->
<g id="edge68" class="edge"><title>Data_Type_Command_Line_Interface&#45;&gt;program~integrate_oscillation</title>
<path fill="none" stroke="black" stroke-dasharray="5,2" d="M697.743,-198.908C718.441,-194.394 741.707,-189.32 762.683,-184.745"/>
<polygon fill="black" stroke="black" points="763.433,-188.164 772.457,-182.614 761.941,-181.325 763.433,-188.164"/>
</g>
<!-- Data_Type_Command_Line_Interface&#45;&gt;program~integrate_euler_1d -->
<g id="edge78" class="edge"><title>Data_Type_Command_Line_Interface&#45;&gt;program~integrate_euler_1d</title>
<path fill="none" stroke="black" stroke-dasharray="5,2" d="M703.699,-198.911C714.889,-195.288 726.086,-190.707 736,-184.937 755.556,-173.554 753.149,-161.453 772,-148.937 774.372,-147.362 776.874,-145.867 779.45,-144.455"/>
<polygon fill="black" stroke="black" points="781.033,-147.577 788.407,-139.969 777.898,-141.318 781.033,-147.577"/>
</g>
</g>
</svg>
