<?xml version="1.0" encoding="UTF-8" standalone="no"?>
<!DOCTYPE svg PUBLIC "-//W3C//DTD SVG 1.1//EN"
 "http://www.w3.org/Graphics/SVG/1.1/DTD/svg11.dtd">
<!-- Generated by graphviz version 2.26.3 (20100126.1600)
 -->
<!-- Title: module~~foodie~~UsedByGraph Pages: 1 -->
<svg width="328pt" height="268pt"
 viewBox="0.00 0.00 328.00 268.01" xmlns="http://www.w3.org/2000/svg" xmlns:xlink="http://www.w3.org/1999/xlink">
<g id="graph1" class="graph" transform="scale(1 1) rotate(0) translate(4 264.012)">
<title>module~~foodie~~UsedByGraph</title>
<polygon fill="white" stroke="white" points="-4,5 -4,-264.012 325,-264.012 325,5 -4,5"/>
<!-- module~foodie -->
<g id="node1" class="node"><title>module~foodie</title>
<polygon fill="none" stroke="black" points="54,-137.012 2.13163e-14,-137.012 0,-111.012 54,-111.012 54,-137.012"/>
<text text-anchor="middle" x="27" y="-121.562" font-family="Helvetica,sans-Serif" font-size="10.50">foodie</text>
</g>
<!-- module~type_euler_1d -->
<g id="node2" class="node"><title>module~type_euler_1d</title>
<a xlink:href="../module/type_euler_1d.html" xlink:title="type_euler_1D">
<polygon fill="#337ab7" stroke="#337ab7" points="174,-260.012 92,-260.012 92,-234.012 174,-234.012 174,-260.012"/>
<text text-anchor="middle" x="133" y="-244.562" font-family="Helvetica,sans-Serif" font-size="10.50" fill="white">type_euler_1D</text>
</a>
</g>
<!-- module~foodie&#45;&gt;module~type_euler_1d -->
<g id="edge10" class="edge"><title>module~foodie&#45;&gt;module~type_euler_1d</title>
<path fill="none" stroke="black" stroke-dasharray="5,2" d="M33.2538,-137.073C43.1778,-156.808 64.0887,-194.616 90,-220.012 92.8919,-222.846 96.1306,-225.533 99.4984,-228.034"/>
<polygon fill="black" stroke="black" points="97.7794,-231.098 108.012,-233.844 101.726,-225.316 97.7794,-231.098"/>
</g>
<!-- module~type_burgers -->
<g id="node3" class="node"><title>module~type_burgers</title>
<a xlink:href="../module/type_burgers.html" xlink:title="type_burgers">
<polygon fill="#337ab7" stroke="#337ab7" points="171,-178.012 95,-178.012 95,-152.012 171,-152.012 171,-178.012"/>
<text text-anchor="middle" x="133" y="-162.562" font-family="Helvetica,sans-Serif" font-size="10.50" fill="white">type_burgers</text>
</a>
</g>
<!-- module~foodie&#45;&gt;module~type_burgers -->
<g id="edge12" class="edge"><title>module~foodie&#45;&gt;module~type_burgers</title>
<path fill="none" stroke="black" stroke-dasharray="5,2" d="M54.0225,-134.464C64.8641,-138.658 77.6323,-143.596 89.7049,-148.266"/>
<polygon fill="black" stroke="black" points="88.5985,-151.59 99.1877,-151.934 91.1237,-145.062 88.5985,-151.59"/>
</g>
<!-- program~integrate_burgers -->
<g id="node4" class="node"><title>program~integrate_burgers</title>
<a xlink:href="../program/integrate_burgers.html" xlink:title="integrate_burgers">
<polygon fill="#f0ad4e" stroke="#f0ad4e" points="314,-140.012 218,-140.012 218,-114.012 314,-114.012 314,-140.012"/>
<text text-anchor="middle" x="266" y="-124.562" font-family="Helvetica,sans-Serif" font-size="10.50" fill="white">integrate_burgers</text>
</a>
</g>
<!-- module~foodie&#45;&gt;program~integrate_burgers -->
<g id="edge14" class="edge"><title>module~foodie&#45;&gt;program~integrate_burgers</title>
<path fill="none" stroke="black" stroke-dasharray="5,2" d="M133,-124.012C157.283,-122.286 184.116,-122.49 207.283,-123.327"/>
<polygon fill="black" stroke="black" points="207.172,-126.826 217.307,-123.736 207.458,-119.831 207.172,-126.826"/>
</g>
<!-- program~integrate_oscillation -->
<g id="node5" class="node"><title>program~integrate_oscillation</title>
<a xlink:href="../program/integrate_oscillation.html" xlink:title="integrate_oscillation">
<polygon fill="#f0ad4e" stroke="#f0ad4e" points="319,-96.012 213,-96.012 213,-70.012 319,-70.012 319,-96.012"/>
<text text-anchor="middle" x="266" y="-80.562" font-family="Helvetica,sans-Serif" font-size="10.50" fill="white">integrate_oscillation</text>
</a>
</g>
<!-- module~foodie&#45;&gt;program~integrate_oscillation -->
<g id="edge16" class="edge"><title>module~foodie&#45;&gt;program~integrate_oscillation</title>
<path fill="none" stroke="black" stroke-dasharray="5,2" d="M54.0494,-125.067C75.4912,-125.649 106.2,-125.917 133,-124.012"/>
<path fill="none" stroke="black" stroke-dasharray="5,2" d="M133,-124.012C150.146,-122.793 189.317,-110.265 220.733,-99.3741"/>
<polygon fill="black" stroke="black" points="221.918,-102.668 230.201,-96.0612 219.607,-96.0603 221.918,-102.668"/>
</g>
<!-- module~type_lorenz -->
<g id="node6" class="node"><title>module~type_lorenz</title>
<a xlink:href="../module/type_lorenz.html" xlink:title="type_lorenz">
<polygon fill="#337ab7" stroke="#337ab7" points="167,-52.012 99,-52.012 99,-26.012 167,-26.012 167,-52.012"/>
<text text-anchor="middle" x="133" y="-36.562" font-family="Helvetica,sans-Serif" font-size="10.50" fill="white">type_lorenz</text>
</a>
</g>
<!-- module~foodie&#45;&gt;module~type_lorenz -->
<g id="edge18" class="edge"><title>module~foodie&#45;&gt;module~type_lorenz</title>
<path fill="none" stroke="black" stroke-dasharray="5,2" d="M37.8312,-110.984C49.648,-97.3327 69.6148,-75.8487 90,-61.012 91.6272,-59.8277 93.3272,-58.6721 95.0721,-57.5502"/>
<polygon fill="black" stroke="black" points="97.2159,-60.3487 104.041,-52.2452 93.6522,-54.3237 97.2159,-60.3487"/>
</g>
<!-- program~integrate_euler_1d -->
<g id="node7" class="node"><title>program~integrate_euler_1d</title>
<a xlink:href="../program/integrate_euler_1d.html" xlink:title="integrate_euler_1D">
<polygon fill="#f0ad4e" stroke="#f0ad4e" points="318,-239.012 214,-239.012 214,-213.012 318,-213.012 318,-239.012"/>
<text text-anchor="middle" x="266" y="-223.562" font-family="Helvetica,sans-Serif" font-size="10.50" fill="white">integrate_euler_1D</text>
</a>
</g>
<!-- module~foodie&#45;&gt;program~integrate_euler_1d -->
<g id="edge20" class="edge"><title>module~foodie&#45;&gt;program~integrate_euler_1d</title>
<path fill="none" stroke="black" stroke-dasharray="5,2" d="M36.3371,-137.056C47.4429,-151.564 67.3522,-174.588 90,-187.012 124.839,-206.123 168.413,-215.871 203.487,-220.842"/>
<polygon fill="black" stroke="black" points="203.237,-224.339 213.609,-222.178 204.154,-217.399 203.237,-224.339"/>
</g>
<!-- module~type_oscillation -->
<g id="node8" class="node"><title>module~type_oscillation</title>
<a xlink:href="../module/type_oscillation.html" xlink:title="type_oscillation">
<polygon fill="#337ab7" stroke="#337ab7" points="175,-96.012 91,-96.012 91,-70.012 175,-70.012 175,-96.012"/>
<text text-anchor="middle" x="133" y="-80.562" font-family="Helvetica,sans-Serif" font-size="10.50" fill="white">type_oscillation</text>
</a>
</g>
<!-- module~foodie&#45;&gt;module~type_oscillation -->
<g id="edge22" class="edge"><title>module~foodie&#45;&gt;module~type_oscillation</title>
<path fill="none" stroke="black" stroke-dasharray="5,2" d="M54.0225,-113.56C64.8641,-109.366 77.6323,-104.428 89.7049,-99.7582"/>
<polygon fill="black" stroke="black" points="91.1237,-102.962 99.1877,-96.0904 88.5985,-96.4336 91.1237,-102.962"/>
</g>
<!-- program~integrate_lorenz -->
<g id="node9" class="node"><title>program~integrate_lorenz</title>
<a xlink:href="../program/integrate_lorenz.html" xlink:title="integrate_lorenz">
<polygon fill="#f0ad4e" stroke="#f0ad4e" points="311,-32.012 221,-32.012 221,-6.01202 311,-6.01202 311,-32.012"/>
<text text-anchor="middle" x="266" y="-16.562" font-family="Helvetica,sans-Serif" font-size="10.50" fill="white">integrate_lorenz</text>
</a>
</g>
<!-- module~foodie&#45;&gt;program~integrate_lorenz -->
<g id="edge24" class="edge"><title>module~foodie&#45;&gt;program~integrate_lorenz</title>
<path fill="none" stroke="black" stroke-dasharray="5,2" d="M30.2087,-110.773C36.7787,-86.9512 54.2546,-37.4468 90,-17.012 126.373,3.78159 174.27,1.72807 210.913,-4.66413"/>
<polygon fill="black" stroke="black" points="210.454,-8.13934 220.931,-6.56673 211.76,-1.26227 210.454,-8.13934"/>
</g>
<!-- module~type_euler_1d&#45;&gt;program~integrate_euler_1d -->
<g id="edge2" class="edge"><title>module~type_euler_1d&#45;&gt;program~integrate_euler_1d</title>
<path fill="none" stroke="black" stroke-dasharray="5,2" d="M174.353,-240.483C183.732,-239.002 193.894,-237.397 203.922,-235.814"/>
<polygon fill="black" stroke="black" points="204.539,-239.26 213.87,-234.243 203.447,-232.346 204.539,-239.26"/>
</g>
<!-- module~type_burgers&#45;&gt;program~integrate_burgers -->
<g id="edge4" class="edge"><title>module~type_burgers&#45;&gt;program~integrate_burgers</title>
<path fill="none" stroke="black" stroke-dasharray="5,2" d="M171.112,-154.123C183.346,-150.627 197.158,-146.681 210.38,-142.904"/>
<polygon fill="black" stroke="black" points="211.686,-146.171 220.339,-140.058 209.763,-139.44 211.686,-146.171"/>
</g>
<!-- module~type_lorenz&#45;&gt;program~integrate_lorenz -->
<g id="edge6" class="edge"><title>module~type_lorenz&#45;&gt;program~integrate_lorenz</title>
<path fill="none" stroke="black" stroke-dasharray="5,2" d="M167.251,-33.8615C180.508,-31.8679 196.022,-29.535 210.774,-27.3167"/>
<polygon fill="black" stroke="black" points="211.459,-30.7531 220.827,-25.8049 210.418,-23.8309 211.459,-30.7531"/>
</g>
<!-- module~type_oscillation&#45;&gt;program~integrate_oscillation -->
<g id="edge8" class="edge"><title>module~type_oscillation&#45;&gt;program~integrate_oscillation</title>
<path fill="none" stroke="black" stroke-dasharray="5,2" d="M175.814,-83.012C184.11,-83.012 192.972,-83.012 201.781,-83.012"/>
<polygon fill="black" stroke="black" points="202.06,-86.5121 212.06,-83.012 202.06,-79.5121 202.06,-86.5121"/>
</g>
</g>
</svg>
