<?xml version="1.0" encoding="UTF-8" standalone="no"?>
<!DOCTYPE svg PUBLIC "-//W3C//DTD SVG 1.1//EN"
 "http://www.w3.org/Graphics/SVG/1.1/DTD/svg11.dtd">
<!-- Generated by graphviz version 2.26.3 (20100126.1600)
 -->
<!-- Title: module~~type_oscillation~~UsesGraph Pages: 1 -->
<svg width="634pt" height="202pt"
 viewBox="0.00 0.00 634.00 202.01" xmlns="http://www.w3.org/2000/svg" xmlns:xlink="http://www.w3.org/1999/xlink">
<g id="graph1" class="graph" transform="scale(1 1) rotate(0) translate(4 198.007)">
<title>module~~type_oscillation~~UsesGraph</title>
<polygon fill="white" stroke="white" points="-4,5 -4,-198.007 631,-198.007 631,5 -4,5"/>
<!-- module~type_oscillation -->
<g id="node1" class="node"><title>module~type_oscillation</title>
<polygon fill="none" stroke="black" points="625,-150 541,-150 541,-124 625,-124 625,-150"/>
<text text-anchor="middle" x="583" y="-134.55" font-family="Helvetica,sans-Serif" font-size="10.50">type_oscillation</text>
</g>
<!-- IR_Precision -->
<g id="node2" class="node"><title>IR_Precision</title>
<polygon fill="#337ab7" stroke="#337ab7" points="73,-88 1,-88 1,-62 73,-62 73,-88"/>
<text text-anchor="middle" x="37" y="-72.55" font-family="Helvetica,sans-Serif" font-size="10.50" fill="white">IR_Precision</text>
</g>
<!-- IR_Precision&#45;&gt;module~type_oscillation -->
<g id="edge24" class="edge"><title>IR_Precision&#45;&gt;module~type_oscillation</title>
<path fill="none" stroke="black" stroke-dasharray="5,2" d="M152,-180C286.891,-214.283 452.02,-176.517 533.156,-152.963"/>
<polygon fill="black" stroke="black" points="534.498,-156.216 543.096,-150.026 532.514,-149.503 534.498,-156.216"/>
</g>
<!-- module~foodie_integrator_tvd_runge_kutta -->
<g id="node4" class="node"><title>module~foodie_integrator_tvd_runge_kutta</title>
<a xlink:href="../module/foodie_integrator_tvd_runge_kutta.html" xlink:title="foodie_integrator_tvd_runge_kutta">
<polygon fill="#337ab7" stroke="#337ab7" points="410,-152 234,-152 234,-126 410,-126 410,-152"/>
<text text-anchor="middle" x="322" y="-136.55" font-family="Helvetica,sans-Serif" font-size="10.50" fill="white">foodie_integrator_tvd_runge_kutta</text>
</a>
</g>
<!-- IR_Precision&#45;&gt;module~foodie_integrator_tvd_runge_kutta -->
<g id="edge2" class="edge"><title>IR_Precision&#45;&gt;module~foodie_integrator_tvd_runge_kutta</title>
<path fill="none" stroke="black" stroke-dasharray="5,2" d="M152,-180C163.308,-182.874 222.332,-167.513 267.69,-154.78"/>
<polygon fill="black" stroke="black" points="268.759,-158.116 277.43,-152.028 266.855,-151.379 268.759,-158.116"/>
</g>
<!-- module~foodie_integrator_adams_bashforth -->
<g id="node5" class="node"><title>module~foodie_integrator_adams_bashforth</title>
<a xlink:href="../module/foodie_integrator_adams_bashforth.html" xlink:title="foodie_integrator_adams_bashforth">
<polygon fill="#337ab7" stroke="#337ab7" points="413,-108 231,-108 231,-82 413,-82 413,-108"/>
<text text-anchor="middle" x="322" y="-92.55" font-family="Helvetica,sans-Serif" font-size="10.50" fill="white">foodie_integrator_adams_bashforth</text>
</a>
</g>
<!-- IR_Precision&#45;&gt;module~foodie_integrator_adams_bashforth -->
<g id="edge6" class="edge"><title>IR_Precision&#45;&gt;module~foodie_integrator_adams_bashforth</title>
<path fill="none" stroke="black" stroke-dasharray="5,2" d="M45.0239,-88.2198C61.3357,-113.443 101.167,-167.081 152,-180"/>
<path fill="none" stroke="black" stroke-dasharray="5,2" d="M152,-180C195.189,-190.977 190.012,-136.666 230,-117 234.089,-114.989 238.373,-113.155 242.761,-111.484"/>
<polygon fill="black" stroke="black" points="244.215,-114.684 252.499,-108.08 241.905,-108.076 244.215,-114.684"/>
</g>
<!-- module~type_integrand -->
<g id="node6" class="node"><title>module~type_integrand</title>
<a xlink:href="../module/type_integrand.html" xlink:title="type_integrand">
<polygon fill="#337ab7" stroke="#337ab7" points="194,-88 110,-88 110,-62 194,-62 194,-88"/>
<text text-anchor="middle" x="152" y="-72.55" font-family="Helvetica,sans-Serif" font-size="10.50" fill="white">type_integrand</text>
</a>
</g>
<!-- IR_Precision&#45;&gt;module~type_integrand -->
<g id="edge10" class="edge"><title>IR_Precision&#45;&gt;module~type_integrand</title>
<path fill="none" stroke="black" stroke-dasharray="5,2" d="M73.7029,-75C81.9237,-75 90.8,-75 99.521,-75"/>
<polygon fill="black" stroke="black" points="99.6389,-78.5001 109.639,-75 99.6388,-71.5001 99.6389,-78.5001"/>
</g>
<!-- module~foodie_integrator_euler_explicit -->
<g id="node7" class="node"><title>module~foodie_integrator_euler_explicit</title>
<a xlink:href="../module/foodie_integrator_euler_explicit.html" xlink:title="foodie_integrator_euler_explicit">
<polygon fill="#337ab7" stroke="#337ab7" points="403,-26 241,-26 241,-1.24345e-14 403,-3.55271e-15 403,-26"/>
<text text-anchor="middle" x="322" y="-10.55" font-family="Helvetica,sans-Serif" font-size="10.50" fill="white">foodie_integrator_euler_explicit</text>
</a>
</g>
<!-- IR_Precision&#45;&gt;module~foodie_integrator_euler_explicit -->
<g id="edge12" class="edge"><title>IR_Precision&#45;&gt;module~foodie_integrator_euler_explicit</title>
<path fill="none" stroke="black" stroke-dasharray="5,2" d="M73.5534,-63.1538C85.1377,-59.6236 98.0416,-55.9214 110,-53 149.746,-43.2903 194.174,-34.5837 232.05,-27.7922"/>
<polygon fill="black" stroke="black" points="232.806,-31.2129 242.039,-26.018 231.581,-24.3208 232.806,-31.2129"/>
</g>
<!-- module~foodie -->
<g id="node3" class="node"><title>module~foodie</title>
<a xlink:href="../module/foodie.html" xlink:title="foodie">
<polygon fill="#337ab7" stroke="#337ab7" points="504,-108 450,-108 450,-82 504,-82 504,-108"/>
<text text-anchor="middle" x="477" y="-92.55" font-family="Helvetica,sans-Serif" font-size="10.50" fill="white">foodie</text>
</a>
</g>
<!-- module~foodie&#45;&gt;module~type_oscillation -->
<g id="edge26" class="edge"><title>module~foodie&#45;&gt;module~type_oscillation</title>
<path fill="none" stroke="black" stroke-dasharray="5,2" d="M504.023,-105.707C515.058,-110.079 528.089,-115.243 540.351,-120.101"/>
<polygon fill="black" stroke="black" points="539.381,-123.482 549.967,-123.912 541.96,-116.974 539.381,-123.482"/>
</g>
<!-- module~foodie_integrator_tvd_runge_kutta&#45;&gt;module~foodie -->
<g id="edge16" class="edge"><title>module~foodie_integrator_tvd_runge_kutta&#45;&gt;module~foodie</title>
<path fill="none" stroke="black" stroke-dasharray="5,2" d="M380.638,-125.918C391.77,-123.169 403.284,-120.143 414,-117 422.642,-114.465 431.846,-111.44 440.472,-108.458"/>
<polygon fill="black" stroke="black" points="441.636,-111.759 449.906,-105.137 439.311,-105.156 441.636,-111.759"/>
</g>
<!-- module~foodie_integrator_adams_bashforth&#45;&gt;module~foodie -->
<g id="edge18" class="edge"><title>module~foodie_integrator_adams_bashforth&#45;&gt;module~foodie</title>
<path fill="none" stroke="black" stroke-dasharray="5,2" d="M413.508,-95C422.714,-95 431.647,-95 439.764,-95"/>
<polygon fill="black" stroke="black" points="439.919,-98.5001 449.919,-95 439.919,-91.5001 439.919,-98.5001"/>
</g>
<!-- module~type_integrand&#45;&gt;module~foodie -->
<g id="edge20" class="edge"><title>module~type_integrand&#45;&gt;module~foodie</title>
<path fill="none" stroke="black" stroke-dasharray="5,2" d="M194.108,-70.1837C246.174,-65.2562 337.311,-59.995 414,-73 422.702,-74.4757 431.805,-77.0216 440.298,-79.87"/>
<polygon fill="black" stroke="black" points="439.335,-83.2422 449.929,-83.3067 441.687,-76.6494 439.335,-83.2422"/>
</g>
<!-- module~type_integrand&#45;&gt;module~foodie_integrator_tvd_runge_kutta -->
<g id="edge4" class="edge"><title>module~type_integrand&#45;&gt;module~foodie_integrator_tvd_runge_kutta</title>
<path fill="none" stroke="black" stroke-dasharray="5,2" d="M172.812,-88.1338C188.133,-97.3165 209.738,-109.273 230,-117 235.841,-119.227 241.978,-121.279 248.195,-123.157"/>
<polygon fill="black" stroke="black" points="247.422,-126.576 257.999,-125.967 249.351,-119.847 247.422,-126.576"/>
</g>
<!-- module~type_integrand&#45;&gt;module~foodie_integrator_adams_bashforth -->
<g id="edge8" class="edge"><title>module~type_integrand&#45;&gt;module~foodie_integrator_adams_bashforth</title>
<path fill="none" stroke="black" stroke-dasharray="5,2" d="M194.022,-79.9438C202.182,-80.9037 211.058,-81.948 220.205,-83.0241"/>
<polygon fill="black" stroke="black" points="219.874,-86.5093 230.215,-84.2017 220.692,-79.5572 219.874,-86.5093"/>
</g>
<!-- module~type_integrand&#45;&gt;module~foodie_integrator_euler_explicit -->
<g id="edge14" class="edge"><title>module~type_integrand&#45;&gt;module~foodie_integrator_euler_explicit</title>
<path fill="none" stroke="black" stroke-dasharray="5,2" d="M178.698,-61.9321C193.59,-54.9202 212.595,-46.425 230,-40 240.629,-36.0766 252.109,-32.3308 263.236,-28.9456"/>
<polygon fill="black" stroke="black" points="264.31,-32.2779 272.894,-26.0682 262.311,-25.5694 264.31,-32.2779"/>
</g>
<!-- module~foodie_integrator_euler_explicit&#45;&gt;module~foodie -->
<g id="edge22" class="edge"><title>module~foodie_integrator_euler_explicit&#45;&gt;module~foodie</title>
<path fill="none" stroke="black" stroke-dasharray="5,2" d="M380.46,-26.0187C391.946,-29.7101 403.637,-34.3175 414,-40 430.5,-49.048 446.441,-63.0322 458.16,-74.6351"/>
<polygon fill="black" stroke="black" points="455.718,-77.1434 465.214,-81.8401 460.719,-72.2462 455.718,-77.1434"/>
</g>
</g>
</svg>
