<?xml version="1.0" encoding="UTF-8" standalone="no"?>
<!DOCTYPE svg PUBLIC "-//W3C//DTD SVG 1.1//EN"
 "http://www.w3.org/Graphics/SVG/1.1/DTD/svg11.dtd">
<!-- Generated by graphviz version 2.26.3 (20100126.1600)
 -->
<!-- Title: module~~type_euler_1d~~UsesGraph Pages: 1 -->
<svg width="630pt" height="202pt"
 viewBox="0.00 0.00 630.00 202.31" xmlns="http://www.w3.org/2000/svg" xmlns:xlink="http://www.w3.org/1999/xlink">
<g id="graph1" class="graph" transform="scale(1 1) rotate(0) translate(4 198.31)">
<title>module~~type_euler_1d~~UsesGraph</title>
<polygon fill="white" stroke="white" points="-4,5 -4,-198.31 627,-198.31 627,5 -4,5"/>
<!-- module~type_euler_1d -->
<g id="node1" class="node"><title>module~type_euler_1d</title>
<polygon fill="none" stroke="black" points="622,-152 540,-152 540,-126 622,-126 622,-152"/>
<text text-anchor="middle" x="581" y="-136.55" font-family="Helvetica,sans-Serif" font-size="10.50">type_euler_1D</text>
</g>
<!-- IR_Precision -->
<g id="node2" class="node"><title>IR_Precision</title>
<polygon fill="#337ab7" stroke="#337ab7" points="73,-87 1,-87 1,-61 73,-61 73,-87"/>
<text text-anchor="middle" x="37" y="-71.55" font-family="Helvetica,sans-Serif" font-size="10.50" fill="white">IR_Precision</text>
</g>
<!-- IR_Precision&#45;&gt;module~type_euler_1d -->
<g id="edge24" class="edge"><title>IR_Precision&#45;&gt;module~type_euler_1d</title>
<path fill="none" stroke="black" stroke-dasharray="5,2" d="M152,-180C285.608,-214.293 449.276,-177.927 530.41,-154.89"/>
<polygon fill="black" stroke="black" points="531.724,-158.154 540.359,-152.014 529.78,-151.429 531.724,-158.154"/>
</g>
<!-- module~foodie_integrator_adams_bashforth -->
<g id="node5" class="node"><title>module~foodie_integrator_adams_bashforth</title>
<a xlink:href="../module/foodie_integrator_adams_bashforth.html" xlink:title="foodie_integrator_adams_bashforth">
<polygon fill="#337ab7" stroke="#337ab7" points="413,-152 231,-152 231,-126 413,-126 413,-152"/>
<text text-anchor="middle" x="322" y="-136.55" font-family="Helvetica,sans-Serif" font-size="10.50" fill="white">foodie_integrator_adams_bashforth</text>
</a>
</g>
<!-- IR_Precision&#45;&gt;module~foodie_integrator_adams_bashforth -->
<g id="edge2" class="edge"><title>IR_Precision&#45;&gt;module~foodie_integrator_adams_bashforth</title>
<path fill="none" stroke="black" stroke-dasharray="5,2" d="M152,-180C163.301,-182.901 222.326,-167.535 267.687,-154.793"/>
<polygon fill="black" stroke="black" points="268.757,-158.128 277.427,-152.039 266.852,-151.392 268.757,-158.128"/>
</g>
<!-- module~foodie_integrator_tvd_runge_kutta -->
<g id="node6" class="node"><title>module~foodie_integrator_tvd_runge_kutta</title>
<a xlink:href="../module/foodie_integrator_tvd_runge_kutta.html" xlink:title="foodie_integrator_tvd_runge_kutta">
<polygon fill="#337ab7" stroke="#337ab7" points="410,-108 234,-108 234,-82 410,-82 410,-108"/>
<text text-anchor="middle" x="322" y="-92.55" font-family="Helvetica,sans-Serif" font-size="10.50" fill="white">foodie_integrator_tvd_runge_kutta</text>
</a>
</g>
<!-- IR_Precision&#45;&gt;module~foodie_integrator_tvd_runge_kutta -->
<g id="edge6" class="edge"><title>IR_Precision&#45;&gt;module~foodie_integrator_tvd_runge_kutta</title>
<path fill="none" stroke="black" stroke-dasharray="5,2" d="M44.9905,-87.3363C61.2438,-112.783 100.977,-166.904 152,-180"/>
<path fill="none" stroke="black" stroke-dasharray="5,2" d="M152,-180C195.163,-191.079 190.012,-136.666 230,-117 234.089,-114.989 238.373,-113.155 242.761,-111.484"/>
<polygon fill="black" stroke="black" points="244.215,-114.684 252.499,-108.08 241.905,-108.076 244.215,-114.684"/>
</g>
<!-- module~type_integrand -->
<g id="node7" class="node"><title>module~type_integrand</title>
<a xlink:href="../module/type_integrand.html" xlink:title="type_integrand">
<polygon fill="#337ab7" stroke="#337ab7" points="194,-87 110,-87 110,-61 194,-61 194,-87"/>
<text text-anchor="middle" x="152" y="-71.55" font-family="Helvetica,sans-Serif" font-size="10.50" fill="white">type_integrand</text>
</a>
</g>
<!-- IR_Precision&#45;&gt;module~type_integrand -->
<g id="edge10" class="edge"><title>IR_Precision&#45;&gt;module~type_integrand</title>
<path fill="none" stroke="black" stroke-dasharray="5,2" d="M73.7029,-74C81.9237,-74 90.8,-74 99.521,-74"/>
<polygon fill="black" stroke="black" points="99.6389,-77.5001 109.639,-74 99.6388,-70.5001 99.6389,-77.5001"/>
</g>
<!-- module~foodie_integrator_euler_explicit -->
<g id="node8" class="node"><title>module~foodie_integrator_euler_explicit</title>
<a xlink:href="../module/foodie_integrator_euler_explicit.html" xlink:title="foodie_integrator_euler_explicit">
<polygon fill="#337ab7" stroke="#337ab7" points="403,-26 241,-26 241,-1.24345e-14 403,-3.55271e-15 403,-26"/>
<text text-anchor="middle" x="322" y="-10.55" font-family="Helvetica,sans-Serif" font-size="10.50" fill="white">foodie_integrator_euler_explicit</text>
</a>
</g>
<!-- IR_Precision&#45;&gt;module~foodie_integrator_euler_explicit -->
<g id="edge12" class="edge"><title>IR_Precision&#45;&gt;module~foodie_integrator_euler_explicit</title>
<path fill="none" stroke="black" stroke-dasharray="5,2" d="M73.5453,-62.1206C85.1292,-58.5889 98.035,-54.8941 110,-52 149.317,-42.49 193.228,-34.058 230.843,-27.489"/>
<polygon fill="black" stroke="black" points="231.511,-30.9256 240.768,-25.7732 230.318,-24.0279 231.511,-30.9256"/>
</g>
<!-- wenoof -->
<g id="node3" class="node"><title>wenoof</title>
<polygon fill="#337ab7" stroke="#337ab7" points="504,-152 450,-152 450,-126 504,-126 504,-152"/>
<text text-anchor="middle" x="477" y="-136.55" font-family="Helvetica,sans-Serif" font-size="10.50" fill="white">wenoof</text>
</g>
<!-- wenoof&#45;&gt;module~type_euler_1d -->
<g id="edge26" class="edge"><title>wenoof&#45;&gt;module~type_euler_1d</title>
<path fill="none" stroke="black" stroke-dasharray="5,2" d="M504.053,-139C512.012,-139 520.992,-139 529.935,-139"/>
<polygon fill="black" stroke="black" points="529.961,-142.5 539.961,-139 529.961,-135.5 529.961,-142.5"/>
</g>
<!-- module~foodie -->
<g id="node4" class="node"><title>module~foodie</title>
<a xlink:href="../module/foodie.html" xlink:title="foodie">
<polygon fill="#337ab7" stroke="#337ab7" points="504,-108 450,-108 450,-82 504,-82 504,-108"/>
<text text-anchor="middle" x="477" y="-92.55" font-family="Helvetica,sans-Serif" font-size="10.50" fill="white">foodie</text>
</a>
</g>
<!-- module~foodie&#45;&gt;module~type_euler_1d -->
<g id="edge28" class="edge"><title>module~foodie&#45;&gt;module~type_euler_1d</title>
<path fill="none" stroke="black" stroke-dasharray="5,2" d="M504.053,-106.446C515.166,-111.147 528.271,-116.691 540.485,-121.859"/>
<polygon fill="black" stroke="black" points="539.462,-125.226 550.035,-125.9 542.189,-118.78 539.462,-125.226"/>
</g>
<!-- module~foodie_integrator_adams_bashforth&#45;&gt;module~foodie -->
<g id="edge16" class="edge"><title>module~foodie_integrator_adams_bashforth&#45;&gt;module~foodie</title>
<path fill="none" stroke="black" stroke-dasharray="5,2" d="M380.638,-125.918C391.77,-123.169 403.284,-120.143 414,-117 422.642,-114.465 431.846,-111.44 440.472,-108.458"/>
<polygon fill="black" stroke="black" points="441.636,-111.759 449.906,-105.137 439.311,-105.156 441.636,-111.759"/>
</g>
<!-- module~foodie_integrator_tvd_runge_kutta&#45;&gt;module~foodie -->
<g id="edge18" class="edge"><title>module~foodie_integrator_tvd_runge_kutta&#45;&gt;module~foodie</title>
<path fill="none" stroke="black" stroke-dasharray="5,2" d="M410.816,-95C420.915,-95 430.752,-95 439.621,-95"/>
<polygon fill="black" stroke="black" points="439.911,-98.5001 449.911,-95 439.911,-91.5001 439.911,-98.5001"/>
</g>
<!-- module~type_integrand&#45;&gt;module~foodie -->
<g id="edge20" class="edge"><title>module~type_integrand&#45;&gt;module~foodie</title>
<path fill="none" stroke="black" stroke-dasharray="5,2" d="M194.109,-69.4414C246.175,-64.8102 337.313,-59.9953 414,-73 422.702,-74.4757 431.805,-77.0216 440.298,-79.87"/>
<polygon fill="black" stroke="black" points="439.335,-83.2422 449.929,-83.3067 441.687,-76.6494 439.335,-83.2422"/>
</g>
<!-- module~type_integrand&#45;&gt;module~foodie_integrator_adams_bashforth -->
<g id="edge4" class="edge"><title>module~type_integrand&#45;&gt;module~foodie_integrator_adams_bashforth</title>
<path fill="none" stroke="black" stroke-dasharray="5,2" d="M172.122,-87.0729C187.457,-96.537 209.378,-109.019 230,-117 235.729,-119.217 241.748,-121.256 247.85,-123.122"/>
<polygon fill="black" stroke="black" points="246.898,-126.49 257.477,-125.911 248.846,-119.766 246.898,-126.49"/>
</g>
<!-- module~type_integrand&#45;&gt;module~foodie_integrator_tvd_runge_kutta -->
<g id="edge8" class="edge"><title>module~type_integrand&#45;&gt;module~foodie_integrator_tvd_runge_kutta</title>
<path fill="none" stroke="black" stroke-dasharray="5,2" d="M194.022,-79.191C203.019,-80.3024 212.887,-81.5214 223.029,-82.7741"/>
<polygon fill="black" stroke="black" points="222.885,-86.2829 233.239,-84.0353 223.743,-79.3357 222.885,-86.2829"/>
</g>
<!-- module~type_integrand&#45;&gt;module~foodie_integrator_euler_explicit -->
<g id="edge14" class="edge"><title>module~type_integrand&#45;&gt;module~foodie_integrator_euler_explicit</title>
<path fill="none" stroke="black" stroke-dasharray="5,2" d="M179.816,-60.8609C194.551,-54.1605 213.06,-46.1504 230,-40 240.77,-36.0897 252.401,-32.3301 263.649,-28.9229"/>
<polygon fill="black" stroke="black" points="264.816,-32.2275 273.405,-26.0245 262.822,-25.5174 264.816,-32.2275"/>
</g>
<!-- module~foodie_integrator_euler_explicit&#45;&gt;module~foodie -->
<g id="edge22" class="edge"><title>module~foodie_integrator_euler_explicit&#45;&gt;module~foodie</title>
<path fill="none" stroke="black" stroke-dasharray="5,2" d="M380.46,-26.0187C391.946,-29.7101 403.637,-34.3175 414,-40 430.5,-49.048 446.441,-63.0322 458.16,-74.6351"/>
<polygon fill="black" stroke="black" points="455.718,-77.1434 465.214,-81.8401 460.719,-72.2462 455.718,-77.1434"/>
</g>
</g>
</svg>
