<?xml version="1.0" encoding="UTF-8" standalone="no"?>
<!DOCTYPE svg PUBLIC "-//W3C//DTD SVG 1.1//EN"
 "http://www.w3.org/Graphics/SVG/1.1/DTD/svg11.dtd">
<!-- Generated by graphviz version 2.26.3 (20100126.1600)
 -->
<!-- Title: module~~foodie_integrator_adams_bashforth~~UsedByGraph Pages: 1 -->
<svg width="548pt" height="266pt"
 viewBox="0.00 0.00 548.00 265.79" xmlns="http://www.w3.org/2000/svg" xmlns:xlink="http://www.w3.org/1999/xlink">
<g id="graph1" class="graph" transform="scale(1 1) rotate(0) translate(4 261.791)">
<title>module~~foodie_integrator_adams_bashforth~~UsedByGraph</title>
<polygon fill="white" stroke="white" points="-4,5 -4,-261.791 545,-261.791 545,5 -4,5"/>
<!-- module~foodie_integrator_adams_bashforth -->
<g id="node1" class="node"><title>module~foodie_integrator_adams_bashforth</title>
<polygon fill="none" stroke="black" points="183,-131.791 1,-131.791 1,-105.791 183,-105.791 183,-131.791"/>
<text text-anchor="middle" x="92" y="-116.341" font-family="Helvetica,sans-Serif" font-size="10.50">foodie_integrator_adams_bashforth</text>
</g>
<!-- module~foodie -->
<g id="node2" class="node"><title>module~foodie</title>
<a xlink:href="../module/foodie.html" xlink:title="foodie">
<polygon fill="#337ab7" stroke="#337ab7" points="274,-131.791 220,-131.791 220,-105.791 274,-105.791 274,-131.791"/>
<text text-anchor="middle" x="247" y="-116.341" font-family="Helvetica,sans-Serif" font-size="10.50" fill="white">foodie</text>
</a>
</g>
<!-- module~foodie_integrator_adams_bashforth&#45;&gt;module~foodie -->
<g id="edge26" class="edge"><title>module~foodie_integrator_adams_bashforth&#45;&gt;module~foodie</title>
<path fill="none" stroke="black" stroke-dasharray="5,2" d="M183.508,-118.791C192.714,-118.791 201.647,-118.791 209.764,-118.791"/>
<polygon fill="black" stroke="black" points="209.919,-122.291 219.919,-118.791 209.919,-115.291 209.919,-122.291"/>
</g>
<!-- module~type_oscillation -->
<g id="node3" class="node"><title>module~type_oscillation</title>
<a xlink:href="../module/type_oscillation.html" xlink:title="type_oscillation">
<polygon fill="#337ab7" stroke="#337ab7" points="395,-257.791 311,-257.791 311,-231.791 395,-231.791 395,-257.791"/>
<text text-anchor="middle" x="353" y="-242.341" font-family="Helvetica,sans-Serif" font-size="10.50" fill="white">type_oscillation</text>
</a>
</g>
<!-- module~foodie&#45;&gt;module~type_oscillation -->
<g id="edge10" class="edge"><title>module~foodie&#45;&gt;module~type_oscillation</title>
<path fill="none" stroke="black" stroke-dasharray="5,2" d="M252.997,-131.938C262.727,-152.212 283.558,-191.508 310,-217.791 312.872,-220.645 316.098,-223.345 319.458,-225.853"/>
<polygon fill="black" stroke="black" points="317.733,-228.914 327.963,-231.673 321.687,-223.137 317.733,-228.914"/>
</g>
<!-- program~integrate_lorenz -->
<g id="node4" class="node"><title>program~integrate_lorenz</title>
<a xlink:href="../program/integrate_lorenz.html" xlink:title="integrate_lorenz">
<polygon fill="#f0ad4e" stroke="#f0ad4e" points="531,-175.791 441,-175.791 441,-149.791 531,-149.791 531,-175.791"/>
<text text-anchor="middle" x="486" y="-160.341" font-family="Helvetica,sans-Serif" font-size="10.50" fill="white">integrate_lorenz</text>
</a>
</g>
<!-- module~foodie&#45;&gt;program~integrate_lorenz -->
<g id="edge12" class="edge"><title>module~foodie&#45;&gt;program~integrate_lorenz</title>
<path fill="none" stroke="black" stroke-dasharray="5,2" d="M256.906,-131.923C268.381,-146.412 288.483,-169.676 310,-184.791 327.097,-196.8 332.847,-198.278 353,-203.791"/>
<path fill="none" stroke="black" stroke-dasharray="5,2" d="M353,-203.791C361.734,-206.18 405.844,-191.712 440.905,-179.31"/>
<polygon fill="black" stroke="black" points="442.274,-182.538 450.517,-175.883 439.923,-175.945 442.274,-182.538"/>
</g>
<!-- module~type_euler_1d -->
<g id="node5" class="node"><title>module~type_euler_1d</title>
<a xlink:href="../module/type_euler_1d.html" xlink:title="type_euler_1D">
<polygon fill="#337ab7" stroke="#337ab7" points="394,-131.791 312,-131.791 312,-105.791 394,-105.791 394,-131.791"/>
<text text-anchor="middle" x="353" y="-116.341" font-family="Helvetica,sans-Serif" font-size="10.50" fill="white">type_euler_1D</text>
</a>
</g>
<!-- module~foodie&#45;&gt;module~type_euler_1d -->
<g id="edge14" class="edge"><title>module~foodie&#45;&gt;module~type_euler_1d</title>
<path fill="none" stroke="black" stroke-dasharray="5,2" d="M274.023,-118.791C282.401,-118.791 291.93,-118.791 301.4,-118.791"/>
<polygon fill="black" stroke="black" points="301.594,-122.291 311.594,-118.791 301.594,-115.291 301.594,-122.291"/>
</g>
<!-- module~type_burgers -->
<g id="node6" class="node"><title>module~type_burgers</title>
<a xlink:href="../module/type_burgers.html" xlink:title="type_burgers">
<polygon fill="#337ab7" stroke="#337ab7" points="391,-49.7905 315,-49.7905 315,-23.7905 391,-23.7905 391,-49.7905"/>
<text text-anchor="middle" x="353" y="-34.3405" font-family="Helvetica,sans-Serif" font-size="10.50" fill="white">type_burgers</text>
</a>
</g>
<!-- module~foodie&#45;&gt;module~type_burgers -->
<g id="edge16" class="edge"><title>module~foodie&#45;&gt;module~type_burgers</title>
<path fill="none" stroke="black" stroke-dasharray="5,2" d="M260.975,-105.453C273.399,-93.877 292.288,-76.9558 310,-63.7905 313.865,-60.918 318.038,-58.0421 322.212,-55.2949"/>
<polygon fill="black" stroke="black" points="324.142,-58.2148 330.682,-49.8793 320.372,-52.3171 324.142,-58.2148"/>
</g>
<!-- program~integrate_burgers -->
<g id="node7" class="node"><title>program~integrate_burgers</title>
<a xlink:href="../program/integrate_burgers.html" xlink:title="integrate_burgers">
<polygon fill="#f0ad4e" stroke="#f0ad4e" points="534,-38.7905 438,-38.7905 438,-12.7905 534,-12.7905 534,-38.7905"/>
<text text-anchor="middle" x="486" y="-23.3405" font-family="Helvetica,sans-Serif" font-size="10.50" fill="white">integrate_burgers</text>
</a>
</g>
<!-- module~foodie&#45;&gt;program~integrate_burgers -->
<g id="edge18" class="edge"><title>module~foodie&#45;&gt;program~integrate_burgers</title>
<path fill="none" stroke="black" stroke-dasharray="5,2" d="M250.435,-105.543C257.279,-82.2296 275.055,-34.4783 310,-14.7905 349.788,7.62623 402.966,0.183857 440.419,-9.93135"/>
<polygon fill="black" stroke="black" points="439.485,-13.3046 450.062,-12.6877 441.409,-6.57414 439.485,-13.3046"/>
</g>
<!-- program~integrate_oscillation -->
<g id="node8" class="node"><title>program~integrate_oscillation</title>
<a xlink:href="../program/integrate_oscillation.html" xlink:title="integrate_oscillation">
<polygon fill="#f0ad4e" stroke="#f0ad4e" points="539,-219.791 433,-219.791 433,-193.791 539,-193.791 539,-219.791"/>
<text text-anchor="middle" x="486" y="-204.341" font-family="Helvetica,sans-Serif" font-size="10.50" fill="white">integrate_oscillation</text>
</a>
</g>
<!-- module~foodie&#45;&gt;program~integrate_oscillation -->
<g id="edge20" class="edge"><title>module~foodie&#45;&gt;program~integrate_oscillation</title>
<path fill="none" stroke="black" stroke-dasharray="5,2" d="M353,-203.791C375.12,-209.841 400.09,-211.649 422.37,-211.596"/>
<polygon fill="black" stroke="black" points="422.45,-215.095 432.398,-211.449 422.348,-208.096 422.45,-215.095"/>
</g>
<!-- module~type_lorenz -->
<g id="node9" class="node"><title>module~type_lorenz</title>
<a xlink:href="../module/type_lorenz.html" xlink:title="type_lorenz">
<polygon fill="#337ab7" stroke="#337ab7" points="387,-175.791 319,-175.791 319,-149.791 387,-149.791 387,-175.791"/>
<text text-anchor="middle" x="353" y="-160.341" font-family="Helvetica,sans-Serif" font-size="10.50" fill="white">type_lorenz</text>
</a>
</g>
<!-- module~foodie&#45;&gt;module~type_lorenz -->
<g id="edge22" class="edge"><title>module~foodie&#45;&gt;module~type_lorenz</title>
<path fill="none" stroke="black" stroke-dasharray="5,2" d="M274.023,-130.007C285.558,-134.796 299.275,-140.489 312.014,-145.777"/>
<polygon fill="black" stroke="black" points="310.935,-149.119 321.513,-149.72 313.619,-142.654 310.935,-149.119"/>
</g>
<!-- program~integrate_euler_1d -->
<g id="node10" class="node"><title>program~integrate_euler_1d</title>
<a xlink:href="../program/integrate_euler_1d.html" xlink:title="integrate_euler_1D">
<polygon fill="#f0ad4e" stroke="#f0ad4e" points="538,-101.791 434,-101.791 434,-75.7905 538,-75.7905 538,-101.791"/>
<text text-anchor="middle" x="486" y="-86.3405" font-family="Helvetica,sans-Serif" font-size="10.50" fill="white">integrate_euler_1D</text>
</a>
</g>
<!-- module~foodie&#45;&gt;program~integrate_euler_1d -->
<g id="edge24" class="edge"><title>module~foodie&#45;&gt;program~integrate_euler_1d</title>
<path fill="none" stroke="black" stroke-dasharray="5,2" d="M274.122,-107.38C285.069,-103.29 297.942,-99.1182 310,-96.7905 347.287,-89.5925 389.804,-87.4947 423.708,-87.243"/>
<polygon fill="black" stroke="black" points="423.945,-90.7426 433.938,-87.2206 423.93,-83.7426 423.945,-90.7426"/>
</g>
<!-- module~type_oscillation&#45;&gt;program~integrate_oscillation -->
<g id="edge2" class="edge"><title>module~type_oscillation&#45;&gt;program~integrate_oscillation</title>
<path fill="none" stroke="black" stroke-dasharray="5,2" d="M395.814,-232.558C406.738,-229.437 418.644,-226.035 430.116,-222.757"/>
<polygon fill="black" stroke="black" points="431.398,-226.031 440.051,-219.919 429.475,-219.301 431.398,-226.031"/>
</g>
<!-- module~type_euler_1d&#45;&gt;program~integrate_euler_1d -->
<g id="edge4" class="edge"><title>module~type_euler_1d&#45;&gt;program~integrate_euler_1d</title>
<path fill="none" stroke="black" stroke-dasharray="5,2" d="M394.353,-109.463C403.732,-107.347 413.894,-105.055 423.922,-102.793"/>
<polygon fill="black" stroke="black" points="424.885,-106.164 433.87,-100.549 423.345,-99.3353 424.885,-106.164"/>
</g>
<!-- module~type_burgers&#45;&gt;program~integrate_burgers -->
<g id="edge6" class="edge"><title>module~type_burgers&#45;&gt;program~integrate_burgers</title>
<path fill="none" stroke="black" stroke-dasharray="5,2" d="M391.112,-33.6384C402.387,-32.7059 415.001,-31.6626 427.259,-30.6488"/>
<polygon fill="black" stroke="black" points="427.757,-34.1197 437.434,-29.8072 427.18,-27.1435 427.757,-34.1197"/>
</g>
<!-- module~type_lorenz&#45;&gt;program~integrate_lorenz -->
<g id="edge8" class="edge"><title>module~type_lorenz&#45;&gt;program~integrate_lorenz</title>
<path fill="none" stroke="black" stroke-dasharray="5,2" d="M387.251,-162.791C400.508,-162.791 416.022,-162.791 430.774,-162.791"/>
<polygon fill="black" stroke="black" points="430.827,-166.291 440.827,-162.791 430.827,-159.291 430.827,-166.291"/>
</g>
</g>
</svg>
