<?xml version="1.0" encoding="UTF-8" standalone="no"?>
<!DOCTYPE svg PUBLIC "-//W3C//DTD SVG 1.1//EN"
 "http://www.w3.org/Graphics/SVG/1.1/DTD/svg11.dtd">
<!-- Generated by graphviz version 2.26.3 (20100126.1600)
 -->
<!-- Title: module~~foodie_integrator_low_storage_runge_kutta~~UsesGraph Pages: 1 -->
<svg width="458pt" height="54pt"
 viewBox="0.00 0.00 458.00 54.00" xmlns="http://www.w3.org/2000/svg" xmlns:xlink="http://www.w3.org/1999/xlink">
<g id="graph1" class="graph" transform="scale(1 1) rotate(0) translate(4 50)">
<title>module~~foodie_integrator_low_storage_runge_kutta~~UsesGraph</title>
<polygon fill="white" stroke="white" points="-4,5 -4,-50 455,-50 455,5 -4,5"/>
<!-- module~foodie_integrator_low_storage_runge_kutta -->
<g id="node1" class="node"><title>module~foodie_integrator_low_storage_runge_kutta</title>
<polygon fill="none" stroke="black" points="450,-46 230,-46 230,-20 450,-20 450,-46"/>
<text text-anchor="middle" x="340" y="-30.55" font-family="Helvetica,sans-Serif" font-size="10.50">foodie_integrator_low_storage_runge_kutta</text>
</g>
<!-- IR_Precision -->
<g id="node2" class="node"><title>IR_Precision</title>
<polygon fill="#337ab7" stroke="#337ab7" points="73,-46 1,-46 1,-20 73,-20 73,-46"/>
<text text-anchor="middle" x="37" y="-30.55" font-family="Helvetica,sans-Serif" font-size="10.50" fill="white">IR_Precision</text>
</g>
<!-- IR_Precision&#45;&gt;module~foodie_integrator_low_storage_runge_kutta -->
<g id="edge4" class="edge"><title>IR_Precision&#45;&gt;module~foodie_integrator_low_storage_runge_kutta</title>
<path fill="none" stroke="black" stroke-dasharray="5,2" d="M73.7585,-34.2035C85.3524,-34.5304 98.2102,-34.8385 110,-35 145.523,-35.4865 184.135,-35.3933 219.397,-35.0646"/>
<polygon fill="black" stroke="black" points="219.771,-38.5611 229.736,-34.9607 219.701,-31.5615 219.771,-38.5611"/>
</g>
<!-- module~type_integrand -->
<g id="node3" class="node"><title>module~type_integrand</title>
<a xlink:href="../module/type_integrand.html" xlink:title="type_integrand">
<polygon fill="#337ab7" stroke="#337ab7" points="194,-26 110,-26 110,-1.24345e-14 194,-3.55271e-15 194,-26"/>
<text text-anchor="middle" x="152" y="-10.55" font-family="Helvetica,sans-Serif" font-size="10.50" fill="white">type_integrand</text>
</a>
</g>
<!-- IR_Precision&#45;&gt;module~type_integrand -->
<g id="edge2" class="edge"><title>IR_Precision&#45;&gt;module~type_integrand</title>
<path fill="none" stroke="black" stroke-dasharray="5,2" d="M73.7029,-26.6169C81.9237,-25.1872 90.8,-23.6435 99.521,-22.1268"/>
<polygon fill="black" stroke="black" points="100.386,-25.5289 109.639,-20.3672 99.187,-18.6324 100.386,-25.5289"/>
</g>
<!-- module~type_integrand&#45;&gt;module~foodie_integrator_low_storage_runge_kutta -->
<g id="edge6" class="edge"><title>module~type_integrand&#45;&gt;module~foodie_integrator_low_storage_runge_kutta</title>
<path fill="none" stroke="black" stroke-dasharray="5,2" d="M194.191,-17.4884C202.057,-18.3252 210.626,-19.2368 219.541,-20.1852"/>
<polygon fill="black" stroke="black" points="219.421,-23.6921 229.735,-21.2697 220.161,-16.7313 219.421,-23.6921"/>
</g>
</g>
</svg>
