<?xml version="1.0" encoding="UTF-8" standalone="no"?>
<!DOCTYPE svg PUBLIC "-//W3C//DTD SVG 1.1//EN"
 "http://www.w3.org/Graphics/SVG/1.1/DTD/svg11.dtd">
<!-- Generated by graphviz version 2.38.0 (20140413.2041)
 -->
<!-- Title: module~~graph~~ModuleGraph Pages: 1 -->
<svg width="855pt" height="412pt"
 viewBox="0.00 0.00 855.00 411.60" xmlns="http://www.w3.org/2000/svg" xmlns:xlink="http://www.w3.org/1999/xlink">
<g id="graph0" class="graph" transform="scale(0.967195 0.967195) rotate(0) translate(4 421.566)">
<title>module~~graph~~ModuleGraph</title>
<polygon fill="white" stroke="none" points="-4,4 -4,-421.566 880,-421.566 880,4 -4,4"/>
<!-- module~foodie_integrator_tvd_runge_kutta -->
<g id="node1" class="node"><title>module~foodie_integrator_tvd_runge_kutta</title>
<g id="a_node1"><a xlink:href="../module/foodie_integrator_tvd_runge_kutta.html" xlink:title="foodie_integrator_tvd_runge_kutta">
<polygon fill="#337ab7" stroke="#337ab7" points="409,-183.228 232,-183.228 232,-159.228 409,-159.228 409,-183.228"/>
<text text-anchor="middle" x="320.5" y="-168.828" font-family="Helvetica,sans-Serif" font-size="10.50" fill="white">foodie_integrator_tvd_runge_kutta</text>
</a>
</g>
</g>
<!-- module~foodie -->
<g id="node6" class="node"><title>module~foodie</title>
<g id="a_node6"><a xlink:href="../module/foodie.html" xlink:title="foodie">
<polygon fill="#337ab7" stroke="#337ab7" points="502,-203.228 448,-203.228 448,-179.228 502,-179.228 502,-203.228"/>
<text text-anchor="middle" x="475" y="-188.828" font-family="Helvetica,sans-Serif" font-size="10.50" fill="white">foodie</text>
</a>
</g>
</g>
<!-- module~foodie_integrator_tvd_runge_kutta&#45;&gt;module~foodie -->
<g id="edge11" class="edge"><title>module~foodie_integrator_tvd_runge_kutta&#45;&gt;module~foodie</title>
<path fill="none" stroke="black" stroke-dasharray="5,2" d="M409.326,-182.746C419.305,-184.055 429.014,-185.328 437.746,-186.473"/>
<polygon fill="black" stroke="black" points="437.495,-189.97 447.866,-187.8 438.406,-183.03 437.495,-189.97"/>
</g>
<!-- module~foodie_integrator_euler_explicit -->
<g id="node2" class="node"><title>module~foodie_integrator_euler_explicit</title>
<g id="a_node2"><a xlink:href="../module/foodie_integrator_euler_explicit.html" xlink:title="foodie_integrator_euler_explicit">
<polygon fill="#337ab7" stroke="#337ab7" points="401.5,-141.228 239.5,-141.228 239.5,-117.228 401.5,-117.228 401.5,-141.228"/>
<text text-anchor="middle" x="320.5" y="-126.828" font-family="Helvetica,sans-Serif" font-size="10.50" fill="white">foodie_integrator_euler_explicit</text>
</a>
</g>
</g>
<!-- module~foodie_integrator_euler_explicit&#45;&gt;module~foodie -->
<g id="edge13" class="edge"><title>module~foodie_integrator_euler_explicit&#45;&gt;module~foodie</title>
<path fill="none" stroke="black" stroke-dasharray="5,2" d="M386.191,-141.255C395.026,-143.755 403.851,-146.723 412,-150.228 425.657,-156.101 439.578,-164.991 450.76,-172.994"/>
<polygon fill="black" stroke="black" points="448.961,-176.016 459.083,-179.146 453.122,-170.387 448.961,-176.016"/>
</g>
<!-- module~type_integrand -->
<g id="node3" class="node"><title>module~type_integrand</title>
<g id="a_node3"><a xlink:href="../module/type_integrand.html" xlink:title="type_integrand">
<polygon fill="#337ab7" stroke="#337ab7" points="193,-203.228 109,-203.228 109,-179.228 193,-179.228 193,-203.228"/>
<text text-anchor="middle" x="151" y="-188.828" font-family="Helvetica,sans-Serif" font-size="10.50" fill="white">type_integrand</text>
</a>
</g>
</g>
<!-- module~type_integrand&#45;&gt;module~foodie_integrator_tvd_runge_kutta -->
<g id="edge2" class="edge"><title>module~type_integrand&#45;&gt;module~foodie_integrator_tvd_runge_kutta</title>
<path fill="none" stroke="black" stroke-dasharray="5,2" d="M193.405,-186.284C202.196,-185.234 211.833,-184.084 221.738,-182.901"/>
<polygon fill="black" stroke="black" points="222.198,-186.371 231.713,-181.71 221.368,-179.42 222.198,-186.371"/>
</g>
<!-- module~type_integrand&#45;&gt;module~foodie_integrator_euler_explicit -->
<g id="edge4" class="edge"><title>module~type_integrand&#45;&gt;module~foodie_integrator_euler_explicit</title>
<path fill="none" stroke="black" stroke-dasharray="5,2" d="M171.277,-179.135C186.465,-170.066 208.437,-157.936 229,-150.228 234.947,-147.999 241.205,-145.958 247.539,-144.102"/>
<polygon fill="black" stroke="black" points="248.818,-147.379 257.519,-141.334 246.948,-140.634 248.818,-147.379"/>
</g>
<!-- module~type_integrand&#45;&gt;module~foodie -->
<g id="edge12" class="edge"><title>module~type_integrand&#45;&gt;module~foodie</title>
<path fill="none" stroke="black" stroke-dasharray="5,2" d="M193.159,-191.861C204.75,-192.013 217.369,-192.152 229,-192.228 310.332,-192.756 330.669,-192.884 412,-192.228 420.25,-192.161 429.118,-192.045 437.493,-191.915"/>
<polygon fill="black" stroke="black" points="437.815,-195.41 447.755,-191.745 437.699,-188.411 437.815,-195.41"/>
</g>
<!-- module~foodie_integrator_adams_bashforth -->
<g id="node7" class="node"><title>module~foodie_integrator_adams_bashforth</title>
<g id="a_node7"><a xlink:href="../module/foodie_integrator_adams_bashforth.html" xlink:title="foodie_integrator_adams_bashforth">
<polygon fill="#337ab7" stroke="#337ab7" points="412,-263.228 229,-263.228 229,-239.228 412,-239.228 412,-263.228"/>
<text text-anchor="middle" x="320.5" y="-248.828" font-family="Helvetica,sans-Serif" font-size="10.50" fill="white">foodie_integrator_adams_bashforth</text>
</a>
</g>
</g>
<!-- module~type_integrand&#45;&gt;module~foodie_integrator_adams_bashforth -->
<g id="edge15" class="edge"><title>module~type_integrand&#45;&gt;module~foodie_integrator_adams_bashforth</title>
<path fill="none" stroke="black" stroke-dasharray="5,2" d="M176.964,-203.285C191.864,-210.22 211.277,-218.803 229,-225.228 239.936,-229.192 251.784,-232.962 263.193,-236.338"/>
<polygon fill="black" stroke="black" points="262.493,-239.779 273.072,-239.199 264.44,-233.055 262.493,-239.779"/>
</g>
<!-- module~type_lorenz -->
<g id="node4" class="node"><title>module~type_lorenz</title>
<g id="a_node4"><a xlink:href="../module/type_lorenz.html" xlink:title="type_lorenz">
<polygon fill="#337ab7" stroke="#337ab7" points="669.5,-305.228 601.5,-305.228 601.5,-281.228 669.5,-281.228 669.5,-305.228"/>
<text text-anchor="middle" x="635.5" y="-290.828" font-family="Helvetica,sans-Serif" font-size="10.50" fill="white">type_lorenz</text>
</a>
</g>
</g>
<!-- program~integrate_lorenz -->
<g id="node11" class="node"><title>program~integrate_lorenz</title>
<g id="a_node11"><a xlink:href="../program/integrate_lorenz.html" xlink:title="integrate_lorenz">
<polygon fill="#f0ad4e" stroke="#f0ad4e" points="867.5,-221.228 777.5,-221.228 777.5,-197.228 867.5,-197.228 867.5,-221.228"/>
<text text-anchor="middle" x="822.5" y="-206.828" font-family="Helvetica,sans-Serif" font-size="10.50" fill="white">integrate_lorenz</text>
</a>
</g>
</g>
<!-- module~type_lorenz&#45;&gt;program~integrate_lorenz -->
<g id="edge28" class="edge"><title>module~type_lorenz&#45;&gt;program~integrate_lorenz</title>
<path fill="none" stroke="black" stroke-dasharray="5,2" d="M669.697,-289.386C688.804,-286.356 712.929,-281.106 733,-272.228 758.198,-261.082 783.458,-242.14 800.503,-227.93"/>
<polygon fill="black" stroke="black" points="802.836,-230.541 808.175,-221.389 798.294,-225.214 802.836,-230.541"/>
</g>
<!-- module~type_burgers -->
<g id="node5" class="node"><title>module~type_burgers</title>
<g id="a_node5"><a xlink:href="../module/type_burgers.html" xlink:title="type_burgers">
<polygon fill="#337ab7" stroke="#337ab7" points="673.5,-385.228 597.5,-385.228 597.5,-361.228 673.5,-361.228 673.5,-385.228"/>
<text text-anchor="middle" x="635.5" y="-370.828" font-family="Helvetica,sans-Serif" font-size="10.50" fill="white">type_burgers</text>
</a>
</g>
</g>
<!-- program~integrate_burgers -->
<g id="node12" class="node"><title>program~integrate_burgers</title>
<g id="a_node12"><a xlink:href="../program/integrate_burgers.html" xlink:title="integrate_burgers">
<polygon fill="#f0ad4e" stroke="#f0ad4e" points="871,-345.228 774,-345.228 774,-321.228 871,-321.228 871,-345.228"/>
<text text-anchor="middle" x="822.5" y="-330.828" font-family="Helvetica,sans-Serif" font-size="10.50" fill="white">integrate_burgers</text>
</a>
</g>
</g>
<!-- module~type_burgers&#45;&gt;program~integrate_burgers -->
<g id="edge34" class="edge"><title>module~type_burgers&#45;&gt;program~integrate_burgers</title>
<path fill="none" stroke="black" stroke-dasharray="5,2" d="M673.938,-365.133C699.721,-359.558 734.479,-352.043 763.785,-345.707"/>
<polygon fill="black" stroke="black" points="764.865,-349.054 773.899,-343.52 763.385,-342.212 764.865,-349.054"/>
</g>
<!-- module~foodie&#45;&gt;module~type_lorenz -->
<g id="edge7" class="edge"><title>module~foodie&#45;&gt;module~type_lorenz</title>
<path fill="none" stroke="black" stroke-dasharray="5,2" d="M481.727,-203.288C490.934,-221.297 510.794,-254.947 538,-272.228 553.728,-282.218 573.492,-287.51 591.032,-290.294"/>
<polygon fill="black" stroke="black" points="590.673,-293.777 601.054,-291.659 591.618,-286.841 590.673,-293.777"/>
</g>
<!-- module~foodie&#45;&gt;module~type_burgers -->
<g id="edge9" class="edge"><title>module~foodie&#45;&gt;module~type_burgers</title>
<path fill="none" stroke="black" stroke-dasharray="5,2" d="M477.192,-203.458C480.725,-232.838 493.829,-307.87 538,-347.228 551.536,-359.289 570.1,-365.836 587.331,-369.361"/>
<polygon fill="black" stroke="black" points="586.82,-372.824 597.275,-371.105 588.03,-365.93 586.82,-372.824"/>
</g>
<!-- module~type_euler_1d -->
<g id="node8" class="node"><title>module~type_euler_1d</title>
<g id="a_node8"><a xlink:href="../module/type_euler_1d.html" xlink:title="type_euler_1D">
<polygon fill="#337ab7" stroke="#337ab7" points="676.5,-141.228 594.5,-141.228 594.5,-117.228 676.5,-117.228 676.5,-141.228"/>
<text text-anchor="middle" x="635.5" y="-126.828" font-family="Helvetica,sans-Serif" font-size="10.50" fill="white">type_euler_1D</text>
</a>
</g>
</g>
<!-- module~foodie&#45;&gt;module~type_euler_1d -->
<g id="edge17" class="edge"><title>module~foodie&#45;&gt;module~type_euler_1d</title>
<path fill="none" stroke="black" stroke-dasharray="5,2" d="M493.797,-179.203C505.852,-171.489 522.373,-161.736 538,-155.228 552.716,-149.099 569.298,-144.021 584.512,-140.028"/>
<polygon fill="black" stroke="black" points="585.44,-143.403 594.279,-137.561 583.726,-136.617 585.44,-143.403"/>
</g>
<!-- module~type_oscillation -->
<g id="node9" class="node"><title>module~type_oscillation</title>
<g id="a_node9"><a xlink:href="../module/type_oscillation.html" xlink:title="type_oscillation">
<polygon fill="#337ab7" stroke="#337ab7" points="678,-61.2278 593,-61.2278 593,-37.2278 678,-37.2278 678,-61.2278"/>
<text text-anchor="middle" x="635.5" y="-46.8278" font-family="Helvetica,sans-Serif" font-size="10.50" fill="white">type_oscillation</text>
</a>
</g>
</g>
<!-- module~foodie&#45;&gt;module~type_oscillation -->
<g id="edge19" class="edge"><title>module~foodie&#45;&gt;module~type_oscillation</title>
<path fill="none" stroke="black" stroke-dasharray="5,2" d="M482.994,-179.103C493.372,-161.852 514.203,-129.913 538,-108.228 556.544,-91.3293 580.615,-76.6023 600.077,-66.0885"/>
<polygon fill="black" stroke="black" points="601.722,-69.1777 608.936,-61.4184 598.458,-62.9854 601.722,-69.1777"/>
</g>
<!-- program~integrate_oscillation -->
<g id="node10" class="node"><title>program~integrate_oscillation</title>
<g id="a_node10"><a xlink:href="../program/integrate_oscillation.html" xlink:title="integrate_oscillation">
<polygon fill="#f0ad4e" stroke="#f0ad4e" points="876,-179.228 769,-179.228 769,-155.228 876,-155.228 876,-179.228"/>
<text text-anchor="middle" x="822.5" y="-164.828" font-family="Helvetica,sans-Serif" font-size="10.50" fill="white">integrate_oscillation</text>
</a>
</g>
</g>
<!-- module~foodie&#45;&gt;program~integrate_oscillation -->
<g id="edge22" class="edge"><title>module~foodie&#45;&gt;program~integrate_oscillation</title>
<path fill="none" stroke="black" stroke-dasharray="5,2" d="M502.21,-185.617C533.518,-179.373 587.557,-170.049 634.5,-169.228"/>
<path fill="none" stroke="black" stroke-dasharray="5,2" d="M636.5,-169.228C677.129,-168.517 722.782,-168.021 758.571,-167.7"/>
<polygon fill="black" stroke="black" points="758.898,-171.197 768.867,-167.61 758.837,-164.198 758.898,-171.197"/>
</g>
<!-- module~foodie&#45;&gt;program~integrate_lorenz -->
<g id="edge27" class="edge"><title>module~foodie&#45;&gt;program~integrate_lorenz</title>
<path fill="none" stroke="black" stroke-dasharray="5,2" d="M636.5,-169.228C685.902,-168.364 741.094,-182.314 778.231,-193.975"/>
<polygon fill="black" stroke="black" points="777.615,-197.453 788.207,-197.188 779.762,-190.791 777.615,-197.453"/>
</g>
<!-- module~foodie&#45;&gt;program~integrate_burgers -->
<g id="edge31" class="edge"><title>module~foodie&#45;&gt;program~integrate_burgers</title>
<path fill="none" stroke="black" stroke-dasharray="5,2" d="M478.028,-203.279C483.029,-228.794 498.535,-288.065 538,-314.228 605.378,-358.895 702.667,-354.161 763.961,-344.97"/>
<polygon fill="black" stroke="black" points="764.524,-348.425 773.852,-343.401 763.427,-341.511 764.524,-348.425"/>
</g>
<!-- module~foodie_integrator_adams_bashforth&#45;&gt;module~foodie -->
<g id="edge10" class="edge"><title>module~foodie_integrator_adams_bashforth&#45;&gt;module~foodie</title>
<path fill="none" stroke="black" stroke-dasharray="5,2" d="M371.025,-239.142C384.522,-235.273 399.001,-230.582 412,-225.228 423.501,-220.491 435.61,-214.178 446.044,-208.278"/>
<polygon fill="black" stroke="black" points="447.827,-211.291 454.726,-203.25 444.318,-205.233 447.827,-211.291"/>
</g>
<!-- module~type_oscillation&#45;&gt;program~integrate_oscillation -->
<g id="edge23" class="edge"><title>module~type_oscillation&#45;&gt;program~integrate_oscillation</title>
<path fill="none" stroke="black" stroke-dasharray="5,2" d="M678.35,-55.3681C696.078,-59.2354 716.422,-65.4253 733,-75.2278 764.048,-93.586 791.388,-125.786 807.186,-146.808"/>
<polygon fill="black" stroke="black" points="804.496,-149.058 813.227,-155.06 810.144,-144.923 804.496,-149.058"/>
</g>
<!-- IR_Precision -->
<g id="node13" class="node"><title>IR_Precision</title>
<polygon fill="#337ab7" stroke="#337ab7" points="73,-203.228 0,-203.228 0,-179.228 73,-179.228 73,-203.228"/>
<text text-anchor="middle" x="36.5" y="-188.828" font-family="Helvetica,sans-Serif" font-size="10.50" fill="white">IR_Precision</text>
</g>
<!-- IR_Precision&#45;&gt;module~foodie_integrator_tvd_runge_kutta -->
<g id="edge1" class="edge"><title>IR_Precision&#45;&gt;module~foodie_integrator_tvd_runge_kutta</title>
<path fill="none" stroke="black" stroke-dasharray="5,2" d="M152,-129.228C186.403,-120.583 194.606,-141.55 229,-150.228 237.729,-152.43 246.953,-154.67 256.042,-156.827"/>
<polygon fill="black" stroke="black" points="255.285,-160.244 265.821,-159.129 256.889,-153.431 255.285,-160.244"/>
</g>
<!-- IR_Precision&#45;&gt;module~foodie_integrator_euler_explicit -->
<g id="edge3" class="edge"><title>IR_Precision&#45;&gt;module~foodie_integrator_euler_explicit</title>
<path fill="none" stroke="black" stroke-dasharray="5,2" d="M152,-129.228C176.54,-123.062 203.749,-121.087 228.977,-121.167"/>
<polygon fill="black" stroke="black" points="229.232,-124.671 239.28,-121.312 229.33,-117.672 229.232,-124.671"/>
</g>
<!-- IR_Precision&#45;&gt;module~type_integrand -->
<g id="edge5" class="edge"><title>IR_Precision&#45;&gt;module~type_integrand</title>
<path fill="none" stroke="black" stroke-dasharray="5,2" d="M73.0957,-191.228C81.2389,-191.228 90.0527,-191.228 98.7087,-191.228"/>
<polygon fill="black" stroke="black" points="98.748,-194.728 108.748,-191.228 98.7479,-187.728 98.748,-194.728"/>
</g>
<!-- IR_Precision&#45;&gt;module~type_lorenz -->
<g id="edge6" class="edge"><title>IR_Precision&#45;&gt;module~type_lorenz</title>
<path fill="none" stroke="black" stroke-dasharray="5,2" d="M152,-393.228C287.425,-439.497 331.638,-407.855 474,-393.228"/>
<path fill="none" stroke="black" stroke-dasharray="5,2" d="M476,-393.228C508.645,-388.161 510.125,-369.958 538,-352.228 560.457,-337.944 586.184,-322.247 605.424,-310.637"/>
<polygon fill="black" stroke="black" points="607.276,-313.607 614.038,-305.45 603.665,-307.61 607.276,-313.607"/>
</g>
<!-- IR_Precision&#45;&gt;module~type_burgers -->
<g id="edge8" class="edge"><title>IR_Precision&#45;&gt;module~type_burgers</title>
<path fill="none" stroke="black" stroke-dasharray="5,2" d="M476,-393.228C513.182,-387.457 555.468,-382.186 587.006,-378.505"/>
<polygon fill="black" stroke="black" points="587.735,-381.944 597.267,-377.32 586.931,-374.991 587.735,-381.944"/>
</g>
<!-- IR_Precision&#45;&gt;module~foodie_integrator_adams_bashforth -->
<g id="edge14" class="edge"><title>IR_Precision&#45;&gt;module~foodie_integrator_adams_bashforth</title>
<path fill="none" stroke="black" stroke-dasharray="5,2" d="M38.9871,-203.237C44.6011,-242.386 68.5209,-365.39 150,-393.228"/>
<path fill="none" stroke="black" stroke-dasharray="5,2" d="M152,-393.228C224.093,-417.859 285.7,-317.507 309.261,-272.289"/>
<polygon fill="black" stroke="black" points="312.42,-273.799 313.822,-263.297 306.177,-270.632 312.42,-273.799"/>
</g>
<!-- IR_Precision&#45;&gt;module~type_euler_1d -->
<g id="edge16" class="edge"><title>IR_Precision&#45;&gt;module~type_euler_1d</title>
<path fill="none" stroke="black" stroke-dasharray="5,2" d="M476,-89.2278C481.58,-88.8815 540.347,-104.118 584.708,-115.884"/>
<polygon fill="black" stroke="black" points="583.933,-119.3 594.497,-118.486 585.731,-112.534 583.933,-119.3"/>
</g>
<!-- IR_Precision&#45;&gt;module~type_oscillation -->
<g id="edge18" class="edge"><title>IR_Precision&#45;&gt;module~type_oscillation</title>
<path fill="none" stroke="black" stroke-dasharray="5,2" d="M476,-89.2278C486.784,-88.5584 540.829,-74.5299 582.848,-63.2734"/>
<polygon fill="black" stroke="black" points="583.944,-66.603 592.694,-60.6279 582.128,-59.8428 583.944,-66.603"/>
</g>
<!-- IR_Precision&#45;&gt;program~integrate_oscillation -->
<g id="edge20" class="edge"><title>IR_Precision&#45;&gt;program~integrate_oscillation</title>
<path fill="none" stroke="black" stroke-dasharray="5,2" d="M53.1494,-179.13C73.9187,-163.928 112.366,-138.684 150,-129.228"/>
<path fill="none" stroke="black" stroke-dasharray="5,2" d="M152,-129.228C186.403,-120.583 194.05,-114.293 229,-108.228 336.608,-89.5541 364.989,-95.9097 474,-89.2278"/>
<path fill="none" stroke="black" stroke-dasharray="5,2" d="M476,-89.2278C514.463,-85.3695 502.226,-42.8757 538,-28.2278 618.204,4.61236 657.023,13.4682 733,-28.2278 778.516,-53.2065 803.975,-112.627 814.939,-145.102"/>
<polygon fill="black" stroke="black" points="811.725,-146.54 818.11,-154.994 818.391,-144.403 811.725,-146.54"/>
</g>
<!-- IR_Precision&#45;&gt;program~integrate_lorenz -->
<g id="edge25" class="edge"><title>IR_Precision&#45;&gt;program~integrate_lorenz</title>
<path fill="none" stroke="black" stroke-dasharray="5,2" d="M476,-89.2278C590.314,-82.1329 639.18,-42.5335 733,-108.228 764.938,-130.591 740.853,-161.248 769,-188.228 770.267,-189.442 771.613,-190.589 773.02,-191.672"/>
<polygon fill="black" stroke="black" points="771.333,-194.748 781.639,-197.204 775.114,-188.857 771.333,-194.748"/>
</g>
<!-- IR_Precision&#45;&gt;program~integrate_burgers -->
<g id="edge30" class="edge"><title>IR_Precision&#45;&gt;program~integrate_burgers</title>
<path fill="none" stroke="black" stroke-dasharray="5,2" d="M476,-393.228C503.233,-389.001 510.442,-394.006 538,-394.228 624.664,-394.927 650.249,-419.984 733,-394.228 759.49,-385.983 785.06,-366.741 801.845,-352.056"/>
<polygon fill="black" stroke="black" points="804.27,-354.582 809.344,-345.281 799.578,-349.387 804.27,-354.582"/>
</g>
<!-- pyplot_module -->
<g id="node14" class="node"><title>pyplot_module</title>
<polygon fill="#337ab7" stroke="#337ab7" points="676.5,-263.228 594.5,-263.228 594.5,-239.228 676.5,-239.228 676.5,-263.228"/>
<text text-anchor="middle" x="635.5" y="-248.828" font-family="Helvetica,sans-Serif" font-size="10.50" fill="white">pyplot_module</text>
</g>
<!-- pyplot_module&#45;&gt;program~integrate_oscillation -->
<g id="edge21" class="edge"><title>pyplot_module&#45;&gt;program~integrate_oscillation</title>
<path fill="none" stroke="black" stroke-dasharray="5,2" d="M676.668,-248.332C694.877,-245.599 716.07,-240.335 733,-230.228 754.11,-217.625 749.01,-202.54 769,-188.228 771.095,-186.728 773.313,-185.314 775.606,-183.986"/>
<polygon fill="black" stroke="black" points="777.443,-186.977 784.722,-179.278 774.231,-180.757 777.443,-186.977"/>
</g>
<!-- pyplot_module&#45;&gt;program~integrate_lorenz -->
<g id="edge26" class="edge"><title>pyplot_module&#45;&gt;program~integrate_lorenz</title>
<path fill="none" stroke="black" stroke-dasharray="5,2" d="M676.916,-242.609C694.206,-238.876 714.609,-234.41 733,-230.228 744.195,-227.682 756.169,-224.888 767.577,-222.193"/>
<polygon fill="black" stroke="black" points="768.5,-225.571 777.422,-219.858 766.885,-218.76 768.5,-225.571"/>
</g>
<!-- pyplot_module&#45;&gt;program~integrate_burgers -->
<g id="edge33" class="edge"><title>pyplot_module&#45;&gt;program~integrate_burgers</title>
<path fill="none" stroke="black" stroke-dasharray="5,2" d="M676.552,-256.354C694.337,-259.53 715.223,-264.525 733,-272.228 757.642,-282.905 782.547,-300.855 799.631,-314.527"/>
<polygon fill="black" stroke="black" points="797.856,-317.597 807.81,-321.225 802.291,-312.181 797.856,-317.597"/>
</g>
<!-- Data_Type_Command_Line_Interface -->
<g id="node15" class="node"><title>Data_Type_Command_Line_Interface</title>
<polygon fill="#337ab7" stroke="#337ab7" points="733,-221.228 538,-221.228 538,-197.228 733,-197.228 733,-221.228"/>
<text text-anchor="middle" x="635.5" y="-206.828" font-family="Helvetica,sans-Serif" font-size="10.50" fill="white">Data_Type_Command_Line_Interface</text>
</g>
<!-- Data_Type_Command_Line_Interface&#45;&gt;program~integrate_oscillation -->
<g id="edge24" class="edge"><title>Data_Type_Command_Line_Interface&#45;&gt;program~integrate_oscillation</title>
<path fill="none" stroke="black" stroke-dasharray="5,2" d="M689.514,-197.192C711.184,-192.272 736.415,-186.544 758.978,-181.422"/>
<polygon fill="black" stroke="black" points="759.822,-184.82 768.799,-179.192 758.272,-177.993 759.822,-184.82"/>
</g>
<!-- Data_Type_Command_Line_Interface&#45;&gt;program~integrate_lorenz -->
<g id="edge29" class="edge"><title>Data_Type_Command_Line_Interface&#45;&gt;program~integrate_lorenz</title>
<path fill="none" stroke="black" stroke-dasharray="5,2" d="M733.064,-209.228C744.749,-209.228 756.347,-209.228 767.111,-209.228"/>
<polygon fill="black" stroke="black" points="767.151,-212.728 777.151,-209.228 767.151,-205.728 767.151,-212.728"/>
</g>
<!-- Data_Type_Command_Line_Interface&#45;&gt;program~integrate_burgers -->
<g id="edge32" class="edge"><title>Data_Type_Command_Line_Interface&#45;&gt;program~integrate_burgers</title>
<path fill="none" stroke="black" stroke-dasharray="5,2" d="M714.087,-221.349C720.703,-223.788 727.109,-226.716 733,-230.228 767.145,-250.585 794.705,-288.81 809.54,-312.534"/>
<polygon fill="black" stroke="black" points="806.582,-314.405 814.761,-321.139 812.566,-310.774 806.582,-314.405"/>
</g>
</g>
</svg>
