<?xml version="1.0" encoding="UTF-8" standalone="no"?>
<!DOCTYPE svg PUBLIC "-//W3C//DTD SVG 1.1//EN"
 "http://www.w3.org/Graphics/SVG/1.1/DTD/svg11.dtd">
<!-- Generated by graphviz version 2.26.3 (20100126.1600)
 -->
<!-- Title: module~~foodie_integrator_tvd_runge_kutta~~UsesGraph Pages: 1 -->
<svg width="416pt" height="54pt"
 viewBox="0.00 0.00 416.00 54.00" xmlns="http://www.w3.org/2000/svg" xmlns:xlink="http://www.w3.org/1999/xlink">
<g id="graph1" class="graph" transform="scale(1 1) rotate(0) translate(4 50)">
<title>module~~foodie_integrator_tvd_runge_kutta~~UsesGraph</title>
<polygon fill="white" stroke="white" points="-4,5 -4,-50 413,-50 413,5 -4,5"/>
<!-- module~foodie_integrator_tvd_runge_kutta -->
<g id="node1" class="node"><title>module~foodie_integrator_tvd_runge_kutta</title>
<polygon fill="none" stroke="black" points="407,-46 231,-46 231,-20 407,-20 407,-46"/>
<text text-anchor="middle" x="319" y="-30.55" font-family="Helvetica,sans-Serif" font-size="10.50">foodie_integrator_tvd_runge_kutta</text>
</g>
<!-- module~type_integrand -->
<g id="node2" class="node"><title>module~type_integrand</title>
<a xlink:href="../module/type_integrand.html" xlink:title="type_integrand">
<polygon fill="#337ab7" stroke="#337ab7" points="194,-26 110,-26 110,-1.24345e-14 194,-3.55271e-15 194,-26"/>
<text text-anchor="middle" x="152" y="-10.55" font-family="Helvetica,sans-Serif" font-size="10.50" fill="white">type_integrand</text>
</a>
</g>
<!-- module~type_integrand&#45;&gt;module~foodie_integrator_tvd_runge_kutta -->
<g id="edge4" class="edge"><title>module~type_integrand&#45;&gt;module~foodie_integrator_tvd_runge_kutta</title>
<path fill="none" stroke="black" stroke-dasharray="5,2" d="M194.141,-18.0468C202.301,-19.0241 211.167,-20.0859 220.283,-21.1776"/>
<polygon fill="black" stroke="black" points="219.906,-24.6574 230.251,-22.3714 220.738,-17.707 219.906,-24.6574"/>
</g>
<!-- IR_Precision -->
<g id="node3" class="node"><title>IR_Precision</title>
<polygon fill="#337ab7" stroke="#337ab7" points="73,-46 1,-46 1,-20 73,-20 73,-46"/>
<text text-anchor="middle" x="37" y="-30.55" font-family="Helvetica,sans-Serif" font-size="10.50" fill="white">IR_Precision</text>
</g>
<!-- IR_Precision&#45;&gt;module~foodie_integrator_tvd_runge_kutta -->
<g id="edge6" class="edge"><title>IR_Precision&#45;&gt;module~foodie_integrator_tvd_runge_kutta</title>
<path fill="none" stroke="black" stroke-dasharray="5,2" d="M73.7585,-34.2035C85.3524,-34.5304 98.2102,-34.8385 110,-35 145.913,-35.4919 185.298,-35.3044 220.103,-34.8894"/>
<polygon fill="black" stroke="black" points="220.313,-38.3871 230.268,-34.7603 220.224,-31.3877 220.313,-38.3871"/>
</g>
<!-- IR_Precision&#45;&gt;module~type_integrand -->
<g id="edge2" class="edge"><title>IR_Precision&#45;&gt;module~type_integrand</title>
<path fill="none" stroke="black" stroke-dasharray="5,2" d="M73.7029,-26.6169C81.9237,-25.1872 90.8,-23.6435 99.521,-22.1268"/>
<polygon fill="black" stroke="black" points="100.386,-25.5289 109.639,-20.3672 99.187,-18.6324 100.386,-25.5289"/>
</g>
</g>
</svg>
