<?xml version="1.0" encoding="UTF-8" standalone="no"?>
<!DOCTYPE svg PUBLIC "-//W3C//DTD SVG 1.1//EN"
 "http://www.w3.org/Graphics/SVG/1.1/DTD/svg11.dtd">
<!-- Generated by graphviz version 2.26.3 (20100126.1600)
 -->
<!-- Title: module~~foodie_integrator_adams_bashforth~~UsedByGraph Pages: 1 -->
<svg width="548pt" height="268pt"
 viewBox="0.00 0.00 548.00 267.97" xmlns="http://www.w3.org/2000/svg" xmlns:xlink="http://www.w3.org/1999/xlink">
<g id="graph1" class="graph" transform="scale(1 1) rotate(0) translate(4 263.974)">
<title>module~~foodie_integrator_adams_bashforth~~UsedByGraph</title>
<polygon fill="white" stroke="white" points="-4,5 -4,-263.974 545,-263.974 545,5 -4,5"/>
<!-- module~foodie_integrator_adams_bashforth -->
<g id="node1" class="node"><title>module~foodie_integrator_adams_bashforth</title>
<polygon fill="none" stroke="black" points="183,-149 1,-149 1,-123 183,-123 183,-149"/>
<text text-anchor="middle" x="92" y="-133.55" font-family="Helvetica,sans-Serif" font-size="10.50">foodie_integrator_adams_bashforth</text>
</g>
<!-- module~foodie -->
<g id="node2" class="node"><title>module~foodie</title>
<a xlink:href="../module/foodie.html" xlink:title="foodie">
<polygon fill="#337ab7" stroke="#337ab7" points="274,-149 220,-149 220,-123 274,-123 274,-149"/>
<text text-anchor="middle" x="247" y="-133.55" font-family="Helvetica,sans-Serif" font-size="10.50" fill="white">foodie</text>
</a>
</g>
<!-- module~foodie_integrator_adams_bashforth&#45;&gt;module~foodie -->
<g id="edge26" class="edge"><title>module~foodie_integrator_adams_bashforth&#45;&gt;module~foodie</title>
<path fill="none" stroke="black" stroke-dasharray="5,2" d="M183.508,-136C192.714,-136 201.647,-136 209.764,-136"/>
<polygon fill="black" stroke="black" points="209.919,-139.5 219.919,-136 209.919,-132.5 209.919,-139.5"/>
</g>
<!-- program~integrate_euler_1d -->
<g id="node3" class="node"><title>program~integrate_euler_1d</title>
<a xlink:href="../program/integrate_euler_1d.html" xlink:title="integrate_euler_1D">
<polygon fill="#f0ad4e" stroke="#f0ad4e" points="538,-254 434,-254 434,-228 538,-228 538,-254"/>
<text text-anchor="middle" x="486" y="-238.55" font-family="Helvetica,sans-Serif" font-size="10.50" fill="white">integrate_euler_1D</text>
</a>
</g>
<!-- module~foodie&#45;&gt;program~integrate_euler_1d -->
<g id="edge10" class="edge"><title>module~foodie&#45;&gt;program~integrate_euler_1d</title>
<path fill="none" stroke="black" stroke-dasharray="5,2" d="M250.209,-149.239C256.779,-173.061 274.255,-222.565 310,-243 345.403,-263.239 391.724,-261.833 427.958,-255.85"/>
<polygon fill="black" stroke="black" points="428.675,-259.277 437.893,-254.055 427.43,-252.388 428.675,-259.277"/>
</g>
<!-- module~type_lorenz -->
<g id="node4" class="node"><title>module~type_lorenz</title>
<a xlink:href="../module/type_lorenz.html" xlink:title="type_lorenz">
<polygon fill="#337ab7" stroke="#337ab7" points="387,-190 319,-190 319,-164 387,-164 387,-190"/>
<text text-anchor="middle" x="353" y="-174.55" font-family="Helvetica,sans-Serif" font-size="10.50" fill="white">type_lorenz</text>
</a>
</g>
<!-- module~foodie&#45;&gt;module~type_lorenz -->
<g id="edge12" class="edge"><title>module~foodie&#45;&gt;module~type_lorenz</title>
<path fill="none" stroke="black" stroke-dasharray="5,2" d="M274.023,-146.452C284.864,-150.646 297.632,-155.584 309.705,-160.254"/>
<polygon fill="black" stroke="black" points="308.598,-163.578 319.188,-163.922 311.124,-157.05 308.598,-163.578"/>
</g>
<!-- program~integrate_lorenz -->
<g id="node5" class="node"><title>program~integrate_lorenz</title>
<a xlink:href="../program/integrate_lorenz.html" xlink:title="integrate_lorenz">
<polygon fill="#f0ad4e" stroke="#f0ad4e" points="531,-152 441,-152 441,-126 531,-126 531,-152"/>
<text text-anchor="middle" x="486" y="-136.55" font-family="Helvetica,sans-Serif" font-size="10.50" fill="white">integrate_lorenz</text>
</a>
</g>
<!-- module~foodie&#45;&gt;program~integrate_lorenz -->
<g id="edge14" class="edge"><title>module~foodie&#45;&gt;program~integrate_lorenz</title>
<path fill="none" stroke="black" stroke-dasharray="5,2" d="M353,-136C378.386,-134.196 406.56,-134.501 430.419,-135.433"/>
<polygon fill="black" stroke="black" points="430.56,-138.943 440.704,-135.884 430.866,-131.949 430.56,-138.943"/>
</g>
<!-- program~integrate_oscillation -->
<g id="node6" class="node"><title>program~integrate_oscillation</title>
<a xlink:href="../program/integrate_oscillation.html" xlink:title="integrate_oscillation">
<polygon fill="#f0ad4e" stroke="#f0ad4e" points="539,-108 433,-108 433,-82 539,-82 539,-108"/>
<text text-anchor="middle" x="486" y="-92.55" font-family="Helvetica,sans-Serif" font-size="10.50" fill="white">integrate_oscillation</text>
</a>
</g>
<!-- module~foodie&#45;&gt;program~integrate_oscillation -->
<g id="edge16" class="edge"><title>module~foodie&#45;&gt;program~integrate_oscillation</title>
<path fill="none" stroke="black" stroke-dasharray="5,2" d="M274.049,-137.055C295.491,-137.637 326.2,-137.905 353,-136"/>
<path fill="none" stroke="black" stroke-dasharray="5,2" d="M353,-136C370.146,-134.781 409.317,-122.253 440.733,-111.362"/>
<polygon fill="black" stroke="black" points="441.918,-114.655 450.201,-108.049 439.607,-108.048 441.918,-114.655"/>
</g>
<!-- module~type_oscillation -->
<g id="node7" class="node"><title>module~type_oscillation</title>
<a xlink:href="../module/type_oscillation.html" xlink:title="type_oscillation">
<polygon fill="#337ab7" stroke="#337ab7" points="395,-108 311,-108 311,-82 395,-82 395,-108"/>
<text text-anchor="middle" x="353" y="-92.55" font-family="Helvetica,sans-Serif" font-size="10.50" fill="white">type_oscillation</text>
</a>
</g>
<!-- module~foodie&#45;&gt;module~type_oscillation -->
<g id="edge18" class="edge"><title>module~foodie&#45;&gt;module~type_oscillation</title>
<path fill="none" stroke="black" stroke-dasharray="5,2" d="M274.023,-125.548C284.864,-121.354 297.632,-116.416 309.705,-111.746"/>
<polygon fill="black" stroke="black" points="311.124,-114.95 319.188,-108.078 308.598,-108.422 311.124,-114.95"/>
</g>
<!-- program~integrate_burgers -->
<g id="node8" class="node"><title>program~integrate_burgers</title>
<a xlink:href="../program/integrate_burgers.html" xlink:title="integrate_burgers">
<polygon fill="#f0ad4e" stroke="#f0ad4e" points="534,-45 438,-45 438,-19 534,-19 534,-45"/>
<text text-anchor="middle" x="486" y="-29.55" font-family="Helvetica,sans-Serif" font-size="10.50" fill="white">integrate_burgers</text>
</a>
</g>
<!-- module~foodie&#45;&gt;program~integrate_burgers -->
<g id="edge20" class="edge"><title>module~foodie&#45;&gt;program~integrate_burgers</title>
<path fill="none" stroke="black" stroke-dasharray="5,2" d="M256.362,-123C267.49,-108.533 287.42,-85.5457 310,-73 346.069,-52.9601 391.529,-42.6897 427.212,-37.44"/>
<polygon fill="black" stroke="black" points="428.045,-40.8584 437.474,-36.0275 427.091,-33.9237 428.045,-40.8584"/>
</g>
<!-- module~type_burgers -->
<g id="node9" class="node"><title>module~type_burgers</title>
<a xlink:href="../module/type_burgers.html" xlink:title="type_burgers">
<polygon fill="#337ab7" stroke="#337ab7" points="391,-26 315,-26 315,-1.24345e-14 391,-3.55271e-15 391,-26"/>
<text text-anchor="middle" x="353" y="-10.55" font-family="Helvetica,sans-Serif" font-size="10.50" fill="white">type_burgers</text>
</a>
</g>
<!-- module~foodie&#45;&gt;module~type_burgers -->
<g id="edge22" class="edge"><title>module~foodie&#45;&gt;module~type_burgers</title>
<path fill="none" stroke="black" stroke-dasharray="5,2" d="M253.254,-122.939C263.178,-103.204 284.089,-65.3964 310,-40 312.892,-37.1655 316.131,-34.4789 319.498,-31.9784"/>
<polygon fill="black" stroke="black" points="321.726,-34.6959 328.012,-26.1677 317.779,-28.9141 321.726,-34.6959"/>
</g>
<!-- module~type_euler_1d -->
<g id="node10" class="node"><title>module~type_euler_1d</title>
<a xlink:href="../module/type_euler_1d.html" xlink:title="type_euler_1D">
<polygon fill="#337ab7" stroke="#337ab7" points="394,-234 312,-234 312,-208 394,-208 394,-234"/>
<text text-anchor="middle" x="353" y="-218.55" font-family="Helvetica,sans-Serif" font-size="10.50" fill="white">type_euler_1D</text>
</a>
</g>
<!-- module~foodie&#45;&gt;module~type_euler_1d -->
<g id="edge24" class="edge"><title>module~foodie&#45;&gt;module~type_euler_1d</title>
<path fill="none" stroke="black" stroke-dasharray="5,2" d="M257.831,-149.028C269.648,-162.679 289.615,-184.163 310,-199 311.627,-200.184 313.327,-201.34 315.072,-202.462"/>
<polygon fill="black" stroke="black" points="313.652,-205.688 324.041,-207.767 317.216,-199.663 313.652,-205.688"/>
</g>
<!-- module~type_lorenz&#45;&gt;program~integrate_lorenz -->
<g id="edge2" class="edge"><title>module~type_lorenz&#45;&gt;program~integrate_lorenz</title>
<path fill="none" stroke="black" stroke-dasharray="5,2" d="M387.251,-167.214C400.636,-163.39 416.321,-158.908 431.199,-154.657"/>
<polygon fill="black" stroke="black" points="432.174,-158.019 440.827,-151.906 430.251,-151.288 432.174,-158.019"/>
</g>
<!-- module~type_oscillation&#45;&gt;program~integrate_oscillation -->
<g id="edge4" class="edge"><title>module~type_oscillation&#45;&gt;program~integrate_oscillation</title>
<path fill="none" stroke="black" stroke-dasharray="5,2" d="M395.814,-95C404.11,-95 412.972,-95 421.781,-95"/>
<polygon fill="black" stroke="black" points="422.06,-98.5001 432.06,-95 422.06,-91.5001 422.06,-98.5001"/>
</g>
<!-- module~type_burgers&#45;&gt;program~integrate_burgers -->
<g id="edge6" class="edge"><title>module~type_burgers&#45;&gt;program~integrate_burgers</title>
<path fill="none" stroke="black" stroke-dasharray="5,2" d="M391.112,-18.4446C402.387,-20.0552 415.001,-21.8573 427.259,-23.6084"/>
<polygon fill="black" stroke="black" points="427.04,-27.1125 437.434,-25.062 428.03,-20.1829 427.04,-27.1125"/>
</g>
<!-- module~type_euler_1d&#45;&gt;program~integrate_euler_1d -->
<g id="edge8" class="edge"><title>module~type_euler_1d&#45;&gt;program~integrate_euler_1d</title>
<path fill="none" stroke="black" stroke-dasharray="5,2" d="M394.353,-227.218C403.732,-228.629 413.894,-230.157 423.922,-231.665"/>
<polygon fill="black" stroke="black" points="423.461,-235.135 433.87,-233.161 424.502,-228.213 423.461,-235.135"/>
</g>
</g>
</svg>
