<?xml version="1.0" encoding="UTF-8" standalone="no"?>
<!DOCTYPE svg PUBLIC "-//W3C//DTD SVG 1.1//EN"
 "http://www.w3.org/Graphics/SVG/1.1/DTD/svg11.dtd">
<!-- Generated by graphviz version 2.26.3 (20100126.1600)
 -->
<!-- Title: module~~type_euler_1d~~UsesGraph Pages: 1 -->
<svg width="641pt" height="318pt"
 viewBox="0.00 0.00 641.00 317.61" xmlns="http://www.w3.org/2000/svg" xmlns:xlink="http://www.w3.org/1999/xlink">
<g id="graph1" class="graph" transform="scale(0.962462 0.962462) rotate(0) translate(4 326)">
<title>module~~type_euler_1d~~UsesGraph</title>
<polygon fill="white" stroke="white" points="-4,5 -4,-326 663,-326 663,5 -4,5"/>
<!-- module~type_euler_1d -->
<g id="node1" class="node"><title>module~type_euler_1d</title>
<polygon fill="none" stroke="black" points="658,-281 576,-281 576,-255 658,-255 658,-281"/>
<text text-anchor="middle" x="617" y="-265.55" font-family="Helvetica,sans-Serif" font-size="10.50">type_euler_1D</text>
</g>
<!-- wenoof -->
<g id="node2" class="node"><title>wenoof</title>
<polygon fill="#337ab7" stroke="#337ab7" points="540,-322 486,-322 486,-296 540,-296 540,-322"/>
<text text-anchor="middle" x="513" y="-306.55" font-family="Helvetica,sans-Serif" font-size="10.50" fill="white">wenoof</text>
</g>
<!-- wenoof&#45;&gt;module~type_euler_1d -->
<g id="edge36" class="edge"><title>wenoof&#45;&gt;module~type_euler_1d</title>
<path fill="none" stroke="black" stroke-dasharray="5,2" d="M540.053,-298.335C550.492,-294.22 562.688,-289.412 574.253,-284.852"/>
<polygon fill="black" stroke="black" points="575.747,-288.025 583.766,-281.102 573.18,-281.513 575.747,-288.025"/>
</g>
<!-- IR_Precision -->
<g id="node3" class="node"><title>IR_Precision</title>
<polygon fill="#337ab7" stroke="#337ab7" points="73,-131 1,-131 1,-105 73,-105 73,-131"/>
<text text-anchor="middle" x="37" y="-115.55" font-family="Helvetica,sans-Serif" font-size="10.50" fill="white">IR_Precision</text>
</g>
<!-- IR_Precision&#45;&gt;module~type_euler_1d -->
<g id="edge38" class="edge"><title>IR_Precision&#45;&gt;module~type_euler_1d</title>
<path fill="none" stroke="black" stroke-dasharray="5,2" d="M152,-227C186.201,-238.3 194.452,-243.191 230,-249 349.044,-268.454 491.194,-269.977 565.674,-269.143"/>
<polygon fill="black" stroke="black" points="565.771,-272.643 575.724,-269.012 565.679,-265.643 565.771,-272.643"/>
</g>
<!-- module~foodie_integrator_adams_bashforth -->
<g id="node5" class="node"><title>module~foodie_integrator_adams_bashforth</title>
<a xlink:href="../module/foodie_integrator_adams_bashforth.html" xlink:title="foodie_integrator_adams_bashforth">
<polygon fill="#337ab7" stroke="#337ab7" points="431,-70 249,-70 249,-44 431,-44 431,-70"/>
<text text-anchor="middle" x="340" y="-54.55" font-family="Helvetica,sans-Serif" font-size="10.50" fill="white">foodie_integrator_adams_bashforth</text>
</a>
</g>
<!-- IR_Precision&#45;&gt;module~foodie_integrator_adams_bashforth -->
<g id="edge4" class="edge"><title>IR_Precision&#45;&gt;module~foodie_integrator_adams_bashforth</title>
<path fill="none" stroke="black" stroke-dasharray="5,2" d="M152,-57C179.198,-48.5243 209.703,-45.8281 238.099,-45.9556"/>
<polygon fill="black" stroke="black" points="238.4,-49.4609 248.455,-46.1249 238.514,-42.4618 238.4,-49.4609"/>
</g>
<!-- module~foodie_integrator_euler_explicit -->
<g id="node6" class="node"><title>module~foodie_integrator_euler_explicit</title>
<a xlink:href="../module/foodie_integrator_euler_explicit.html" xlink:title="foodie_integrator_euler_explicit">
<polygon fill="#337ab7" stroke="#337ab7" points="421,-26 259,-26 259,-1.24345e-14 421,-3.55271e-15 421,-26"/>
<text text-anchor="middle" x="340" y="-10.55" font-family="Helvetica,sans-Serif" font-size="10.50" fill="white">foodie_integrator_euler_explicit</text>
</a>
</g>
<!-- IR_Precision&#45;&gt;module~foodie_integrator_euler_explicit -->
<g id="edge8" class="edge"><title>IR_Precision&#45;&gt;module~foodie_integrator_euler_explicit</title>
<path fill="none" stroke="black" stroke-dasharray="5,2" d="M56.3661,-104.822C78.4618,-90.4969 116.183,-68.1619 152,-57"/>
<path fill="none" stroke="black" stroke-dasharray="5,2" d="M152,-57C186.388,-46.2835 194.981,-43.4272 230,-35 239.901,-32.6174 250.346,-30.2903 260.701,-28.0954"/>
<polygon fill="black" stroke="black" points="261.506,-31.503 270.58,-26.034 260.076,-24.6506 261.506,-31.503"/>
</g>
<!-- module~foodie_integrator_leapfrog -->
<g id="node7" class="node"><title>module~foodie_integrator_leapfrog</title>
<a xlink:href="../module/foodie_integrator_leapfrog.html" xlink:title="foodie_integrator_leapfrog">
<polygon fill="#337ab7" stroke="#337ab7" points="409,-240 271,-240 271,-214 409,-214 409,-240"/>
<text text-anchor="middle" x="340" y="-224.55" font-family="Helvetica,sans-Serif" font-size="10.50" fill="white">foodie_integrator_leapfrog</text>
</a>
</g>
<!-- IR_Precision&#45;&gt;module~foodie_integrator_leapfrog -->
<g id="edge12" class="edge"><title>IR_Precision&#45;&gt;module~foodie_integrator_leapfrog</title>
<path fill="none" stroke="black" stroke-dasharray="5,2" d="M152,-227C186.265,-238.321 225.999,-239.863 260.088,-237.961"/>
<polygon fill="black" stroke="black" points="260.729,-241.426 270.473,-237.268 260.262,-234.442 260.729,-241.426"/>
</g>
<!-- module~foodie_integrator_low_storage_runge_kutta -->
<g id="node8" class="node"><title>module~foodie_integrator_low_storage_runge_kutta</title>
<a xlink:href="../module/foodie_integrator_low_storage_runge_kutta.html" xlink:title="foodie_integrator_low_storage_runge_kutta">
<polygon fill="#337ab7" stroke="#337ab7" points="450,-196 230,-196 230,-170 450,-170 450,-196"/>
<text text-anchor="middle" x="340" y="-180.55" font-family="Helvetica,sans-Serif" font-size="10.50" fill="white">foodie_integrator_low_storage_runge_kutta</text>
</a>
</g>
<!-- IR_Precision&#45;&gt;module~foodie_integrator_low_storage_runge_kutta -->
<g id="edge16" class="edge"><title>IR_Precision&#45;&gt;module~foodie_integrator_low_storage_runge_kutta</title>
<path fill="none" stroke="black" stroke-dasharray="5,2" d="M152,-227C186.201,-238.3 194.981,-213.427 230,-205 239.901,-202.617 250.346,-200.29 260.701,-198.095"/>
<polygon fill="black" stroke="black" points="261.506,-201.503 270.58,-196.034 260.076,-194.651 261.506,-201.503"/>
</g>
<!-- module~foodie_integrator_tvd_runge_kutta -->
<g id="node9" class="node"><title>module~foodie_integrator_tvd_runge_kutta</title>
<a xlink:href="../module/foodie_integrator_tvd_runge_kutta.html" xlink:title="foodie_integrator_tvd_runge_kutta">
<polygon fill="#337ab7" stroke="#337ab7" points="428,-152 252,-152 252,-126 428,-126 428,-152"/>
<text text-anchor="middle" x="340" y="-136.55" font-family="Helvetica,sans-Serif" font-size="10.50" fill="white">foodie_integrator_tvd_runge_kutta</text>
</a>
</g>
<!-- IR_Precision&#45;&gt;module~foodie_integrator_tvd_runge_kutta -->
<g id="edge20" class="edge"><title>IR_Precision&#45;&gt;module~foodie_integrator_tvd_runge_kutta</title>
<path fill="none" stroke="black" stroke-dasharray="5,2" d="M45.0521,-131.137C61.4134,-156.294 101.328,-210.258 152,-227"/>
<path fill="none" stroke="black" stroke-dasharray="5,2" d="M152,-227C195.119,-241.246 189.106,-180.745 230,-161 234.321,-158.913 238.83,-157.025 243.45,-155.315"/>
<polygon fill="black" stroke="black" points="244.72,-158.58 253.064,-152.051 242.47,-151.952 244.72,-158.58"/>
</g>
<!-- module~type_integrand -->
<g id="node10" class="node"><title>module~type_integrand</title>
<a xlink:href="../module/type_integrand.html" xlink:title="type_integrand">
<polygon fill="#337ab7" stroke="#337ab7" points="194,-131 110,-131 110,-105 194,-105 194,-131"/>
<text text-anchor="middle" x="152" y="-115.55" font-family="Helvetica,sans-Serif" font-size="10.50" fill="white">type_integrand</text>
</a>
</g>
<!-- IR_Precision&#45;&gt;module~type_integrand -->
<g id="edge22" class="edge"><title>IR_Precision&#45;&gt;module~type_integrand</title>
<path fill="none" stroke="black" stroke-dasharray="5,2" d="M73.7029,-118C81.9237,-118 90.8,-118 99.521,-118"/>
<polygon fill="black" stroke="black" points="99.6389,-121.5 109.639,-118 99.6388,-114.5 99.6389,-121.5"/>
</g>
<!-- module~foodie -->
<g id="node4" class="node"><title>module~foodie</title>
<a xlink:href="../module/foodie.html" xlink:title="foodie">
<polygon fill="#337ab7" stroke="#337ab7" points="540,-152 486,-152 486,-126 540,-126 540,-152"/>
<text text-anchor="middle" x="513" y="-136.55" font-family="Helvetica,sans-Serif" font-size="10.50" fill="white">foodie</text>
</a>
</g>
<!-- module~foodie&#45;&gt;module~type_euler_1d -->
<g id="edge40" class="edge"><title>module~foodie&#45;&gt;module~type_euler_1d</title>
<path fill="none" stroke="black" stroke-dasharray="5,2" d="M523.738,-152.319C541.814,-174.741 578.457,-220.192 600.04,-246.963"/>
<polygon fill="black" stroke="black" points="597.474,-249.357 606.475,-254.945 602.924,-244.963 597.474,-249.357"/>
</g>
<!-- module~foodie_integrator_adams_bashforth&#45;&gt;module~foodie -->
<g id="edge24" class="edge"><title>module~foodie_integrator_adams_bashforth&#45;&gt;module~foodie</title>
<path fill="none" stroke="black" stroke-dasharray="5,2" d="M414.258,-70.0744C426.568,-73.6804 438.92,-78.2428 450,-84 466.699,-92.6765 482.637,-106.665 494.305,-118.363"/>
<polygon fill="black" stroke="black" points="491.861,-120.871 501.321,-125.641 496.9,-116.012 491.861,-120.871"/>
</g>
<!-- module~foodie_integrator_euler_explicit&#45;&gt;module~foodie -->
<g id="edge26" class="edge"><title>module~foodie_integrator_euler_explicit&#45;&gt;module~foodie</title>
<path fill="none" stroke="black" stroke-dasharray="5,2" d="M421.017,-21.1033C431.336,-24.4067 441.311,-28.9041 450,-35 478.428,-54.9437 496.335,-92.1989 505.503,-116.283"/>
<polygon fill="black" stroke="black" points="502.218,-117.49 508.903,-125.709 508.803,-115.115 502.218,-117.49"/>
</g>
<!-- module~foodie_integrator_leapfrog&#45;&gt;module~foodie -->
<g id="edge28" class="edge"><title>module~foodie_integrator_leapfrog&#45;&gt;module~foodie</title>
<path fill="none" stroke="black" stroke-dasharray="5,2" d="M409.751,-219.718C423.639,-216.457 437.715,-211.76 450,-205 469.606,-194.212 486.759,-175.231 498.195,-160.385"/>
<polygon fill="black" stroke="black" points="501.107,-162.335 504.244,-152.215 495.481,-158.17 501.107,-162.335"/>
</g>
<!-- module~foodie_integrator_low_storage_runge_kutta&#45;&gt;module~foodie -->
<g id="edge30" class="edge"><title>module~foodie_integrator_low_storage_runge_kutta&#45;&gt;module~foodie</title>
<path fill="none" stroke="black" stroke-dasharray="5,2" d="M412.523,-169.98C425.089,-167.302 437.976,-164.285 450,-161 458.688,-158.626 467.91,-155.666 476.539,-152.693"/>
<polygon fill="black" stroke="black" points="477.706,-155.993 485.97,-149.363 475.375,-149.392 477.706,-155.993"/>
</g>
<!-- module~foodie_integrator_tvd_runge_kutta&#45;&gt;module~foodie -->
<g id="edge32" class="edge"><title>module~foodie_integrator_tvd_runge_kutta&#45;&gt;module~foodie</title>
<path fill="none" stroke="black" stroke-dasharray="5,2" d="M428.527,-139C445.221,-139 461.815,-139 475.818,-139"/>
<polygon fill="black" stroke="black" points="475.981,-142.5 485.981,-139 475.981,-135.5 475.981,-142.5"/>
</g>
<!-- module~type_integrand&#45;&gt;module~foodie -->
<g id="edge34" class="edge"><title>module~type_integrand&#45;&gt;module~foodie</title>
<path fill="none" stroke="black" stroke-dasharray="5,2" d="M194.32,-113.353C252.43,-107.993 359.971,-101.733 450,-117 458.702,-118.476 467.805,-121.022 476.298,-123.87"/>
<polygon fill="black" stroke="black" points="475.335,-127.242 485.929,-127.307 477.687,-120.649 475.335,-127.242"/>
</g>
<!-- module~type_integrand&#45;&gt;module~foodie_integrator_adams_bashforth -->
<g id="edge2" class="edge"><title>module~type_integrand&#45;&gt;module~foodie_integrator_adams_bashforth</title>
<path fill="none" stroke="black" stroke-dasharray="5,2" d="M178.986,-104.881C193.804,-98.0246 212.646,-89.8642 230,-84 242.47,-79.7861 255.939,-75.9299 269.033,-72.5324"/>
<polygon fill="black" stroke="black" points="270.112,-75.8696 278.95,-70.0254 268.397,-69.0831 270.112,-75.8696"/>
</g>
<!-- module~type_integrand&#45;&gt;module~foodie_integrator_euler_explicit -->
<g id="edge6" class="edge"><title>module~type_integrand&#45;&gt;module~foodie_integrator_euler_explicit</title>
<path fill="none" stroke="black" stroke-dasharray="5,2" d="M164.061,-104.749C184.917,-81.8955 225.894,-37.28 230,-35 236.006,-31.6649 242.445,-28.8311 249.084,-26.424"/>
<polygon fill="black" stroke="black" points="250.517,-29.6375 258.927,-23.1936 248.334,-22.9865 250.517,-29.6375"/>
</g>
<!-- module~type_integrand&#45;&gt;module~foodie_integrator_leapfrog -->
<g id="edge10" class="edge"><title>module~type_integrand&#45;&gt;module~foodie_integrator_leapfrog</title>
<path fill="none" stroke="black" stroke-dasharray="5,2" d="M159.747,-131.018C172.039,-150.447 197.935,-186.699 230,-205 239.389,-210.359 249.878,-214.428 260.548,-217.515"/>
<polygon fill="black" stroke="black" points="259.812,-220.94 270.372,-220.082 261.582,-214.168 259.812,-220.94"/>
</g>
<!-- module~type_integrand&#45;&gt;module~foodie_integrator_low_storage_runge_kutta -->
<g id="edge14" class="edge"><title>module~type_integrand&#45;&gt;module~foodie_integrator_low_storage_runge_kutta</title>
<path fill="none" stroke="black" stroke-dasharray="5,2" d="M171.717,-131.098C187.022,-140.702 209.088,-153.352 230,-161 236.39,-163.337 243.085,-165.446 249.882,-167.345"/>
<polygon fill="black" stroke="black" points="249.329,-170.819 259.891,-169.981 251.112,-164.05 249.329,-170.819"/>
</g>
<!-- module~type_integrand&#45;&gt;module~foodie_integrator_tvd_runge_kutta -->
<g id="edge18" class="edge"><title>module~type_integrand&#45;&gt;module~foodie_integrator_tvd_runge_kutta</title>
<path fill="none" stroke="black" stroke-dasharray="5,2" d="M194.191,-122.713C208.266,-124.285 224.595,-126.109 241.126,-127.956"/>
<polygon fill="black" stroke="black" points="241.1,-131.474 251.427,-129.106 241.877,-124.518 241.1,-131.474"/>
</g>
</g>
</svg>
