<?xml version="1.0" encoding="UTF-8" standalone="no"?>
<!DOCTYPE svg PUBLIC "-//W3C//DTD SVG 1.1//EN"
 "http://www.w3.org/Graphics/SVG/1.1/DTD/svg11.dtd">
<!-- Generated by graphviz version 2.26.3 (20100126.1600)
 -->
<!-- Title: module~~foodie~~UsesGraph Pages: 1 -->
<svg width="548pt" height="248pt"
 viewBox="0.00 0.00 548.00 248.00" xmlns="http://www.w3.org/2000/svg" xmlns:xlink="http://www.w3.org/1999/xlink">
<g id="graph1" class="graph" transform="scale(1 1) rotate(0) translate(4 244)">
<title>module~~foodie~~UsesGraph</title>
<polygon fill="white" stroke="white" points="-4,5 -4,-244 545,-244 545,5 -4,5"/>
<!-- module~foodie -->
<g id="node1" class="node"><title>module~foodie</title>
<polygon fill="none" stroke="black" points="540,-134 486,-134 486,-108 540,-108 540,-134"/>
<text text-anchor="middle" x="513" y="-118.55" font-family="Helvetica,sans-Serif" font-size="10.50">foodie</text>
</g>
<!-- module~foodie_integrator_tvd_runge_kutta -->
<g id="node2" class="node"><title>module~foodie_integrator_tvd_runge_kutta</title>
<a xlink:href="../module/foodie_integrator_tvd_runge_kutta.html" xlink:title="foodie_integrator_tvd_runge_kutta">
<polygon fill="#337ab7" stroke="#337ab7" points="428,-240 252,-240 252,-214 428,-214 428,-240"/>
<text text-anchor="middle" x="340" y="-224.55" font-family="Helvetica,sans-Serif" font-size="10.50" fill="white">foodie_integrator_tvd_runge_kutta</text>
</a>
</g>
<!-- module~foodie_integrator_tvd_runge_kutta&#45;&gt;module~foodie -->
<g id="edge24" class="edge"><title>module~foodie_integrator_tvd_runge_kutta&#45;&gt;module~foodie</title>
<path fill="none" stroke="black" stroke-dasharray="5,2" d="M428.707,-215.314C436.193,-212.546 443.409,-209.153 450,-205 473.747,-190.034 491.72,-162.68 502.274,-143.257"/>
<polygon fill="black" stroke="black" points="505.48,-144.677 506.979,-134.189 499.266,-141.453 505.48,-144.677"/>
</g>
<!-- module~type_integrand -->
<g id="node3" class="node"><title>module~type_integrand</title>
<a xlink:href="../module/type_integrand.html" xlink:title="type_integrand">
<polygon fill="#337ab7" stroke="#337ab7" points="194,-134 110,-134 110,-108 194,-108 194,-134"/>
<text text-anchor="middle" x="152" y="-118.55" font-family="Helvetica,sans-Serif" font-size="10.50" fill="white">type_integrand</text>
</a>
</g>
<!-- module~type_integrand&#45;&gt;module~foodie -->
<g id="edge26" class="edge"><title>module~type_integrand&#45;&gt;module~foodie</title>
<path fill="none" stroke="black" stroke-dasharray="5,2" d="M194.096,-122.277C205.726,-122.576 218.351,-122.851 230,-123 327.77,-124.253 352.235,-124.551 450,-123 458.323,-122.868 467.263,-122.638 475.718,-122.379"/>
<polygon fill="black" stroke="black" points="475.835,-125.878 485.716,-122.055 475.608,-118.881 475.835,-125.878"/>
</g>
<!-- module~type_integrand&#45;&gt;module~foodie_integrator_tvd_runge_kutta -->
<g id="edge4" class="edge"><title>module~type_integrand&#45;&gt;module~foodie_integrator_tvd_runge_kutta</title>
<path fill="none" stroke="black" stroke-dasharray="5,2" d="M160.275,-134.191C172.874,-153.09 198.735,-187.516 230,-205 233.777,-207.112 237.726,-209.023 241.791,-210.753"/>
<polygon fill="black" stroke="black" points="240.865,-214.146 251.455,-214.466 243.376,-207.612 240.865,-214.146"/>
</g>
<!-- module~foodie_integrator_adams_bashforth -->
<g id="node4" class="node"><title>module~foodie_integrator_adams_bashforth</title>
<a xlink:href="../module/foodie_integrator_adams_bashforth.html" xlink:title="foodie_integrator_adams_bashforth">
<polygon fill="#337ab7" stroke="#337ab7" points="431,-196 249,-196 249,-170 431,-170 431,-196"/>
<text text-anchor="middle" x="340" y="-180.55" font-family="Helvetica,sans-Serif" font-size="10.50" fill="white">foodie_integrator_adams_bashforth</text>
</a>
</g>
<!-- module~type_integrand&#45;&gt;module~foodie_integrator_adams_bashforth -->
<g id="edge10" class="edge"><title>module~type_integrand&#45;&gt;module~foodie_integrator_adams_bashforth</title>
<path fill="none" stroke="black" stroke-dasharray="5,2" d="M177.878,-134.035C192.839,-141.208 212.175,-149.87 230,-156 242.299,-160.23 255.585,-164.076 268.528,-167.455"/>
<polygon fill="black" stroke="black" points="267.782,-170.877 278.336,-169.946 269.506,-164.092 267.782,-170.877"/>
</g>
<!-- module~foodie_integrator_euler_explicit -->
<g id="node5" class="node"><title>module~foodie_integrator_euler_explicit</title>
<a xlink:href="../module/foodie_integrator_euler_explicit.html" xlink:title="foodie_integrator_euler_explicit">
<polygon fill="#337ab7" stroke="#337ab7" points="421,-114 259,-114 259,-88 421,-88 421,-114"/>
<text text-anchor="middle" x="340" y="-98.55" font-family="Helvetica,sans-Serif" font-size="10.50" fill="white">foodie_integrator_euler_explicit</text>
</a>
</g>
<!-- module~type_integrand&#45;&gt;module~foodie_integrator_euler_explicit -->
<g id="edge14" class="edge"><title>module~type_integrand&#45;&gt;module~foodie_integrator_euler_explicit</title>
<path fill="none" stroke="black" stroke-dasharray="5,2" d="M194.191,-116.512C210.342,-114.793 229.46,-112.76 248.446,-110.74"/>
<polygon fill="black" stroke="black" points="249.077,-114.192 258.651,-109.654 248.337,-107.232 249.077,-114.192"/>
</g>
<!-- module~foodie_integrator_leapfrog -->
<g id="node6" class="node"><title>module~foodie_integrator_leapfrog</title>
<a xlink:href="../module/foodie_integrator_leapfrog.html" xlink:title="foodie_integrator_leapfrog">
<polygon fill="#337ab7" stroke="#337ab7" points="409,-70 271,-70 271,-44 409,-44 409,-70"/>
<text text-anchor="middle" x="340" y="-54.55" font-family="Helvetica,sans-Serif" font-size="10.50" fill="white">foodie_integrator_leapfrog</text>
</a>
</g>
<!-- module~type_integrand&#45;&gt;module~foodie_integrator_leapfrog -->
<g id="edge18" class="edge"><title>module~type_integrand&#45;&gt;module~foodie_integrator_leapfrog</title>
<path fill="none" stroke="black" stroke-dasharray="5,2" d="M172.403,-107.834C187.701,-98.513 209.452,-86.3998 230,-79 239.72,-75.4996 250.135,-72.5052 260.539,-69.9574"/>
<polygon fill="black" stroke="black" points="261.538,-73.3188 270.489,-67.6496 259.956,-66.4998 261.538,-73.3188"/>
</g>
<!-- module~foodie_integrator_low_storage_runge_kutta -->
<g id="node7" class="node"><title>module~foodie_integrator_low_storage_runge_kutta</title>
<a xlink:href="../module/foodie_integrator_low_storage_runge_kutta.html" xlink:title="foodie_integrator_low_storage_runge_kutta">
<polygon fill="#337ab7" stroke="#337ab7" points="450,-26 230,-26 230,-1.24345e-14 450,-3.55271e-15 450,-26"/>
<text text-anchor="middle" x="340" y="-10.55" font-family="Helvetica,sans-Serif" font-size="10.50" fill="white">foodie_integrator_low_storage_runge_kutta</text>
</a>
</g>
<!-- module~type_integrand&#45;&gt;module~foodie_integrator_low_storage_runge_kutta -->
<g id="edge22" class="edge"><title>module~type_integrand&#45;&gt;module~foodie_integrator_low_storage_runge_kutta</title>
<path fill="none" stroke="black" stroke-dasharray="5,2" d="M175.593,-107.81C181.997,-103.581 188.636,-98.541 194,-93 215.102,-71.2008 205.069,-52.2897 230,-35 232.284,-33.4159 234.656,-31.94 237.098,-30.5652"/>
<polygon fill="black" stroke="black" points="238.831,-33.6122 246.217,-26.0169 235.706,-27.3481 238.831,-33.6122"/>
</g>
<!-- module~foodie_integrator_adams_bashforth&#45;&gt;module~foodie -->
<g id="edge28" class="edge"><title>module~foodie_integrator_adams_bashforth&#45;&gt;module~foodie</title>
<path fill="none" stroke="black" stroke-dasharray="5,2" d="M405.458,-169.97C420.337,-166.176 435.905,-161.53 450,-156 461.531,-151.476 473.565,-145.216 483.989,-139.241"/>
<polygon fill="black" stroke="black" points="485.847,-142.208 492.682,-134.113 482.29,-136.179 485.847,-142.208"/>
</g>
<!-- module~foodie_integrator_euler_explicit&#45;&gt;module~foodie -->
<g id="edge30" class="edge"><title>module~foodie_integrator_euler_explicit&#45;&gt;module~foodie</title>
<path fill="none" stroke="black" stroke-dasharray="5,2" d="M421.181,-110.385C440.337,-112.6 459.842,-114.855 475.92,-116.713"/>
<polygon fill="black" stroke="black" points="475.616,-120.201 485.952,-117.873 476.42,-113.248 475.616,-120.201"/>
</g>
<!-- module~foodie_integrator_leapfrog&#45;&gt;module~foodie -->
<g id="edge32" class="edge"><title>module~foodie_integrator_leapfrog&#45;&gt;module~foodie</title>
<path fill="none" stroke="black" stroke-dasharray="5,2" d="M409.586,-66.6371C423.274,-69.7169 437.315,-73.7457 450,-79 463.839,-84.7324 477.841,-93.6833 489.118,-101.852"/>
<polygon fill="black" stroke="black" points="487.061,-104.684 497.163,-107.879 491.259,-99.0821 487.061,-104.684"/>
</g>
<!-- module~foodie_integrator_low_storage_runge_kutta&#45;&gt;module~foodie -->
<g id="edge34" class="edge"><title>module~foodie_integrator_low_storage_runge_kutta&#45;&gt;module~foodie</title>
<path fill="none" stroke="black" stroke-dasharray="5,2" d="M432.378,-26.015C438.556,-28.5227 444.5,-31.4904 450,-35 474.269,-50.4862 492.304,-78.9032 502.722,-98.8202"/>
<polygon fill="black" stroke="black" points="499.618,-100.439 507.218,-107.821 505.88,-97.3108 499.618,-100.439"/>
</g>
<!-- IR_Precision -->
<g id="node8" class="node"><title>IR_Precision</title>
<polygon fill="#337ab7" stroke="#337ab7" points="73,-134 1,-134 1,-108 73,-108 73,-134"/>
<text text-anchor="middle" x="37" y="-118.55" font-family="Helvetica,sans-Serif" font-size="10.50" fill="white">IR_Precision</text>
</g>
<!-- IR_Precision&#45;&gt;module~foodie_integrator_tvd_runge_kutta -->
<g id="edge2" class="edge"><title>IR_Precision&#45;&gt;module~foodie_integrator_tvd_runge_kutta</title>
<path fill="none" stroke="black" stroke-dasharray="5,2" d="M152,-205C180.225,-214.211 211.943,-219.66 241.174,-222.856"/>
<polygon fill="black" stroke="black" points="241.097,-226.366 251.4,-223.895 241.805,-219.402 241.097,-226.366"/>
</g>
<!-- IR_Precision&#45;&gt;module~type_integrand -->
<g id="edge6" class="edge"><title>IR_Precision&#45;&gt;module~type_integrand</title>
<path fill="none" stroke="black" stroke-dasharray="5,2" d="M73.7029,-121C81.9237,-121 90.8,-121 99.521,-121"/>
<polygon fill="black" stroke="black" points="99.6389,-124.5 109.639,-121 99.6388,-117.5 99.6389,-124.5"/>
</g>
<!-- IR_Precision&#45;&gt;module~foodie_integrator_adams_bashforth -->
<g id="edge8" class="edge"><title>IR_Precision&#45;&gt;module~foodie_integrator_adams_bashforth</title>
<path fill="none" stroke="black" stroke-dasharray="5,2" d="M49.2276,-134.172C68.704,-154.071 108.987,-190.964 152,-205"/>
<path fill="none" stroke="black" stroke-dasharray="5,2" d="M152,-205C172.94,-211.833 223.503,-205.477 266.922,-197.871"/>
<polygon fill="black" stroke="black" points="267.696,-201.288 276.92,-196.077 266.459,-194.398 267.696,-201.288"/>
</g>
<!-- IR_Precision&#45;&gt;module~foodie_integrator_euler_explicit -->
<g id="edge12" class="edge"><title>IR_Precision&#45;&gt;module~foodie_integrator_euler_explicit</title>
<path fill="none" stroke="black" stroke-dasharray="5,2" d="M152,-79C172.423,-74.1464 219.284,-79.6164 261.108,-86.3148"/>
<polygon fill="black" stroke="black" points="260.62,-89.7813 271.054,-87.9448 261.752,-82.8734 260.62,-89.7813"/>
</g>
<!-- IR_Precision&#45;&gt;module~foodie_integrator_leapfrog -->
<g id="edge16" class="edge"><title>IR_Precision&#45;&gt;module~foodie_integrator_leapfrog</title>
<path fill="none" stroke="black" stroke-dasharray="5,2" d="M152,-79C186.913,-70.7025 226.25,-65.4808 259.883,-62.2206"/>
<polygon fill="black" stroke="black" points="260.493,-65.6792 270.127,-61.2705 259.846,-58.7091 260.493,-65.6792"/>
</g>
<!-- IR_Precision&#45;&gt;module~foodie_integrator_low_storage_runge_kutta -->
<g id="edge20" class="edge"><title>IR_Precision&#45;&gt;module~foodie_integrator_low_storage_runge_kutta</title>
<path fill="none" stroke="black" stroke-dasharray="5,2" d="M66.6758,-107.981C89.5575,-98.4814 122.222,-86.077 152,-79"/>
<path fill="none" stroke="black" stroke-dasharray="5,2" d="M152,-79C190.723,-69.7971 192.687,-48.8535 230,-35 236.317,-32.6545 242.937,-30.5411 249.661,-28.64"/>
<polygon fill="black" stroke="black" points="250.801,-31.9584 259.564,-26.0041 249.001,-25.1939 250.801,-31.9584"/>
</g>
</g>
</svg>
