<?xml version="1.0" encoding="UTF-8" standalone="no"?>
<!DOCTYPE svg PUBLIC "-//W3C//DTD SVG 1.1//EN"
 "http://www.w3.org/Graphics/SVG/1.1/DTD/svg11.dtd">
<!-- Generated by graphviz version 2.26.3 (20100126.1600)
 -->
<!-- Title: module~~type_euler_1d~~UsedByGraph Pages: 1 -->
<svg width="230pt" height="34pt"
 viewBox="0.00 0.00 230.00 34.00" xmlns="http://www.w3.org/2000/svg" xmlns:xlink="http://www.w3.org/1999/xlink">
<g id="graph1" class="graph" transform="scale(1 1) rotate(0) translate(4 30)">
<title>module~~type_euler_1d~~UsedByGraph</title>
<polygon fill="white" stroke="white" points="-4,5 -4,-30 227,-30 227,5 -4,5"/>
<!-- module~type_euler_1d -->
<g id="node1" class="node"><title>module~type_euler_1d</title>
<polygon fill="none" stroke="black" points="82,-26 4.26326e-14,-26 0,-1.24345e-14 82,-3.55271e-15 82,-26"/>
<text text-anchor="middle" x="41" y="-10.55" font-family="Helvetica,sans-Serif" font-size="10.50">type_euler_1D</text>
</g>
<!-- program~integrate_euler_1d -->
<g id="node2" class="node"><title>program~integrate_euler_1d</title>
<a xlink:href="../program/integrate_euler_1d.html" xlink:title="integrate_euler_1D">
<polygon fill="#f0ad4e" stroke="#f0ad4e" points="222,-26 118,-26 118,-1.24345e-14 222,-3.55271e-15 222,-26"/>
<text text-anchor="middle" x="170" y="-10.55" font-family="Helvetica,sans-Serif" font-size="10.50" fill="white">integrate_euler_1D</text>
</a>
</g>
<!-- module~type_euler_1d&#45;&gt;program~integrate_euler_1d -->
<g id="edge2" class="edge"><title>module~type_euler_1d&#45;&gt;program~integrate_euler_1d</title>
<path fill="none" stroke="black" stroke-dasharray="5,2" d="M82.1711,-13C90.3327,-13 99.0703,-13 107.753,-13"/>
<polygon fill="black" stroke="black" points="107.884,-16.5001 117.884,-13 107.884,-9.5001 107.884,-16.5001"/>
</g>
</g>
</svg>
