<?xml version="1.0" encoding="UTF-8" standalone="no"?>
<!DOCTYPE svg PUBLIC "-//W3C//DTD SVG 1.1//EN"
 "http://www.w3.org/Graphics/SVG/1.1/DTD/svg11.dtd">
<!-- Generated by graphviz version 2.26.3 (20100126.1600)
 -->
<!-- Title: module~~foodie_integrator_tvd_runge_kutta~~UsedByGraph Pages: 1 -->
<svg width="542pt" height="268pt"
 viewBox="0.00 0.00 542.00 267.97" xmlns="http://www.w3.org/2000/svg" xmlns:xlink="http://www.w3.org/1999/xlink">
<g id="graph1" class="graph" transform="scale(1 1) rotate(0) translate(4 263.974)">
<title>module~~foodie_integrator_tvd_runge_kutta~~UsedByGraph</title>
<polygon fill="white" stroke="white" points="-4,5 -4,-263.974 539,-263.974 539,5 -4,5"/>
<!-- module~foodie_integrator_tvd_runge_kutta -->
<g id="node1" class="node"><title>module~foodie_integrator_tvd_runge_kutta</title>
<polygon fill="none" stroke="black" points="177,-149 1,-149 1,-123 177,-123 177,-149"/>
<text text-anchor="middle" x="89" y="-133.55" font-family="Helvetica,sans-Serif" font-size="10.50">foodie_integrator_tvd_runge_kutta</text>
</g>
<!-- module~foodie -->
<g id="node2" class="node"><title>module~foodie</title>
<a xlink:href="../module/foodie.html" xlink:title="foodie">
<polygon fill="#337ab7" stroke="#337ab7" points="268,-149 214,-149 214,-123 268,-123 268,-149"/>
<text text-anchor="middle" x="241" y="-133.55" font-family="Helvetica,sans-Serif" font-size="10.50" fill="white">foodie</text>
</a>
</g>
<!-- module~foodie_integrator_tvd_runge_kutta&#45;&gt;module~foodie -->
<g id="edge26" class="edge"><title>module~foodie_integrator_tvd_runge_kutta&#45;&gt;module~foodie</title>
<path fill="none" stroke="black" stroke-dasharray="5,2" d="M177.859,-136C186.893,-136 195.678,-136 203.682,-136"/>
<polygon fill="black" stroke="black" points="203.71,-139.5 213.71,-136 203.71,-132.5 203.71,-139.5"/>
</g>
<!-- program~integrate_euler_1d -->
<g id="node3" class="node"><title>program~integrate_euler_1d</title>
<a xlink:href="../program/integrate_euler_1d.html" xlink:title="integrate_euler_1D">
<polygon fill="#f0ad4e" stroke="#f0ad4e" points="532,-254 428,-254 428,-228 532,-228 532,-254"/>
<text text-anchor="middle" x="480" y="-238.55" font-family="Helvetica,sans-Serif" font-size="10.50" fill="white">integrate_euler_1D</text>
</a>
</g>
<!-- module~foodie&#45;&gt;program~integrate_euler_1d -->
<g id="edge10" class="edge"><title>module~foodie&#45;&gt;program~integrate_euler_1d</title>
<path fill="none" stroke="black" stroke-dasharray="5,2" d="M244.209,-149.239C250.779,-173.061 268.255,-222.565 304,-243 339.403,-263.239 385.724,-261.833 421.958,-255.85"/>
<polygon fill="black" stroke="black" points="422.675,-259.277 431.893,-254.055 421.43,-252.388 422.675,-259.277"/>
</g>
<!-- module~type_lorenz -->
<g id="node4" class="node"><title>module~type_lorenz</title>
<a xlink:href="../module/type_lorenz.html" xlink:title="type_lorenz">
<polygon fill="#337ab7" stroke="#337ab7" points="381,-190 313,-190 313,-164 381,-164 381,-190"/>
<text text-anchor="middle" x="347" y="-174.55" font-family="Helvetica,sans-Serif" font-size="10.50" fill="white">type_lorenz</text>
</a>
</g>
<!-- module~foodie&#45;&gt;module~type_lorenz -->
<g id="edge12" class="edge"><title>module~foodie&#45;&gt;module~type_lorenz</title>
<path fill="none" stroke="black" stroke-dasharray="5,2" d="M268.023,-146.452C278.864,-150.646 291.632,-155.584 303.705,-160.254"/>
<polygon fill="black" stroke="black" points="302.598,-163.578 313.188,-163.922 305.124,-157.05 302.598,-163.578"/>
</g>
<!-- program~integrate_lorenz -->
<g id="node5" class="node"><title>program~integrate_lorenz</title>
<a xlink:href="../program/integrate_lorenz.html" xlink:title="integrate_lorenz">
<polygon fill="#f0ad4e" stroke="#f0ad4e" points="525,-152 435,-152 435,-126 525,-126 525,-152"/>
<text text-anchor="middle" x="480" y="-136.55" font-family="Helvetica,sans-Serif" font-size="10.50" fill="white">integrate_lorenz</text>
</a>
</g>
<!-- module~foodie&#45;&gt;program~integrate_lorenz -->
<g id="edge14" class="edge"><title>module~foodie&#45;&gt;program~integrate_lorenz</title>
<path fill="none" stroke="black" stroke-dasharray="5,2" d="M347,-136C372.386,-134.196 400.56,-134.501 424.419,-135.433"/>
<polygon fill="black" stroke="black" points="424.56,-138.943 434.704,-135.884 424.866,-131.949 424.56,-138.943"/>
</g>
<!-- program~integrate_oscillation -->
<g id="node6" class="node"><title>program~integrate_oscillation</title>
<a xlink:href="../program/integrate_oscillation.html" xlink:title="integrate_oscillation">
<polygon fill="#f0ad4e" stroke="#f0ad4e" points="533,-108 427,-108 427,-82 533,-82 533,-108"/>
<text text-anchor="middle" x="480" y="-92.55" font-family="Helvetica,sans-Serif" font-size="10.50" fill="white">integrate_oscillation</text>
</a>
</g>
<!-- module~foodie&#45;&gt;program~integrate_oscillation -->
<g id="edge16" class="edge"><title>module~foodie&#45;&gt;program~integrate_oscillation</title>
<path fill="none" stroke="black" stroke-dasharray="5,2" d="M268.049,-137.055C289.491,-137.637 320.2,-137.905 347,-136"/>
<path fill="none" stroke="black" stroke-dasharray="5,2" d="M347,-136C364.146,-134.781 403.317,-122.253 434.733,-111.362"/>
<polygon fill="black" stroke="black" points="435.918,-114.655 444.201,-108.049 433.607,-108.048 435.918,-114.655"/>
</g>
<!-- module~type_oscillation -->
<g id="node7" class="node"><title>module~type_oscillation</title>
<a xlink:href="../module/type_oscillation.html" xlink:title="type_oscillation">
<polygon fill="#337ab7" stroke="#337ab7" points="389,-108 305,-108 305,-82 389,-82 389,-108"/>
<text text-anchor="middle" x="347" y="-92.55" font-family="Helvetica,sans-Serif" font-size="10.50" fill="white">type_oscillation</text>
</a>
</g>
<!-- module~foodie&#45;&gt;module~type_oscillation -->
<g id="edge18" class="edge"><title>module~foodie&#45;&gt;module~type_oscillation</title>
<path fill="none" stroke="black" stroke-dasharray="5,2" d="M268.023,-125.548C278.864,-121.354 291.632,-116.416 303.705,-111.746"/>
<polygon fill="black" stroke="black" points="305.124,-114.95 313.188,-108.078 302.598,-108.422 305.124,-114.95"/>
</g>
<!-- program~integrate_burgers -->
<g id="node8" class="node"><title>program~integrate_burgers</title>
<a xlink:href="../program/integrate_burgers.html" xlink:title="integrate_burgers">
<polygon fill="#f0ad4e" stroke="#f0ad4e" points="528,-45 432,-45 432,-19 528,-19 528,-45"/>
<text text-anchor="middle" x="480" y="-29.55" font-family="Helvetica,sans-Serif" font-size="10.50" fill="white">integrate_burgers</text>
</a>
</g>
<!-- module~foodie&#45;&gt;program~integrate_burgers -->
<g id="edge20" class="edge"><title>module~foodie&#45;&gt;program~integrate_burgers</title>
<path fill="none" stroke="black" stroke-dasharray="5,2" d="M250.362,-123C261.49,-108.533 281.42,-85.5457 304,-73 340.069,-52.9601 385.529,-42.6897 421.212,-37.44"/>
<polygon fill="black" stroke="black" points="422.045,-40.8584 431.474,-36.0275 421.091,-33.9237 422.045,-40.8584"/>
</g>
<!-- module~type_burgers -->
<g id="node9" class="node"><title>module~type_burgers</title>
<a xlink:href="../module/type_burgers.html" xlink:title="type_burgers">
<polygon fill="#337ab7" stroke="#337ab7" points="385,-26 309,-26 309,-1.24345e-14 385,-3.55271e-15 385,-26"/>
<text text-anchor="middle" x="347" y="-10.55" font-family="Helvetica,sans-Serif" font-size="10.50" fill="white">type_burgers</text>
</a>
</g>
<!-- module~foodie&#45;&gt;module~type_burgers -->
<g id="edge22" class="edge"><title>module~foodie&#45;&gt;module~type_burgers</title>
<path fill="none" stroke="black" stroke-dasharray="5,2" d="M247.254,-122.939C257.178,-103.204 278.089,-65.3964 304,-40 306.892,-37.1655 310.131,-34.4789 313.498,-31.9784"/>
<polygon fill="black" stroke="black" points="315.726,-34.6959 322.012,-26.1677 311.779,-28.9141 315.726,-34.6959"/>
</g>
<!-- module~type_euler_1d -->
<g id="node10" class="node"><title>module~type_euler_1d</title>
<a xlink:href="../module/type_euler_1d.html" xlink:title="type_euler_1D">
<polygon fill="#337ab7" stroke="#337ab7" points="388,-234 306,-234 306,-208 388,-208 388,-234"/>
<text text-anchor="middle" x="347" y="-218.55" font-family="Helvetica,sans-Serif" font-size="10.50" fill="white">type_euler_1D</text>
</a>
</g>
<!-- module~foodie&#45;&gt;module~type_euler_1d -->
<g id="edge24" class="edge"><title>module~foodie&#45;&gt;module~type_euler_1d</title>
<path fill="none" stroke="black" stroke-dasharray="5,2" d="M251.831,-149.028C263.648,-162.679 283.615,-184.163 304,-199 305.627,-200.184 307.327,-201.34 309.072,-202.462"/>
<polygon fill="black" stroke="black" points="307.652,-205.688 318.041,-207.767 311.216,-199.663 307.652,-205.688"/>
</g>
<!-- module~type_lorenz&#45;&gt;program~integrate_lorenz -->
<g id="edge2" class="edge"><title>module~type_lorenz&#45;&gt;program~integrate_lorenz</title>
<path fill="none" stroke="black" stroke-dasharray="5,2" d="M381.251,-167.214C394.636,-163.39 410.321,-158.908 425.199,-154.657"/>
<polygon fill="black" stroke="black" points="426.174,-158.019 434.827,-151.906 424.251,-151.288 426.174,-158.019"/>
</g>
<!-- module~type_oscillation&#45;&gt;program~integrate_oscillation -->
<g id="edge4" class="edge"><title>module~type_oscillation&#45;&gt;program~integrate_oscillation</title>
<path fill="none" stroke="black" stroke-dasharray="5,2" d="M389.814,-95C398.11,-95 406.972,-95 415.781,-95"/>
<polygon fill="black" stroke="black" points="416.06,-98.5001 426.06,-95 416.06,-91.5001 416.06,-98.5001"/>
</g>
<!-- module~type_burgers&#45;&gt;program~integrate_burgers -->
<g id="edge6" class="edge"><title>module~type_burgers&#45;&gt;program~integrate_burgers</title>
<path fill="none" stroke="black" stroke-dasharray="5,2" d="M385.112,-18.4446C396.387,-20.0552 409.001,-21.8573 421.259,-23.6084"/>
<polygon fill="black" stroke="black" points="421.04,-27.1125 431.434,-25.062 422.03,-20.1829 421.04,-27.1125"/>
</g>
<!-- module~type_euler_1d&#45;&gt;program~integrate_euler_1d -->
<g id="edge8" class="edge"><title>module~type_euler_1d&#45;&gt;program~integrate_euler_1d</title>
<path fill="none" stroke="black" stroke-dasharray="5,2" d="M388.353,-227.218C397.732,-228.629 407.894,-230.157 417.922,-231.665"/>
<polygon fill="black" stroke="black" points="417.461,-235.135 427.87,-233.161 418.502,-228.213 417.461,-235.135"/>
</g>
</g>
</svg>
