<?xml version="1.0" encoding="UTF-8" standalone="no"?>
<!DOCTYPE svg PUBLIC "-//W3C//DTD SVG 1.1//EN"
 "http://www.w3.org/Graphics/SVG/1.1/DTD/svg11.dtd">
<!-- Generated by graphviz version 2.38.0 (20140413.2041)
 -->
<!-- Title: module~~foodie~~UsesGraph Pages: 1 -->
<svg width="510pt" height="154pt"
 viewBox="0.00 0.00 510.00 154.00" xmlns="http://www.w3.org/2000/svg" xmlns:xlink="http://www.w3.org/1999/xlink">
<g id="graph0" class="graph" transform="scale(1 1) rotate(0) translate(4 150)">
<title>module~~foodie~~UsesGraph</title>
<polygon fill="white" stroke="none" points="-4,4 -4,-150 506,-150 506,4 -4,4"/>
<!-- module~foodie -->
<g id="node1" class="node"><title>module~foodie</title>
<polygon fill="none" stroke="black" points="502,-86 448,-86 448,-62 502,-62 502,-86"/>
<text text-anchor="middle" x="475" y="-71.6" font-family="Helvetica,sans-Serif" font-size="10.50">foodie</text>
</g>
<!-- module~foodie_integrator_adams_bashforth -->
<g id="node2" class="node"><title>module~foodie_integrator_adams_bashforth</title>
<g id="a_node2"><a xlink:href="../module/foodie_integrator_adams_bashforth.html" xlink:title="foodie_integrator_adams_bashforth">
<polygon fill="#337ab7" stroke="#337ab7" points="412,-146 229,-146 229,-122 412,-122 412,-146"/>
<text text-anchor="middle" x="320.5" y="-131.6" font-family="Helvetica,sans-Serif" font-size="10.50" fill="white">foodie_integrator_adams_bashforth</text>
</a>
</g>
</g>
<!-- module~foodie_integrator_adams_bashforth&#45;&gt;module~foodie -->
<g id="edge8" class="edge"><title>module~foodie_integrator_adams_bashforth&#45;&gt;module~foodie</title>
<path fill="none" stroke="black" stroke-dasharray="5,2" d="M371.025,-121.914C384.522,-118.045 399.001,-113.354 412,-108 423.501,-103.263 435.61,-96.9501 446.044,-91.0503"/>
<polygon fill="black" stroke="black" points="447.827,-94.0629 454.726,-86.0221 444.318,-88.0056 447.827,-94.0629"/>
</g>
<!-- module~foodie_integrator_tvd_runge_kutta -->
<g id="node3" class="node"><title>module~foodie_integrator_tvd_runge_kutta</title>
<g id="a_node3"><a xlink:href="../module/foodie_integrator_tvd_runge_kutta.html" xlink:title="foodie_integrator_tvd_runge_kutta">
<polygon fill="#337ab7" stroke="#337ab7" points="409,-66 232,-66 232,-42 409,-42 409,-66"/>
<text text-anchor="middle" x="320.5" y="-51.6" font-family="Helvetica,sans-Serif" font-size="10.50" fill="white">foodie_integrator_tvd_runge_kutta</text>
</a>
</g>
</g>
<!-- module~foodie_integrator_tvd_runge_kutta&#45;&gt;module~foodie -->
<g id="edge9" class="edge"><title>module~foodie_integrator_tvd_runge_kutta&#45;&gt;module~foodie</title>
<path fill="none" stroke="black" stroke-dasharray="5,2" d="M409.326,-65.5182C419.305,-66.8269 429.014,-68.1002 437.746,-69.2454"/>
<polygon fill="black" stroke="black" points="437.495,-72.7424 447.866,-70.5725 438.406,-65.8018 437.495,-72.7424"/>
</g>
<!-- module~type_integrand -->
<g id="node4" class="node"><title>module~type_integrand</title>
<g id="a_node4"><a xlink:href="../module/type_integrand.html" xlink:title="type_integrand">
<polygon fill="#337ab7" stroke="#337ab7" points="193,-106 109,-106 109,-82 193,-82 193,-106"/>
<text text-anchor="middle" x="151" y="-91.6" font-family="Helvetica,sans-Serif" font-size="10.50" fill="white">type_integrand</text>
</a>
</g>
</g>
<!-- module~type_integrand&#45;&gt;module~foodie -->
<g id="edge10" class="edge"><title>module~type_integrand&#45;&gt;module~foodie</title>
<path fill="none" stroke="black" stroke-dasharray="5,2" d="M193.109,-91.4467C256.446,-87.5127 376.893,-80.0315 437.393,-76.2737"/>
<polygon fill="black" stroke="black" points="437.854,-79.752 447.617,-75.6387 437.42,-72.7654 437.854,-79.752"/>
</g>
<!-- module~type_integrand&#45;&gt;module~foodie_integrator_adams_bashforth -->
<g id="edge2" class="edge"><title>module~type_integrand&#45;&gt;module~foodie_integrator_adams_bashforth</title>
<path fill="none" stroke="black" stroke-dasharray="5,2" d="M193.405,-103.888C213.231,-108.622 237.355,-114.383 259.172,-119.593"/>
<polygon fill="black" stroke="black" points="258.471,-123.024 269.01,-121.943 260.097,-116.216 258.471,-123.024"/>
</g>
<!-- module~type_integrand&#45;&gt;module~foodie_integrator_tvd_runge_kutta -->
<g id="edge4" class="edge"><title>module~type_integrand&#45;&gt;module~foodie_integrator_tvd_runge_kutta</title>
<path fill="none" stroke="black" stroke-dasharray="5,2" d="M193.405,-84.1124C213.231,-79.3776 237.355,-73.6168 259.172,-68.4067"/>
<polygon fill="black" stroke="black" points="260.097,-71.7844 269.01,-66.0573 258.471,-64.9758 260.097,-71.7844"/>
</g>
<!-- module~foodie_integrator_euler_explicit -->
<g id="node5" class="node"><title>module~foodie_integrator_euler_explicit</title>
<g id="a_node5"><a xlink:href="../module/foodie_integrator_euler_explicit.html" xlink:title="foodie_integrator_euler_explicit">
<polygon fill="#337ab7" stroke="#337ab7" points="401.5,-24 239.5,-24 239.5,-0 401.5,-0 401.5,-24"/>
<text text-anchor="middle" x="320.5" y="-9.6" font-family="Helvetica,sans-Serif" font-size="10.50" fill="white">foodie_integrator_euler_explicit</text>
</a>
</g>
</g>
<!-- module~type_integrand&#45;&gt;module~foodie_integrator_euler_explicit -->
<g id="edge7" class="edge"><title>module~type_integrand&#45;&gt;module~foodie_integrator_euler_explicit</title>
<path fill="none" stroke="black" stroke-dasharray="5,2" d="M173.005,-81.8396C179.601,-77.7185 186.781,-72.909 193,-68 210.516,-54.1734 209.413,-43.6919 229,-33 232.663,-31.0004 236.51,-29.1904 240.467,-27.5523"/>
<polygon fill="black" stroke="black" points="241.726,-30.8184 249.863,-24.0332 239.27,-24.2631 241.726,-30.8184"/>
</g>
<!-- module~foodie_integrator_euler_explicit&#45;&gt;module~foodie -->
<g id="edge11" class="edge"><title>module~foodie_integrator_euler_explicit&#45;&gt;module~foodie</title>
<path fill="none" stroke="black" stroke-dasharray="5,2" d="M386.191,-24.027C395.026,-26.5273 403.851,-29.4953 412,-33 425.657,-38.8732 439.578,-47.7634 450.76,-55.7657"/>
<polygon fill="black" stroke="black" points="448.961,-58.7883 459.083,-61.9185 453.122,-53.1594 448.961,-58.7883"/>
</g>
<!-- IR_Precision -->
<g id="node6" class="node"><title>IR_Precision</title>
<polygon fill="#337ab7" stroke="#337ab7" points="73,-106 0,-106 0,-82 73,-82 73,-106"/>
<text text-anchor="middle" x="36.5" y="-91.6" font-family="Helvetica,sans-Serif" font-size="10.50" fill="white">IR_Precision</text>
</g>
<!-- IR_Precision&#45;&gt;module~foodie_integrator_adams_bashforth -->
<g id="edge1" class="edge"><title>IR_Precision&#45;&gt;module~foodie_integrator_adams_bashforth</title>
<path fill="none" stroke="black" stroke-dasharray="5,2" d="M73.1715,-105.967C84.5116,-109.367 97.1798,-112.753 109,-115 144.434,-121.736 183.692,-126.1 218.613,-128.921"/>
<polygon fill="black" stroke="black" points="218.579,-132.429 228.819,-129.712 219.12,-125.45 218.579,-132.429"/>
</g>
<!-- IR_Precision&#45;&gt;module~foodie_integrator_tvd_runge_kutta -->
<g id="edge3" class="edge"><title>IR_Precision&#45;&gt;module~foodie_integrator_tvd_runge_kutta</title>
<path fill="none" stroke="black" stroke-dasharray="5,2" d="M152,-54C174.199,-48.8097 198.511,-46.7984 221.559,-46.5057"/>
<polygon fill="black" stroke="black" points="221.705,-50.0055 231.697,-46.484 221.69,-43.0055 221.705,-50.0055"/>
</g>
<!-- IR_Precision&#45;&gt;module~type_integrand -->
<g id="edge5" class="edge"><title>IR_Precision&#45;&gt;module~type_integrand</title>
<path fill="none" stroke="black" stroke-dasharray="5,2" d="M73.0957,-94C81.2389,-94 90.0527,-94 98.7087,-94"/>
<polygon fill="black" stroke="black" points="98.748,-97.5001 108.748,-94 98.7479,-90.5001 98.748,-97.5001"/>
</g>
<!-- IR_Precision&#45;&gt;module~foodie_integrator_euler_explicit -->
<g id="edge6" class="edge"><title>IR_Precision&#45;&gt;module~foodie_integrator_euler_explicit</title>
<path fill="none" stroke="black" stroke-dasharray="5,2" d="M66.1024,-81.8204C88.5275,-72.7668 120.732,-60.8429 150,-54"/>
<path fill="none" stroke="black" stroke-dasharray="5,2" d="M152,-54C186.541,-45.9243 194.606,-41.6773 229,-33 237.729,-30.7979 246.953,-28.5578 256.042,-26.401"/>
<polygon fill="black" stroke="black" points="256.889,-29.7972 265.821,-24.099 255.285,-22.9834 256.889,-29.7972"/>
</g>
</g>
</svg>
