<?xml version="1.0" encoding="UTF-8" standalone="no"?>
<!DOCTYPE svg PUBLIC "-//W3C//DTD SVG 1.1//EN"
 "http://www.w3.org/Graphics/SVG/1.1/DTD/svg11.dtd">
<!-- Generated by graphviz version 2.26.3 (20100126.1600)
 -->
<!-- Title: module~~foodie_integrator_adams_bashforth~~UsedByGraph Pages: 1 -->
<svg width="548pt" height="268pt"
 viewBox="0.00 0.00 548.00 267.97" xmlns="http://www.w3.org/2000/svg" xmlns:xlink="http://www.w3.org/1999/xlink">
<g id="graph1" class="graph" transform="scale(1 1) rotate(0) translate(4 263.974)">
<title>module~~foodie_integrator_adams_bashforth~~UsedByGraph</title>
<polygon fill="white" stroke="white" points="-4,5 -4,-263.974 545,-263.974 545,5 -4,5"/>
<!-- module~foodie_integrator_adams_bashforth -->
<g id="node1" class="node"><title>module~foodie_integrator_adams_bashforth</title>
<polygon fill="none" stroke="black" points="183,-136.974 1,-136.974 1,-110.974 183,-110.974 183,-136.974"/>
<text text-anchor="middle" x="92" y="-121.524" font-family="Helvetica,sans-Serif" font-size="10.50">foodie_integrator_adams_bashforth</text>
</g>
<!-- module~foodie -->
<g id="node2" class="node"><title>module~foodie</title>
<a xlink:href="../module/foodie.html" xlink:title="foodie">
<polygon fill="#337ab7" stroke="#337ab7" points="274,-136.974 220,-136.974 220,-110.974 274,-110.974 274,-136.974"/>
<text text-anchor="middle" x="247" y="-121.524" font-family="Helvetica,sans-Serif" font-size="10.50" fill="white">foodie</text>
</a>
</g>
<!-- module~foodie_integrator_adams_bashforth&#45;&gt;module~foodie -->
<g id="edge26" class="edge"><title>module~foodie_integrator_adams_bashforth&#45;&gt;module~foodie</title>
<path fill="none" stroke="black" stroke-dasharray="5,2" d="M183.508,-123.974C192.714,-123.974 201.647,-123.974 209.764,-123.974"/>
<polygon fill="black" stroke="black" points="209.919,-127.474 219.919,-123.974 209.919,-120.474 209.919,-127.474"/>
</g>
<!-- module~type_burgers -->
<g id="node3" class="node"><title>module~type_burgers</title>
<a xlink:href="../module/type_burgers.html" xlink:title="type_burgers">
<polygon fill="#337ab7" stroke="#337ab7" points="391,-259.974 315,-259.974 315,-233.974 391,-233.974 391,-259.974"/>
<text text-anchor="middle" x="353" y="-244.524" font-family="Helvetica,sans-Serif" font-size="10.50" fill="white">type_burgers</text>
</a>
</g>
<!-- module~foodie&#45;&gt;module~type_burgers -->
<g id="edge10" class="edge"><title>module~foodie&#45;&gt;module~type_burgers</title>
<path fill="none" stroke="black" stroke-dasharray="5,2" d="M253.254,-137.035C263.178,-156.77 284.089,-194.577 310,-219.974 312.892,-222.808 316.131,-225.495 319.498,-227.995"/>
<polygon fill="black" stroke="black" points="317.779,-231.059 328.012,-233.806 321.726,-225.278 317.779,-231.059"/>
</g>
<!-- module~type_oscillation -->
<g id="node4" class="node"><title>module~type_oscillation</title>
<a xlink:href="../module/type_oscillation.html" xlink:title="type_oscillation">
<polygon fill="#337ab7" stroke="#337ab7" points="395,-177.974 311,-177.974 311,-151.974 395,-151.974 395,-177.974"/>
<text text-anchor="middle" x="353" y="-162.524" font-family="Helvetica,sans-Serif" font-size="10.50" fill="white">type_oscillation</text>
</a>
</g>
<!-- module~foodie&#45;&gt;module~type_oscillation -->
<g id="edge12" class="edge"><title>module~foodie&#45;&gt;module~type_oscillation</title>
<path fill="none" stroke="black" stroke-dasharray="5,2" d="M274.023,-134.426C284.864,-138.619 297.632,-143.558 309.705,-148.227"/>
<polygon fill="black" stroke="black" points="308.598,-151.552 319.188,-151.895 311.124,-145.023 308.598,-151.552"/>
</g>
<!-- program~integrate_lorenz -->
<g id="node5" class="node"><title>program~integrate_lorenz</title>
<a xlink:href="../program/integrate_lorenz.html" xlink:title="integrate_lorenz">
<polygon fill="#f0ad4e" stroke="#f0ad4e" points="531,-95.9736 441,-95.9736 441,-69.9736 531,-69.9736 531,-95.9736"/>
<text text-anchor="middle" x="486" y="-80.5236" font-family="Helvetica,sans-Serif" font-size="10.50" fill="white">integrate_lorenz</text>
</a>
</g>
<!-- module~foodie&#45;&gt;program~integrate_lorenz -->
<g id="edge14" class="edge"><title>module~foodie&#45;&gt;program~integrate_lorenz</title>
<path fill="none" stroke="black" stroke-dasharray="5,2" d="M274.049,-125.029C295.491,-125.61 326.2,-125.878 353,-123.974"/>
<path fill="none" stroke="black" stroke-dasharray="5,2" d="M353,-123.974C370.146,-122.755 409.317,-110.226 440.733,-99.3357"/>
<polygon fill="black" stroke="black" points="441.918,-102.629 450.201,-96.0228 439.607,-96.0219 441.918,-102.629"/>
</g>
<!-- program~integrate_burgers -->
<g id="node6" class="node"><title>program~integrate_burgers</title>
<a xlink:href="../program/integrate_burgers.html" xlink:title="integrate_burgers">
<polygon fill="#f0ad4e" stroke="#f0ad4e" points="534,-238.974 438,-238.974 438,-212.974 534,-212.974 534,-238.974"/>
<text text-anchor="middle" x="486" y="-223.524" font-family="Helvetica,sans-Serif" font-size="10.50" fill="white">integrate_burgers</text>
</a>
</g>
<!-- module~foodie&#45;&gt;program~integrate_burgers -->
<g id="edge16" class="edge"><title>module~foodie&#45;&gt;program~integrate_burgers</title>
<path fill="none" stroke="black" stroke-dasharray="5,2" d="M256.337,-137.018C267.443,-151.526 287.352,-174.55 310,-186.974 346.088,-206.77 391.548,-216.519 427.225,-221.319"/>
<polygon fill="black" stroke="black" points="427.13,-224.835 437.486,-222.601 427.997,-217.889 427.13,-224.835"/>
</g>
<!-- module~type_euler_1d -->
<g id="node7" class="node"><title>module~type_euler_1d</title>
<a xlink:href="../module/type_euler_1d.html" xlink:title="type_euler_1D">
<polygon fill="#337ab7" stroke="#337ab7" points="394,-51.9736 312,-51.9736 312,-25.9736 394,-25.9736 394,-51.9736"/>
<text text-anchor="middle" x="353" y="-36.5236" font-family="Helvetica,sans-Serif" font-size="10.50" fill="white">type_euler_1D</text>
</a>
</g>
<!-- module~foodie&#45;&gt;module~type_euler_1d -->
<g id="edge18" class="edge"><title>module~foodie&#45;&gt;module~type_euler_1d</title>
<path fill="none" stroke="black" stroke-dasharray="5,2" d="M257.831,-110.946C269.648,-97.2943 289.615,-75.8103 310,-60.9736 311.627,-59.7893 313.327,-58.6337 315.072,-57.5118"/>
<polygon fill="black" stroke="black" points="317.216,-60.3103 324.041,-52.2068 313.652,-54.2853 317.216,-60.3103"/>
</g>
<!-- program~integrate_oscillation -->
<g id="node8" class="node"><title>program~integrate_oscillation</title>
<a xlink:href="../program/integrate_oscillation.html" xlink:title="integrate_oscillation">
<polygon fill="#f0ad4e" stroke="#f0ad4e" points="539,-139.974 433,-139.974 433,-113.974 539,-113.974 539,-139.974"/>
<text text-anchor="middle" x="486" y="-124.524" font-family="Helvetica,sans-Serif" font-size="10.50" fill="white">integrate_oscillation</text>
</a>
</g>
<!-- module~foodie&#45;&gt;program~integrate_oscillation -->
<g id="edge20" class="edge"><title>module~foodie&#45;&gt;program~integrate_oscillation</title>
<path fill="none" stroke="black" stroke-dasharray="5,2" d="M353,-123.974C375.474,-122.376 400.132,-122.432 422.047,-123.113"/>
<polygon fill="black" stroke="black" points="422.114,-126.617 432.233,-123.479 422.365,-119.622 422.114,-126.617"/>
</g>
<!-- module~type_lorenz -->
<g id="node9" class="node"><title>module~type_lorenz</title>
<a xlink:href="../module/type_lorenz.html" xlink:title="type_lorenz">
<polygon fill="#337ab7" stroke="#337ab7" points="387,-95.9736 319,-95.9736 319,-69.9736 387,-69.9736 387,-95.9736"/>
<text text-anchor="middle" x="353" y="-80.5236" font-family="Helvetica,sans-Serif" font-size="10.50" fill="white">type_lorenz</text>
</a>
</g>
<!-- module~foodie&#45;&gt;module~type_lorenz -->
<g id="edge22" class="edge"><title>module~foodie&#45;&gt;module~type_lorenz</title>
<path fill="none" stroke="black" stroke-dasharray="5,2" d="M274.023,-113.522C284.864,-109.328 297.632,-104.389 309.705,-99.7198"/>
<polygon fill="black" stroke="black" points="311.124,-102.924 319.188,-96.052 308.598,-96.3952 311.124,-102.924"/>
</g>
<!-- program~integrate_euler_1d -->
<g id="node10" class="node"><title>program~integrate_euler_1d</title>
<a xlink:href="../program/integrate_euler_1d.html" xlink:title="integrate_euler_1D">
<polygon fill="#f0ad4e" stroke="#f0ad4e" points="538,-31.9736 434,-31.9736 434,-5.97363 538,-5.97363 538,-31.9736"/>
<text text-anchor="middle" x="486" y="-16.5236" font-family="Helvetica,sans-Serif" font-size="10.50" fill="white">integrate_euler_1D</text>
</a>
</g>
<!-- module~foodie&#45;&gt;program~integrate_euler_1d -->
<g id="edge24" class="edge"><title>module~foodie&#45;&gt;program~integrate_euler_1d</title>
<path fill="none" stroke="black" stroke-dasharray="5,2" d="M250.209,-110.734C256.779,-86.9128 274.255,-37.4084 310,-16.9736 345.403,3.26548 391.724,1.85973 427.958,-4.12397"/>
<polygon fill="black" stroke="black" points="427.43,-7.58518 437.893,-5.91889 428.675,-0.696698 427.43,-7.58518"/>
</g>
<!-- module~type_burgers&#45;&gt;program~integrate_burgers -->
<g id="edge2" class="edge"><title>module~type_burgers&#45;&gt;program~integrate_burgers</title>
<path fill="none" stroke="black" stroke-dasharray="5,2" d="M391.112,-240.956C402.387,-239.176 415.001,-237.184 427.259,-235.249"/>
<polygon fill="black" stroke="black" points="428.102,-238.659 437.434,-233.642 427.011,-231.744 428.102,-238.659"/>
</g>
<!-- module~type_oscillation&#45;&gt;program~integrate_oscillation -->
<g id="edge4" class="edge"><title>module~type_oscillation&#45;&gt;program~integrate_oscillation</title>
<path fill="none" stroke="black" stroke-dasharray="5,2" d="M395.814,-152.741C406.738,-149.62 418.644,-146.218 430.116,-142.94"/>
<polygon fill="black" stroke="black" points="431.398,-146.214 440.051,-140.102 429.475,-139.484 431.398,-146.214"/>
</g>
<!-- module~type_euler_1d&#45;&gt;program~integrate_euler_1d -->
<g id="edge6" class="edge"><title>module~type_euler_1d&#45;&gt;program~integrate_euler_1d</title>
<path fill="none" stroke="black" stroke-dasharray="5,2" d="M394.353,-32.7551C403.732,-31.3447 413.894,-29.8166 423.922,-28.3087"/>
<polygon fill="black" stroke="black" points="424.502,-31.7609 433.87,-26.8127 423.461,-24.8387 424.502,-31.7609"/>
</g>
<!-- module~type_lorenz&#45;&gt;program~integrate_lorenz -->
<g id="edge8" class="edge"><title>module~type_lorenz&#45;&gt;program~integrate_lorenz</title>
<path fill="none" stroke="black" stroke-dasharray="5,2" d="M387.251,-82.9736C400.508,-82.9736 416.022,-82.9736 430.774,-82.9736"/>
<polygon fill="black" stroke="black" points="430.827,-86.4737 440.827,-82.9736 430.827,-79.4737 430.827,-86.4737"/>
</g>
</g>
</svg>
