<?xml version="1.0" encoding="UTF-8" standalone="no"?>
<!DOCTYPE svg PUBLIC "-//W3C//DTD SVG 1.1//EN"
 "http://www.w3.org/Graphics/SVG/1.1/DTD/svg11.dtd">
<!-- Generated by graphviz version 2.26.3 (20100126.1600)
 -->
<!-- Title: module~~foodie_integrator_leapfrog~~UsedByGraph Pages: 1 -->
<svg width="588pt" height="353pt"
 viewBox="0.00 0.00 588.00 353.11" xmlns="http://www.w3.org/2000/svg" xmlns:xlink="http://www.w3.org/1999/xlink">
<g id="graph1" class="graph" transform="scale(1 1) rotate(0) translate(4 349.113)">
<title>module~~foodie_integrator_leapfrog~~UsedByGraph</title>
<polygon fill="white" stroke="white" points="-4,5 -4,-349.113 585,-349.113 585,5 -4,5"/>
<!-- module~foodie_integrator_leapfrog -->
<g id="node1" class="node"><title>module~foodie_integrator_leapfrog</title>
<polygon fill="none" stroke="black" points="139,-184.407 1,-184.407 1,-158.407 139,-158.407 139,-184.407"/>
<text text-anchor="middle" x="70" y="-168.957" font-family="Helvetica,sans-Serif" font-size="10.50">foodie_integrator_leapfrog</text>
</g>
<!-- module~foodie -->
<g id="node2" class="node"><title>module~foodie</title>
<a xlink:href="../module/foodie.html" xlink:title="foodie">
<polygon fill="#337ab7" stroke="#337ab7" points="230,-184.407 176,-184.407 176,-158.407 230,-158.407 230,-184.407"/>
<text text-anchor="middle" x="203" y="-168.957" font-family="Helvetica,sans-Serif" font-size="10.50" fill="white">foodie</text>
</a>
</g>
<!-- module~foodie_integrator_leapfrog&#45;&gt;module~foodie -->
<g id="edge32" class="edge"><title>module~foodie_integrator_leapfrog&#45;&gt;module~foodie</title>
<path fill="none" stroke="black" stroke-dasharray="5,2" d="M139.616,-171.407C148.531,-171.407 157.371,-171.407 165.494,-171.407"/>
<polygon fill="black" stroke="black" points="165.704,-174.907 175.704,-171.407 165.704,-167.907 165.704,-174.907"/>
</g>
<!-- program~integrate_burgers -->
<g id="node3" class="node"><title>program~integrate_burgers</title>
<a xlink:href="../program/integrate_burgers.html" xlink:title="integrate_burgers">
<polygon fill="#f0ad4e" stroke="#f0ad4e" points="553,-330.407 457,-330.407 457,-304.407 553,-304.407 553,-330.407"/>
<text text-anchor="middle" x="505" y="-314.957" font-family="Helvetica,sans-Serif" font-size="10.50" fill="white">integrate_burgers</text>
</a>
</g>
<!-- module~foodie&#45;&gt;program~integrate_burgers -->
<g id="edge12" class="edge"><title>module~foodie&#45;&gt;program~integrate_burgers</title>
<path fill="none" stroke="black" stroke-dasharray="5,2" d="M203.991,-184.679C207.044,-214.868 219.178,-288.45 266,-319.407 321.976,-356.416 402.606,-345.869 454.404,-333.08"/>
<polygon fill="black" stroke="black" points="455.557,-336.397 464.363,-330.506 453.806,-329.62 455.557,-336.397"/>
</g>
<!-- module~type_euler_1d -->
<g id="node4" class="node"><title>module~type_euler_1d</title>
<a xlink:href="../module/type_euler_1d.html" xlink:title="type_euler_1D">
<polygon fill="#337ab7" stroke="#337ab7" points="371,-266.407 289,-266.407 289,-240.407 371,-240.407 371,-266.407"/>
<text text-anchor="middle" x="330" y="-250.957" font-family="Helvetica,sans-Serif" font-size="10.50" fill="white">type_euler_1D</text>
</a>
</g>
<!-- module~foodie&#45;&gt;module~type_euler_1d -->
<g id="edge14" class="edge"><title>module~foodie&#45;&gt;module~type_euler_1d</title>
<path fill="none" stroke="black" stroke-dasharray="5,2" d="M215.536,-184.534C227.599,-196.607 246.791,-214.405 266,-226.407 271.703,-229.97 277.959,-233.263 284.255,-236.233"/>
<polygon fill="black" stroke="black" points="282.893,-239.457 293.45,-240.348 285.752,-233.068 282.893,-239.457"/>
</g>
<!-- program~integrate_lorenz -->
<g id="node5" class="node"><title>program~integrate_lorenz</title>
<a xlink:href="../program/integrate_lorenz.html" xlink:title="integrate_lorenz">
<polygon fill="#f0ad4e" stroke="#f0ad4e" points="550,-184.407 460,-184.407 460,-158.407 550,-158.407 550,-184.407"/>
<text text-anchor="middle" x="505" y="-168.957" font-family="Helvetica,sans-Serif" font-size="10.50" fill="white">integrate_lorenz</text>
</a>
</g>
<!-- module~foodie&#45;&gt;program~integrate_lorenz -->
<g id="edge16" class="edge"><title>module~foodie&#45;&gt;program~integrate_lorenz</title>
<path fill="none" stroke="black" stroke-dasharray="5,2" d="M230.024,-183.808C255.253,-194.49 294.275,-208.748 330,-212.407"/>
<path fill="none" stroke="black" stroke-dasharray="5,2" d="M330,-212.407C341.991,-213.635 403.256,-198.445 449.948,-186.209"/>
<polygon fill="black" stroke="black" points="450.888,-189.58 459.667,-183.649 449.106,-182.811 450.888,-189.58"/>
</g>
<!-- program~integrate_oscillation -->
<g id="node6" class="node"><title>program~integrate_oscillation</title>
<a xlink:href="../program/integrate_oscillation.html" xlink:title="integrate_oscillation">
<polygon fill="#f0ad4e" stroke="#f0ad4e" points="558,-112.407 452,-112.407 452,-86.407 558,-86.407 558,-112.407"/>
<text text-anchor="middle" x="505" y="-96.957" font-family="Helvetica,sans-Serif" font-size="10.50" fill="white">integrate_oscillation</text>
</a>
</g>
<!-- module~foodie&#45;&gt;program~integrate_oscillation -->
<g id="edge18" class="edge"><title>module~foodie&#45;&gt;program~integrate_oscillation</title>
<path fill="none" stroke="black" stroke-dasharray="5,2" d="M230.045,-161.098C241.091,-157.115 254.057,-152.727 266,-149.407 324.722,-133.086 392.869,-119.327 441.333,-110.399"/>
<polygon fill="black" stroke="black" points="442.156,-113.807 451.365,-108.569 440.899,-106.921 442.156,-113.807"/>
</g>
<!-- module~type_lorenz -->
<g id="node7" class="node"><title>module~type_lorenz</title>
<a xlink:href="../module/type_lorenz.html" xlink:title="type_lorenz">
<polygon fill="#337ab7" stroke="#337ab7" points="364,-184.407 296,-184.407 296,-158.407 364,-158.407 364,-184.407"/>
<text text-anchor="middle" x="330" y="-168.957" font-family="Helvetica,sans-Serif" font-size="10.50" fill="white">type_lorenz</text>
</a>
</g>
<!-- module~foodie&#45;&gt;module~type_lorenz -->
<g id="edge20" class="edge"><title>module~foodie&#45;&gt;module~type_lorenz</title>
<path fill="none" stroke="black" stroke-dasharray="5,2" d="M230.245,-171.407C246.282,-171.407 266.959,-171.407 285.326,-171.407"/>
<polygon fill="black" stroke="black" points="285.534,-174.907 295.534,-171.407 285.534,-167.907 285.534,-174.907"/>
</g>
<!-- module~type_burgers -->
<g id="node8" class="node"><title>module~type_burgers</title>
<a xlink:href="../module/type_burgers.html" xlink:title="type_burgers">
<polygon fill="#337ab7" stroke="#337ab7" points="368,-310.407 292,-310.407 292,-284.407 368,-284.407 368,-310.407"/>
<text text-anchor="middle" x="330" y="-294.957" font-family="Helvetica,sans-Serif" font-size="10.50" fill="white">type_burgers</text>
</a>
</g>
<!-- module~foodie&#45;&gt;module~type_burgers -->
<g id="edge22" class="edge"><title>module~foodie&#45;&gt;module~type_burgers</title>
<path fill="none" stroke="black" stroke-dasharray="5,2" d="M207.566,-184.6C215.819,-206.556 235.271,-250.627 266,-275.407 270.922,-279.376 276.602,-282.648 282.505,-285.342"/>
<polygon fill="black" stroke="black" points="281.303,-288.631 291.887,-289.114 283.915,-282.136 281.303,-288.631"/>
</g>
<!-- program~integrate_euler_1d -->
<g id="node9" class="node"><title>program~integrate_euler_1d</title>
<a xlink:href="../program/integrate_euler_1d.html" xlink:title="integrate_euler_1D">
<polygon fill="#f0ad4e" stroke="#f0ad4e" points="557,-228.407 453,-228.407 453,-202.407 557,-202.407 557,-228.407"/>
<text text-anchor="middle" x="505" y="-212.957" font-family="Helvetica,sans-Serif" font-size="10.50" fill="white">integrate_euler_1D</text>
</a>
</g>
<!-- module~foodie&#45;&gt;program~integrate_euler_1d -->
<g id="edge24" class="edge"><title>module~foodie&#45;&gt;program~integrate_euler_1d</title>
<path fill="none" stroke="black" stroke-dasharray="5,2" d="M330,-212.407C367.256,-216.223 409.202,-217.06 442.686,-216.902"/>
<polygon fill="black" stroke="black" points="442.819,-220.401 452.792,-216.823 442.765,-213.401 442.819,-220.401"/>
</g>
<!-- module~type_oscillation -->
<g id="node10" class="node"><title>module~type_oscillation</title>
<a xlink:href="../module/type_oscillation.html" xlink:title="type_oscillation">
<polygon fill="#337ab7" stroke="#337ab7" points="372,-102.407 288,-102.407 288,-76.407 372,-76.407 372,-102.407"/>
<text text-anchor="middle" x="330" y="-86.957" font-family="Helvetica,sans-Serif" font-size="10.50" fill="white">type_oscillation</text>
</a>
</g>
<!-- module~foodie&#45;&gt;module~type_oscillation -->
<g id="edge26" class="edge"><title>module~foodie&#45;&gt;module~type_oscillation</title>
<path fill="none" stroke="black" stroke-dasharray="5,2" d="M215.536,-158.281C227.599,-146.207 246.791,-128.409 266,-116.407 271.703,-112.844 277.959,-109.551 284.255,-106.581"/>
<polygon fill="black" stroke="black" points="285.752,-109.746 293.45,-102.466 282.893,-103.357 285.752,-109.746"/>
</g>
<!-- module~type_euler_1d_openmp -->
<g id="node11" class="node"><title>module~type_euler_1d_openmp</title>
<a xlink:href="../module/type_euler_1d_openmp.html" xlink:title="type_euler_1D_openmp">
<polygon fill="#337ab7" stroke="#337ab7" points="393,-58.407 267,-58.407 267,-32.407 393,-32.407 393,-58.407"/>
<text text-anchor="middle" x="330" y="-42.957" font-family="Helvetica,sans-Serif" font-size="10.50" fill="white">type_euler_1D_openmp</text>
</a>
</g>
<!-- module~foodie&#45;&gt;module~type_euler_1d_openmp -->
<g id="edge28" class="edge"><title>module~foodie&#45;&gt;module~type_euler_1d_openmp</title>
<path fill="none" stroke="black" stroke-dasharray="5,2" d="M207.566,-158.214C215.819,-136.258 235.271,-92.1867 266,-67.407 267.746,-65.9988 269.588,-64.6783 271.502,-63.4402"/>
<polygon fill="black" stroke="black" points="273.263,-66.4655 280.275,-58.5235 269.84,-60.3591 273.263,-66.4655"/>
</g>
<!-- program~integrate_euler_1d_openmp -->
<g id="node12" class="node"><title>program~integrate_euler_1d_openmp</title>
<a xlink:href="../program/integrate_euler_1d_openmp.html" xlink:title="integrate_euler_1D_openmp">
<polygon fill="#f0ad4e" stroke="#f0ad4e" points="579,-48.407 431,-48.407 431,-22.407 579,-22.407 579,-48.407"/>
<text text-anchor="middle" x="505" y="-32.957" font-family="Helvetica,sans-Serif" font-size="10.50" fill="white">integrate_euler_1D_openmp</text>
</a>
</g>
<!-- module~foodie&#45;&gt;program~integrate_euler_1d_openmp -->
<g id="edge30" class="edge"><title>module~foodie&#45;&gt;program~integrate_euler_1d_openmp</title>
<path fill="none" stroke="black" stroke-dasharray="5,2" d="M203.991,-158.135C207.044,-127.946 219.178,-54.3636 266,-23.407 324.969,15.5805 411.136,-2.56135 462.293,-19.1122"/>
<polygon fill="black" stroke="black" points="461.445,-22.5195 472.039,-22.3837 463.673,-15.8834 461.445,-22.5195"/>
</g>
<!-- module~type_euler_1d&#45;&gt;program~integrate_euler_1d -->
<g id="edge2" class="edge"><title>module~type_euler_1d&#45;&gt;program~integrate_euler_1d</title>
<path fill="none" stroke="black" stroke-dasharray="5,2" d="M371.03,-244.498C392.422,-239.853 419.034,-234.074 442.89,-228.894"/>
<polygon fill="black" stroke="black" points="443.892,-232.258 452.922,-226.715 442.407,-225.417 443.892,-232.258"/>
</g>
<!-- module~type_lorenz&#45;&gt;program~integrate_lorenz -->
<g id="edge4" class="edge"><title>module~type_lorenz&#45;&gt;program~integrate_lorenz</title>
<path fill="none" stroke="black" stroke-dasharray="5,2" d="M364.157,-171.407C388.519,-171.407 421.803,-171.407 449.898,-171.407"/>
<polygon fill="black" stroke="black" points="449.987,-174.907 459.987,-171.407 449.987,-167.907 449.987,-174.907"/>
</g>
<!-- module~type_burgers&#45;&gt;program~integrate_burgers -->
<g id="edge6" class="edge"><title>module~type_burgers&#45;&gt;program~integrate_burgers</title>
<path fill="none" stroke="black" stroke-dasharray="5,2" d="M368.404,-301.796C391.232,-304.405 420.651,-307.767 446.337,-310.703"/>
<polygon fill="black" stroke="black" points="446.012,-314.188 456.344,-311.846 446.807,-307.233 446.012,-314.188"/>
</g>
<!-- module~type_oscillation&#45;&gt;program~integrate_oscillation -->
<g id="edge8" class="edge"><title>module~type_oscillation&#45;&gt;program~integrate_oscillation</title>
<path fill="none" stroke="black" stroke-dasharray="5,2" d="M372.81,-91.8533C393.343,-93.0266 418.365,-94.4564 441.092,-95.7551"/>
<polygon fill="black" stroke="black" points="441.164,-99.2649 451.348,-96.3412 441.564,-92.2763 441.164,-99.2649"/>
</g>
<!-- module~type_euler_1d_openmp&#45;&gt;program~integrate_euler_1d_openmp -->
<g id="edge10" class="edge"><title>module~type_euler_1d_openmp&#45;&gt;program~integrate_euler_1d_openmp</title>
<path fill="none" stroke="black" stroke-dasharray="5,2" d="M393.674,-41.7685C402.337,-41.2735 411.337,-40.7592 420.297,-40.2472"/>
<polygon fill="black" stroke="black" points="420.594,-43.736 430.378,-39.6711 420.194,-36.7474 420.594,-43.736"/>
</g>
</g>
</svg>
