<?xml version="1.0" encoding="UTF-8" standalone="no"?>
<!DOCTYPE svg PUBLIC "-//W3C//DTD SVG 1.1//EN"
 "http://www.w3.org/Graphics/SVG/1.1/DTD/svg11.dtd">
<!-- Generated by graphviz version 2.26.3 (20100126.1600)
 -->
<!-- Title: module~~type_integrand~~UsedByGraph Pages: 1 -->
<svg width="641pt" height="244pt"
 viewBox="0.00 0.00 641.00 244.03" xmlns="http://www.w3.org/2000/svg" xmlns:xlink="http://www.w3.org/1999/xlink">
<g id="graph1" class="graph" transform="scale(0.910511 0.910511) rotate(0) translate(4 264.012)">
<title>module~~type_integrand~~UsedByGraph</title>
<polygon fill="white" stroke="white" points="-4,5 -4,-264.012 701,-264.012 701,5 -4,5"/>
<!-- module~type_integrand -->
<g id="node1" class="node"><title>module~type_integrand</title>
<polygon fill="none" stroke="black" points="84,-137.012 4.26326e-14,-137.012 0,-111.012 84,-111.012 84,-137.012"/>
<text text-anchor="middle" x="42" y="-121.562" font-family="Helvetica,sans-Serif" font-size="10.50">type_integrand</text>
</g>
<!-- module~foodie -->
<g id="node2" class="node"><title>module~foodie</title>
<a xlink:href="../module/foodie.html" xlink:title="foodie">
<polygon fill="#337ab7" stroke="#337ab7" points="430,-137.012 376,-137.012 376,-111.012 430,-111.012 430,-137.012"/>
<text text-anchor="middle" x="403" y="-121.562" font-family="Helvetica,sans-Serif" font-size="10.50" fill="white">foodie</text>
</a>
</g>
<!-- module~type_integrand&#45;&gt;module~foodie -->
<g id="edge36" class="edge"><title>module~type_integrand&#45;&gt;module~foodie</title>
<path fill="none" stroke="black" stroke-dasharray="5,2" d="M48.9099,-137.322C60.4356,-157.881 85.7432,-196.599 120,-212.012 209.168,-252.13 253.035,-256.707 340,-212.012 366.545,-198.369 384.404,-167.777 394.135,-146.521"/>
<polygon fill="black" stroke="black" points="397.397,-147.797 398.15,-137.229 390.971,-145.021 397.397,-147.797"/>
</g>
<!-- module~foodie_integrator_low_storage_runge_kutta -->
<g id="node3" class="node"><title>module~foodie_integrator_low_storage_runge_kutta</title>
<a xlink:href="../module/foodie_integrator_low_storage_runge_kutta.html" xlink:title="foodie_integrator_low_storage_runge_kutta">
<polygon fill="#337ab7" stroke="#337ab7" points="340,-203.012 120,-203.012 120,-177.012 340,-177.012 340,-203.012"/>
<text text-anchor="middle" x="230" y="-187.562" font-family="Helvetica,sans-Serif" font-size="10.50" fill="white">foodie_integrator_low_storage_runge_kutta</text>
</a>
</g>
<!-- module~type_integrand&#45;&gt;module~foodie_integrator_low_storage_runge_kutta -->
<g id="edge38" class="edge"><title>module~type_integrand&#45;&gt;module~foodie_integrator_low_storage_runge_kutta</title>
<path fill="none" stroke="black" stroke-dasharray="5,2" d="M61.0407,-137.026C76.3423,-146.911 98.7198,-160.111 120,-168.012 126.317,-170.358 132.937,-172.471 139.661,-174.372"/>
<polygon fill="black" stroke="black" points="139.001,-177.818 149.564,-177.008 140.801,-171.054 139.001,-177.818"/>
</g>
<!-- module~foodie_integrator_leapfrog -->
<g id="node4" class="node"><title>module~foodie_integrator_leapfrog</title>
<a xlink:href="../module/foodie_integrator_leapfrog.html" xlink:title="foodie_integrator_leapfrog">
<polygon fill="#337ab7" stroke="#337ab7" points="299,-159.012 161,-159.012 161,-133.012 299,-133.012 299,-159.012"/>
<text text-anchor="middle" x="230" y="-143.562" font-family="Helvetica,sans-Serif" font-size="10.50" fill="white">foodie_integrator_leapfrog</text>
</a>
</g>
<!-- module~type_integrand&#45;&gt;module~foodie_integrator_leapfrog -->
<g id="edge40" class="edge"><title>module~type_integrand&#45;&gt;module~foodie_integrator_leapfrog</title>
<path fill="none" stroke="black" stroke-dasharray="5,2" d="M84.1909,-128.949C103.712,-131.234 127.568,-134.025 150.284,-136.684"/>
<polygon fill="black" stroke="black" points="149.937,-140.167 160.276,-137.853 150.751,-133.214 149.937,-140.167"/>
</g>
<!-- module~foodie_integrator_tvd_runge_kutta -->
<g id="node5" class="node"><title>module~foodie_integrator_tvd_runge_kutta</title>
<a xlink:href="../module/foodie_integrator_tvd_runge_kutta.html" xlink:title="foodie_integrator_tvd_runge_kutta">
<polygon fill="#337ab7" stroke="#337ab7" points="318,-115.012 142,-115.012 142,-89.012 318,-89.012 318,-115.012"/>
<text text-anchor="middle" x="230" y="-99.562" font-family="Helvetica,sans-Serif" font-size="10.50" fill="white">foodie_integrator_tvd_runge_kutta</text>
</a>
</g>
<!-- module~type_integrand&#45;&gt;module~foodie_integrator_tvd_runge_kutta -->
<g id="edge42" class="edge"><title>module~type_integrand&#45;&gt;module~foodie_integrator_tvd_runge_kutta</title>
<path fill="none" stroke="black" stroke-dasharray="5,2" d="M84.1909,-119.075C98.2662,-117.428 114.595,-115.517 131.126,-113.582"/>
<polygon fill="black" stroke="black" points="131.901,-117.016 141.427,-112.377 131.088,-110.063 131.901,-117.016"/>
</g>
<!-- module~foodie_integrator_adams_bashforth -->
<g id="node6" class="node"><title>module~foodie_integrator_adams_bashforth</title>
<a xlink:href="../module/foodie_integrator_adams_bashforth.html" xlink:title="foodie_integrator_adams_bashforth">
<polygon fill="#337ab7" stroke="#337ab7" points="321,-71.012 139,-71.012 139,-45.012 321,-45.012 321,-71.012"/>
<text text-anchor="middle" x="230" y="-55.562" font-family="Helvetica,sans-Serif" font-size="10.50" fill="white">foodie_integrator_adams_bashforth</text>
</a>
</g>
<!-- module~type_integrand&#45;&gt;module~foodie_integrator_adams_bashforth -->
<g id="edge44" class="edge"><title>module~type_integrand&#45;&gt;module~foodie_integrator_adams_bashforth</title>
<path fill="none" stroke="black" stroke-dasharray="5,2" d="M61.0407,-110.998C76.3423,-101.113 98.7198,-87.9128 120,-80.012 126.317,-77.6665 132.937,-75.5531 139.661,-73.652"/>
<polygon fill="black" stroke="black" points="140.801,-76.9705 149.564,-71.0161 139.001,-70.2059 140.801,-76.9705"/>
</g>
<!-- module~foodie_integrator_euler_explicit -->
<g id="node7" class="node"><title>module~foodie_integrator_euler_explicit</title>
<a xlink:href="../module/foodie_integrator_euler_explicit.html" xlink:title="foodie_integrator_euler_explicit">
<polygon fill="#337ab7" stroke="#337ab7" points="311,-27.012 149,-27.012 149,-1.01202 311,-1.01202 311,-27.012"/>
<text text-anchor="middle" x="230" y="-11.562" font-family="Helvetica,sans-Serif" font-size="10.50" fill="white">foodie_integrator_euler_explicit</text>
</a>
</g>
<!-- module~type_integrand&#45;&gt;module~foodie_integrator_euler_explicit -->
<g id="edge46" class="edge"><title>module~type_integrand&#45;&gt;module~foodie_integrator_euler_explicit</title>
<path fill="none" stroke="black" stroke-dasharray="5,2" d="M49.7085,-110.844C61.9507,-91.191 87.7827,-54.5218 120,-36.012 125.957,-32.5898 132.36,-29.693 138.974,-27.2418"/>
<polygon fill="black" stroke="black" points="140.414,-30.4508 148.788,-23.9599 138.194,-23.8122 140.414,-30.4508"/>
</g>
<!-- module~type_euler_1d -->
<g id="node8" class="node"><title>module~type_euler_1d</title>
<a xlink:href="../module/type_euler_1d.html" xlink:title="type_euler_1D">
<polygon fill="#337ab7" stroke="#337ab7" points="550,-260.012 468,-260.012 468,-234.012 550,-234.012 550,-260.012"/>
<text text-anchor="middle" x="509" y="-244.562" font-family="Helvetica,sans-Serif" font-size="10.50" fill="white">type_euler_1D</text>
</a>
</g>
<!-- module~foodie&#45;&gt;module~type_euler_1d -->
<g id="edge10" class="edge"><title>module~foodie&#45;&gt;module~type_euler_1d</title>
<path fill="none" stroke="black" stroke-dasharray="5,2" d="M409.254,-137.073C419.178,-156.808 440.089,-194.616 466,-220.012 468.892,-222.846 472.131,-225.533 475.498,-228.034"/>
<polygon fill="black" stroke="black" points="473.779,-231.098 484.012,-233.844 477.726,-225.316 473.779,-231.098"/>
</g>
<!-- module~type_burgers -->
<g id="node9" class="node"><title>module~type_burgers</title>
<a xlink:href="../module/type_burgers.html" xlink:title="type_burgers">
<polygon fill="#337ab7" stroke="#337ab7" points="547,-178.012 471,-178.012 471,-152.012 547,-152.012 547,-178.012"/>
<text text-anchor="middle" x="509" y="-162.562" font-family="Helvetica,sans-Serif" font-size="10.50" fill="white">type_burgers</text>
</a>
</g>
<!-- module~foodie&#45;&gt;module~type_burgers -->
<g id="edge12" class="edge"><title>module~foodie&#45;&gt;module~type_burgers</title>
<path fill="none" stroke="black" stroke-dasharray="5,2" d="M430.023,-134.464C440.864,-138.658 453.632,-143.596 465.705,-148.266"/>
<polygon fill="black" stroke="black" points="464.598,-151.59 475.188,-151.934 467.124,-145.062 464.598,-151.59"/>
</g>
<!-- program~integrate_burgers -->
<g id="node10" class="node"><title>program~integrate_burgers</title>
<a xlink:href="../program/integrate_burgers.html" xlink:title="integrate_burgers">
<polygon fill="#f0ad4e" stroke="#f0ad4e" points="690,-140.012 594,-140.012 594,-114.012 690,-114.012 690,-140.012"/>
<text text-anchor="middle" x="642" y="-124.562" font-family="Helvetica,sans-Serif" font-size="10.50" fill="white">integrate_burgers</text>
</a>
</g>
<!-- module~foodie&#45;&gt;program~integrate_burgers -->
<g id="edge14" class="edge"><title>module~foodie&#45;&gt;program~integrate_burgers</title>
<path fill="none" stroke="black" stroke-dasharray="5,2" d="M509,-124.012C533.283,-122.286 560.116,-122.49 583.283,-123.327"/>
<polygon fill="black" stroke="black" points="583.172,-126.826 593.307,-123.736 583.458,-119.831 583.172,-126.826"/>
</g>
<!-- program~integrate_oscillation -->
<g id="node11" class="node"><title>program~integrate_oscillation</title>
<a xlink:href="../program/integrate_oscillation.html" xlink:title="integrate_oscillation">
<polygon fill="#f0ad4e" stroke="#f0ad4e" points="695,-96.012 589,-96.012 589,-70.012 695,-70.012 695,-96.012"/>
<text text-anchor="middle" x="642" y="-80.562" font-family="Helvetica,sans-Serif" font-size="10.50" fill="white">integrate_oscillation</text>
</a>
</g>
<!-- module~foodie&#45;&gt;program~integrate_oscillation -->
<g id="edge16" class="edge"><title>module~foodie&#45;&gt;program~integrate_oscillation</title>
<path fill="none" stroke="black" stroke-dasharray="5,2" d="M430.049,-125.067C451.491,-125.649 482.2,-125.917 509,-124.012"/>
<path fill="none" stroke="black" stroke-dasharray="5,2" d="M509,-124.012C526.146,-122.793 565.317,-110.265 596.733,-99.3741"/>
<polygon fill="black" stroke="black" points="597.918,-102.668 606.201,-96.0612 595.607,-96.0603 597.918,-102.668"/>
</g>
<!-- module~type_lorenz -->
<g id="node12" class="node"><title>module~type_lorenz</title>
<a xlink:href="../module/type_lorenz.html" xlink:title="type_lorenz">
<polygon fill="#337ab7" stroke="#337ab7" points="543,-52.012 475,-52.012 475,-26.012 543,-26.012 543,-52.012"/>
<text text-anchor="middle" x="509" y="-36.562" font-family="Helvetica,sans-Serif" font-size="10.50" fill="white">type_lorenz</text>
</a>
</g>
<!-- module~foodie&#45;&gt;module~type_lorenz -->
<g id="edge18" class="edge"><title>module~foodie&#45;&gt;module~type_lorenz</title>
<path fill="none" stroke="black" stroke-dasharray="5,2" d="M413.831,-110.984C425.648,-97.3327 445.615,-75.8487 466,-61.012 467.627,-59.8277 469.327,-58.6721 471.072,-57.5502"/>
<polygon fill="black" stroke="black" points="473.216,-60.3487 480.041,-52.2452 469.652,-54.3237 473.216,-60.3487"/>
</g>
<!-- program~integrate_euler_1d -->
<g id="node13" class="node"><title>program~integrate_euler_1d</title>
<a xlink:href="../program/integrate_euler_1d.html" xlink:title="integrate_euler_1D">
<polygon fill="#f0ad4e" stroke="#f0ad4e" points="694,-239.012 590,-239.012 590,-213.012 694,-213.012 694,-239.012"/>
<text text-anchor="middle" x="642" y="-223.562" font-family="Helvetica,sans-Serif" font-size="10.50" fill="white">integrate_euler_1D</text>
</a>
</g>
<!-- module~foodie&#45;&gt;program~integrate_euler_1d -->
<g id="edge20" class="edge"><title>module~foodie&#45;&gt;program~integrate_euler_1d</title>
<path fill="none" stroke="black" stroke-dasharray="5,2" d="M412.337,-137.056C423.443,-151.564 443.352,-174.588 466,-187.012 500.839,-206.123 544.413,-215.871 579.487,-220.842"/>
<polygon fill="black" stroke="black" points="579.237,-224.339 589.609,-222.178 580.154,-217.399 579.237,-224.339"/>
</g>
<!-- module~type_oscillation -->
<g id="node14" class="node"><title>module~type_oscillation</title>
<a xlink:href="../module/type_oscillation.html" xlink:title="type_oscillation">
<polygon fill="#337ab7" stroke="#337ab7" points="551,-96.012 467,-96.012 467,-70.012 551,-70.012 551,-96.012"/>
<text text-anchor="middle" x="509" y="-80.562" font-family="Helvetica,sans-Serif" font-size="10.50" fill="white">type_oscillation</text>
</a>
</g>
<!-- module~foodie&#45;&gt;module~type_oscillation -->
<g id="edge22" class="edge"><title>module~foodie&#45;&gt;module~type_oscillation</title>
<path fill="none" stroke="black" stroke-dasharray="5,2" d="M430.023,-113.56C440.864,-109.366 453.632,-104.428 465.705,-99.7582"/>
<polygon fill="black" stroke="black" points="467.124,-102.962 475.188,-96.0904 464.598,-96.4336 467.124,-102.962"/>
</g>
<!-- program~integrate_lorenz -->
<g id="node15" class="node"><title>program~integrate_lorenz</title>
<a xlink:href="../program/integrate_lorenz.html" xlink:title="integrate_lorenz">
<polygon fill="#f0ad4e" stroke="#f0ad4e" points="687,-32.012 597,-32.012 597,-6.01202 687,-6.01202 687,-32.012"/>
<text text-anchor="middle" x="642" y="-16.562" font-family="Helvetica,sans-Serif" font-size="10.50" fill="white">integrate_lorenz</text>
</a>
</g>
<!-- module~foodie&#45;&gt;program~integrate_lorenz -->
<g id="edge24" class="edge"><title>module~foodie&#45;&gt;program~integrate_lorenz</title>
<path fill="none" stroke="black" stroke-dasharray="5,2" d="M406.209,-110.773C412.779,-86.9512 430.255,-37.4468 466,-17.012 502.373,3.78159 550.27,1.72807 586.913,-4.66413"/>
<polygon fill="black" stroke="black" points="586.454,-8.13934 596.931,-6.56673 587.76,-1.26227 586.454,-8.13934"/>
</g>
<!-- module~foodie_integrator_low_storage_runge_kutta&#45;&gt;module~foodie -->
<g id="edge26" class="edge"><title>module~foodie_integrator_low_storage_runge_kutta&#45;&gt;module~foodie</title>
<path fill="none" stroke="black" stroke-dasharray="5,2" d="M313.989,-176.989C322.931,-174.494 331.761,-171.53 340,-168.012 354.275,-161.917 368.587,-152.275 379.954,-143.567"/>
<polygon fill="black" stroke="black" points="382.364,-146.123 388.023,-137.166 378.014,-140.639 382.364,-146.123"/>
</g>
<!-- module~foodie_integrator_leapfrog&#45;&gt;module~foodie -->
<g id="edge28" class="edge"><title>module~foodie_integrator_leapfrog&#45;&gt;module~foodie</title>
<path fill="none" stroke="black" stroke-dasharray="5,2" d="M299.867,-137.127C322.338,-134.27 346.366,-131.214 365.571,-128.772"/>
<polygon fill="black" stroke="black" points="366.225,-132.217 375.704,-127.483 365.342,-125.273 366.225,-132.217"/>
</g>
<!-- module~foodie_integrator_tvd_runge_kutta&#45;&gt;module~foodie -->
<g id="edge30" class="edge"><title>module~foodie_integrator_tvd_runge_kutta&#45;&gt;module~foodie</title>
<path fill="none" stroke="black" stroke-dasharray="5,2" d="M318.527,-113.27C335.221,-115.393 351.815,-117.503 365.818,-119.284"/>
<polygon fill="black" stroke="black" points="365.619,-122.786 375.981,-120.576 366.502,-115.842 365.619,-122.786"/>
</g>
<!-- module~foodie_integrator_adams_bashforth&#45;&gt;module~foodie -->
<g id="edge32" class="edge"><title>module~foodie_integrator_adams_bashforth&#45;&gt;module~foodie</title>
<path fill="none" stroke="black" stroke-dasharray="5,2" d="M313.989,-71.0349C322.931,-73.5304 331.761,-76.4943 340,-80.012 354.275,-86.1067 368.587,-95.7495 379.954,-104.457"/>
<polygon fill="black" stroke="black" points="378.014,-107.385 388.023,-110.858 382.364,-101.901 378.014,-107.385"/>
</g>
<!-- module~foodie_integrator_euler_explicit&#45;&gt;module~foodie -->
<g id="edge34" class="edge"><title>module~foodie_integrator_euler_explicit&#45;&gt;module~foodie</title>
<path fill="none" stroke="black" stroke-dasharray="5,2" d="M311.166,-22.9203C321.349,-26.1084 331.247,-30.3593 340,-36.012 364.687,-51.9554 382.725,-81.2654 393.023,-101.658"/>
<polygon fill="black" stroke="black" points="389.96,-103.363 397.452,-110.854 396.266,-100.326 389.96,-103.363"/>
</g>
<!-- module~type_euler_1d&#45;&gt;program~integrate_euler_1d -->
<g id="edge2" class="edge"><title>module~type_euler_1d&#45;&gt;program~integrate_euler_1d</title>
<path fill="none" stroke="black" stroke-dasharray="5,2" d="M550.353,-240.483C559.732,-239.002 569.894,-237.397 579.922,-235.814"/>
<polygon fill="black" stroke="black" points="580.539,-239.26 589.87,-234.243 579.447,-232.346 580.539,-239.26"/>
</g>
<!-- module~type_burgers&#45;&gt;program~integrate_burgers -->
<g id="edge4" class="edge"><title>module~type_burgers&#45;&gt;program~integrate_burgers</title>
<path fill="none" stroke="black" stroke-dasharray="5,2" d="M547.112,-154.123C559.346,-150.627 573.158,-146.681 586.38,-142.904"/>
<polygon fill="black" stroke="black" points="587.686,-146.171 596.339,-140.058 585.763,-139.44 587.686,-146.171"/>
</g>
<!-- module~type_lorenz&#45;&gt;program~integrate_lorenz -->
<g id="edge6" class="edge"><title>module~type_lorenz&#45;&gt;program~integrate_lorenz</title>
<path fill="none" stroke="black" stroke-dasharray="5,2" d="M543.251,-33.8615C556.508,-31.8679 572.022,-29.535 586.774,-27.3167"/>
<polygon fill="black" stroke="black" points="587.459,-30.7531 596.827,-25.8049 586.418,-23.8309 587.459,-30.7531"/>
</g>
<!-- module~type_oscillation&#45;&gt;program~integrate_oscillation -->
<g id="edge8" class="edge"><title>module~type_oscillation&#45;&gt;program~integrate_oscillation</title>
<path fill="none" stroke="black" stroke-dasharray="5,2" d="M551.814,-83.012C560.11,-83.012 568.972,-83.012 577.781,-83.012"/>
<polygon fill="black" stroke="black" points="578.06,-86.5121 588.06,-83.012 578.06,-79.5121 578.06,-86.5121"/>
</g>
</g>
</svg>
