<?xml version="1.0" encoding="UTF-8" standalone="no"?>
<!DOCTYPE svg PUBLIC "-//W3C//DTD SVG 1.1//EN"
 "http://www.w3.org/Graphics/SVG/1.1/DTD/svg11.dtd">
<!-- Generated by graphviz version 2.26.3 (20100126.1600)
 -->
<!-- Title: module~~foodie_integrator_low_storage_runge_kutta~~UsedByGraph Pages: 1 -->
<svg width="584pt" height="305pt"
 viewBox="0.00 0.00 584.00 304.93" xmlns="http://www.w3.org/2000/svg" xmlns:xlink="http://www.w3.org/1999/xlink">
<g id="graph1" class="graph" transform="scale(1 1) rotate(0) translate(4 300.927)">
<title>module~~foodie_integrator_low_storage_runge_kutta~~UsedByGraph</title>
<polygon fill="white" stroke="white" points="-4,5 -4,-300.927 581,-300.927 581,5 -4,5"/>
<!-- module~foodie_integrator_low_storage_runge_kutta -->
<g id="node1" class="node"><title>module~foodie_integrator_low_storage_runge_kutta</title>
<polygon fill="none" stroke="black" points="220,-152.927 8.52651e-14,-152.927 0,-126.927 220,-126.927 220,-152.927"/>
<text text-anchor="middle" x="110" y="-137.477" font-family="Helvetica,sans-Serif" font-size="10.50">foodie_integrator_low_storage_runge_kutta</text>
</g>
<!-- module~foodie -->
<g id="node2" class="node"><title>module~foodie</title>
<a xlink:href="../module/foodie.html" xlink:title="foodie">
<polygon fill="#337ab7" stroke="#337ab7" points="310,-152.927 256,-152.927 256,-126.927 310,-126.927 310,-152.927"/>
<text text-anchor="middle" x="283" y="-137.477" font-family="Helvetica,sans-Serif" font-size="10.50" fill="white">foodie</text>
</a>
</g>
<!-- module~foodie_integrator_low_storage_runge_kutta&#45;&gt;module~foodie -->
<g id="edge26" class="edge"><title>module~foodie_integrator_low_storage_runge_kutta&#45;&gt;module~foodie</title>
<path fill="none" stroke="black" stroke-dasharray="5,2" d="M220.054,-139.927C229.125,-139.927 237.822,-139.927 245.703,-139.927"/>
<polygon fill="black" stroke="black" points="245.902,-143.428 255.902,-139.927 245.902,-136.428 245.902,-143.428"/>
</g>
<!-- module~type_oscillation -->
<g id="node3" class="node"><title>module~type_oscillation</title>
<a xlink:href="../module/type_oscillation.html" xlink:title="type_oscillation">
<polygon fill="#337ab7" stroke="#337ab7" points="431,-296.927 347,-296.927 347,-270.927 431,-270.927 431,-296.927"/>
<text text-anchor="middle" x="389" y="-281.477" font-family="Helvetica,sans-Serif" font-size="10.50" fill="white">type_oscillation</text>
</a>
</g>
<!-- module~foodie&#45;&gt;module~type_oscillation -->
<g id="edge10" class="edge"><title>module~foodie&#45;&gt;module~type_oscillation</title>
<path fill="none" stroke="black" stroke-dasharray="5,2" d="M287.566,-153.231C296.07,-176.488 316.214,-225.084 346,-256.927 348.7,-259.814 351.774,-262.518 355.008,-265.015"/>
<polygon fill="black" stroke="black" points="353.051,-267.918 363.252,-270.779 357.062,-262.181 353.051,-267.918"/>
</g>
<!-- module~type_burgers -->
<g id="node4" class="node"><title>module~type_burgers</title>
<a xlink:href="../module/type_burgers.html" xlink:title="type_burgers">
<polygon fill="#337ab7" stroke="#337ab7" points="427,-214.927 351,-214.927 351,-188.927 427,-188.927 427,-214.927"/>
<text text-anchor="middle" x="389" y="-199.477" font-family="Helvetica,sans-Serif" font-size="10.50" fill="white">type_burgers</text>
</a>
</g>
<!-- module~foodie&#45;&gt;module~type_burgers -->
<g id="edge12" class="edge"><title>module~foodie&#45;&gt;module~type_burgers</title>
<path fill="none" stroke="black" stroke-dasharray="5,2" d="M305.48,-153.076C320.658,-161.954 340.901,-173.794 357.657,-183.595"/>
<polygon fill="black" stroke="black" points="356.154,-186.77 366.553,-188.798 359.688,-180.728 356.154,-186.77"/>
</g>
<!-- program~integrate_oscillation -->
<g id="node5" class="node"><title>program~integrate_oscillation</title>
<a xlink:href="../program/integrate_oscillation.html" xlink:title="integrate_oscillation">
<polygon fill="#f0ad4e" stroke="#f0ad4e" points="575,-275.927 469,-275.927 469,-249.927 575,-249.927 575,-275.927"/>
<text text-anchor="middle" x="522" y="-260.477" font-family="Helvetica,sans-Serif" font-size="10.50" fill="white">integrate_oscillation</text>
</a>
</g>
<!-- module~foodie&#45;&gt;program~integrate_oscillation -->
<g id="edge14" class="edge"><title>module~foodie&#45;&gt;program~integrate_oscillation</title>
<path fill="none" stroke="black" stroke-dasharray="5,2" d="M289.069,-153.04C298.48,-171.842 318.423,-206.147 346,-223.927 379.277,-245.383 422.647,-255.157 458.007,-259.555"/>
<polygon fill="black" stroke="black" points="457.898,-263.065 468.227,-260.707 458.681,-256.109 457.898,-263.065"/>
</g>
<!-- program~integrate_burgers -->
<g id="node6" class="node"><title>program~integrate_burgers</title>
<a xlink:href="../program/integrate_burgers.html" xlink:title="integrate_burgers">
<polygon fill="#f0ad4e" stroke="#f0ad4e" points="570,-193.927 474,-193.927 474,-167.927 570,-167.927 570,-193.927"/>
<text text-anchor="middle" x="522" y="-178.477" font-family="Helvetica,sans-Serif" font-size="10.50" fill="white">integrate_burgers</text>
</a>
</g>
<!-- module~foodie&#45;&gt;program~integrate_burgers -->
<g id="edge16" class="edge"><title>module~foodie&#45;&gt;program~integrate_burgers</title>
<path fill="none" stroke="black" stroke-dasharray="5,2" d="M310.416,-144.631C347.505,-150.993 414.62,-162.507 463.338,-170.864"/>
<polygon fill="black" stroke="black" points="462.989,-174.355 473.437,-172.596 464.173,-167.456 462.989,-174.355"/>
</g>
<!-- module~type_euler_1d -->
<g id="node7" class="node"><title>module~type_euler_1d</title>
<a xlink:href="../module/type_euler_1d.html" xlink:title="type_euler_1D">
<polygon fill="#337ab7" stroke="#337ab7" points="430,-132.927 348,-132.927 348,-106.927 430,-106.927 430,-132.927"/>
<text text-anchor="middle" x="389" y="-117.477" font-family="Helvetica,sans-Serif" font-size="10.50" fill="white">type_euler_1D</text>
</a>
</g>
<!-- module~foodie&#45;&gt;module~type_euler_1d -->
<g id="edge18" class="edge"><title>module~foodie&#45;&gt;module~type_euler_1d</title>
<path fill="none" stroke="black" stroke-dasharray="5,2" d="M310.023,-134.829C318.49,-133.231 328.133,-131.412 337.702,-129.606"/>
<polygon fill="black" stroke="black" points="338.417,-133.033 347.594,-127.74 337.119,-126.155 338.417,-133.033"/>
</g>
<!-- program~integrate_euler_1d -->
<g id="node8" class="node"><title>program~integrate_euler_1d</title>
<a xlink:href="../program/integrate_euler_1d.html" xlink:title="integrate_euler_1D">
<polygon fill="#f0ad4e" stroke="#f0ad4e" points="574,-102.927 470,-102.927 470,-76.9274 574,-76.9274 574,-102.927"/>
<text text-anchor="middle" x="522" y="-87.4774" font-family="Helvetica,sans-Serif" font-size="10.50" fill="white">integrate_euler_1D</text>
</a>
</g>
<!-- module~foodie&#45;&gt;program~integrate_euler_1d -->
<g id="edge20" class="edge"><title>module~foodie&#45;&gt;program~integrate_euler_1d</title>
<path fill="none" stroke="black" stroke-dasharray="5,2" d="M297.798,-126.639C309.836,-116.725 327.762,-103.905 346,-97.9274 382.35,-86.0137 425.188,-83.8311 459.5,-84.715"/>
<polygon fill="black" stroke="black" points="459.741,-88.2256 469.858,-85.0804 459.987,-81.2299 459.741,-88.2256"/>
</g>
<!-- module~type_lorenz -->
<g id="node9" class="node"><title>module~type_lorenz</title>
<a xlink:href="../module/type_lorenz.html" xlink:title="type_lorenz">
<polygon fill="#337ab7" stroke="#337ab7" points="423,-50.9274 355,-50.9274 355,-24.9274 423,-24.9274 423,-50.9274"/>
<text text-anchor="middle" x="389" y="-35.4774" font-family="Helvetica,sans-Serif" font-size="10.50" fill="white">type_lorenz</text>
</a>
</g>
<!-- module~foodie&#45;&gt;module~type_lorenz -->
<g id="edge22" class="edge"><title>module~foodie&#45;&gt;module~type_lorenz</title>
<path fill="none" stroke="black" stroke-dasharray="5,2" d="M292.171,-126.649C303.57,-110.756 324.198,-83.9112 346,-64.9274 349.382,-61.9825 353.118,-59.1417 356.934,-56.48"/>
<polygon fill="black" stroke="black" points="358.879,-59.3896 365.308,-50.9682 355.031,-53.5425 358.879,-59.3896"/>
</g>
<!-- program~integrate_lorenz -->
<g id="node10" class="node"><title>program~integrate_lorenz</title>
<a xlink:href="../program/integrate_lorenz.html" xlink:title="integrate_lorenz">
<polygon fill="#f0ad4e" stroke="#f0ad4e" points="567,-39.9274 477,-39.9274 477,-13.9274 567,-13.9274 567,-39.9274"/>
<text text-anchor="middle" x="522" y="-24.4774" font-family="Helvetica,sans-Serif" font-size="10.50" fill="white">integrate_lorenz</text>
</a>
</g>
<!-- module~foodie&#45;&gt;program~integrate_lorenz -->
<g id="edge24" class="edge"><title>module~foodie&#45;&gt;program~integrate_lorenz</title>
<path fill="none" stroke="black" stroke-dasharray="5,2" d="M285.112,-126.765C290.161,-100.217 305.661,-40.6796 346,-15.9274 385.644,8.39791 440.219,-0.0226532 478.041,-10.8899"/>
<polygon fill="black" stroke="black" points="477.171,-14.2835 487.757,-13.8402 479.205,-7.5855 477.171,-14.2835"/>
</g>
<!-- module~type_oscillation&#45;&gt;program~integrate_oscillation -->
<g id="edge2" class="edge"><title>module~type_oscillation&#45;&gt;program~integrate_oscillation</title>
<path fill="none" stroke="black" stroke-dasharray="5,2" d="M431.814,-277.167C440.201,-275.843 449.165,-274.428 458.068,-273.022"/>
<polygon fill="black" stroke="black" points="458.728,-276.461 468.06,-271.444 457.636,-269.547 458.728,-276.461"/>
</g>
<!-- module~type_burgers&#45;&gt;program~integrate_burgers -->
<g id="edge4" class="edge"><title>module~type_burgers&#45;&gt;program~integrate_burgers</title>
<path fill="none" stroke="black" stroke-dasharray="5,2" d="M427.112,-195.91C438.387,-194.13 451.001,-192.138 463.259,-190.202"/>
<polygon fill="black" stroke="black" points="464.102,-193.613 473.434,-188.596 463.011,-186.698 464.102,-193.613"/>
</g>
<!-- module~type_euler_1d&#45;&gt;program~integrate_euler_1d -->
<g id="edge6" class="edge"><title>module~type_euler_1d&#45;&gt;program~integrate_euler_1d</title>
<path fill="none" stroke="black" stroke-dasharray="5,2" d="M430.353,-110.6C439.732,-108.484 449.894,-106.192 459.922,-103.93"/>
<polygon fill="black" stroke="black" points="460.885,-107.301 469.87,-101.686 459.345,-100.472 460.885,-107.301"/>
</g>
<!-- module~type_lorenz&#45;&gt;program~integrate_lorenz -->
<g id="edge8" class="edge"><title>module~type_lorenz&#45;&gt;program~integrate_lorenz</title>
<path fill="none" stroke="black" stroke-dasharray="5,2" d="M423.251,-35.0946C436.508,-33.9982 452.022,-32.7151 466.774,-31.495"/>
<polygon fill="black" stroke="black" points="467.15,-34.9759 476.827,-30.6635 466.573,-27.9998 467.15,-34.9759"/>
</g>
</g>
</svg>
