<?xml version="1.0" encoding="UTF-8" standalone="no"?>
<!DOCTYPE svg PUBLIC "-//W3C//DTD SVG 1.1//EN"
 "http://www.w3.org/Graphics/SVG/1.1/DTD/svg11.dtd">
<!-- Generated by graphviz version 2.26.3 (20100126.1600)
 -->
<!-- Title: module~~foodie~~UsedByGraph Pages: 1 -->
<svg width="412pt" height="353pt"
 viewBox="0.00 0.00 412.00 353.11" xmlns="http://www.w3.org/2000/svg" xmlns:xlink="http://www.w3.org/1999/xlink">
<g id="graph1" class="graph" transform="scale(1 1) rotate(0) translate(4 349.113)">
<title>module~~foodie~~UsedByGraph</title>
<polygon fill="white" stroke="white" points="-4,5 -4,-349.113 409,-349.113 409,5 -4,5"/>
<!-- module~foodie -->
<g id="node1" class="node"><title>module~foodie</title>
<polygon fill="none" stroke="black" points="54,-184.407 2.13163e-14,-184.407 0,-158.407 54,-158.407 54,-184.407"/>
<text text-anchor="middle" x="27" y="-168.957" font-family="Helvetica,sans-Serif" font-size="10.50">foodie</text>
</g>
<!-- program~integrate_burgers -->
<g id="node2" class="node"><title>program~integrate_burgers</title>
<a xlink:href="../program/integrate_burgers.html" xlink:title="integrate_burgers">
<polygon fill="#f0ad4e" stroke="#f0ad4e" points="377,-330.407 281,-330.407 281,-304.407 377,-304.407 377,-330.407"/>
<text text-anchor="middle" x="329" y="-314.957" font-family="Helvetica,sans-Serif" font-size="10.50" fill="white">integrate_burgers</text>
</a>
</g>
<!-- module~foodie&#45;&gt;program~integrate_burgers -->
<g id="edge12" class="edge"><title>module~foodie&#45;&gt;program~integrate_burgers</title>
<path fill="none" stroke="black" stroke-dasharray="5,2" d="M27.9907,-184.679C31.0436,-214.868 43.178,-288.45 90,-319.407 145.976,-356.416 226.606,-345.869 278.404,-333.08"/>
<polygon fill="black" stroke="black" points="279.557,-336.397 288.363,-330.506 277.806,-329.62 279.557,-336.397"/>
</g>
<!-- module~type_euler_1d -->
<g id="node3" class="node"><title>module~type_euler_1d</title>
<a xlink:href="../module/type_euler_1d.html" xlink:title="type_euler_1D">
<polygon fill="#337ab7" stroke="#337ab7" points="195,-266.407 113,-266.407 113,-240.407 195,-240.407 195,-266.407"/>
<text text-anchor="middle" x="154" y="-250.957" font-family="Helvetica,sans-Serif" font-size="10.50" fill="white">type_euler_1D</text>
</a>
</g>
<!-- module~foodie&#45;&gt;module~type_euler_1d -->
<g id="edge14" class="edge"><title>module~foodie&#45;&gt;module~type_euler_1d</title>
<path fill="none" stroke="black" stroke-dasharray="5,2" d="M39.5359,-184.534C51.599,-196.607 70.7913,-214.405 90,-226.407 95.7033,-229.97 101.959,-233.263 108.255,-236.233"/>
<polygon fill="black" stroke="black" points="106.893,-239.457 117.45,-240.348 109.752,-233.068 106.893,-239.457"/>
</g>
<!-- program~integrate_lorenz -->
<g id="node4" class="node"><title>program~integrate_lorenz</title>
<a xlink:href="../program/integrate_lorenz.html" xlink:title="integrate_lorenz">
<polygon fill="#f0ad4e" stroke="#f0ad4e" points="374,-184.407 284,-184.407 284,-158.407 374,-158.407 374,-184.407"/>
<text text-anchor="middle" x="329" y="-168.957" font-family="Helvetica,sans-Serif" font-size="10.50" fill="white">integrate_lorenz</text>
</a>
</g>
<!-- module~foodie&#45;&gt;program~integrate_lorenz -->
<g id="edge16" class="edge"><title>module~foodie&#45;&gt;program~integrate_lorenz</title>
<path fill="none" stroke="black" stroke-dasharray="5,2" d="M54.0238,-183.808C79.2533,-194.49 118.275,-208.748 154,-212.407"/>
<path fill="none" stroke="black" stroke-dasharray="5,2" d="M154,-212.407C165.991,-213.635 227.256,-198.445 273.948,-186.209"/>
<polygon fill="black" stroke="black" points="274.888,-189.58 283.667,-183.649 273.106,-182.811 274.888,-189.58"/>
</g>
<!-- program~integrate_oscillation -->
<g id="node5" class="node"><title>program~integrate_oscillation</title>
<a xlink:href="../program/integrate_oscillation.html" xlink:title="integrate_oscillation">
<polygon fill="#f0ad4e" stroke="#f0ad4e" points="382,-112.407 276,-112.407 276,-86.407 382,-86.407 382,-112.407"/>
<text text-anchor="middle" x="329" y="-96.957" font-family="Helvetica,sans-Serif" font-size="10.50" fill="white">integrate_oscillation</text>
</a>
</g>
<!-- module~foodie&#45;&gt;program~integrate_oscillation -->
<g id="edge18" class="edge"><title>module~foodie&#45;&gt;program~integrate_oscillation</title>
<path fill="none" stroke="black" stroke-dasharray="5,2" d="M54.0445,-161.098C65.0911,-157.115 78.0566,-152.727 90,-149.407 148.722,-133.086 216.869,-119.327 265.333,-110.399"/>
<polygon fill="black" stroke="black" points="266.156,-113.807 275.365,-108.569 264.899,-106.921 266.156,-113.807"/>
</g>
<!-- module~type_lorenz -->
<g id="node6" class="node"><title>module~type_lorenz</title>
<a xlink:href="../module/type_lorenz.html" xlink:title="type_lorenz">
<polygon fill="#337ab7" stroke="#337ab7" points="188,-184.407 120,-184.407 120,-158.407 188,-158.407 188,-184.407"/>
<text text-anchor="middle" x="154" y="-168.957" font-family="Helvetica,sans-Serif" font-size="10.50" fill="white">type_lorenz</text>
</a>
</g>
<!-- module~foodie&#45;&gt;module~type_lorenz -->
<g id="edge20" class="edge"><title>module~foodie&#45;&gt;module~type_lorenz</title>
<path fill="none" stroke="black" stroke-dasharray="5,2" d="M54.2447,-171.407C70.2821,-171.407 90.9594,-171.407 109.326,-171.407"/>
<polygon fill="black" stroke="black" points="109.534,-174.907 119.534,-171.407 109.534,-167.907 109.534,-174.907"/>
</g>
<!-- module~type_burgers -->
<g id="node7" class="node"><title>module~type_burgers</title>
<a xlink:href="../module/type_burgers.html" xlink:title="type_burgers">
<polygon fill="#337ab7" stroke="#337ab7" points="192,-310.407 116,-310.407 116,-284.407 192,-284.407 192,-310.407"/>
<text text-anchor="middle" x="154" y="-294.957" font-family="Helvetica,sans-Serif" font-size="10.50" fill="white">type_burgers</text>
</a>
</g>
<!-- module~foodie&#45;&gt;module~type_burgers -->
<g id="edge22" class="edge"><title>module~foodie&#45;&gt;module~type_burgers</title>
<path fill="none" stroke="black" stroke-dasharray="5,2" d="M31.5659,-184.6C39.8191,-206.556 59.2706,-250.627 90,-275.407 94.9217,-279.376 100.602,-282.648 106.505,-285.342"/>
<polygon fill="black" stroke="black" points="105.303,-288.631 115.887,-289.114 107.915,-282.136 105.303,-288.631"/>
</g>
<!-- program~integrate_euler_1d -->
<g id="node8" class="node"><title>program~integrate_euler_1d</title>
<a xlink:href="../program/integrate_euler_1d.html" xlink:title="integrate_euler_1D">
<polygon fill="#f0ad4e" stroke="#f0ad4e" points="381,-228.407 277,-228.407 277,-202.407 381,-202.407 381,-228.407"/>
<text text-anchor="middle" x="329" y="-212.957" font-family="Helvetica,sans-Serif" font-size="10.50" fill="white">integrate_euler_1D</text>
</a>
</g>
<!-- module~foodie&#45;&gt;program~integrate_euler_1d -->
<g id="edge24" class="edge"><title>module~foodie&#45;&gt;program~integrate_euler_1d</title>
<path fill="none" stroke="black" stroke-dasharray="5,2" d="M154,-212.407C191.256,-216.223 233.202,-217.06 266.686,-216.902"/>
<polygon fill="black" stroke="black" points="266.819,-220.401 276.792,-216.823 266.765,-213.401 266.819,-220.401"/>
</g>
<!-- module~type_oscillation -->
<g id="node9" class="node"><title>module~type_oscillation</title>
<a xlink:href="../module/type_oscillation.html" xlink:title="type_oscillation">
<polygon fill="#337ab7" stroke="#337ab7" points="196,-102.407 112,-102.407 112,-76.407 196,-76.407 196,-102.407"/>
<text text-anchor="middle" x="154" y="-86.957" font-family="Helvetica,sans-Serif" font-size="10.50" fill="white">type_oscillation</text>
</a>
</g>
<!-- module~foodie&#45;&gt;module~type_oscillation -->
<g id="edge26" class="edge"><title>module~foodie&#45;&gt;module~type_oscillation</title>
<path fill="none" stroke="black" stroke-dasharray="5,2" d="M39.5359,-158.281C51.599,-146.207 70.7913,-128.409 90,-116.407 95.7033,-112.844 101.959,-109.551 108.255,-106.581"/>
<polygon fill="black" stroke="black" points="109.752,-109.746 117.45,-102.466 106.893,-103.357 109.752,-109.746"/>
</g>
<!-- module~type_euler_1d_openmp -->
<g id="node10" class="node"><title>module~type_euler_1d_openmp</title>
<a xlink:href="../module/type_euler_1d_openmp.html" xlink:title="type_euler_1D_openmp">
<polygon fill="#337ab7" stroke="#337ab7" points="217,-58.407 91,-58.407 91,-32.407 217,-32.407 217,-58.407"/>
<text text-anchor="middle" x="154" y="-42.957" font-family="Helvetica,sans-Serif" font-size="10.50" fill="white">type_euler_1D_openmp</text>
</a>
</g>
<!-- module~foodie&#45;&gt;module~type_euler_1d_openmp -->
<g id="edge28" class="edge"><title>module~foodie&#45;&gt;module~type_euler_1d_openmp</title>
<path fill="none" stroke="black" stroke-dasharray="5,2" d="M31.5659,-158.214C39.8191,-136.258 59.2706,-92.1867 90,-67.407 91.7463,-65.9988 93.5882,-64.6783 95.5016,-63.4402"/>
<polygon fill="black" stroke="black" points="97.2625,-66.4655 104.275,-58.5235 93.8404,-60.3591 97.2625,-66.4655"/>
</g>
<!-- program~integrate_euler_1d_openmp -->
<g id="node11" class="node"><title>program~integrate_euler_1d_openmp</title>
<a xlink:href="../program/integrate_euler_1d_openmp.html" xlink:title="integrate_euler_1D_openmp">
<polygon fill="#f0ad4e" stroke="#f0ad4e" points="403,-48.407 255,-48.407 255,-22.407 403,-22.407 403,-48.407"/>
<text text-anchor="middle" x="329" y="-32.957" font-family="Helvetica,sans-Serif" font-size="10.50" fill="white">integrate_euler_1D_openmp</text>
</a>
</g>
<!-- module~foodie&#45;&gt;program~integrate_euler_1d_openmp -->
<g id="edge30" class="edge"><title>module~foodie&#45;&gt;program~integrate_euler_1d_openmp</title>
<path fill="none" stroke="black" stroke-dasharray="5,2" d="M27.9907,-158.135C31.0436,-127.946 43.178,-54.3636 90,-23.407 148.969,15.5805 235.136,-2.56135 286.293,-19.1122"/>
<polygon fill="black" stroke="black" points="285.445,-22.5195 296.039,-22.3837 287.673,-15.8834 285.445,-22.5195"/>
</g>
<!-- module~type_euler_1d&#45;&gt;program~integrate_euler_1d -->
<g id="edge2" class="edge"><title>module~type_euler_1d&#45;&gt;program~integrate_euler_1d</title>
<path fill="none" stroke="black" stroke-dasharray="5,2" d="M195.03,-244.498C216.422,-239.853 243.034,-234.074 266.89,-228.894"/>
<polygon fill="black" stroke="black" points="267.892,-232.258 276.922,-226.715 266.407,-225.417 267.892,-232.258"/>
</g>
<!-- module~type_lorenz&#45;&gt;program~integrate_lorenz -->
<g id="edge4" class="edge"><title>module~type_lorenz&#45;&gt;program~integrate_lorenz</title>
<path fill="none" stroke="black" stroke-dasharray="5,2" d="M188.157,-171.407C212.519,-171.407 245.803,-171.407 273.898,-171.407"/>
<polygon fill="black" stroke="black" points="273.987,-174.907 283.987,-171.407 273.987,-167.907 273.987,-174.907"/>
</g>
<!-- module~type_burgers&#45;&gt;program~integrate_burgers -->
<g id="edge6" class="edge"><title>module~type_burgers&#45;&gt;program~integrate_burgers</title>
<path fill="none" stroke="black" stroke-dasharray="5,2" d="M192.404,-301.796C215.232,-304.405 244.651,-307.767 270.337,-310.703"/>
<polygon fill="black" stroke="black" points="270.012,-314.188 280.344,-311.846 270.807,-307.233 270.012,-314.188"/>
</g>
<!-- module~type_oscillation&#45;&gt;program~integrate_oscillation -->
<g id="edge8" class="edge"><title>module~type_oscillation&#45;&gt;program~integrate_oscillation</title>
<path fill="none" stroke="black" stroke-dasharray="5,2" d="M196.81,-91.8533C217.343,-93.0266 242.365,-94.4564 265.092,-95.7551"/>
<polygon fill="black" stroke="black" points="265.164,-99.2649 275.348,-96.3412 265.564,-92.2763 265.164,-99.2649"/>
</g>
<!-- module~type_euler_1d_openmp&#45;&gt;program~integrate_euler_1d_openmp -->
<g id="edge10" class="edge"><title>module~type_euler_1d_openmp&#45;&gt;program~integrate_euler_1d_openmp</title>
<path fill="none" stroke="black" stroke-dasharray="5,2" d="M217.674,-41.7685C226.337,-41.2735 235.337,-40.7592 244.297,-40.2472"/>
<polygon fill="black" stroke="black" points="244.594,-43.736 254.378,-39.6711 244.194,-36.7474 244.594,-43.736"/>
</g>
</g>
</svg>
