<?xml version="1.0" encoding="UTF-8" standalone="no"?>
<!DOCTYPE svg PUBLIC "-//W3C//DTD SVG 1.1//EN"
 "http://www.w3.org/Graphics/SVG/1.1/DTD/svg11.dtd">
<!-- Generated by graphviz version 2.26.3 (20100126.1600)
 -->
<!-- Title: module~~type_lorenz~~UsesGraph Pages: 1 -->
<svg width="641pt" height="247pt"
 viewBox="0.00 0.00 641.00 247.45" xmlns="http://www.w3.org/2000/svg" xmlns:xlink="http://www.w3.org/1999/xlink">
<g id="graph1" class="graph" transform="scale(0.983129 0.983129) rotate(0) translate(4 247.699)">
<title>module~~type_lorenz~~UsesGraph</title>
<polygon fill="white" stroke="white" points="-4,5 -4,-247.699 649,-247.699 649,5 -4,5"/>
<!-- module~type_lorenz -->
<g id="node1" class="node"><title>module~type_lorenz</title>
<polygon fill="none" stroke="black" points="644,-194 576,-194 576,-168 644,-168 644,-194"/>
<text text-anchor="middle" x="610" y="-178.55" font-family="Helvetica,sans-Serif" font-size="10.50">type_lorenz</text>
</g>
<!-- IR_Precision -->
<g id="node2" class="node"><title>IR_Precision</title>
<polygon fill="#337ab7" stroke="#337ab7" points="73,-111 1,-111 1,-85 73,-85 73,-111"/>
<text text-anchor="middle" x="37" y="-95.55" font-family="Helvetica,sans-Serif" font-size="10.50" fill="white">IR_Precision</text>
</g>
<!-- IR_Precision&#45;&gt;module~type_lorenz -->
<g id="edge30" class="edge"><title>IR_Precision&#45;&gt;module~type_lorenz</title>
<path fill="none" stroke="black" stroke-dasharray="5,2" d="M152,-224C298.559,-270.238 483.564,-222.669 566.41,-196.192"/>
<polygon fill="black" stroke="black" points="567.569,-199.496 575.998,-193.076 565.405,-192.839 567.569,-199.496"/>
</g>
<!-- module~foodie_integrator_low_storage_runge_kutta -->
<g id="node4" class="node"><title>module~foodie_integrator_low_storage_runge_kutta</title>
<a xlink:href="../module/foodie_integrator_low_storage_runge_kutta.html" xlink:title="foodie_integrator_low_storage_runge_kutta">
<polygon fill="#337ab7" stroke="#337ab7" points="450,-26 230,-26 230,-1.24345e-14 450,-3.55271e-15 450,-26"/>
<text text-anchor="middle" x="340" y="-10.55" font-family="Helvetica,sans-Serif" font-size="10.50" fill="white">foodie_integrator_low_storage_runge_kutta</text>
</a>
</g>
<!-- IR_Precision&#45;&gt;module~foodie_integrator_low_storage_runge_kutta -->
<g id="edge2" class="edge"><title>IR_Precision&#45;&gt;module~foodie_integrator_low_storage_runge_kutta</title>
<path fill="none" stroke="black" stroke-dasharray="5,2" d="M67.6675,-84.923C90.5132,-75.7126 122.69,-63.8466 152,-57"/>
<path fill="none" stroke="black" stroke-dasharray="5,2" d="M152,-57C187.075,-48.8066 194.981,-43.4272 230,-35 239.901,-32.6174 250.346,-30.2903 260.701,-28.0954"/>
<polygon fill="black" stroke="black" points="261.506,-31.503 270.58,-26.034 260.076,-24.6506 261.506,-31.503"/>
</g>
<!-- module~foodie_integrator_tvd_runge_kutta -->
<g id="node5" class="node"><title>module~foodie_integrator_tvd_runge_kutta</title>
<a xlink:href="../module/foodie_integrator_tvd_runge_kutta.html" xlink:title="foodie_integrator_tvd_runge_kutta">
<polygon fill="#337ab7" stroke="#337ab7" points="428,-196 252,-196 252,-170 428,-170 428,-196"/>
<text text-anchor="middle" x="340" y="-180.55" font-family="Helvetica,sans-Serif" font-size="10.50" fill="white">foodie_integrator_tvd_runge_kutta</text>
</a>
</g>
<!-- IR_Precision&#45;&gt;module~foodie_integrator_tvd_runge_kutta -->
<g id="edge6" class="edge"><title>IR_Precision&#45;&gt;module~foodie_integrator_tvd_runge_kutta</title>
<path fill="none" stroke="black" stroke-dasharray="5,2" d="M152,-224C158.098,-225.924 224.168,-210.876 276.281,-198.472"/>
<polygon fill="black" stroke="black" points="277.25,-201.839 286.164,-196.112 275.624,-195.031 277.25,-201.839"/>
</g>
<!-- module~type_integrand -->
<g id="node6" class="node"><title>module~type_integrand</title>
<a xlink:href="../module/type_integrand.html" xlink:title="type_integrand">
<polygon fill="#337ab7" stroke="#337ab7" points="194,-111 110,-111 110,-85 194,-85 194,-111"/>
<text text-anchor="middle" x="152" y="-95.55" font-family="Helvetica,sans-Serif" font-size="10.50" fill="white">type_integrand</text>
</a>
</g>
<!-- IR_Precision&#45;&gt;module~type_integrand -->
<g id="edge10" class="edge"><title>IR_Precision&#45;&gt;module~type_integrand</title>
<path fill="none" stroke="black" stroke-dasharray="5,2" d="M73.7029,-98C81.9237,-98 90.8,-98 99.521,-98"/>
<polygon fill="black" stroke="black" points="99.6389,-101.5 109.639,-98 99.6388,-94.5001 99.6389,-101.5"/>
</g>
<!-- module~foodie_integrator_euler_explicit -->
<g id="node7" class="node"><title>module~foodie_integrator_euler_explicit</title>
<a xlink:href="../module/foodie_integrator_euler_explicit.html" xlink:title="foodie_integrator_euler_explicit">
<polygon fill="#337ab7" stroke="#337ab7" points="421,-152 259,-152 259,-126 421,-126 421,-152"/>
<text text-anchor="middle" x="340" y="-136.55" font-family="Helvetica,sans-Serif" font-size="10.50" fill="white">foodie_integrator_euler_explicit</text>
</a>
</g>
<!-- IR_Precision&#45;&gt;module~foodie_integrator_euler_explicit -->
<g id="edge12" class="edge"><title>IR_Precision&#45;&gt;module~foodie_integrator_euler_explicit</title>
<path fill="none" stroke="black" stroke-dasharray="5,2" d="M43.2055,-111.321C57.4806,-139.966 95.7943,-206.268 152,-224"/>
<path fill="none" stroke="black" stroke-dasharray="5,2" d="M152,-224C194.497,-237.407 189.652,-179.916 230,-161 236.102,-158.139 242.563,-155.65 249.176,-153.484"/>
<polygon fill="black" stroke="black" points="250.386,-156.775 258.949,-150.536 248.364,-150.073 250.386,-156.775"/>
</g>
<!-- module~foodie_integrator_adams_bashforth -->
<g id="node8" class="node"><title>module~foodie_integrator_adams_bashforth</title>
<a xlink:href="../module/foodie_integrator_adams_bashforth.html" xlink:title="foodie_integrator_adams_bashforth">
<polygon fill="#337ab7" stroke="#337ab7" points="431,-70 249,-70 249,-44 431,-44 431,-70"/>
<text text-anchor="middle" x="340" y="-54.55" font-family="Helvetica,sans-Serif" font-size="10.50" fill="white">foodie_integrator_adams_bashforth</text>
</a>
</g>
<!-- IR_Precision&#45;&gt;module~foodie_integrator_adams_bashforth -->
<g id="edge16" class="edge"><title>IR_Precision&#45;&gt;module~foodie_integrator_adams_bashforth</title>
<path fill="none" stroke="black" stroke-dasharray="5,2" d="M152,-57C179.458,-50.5859 209.793,-48.5009 237.937,-48.5536"/>
<polygon fill="black" stroke="black" points="238.16,-52.0561 248.198,-48.6656 238.236,-45.0565 238.16,-52.0561"/>
</g>
<!-- module~foodie -->
<g id="node3" class="node"><title>module~foodie</title>
<a xlink:href="../module/foodie.html" xlink:title="foodie">
<polygon fill="#337ab7" stroke="#337ab7" points="540,-131 486,-131 486,-105 540,-105 540,-131"/>
<text text-anchor="middle" x="513" y="-115.55" font-family="Helvetica,sans-Serif" font-size="10.50" fill="white">foodie</text>
</a>
</g>
<!-- module~foodie&#45;&gt;module~type_lorenz -->
<g id="edge32" class="edge"><title>module~foodie&#45;&gt;module~type_lorenz</title>
<path fill="none" stroke="black" stroke-dasharray="5,2" d="M533.098,-131.054C547.015,-140.092 565.748,-152.259 581.241,-162.321"/>
<polygon fill="black" stroke="black" points="579.634,-165.451 589.927,-167.963 583.447,-159.581 579.634,-165.451"/>
</g>
<!-- module~foodie_integrator_low_storage_runge_kutta&#45;&gt;module~foodie -->
<g id="edge20" class="edge"><title>module~foodie_integrator_low_storage_runge_kutta&#45;&gt;module~foodie</title>
<path fill="none" stroke="black" stroke-dasharray="5,2" d="M432.033,-26.0104C438.326,-28.5168 444.388,-31.4857 450,-35 473.61,-49.7845 491.61,-76.8129 502.208,-96.0067"/>
<polygon fill="black" stroke="black" points="499.174,-97.7568 506.936,-104.967 505.365,-94.4897 499.174,-97.7568"/>
</g>
<!-- module~foodie_integrator_tvd_runge_kutta&#45;&gt;module~foodie -->
<g id="edge22" class="edge"><title>module~foodie_integrator_tvd_runge_kutta&#45;&gt;module~foodie</title>
<path fill="none" stroke="black" stroke-dasharray="5,2" d="M423.659,-169.968C432.708,-167.473 441.652,-164.511 450,-161 464.007,-155.108 478.115,-145.859 489.419,-137.446"/>
<polygon fill="black" stroke="black" points="491.683,-140.12 497.469,-131.244 487.411,-134.575 491.683,-140.12"/>
</g>
<!-- module~type_integrand&#45;&gt;module~foodie -->
<g id="edge24" class="edge"><title>module~type_integrand&#45;&gt;module~foodie</title>
<path fill="none" stroke="black" stroke-dasharray="5,2" d="M194.118,-100.333C265.266,-104.275 408.104,-112.189 475.792,-115.939"/>
<polygon fill="black" stroke="black" points="475.809,-119.445 485.987,-116.503 476.196,-112.456 475.809,-119.445"/>
</g>
<!-- module~type_integrand&#45;&gt;module~foodie_integrator_low_storage_runge_kutta -->
<g id="edge4" class="edge"><title>module~type_integrand&#45;&gt;module~foodie_integrator_low_storage_runge_kutta</title>
<path fill="none" stroke="black" stroke-dasharray="5,2" d="M174.415,-84.8403C180.931,-80.6862 187.926,-75.8957 194,-71 211.618,-56.8008 210.05,-45.6769 230,-35 233.568,-33.0903 237.282,-31.3456 241.094,-29.7519"/>
<polygon fill="black" stroke="black" points="242.637,-32.9104 250.747,-26.0928 240.155,-26.3649 242.637,-32.9104"/>
</g>
<!-- module~type_integrand&#45;&gt;module~foodie_integrator_tvd_runge_kutta -->
<g id="edge8" class="edge"><title>module~type_integrand&#45;&gt;module~foodie_integrator_tvd_runge_kutta</title>
<path fill="none" stroke="black" stroke-dasharray="5,2" d="M164.184,-111.075C178.506,-125.61 203.679,-148.66 230,-161 234.567,-163.141 239.335,-165.074 244.218,-166.819"/>
<polygon fill="black" stroke="black" points="243.133,-170.147 253.726,-169.949 245.322,-163.498 243.133,-170.147"/>
</g>
<!-- module~type_integrand&#45;&gt;module~foodie_integrator_euler_explicit -->
<g id="edge14" class="edge"><title>module~type_integrand&#45;&gt;module~foodie_integrator_euler_explicit</title>
<path fill="none" stroke="black" stroke-dasharray="5,2" d="M194.191,-107.201C216.555,-112.078 244.609,-118.197 270.12,-123.76"/>
<polygon fill="black" stroke="black" points="269.61,-127.231 280.126,-125.942 271.101,-120.392 269.61,-127.231"/>
</g>
<!-- module~type_integrand&#45;&gt;module~foodie_integrator_adams_bashforth -->
<g id="edge18" class="edge"><title>module~type_integrand&#45;&gt;module~foodie_integrator_adams_bashforth</title>
<path fill="none" stroke="black" stroke-dasharray="5,2" d="M194.191,-88.7988C216.555,-83.9216 244.609,-77.8034 270.12,-72.2397"/>
<polygon fill="black" stroke="black" points="271.101,-75.6081 280.126,-70.0576 269.61,-68.7688 271.101,-75.6081"/>
</g>
<!-- module~foodie_integrator_euler_explicit&#45;&gt;module~foodie -->
<g id="edge26" class="edge"><title>module~foodie_integrator_euler_explicit&#45;&gt;module~foodie</title>
<path fill="none" stroke="black" stroke-dasharray="5,2" d="M421.181,-129.146C440.337,-126.82 459.842,-124.453 475.92,-122.501"/>
<polygon fill="black" stroke="black" points="476.446,-125.963 485.952,-121.283 475.603,-119.014 476.446,-125.963"/>
</g>
<!-- module~foodie_integrator_adams_bashforth&#45;&gt;module~foodie -->
<g id="edge28" class="edge"><title>module~foodie_integrator_adams_bashforth&#45;&gt;module~foodie</title>
<path fill="none" stroke="black" stroke-dasharray="5,2" d="M404.829,-70.0092C419.885,-73.8244 435.688,-78.4851 450,-84 461.188,-88.311 472.89,-94.201 483.13,-99.8678"/>
<polygon fill="black" stroke="black" points="481.645,-103.05 492.067,-104.958 485.109,-96.9671 481.645,-103.05"/>
</g>
</g>
</svg>
