<?xml version="1.0" encoding="UTF-8" standalone="no"?>
<!DOCTYPE svg PUBLIC "-//W3C//DTD SVG 1.1//EN"
 "http://www.w3.org/Graphics/SVG/1.1/DTD/svg11.dtd">
<!-- Generated by graphviz version 2.26.3 (20100126.1600)
 -->
<!-- Title: module~~type_integrand~~UsedByGraph Pages: 1 -->
<svg width="641pt" height="268pt"
 viewBox="0.00 0.00 641.00 267.76" xmlns="http://www.w3.org/2000/svg" xmlns:xlink="http://www.w3.org/1999/xlink">
<g id="graph1" class="graph" transform="scale(0.910511 0.910511) rotate(0) translate(4 290.081)">
<title>module~~type_integrand~~UsedByGraph</title>
<polygon fill="white" stroke="white" points="-4,5 -4,-290.081 701,-290.081 701,5 -4,5"/>
<!-- module~type_integrand -->
<g id="node1" class="node"><title>module~type_integrand</title>
<polygon fill="none" stroke="black" points="84,-155.03 4.26326e-14,-155.03 0,-129.03 84,-129.03 84,-155.03"/>
<text text-anchor="middle" x="42" y="-139.58" font-family="Helvetica,sans-Serif" font-size="10.50">type_integrand</text>
</g>
<!-- module~foodie_integrator_tvd_runge_kutta -->
<g id="node2" class="node"><title>module~foodie_integrator_tvd_runge_kutta</title>
<a xlink:href="../module/foodie_integrator_tvd_runge_kutta.html" xlink:title="foodie_integrator_tvd_runge_kutta">
<polygon fill="#337ab7" stroke="#337ab7" points="318,-265.03 142,-265.03 142,-239.03 318,-239.03 318,-265.03"/>
<text text-anchor="middle" x="230" y="-249.58" font-family="Helvetica,sans-Serif" font-size="10.50" fill="white">foodie_integrator_tvd_runge_kutta</text>
</a>
</g>
<!-- module~type_integrand&#45;&gt;module~foodie_integrator_tvd_runge_kutta -->
<g id="edge36" class="edge"><title>module~type_integrand&#45;&gt;module~foodie_integrator_tvd_runge_kutta</title>
<path fill="none" stroke="black" stroke-dasharray="5,2" d="M49.7085,-155.198C61.9507,-174.851 87.7827,-211.52 120,-230.03 123.752,-232.185 127.681,-234.132 131.729,-235.891"/>
<polygon fill="black" stroke="black" points="130.773,-239.275 141.36,-239.662 133.325,-232.757 130.773,-239.275"/>
</g>
<!-- module~foodie_integrator_adams_bashforth -->
<g id="node3" class="node"><title>module~foodie_integrator_adams_bashforth</title>
<a xlink:href="../module/foodie_integrator_adams_bashforth.html" xlink:title="foodie_integrator_adams_bashforth">
<polygon fill="#337ab7" stroke="#337ab7" points="321,-221.03 139,-221.03 139,-195.03 321,-195.03 321,-221.03"/>
<text text-anchor="middle" x="230" y="-205.58" font-family="Helvetica,sans-Serif" font-size="10.50" fill="white">foodie_integrator_adams_bashforth</text>
</a>
</g>
<!-- module~type_integrand&#45;&gt;module~foodie_integrator_adams_bashforth -->
<g id="edge38" class="edge"><title>module~type_integrand&#45;&gt;module~foodie_integrator_adams_bashforth</title>
<path fill="none" stroke="black" stroke-dasharray="5,2" d="M61.0407,-155.043C76.3423,-164.928 98.7198,-178.129 120,-186.03 126.317,-188.375 132.937,-190.488 139.661,-192.39"/>
<polygon fill="black" stroke="black" points="139.001,-195.836 149.564,-195.025 140.801,-189.071 139.001,-195.836"/>
</g>
<!-- module~foodie_integrator_euler_explicit -->
<g id="node4" class="node"><title>module~foodie_integrator_euler_explicit</title>
<a xlink:href="../module/foodie_integrator_euler_explicit.html" xlink:title="foodie_integrator_euler_explicit">
<polygon fill="#337ab7" stroke="#337ab7" points="311,-177.03 149,-177.03 149,-151.03 311,-151.03 311,-177.03"/>
<text text-anchor="middle" x="230" y="-161.58" font-family="Helvetica,sans-Serif" font-size="10.50" fill="white">foodie_integrator_euler_explicit</text>
</a>
</g>
<!-- module~type_integrand&#45;&gt;module~foodie_integrator_euler_explicit -->
<g id="edge40" class="edge"><title>module~type_integrand&#45;&gt;module~foodie_integrator_euler_explicit</title>
<path fill="none" stroke="black" stroke-dasharray="5,2" d="M84.1909,-146.967C100.416,-148.865 119.636,-151.115 138.708,-153.346"/>
<polygon fill="black" stroke="black" points="138.312,-156.824 148.651,-154.51 139.126,-149.871 138.312,-156.824"/>
</g>
<!-- module~foodie_integrator_leapfrog -->
<g id="node5" class="node"><title>module~foodie_integrator_leapfrog</title>
<a xlink:href="../module/foodie_integrator_leapfrog.html" xlink:title="foodie_integrator_leapfrog">
<polygon fill="#337ab7" stroke="#337ab7" points="299,-133.03 161,-133.03 161,-107.03 299,-107.03 299,-133.03"/>
<text text-anchor="middle" x="230" y="-117.58" font-family="Helvetica,sans-Serif" font-size="10.50" fill="white">foodie_integrator_leapfrog</text>
</a>
</g>
<!-- module~type_integrand&#45;&gt;module~foodie_integrator_leapfrog -->
<g id="edge42" class="edge"><title>module~type_integrand&#45;&gt;module~foodie_integrator_leapfrog</title>
<path fill="none" stroke="black" stroke-dasharray="5,2" d="M84.1909,-137.092C103.712,-134.808 127.568,-132.016 150.284,-129.358"/>
<polygon fill="black" stroke="black" points="150.751,-132.827 160.276,-128.189 149.937,-125.875 150.751,-132.827"/>
</g>
<!-- module~foodie_integrator_low_storage_runge_kutta -->
<g id="node6" class="node"><title>module~foodie_integrator_low_storage_runge_kutta</title>
<a xlink:href="../module/foodie_integrator_low_storage_runge_kutta.html" xlink:title="foodie_integrator_low_storage_runge_kutta">
<polygon fill="#337ab7" stroke="#337ab7" points="340,-89.0295 120,-89.0295 120,-63.0295 340,-63.0295 340,-89.0295"/>
<text text-anchor="middle" x="230" y="-73.5795" font-family="Helvetica,sans-Serif" font-size="10.50" fill="white">foodie_integrator_low_storage_runge_kutta</text>
</a>
</g>
<!-- module~type_integrand&#45;&gt;module~foodie_integrator_low_storage_runge_kutta -->
<g id="edge44" class="edge"><title>module~type_integrand&#45;&gt;module~foodie_integrator_low_storage_runge_kutta</title>
<path fill="none" stroke="black" stroke-dasharray="5,2" d="M61.0407,-129.016C76.3423,-119.131 98.7198,-105.93 120,-98.0295 126.317,-95.684 132.937,-93.5707 139.661,-91.6695"/>
<polygon fill="black" stroke="black" points="140.801,-94.988 149.564,-89.0337 139.001,-88.2234 140.801,-94.988"/>
</g>
<!-- module~foodie -->
<g id="node7" class="node"><title>module~foodie</title>
<a xlink:href="../module/foodie.html" xlink:title="foodie">
<polygon fill="#337ab7" stroke="#337ab7" points="430,-155.03 376,-155.03 376,-129.03 430,-129.03 430,-155.03"/>
<text text-anchor="middle" x="403" y="-139.58" font-family="Helvetica,sans-Serif" font-size="10.50" fill="white">foodie</text>
</a>
</g>
<!-- module~type_integrand&#45;&gt;module~foodie -->
<g id="edge46" class="edge"><title>module~type_integrand&#45;&gt;module~foodie</title>
<path fill="none" stroke="black" stroke-dasharray="5,2" d="M48.9099,-128.72C60.4356,-108.16 85.7432,-69.4422 120,-54.0295 209.168,-13.9113 253.035,-9.33492 340,-54.0295 366.545,-67.6721 384.404,-98.2647 394.135,-119.52"/>
<polygon fill="black" stroke="black" points="390.971,-121.021 398.15,-128.812 397.397,-118.244 390.971,-121.021"/>
</g>
<!-- module~foodie_integrator_tvd_runge_kutta&#45;&gt;module~foodie -->
<g id="edge2" class="edge"><title>module~foodie_integrator_tvd_runge_kutta&#45;&gt;module~foodie</title>
<path fill="none" stroke="black" stroke-dasharray="5,2" d="M318.526,-240.604C326.092,-237.785 333.374,-234.309 340,-230.03 364.687,-214.086 382.725,-184.776 393.023,-164.384"/>
<polygon fill="black" stroke="black" points="396.266,-165.715 397.452,-155.187 389.96,-162.678 396.266,-165.715"/>
</g>
<!-- module~foodie_integrator_adams_bashforth&#45;&gt;module~foodie -->
<g id="edge4" class="edge"><title>module~foodie_integrator_adams_bashforth&#45;&gt;module~foodie</title>
<path fill="none" stroke="black" stroke-dasharray="5,2" d="M313.989,-195.007C322.931,-192.511 331.761,-189.547 340,-186.03 354.275,-179.935 368.587,-170.292 379.954,-161.585"/>
<polygon fill="black" stroke="black" points="382.364,-164.14 388.023,-155.183 378.014,-158.657 382.364,-164.14"/>
</g>
<!-- module~foodie_integrator_euler_explicit&#45;&gt;module~foodie -->
<g id="edge6" class="edge"><title>module~foodie_integrator_euler_explicit&#45;&gt;module~foodie</title>
<path fill="none" stroke="black" stroke-dasharray="5,2" d="M311.181,-153.706C330.337,-151.27 349.842,-148.789 365.92,-146.745"/>
<polygon fill="black" stroke="black" points="366.473,-150.203 375.952,-145.469 365.59,-143.259 366.473,-150.203"/>
</g>
<!-- module~foodie_integrator_leapfrog&#45;&gt;module~foodie -->
<g id="edge8" class="edge"><title>module~foodie_integrator_leapfrog&#45;&gt;module~foodie</title>
<path fill="none" stroke="black" stroke-dasharray="5,2" d="M299.867,-128.914C322.338,-131.772 346.366,-134.828 365.571,-137.27"/>
<polygon fill="black" stroke="black" points="365.342,-140.769 375.704,-138.558 366.225,-133.825 365.342,-140.769"/>
</g>
<!-- module~foodie_integrator_low_storage_runge_kutta&#45;&gt;module~foodie -->
<g id="edge10" class="edge"><title>module~foodie_integrator_low_storage_runge_kutta&#45;&gt;module~foodie</title>
<path fill="none" stroke="black" stroke-dasharray="5,2" d="M313.989,-89.0524C322.931,-91.5479 331.761,-94.5118 340,-98.0295 354.275,-104.124 368.587,-113.767 379.954,-122.474"/>
<polygon fill="black" stroke="black" points="378.014,-125.403 388.023,-128.876 382.364,-119.919 378.014,-125.403"/>
</g>
<!-- program~integrate_burgers -->
<g id="node13" class="node"><title>program~integrate_burgers</title>
<a xlink:href="../program/integrate_burgers.html" xlink:title="integrate_burgers">
<polygon fill="#f0ad4e" stroke="#f0ad4e" points="690,-279.03 594,-279.03 594,-253.03 690,-253.03 690,-279.03"/>
<text text-anchor="middle" x="642" y="-263.58" font-family="Helvetica,sans-Serif" font-size="10.50" fill="white">integrate_burgers</text>
</a>
</g>
<!-- module~foodie&#45;&gt;program~integrate_burgers -->
<g id="edge20" class="edge"><title>module~foodie&#45;&gt;program~integrate_burgers</title>
<path fill="none" stroke="black" stroke-dasharray="5,2" d="M405.04,-155.396C409.957,-182.358 425.223,-242.828 466,-268.03 501.759,-290.13 549.909,-287.9 586.807,-281.108"/>
<polygon fill="black" stroke="black" points="587.778,-284.483 596.896,-279.087 586.404,-277.619 587.778,-284.483"/>
</g>
<!-- program~integrate_lorenz -->
<g id="node14" class="node"><title>program~integrate_lorenz</title>
<a xlink:href="../program/integrate_lorenz.html" xlink:title="integrate_lorenz">
<polygon fill="#f0ad4e" stroke="#f0ad4e" points="687,-197.03 597,-197.03 597,-171.03 687,-171.03 687,-197.03"/>
<text text-anchor="middle" x="642" y="-181.58" font-family="Helvetica,sans-Serif" font-size="10.50" fill="white">integrate_lorenz</text>
</a>
</g>
<!-- module~foodie&#45;&gt;program~integrate_lorenz -->
<g id="edge22" class="edge"><title>module~foodie&#45;&gt;program~integrate_lorenz</title>
<path fill="none" stroke="black" stroke-dasharray="5,2" d="M416.641,-155.324C428.563,-165.95 446.911,-180.023 466,-186.03 504.999,-198.3 551.307,-197.198 586.632,-193.35"/>
<polygon fill="black" stroke="black" points="587.24,-196.803 596.754,-192.141 586.409,-189.852 587.24,-196.803"/>
</g>
<!-- module~type_euler_1d -->
<g id="node15" class="node"><title>module~type_euler_1d</title>
<a xlink:href="../module/type_euler_1d.html" xlink:title="type_euler_1D">
<polygon fill="#337ab7" stroke="#337ab7" points="550,-133.03 468,-133.03 468,-107.03 550,-107.03 550,-133.03"/>
<text text-anchor="middle" x="509" y="-117.58" font-family="Helvetica,sans-Serif" font-size="10.50" fill="white">type_euler_1D</text>
</a>
</g>
<!-- module~foodie&#45;&gt;module~type_euler_1d -->
<g id="edge24" class="edge"><title>module~foodie&#45;&gt;module~type_euler_1d</title>
<path fill="none" stroke="black" stroke-dasharray="5,2" d="M430.023,-136.421C438.49,-134.664 448.133,-132.662 457.702,-130.676"/>
<polygon fill="black" stroke="black" points="458.514,-134.082 467.594,-128.623 457.092,-127.228 458.514,-134.082"/>
</g>
<!-- program~integrate_euler_1d -->
<g id="node16" class="node"><title>program~integrate_euler_1d</title>
<a xlink:href="../program/integrate_euler_1d.html" xlink:title="integrate_euler_1D">
<polygon fill="#f0ad4e" stroke="#f0ad4e" points="694,-103.03 590,-103.03 590,-77.0295 694,-77.0295 694,-103.03"/>
<text text-anchor="middle" x="642" y="-87.5795" font-family="Helvetica,sans-Serif" font-size="10.50" fill="white">integrate_euler_1D</text>
</a>
</g>
<!-- module~foodie&#45;&gt;program~integrate_euler_1d -->
<g id="edge26" class="edge"><title>module~foodie&#45;&gt;program~integrate_euler_1d</title>
<path fill="none" stroke="black" stroke-dasharray="5,2" d="M416.713,-128.957C428.68,-118.467 447.052,-104.468 466,-98.0295 502.219,-85.7229 545.054,-83.5312 579.397,-84.5087"/>
<polygon fill="black" stroke="black" points="579.639,-88.0205 589.766,-84.9062 579.907,-81.0256 579.639,-88.0205"/>
</g>
<!-- module~type_oscillation -->
<g id="node17" class="node"><title>module~type_oscillation</title>
<a xlink:href="../module/type_oscillation.html" xlink:title="type_oscillation">
<polygon fill="#337ab7" stroke="#337ab7" points="551,-51.0295 467,-51.0295 467,-25.0295 551,-25.0295 551,-51.0295"/>
<text text-anchor="middle" x="509" y="-35.5795" font-family="Helvetica,sans-Serif" font-size="10.50" fill="white">type_oscillation</text>
</a>
</g>
<!-- module~foodie&#45;&gt;module~type_oscillation -->
<g id="edge28" class="edge"><title>module~foodie&#45;&gt;module~type_oscillation</title>
<path fill="none" stroke="black" stroke-dasharray="5,2" d="M411.702,-128.947C422.941,-112.686 443.721,-84.683 466,-65.0295 469.198,-62.2086 472.722,-59.4896 476.336,-56.9348"/>
<polygon fill="black" stroke="black" points="478.425,-59.7493 484.819,-51.301 474.552,-53.9183 478.425,-59.7493"/>
</g>
<!-- module~type_lorenz -->
<g id="node18" class="node"><title>module~type_lorenz</title>
<a xlink:href="../module/type_lorenz.html" xlink:title="type_lorenz">
<polygon fill="#337ab7" stroke="#337ab7" points="543,-177.03 475,-177.03 475,-151.03 543,-151.03 543,-177.03"/>
<text text-anchor="middle" x="509" y="-161.58" font-family="Helvetica,sans-Serif" font-size="10.50" fill="white">type_lorenz</text>
</a>
</g>
<!-- module~foodie&#45;&gt;module~type_lorenz -->
<g id="edge30" class="edge"><title>module~foodie&#45;&gt;module~type_lorenz</title>
<path fill="none" stroke="black" stroke-dasharray="5,2" d="M430.023,-147.638C440.555,-149.824 452.905,-152.387 464.669,-154.829"/>
<polygon fill="black" stroke="black" points="464.294,-158.325 474.796,-156.931 465.716,-151.471 464.294,-158.325"/>
</g>
<!-- program~integrate_oscillation -->
<g id="node19" class="node"><title>program~integrate_oscillation</title>
<a xlink:href="../program/integrate_oscillation.html" xlink:title="integrate_oscillation">
<polygon fill="#f0ad4e" stroke="#f0ad4e" points="695,-40.0295 589,-40.0295 589,-14.0295 695,-14.0295 695,-40.0295"/>
<text text-anchor="middle" x="642" y="-24.5795" font-family="Helvetica,sans-Serif" font-size="10.50" fill="white">integrate_oscillation</text>
</a>
</g>
<!-- module~foodie&#45;&gt;program~integrate_oscillation -->
<g id="edge32" class="edge"><title>module~foodie&#45;&gt;program~integrate_oscillation</title>
<path fill="none" stroke="black" stroke-dasharray="5,2" d="M405.04,-128.663C409.957,-101.702 425.223,-41.2308 466,-16.0295 505.685,8.49702 560.485,-0.0725494 598.345,-11.0278"/>
<polygon fill="black" stroke="black" points="597.479,-14.4231 608.066,-14 599.526,-7.72896 597.479,-14.4231"/>
</g>
<!-- module~type_burgers -->
<g id="node20" class="node"><title>module~type_burgers</title>
<a xlink:href="../module/type_burgers.html" xlink:title="type_burgers">
<polygon fill="#337ab7" stroke="#337ab7" points="547,-259.03 471,-259.03 471,-233.03 547,-233.03 547,-259.03"/>
<text text-anchor="middle" x="509" y="-243.58" font-family="Helvetica,sans-Serif" font-size="10.50" fill="white">type_burgers</text>
</a>
</g>
<!-- module~foodie&#45;&gt;module~type_burgers -->
<g id="edge34" class="edge"><title>module~foodie&#45;&gt;module~type_burgers</title>
<path fill="none" stroke="black" stroke-dasharray="5,2" d="M411.702,-155.112C422.941,-171.373 443.721,-199.376 466,-219.03 469.198,-221.851 472.722,-224.569 476.336,-227.124"/>
<polygon fill="black" stroke="black" points="474.552,-230.141 484.819,-232.758 478.425,-224.31 474.552,-230.141"/>
</g>
<!-- module~type_euler_1d&#45;&gt;program~integrate_euler_1d -->
<g id="edge12" class="edge"><title>module~type_euler_1d&#45;&gt;program~integrate_euler_1d</title>
<path fill="none" stroke="black" stroke-dasharray="5,2" d="M550.353,-110.702C559.732,-108.586 569.894,-106.294 579.922,-104.032"/>
<polygon fill="black" stroke="black" points="580.885,-107.403 589.87,-101.788 579.345,-100.574 580.885,-107.403"/>
</g>
<!-- module~type_oscillation&#45;&gt;program~integrate_oscillation -->
<g id="edge14" class="edge"><title>module~type_oscillation&#45;&gt;program~integrate_oscillation</title>
<path fill="none" stroke="black" stroke-dasharray="5,2" d="M551.814,-34.4885C560.201,-33.7949 569.165,-33.0535 578.068,-32.3171"/>
<polygon fill="black" stroke="black" points="578.382,-35.8032 588.06,-31.4908 577.805,-28.827 578.382,-35.8032"/>
</g>
<!-- module~type_lorenz&#45;&gt;program~integrate_lorenz -->
<g id="edge16" class="edge"><title>module~type_lorenz&#45;&gt;program~integrate_lorenz</title>
<path fill="none" stroke="black" stroke-dasharray="5,2" d="M543.251,-169.18C556.508,-171.174 572.022,-173.507 586.774,-175.725"/>
<polygon fill="black" stroke="black" points="586.418,-179.211 596.827,-177.237 587.459,-172.288 586.418,-179.211"/>
</g>
<!-- module~type_burgers&#45;&gt;program~integrate_burgers -->
<g id="edge18" class="edge"><title>module~type_burgers&#45;&gt;program~integrate_burgers</title>
<path fill="none" stroke="black" stroke-dasharray="5,2" d="M547.112,-251.761C558.387,-253.456 571.001,-255.353 583.259,-257.196"/>
<polygon fill="black" stroke="black" points="583.025,-260.7 593.434,-258.726 584.066,-253.778 583.025,-260.7"/>
</g>
</g>
</svg>
