<?xml version="1.0" encoding="UTF-8" standalone="no"?>
<!DOCTYPE svg PUBLIC "-//W3C//DTD SVG 1.1//EN"
 "http://www.w3.org/Graphics/SVG/1.1/DTD/svg11.dtd">
<!-- Generated by graphviz version 2.26.3 (20100126.1600)
 -->
<!-- Title: module~~foodie_integrator_adams_bashforth~~UsedByGraph Pages: 1 -->
<svg width="632pt" height="353pt"
 viewBox="0.00 0.00 632.00 353.11" xmlns="http://www.w3.org/2000/svg" xmlns:xlink="http://www.w3.org/1999/xlink">
<g id="graph1" class="graph" transform="scale(1 1) rotate(0) translate(4 349.113)">
<title>module~~foodie_integrator_adams_bashforth~~UsedByGraph</title>
<polygon fill="white" stroke="white" points="-4,5 -4,-349.113 629,-349.113 629,5 -4,5"/>
<!-- module~foodie_integrator_adams_bashforth -->
<g id="node1" class="node"><title>module~foodie_integrator_adams_bashforth</title>
<polygon fill="none" stroke="black" points="183,-184.407 1,-184.407 1,-158.407 183,-158.407 183,-184.407"/>
<text text-anchor="middle" x="92" y="-168.957" font-family="Helvetica,sans-Serif" font-size="10.50">foodie_integrator_adams_bashforth</text>
</g>
<!-- module~foodie -->
<g id="node2" class="node"><title>module~foodie</title>
<a xlink:href="../module/foodie.html" xlink:title="foodie">
<polygon fill="#337ab7" stroke="#337ab7" points="274,-184.407 220,-184.407 220,-158.407 274,-158.407 274,-184.407"/>
<text text-anchor="middle" x="247" y="-168.957" font-family="Helvetica,sans-Serif" font-size="10.50" fill="white">foodie</text>
</a>
</g>
<!-- module~foodie_integrator_adams_bashforth&#45;&gt;module~foodie -->
<g id="edge32" class="edge"><title>module~foodie_integrator_adams_bashforth&#45;&gt;module~foodie</title>
<path fill="none" stroke="black" stroke-dasharray="5,2" d="M183.508,-171.407C192.714,-171.407 201.647,-171.407 209.764,-171.407"/>
<polygon fill="black" stroke="black" points="209.919,-174.907 219.919,-171.407 209.919,-167.907 209.919,-174.907"/>
</g>
<!-- program~integrate_burgers -->
<g id="node3" class="node"><title>program~integrate_burgers</title>
<a xlink:href="../program/integrate_burgers.html" xlink:title="integrate_burgers">
<polygon fill="#f0ad4e" stroke="#f0ad4e" points="597,-330.407 501,-330.407 501,-304.407 597,-304.407 597,-330.407"/>
<text text-anchor="middle" x="549" y="-314.957" font-family="Helvetica,sans-Serif" font-size="10.50" fill="white">integrate_burgers</text>
</a>
</g>
<!-- module~foodie&#45;&gt;program~integrate_burgers -->
<g id="edge12" class="edge"><title>module~foodie&#45;&gt;program~integrate_burgers</title>
<path fill="none" stroke="black" stroke-dasharray="5,2" d="M247.991,-184.679C251.044,-214.868 263.178,-288.45 310,-319.407 365.976,-356.416 446.606,-345.869 498.404,-333.08"/>
<polygon fill="black" stroke="black" points="499.557,-336.397 508.363,-330.506 497.806,-329.62 499.557,-336.397"/>
</g>
<!-- module~type_euler_1d -->
<g id="node4" class="node"><title>module~type_euler_1d</title>
<a xlink:href="../module/type_euler_1d.html" xlink:title="type_euler_1D">
<polygon fill="#337ab7" stroke="#337ab7" points="415,-266.407 333,-266.407 333,-240.407 415,-240.407 415,-266.407"/>
<text text-anchor="middle" x="374" y="-250.957" font-family="Helvetica,sans-Serif" font-size="10.50" fill="white">type_euler_1D</text>
</a>
</g>
<!-- module~foodie&#45;&gt;module~type_euler_1d -->
<g id="edge14" class="edge"><title>module~foodie&#45;&gt;module~type_euler_1d</title>
<path fill="none" stroke="black" stroke-dasharray="5,2" d="M259.536,-184.534C271.599,-196.607 290.791,-214.405 310,-226.407 315.703,-229.97 321.959,-233.263 328.255,-236.233"/>
<polygon fill="black" stroke="black" points="326.893,-239.457 337.45,-240.348 329.752,-233.068 326.893,-239.457"/>
</g>
<!-- program~integrate_lorenz -->
<g id="node5" class="node"><title>program~integrate_lorenz</title>
<a xlink:href="../program/integrate_lorenz.html" xlink:title="integrate_lorenz">
<polygon fill="#f0ad4e" stroke="#f0ad4e" points="594,-184.407 504,-184.407 504,-158.407 594,-158.407 594,-184.407"/>
<text text-anchor="middle" x="549" y="-168.957" font-family="Helvetica,sans-Serif" font-size="10.50" fill="white">integrate_lorenz</text>
</a>
</g>
<!-- module~foodie&#45;&gt;program~integrate_lorenz -->
<g id="edge16" class="edge"><title>module~foodie&#45;&gt;program~integrate_lorenz</title>
<path fill="none" stroke="black" stroke-dasharray="5,2" d="M274.024,-183.808C299.253,-194.49 338.275,-208.748 374,-212.407"/>
<path fill="none" stroke="black" stroke-dasharray="5,2" d="M374,-212.407C385.991,-213.635 447.256,-198.445 493.948,-186.209"/>
<polygon fill="black" stroke="black" points="494.888,-189.58 503.667,-183.649 493.106,-182.811 494.888,-189.58"/>
</g>
<!-- program~integrate_oscillation -->
<g id="node6" class="node"><title>program~integrate_oscillation</title>
<a xlink:href="../program/integrate_oscillation.html" xlink:title="integrate_oscillation">
<polygon fill="#f0ad4e" stroke="#f0ad4e" points="602,-112.407 496,-112.407 496,-86.407 602,-86.407 602,-112.407"/>
<text text-anchor="middle" x="549" y="-96.957" font-family="Helvetica,sans-Serif" font-size="10.50" fill="white">integrate_oscillation</text>
</a>
</g>
<!-- module~foodie&#45;&gt;program~integrate_oscillation -->
<g id="edge18" class="edge"><title>module~foodie&#45;&gt;program~integrate_oscillation</title>
<path fill="none" stroke="black" stroke-dasharray="5,2" d="M274.045,-161.098C285.091,-157.115 298.057,-152.727 310,-149.407 368.722,-133.086 436.869,-119.327 485.333,-110.399"/>
<polygon fill="black" stroke="black" points="486.156,-113.807 495.365,-108.569 484.899,-106.921 486.156,-113.807"/>
</g>
<!-- module~type_lorenz -->
<g id="node7" class="node"><title>module~type_lorenz</title>
<a xlink:href="../module/type_lorenz.html" xlink:title="type_lorenz">
<polygon fill="#337ab7" stroke="#337ab7" points="408,-184.407 340,-184.407 340,-158.407 408,-158.407 408,-184.407"/>
<text text-anchor="middle" x="374" y="-168.957" font-family="Helvetica,sans-Serif" font-size="10.50" fill="white">type_lorenz</text>
</a>
</g>
<!-- module~foodie&#45;&gt;module~type_lorenz -->
<g id="edge20" class="edge"><title>module~foodie&#45;&gt;module~type_lorenz</title>
<path fill="none" stroke="black" stroke-dasharray="5,2" d="M274.245,-171.407C290.282,-171.407 310.959,-171.407 329.326,-171.407"/>
<polygon fill="black" stroke="black" points="329.534,-174.907 339.534,-171.407 329.534,-167.907 329.534,-174.907"/>
</g>
<!-- module~type_burgers -->
<g id="node8" class="node"><title>module~type_burgers</title>
<a xlink:href="../module/type_burgers.html" xlink:title="type_burgers">
<polygon fill="#337ab7" stroke="#337ab7" points="412,-310.407 336,-310.407 336,-284.407 412,-284.407 412,-310.407"/>
<text text-anchor="middle" x="374" y="-294.957" font-family="Helvetica,sans-Serif" font-size="10.50" fill="white">type_burgers</text>
</a>
</g>
<!-- module~foodie&#45;&gt;module~type_burgers -->
<g id="edge22" class="edge"><title>module~foodie&#45;&gt;module~type_burgers</title>
<path fill="none" stroke="black" stroke-dasharray="5,2" d="M251.566,-184.6C259.819,-206.556 279.271,-250.627 310,-275.407 314.922,-279.376 320.602,-282.648 326.505,-285.342"/>
<polygon fill="black" stroke="black" points="325.303,-288.631 335.887,-289.114 327.915,-282.136 325.303,-288.631"/>
</g>
<!-- program~integrate_euler_1d -->
<g id="node9" class="node"><title>program~integrate_euler_1d</title>
<a xlink:href="../program/integrate_euler_1d.html" xlink:title="integrate_euler_1D">
<polygon fill="#f0ad4e" stroke="#f0ad4e" points="601,-228.407 497,-228.407 497,-202.407 601,-202.407 601,-228.407"/>
<text text-anchor="middle" x="549" y="-212.957" font-family="Helvetica,sans-Serif" font-size="10.50" fill="white">integrate_euler_1D</text>
</a>
</g>
<!-- module~foodie&#45;&gt;program~integrate_euler_1d -->
<g id="edge24" class="edge"><title>module~foodie&#45;&gt;program~integrate_euler_1d</title>
<path fill="none" stroke="black" stroke-dasharray="5,2" d="M374,-212.407C411.256,-216.223 453.202,-217.06 486.686,-216.902"/>
<polygon fill="black" stroke="black" points="486.819,-220.401 496.792,-216.823 486.765,-213.401 486.819,-220.401"/>
</g>
<!-- module~type_oscillation -->
<g id="node10" class="node"><title>module~type_oscillation</title>
<a xlink:href="../module/type_oscillation.html" xlink:title="type_oscillation">
<polygon fill="#337ab7" stroke="#337ab7" points="416,-102.407 332,-102.407 332,-76.407 416,-76.407 416,-102.407"/>
<text text-anchor="middle" x="374" y="-86.957" font-family="Helvetica,sans-Serif" font-size="10.50" fill="white">type_oscillation</text>
</a>
</g>
<!-- module~foodie&#45;&gt;module~type_oscillation -->
<g id="edge26" class="edge"><title>module~foodie&#45;&gt;module~type_oscillation</title>
<path fill="none" stroke="black" stroke-dasharray="5,2" d="M259.536,-158.281C271.599,-146.207 290.791,-128.409 310,-116.407 315.703,-112.844 321.959,-109.551 328.255,-106.581"/>
<polygon fill="black" stroke="black" points="329.752,-109.746 337.45,-102.466 326.893,-103.357 329.752,-109.746"/>
</g>
<!-- module~type_euler_1d_openmp -->
<g id="node11" class="node"><title>module~type_euler_1d_openmp</title>
<a xlink:href="../module/type_euler_1d_openmp.html" xlink:title="type_euler_1D_openmp">
<polygon fill="#337ab7" stroke="#337ab7" points="437,-58.407 311,-58.407 311,-32.407 437,-32.407 437,-58.407"/>
<text text-anchor="middle" x="374" y="-42.957" font-family="Helvetica,sans-Serif" font-size="10.50" fill="white">type_euler_1D_openmp</text>
</a>
</g>
<!-- module~foodie&#45;&gt;module~type_euler_1d_openmp -->
<g id="edge28" class="edge"><title>module~foodie&#45;&gt;module~type_euler_1d_openmp</title>
<path fill="none" stroke="black" stroke-dasharray="5,2" d="M251.566,-158.214C259.819,-136.258 279.271,-92.1867 310,-67.407 311.746,-65.9988 313.588,-64.6783 315.502,-63.4402"/>
<polygon fill="black" stroke="black" points="317.263,-66.4655 324.275,-58.5235 313.84,-60.3591 317.263,-66.4655"/>
</g>
<!-- program~integrate_euler_1d_openmp -->
<g id="node12" class="node"><title>program~integrate_euler_1d_openmp</title>
<a xlink:href="../program/integrate_euler_1d_openmp.html" xlink:title="integrate_euler_1D_openmp">
<polygon fill="#f0ad4e" stroke="#f0ad4e" points="623,-48.407 475,-48.407 475,-22.407 623,-22.407 623,-48.407"/>
<text text-anchor="middle" x="549" y="-32.957" font-family="Helvetica,sans-Serif" font-size="10.50" fill="white">integrate_euler_1D_openmp</text>
</a>
</g>
<!-- module~foodie&#45;&gt;program~integrate_euler_1d_openmp -->
<g id="edge30" class="edge"><title>module~foodie&#45;&gt;program~integrate_euler_1d_openmp</title>
<path fill="none" stroke="black" stroke-dasharray="5,2" d="M247.991,-158.135C251.044,-127.946 263.178,-54.3636 310,-23.407 368.969,15.5805 455.136,-2.56135 506.293,-19.1122"/>
<polygon fill="black" stroke="black" points="505.445,-22.5195 516.039,-22.3837 507.673,-15.8834 505.445,-22.5195"/>
</g>
<!-- module~type_euler_1d&#45;&gt;program~integrate_euler_1d -->
<g id="edge2" class="edge"><title>module~type_euler_1d&#45;&gt;program~integrate_euler_1d</title>
<path fill="none" stroke="black" stroke-dasharray="5,2" d="M415.03,-244.498C436.422,-239.853 463.034,-234.074 486.89,-228.894"/>
<polygon fill="black" stroke="black" points="487.892,-232.258 496.922,-226.715 486.407,-225.417 487.892,-232.258"/>
</g>
<!-- module~type_lorenz&#45;&gt;program~integrate_lorenz -->
<g id="edge4" class="edge"><title>module~type_lorenz&#45;&gt;program~integrate_lorenz</title>
<path fill="none" stroke="black" stroke-dasharray="5,2" d="M408.157,-171.407C432.519,-171.407 465.803,-171.407 493.898,-171.407"/>
<polygon fill="black" stroke="black" points="493.987,-174.907 503.987,-171.407 493.987,-167.907 493.987,-174.907"/>
</g>
<!-- module~type_burgers&#45;&gt;program~integrate_burgers -->
<g id="edge6" class="edge"><title>module~type_burgers&#45;&gt;program~integrate_burgers</title>
<path fill="none" stroke="black" stroke-dasharray="5,2" d="M412.404,-301.796C435.232,-304.405 464.651,-307.767 490.337,-310.703"/>
<polygon fill="black" stroke="black" points="490.012,-314.188 500.344,-311.846 490.807,-307.233 490.012,-314.188"/>
</g>
<!-- module~type_oscillation&#45;&gt;program~integrate_oscillation -->
<g id="edge8" class="edge"><title>module~type_oscillation&#45;&gt;program~integrate_oscillation</title>
<path fill="none" stroke="black" stroke-dasharray="5,2" d="M416.81,-91.8533C437.343,-93.0266 462.365,-94.4564 485.092,-95.7551"/>
<polygon fill="black" stroke="black" points="485.164,-99.2649 495.348,-96.3412 485.564,-92.2763 485.164,-99.2649"/>
</g>
<!-- module~type_euler_1d_openmp&#45;&gt;program~integrate_euler_1d_openmp -->
<g id="edge10" class="edge"><title>module~type_euler_1d_openmp&#45;&gt;program~integrate_euler_1d_openmp</title>
<path fill="none" stroke="black" stroke-dasharray="5,2" d="M437.674,-41.7685C446.337,-41.2735 455.337,-40.7592 464.297,-40.2472"/>
<polygon fill="black" stroke="black" points="464.594,-43.736 474.378,-39.6711 464.194,-36.7474 464.594,-43.736"/>
</g>
</g>
</svg>
