<?xml version="1.0" encoding="UTF-8" standalone="no"?>
<!DOCTYPE svg PUBLIC "-//W3C//DTD SVG 1.1//EN"
 "http://www.w3.org/Graphics/SVG/1.1/DTD/svg11.dtd">
<!-- Generated by graphviz version 2.26.3 (20100126.1600)
 -->
<!-- Title: module~~foodie_integrator_leapfrog~~UsedByGraph Pages: 1 -->
<svg width="504pt" height="268pt"
 viewBox="0.00 0.00 504.00 268.01" xmlns="http://www.w3.org/2000/svg" xmlns:xlink="http://www.w3.org/1999/xlink">
<g id="graph1" class="graph" transform="scale(1 1) rotate(0) translate(4 264.012)">
<title>module~~foodie_integrator_leapfrog~~UsedByGraph</title>
<polygon fill="white" stroke="white" points="-4,5 -4,-264.012 501,-264.012 501,5 -4,5"/>
<!-- module~foodie_integrator_leapfrog -->
<g id="node1" class="node"><title>module~foodie_integrator_leapfrog</title>
<polygon fill="none" stroke="black" points="139,-137.012 1,-137.012 1,-111.012 139,-111.012 139,-137.012"/>
<text text-anchor="middle" x="70" y="-121.562" font-family="Helvetica,sans-Serif" font-size="10.50">foodie_integrator_leapfrog</text>
</g>
<!-- module~foodie -->
<g id="node2" class="node"><title>module~foodie</title>
<a xlink:href="../module/foodie.html" xlink:title="foodie">
<polygon fill="#337ab7" stroke="#337ab7" points="230,-137.012 176,-137.012 176,-111.012 230,-111.012 230,-137.012"/>
<text text-anchor="middle" x="203" y="-121.562" font-family="Helvetica,sans-Serif" font-size="10.50" fill="white">foodie</text>
</a>
</g>
<!-- module~foodie_integrator_leapfrog&#45;&gt;module~foodie -->
<g id="edge26" class="edge"><title>module~foodie_integrator_leapfrog&#45;&gt;module~foodie</title>
<path fill="none" stroke="black" stroke-dasharray="5,2" d="M139.616,-124.012C148.531,-124.012 157.371,-124.012 165.494,-124.012"/>
<polygon fill="black" stroke="black" points="165.704,-127.512 175.704,-124.012 165.704,-120.512 165.704,-127.512"/>
</g>
<!-- module~type_euler_1d -->
<g id="node3" class="node"><title>module~type_euler_1d</title>
<a xlink:href="../module/type_euler_1d.html" xlink:title="type_euler_1D">
<polygon fill="#337ab7" stroke="#337ab7" points="350,-260.012 268,-260.012 268,-234.012 350,-234.012 350,-260.012"/>
<text text-anchor="middle" x="309" y="-244.562" font-family="Helvetica,sans-Serif" font-size="10.50" fill="white">type_euler_1D</text>
</a>
</g>
<!-- module~foodie&#45;&gt;module~type_euler_1d -->
<g id="edge10" class="edge"><title>module~foodie&#45;&gt;module~type_euler_1d</title>
<path fill="none" stroke="black" stroke-dasharray="5,2" d="M209.254,-137.073C219.178,-156.808 240.089,-194.616 266,-220.012 268.892,-222.846 272.131,-225.533 275.498,-228.034"/>
<polygon fill="black" stroke="black" points="273.779,-231.098 284.012,-233.844 277.726,-225.316 273.779,-231.098"/>
</g>
<!-- module~type_burgers -->
<g id="node4" class="node"><title>module~type_burgers</title>
<a xlink:href="../module/type_burgers.html" xlink:title="type_burgers">
<polygon fill="#337ab7" stroke="#337ab7" points="347,-178.012 271,-178.012 271,-152.012 347,-152.012 347,-178.012"/>
<text text-anchor="middle" x="309" y="-162.562" font-family="Helvetica,sans-Serif" font-size="10.50" fill="white">type_burgers</text>
</a>
</g>
<!-- module~foodie&#45;&gt;module~type_burgers -->
<g id="edge12" class="edge"><title>module~foodie&#45;&gt;module~type_burgers</title>
<path fill="none" stroke="black" stroke-dasharray="5,2" d="M230.023,-134.464C240.864,-138.658 253.632,-143.596 265.705,-148.266"/>
<polygon fill="black" stroke="black" points="264.598,-151.59 275.188,-151.934 267.124,-145.062 264.598,-151.59"/>
</g>
<!-- program~integrate_burgers -->
<g id="node5" class="node"><title>program~integrate_burgers</title>
<a xlink:href="../program/integrate_burgers.html" xlink:title="integrate_burgers">
<polygon fill="#f0ad4e" stroke="#f0ad4e" points="490,-140.012 394,-140.012 394,-114.012 490,-114.012 490,-140.012"/>
<text text-anchor="middle" x="442" y="-124.562" font-family="Helvetica,sans-Serif" font-size="10.50" fill="white">integrate_burgers</text>
</a>
</g>
<!-- module~foodie&#45;&gt;program~integrate_burgers -->
<g id="edge14" class="edge"><title>module~foodie&#45;&gt;program~integrate_burgers</title>
<path fill="none" stroke="black" stroke-dasharray="5,2" d="M309,-124.012C333.283,-122.286 360.116,-122.49 383.283,-123.327"/>
<polygon fill="black" stroke="black" points="383.172,-126.826 393.307,-123.736 383.458,-119.831 383.172,-126.826"/>
</g>
<!-- program~integrate_oscillation -->
<g id="node6" class="node"><title>program~integrate_oscillation</title>
<a xlink:href="../program/integrate_oscillation.html" xlink:title="integrate_oscillation">
<polygon fill="#f0ad4e" stroke="#f0ad4e" points="495,-96.012 389,-96.012 389,-70.012 495,-70.012 495,-96.012"/>
<text text-anchor="middle" x="442" y="-80.562" font-family="Helvetica,sans-Serif" font-size="10.50" fill="white">integrate_oscillation</text>
</a>
</g>
<!-- module~foodie&#45;&gt;program~integrate_oscillation -->
<g id="edge16" class="edge"><title>module~foodie&#45;&gt;program~integrate_oscillation</title>
<path fill="none" stroke="black" stroke-dasharray="5,2" d="M230.049,-125.067C251.491,-125.649 282.2,-125.917 309,-124.012"/>
<path fill="none" stroke="black" stroke-dasharray="5,2" d="M309,-124.012C326.146,-122.793 365.317,-110.265 396.733,-99.3741"/>
<polygon fill="black" stroke="black" points="397.918,-102.668 406.201,-96.0612 395.607,-96.0603 397.918,-102.668"/>
</g>
<!-- module~type_lorenz -->
<g id="node7" class="node"><title>module~type_lorenz</title>
<a xlink:href="../module/type_lorenz.html" xlink:title="type_lorenz">
<polygon fill="#337ab7" stroke="#337ab7" points="343,-52.012 275,-52.012 275,-26.012 343,-26.012 343,-52.012"/>
<text text-anchor="middle" x="309" y="-36.562" font-family="Helvetica,sans-Serif" font-size="10.50" fill="white">type_lorenz</text>
</a>
</g>
<!-- module~foodie&#45;&gt;module~type_lorenz -->
<g id="edge18" class="edge"><title>module~foodie&#45;&gt;module~type_lorenz</title>
<path fill="none" stroke="black" stroke-dasharray="5,2" d="M213.831,-110.984C225.648,-97.3327 245.615,-75.8487 266,-61.012 267.627,-59.8277 269.327,-58.6721 271.072,-57.5502"/>
<polygon fill="black" stroke="black" points="273.216,-60.3487 280.041,-52.2452 269.652,-54.3237 273.216,-60.3487"/>
</g>
<!-- program~integrate_euler_1d -->
<g id="node8" class="node"><title>program~integrate_euler_1d</title>
<a xlink:href="../program/integrate_euler_1d.html" xlink:title="integrate_euler_1D">
<polygon fill="#f0ad4e" stroke="#f0ad4e" points="494,-239.012 390,-239.012 390,-213.012 494,-213.012 494,-239.012"/>
<text text-anchor="middle" x="442" y="-223.562" font-family="Helvetica,sans-Serif" font-size="10.50" fill="white">integrate_euler_1D</text>
</a>
</g>
<!-- module~foodie&#45;&gt;program~integrate_euler_1d -->
<g id="edge20" class="edge"><title>module~foodie&#45;&gt;program~integrate_euler_1d</title>
<path fill="none" stroke="black" stroke-dasharray="5,2" d="M212.337,-137.056C223.443,-151.564 243.352,-174.588 266,-187.012 300.839,-206.123 344.413,-215.871 379.487,-220.842"/>
<polygon fill="black" stroke="black" points="379.237,-224.339 389.609,-222.178 380.154,-217.399 379.237,-224.339"/>
</g>
<!-- module~type_oscillation -->
<g id="node9" class="node"><title>module~type_oscillation</title>
<a xlink:href="../module/type_oscillation.html" xlink:title="type_oscillation">
<polygon fill="#337ab7" stroke="#337ab7" points="351,-96.012 267,-96.012 267,-70.012 351,-70.012 351,-96.012"/>
<text text-anchor="middle" x="309" y="-80.562" font-family="Helvetica,sans-Serif" font-size="10.50" fill="white">type_oscillation</text>
</a>
</g>
<!-- module~foodie&#45;&gt;module~type_oscillation -->
<g id="edge22" class="edge"><title>module~foodie&#45;&gt;module~type_oscillation</title>
<path fill="none" stroke="black" stroke-dasharray="5,2" d="M230.023,-113.56C240.864,-109.366 253.632,-104.428 265.705,-99.7582"/>
<polygon fill="black" stroke="black" points="267.124,-102.962 275.188,-96.0904 264.598,-96.4336 267.124,-102.962"/>
</g>
<!-- program~integrate_lorenz -->
<g id="node10" class="node"><title>program~integrate_lorenz</title>
<a xlink:href="../program/integrate_lorenz.html" xlink:title="integrate_lorenz">
<polygon fill="#f0ad4e" stroke="#f0ad4e" points="487,-32.012 397,-32.012 397,-6.01202 487,-6.01202 487,-32.012"/>
<text text-anchor="middle" x="442" y="-16.562" font-family="Helvetica,sans-Serif" font-size="10.50" fill="white">integrate_lorenz</text>
</a>
</g>
<!-- module~foodie&#45;&gt;program~integrate_lorenz -->
<g id="edge24" class="edge"><title>module~foodie&#45;&gt;program~integrate_lorenz</title>
<path fill="none" stroke="black" stroke-dasharray="5,2" d="M206.209,-110.773C212.779,-86.9512 230.255,-37.4468 266,-17.012 302.373,3.78159 350.27,1.72807 386.913,-4.66413"/>
<polygon fill="black" stroke="black" points="386.454,-8.13934 396.931,-6.56673 387.76,-1.26227 386.454,-8.13934"/>
</g>
<!-- module~type_euler_1d&#45;&gt;program~integrate_euler_1d -->
<g id="edge2" class="edge"><title>module~type_euler_1d&#45;&gt;program~integrate_euler_1d</title>
<path fill="none" stroke="black" stroke-dasharray="5,2" d="M350.353,-240.483C359.732,-239.002 369.894,-237.397 379.922,-235.814"/>
<polygon fill="black" stroke="black" points="380.539,-239.26 389.87,-234.243 379.447,-232.346 380.539,-239.26"/>
</g>
<!-- module~type_burgers&#45;&gt;program~integrate_burgers -->
<g id="edge4" class="edge"><title>module~type_burgers&#45;&gt;program~integrate_burgers</title>
<path fill="none" stroke="black" stroke-dasharray="5,2" d="M347.112,-154.123C359.346,-150.627 373.158,-146.681 386.38,-142.904"/>
<polygon fill="black" stroke="black" points="387.686,-146.171 396.339,-140.058 385.763,-139.44 387.686,-146.171"/>
</g>
<!-- module~type_lorenz&#45;&gt;program~integrate_lorenz -->
<g id="edge6" class="edge"><title>module~type_lorenz&#45;&gt;program~integrate_lorenz</title>
<path fill="none" stroke="black" stroke-dasharray="5,2" d="M343.251,-33.8615C356.508,-31.8679 372.022,-29.535 386.774,-27.3167"/>
<polygon fill="black" stroke="black" points="387.459,-30.7531 396.827,-25.8049 386.418,-23.8309 387.459,-30.7531"/>
</g>
<!-- module~type_oscillation&#45;&gt;program~integrate_oscillation -->
<g id="edge8" class="edge"><title>module~type_oscillation&#45;&gt;program~integrate_oscillation</title>
<path fill="none" stroke="black" stroke-dasharray="5,2" d="M351.814,-83.012C360.11,-83.012 368.972,-83.012 377.781,-83.012"/>
<polygon fill="black" stroke="black" points="378.06,-86.5121 388.06,-83.012 378.06,-79.5121 378.06,-86.5121"/>
</g>
</g>
</svg>
