<?xml version="1.0" encoding="UTF-8" standalone="no"?>
<!DOCTYPE svg PUBLIC "-//W3C//DTD SVG 1.1//EN"
 "http://www.w3.org/Graphics/SVG/1.1/DTD/svg11.dtd">
<!-- Generated by graphviz version 2.26.3 (20100126.1600)
 -->
<!-- Title: module~~foodie_integrator_adams_bashforth~~UsedByGraph Pages: 1 -->
<svg width="548pt" height="280pt"
 viewBox="0.00 0.00 548.00 280.00" xmlns="http://www.w3.org/2000/svg" xmlns:xlink="http://www.w3.org/1999/xlink">
<g id="graph1" class="graph" transform="scale(1 1) rotate(0) translate(4 276)">
<title>module~~foodie_integrator_adams_bashforth~~UsedByGraph</title>
<polygon fill="white" stroke="white" points="-4,5 -4,-276 545,-276 545,5 -4,5"/>
<!-- module~foodie_integrator_adams_bashforth -->
<g id="node1" class="node"><title>module~foodie_integrator_adams_bashforth</title>
<polygon fill="none" stroke="black" points="183,-149 1,-149 1,-123 183,-123 183,-149"/>
<text text-anchor="middle" x="92" y="-133.55" font-family="Helvetica,sans-Serif" font-size="10.50">foodie_integrator_adams_bashforth</text>
</g>
<!-- module~foodie -->
<g id="node2" class="node"><title>module~foodie</title>
<a xlink:href="../module/foodie.html" xlink:title="foodie">
<polygon fill="#337ab7" stroke="#337ab7" points="274,-149 220,-149 220,-123 274,-123 274,-149"/>
<text text-anchor="middle" x="247" y="-133.55" font-family="Helvetica,sans-Serif" font-size="10.50" fill="white">foodie</text>
</a>
</g>
<!-- module~foodie_integrator_adams_bashforth&#45;&gt;module~foodie -->
<g id="edge26" class="edge"><title>module~foodie_integrator_adams_bashforth&#45;&gt;module~foodie</title>
<path fill="none" stroke="black" stroke-dasharray="5,2" d="M183.508,-136C192.714,-136 201.647,-136 209.764,-136"/>
<polygon fill="black" stroke="black" points="209.919,-139.5 219.919,-136 209.919,-132.5 209.919,-139.5"/>
</g>
<!-- module~type_burgers -->
<g id="node3" class="node"><title>module~type_burgers</title>
<a xlink:href="../module/type_burgers.html" xlink:title="type_burgers">
<polygon fill="#337ab7" stroke="#337ab7" points="391,-272 315,-272 315,-246 391,-246 391,-272"/>
<text text-anchor="middle" x="353" y="-256.55" font-family="Helvetica,sans-Serif" font-size="10.50" fill="white">type_burgers</text>
</a>
</g>
<!-- module~foodie&#45;&gt;module~type_burgers -->
<g id="edge10" class="edge"><title>module~foodie&#45;&gt;module~type_burgers</title>
<path fill="none" stroke="black" stroke-dasharray="5,2" d="M253.254,-149.061C263.178,-168.796 284.089,-206.604 310,-232 312.892,-234.834 316.131,-237.521 319.498,-240.022"/>
<polygon fill="black" stroke="black" points="317.779,-243.086 328.012,-245.832 321.726,-237.304 317.779,-243.086"/>
</g>
<!-- program~integrate_burgers -->
<g id="node4" class="node"><title>program~integrate_burgers</title>
<a xlink:href="../program/integrate_burgers.html" xlink:title="integrate_burgers">
<polygon fill="#f0ad4e" stroke="#f0ad4e" points="534,-251 438,-251 438,-225 534,-225 534,-251"/>
<text text-anchor="middle" x="486" y="-235.55" font-family="Helvetica,sans-Serif" font-size="10.50" fill="white">integrate_burgers</text>
</a>
</g>
<!-- module~foodie&#45;&gt;program~integrate_burgers -->
<g id="edge12" class="edge"><title>module~foodie&#45;&gt;program~integrate_burgers</title>
<path fill="none" stroke="black" stroke-dasharray="5,2" d="M256.337,-149.044C267.443,-163.552 287.352,-186.576 310,-199 346.088,-218.796 391.548,-228.545 427.225,-233.346"/>
<polygon fill="black" stroke="black" points="427.13,-236.861 437.486,-234.628 427.997,-229.915 427.13,-236.861"/>
</g>
<!-- module~type_euler_1d -->
<g id="node5" class="node"><title>module~type_euler_1d</title>
<a xlink:href="../module/type_euler_1d.html" xlink:title="type_euler_1D">
<polygon fill="#337ab7" stroke="#337ab7" points="394,-190 312,-190 312,-164 394,-164 394,-190"/>
<text text-anchor="middle" x="353" y="-174.55" font-family="Helvetica,sans-Serif" font-size="10.50" fill="white">type_euler_1D</text>
</a>
</g>
<!-- module~foodie&#45;&gt;module~type_euler_1d -->
<g id="edge14" class="edge"><title>module~foodie&#45;&gt;module~type_euler_1d</title>
<path fill="none" stroke="black" stroke-dasharray="5,2" d="M274.023,-146.452C284.864,-150.646 297.632,-155.584 309.705,-160.254"/>
<polygon fill="black" stroke="black" points="308.598,-163.578 319.188,-163.922 311.124,-157.05 308.598,-163.578"/>
</g>
<!-- program~integrate_oscillation -->
<g id="node6" class="node"><title>program~integrate_oscillation</title>
<a xlink:href="../program/integrate_oscillation.html" xlink:title="integrate_oscillation">
<polygon fill="#f0ad4e" stroke="#f0ad4e" points="539,-108 433,-108 433,-82 539,-82 539,-108"/>
<text text-anchor="middle" x="486" y="-92.55" font-family="Helvetica,sans-Serif" font-size="10.50" fill="white">integrate_oscillation</text>
</a>
</g>
<!-- module~foodie&#45;&gt;program~integrate_oscillation -->
<g id="edge16" class="edge"><title>module~foodie&#45;&gt;program~integrate_oscillation</title>
<path fill="none" stroke="black" stroke-dasharray="5,2" d="M274.049,-137.055C295.491,-137.637 326.2,-137.905 353,-136"/>
<path fill="none" stroke="black" stroke-dasharray="5,2" d="M353,-136C370.146,-134.781 409.317,-122.253 440.733,-111.362"/>
<polygon fill="black" stroke="black" points="441.918,-114.655 450.201,-108.049 439.607,-108.048 441.918,-114.655"/>
</g>
<!-- program~integrate_euler_1d -->
<g id="node7" class="node"><title>program~integrate_euler_1d</title>
<a xlink:href="../program/integrate_euler_1d.html" xlink:title="integrate_euler_1D">
<polygon fill="#f0ad4e" stroke="#f0ad4e" points="538,-152 434,-152 434,-126 538,-126 538,-152"/>
<text text-anchor="middle" x="486" y="-136.55" font-family="Helvetica,sans-Serif" font-size="10.50" fill="white">integrate_euler_1D</text>
</a>
</g>
<!-- module~foodie&#45;&gt;program~integrate_euler_1d -->
<g id="edge18" class="edge"><title>module~foodie&#45;&gt;program~integrate_euler_1d</title>
<path fill="none" stroke="black" stroke-dasharray="5,2" d="M353,-136C376.075,-134.36 401.453,-134.463 423.8,-135.195"/>
<polygon fill="black" stroke="black" points="423.71,-138.694 433.835,-135.572 423.973,-131.699 423.71,-138.694"/>
</g>
<!-- program~integrate_lorenz -->
<g id="node8" class="node"><title>program~integrate_lorenz</title>
<a xlink:href="../program/integrate_lorenz.html" xlink:title="integrate_lorenz">
<polygon fill="#f0ad4e" stroke="#f0ad4e" points="531,-45 441,-45 441,-19 531,-19 531,-45"/>
<text text-anchor="middle" x="486" y="-29.55" font-family="Helvetica,sans-Serif" font-size="10.50" fill="white">integrate_lorenz</text>
</a>
</g>
<!-- module~foodie&#45;&gt;program~integrate_lorenz -->
<g id="edge20" class="edge"><title>module~foodie&#45;&gt;program~integrate_lorenz</title>
<path fill="none" stroke="black" stroke-dasharray="5,2" d="M256.362,-123C267.49,-108.533 287.42,-85.5457 310,-73 347.192,-52.336 394.37,-42.0595 430.516,-36.964"/>
<polygon fill="black" stroke="black" points="431.42,-40.3754 440.878,-35.6014 430.507,-33.4351 431.42,-40.3754"/>
</g>
<!-- module~type_lorenz -->
<g id="node9" class="node"><title>module~type_lorenz</title>
<a xlink:href="../module/type_lorenz.html" xlink:title="type_lorenz">
<polygon fill="#337ab7" stroke="#337ab7" points="387,-26 319,-26 319,-1.24345e-14 387,-3.55271e-15 387,-26"/>
<text text-anchor="middle" x="353" y="-10.55" font-family="Helvetica,sans-Serif" font-size="10.50" fill="white">type_lorenz</text>
</a>
</g>
<!-- module~foodie&#45;&gt;module~type_lorenz -->
<g id="edge22" class="edge"><title>module~foodie&#45;&gt;module~type_lorenz</title>
<path fill="none" stroke="black" stroke-dasharray="5,2" d="M253.254,-122.939C263.178,-103.204 284.089,-65.3964 310,-40 312.892,-37.1655 316.131,-34.4789 319.498,-31.9784"/>
<polygon fill="black" stroke="black" points="321.726,-34.6959 328.012,-26.1677 317.779,-28.9141 321.726,-34.6959"/>
</g>
<!-- module~type_oscillation -->
<g id="node10" class="node"><title>module~type_oscillation</title>
<a xlink:href="../module/type_oscillation.html" xlink:title="type_oscillation">
<polygon fill="#337ab7" stroke="#337ab7" points="395,-108 311,-108 311,-82 395,-82 395,-108"/>
<text text-anchor="middle" x="353" y="-92.55" font-family="Helvetica,sans-Serif" font-size="10.50" fill="white">type_oscillation</text>
</a>
</g>
<!-- module~foodie&#45;&gt;module~type_oscillation -->
<g id="edge24" class="edge"><title>module~foodie&#45;&gt;module~type_oscillation</title>
<path fill="none" stroke="black" stroke-dasharray="5,2" d="M274.023,-125.548C284.864,-121.354 297.632,-116.416 309.705,-111.746"/>
<polygon fill="black" stroke="black" points="311.124,-114.95 319.188,-108.078 308.598,-108.422 311.124,-114.95"/>
</g>
<!-- module~type_burgers&#45;&gt;program~integrate_burgers -->
<g id="edge2" class="edge"><title>module~type_burgers&#45;&gt;program~integrate_burgers</title>
<path fill="none" stroke="black" stroke-dasharray="5,2" d="M391.112,-252.982C402.387,-251.202 415.001,-249.21 427.259,-247.275"/>
<polygon fill="black" stroke="black" points="428.102,-250.685 437.434,-245.668 427.011,-243.771 428.102,-250.685"/>
</g>
<!-- module~type_euler_1d&#45;&gt;program~integrate_euler_1d -->
<g id="edge4" class="edge"><title>module~type_euler_1d&#45;&gt;program~integrate_euler_1d</title>
<path fill="none" stroke="black" stroke-dasharray="5,2" d="M394.353,-165.185C405.672,-161.951 418.131,-158.391 430.118,-154.966"/>
<polygon fill="black" stroke="black" points="431.386,-158.244 440.04,-152.131 429.463,-151.513 431.386,-158.244"/>
</g>
<!-- module~type_lorenz&#45;&gt;program~integrate_lorenz -->
<g id="edge6" class="edge"><title>module~type_lorenz&#45;&gt;program~integrate_lorenz</title>
<path fill="none" stroke="black" stroke-dasharray="5,2" d="M387.251,-17.893C400.508,-19.7869 416.022,-22.0032 430.774,-24.1105"/>
<polygon fill="black" stroke="black" points="430.433,-27.5973 440.827,-25.5468 431.423,-20.6676 430.433,-27.5973"/>
</g>
<!-- module~type_oscillation&#45;&gt;program~integrate_oscillation -->
<g id="edge8" class="edge"><title>module~type_oscillation&#45;&gt;program~integrate_oscillation</title>
<path fill="none" stroke="black" stroke-dasharray="5,2" d="M395.814,-95C404.11,-95 412.972,-95 421.781,-95"/>
<polygon fill="black" stroke="black" points="422.06,-98.5001 432.06,-95 422.06,-91.5001 422.06,-98.5001"/>
</g>
</g>
</svg>
