<?xml version="1.0" encoding="UTF-8" standalone="no"?>
<!DOCTYPE svg PUBLIC "-//W3C//DTD SVG 1.1//EN"
 "http://www.w3.org/Graphics/SVG/1.1/DTD/svg11.dtd">
<!-- Generated by graphviz version 2.26.3 (20100126.1600)
 -->
<!-- Title: module~~graph~~ModuleGraph Pages: 1 -->
<svg width="855pt" height="494pt"
 viewBox="0.00 0.00 855.00 493.81" xmlns="http://www.w3.org/2000/svg" xmlns:xlink="http://www.w3.org/1999/xlink">
<g id="graph1" class="graph" transform="scale(0.962838 0.962838) rotate(0) translate(4 508.874)">
<title>module~~graph~~ModuleGraph</title>
<polygon fill="white" stroke="white" points="-4,5 -4,-508.874 885,-508.874 885,5 -4,5"/>
<!-- module~foodie -->
<g id="node1" class="node"><title>module~foodie</title>
<a xlink:href="../module/foodie.html" xlink:title="foodie">
<polygon fill="#337ab7" stroke="#337ab7" points="504,-233.124 450,-233.124 450,-207.124 504,-207.124 504,-233.124"/>
<text text-anchor="middle" x="477" y="-217.674" font-family="Helvetica,sans-Serif" font-size="10.50" fill="white">foodie</text>
</a>
</g>
<!-- module~type_oscillation -->
<g id="node2" class="node"><title>module~type_oscillation</title>
<a xlink:href="../module/type_oscillation.html" xlink:title="type_oscillation">
<polygon fill="#337ab7" stroke="#337ab7" points="680,-476.124 596,-476.124 596,-450.124 680,-450.124 680,-476.124"/>
<text text-anchor="middle" x="638" y="-460.674" font-family="Helvetica,sans-Serif" font-size="10.50" fill="white">type_oscillation</text>
</a>
</g>
<!-- module~foodie&#45;&gt;module~type_oscillation -->
<g id="edge12" class="edge"><title>module~foodie&#45;&gt;module~type_oscillation</title>
<path fill="none" stroke="black" stroke-dasharray="5,2" d="M478.789,-233.575C483.588,-265.274 499.261,-345.92 540,-398.124 555.685,-418.223 579.386,-434.18 599.551,-445.253"/>
<polygon fill="black" stroke="black" points="598.049,-448.418 608.526,-449.995 601.319,-442.229 598.049,-448.418"/>
</g>
<!-- module~type_burgers -->
<g id="node5" class="node"><title>module~type_burgers</title>
<a xlink:href="../module/type_burgers.html" xlink:title="type_burgers">
<polygon fill="#337ab7" stroke="#337ab7" points="676,-356.124 600,-356.124 600,-330.124 676,-330.124 676,-356.124"/>
<text text-anchor="middle" x="638" y="-340.674" font-family="Helvetica,sans-Serif" font-size="10.50" fill="white">type_burgers</text>
</a>
</g>
<!-- module~foodie&#45;&gt;module~type_burgers -->
<g id="edge22" class="edge"><title>module~foodie&#45;&gt;module~type_burgers</title>
<path fill="none" stroke="black" stroke-dasharray="5,2" d="M481.97,-233.171C490.563,-253.947 510.188,-294.413 540,-316.124 554.549,-326.719 573.059,-333.158 590.065,-337.07"/>
<polygon fill="black" stroke="black" points="589.361,-340.498 599.863,-339.094 590.778,-333.643 589.361,-340.498"/>
</g>
<!-- module~type_euler_1d -->
<g id="node7" class="node"><title>module~type_euler_1d</title>
<a xlink:href="../module/type_euler_1d.html" xlink:title="type_euler_1D">
<polygon fill="#337ab7" stroke="#337ab7" points="679,-66.124 597,-66.124 597,-40.124 679,-40.124 679,-66.124"/>
<text text-anchor="middle" x="638" y="-50.674" font-family="Helvetica,sans-Serif" font-size="10.50" fill="white">type_euler_1D</text>
</a>
</g>
<!-- module~foodie&#45;&gt;module~type_euler_1d -->
<g id="edge32" class="edge"><title>module~foodie&#45;&gt;module~type_euler_1d</title>
<path fill="none" stroke="black" stroke-dasharray="5,2" d="M482.251,-206.913C491.372,-185.247 511.893,-141.72 540,-113.124 557.143,-95.6831 580.339,-81.1875 599.861,-70.8156"/>
<polygon fill="black" stroke="black" points="601.532,-73.892 608.82,-66.2028 598.328,-67.6684 601.532,-73.892"/>
</g>
<!-- module~type_lorenz -->
<g id="node8" class="node"><title>module~type_lorenz</title>
<a xlink:href="../module/type_lorenz.html" xlink:title="type_lorenz">
<polygon fill="#337ab7" stroke="#337ab7" points="672,-148.124 604,-148.124 604,-122.124 672,-122.124 672,-148.124"/>
<text text-anchor="middle" x="638" y="-132.674" font-family="Helvetica,sans-Serif" font-size="10.50" fill="white">type_lorenz</text>
</a>
</g>
<!-- module~foodie&#45;&gt;module~type_lorenz -->
<g id="edge36" class="edge"><title>module~foodie&#45;&gt;module~type_lorenz</title>
<path fill="none" stroke="black" stroke-dasharray="5,2" d="M488.158,-206.64C499.79,-193.434 519.199,-173.663 540,-162.124 556.513,-152.964 576.342,-146.744 593.831,-142.607"/>
<polygon fill="black" stroke="black" points="594.803,-145.977 603.815,-140.406 593.296,-139.141 594.803,-145.977"/>
</g>
<!-- program~integrate_oscillation -->
<g id="node10" class="node"><title>program~integrate_oscillation</title>
<a xlink:href="../program/integrate_oscillation.html" xlink:title="integrate_oscillation">
<polygon fill="#f0ad4e" stroke="#f0ad4e" points="879,-397.124 773,-397.124 773,-371.124 879,-371.124 879,-397.124"/>
<text text-anchor="middle" x="826" y="-381.674" font-family="Helvetica,sans-Serif" font-size="10.50" fill="white">integrate_oscillation</text>
</a>
</g>
<!-- module~foodie&#45;&gt;program~integrate_oscillation -->
<g id="edge44" class="edge"><title>module~foodie&#45;&gt;program~integrate_oscillation</title>
<path fill="none" stroke="black" stroke-dasharray="5,2" d="M478.282,-233.366C481.913,-262.794 495.121,-333.514 540,-365.124 604.841,-410.794 699.797,-406.962 762.239,-397.565"/>
<polygon fill="black" stroke="black" points="763.031,-400.983 772.355,-395.951 761.928,-394.07 763.031,-400.983"/>
</g>
<!-- program~integrate_burgers -->
<g id="node11" class="node"><title>program~integrate_burgers</title>
<a xlink:href="../program/integrate_burgers.html" xlink:title="integrate_burgers">
<polygon fill="#f0ad4e" stroke="#f0ad4e" points="874,-315.124 778,-315.124 778,-289.124 874,-289.124 874,-315.124"/>
<text text-anchor="middle" x="826" y="-299.674" font-family="Helvetica,sans-Serif" font-size="10.50" fill="white">integrate_burgers</text>
</a>
</g>
<!-- module~foodie&#45;&gt;program~integrate_burgers -->
<g id="edge54" class="edge"><title>module~foodie&#45;&gt;program~integrate_burgers</title>
<path fill="none" stroke="black" stroke-dasharray="5,2" d="M485.635,-233.265C496.364,-248.328 516.194,-272.325 540,-283.124 613.041,-316.257 707.476,-315.201 767.414,-309.873"/>
<polygon fill="black" stroke="black" points="767.839,-313.348 777.46,-308.911 767.172,-306.38 767.839,-313.348"/>
</g>
<!-- program~integrate_lorenz -->
<g id="node12" class="node"><title>program~integrate_lorenz</title>
<a xlink:href="../program/integrate_lorenz.html" xlink:title="integrate_lorenz">
<polygon fill="#f0ad4e" stroke="#f0ad4e" points="871,-189.124 781,-189.124 781,-163.124 871,-163.124 871,-189.124"/>
<text text-anchor="middle" x="826" y="-173.674" font-family="Helvetica,sans-Serif" font-size="10.50" fill="white">integrate_lorenz</text>
</a>
</g>
<!-- module~foodie&#45;&gt;program~integrate_lorenz -->
<g id="edge64" class="edge"><title>module~foodie&#45;&gt;program~integrate_lorenz</title>
<path fill="none" stroke="black" stroke-dasharray="5,2" d="M638,-176.124C681.932,-167.601 732.733,-168.207 770.444,-170.609"/>
<polygon fill="black" stroke="black" points="770.496,-174.121 780.716,-171.328 770.985,-167.138 770.496,-174.121"/>
</g>
<!-- program~integrate_euler_1d -->
<g id="node13" class="node"><title>program~integrate_euler_1d</title>
<a xlink:href="../program/integrate_euler_1d.html" xlink:title="integrate_euler_1D">
<polygon fill="#f0ad4e" stroke="#f0ad4e" points="878,-145.124 774,-145.124 774,-119.124 878,-119.124 878,-145.124"/>
<text text-anchor="middle" x="826" y="-129.674" font-family="Helvetica,sans-Serif" font-size="10.50" fill="white">integrate_euler_1D</text>
</a>
</g>
<!-- module~foodie&#45;&gt;program~integrate_euler_1d -->
<g id="edge74" class="edge"><title>module~foodie&#45;&gt;program~integrate_euler_1d</title>
<path fill="none" stroke="black" stroke-dasharray="5,2" d="M504.211,-208.041C515.17,-203.515 528.029,-198.627 540,-195.124 582.581,-182.666 594.446,-184.574 638,-176.124"/>
<path fill="none" stroke="black" stroke-dasharray="5,2" d="M638,-176.124C681.554,-167.674 692.814,-167.291 736,-157.124 747.715,-154.366 760.203,-151.106 772.029,-147.866"/>
<polygon fill="black" stroke="black" points="773.077,-151.208 781.777,-145.162 771.205,-144.463 773.077,-151.208"/>
</g>
<!-- module~type_oscillation&#45;&gt;program~integrate_oscillation -->
<g id="edge50" class="edge"><title>module~type_oscillation&#45;&gt;program~integrate_oscillation</title>
<path fill="none" stroke="black" stroke-dasharray="5,2" d="M680.762,-453.864C698.229,-449.438 718.418,-443.483 736,-436.124 757.83,-426.987 780.912,-413.566 798.235,-402.647"/>
<polygon fill="black" stroke="black" points="800.201,-405.544 806.731,-397.201 796.424,-399.651 800.201,-405.544"/>
</g>
<!-- module~foodie_integrator_euler_explicit -->
<g id="node3" class="node"><title>module~foodie_integrator_euler_explicit</title>
<a xlink:href="../module/foodie_integrator_euler_explicit.html" xlink:title="foodie_integrator_euler_explicit">
<polygon fill="#337ab7" stroke="#337ab7" points="403,-274.124 241,-274.124 241,-248.124 403,-248.124 403,-274.124"/>
<text text-anchor="middle" x="322" y="-258.674" font-family="Helvetica,sans-Serif" font-size="10.50" fill="white">foodie_integrator_euler_explicit</text>
</a>
</g>
<!-- module~foodie_integrator_euler_explicit&#45;&gt;module~foodie -->
<g id="edge8" class="edge"><title>module~foodie_integrator_euler_explicit&#45;&gt;module~foodie</title>
<path fill="none" stroke="black" stroke-dasharray="5,2" d="M371.469,-248.039C393.6,-242.184 419.256,-235.398 439.73,-229.983"/>
<polygon fill="black" stroke="black" points="440.848,-233.307 449.621,-227.366 439.058,-226.54 440.848,-233.307"/>
</g>
<!-- module~type_integrand -->
<g id="node4" class="node"><title>module~type_integrand</title>
<a xlink:href="../module/type_integrand.html" xlink:title="type_integrand">
<polygon fill="#337ab7" stroke="#337ab7" points="194,-212.124 110,-212.124 110,-186.124 194,-186.124 194,-212.124"/>
<text text-anchor="middle" x="152" y="-196.674" font-family="Helvetica,sans-Serif" font-size="10.50" fill="white">type_integrand</text>
</a>
</g>
<!-- module~type_integrand&#45;&gt;module~foodie -->
<g id="edge6" class="edge"><title>module~type_integrand&#45;&gt;module~foodie</title>
<path fill="none" stroke="black" stroke-dasharray="5,2" d="M194.155,-201.848C257.992,-205.973 378.203,-213.74 439.297,-217.688"/>
<polygon fill="black" stroke="black" points="439.432,-221.204 449.637,-218.356 439.884,-214.218 439.432,-221.204"/>
</g>
<!-- module~type_integrand&#45;&gt;module~foodie_integrator_euler_explicit -->
<g id="edge16" class="edge"><title>module~type_integrand&#45;&gt;module~foodie_integrator_euler_explicit</title>
<path fill="none" stroke="black" stroke-dasharray="5,2" d="M178.698,-212.192C193.59,-219.204 212.595,-227.699 230,-234.124 240.629,-238.047 252.109,-241.793 263.236,-245.178"/>
<polygon fill="black" stroke="black" points="262.311,-248.555 272.894,-248.056 264.31,-241.846 262.311,-248.555"/>
</g>
<!-- module~foodie_integrator_tvd_runge_kutta -->
<g id="node6" class="node"><title>module~foodie_integrator_tvd_runge_kutta</title>
<a xlink:href="../module/foodie_integrator_tvd_runge_kutta.html" xlink:title="foodie_integrator_tvd_runge_kutta">
<polygon fill="#337ab7" stroke="#337ab7" points="410,-192.124 234,-192.124 234,-166.124 410,-166.124 410,-192.124"/>
<text text-anchor="middle" x="322" y="-176.674" font-family="Helvetica,sans-Serif" font-size="10.50" fill="white">foodie_integrator_tvd_runge_kutta</text>
</a>
</g>
<!-- module~type_integrand&#45;&gt;module~foodie_integrator_tvd_runge_kutta -->
<g id="edge26" class="edge"><title>module~type_integrand&#45;&gt;module~foodie_integrator_tvd_runge_kutta</title>
<path fill="none" stroke="black" stroke-dasharray="5,2" d="M194.022,-194.18C203.019,-193.122 212.887,-191.961 223.029,-190.768"/>
<polygon fill="black" stroke="black" points="223.716,-194.211 233.239,-189.566 222.898,-187.259 223.716,-194.211"/>
</g>
<!-- module~foodie_integrator_adams_bashforth -->
<g id="node9" class="node"><title>module~foodie_integrator_adams_bashforth</title>
<a xlink:href="../module/foodie_integrator_adams_bashforth.html" xlink:title="foodie_integrator_adams_bashforth">
<polygon fill="#337ab7" stroke="#337ab7" points="413,-148.124 231,-148.124 231,-122.124 413,-122.124 413,-148.124"/>
<text text-anchor="middle" x="322" y="-132.674" font-family="Helvetica,sans-Serif" font-size="10.50" fill="white">foodie_integrator_adams_bashforth</text>
</a>
</g>
<!-- module~type_integrand&#45;&gt;module~foodie_integrator_adams_bashforth -->
<g id="edge40" class="edge"><title>module~type_integrand&#45;&gt;module~foodie_integrator_adams_bashforth</title>
<path fill="none" stroke="black" stroke-dasharray="5,2" d="M172.812,-185.99C188.133,-176.807 209.738,-164.851 230,-157.124 235.841,-154.897 241.978,-152.845 248.195,-150.967"/>
<polygon fill="black" stroke="black" points="249.351,-154.277 257.999,-148.157 247.422,-147.548 249.351,-154.277"/>
</g>
<!-- module~type_burgers&#45;&gt;program~integrate_burgers -->
<g id="edge60" class="edge"><title>module~type_burgers&#45;&gt;program~integrate_burgers</title>
<path fill="none" stroke="black" stroke-dasharray="5,2" d="M676.045,-334.827C702.264,-329.109 737.616,-321.399 767.41,-314.902"/>
<polygon fill="black" stroke="black" points="768.255,-318.3 777.28,-312.749 766.764,-311.46 768.255,-318.3"/>
</g>
<!-- module~foodie_integrator_tvd_runge_kutta&#45;&gt;module~foodie -->
<g id="edge4" class="edge"><title>module~foodie_integrator_tvd_runge_kutta&#45;&gt;module~foodie</title>
<path fill="none" stroke="black" stroke-dasharray="5,2" d="M371.469,-192.209C393.6,-198.063 419.256,-204.85 439.73,-210.265"/>
<polygon fill="black" stroke="black" points="439.058,-213.708 449.621,-212.882 440.848,-206.941 439.058,-213.708"/>
</g>
<!-- module~type_euler_1d&#45;&gt;program~integrate_euler_1d -->
<g id="edge80" class="edge"><title>module~type_euler_1d&#45;&gt;program~integrate_euler_1d</title>
<path fill="none" stroke="black" stroke-dasharray="5,2" d="M679.313,-62.0186C697.105,-66.4804 717.93,-72.561 736,-80.124 757.83,-89.2606 780.912,-102.682 798.235,-113.601"/>
<polygon fill="black" stroke="black" points="796.424,-116.597 806.731,-119.047 800.201,-110.704 796.424,-116.597"/>
</g>
<!-- module~type_lorenz&#45;&gt;program~integrate_lorenz -->
<g id="edge70" class="edge"><title>module~type_lorenz&#45;&gt;program~integrate_lorenz</title>
<path fill="none" stroke="black" stroke-dasharray="5,2" d="M672.045,-142.549C699.544,-148.546 738.79,-157.105 770.774,-164.08"/>
<polygon fill="black" stroke="black" points="770.363,-167.573 780.88,-166.284 771.855,-160.733 770.363,-167.573"/>
</g>
<!-- module~foodie_integrator_adams_bashforth&#45;&gt;module~foodie -->
<g id="edge2" class="edge"><title>module~foodie_integrator_adams_bashforth&#45;&gt;module~foodie</title>
<path fill="none" stroke="black" stroke-dasharray="5,2" d="M393.807,-148.139C400.838,-150.631 407.694,-153.596 414,-157.124 432.557,-167.505 449.351,-184.904 460.924,-198.79"/>
<polygon fill="black" stroke="black" points="458.435,-201.28 467.424,-206.887 463.894,-196.898 458.435,-201.28"/>
</g>
<!-- IR_Precision -->
<g id="node18" class="node"><title>IR_Precision</title>
<polygon fill="#337ab7" stroke="#337ab7" points="73,-212.124 1,-212.124 1,-186.124 73,-186.124 73,-212.124"/>
<text text-anchor="middle" x="37" y="-196.674" font-family="Helvetica,sans-Serif" font-size="10.50" fill="white">IR_Precision</text>
</g>
<!-- IR_Precision&#45;&gt;module~type_oscillation -->
<g id="edge10" class="edge"><title>IR_Precision&#45;&gt;module~type_oscillation</title>
<path fill="none" stroke="black" stroke-dasharray="5,2" d="M477,-463.124C512.807,-458.065 553.541,-458.12 585.078,-459.411"/>
<polygon fill="black" stroke="black" points="585.248,-462.923 595.4,-459.891 585.574,-455.93 585.248,-462.923"/>
</g>
<!-- IR_Precision&#45;&gt;module~foodie_integrator_euler_explicit -->
<g id="edge14" class="edge"><title>IR_Precision&#45;&gt;module~foodie_integrator_euler_explicit</title>
<path fill="none" stroke="black" stroke-dasharray="5,2" d="M40.0779,-212.316C52.3494,-263.406 99.6617,-446.246 152,-463.124"/>
<path fill="none" stroke="black" stroke-dasharray="5,2" d="M152,-463.124C242.144,-492.193 297.525,-342.722 315.531,-284"/>
<polygon fill="black" stroke="black" points="318.963,-284.738 318.458,-274.155 312.253,-282.743 318.963,-284.738"/>
</g>
<!-- IR_Precision&#45;&gt;module~type_integrand -->
<g id="edge18" class="edge"><title>IR_Precision&#45;&gt;module~type_integrand</title>
<path fill="none" stroke="black" stroke-dasharray="5,2" d="M73.7029,-199.124C81.9237,-199.124 90.8,-199.124 99.521,-199.124"/>
<polygon fill="black" stroke="black" points="99.6389,-202.624 109.639,-199.124 99.6388,-195.624 99.6389,-202.624"/>
</g>
<!-- IR_Precision&#45;&gt;module~type_burgers -->
<g id="edge20" class="edge"><title>IR_Precision&#45;&gt;module~type_burgers</title>
<path fill="none" stroke="black" stroke-dasharray="5,2" d="M152,-463.124C289.473,-507.456 333.168,-476.41 477,-463.124"/>
<path fill="none" stroke="black" stroke-dasharray="5,2" d="M477,-463.124C513.803,-457.924 510.448,-430.668 540,-408.124 561.959,-391.372 588.077,-374.174 607.825,-361.679"/>
<polygon fill="black" stroke="black" points="609.805,-364.569 616.413,-356.287 606.083,-358.64 609.805,-364.569"/>
</g>
<!-- IR_Precision&#45;&gt;module~foodie_integrator_tvd_runge_kutta -->
<g id="edge24" class="edge"><title>IR_Precision&#45;&gt;module~foodie_integrator_tvd_runge_kutta</title>
<path fill="none" stroke="black" stroke-dasharray="5,2" d="M152,-135.124C186.891,-126.179 195.144,-148.045 230,-157.124 238.429,-159.32 247.315,-161.55 256.105,-163.706"/>
<polygon fill="black" stroke="black" points="255.417,-167.14 265.961,-166.103 257.072,-160.339 255.417,-167.14"/>
</g>
<!-- IR_Precision&#45;&gt;module~type_euler_1d -->
<g id="edge28" class="edge"><title>IR_Precision&#45;&gt;module~type_euler_1d</title>
<path fill="none" stroke="black" stroke-dasharray="5,2" d="M322,-94.124C388.788,-77.2391 408.111,-94.124 477,-94.124"/>
<path fill="none" stroke="black" stroke-dasharray="5,2" d="M477,-94.124C488.105,-94.124 544.114,-79.2862 586.982,-67.4629"/>
<polygon fill="black" stroke="black" points="588.029,-70.8047 596.733,-64.7632 586.162,-64.0584 588.029,-70.8047"/>
</g>
<!-- IR_Precision&#45;&gt;module~type_lorenz -->
<g id="edge34" class="edge"><title>IR_Precision&#45;&gt;module~type_lorenz</title>
<path fill="none" stroke="black" stroke-dasharray="5,2" d="M477,-94.124C488.707,-94.124 550.319,-110.614 593.829,-122.679"/>
<polygon fill="black" stroke="black" points="593.063,-126.098 603.635,-125.408 594.94,-119.355 593.063,-126.098"/>
</g>
<!-- IR_Precision&#45;&gt;module~foodie_integrator_adams_bashforth -->
<g id="edge38" class="edge"><title>IR_Precision&#45;&gt;module~foodie_integrator_adams_bashforth</title>
<path fill="none" stroke="black" stroke-dasharray="5,2" d="M152,-135.124C173.569,-129.594 197.19,-127.323 219.78,-126.872"/>
<polygon fill="black" stroke="black" points="220.105,-130.369 230.076,-126.787 220.047,-123.369 220.105,-130.369"/>
</g>
<!-- IR_Precision&#45;&gt;program~integrate_oscillation -->
<g id="edge42" class="edge"><title>IR_Precision&#45;&gt;program~integrate_oscillation</title>
<path fill="none" stroke="black" stroke-dasharray="5,2" d="M477,-463.124C506.301,-458.538 510.759,-480.165 540,-485.124 625.885,-499.688 656.512,-520.761 736,-485.124 771.947,-469.008 799.426,-430.651 814.101,-406.117"/>
<polygon fill="black" stroke="black" points="817.3,-407.574 819.258,-397.162 811.234,-404.081 817.3,-407.574"/>
</g>
<!-- IR_Precision&#45;&gt;program~integrate_burgers -->
<g id="edge52" class="edge"><title>IR_Precision&#45;&gt;program~integrate_burgers</title>
<path fill="none" stroke="black" stroke-dasharray="5,2" d="M477,-463.124C484.617,-462.048 729.199,-368.719 736,-365.124 759.62,-352.639 784.338,-334.955 801.88,-321.499"/>
<polygon fill="black" stroke="black" points="804.137,-324.178 809.879,-315.274 799.838,-318.654 804.137,-324.178"/>
</g>
<!-- IR_Precision&#45;&gt;program~integrate_lorenz -->
<g id="edge62" class="edge"><title>IR_Precision&#45;&gt;program~integrate_lorenz</title>
<path fill="none" stroke="black" stroke-dasharray="5,2" d="M477,-94.124C592.42,-94.124 632.666,-61.7039 736,-113.124 757.71,-123.927 752.243,-140.062 772,-154.124 774.093,-155.613 776.301,-157.024 778.582,-158.356"/>
<polygon fill="black" stroke="black" points="777.163,-161.564 787.644,-163.11 780.415,-155.365 777.163,-161.564"/>
</g>
<!-- IR_Precision&#45;&gt;program~integrate_euler_1d -->
<g id="edge72" class="edge"><title>IR_Precision&#45;&gt;program~integrate_euler_1d</title>
<path fill="none" stroke="black" stroke-dasharray="5,2" d="M54.0979,-185.852C75.556,-170.123 114.153,-144.827 152,-135.124"/>
<path fill="none" stroke="black" stroke-dasharray="5,2" d="M152,-135.124C186.891,-126.179 195.007,-121.661 230,-113.124 270.562,-103.228 281.522,-104.357 322,-94.124"/>
<path fill="none" stroke="black" stroke-dasharray="5,2" d="M322,-94.124C383.472,-78.583 388.245,-45.4982 450,-31.124 573.802,-2.30776 620.012,20.8767 736,-31.124 771.947,-47.2401 799.426,-85.5969 814.101,-110.131"/>
<polygon fill="black" stroke="black" points="811.234,-112.167 819.258,-119.086 817.3,-108.674 811.234,-112.167"/>
</g>
<!-- wenoof -->
<g id="node29" class="node"><title>wenoof</title>
<polygon fill="#337ab7" stroke="#337ab7" points="504,-66.124 450,-66.124 450,-40.124 504,-40.124 504,-66.124"/>
<text text-anchor="middle" x="477" y="-50.674" font-family="Helvetica,sans-Serif" font-size="10.50" fill="white">wenoof</text>
</g>
<!-- wenoof&#45;&gt;module~type_euler_1d -->
<g id="edge30" class="edge"><title>wenoof&#45;&gt;module~type_euler_1d</title>
<path fill="none" stroke="black" stroke-dasharray="5,2" d="M504.311,-53.124C526.825,-53.124 559.384,-53.124 586.733,-53.124"/>
<polygon fill="black" stroke="black" points="586.929,-56.6241 596.929,-53.124 586.929,-49.6241 586.929,-56.6241"/>
</g>
<!-- pyplot_module -->
<g id="node38" class="node"><title>pyplot_module</title>
<polygon fill="#337ab7" stroke="#337ab7" points="679,-274.124 597,-274.124 597,-248.124 679,-248.124 679,-274.124"/>
<text text-anchor="middle" x="638" y="-258.674" font-family="Helvetica,sans-Serif" font-size="10.50" fill="white">pyplot_module</text>
</g>
<!-- pyplot_module&#45;&gt;program~integrate_oscillation -->
<g id="edge46" class="edge"><title>pyplot_module&#45;&gt;program~integrate_oscillation</title>
<path fill="none" stroke="black" stroke-dasharray="5,2" d="M660.429,-274.323C680.451,-286.231 710.47,-304.396 736,-321.124 757.798,-335.407 781.967,-352.391 799.766,-365.124"/>
<polygon fill="black" stroke="black" points="797.789,-368.013 807.953,-371.002 801.871,-362.327 797.789,-368.013"/>
</g>
<!-- pyplot_module&#45;&gt;program~integrate_burgers -->
<g id="edge56" class="edge"><title>pyplot_module&#45;&gt;program~integrate_burgers</title>
<path fill="none" stroke="black" stroke-dasharray="5,2" d="M679.257,-270.122C705.073,-275.752 738.736,-283.093 767.307,-289.324"/>
<polygon fill="black" stroke="black" points="766.663,-292.766 777.179,-291.477 768.155,-285.926 766.663,-292.766"/>
</g>
<!-- pyplot_module&#45;&gt;program~integrate_lorenz -->
<g id="edge66" class="edge"><title>pyplot_module&#45;&gt;program~integrate_lorenz</title>
<path fill="none" stroke="black" stroke-dasharray="5,2" d="M679.181,-255.56C697.143,-252.209 718.134,-247.012 736,-239.124 760.89,-228.134 785.988,-209.829 803.333,-195.775"/>
<polygon fill="black" stroke="black" points="805.721,-198.341 811.19,-189.267 801.256,-192.95 805.721,-198.341"/>
</g>
<!-- pyplot_module&#45;&gt;program~integrate_euler_1d -->
<g id="edge76" class="edge"><title>pyplot_module&#45;&gt;program~integrate_euler_1d</title>
<path fill="none" stroke="black" stroke-dasharray="5,2" d="M679.448,-260.272C698.521,-257.915 720.337,-252.197 736,-239.124 767.497,-212.836 742.791,-182.934 772,-154.124 773.104,-153.035 774.268,-151.998 775.483,-151.011"/>
<polygon fill="black" stroke="black" points="777.78,-153.682 784.105,-145.182 773.86,-147.883 777.78,-153.682"/>
</g>
<!-- Data_Type_Command_Line_Interface -->
<g id="node40" class="node"><title>Data_Type_Command_Line_Interface</title>
<polygon fill="#337ab7" stroke="#337ab7" points="735,-230.124 541,-230.124 541,-204.124 735,-204.124 735,-230.124"/>
<text text-anchor="middle" x="638" y="-214.674" font-family="Helvetica,sans-Serif" font-size="10.50" fill="white">Data_Type_Command_Line_Interface</text>
</g>
<!-- Data_Type_Command_Line_Interface&#45;&gt;program~integrate_oscillation -->
<g id="edge48" class="edge"><title>Data_Type_Command_Line_Interface&#45;&gt;program~integrate_oscillation</title>
<path fill="none" stroke="black" stroke-dasharray="5,2" d="M722.419,-230.207C727.268,-232.713 731.85,-235.66 736,-239.124 767.497,-265.412 749.974,-289.511 772,-324.124 781.17,-338.534 793.847,-352.822 804.615,-363.839"/>
<polygon fill="black" stroke="black" points="802.146,-366.319 811.697,-370.904 807.089,-361.364 802.146,-366.319"/>
</g>
<!-- Data_Type_Command_Line_Interface&#45;&gt;program~integrate_burgers -->
<g id="edge58" class="edge"><title>Data_Type_Command_Line_Interface&#45;&gt;program~integrate_burgers</title>
<path fill="none" stroke="black" stroke-dasharray="5,2" d="M711.012,-230.169C719.597,-232.677 728.104,-235.638 736,-239.124 760.89,-250.113 785.988,-268.418 803.333,-282.473"/>
<polygon fill="black" stroke="black" points="801.256,-285.298 811.19,-288.981 805.721,-279.907 801.256,-285.298"/>
</g>
<!-- Data_Type_Command_Line_Interface&#45;&gt;program~integrate_lorenz -->
<g id="edge68" class="edge"><title>Data_Type_Command_Line_Interface&#45;&gt;program~integrate_lorenz</title>
<path fill="none" stroke="black" stroke-dasharray="5,2" d="M697.743,-204.095C721.157,-198.989 747.857,-193.166 770.811,-188.16"/>
<polygon fill="black" stroke="black" points="771.708,-191.547 780.733,-185.996 770.217,-184.707 771.708,-191.547"/>
</g>
<!-- Data_Type_Command_Line_Interface&#45;&gt;program~integrate_euler_1d -->
<g id="edge78" class="edge"><title>Data_Type_Command_Line_Interface&#45;&gt;program~integrate_euler_1d</title>
<path fill="none" stroke="black" stroke-dasharray="5,2" d="M703.699,-204.098C714.889,-200.475 726.086,-195.894 736,-190.124 755.556,-178.741 753.149,-166.64 772,-154.124 774.372,-152.549 776.874,-151.055 779.45,-149.642"/>
<polygon fill="black" stroke="black" points="781.033,-152.764 788.407,-145.157 777.898,-146.505 781.033,-152.764"/>
</g>
</g>
</svg>
