<?xml version="1.0" encoding="UTF-8" standalone="no"?>
<!DOCTYPE svg PUBLIC "-//W3C//DTD SVG 1.1//EN"
 "http://www.w3.org/Graphics/SVG/1.1/DTD/svg11.dtd">
<!-- Generated by graphviz version 2.38.0 (20140413.2041)
 -->
<!-- Title: module~~foodie_integrator_tvd_runge_kutta~~UsesGraph Pages: 1 -->
<svg width="414pt" height="52pt"
 viewBox="0.00 0.00 414.00 52.00" xmlns="http://www.w3.org/2000/svg" xmlns:xlink="http://www.w3.org/1999/xlink">
<g id="graph0" class="graph" transform="scale(1 1) rotate(0) translate(4 48)">
<title>module~~foodie_integrator_tvd_runge_kutta~~UsesGraph</title>
<polygon fill="white" stroke="none" points="-4,4 -4,-48 410,-48 410,4 -4,4"/>
<!-- module~foodie_integrator_tvd_runge_kutta -->
<g id="node1" class="node"><title>module~foodie_integrator_tvd_runge_kutta</title>
<polygon fill="none" stroke="black" points="406,-44 229,-44 229,-20 406,-20 406,-44"/>
<text text-anchor="middle" x="317.5" y="-29.6" font-family="Helvetica,sans-Serif" font-size="10.50">foodie_integrator_tvd_runge_kutta</text>
</g>
<!-- IR_Precision -->
<g id="node2" class="node"><title>IR_Precision</title>
<polygon fill="#337ab7" stroke="#337ab7" points="73,-44 0,-44 0,-20 73,-20 73,-44"/>
<text text-anchor="middle" x="36.5" y="-29.6" font-family="Helvetica,sans-Serif" font-size="10.50" fill="white">IR_Precision</text>
</g>
<!-- IR_Precision&#45;&gt;module~foodie_integrator_tvd_runge_kutta -->
<g id="edge2" class="edge"><title>IR_Precision&#45;&gt;module~foodie_integrator_tvd_runge_kutta</title>
<path fill="none" stroke="black" stroke-dasharray="5,2" d="M73.1402,-32.5965C84.591,-32.7619 97.3307,-32.9184 109,-33 144.82,-33.2505 184.119,-33.1555 218.79,-32.9457"/>
<polygon fill="black" stroke="black" points="218.937,-36.4449 228.914,-32.8804 218.892,-29.445 218.937,-36.4449"/>
</g>
<!-- module~type_integrand -->
<g id="node3" class="node"><title>module~type_integrand</title>
<g id="a_node3"><a xlink:href="../module/type_integrand.html" xlink:title="type_integrand">
<polygon fill="#337ab7" stroke="#337ab7" points="193,-24 109,-24 109,-0 193,-0 193,-24"/>
<text text-anchor="middle" x="151" y="-9.6" font-family="Helvetica,sans-Serif" font-size="10.50" fill="white">type_integrand</text>
</a>
</g>
</g>
<!-- IR_Precision&#45;&gt;module~type_integrand -->
<g id="edge1" class="edge"><title>IR_Precision&#45;&gt;module~type_integrand</title>
<path fill="none" stroke="black" stroke-dasharray="5,2" d="M73.0957,-25.6719C81.2389,-24.2242 90.0527,-22.6573 98.7087,-21.1185"/>
<polygon fill="black" stroke="black" points="99.515,-24.5301 108.748,-19.3337 98.2897,-17.6381 99.515,-24.5301"/>
</g>
<!-- module~type_integrand&#45;&gt;module~foodie_integrator_tvd_runge_kutta -->
<g id="edge3" class="edge"><title>module~type_integrand&#45;&gt;module~foodie_integrator_tvd_runge_kutta</title>
<path fill="none" stroke="black" stroke-dasharray="5,2" d="M193.086,-16.9953C201.037,-17.962 209.68,-19.0128 218.577,-20.0945"/>
<polygon fill="black" stroke="black" points="218.357,-23.5935 228.707,-21.3261 219.202,-16.6446 218.357,-23.5935"/>
</g>
</g>
</svg>
