<?xml version="1.0" encoding="UTF-8" standalone="no"?>
<!DOCTYPE svg PUBLIC "-//W3C//DTD SVG 1.1//EN"
 "http://www.w3.org/Graphics/SVG/1.1/DTD/svg11.dtd">
<!-- Generated by graphviz version 2.26.3 (20100126.1600)
 -->
<!-- Title: module~~type_oscillation~~UsedByGraph Pages: 1 -->
<svg width="238pt" height="34pt"
 viewBox="0.00 0.00 238.00 34.00" xmlns="http://www.w3.org/2000/svg" xmlns:xlink="http://www.w3.org/1999/xlink">
<g id="graph1" class="graph" transform="scale(1 1) rotate(0) translate(4 30)">
<title>module~~type_oscillation~~UsedByGraph</title>
<polygon fill="white" stroke="white" points="-4,5 -4,-30 235,-30 235,5 -4,5"/>
<!-- module~type_oscillation -->
<g id="node1" class="node"><title>module~type_oscillation</title>
<polygon fill="none" stroke="black" points="85,-26 1,-26 1,-1.24345e-14 85,-3.55271e-15 85,-26"/>
<text text-anchor="middle" x="43" y="-10.55" font-family="Helvetica,sans-Serif" font-size="10.50">type_oscillation</text>
</g>
<!-- program~integrate_oscillation -->
<g id="node2" class="node"><title>program~integrate_oscillation</title>
<a xlink:href="../program/integrate_oscillation.html" xlink:title="integrate_oscillation">
<polygon fill="#f0ad4e" stroke="#f0ad4e" points="229,-26 123,-26 123,-1.24345e-14 229,-3.55271e-15 229,-26"/>
<text text-anchor="middle" x="176" y="-10.55" font-family="Helvetica,sans-Serif" font-size="10.50" fill="white">integrate_oscillation</text>
</a>
</g>
<!-- module~type_oscillation&#45;&gt;program~integrate_oscillation -->
<g id="edge2" class="edge"><title>module~type_oscillation&#45;&gt;program~integrate_oscillation</title>
<path fill="none" stroke="black" stroke-dasharray="5,2" d="M85.8141,-13C94.1103,-13 102.972,-13 111.781,-13"/>
<polygon fill="black" stroke="black" points="112.06,-16.5001 122.06,-13 112.06,-9.5001 112.06,-16.5001"/>
</g>
</g>
</svg>
