<?xml version="1.0" encoding="UTF-8" standalone="no"?>
<!DOCTYPE svg PUBLIC "-//W3C//DTD SVG 1.1//EN"
 "http://www.w3.org/Graphics/SVG/1.1/DTD/svg11.dtd">
<!-- Generated by graphviz version 2.26.3 (20100126.1600)
 -->
<!-- Title: module~~type_euler_1d~~UsesGraph Pages: 1 -->
<svg width="641pt" height="267pt"
 viewBox="0.00 0.00 641.00 267.40" xmlns="http://www.w3.org/2000/svg" xmlns:xlink="http://www.w3.org/1999/xlink">
<g id="graph1" class="graph" transform="scale(0.962462 0.962462) rotate(0) translate(4 273.829)">
<title>module~~type_euler_1d~~UsesGraph</title>
<polygon fill="white" stroke="white" points="-4,5 -4,-273.829 663,-273.829 663,5 -4,5"/>
<!-- module~type_euler_1d -->
<g id="node1" class="node"><title>module~type_euler_1d</title>
<polygon fill="none" stroke="black" points="658,-152 576,-152 576,-126 658,-126 658,-152"/>
<text text-anchor="middle" x="617" y="-136.55" font-family="Helvetica,sans-Serif" font-size="10.50">type_euler_1D</text>
</g>
<!-- IR_Precision -->
<g id="node2" class="node"><title>IR_Precision</title>
<polygon fill="#337ab7" stroke="#337ab7" points="73,-131 1,-131 1,-105 73,-105 73,-131"/>
<text text-anchor="middle" x="37" y="-115.55" font-family="Helvetica,sans-Serif" font-size="10.50" fill="white">IR_Precision</text>
</g>
<!-- IR_Precision&#45;&gt;module~type_euler_1d -->
<g id="edge36" class="edge"><title>IR_Precision&#45;&gt;module~type_euler_1d</title>
<path fill="none" stroke="black" stroke-dasharray="5,2" d="M152,-227C278.101,-268.662 322.787,-287.132 450,-249 508.668,-231.414 565.783,-185.829 595.625,-159.185"/>
<polygon fill="black" stroke="black" points="598.252,-161.527 603.298,-152.211 593.543,-156.347 598.252,-161.527"/>
</g>
<!-- module~foodie_integrator_tvd_runge_kutta -->
<g id="node5" class="node"><title>module~foodie_integrator_tvd_runge_kutta</title>
<a xlink:href="../module/foodie_integrator_tvd_runge_kutta.html" xlink:title="foodie_integrator_tvd_runge_kutta">
<polygon fill="#337ab7" stroke="#337ab7" points="428,-70 252,-70 252,-44 428,-44 428,-70"/>
<text text-anchor="middle" x="340" y="-54.55" font-family="Helvetica,sans-Serif" font-size="10.50" fill="white">foodie_integrator_tvd_runge_kutta</text>
</a>
</g>
<!-- IR_Precision&#45;&gt;module~foodie_integrator_tvd_runge_kutta -->
<g id="edge2" class="edge"><title>IR_Precision&#45;&gt;module~foodie_integrator_tvd_runge_kutta</title>
<path fill="none" stroke="black" stroke-dasharray="5,2" d="M152,-57C180.153,-48.2266 211.851,-45.6458 241.084,-45.9794"/>
<polygon fill="black" stroke="black" points="241.234,-49.4836 251.312,-46.2135 241.394,-42.4855 241.234,-49.4836"/>
</g>
<!-- module~type_integrand -->
<g id="node6" class="node"><title>module~type_integrand</title>
<a xlink:href="../module/type_integrand.html" xlink:title="type_integrand">
<polygon fill="#337ab7" stroke="#337ab7" points="194,-131 110,-131 110,-105 194,-105 194,-131"/>
<text text-anchor="middle" x="152" y="-115.55" font-family="Helvetica,sans-Serif" font-size="10.50" fill="white">type_integrand</text>
</a>
</g>
<!-- IR_Precision&#45;&gt;module~type_integrand -->
<g id="edge6" class="edge"><title>IR_Precision&#45;&gt;module~type_integrand</title>
<path fill="none" stroke="black" stroke-dasharray="5,2" d="M73.7029,-118C81.9237,-118 90.8,-118 99.521,-118"/>
<polygon fill="black" stroke="black" points="99.6389,-121.5 109.639,-118 99.6388,-114.5 99.6389,-121.5"/>
</g>
<!-- module~foodie_integrator_adams_bashforth -->
<g id="node7" class="node"><title>module~foodie_integrator_adams_bashforth</title>
<a xlink:href="../module/foodie_integrator_adams_bashforth.html" xlink:title="foodie_integrator_adams_bashforth">
<polygon fill="#337ab7" stroke="#337ab7" points="431,-26 249,-26 249,-1.24345e-14 431,-3.55271e-15 431,-26"/>
<text text-anchor="middle" x="340" y="-10.55" font-family="Helvetica,sans-Serif" font-size="10.50" fill="white">foodie_integrator_adams_bashforth</text>
</a>
</g>
<!-- IR_Precision&#45;&gt;module~foodie_integrator_adams_bashforth -->
<g id="edge8" class="edge"><title>IR_Precision&#45;&gt;module~foodie_integrator_adams_bashforth</title>
<path fill="none" stroke="black" stroke-dasharray="5,2" d="M56.3661,-104.822C78.4618,-90.4969 116.183,-68.1619 152,-57"/>
<path fill="none" stroke="black" stroke-dasharray="5,2" d="M152,-57C186.388,-46.2835 194.981,-43.4272 230,-35 239.901,-32.6174 250.346,-30.2903 260.701,-28.0954"/>
<polygon fill="black" stroke="black" points="261.506,-31.503 270.58,-26.034 260.076,-24.6506 261.506,-31.503"/>
</g>
<!-- module~foodie_integrator_euler_explicit -->
<g id="node8" class="node"><title>module~foodie_integrator_euler_explicit</title>
<a xlink:href="../module/foodie_integrator_euler_explicit.html" xlink:title="foodie_integrator_euler_explicit">
<polygon fill="#337ab7" stroke="#337ab7" points="421,-240 259,-240 259,-214 421,-214 421,-240"/>
<text text-anchor="middle" x="340" y="-224.55" font-family="Helvetica,sans-Serif" font-size="10.50" fill="white">foodie_integrator_euler_explicit</text>
</a>
</g>
<!-- IR_Precision&#45;&gt;module~foodie_integrator_euler_explicit -->
<g id="edge12" class="edge"><title>IR_Precision&#45;&gt;module~foodie_integrator_euler_explicit</title>
<path fill="none" stroke="black" stroke-dasharray="5,2" d="M152,-227C182.482,-237.071 217.292,-239.403 248.605,-238.457"/>
<polygon fill="black" stroke="black" points="248.793,-241.952 258.639,-238.04 248.502,-234.958 248.793,-241.952"/>
</g>
<!-- module~foodie_integrator_leapfrog -->
<g id="node9" class="node"><title>module~foodie_integrator_leapfrog</title>
<a xlink:href="../module/foodie_integrator_leapfrog.html" xlink:title="foodie_integrator_leapfrog">
<polygon fill="#337ab7" stroke="#337ab7" points="409,-196 271,-196 271,-170 409,-170 409,-196"/>
<text text-anchor="middle" x="340" y="-180.55" font-family="Helvetica,sans-Serif" font-size="10.50" fill="white">foodie_integrator_leapfrog</text>
</a>
</g>
<!-- IR_Precision&#45;&gt;module~foodie_integrator_leapfrog -->
<g id="edge16" class="edge"><title>IR_Precision&#45;&gt;module~foodie_integrator_leapfrog</title>
<path fill="none" stroke="black" stroke-dasharray="5,2" d="M152,-227C186.201,-238.3 194.981,-213.427 230,-205 239.901,-202.617 250.346,-200.29 260.701,-198.095"/>
<polygon fill="black" stroke="black" points="261.506,-201.503 270.58,-196.034 260.076,-194.651 261.506,-201.503"/>
</g>
<!-- module~foodie_integrator_low_storage_runge_kutta -->
<g id="node10" class="node"><title>module~foodie_integrator_low_storage_runge_kutta</title>
<a xlink:href="../module/foodie_integrator_low_storage_runge_kutta.html" xlink:title="foodie_integrator_low_storage_runge_kutta">
<polygon fill="#337ab7" stroke="#337ab7" points="450,-152 230,-152 230,-126 450,-126 450,-152"/>
<text text-anchor="middle" x="340" y="-136.55" font-family="Helvetica,sans-Serif" font-size="10.50" fill="white">foodie_integrator_low_storage_runge_kutta</text>
</a>
</g>
<!-- IR_Precision&#45;&gt;module~foodie_integrator_low_storage_runge_kutta -->
<g id="edge20" class="edge"><title>IR_Precision&#45;&gt;module~foodie_integrator_low_storage_runge_kutta</title>
<path fill="none" stroke="black" stroke-dasharray="5,2" d="M45.0521,-131.137C61.4134,-156.294 101.328,-210.258 152,-227"/>
<path fill="none" stroke="black" stroke-dasharray="5,2" d="M152,-227C195.119,-241.246 189.106,-180.745 230,-161 234.321,-158.913 238.83,-157.025 243.45,-155.315"/>
<polygon fill="black" stroke="black" points="244.72,-158.58 253.064,-152.051 242.47,-151.952 244.72,-158.58"/>
</g>
<!-- module~foodie -->
<g id="node3" class="node"><title>module~foodie</title>
<a xlink:href="../module/foodie.html" xlink:title="foodie">
<polygon fill="#337ab7" stroke="#337ab7" points="540,-152 486,-152 486,-126 540,-126 540,-152"/>
<text text-anchor="middle" x="513" y="-136.55" font-family="Helvetica,sans-Serif" font-size="10.50" fill="white">foodie</text>
</a>
</g>
<!-- module~foodie&#45;&gt;module~type_euler_1d -->
<g id="edge38" class="edge"><title>module~foodie&#45;&gt;module~type_euler_1d</title>
<path fill="none" stroke="black" stroke-dasharray="5,2" d="M540.053,-139C548.012,-139 556.992,-139 565.935,-139"/>
<polygon fill="black" stroke="black" points="565.961,-142.5 575.961,-139 565.961,-135.5 565.961,-142.5"/>
</g>
<!-- wenoof -->
<g id="node4" class="node"><title>wenoof</title>
<polygon fill="#337ab7" stroke="#337ab7" points="540,-108 486,-108 486,-82 540,-82 540,-108"/>
<text text-anchor="middle" x="513" y="-92.55" font-family="Helvetica,sans-Serif" font-size="10.50" fill="white">wenoof</text>
</g>
<!-- wenoof&#45;&gt;module~type_euler_1d -->
<g id="edge40" class="edge"><title>wenoof&#45;&gt;module~type_euler_1d</title>
<path fill="none" stroke="black" stroke-dasharray="5,2" d="M540.053,-106.446C551.166,-111.147 564.271,-116.691 576.485,-121.859"/>
<polygon fill="black" stroke="black" points="575.462,-125.226 586.035,-125.9 578.189,-118.78 575.462,-125.226"/>
</g>
<!-- module~foodie_integrator_tvd_runge_kutta&#45;&gt;module~foodie -->
<g id="edge24" class="edge"><title>module~foodie_integrator_tvd_runge_kutta&#45;&gt;module~foodie</title>
<path fill="none" stroke="black" stroke-dasharray="5,2" d="M414.959,-70.0196C427.062,-73.6252 439.164,-78.2017 450,-84 469.138,-94.2403 469.58,-102.805 486,-117 486.846,-117.732 487.711,-118.472 488.588,-119.217"/>
<polygon fill="black" stroke="black" points="486.673,-122.177 496.597,-125.889 491.154,-116.799 486.673,-122.177"/>
</g>
<!-- module~type_integrand&#45;&gt;module~foodie -->
<g id="edge26" class="edge"><title>module~type_integrand&#45;&gt;module~foodie</title>
<path fill="none" stroke="black" stroke-dasharray="5,2" d="M194.32,-113.353C252.43,-107.993 359.971,-101.733 450,-117 458.702,-118.476 467.805,-121.022 476.298,-123.87"/>
<polygon fill="black" stroke="black" points="475.335,-127.242 485.929,-127.307 477.687,-120.649 475.335,-127.242"/>
</g>
<!-- module~type_integrand&#45;&gt;module~foodie_integrator_tvd_runge_kutta -->
<g id="edge4" class="edge"><title>module~type_integrand&#45;&gt;module~foodie_integrator_tvd_runge_kutta</title>
<path fill="none" stroke="black" stroke-dasharray="5,2" d="M178.986,-104.881C193.804,-98.0246 212.646,-89.8642 230,-84 242.47,-79.7861 255.939,-75.9299 269.033,-72.5324"/>
<polygon fill="black" stroke="black" points="270.112,-75.8696 278.95,-70.0254 268.397,-69.0831 270.112,-75.8696"/>
</g>
<!-- module~type_integrand&#45;&gt;module~foodie_integrator_adams_bashforth -->
<g id="edge10" class="edge"><title>module~type_integrand&#45;&gt;module~foodie_integrator_adams_bashforth</title>
<path fill="none" stroke="black" stroke-dasharray="5,2" d="M164.061,-104.749C184.917,-81.8955 225.894,-37.28 230,-35 233.445,-33.0868 237.033,-31.3386 240.719,-29.7413"/>
<polygon fill="black" stroke="black" points="242.031,-32.9864 250.06,-26.0735 239.473,-26.4707 242.031,-32.9864"/>
</g>
<!-- module~type_integrand&#45;&gt;module~foodie_integrator_euler_explicit -->
<g id="edge14" class="edge"><title>module~type_integrand&#45;&gt;module~foodie_integrator_euler_explicit</title>
<path fill="none" stroke="black" stroke-dasharray="5,2" d="M159.747,-131.018C172.039,-150.447 197.935,-186.699 230,-205 235.966,-208.405 242.377,-211.29 248.996,-213.733"/>
<polygon fill="black" stroke="black" points="248.222,-217.164 258.815,-217.004 250.434,-210.523 248.222,-217.164"/>
</g>
<!-- module~type_integrand&#45;&gt;module~foodie_integrator_leapfrog -->
<g id="edge18" class="edge"><title>module~type_integrand&#45;&gt;module~foodie_integrator_leapfrog</title>
<path fill="none" stroke="black" stroke-dasharray="5,2" d="M171.717,-131.098C187.022,-140.702 209.088,-153.352 230,-161 239.703,-164.548 250.107,-167.571 260.507,-170.133"/>
<polygon fill="black" stroke="black" points="259.919,-173.59 270.452,-172.451 261.507,-166.772 259.919,-173.59"/>
</g>
<!-- module~type_integrand&#45;&gt;module~foodie_integrator_low_storage_runge_kutta -->
<g id="edge22" class="edge"><title>module~type_integrand&#45;&gt;module~foodie_integrator_low_storage_runge_kutta</title>
<path fill="none" stroke="black" stroke-dasharray="5,2" d="M194.191,-122.713C202.057,-123.591 210.626,-124.549 219.541,-125.545"/>
<polygon fill="black" stroke="black" points="219.408,-129.051 229.735,-126.683 220.185,-122.095 219.408,-129.051"/>
</g>
<!-- module~foodie_integrator_adams_bashforth&#45;&gt;module~foodie -->
<g id="edge28" class="edge"><title>module~foodie_integrator_adams_bashforth&#45;&gt;module~foodie</title>
<path fill="none" stroke="black" stroke-dasharray="5,2" d="M431.711,-23.9612C438.264,-26.9139 444.46,-30.5454 450,-35 481.018,-59.942 461.9,-85.3236 486,-117 486.453,-117.596 486.925,-118.185 487.414,-118.767"/>
<polygon fill="black" stroke="black" points="484.931,-121.233 494.452,-125.881 489.907,-116.311 484.931,-121.233"/>
</g>
<!-- module~foodie_integrator_euler_explicit&#45;&gt;module~foodie -->
<g id="edge30" class="edge"><title>module~foodie_integrator_euler_explicit&#45;&gt;module~foodie</title>
<path fill="none" stroke="black" stroke-dasharray="5,2" d="M421.037,-216.74C431.132,-213.762 441.042,-209.929 450,-205 469.606,-194.212 486.759,-175.231 498.195,-160.385"/>
<polygon fill="black" stroke="black" points="501.107,-162.335 504.244,-152.215 495.481,-158.17 501.107,-162.335"/>
</g>
<!-- module~foodie_integrator_leapfrog&#45;&gt;module~foodie -->
<g id="edge32" class="edge"><title>module~foodie_integrator_leapfrog&#45;&gt;module~foodie</title>
<path fill="none" stroke="black" stroke-dasharray="5,2" d="M409.584,-170.602C423.071,-167.772 437.037,-164.541 450,-161 458.688,-158.626 467.91,-155.666 476.539,-152.693"/>
<polygon fill="black" stroke="black" points="477.706,-155.993 485.97,-149.363 475.375,-149.392 477.706,-155.993"/>
</g>
<!-- module~foodie_integrator_low_storage_runge_kutta&#45;&gt;module~foodie -->
<g id="edge34" class="edge"><title>module~foodie_integrator_low_storage_runge_kutta&#45;&gt;module~foodie</title>
<path fill="none" stroke="black" stroke-dasharray="5,2" d="M450.054,-139C459.125,-139 467.822,-139 475.703,-139"/>
<polygon fill="black" stroke="black" points="475.902,-142.5 485.902,-139 475.902,-135.5 475.902,-142.5"/>
</g>
</g>
</svg>
