<?xml version="1.0" encoding="UTF-8" standalone="no"?>
<!DOCTYPE svg PUBLIC "-//W3C//DTD SVG 1.1//EN"
 "http://www.w3.org/Graphics/SVG/1.1/DTD/svg11.dtd">
<!-- Generated by graphviz version 2.26.3 (20100126.1600)
 -->
<!-- Title: module~~type_integrand~~UsedByGraph Pages: 1 -->
<svg width="641pt" height="246pt"
 viewBox="0.00 0.00 641.00 245.84" xmlns="http://www.w3.org/2000/svg" xmlns:xlink="http://www.w3.org/1999/xlink">
<g id="graph1" class="graph" transform="scale(0.910511 0.910511) rotate(0) translate(4 266)">
<title>module~~type_integrand~~UsedByGraph</title>
<polygon fill="white" stroke="white" points="-4,5 -4,-266 701,-266 701,5 -4,5"/>
<!-- module~type_integrand -->
<g id="node1" class="node"><title>module~type_integrand</title>
<polygon fill="none" stroke="black" points="84,-136 4.26326e-14,-136 0,-110 84,-110 84,-136"/>
<text text-anchor="middle" x="42" y="-120.55" font-family="Helvetica,sans-Serif" font-size="10.50">type_integrand</text>
</g>
<!-- module~foodie -->
<g id="node2" class="node"><title>module~foodie</title>
<a xlink:href="../module/foodie.html" xlink:title="foodie">
<polygon fill="#337ab7" stroke="#337ab7" points="430,-136 376,-136 376,-110 430,-110 430,-136"/>
<text text-anchor="middle" x="403" y="-120.55" font-family="Helvetica,sans-Serif" font-size="10.50" fill="white">foodie</text>
</a>
</g>
<!-- module~type_integrand&#45;&gt;module~foodie -->
<g id="edge36" class="edge"><title>module~type_integrand&#45;&gt;module~foodie</title>
<path fill="none" stroke="black" stroke-dasharray="5,2" d="M48.9099,-136.31C60.4356,-156.869 85.7432,-195.587 120,-211 209.168,-251.118 253.035,-255.695 340,-211 366.545,-197.357 384.404,-166.765 394.135,-145.509"/>
<polygon fill="black" stroke="black" points="397.397,-146.785 398.15,-136.217 390.971,-144.009 397.397,-146.785"/>
</g>
<!-- module~foodie_integrator_low_storage_runge_kutta -->
<g id="node3" class="node"><title>module~foodie_integrator_low_storage_runge_kutta</title>
<a xlink:href="../module/foodie_integrator_low_storage_runge_kutta.html" xlink:title="foodie_integrator_low_storage_runge_kutta">
<polygon fill="#337ab7" stroke="#337ab7" points="340,-202 120,-202 120,-176 340,-176 340,-202"/>
<text text-anchor="middle" x="230" y="-186.55" font-family="Helvetica,sans-Serif" font-size="10.50" fill="white">foodie_integrator_low_storage_runge_kutta</text>
</a>
</g>
<!-- module~type_integrand&#45;&gt;module~foodie_integrator_low_storage_runge_kutta -->
<g id="edge38" class="edge"><title>module~type_integrand&#45;&gt;module~foodie_integrator_low_storage_runge_kutta</title>
<path fill="none" stroke="black" stroke-dasharray="5,2" d="M61.0407,-136.014C76.3423,-145.899 98.7198,-159.099 120,-167 126.317,-169.346 132.937,-171.459 139.661,-173.36"/>
<polygon fill="black" stroke="black" points="139.001,-176.806 149.564,-175.996 140.801,-170.042 139.001,-176.806"/>
</g>
<!-- module~foodie_integrator_leapfrog -->
<g id="node4" class="node"><title>module~foodie_integrator_leapfrog</title>
<a xlink:href="../module/foodie_integrator_leapfrog.html" xlink:title="foodie_integrator_leapfrog">
<polygon fill="#337ab7" stroke="#337ab7" points="299,-158 161,-158 161,-132 299,-132 299,-158"/>
<text text-anchor="middle" x="230" y="-142.55" font-family="Helvetica,sans-Serif" font-size="10.50" fill="white">foodie_integrator_leapfrog</text>
</a>
</g>
<!-- module~type_integrand&#45;&gt;module~foodie_integrator_leapfrog -->
<g id="edge40" class="edge"><title>module~type_integrand&#45;&gt;module~foodie_integrator_leapfrog</title>
<path fill="none" stroke="black" stroke-dasharray="5,2" d="M84.1909,-127.937C103.712,-130.222 127.568,-133.013 150.284,-135.672"/>
<polygon fill="black" stroke="black" points="149.937,-139.155 160.276,-136.841 150.751,-132.202 149.937,-139.155"/>
</g>
<!-- module~foodie_integrator_tvd_runge_kutta -->
<g id="node5" class="node"><title>module~foodie_integrator_tvd_runge_kutta</title>
<a xlink:href="../module/foodie_integrator_tvd_runge_kutta.html" xlink:title="foodie_integrator_tvd_runge_kutta">
<polygon fill="#337ab7" stroke="#337ab7" points="318,-114 142,-114 142,-88 318,-88 318,-114"/>
<text text-anchor="middle" x="230" y="-98.55" font-family="Helvetica,sans-Serif" font-size="10.50" fill="white">foodie_integrator_tvd_runge_kutta</text>
</a>
</g>
<!-- module~type_integrand&#45;&gt;module~foodie_integrator_tvd_runge_kutta -->
<g id="edge42" class="edge"><title>module~type_integrand&#45;&gt;module~foodie_integrator_tvd_runge_kutta</title>
<path fill="none" stroke="black" stroke-dasharray="5,2" d="M84.1909,-118.063C98.2662,-116.416 114.595,-114.505 131.126,-112.57"/>
<polygon fill="black" stroke="black" points="131.901,-116.004 141.427,-111.365 131.088,-109.051 131.901,-116.004"/>
</g>
<!-- module~foodie_integrator_adams_bashforth -->
<g id="node6" class="node"><title>module~foodie_integrator_adams_bashforth</title>
<a xlink:href="../module/foodie_integrator_adams_bashforth.html" xlink:title="foodie_integrator_adams_bashforth">
<polygon fill="#337ab7" stroke="#337ab7" points="321,-70 139,-70 139,-44 321,-44 321,-70"/>
<text text-anchor="middle" x="230" y="-54.55" font-family="Helvetica,sans-Serif" font-size="10.50" fill="white">foodie_integrator_adams_bashforth</text>
</a>
</g>
<!-- module~type_integrand&#45;&gt;module~foodie_integrator_adams_bashforth -->
<g id="edge44" class="edge"><title>module~type_integrand&#45;&gt;module~foodie_integrator_adams_bashforth</title>
<path fill="none" stroke="black" stroke-dasharray="5,2" d="M61.0407,-109.986C76.3423,-100.101 98.7198,-86.9008 120,-79 126.317,-76.6545 132.937,-74.5411 139.661,-72.64"/>
<polygon fill="black" stroke="black" points="140.801,-75.9584 149.564,-70.0041 139.001,-69.1939 140.801,-75.9584"/>
</g>
<!-- module~foodie_integrator_euler_explicit -->
<g id="node7" class="node"><title>module~foodie_integrator_euler_explicit</title>
<a xlink:href="../module/foodie_integrator_euler_explicit.html" xlink:title="foodie_integrator_euler_explicit">
<polygon fill="#337ab7" stroke="#337ab7" points="311,-26 149,-26 149,-1.24345e-14 311,-3.55271e-15 311,-26"/>
<text text-anchor="middle" x="230" y="-10.55" font-family="Helvetica,sans-Serif" font-size="10.50" fill="white">foodie_integrator_euler_explicit</text>
</a>
</g>
<!-- module~type_integrand&#45;&gt;module~foodie_integrator_euler_explicit -->
<g id="edge46" class="edge"><title>module~type_integrand&#45;&gt;module~foodie_integrator_euler_explicit</title>
<path fill="none" stroke="black" stroke-dasharray="5,2" d="M49.7085,-109.832C61.9507,-90.179 87.7827,-53.5098 120,-35 125.957,-31.5778 132.36,-28.681 138.974,-26.2297"/>
<polygon fill="black" stroke="black" points="140.414,-29.4388 148.788,-22.9479 138.194,-22.8001 140.414,-29.4388"/>
</g>
<!-- module~type_oscillation -->
<g id="node8" class="node"><title>module~type_oscillation</title>
<a xlink:href="../module/type_oscillation.html" xlink:title="type_oscillation">
<polygon fill="#337ab7" stroke="#337ab7" points="551,-262 467,-262 467,-236 551,-236 551,-262"/>
<text text-anchor="middle" x="509" y="-246.55" font-family="Helvetica,sans-Serif" font-size="10.50" fill="white">type_oscillation</text>
</a>
</g>
<!-- module~foodie&#45;&gt;module~type_oscillation -->
<g id="edge10" class="edge"><title>module~foodie&#45;&gt;module~type_oscillation</title>
<path fill="none" stroke="black" stroke-dasharray="5,2" d="M408.997,-136.148C418.727,-156.422 439.558,-195.718 466,-222 468.872,-224.855 472.098,-227.554 475.458,-230.062"/>
<polygon fill="black" stroke="black" points="473.733,-233.123 483.963,-235.882 477.687,-227.346 473.733,-233.123"/>
</g>
<!-- program~integrate_lorenz -->
<g id="node9" class="node"><title>program~integrate_lorenz</title>
<a xlink:href="../program/integrate_lorenz.html" xlink:title="integrate_lorenz">
<polygon fill="#f0ad4e" stroke="#f0ad4e" points="687,-180 597,-180 597,-154 687,-154 687,-180"/>
<text text-anchor="middle" x="642" y="-164.55" font-family="Helvetica,sans-Serif" font-size="10.50" fill="white">integrate_lorenz</text>
</a>
</g>
<!-- module~foodie&#45;&gt;program~integrate_lorenz -->
<g id="edge12" class="edge"><title>module~foodie&#45;&gt;program~integrate_lorenz</title>
<path fill="none" stroke="black" stroke-dasharray="5,2" d="M412.906,-136.132C424.381,-150.622 444.483,-173.886 466,-189 483.097,-201.01 488.847,-202.488 509,-208"/>
<path fill="none" stroke="black" stroke-dasharray="5,2" d="M509,-208C517.734,-210.389 561.844,-195.922 596.905,-183.52"/>
<polygon fill="black" stroke="black" points="598.274,-186.748 606.517,-180.092 595.923,-180.154 598.274,-186.748"/>
</g>
<!-- module~type_euler_1d -->
<g id="node10" class="node"><title>module~type_euler_1d</title>
<a xlink:href="../module/type_euler_1d.html" xlink:title="type_euler_1D">
<polygon fill="#337ab7" stroke="#337ab7" points="550,-136 468,-136 468,-110 550,-110 550,-136"/>
<text text-anchor="middle" x="509" y="-120.55" font-family="Helvetica,sans-Serif" font-size="10.50" fill="white">type_euler_1D</text>
</a>
</g>
<!-- module~foodie&#45;&gt;module~type_euler_1d -->
<g id="edge14" class="edge"><title>module~foodie&#45;&gt;module~type_euler_1d</title>
<path fill="none" stroke="black" stroke-dasharray="5,2" d="M430.023,-123C438.401,-123 447.93,-123 457.4,-123"/>
<polygon fill="black" stroke="black" points="457.594,-126.5 467.594,-123 457.594,-119.5 457.594,-126.5"/>
</g>
<!-- module~type_burgers -->
<g id="node11" class="node"><title>module~type_burgers</title>
<a xlink:href="../module/type_burgers.html" xlink:title="type_burgers">
<polygon fill="#337ab7" stroke="#337ab7" points="547,-54 471,-54 471,-28 547,-28 547,-54"/>
<text text-anchor="middle" x="509" y="-38.55" font-family="Helvetica,sans-Serif" font-size="10.50" fill="white">type_burgers</text>
</a>
</g>
<!-- module~foodie&#45;&gt;module~type_burgers -->
<g id="edge16" class="edge"><title>module~foodie&#45;&gt;module~type_burgers</title>
<path fill="none" stroke="black" stroke-dasharray="5,2" d="M416.975,-109.662C429.399,-98.0865 448.288,-81.1653 466,-68 469.865,-65.1275 474.038,-62.2516 478.212,-59.5044"/>
<polygon fill="black" stroke="black" points="480.142,-62.4243 486.682,-54.0888 476.372,-56.5266 480.142,-62.4243"/>
</g>
<!-- program~integrate_burgers -->
<g id="node12" class="node"><title>program~integrate_burgers</title>
<a xlink:href="../program/integrate_burgers.html" xlink:title="integrate_burgers">
<polygon fill="#f0ad4e" stroke="#f0ad4e" points="690,-43 594,-43 594,-17 690,-17 690,-43"/>
<text text-anchor="middle" x="642" y="-27.55" font-family="Helvetica,sans-Serif" font-size="10.50" fill="white">integrate_burgers</text>
</a>
</g>
<!-- module~foodie&#45;&gt;program~integrate_burgers -->
<g id="edge18" class="edge"><title>module~foodie&#45;&gt;program~integrate_burgers</title>
<path fill="none" stroke="black" stroke-dasharray="5,2" d="M406.435,-109.752C413.279,-86.4391 431.055,-38.6878 466,-19 505.788,3.41675 558.966,-4.02562 596.419,-14.1408"/>
<polygon fill="black" stroke="black" points="595.485,-17.5141 606.062,-16.8972 597.409,-10.7836 595.485,-17.5141"/>
</g>
<!-- program~integrate_oscillation -->
<g id="node13" class="node"><title>program~integrate_oscillation</title>
<a xlink:href="../program/integrate_oscillation.html" xlink:title="integrate_oscillation">
<polygon fill="#f0ad4e" stroke="#f0ad4e" points="695,-224 589,-224 589,-198 695,-198 695,-224"/>
<text text-anchor="middle" x="642" y="-208.55" font-family="Helvetica,sans-Serif" font-size="10.50" fill="white">integrate_oscillation</text>
</a>
</g>
<!-- module~foodie&#45;&gt;program~integrate_oscillation -->
<g id="edge20" class="edge"><title>module~foodie&#45;&gt;program~integrate_oscillation</title>
<path fill="none" stroke="black" stroke-dasharray="5,2" d="M509,-208C531.12,-214.051 556.09,-215.859 578.37,-215.805"/>
<polygon fill="black" stroke="black" points="578.45,-219.305 588.398,-215.658 578.348,-212.305 578.45,-219.305"/>
</g>
<!-- module~type_lorenz -->
<g id="node14" class="node"><title>module~type_lorenz</title>
<a xlink:href="../module/type_lorenz.html" xlink:title="type_lorenz">
<polygon fill="#337ab7" stroke="#337ab7" points="543,-180 475,-180 475,-154 543,-154 543,-180"/>
<text text-anchor="middle" x="509" y="-164.55" font-family="Helvetica,sans-Serif" font-size="10.50" fill="white">type_lorenz</text>
</a>
</g>
<!-- module~foodie&#45;&gt;module~type_lorenz -->
<g id="edge22" class="edge"><title>module~foodie&#45;&gt;module~type_lorenz</title>
<path fill="none" stroke="black" stroke-dasharray="5,2" d="M430.023,-134.217C441.558,-139.005 455.275,-144.699 468.014,-149.987"/>
<polygon fill="black" stroke="black" points="466.935,-153.328 477.513,-153.93 469.619,-146.863 466.935,-153.328"/>
</g>
<!-- program~integrate_euler_1d -->
<g id="node15" class="node"><title>program~integrate_euler_1d</title>
<a xlink:href="../program/integrate_euler_1d.html" xlink:title="integrate_euler_1D">
<polygon fill="#f0ad4e" stroke="#f0ad4e" points="694,-106 590,-106 590,-80 694,-80 694,-106"/>
<text text-anchor="middle" x="642" y="-90.55" font-family="Helvetica,sans-Serif" font-size="10.50" fill="white">integrate_euler_1D</text>
</a>
</g>
<!-- module~foodie&#45;&gt;program~integrate_euler_1d -->
<g id="edge24" class="edge"><title>module~foodie&#45;&gt;program~integrate_euler_1d</title>
<path fill="none" stroke="black" stroke-dasharray="5,2" d="M430.122,-111.589C441.069,-107.5 453.942,-103.328 466,-101 503.287,-93.802 545.804,-91.7042 579.708,-91.4525"/>
<polygon fill="black" stroke="black" points="579.945,-94.9521 589.938,-91.4301 579.93,-87.9521 579.945,-94.9521"/>
</g>
<!-- module~foodie_integrator_low_storage_runge_kutta&#45;&gt;module~foodie -->
<g id="edge26" class="edge"><title>module~foodie_integrator_low_storage_runge_kutta&#45;&gt;module~foodie</title>
<path fill="none" stroke="black" stroke-dasharray="5,2" d="M313.989,-175.977C322.931,-173.482 331.761,-170.518 340,-167 354.275,-160.905 368.587,-151.262 379.954,-142.555"/>
<polygon fill="black" stroke="black" points="382.364,-145.111 388.023,-136.154 378.014,-139.627 382.364,-145.111"/>
</g>
<!-- module~foodie_integrator_leapfrog&#45;&gt;module~foodie -->
<g id="edge28" class="edge"><title>module~foodie_integrator_leapfrog&#45;&gt;module~foodie</title>
<path fill="none" stroke="black" stroke-dasharray="5,2" d="M299.867,-136.115C322.338,-133.258 346.366,-130.202 365.571,-127.76"/>
<polygon fill="black" stroke="black" points="366.225,-131.205 375.704,-126.471 365.342,-124.261 366.225,-131.205"/>
</g>
<!-- module~foodie_integrator_tvd_runge_kutta&#45;&gt;module~foodie -->
<g id="edge30" class="edge"><title>module~foodie_integrator_tvd_runge_kutta&#45;&gt;module~foodie</title>
<path fill="none" stroke="black" stroke-dasharray="5,2" d="M318.527,-112.258C335.221,-114.381 351.815,-116.491 365.818,-118.272"/>
<polygon fill="black" stroke="black" points="365.619,-121.774 375.981,-119.564 366.502,-114.83 365.619,-121.774"/>
</g>
<!-- module~foodie_integrator_adams_bashforth&#45;&gt;module~foodie -->
<g id="edge32" class="edge"><title>module~foodie_integrator_adams_bashforth&#45;&gt;module~foodie</title>
<path fill="none" stroke="black" stroke-dasharray="5,2" d="M313.989,-70.0228C322.931,-72.5183 331.761,-75.4822 340,-79 354.275,-85.0947 368.587,-94.7375 379.954,-103.445"/>
<polygon fill="black" stroke="black" points="378.014,-106.373 388.023,-109.846 382.364,-100.889 378.014,-106.373"/>
</g>
<!-- module~foodie_integrator_euler_explicit&#45;&gt;module~foodie -->
<g id="edge34" class="edge"><title>module~foodie_integrator_euler_explicit&#45;&gt;module~foodie</title>
<path fill="none" stroke="black" stroke-dasharray="5,2" d="M311.166,-21.9083C321.349,-25.0964 331.247,-29.3473 340,-35 364.687,-50.9434 382.725,-80.2533 393.023,-100.646"/>
<polygon fill="black" stroke="black" points="389.96,-102.351 397.452,-109.842 396.266,-99.3141 389.96,-102.351"/>
</g>
<!-- module~type_oscillation&#45;&gt;program~integrate_oscillation -->
<g id="edge2" class="edge"><title>module~type_oscillation&#45;&gt;program~integrate_oscillation</title>
<path fill="none" stroke="black" stroke-dasharray="5,2" d="M551.814,-236.767C562.738,-233.646 574.644,-230.245 586.116,-226.967"/>
<polygon fill="black" stroke="black" points="587.398,-230.241 596.051,-224.128 585.475,-223.51 587.398,-230.241"/>
</g>
<!-- module~type_euler_1d&#45;&gt;program~integrate_euler_1d -->
<g id="edge4" class="edge"><title>module~type_euler_1d&#45;&gt;program~integrate_euler_1d</title>
<path fill="none" stroke="black" stroke-dasharray="5,2" d="M550.353,-113.672C559.732,-111.557 569.894,-109.264 579.922,-107.003"/>
<polygon fill="black" stroke="black" points="580.885,-110.373 589.87,-104.759 579.345,-103.545 580.885,-110.373"/>
</g>
<!-- module~type_burgers&#45;&gt;program~integrate_burgers -->
<g id="edge6" class="edge"><title>module~type_burgers&#45;&gt;program~integrate_burgers</title>
<path fill="none" stroke="black" stroke-dasharray="5,2" d="M547.112,-37.8478C558.387,-36.9154 571.001,-35.8721 583.259,-34.8583"/>
<polygon fill="black" stroke="black" points="583.757,-38.3292 593.434,-34.0167 583.18,-31.353 583.757,-38.3292"/>
</g>
<!-- module~type_lorenz&#45;&gt;program~integrate_lorenz -->
<g id="edge8" class="edge"><title>module~type_lorenz&#45;&gt;program~integrate_lorenz</title>
<path fill="none" stroke="black" stroke-dasharray="5,2" d="M543.251,-167C556.508,-167 572.022,-167 586.774,-167"/>
<polygon fill="black" stroke="black" points="586.827,-170.5 596.827,-167 586.827,-163.5 586.827,-170.5"/>
</g>
</g>
</svg>
