<?xml version="1.0" encoding="UTF-8" standalone="no"?>
<!DOCTYPE svg PUBLIC "-//W3C//DTD SVG 1.1//EN"
 "http://www.w3.org/Graphics/SVG/1.1/DTD/svg11.dtd">
<!-- Generated by graphviz version 2.26.3 (20100126.1600)
 -->
<!-- Title: module~~foodie_integrator_low_storage_runge_kutta~~UsedByGraph Pages: 1 -->
<svg width="584pt" height="294pt"
 viewBox="0.00 0.00 584.00 294.08" xmlns="http://www.w3.org/2000/svg" xmlns:xlink="http://www.w3.org/1999/xlink">
<g id="graph1" class="graph" transform="scale(1 1) rotate(0) translate(4 290.081)">
<title>module~~foodie_integrator_low_storage_runge_kutta~~UsedByGraph</title>
<polygon fill="white" stroke="white" points="-4,5 -4,-290.081 581,-290.081 581,5 -4,5"/>
<!-- module~foodie_integrator_low_storage_runge_kutta -->
<g id="node1" class="node"><title>module~foodie_integrator_low_storage_runge_kutta</title>
<polygon fill="none" stroke="black" points="220,-155.03 8.52651e-14,-155.03 0,-129.03 220,-129.03 220,-155.03"/>
<text text-anchor="middle" x="110" y="-139.58" font-family="Helvetica,sans-Serif" font-size="10.50">foodie_integrator_low_storage_runge_kutta</text>
</g>
<!-- module~foodie -->
<g id="node2" class="node"><title>module~foodie</title>
<a xlink:href="../module/foodie.html" xlink:title="foodie">
<polygon fill="#337ab7" stroke="#337ab7" points="310,-155.03 256,-155.03 256,-129.03 310,-129.03 310,-155.03"/>
<text text-anchor="middle" x="283" y="-139.58" font-family="Helvetica,sans-Serif" font-size="10.50" fill="white">foodie</text>
</a>
</g>
<!-- module~foodie_integrator_low_storage_runge_kutta&#45;&gt;module~foodie -->
<g id="edge26" class="edge"><title>module~foodie_integrator_low_storage_runge_kutta&#45;&gt;module~foodie</title>
<path fill="none" stroke="black" stroke-dasharray="5,2" d="M220.054,-142.03C229.125,-142.03 237.822,-142.03 245.703,-142.03"/>
<polygon fill="black" stroke="black" points="245.902,-145.53 255.902,-142.03 245.902,-138.53 245.902,-145.53"/>
</g>
<!-- program~integrate_burgers -->
<g id="node3" class="node"><title>program~integrate_burgers</title>
<a xlink:href="../program/integrate_burgers.html" xlink:title="integrate_burgers">
<polygon fill="#f0ad4e" stroke="#f0ad4e" points="570,-279.03 474,-279.03 474,-253.03 570,-253.03 570,-279.03"/>
<text text-anchor="middle" x="522" y="-263.58" font-family="Helvetica,sans-Serif" font-size="10.50" fill="white">integrate_burgers</text>
</a>
</g>
<!-- module~foodie&#45;&gt;program~integrate_burgers -->
<g id="edge10" class="edge"><title>module~foodie&#45;&gt;program~integrate_burgers</title>
<path fill="none" stroke="black" stroke-dasharray="5,2" d="M285.04,-155.396C289.957,-182.358 305.223,-242.828 346,-268.03 381.759,-290.13 429.909,-287.9 466.807,-281.108"/>
<polygon fill="black" stroke="black" points="467.778,-284.483 476.896,-279.087 466.404,-277.619 467.778,-284.483"/>
</g>
<!-- program~integrate_lorenz -->
<g id="node4" class="node"><title>program~integrate_lorenz</title>
<a xlink:href="../program/integrate_lorenz.html" xlink:title="integrate_lorenz">
<polygon fill="#f0ad4e" stroke="#f0ad4e" points="567,-197.03 477,-197.03 477,-171.03 567,-171.03 567,-197.03"/>
<text text-anchor="middle" x="522" y="-181.58" font-family="Helvetica,sans-Serif" font-size="10.50" fill="white">integrate_lorenz</text>
</a>
</g>
<!-- module~foodie&#45;&gt;program~integrate_lorenz -->
<g id="edge12" class="edge"><title>module~foodie&#45;&gt;program~integrate_lorenz</title>
<path fill="none" stroke="black" stroke-dasharray="5,2" d="M296.641,-155.324C308.563,-165.95 326.911,-180.023 346,-186.03 384.999,-198.3 431.307,-197.198 466.632,-193.35"/>
<polygon fill="black" stroke="black" points="467.24,-196.803 476.754,-192.141 466.409,-189.852 467.24,-196.803"/>
</g>
<!-- module~type_euler_1d -->
<g id="node5" class="node"><title>module~type_euler_1d</title>
<a xlink:href="../module/type_euler_1d.html" xlink:title="type_euler_1D">
<polygon fill="#337ab7" stroke="#337ab7" points="430,-133.03 348,-133.03 348,-107.03 430,-107.03 430,-133.03"/>
<text text-anchor="middle" x="389" y="-117.58" font-family="Helvetica,sans-Serif" font-size="10.50" fill="white">type_euler_1D</text>
</a>
</g>
<!-- module~foodie&#45;&gt;module~type_euler_1d -->
<g id="edge14" class="edge"><title>module~foodie&#45;&gt;module~type_euler_1d</title>
<path fill="none" stroke="black" stroke-dasharray="5,2" d="M310.023,-136.421C318.49,-134.664 328.133,-132.662 337.702,-130.676"/>
<polygon fill="black" stroke="black" points="338.514,-134.082 347.594,-128.623 337.092,-127.228 338.514,-134.082"/>
</g>
<!-- program~integrate_euler_1d -->
<g id="node6" class="node"><title>program~integrate_euler_1d</title>
<a xlink:href="../program/integrate_euler_1d.html" xlink:title="integrate_euler_1D">
<polygon fill="#f0ad4e" stroke="#f0ad4e" points="574,-103.03 470,-103.03 470,-77.0295 574,-77.0295 574,-103.03"/>
<text text-anchor="middle" x="522" y="-87.5795" font-family="Helvetica,sans-Serif" font-size="10.50" fill="white">integrate_euler_1D</text>
</a>
</g>
<!-- module~foodie&#45;&gt;program~integrate_euler_1d -->
<g id="edge16" class="edge"><title>module~foodie&#45;&gt;program~integrate_euler_1d</title>
<path fill="none" stroke="black" stroke-dasharray="5,2" d="M296.713,-128.957C308.68,-118.467 327.052,-104.468 346,-98.0295 382.219,-85.7229 425.054,-83.5312 459.397,-84.5087"/>
<polygon fill="black" stroke="black" points="459.639,-88.0205 469.766,-84.9062 459.907,-81.0256 459.639,-88.0205"/>
</g>
<!-- module~type_oscillation -->
<g id="node7" class="node"><title>module~type_oscillation</title>
<a xlink:href="../module/type_oscillation.html" xlink:title="type_oscillation">
<polygon fill="#337ab7" stroke="#337ab7" points="431,-51.0295 347,-51.0295 347,-25.0295 431,-25.0295 431,-51.0295"/>
<text text-anchor="middle" x="389" y="-35.5795" font-family="Helvetica,sans-Serif" font-size="10.50" fill="white">type_oscillation</text>
</a>
</g>
<!-- module~foodie&#45;&gt;module~type_oscillation -->
<g id="edge18" class="edge"><title>module~foodie&#45;&gt;module~type_oscillation</title>
<path fill="none" stroke="black" stroke-dasharray="5,2" d="M291.702,-128.947C302.941,-112.686 323.721,-84.683 346,-65.0295 349.198,-62.2086 352.722,-59.4896 356.336,-56.9348"/>
<polygon fill="black" stroke="black" points="358.425,-59.7493 364.819,-51.301 354.552,-53.9183 358.425,-59.7493"/>
</g>
<!-- module~type_lorenz -->
<g id="node8" class="node"><title>module~type_lorenz</title>
<a xlink:href="../module/type_lorenz.html" xlink:title="type_lorenz">
<polygon fill="#337ab7" stroke="#337ab7" points="423,-177.03 355,-177.03 355,-151.03 423,-151.03 423,-177.03"/>
<text text-anchor="middle" x="389" y="-161.58" font-family="Helvetica,sans-Serif" font-size="10.50" fill="white">type_lorenz</text>
</a>
</g>
<!-- module~foodie&#45;&gt;module~type_lorenz -->
<g id="edge20" class="edge"><title>module~foodie&#45;&gt;module~type_lorenz</title>
<path fill="none" stroke="black" stroke-dasharray="5,2" d="M310.023,-147.638C320.555,-149.824 332.905,-152.387 344.669,-154.829"/>
<polygon fill="black" stroke="black" points="344.294,-158.325 354.796,-156.931 345.716,-151.471 344.294,-158.325"/>
</g>
<!-- program~integrate_oscillation -->
<g id="node9" class="node"><title>program~integrate_oscillation</title>
<a xlink:href="../program/integrate_oscillation.html" xlink:title="integrate_oscillation">
<polygon fill="#f0ad4e" stroke="#f0ad4e" points="575,-40.0295 469,-40.0295 469,-14.0295 575,-14.0295 575,-40.0295"/>
<text text-anchor="middle" x="522" y="-24.5795" font-family="Helvetica,sans-Serif" font-size="10.50" fill="white">integrate_oscillation</text>
</a>
</g>
<!-- module~foodie&#45;&gt;program~integrate_oscillation -->
<g id="edge22" class="edge"><title>module~foodie&#45;&gt;program~integrate_oscillation</title>
<path fill="none" stroke="black" stroke-dasharray="5,2" d="M285.04,-128.663C289.957,-101.702 305.223,-41.2308 346,-16.0295 385.685,8.49702 440.485,-0.0725494 478.345,-11.0278"/>
<polygon fill="black" stroke="black" points="477.479,-14.4231 488.066,-14 479.526,-7.72896 477.479,-14.4231"/>
</g>
<!-- module~type_burgers -->
<g id="node10" class="node"><title>module~type_burgers</title>
<a xlink:href="../module/type_burgers.html" xlink:title="type_burgers">
<polygon fill="#337ab7" stroke="#337ab7" points="427,-259.03 351,-259.03 351,-233.03 427,-233.03 427,-259.03"/>
<text text-anchor="middle" x="389" y="-243.58" font-family="Helvetica,sans-Serif" font-size="10.50" fill="white">type_burgers</text>
</a>
</g>
<!-- module~foodie&#45;&gt;module~type_burgers -->
<g id="edge24" class="edge"><title>module~foodie&#45;&gt;module~type_burgers</title>
<path fill="none" stroke="black" stroke-dasharray="5,2" d="M291.702,-155.112C302.941,-171.373 323.721,-199.376 346,-219.03 349.198,-221.851 352.722,-224.569 356.336,-227.124"/>
<polygon fill="black" stroke="black" points="354.552,-230.141 364.819,-232.758 358.425,-224.31 354.552,-230.141"/>
</g>
<!-- module~type_euler_1d&#45;&gt;program~integrate_euler_1d -->
<g id="edge2" class="edge"><title>module~type_euler_1d&#45;&gt;program~integrate_euler_1d</title>
<path fill="none" stroke="black" stroke-dasharray="5,2" d="M430.353,-110.702C439.732,-108.586 449.894,-106.294 459.922,-104.032"/>
<polygon fill="black" stroke="black" points="460.885,-107.403 469.87,-101.788 459.345,-100.574 460.885,-107.403"/>
</g>
<!-- module~type_oscillation&#45;&gt;program~integrate_oscillation -->
<g id="edge4" class="edge"><title>module~type_oscillation&#45;&gt;program~integrate_oscillation</title>
<path fill="none" stroke="black" stroke-dasharray="5,2" d="M431.814,-34.4885C440.201,-33.7949 449.165,-33.0535 458.068,-32.3171"/>
<polygon fill="black" stroke="black" points="458.382,-35.8032 468.06,-31.4908 457.805,-28.827 458.382,-35.8032"/>
</g>
<!-- module~type_lorenz&#45;&gt;program~integrate_lorenz -->
<g id="edge6" class="edge"><title>module~type_lorenz&#45;&gt;program~integrate_lorenz</title>
<path fill="none" stroke="black" stroke-dasharray="5,2" d="M423.251,-169.18C436.508,-171.174 452.022,-173.507 466.774,-175.725"/>
<polygon fill="black" stroke="black" points="466.418,-179.211 476.827,-177.237 467.459,-172.288 466.418,-179.211"/>
</g>
<!-- module~type_burgers&#45;&gt;program~integrate_burgers -->
<g id="edge8" class="edge"><title>module~type_burgers&#45;&gt;program~integrate_burgers</title>
<path fill="none" stroke="black" stroke-dasharray="5,2" d="M427.112,-251.761C438.387,-253.456 451.001,-255.353 463.259,-257.196"/>
<polygon fill="black" stroke="black" points="463.025,-260.7 473.434,-258.726 464.066,-253.778 463.025,-260.7"/>
</g>
</g>
</svg>
