<?xml version="1.0" encoding="UTF-8" standalone="no"?>
<!DOCTYPE svg PUBLIC "-//W3C//DTD SVG 1.1//EN"
 "http://www.w3.org/Graphics/SVG/1.1/DTD/svg11.dtd">
<!-- Generated by graphviz version 2.26.3 (20100126.1600)
 -->
<!-- Title: module~~foodie~~UsesGraph Pages: 1 -->
<svg width="548pt" height="248pt"
 viewBox="0.00 0.00 548.00 248.00" xmlns="http://www.w3.org/2000/svg" xmlns:xlink="http://www.w3.org/1999/xlink">
<g id="graph1" class="graph" transform="scale(1 1) rotate(0) translate(4 244)">
<title>module~~foodie~~UsesGraph</title>
<polygon fill="white" stroke="white" points="-4,5 -4,-244 545,-244 545,5 -4,5"/>
<!-- module~foodie -->
<g id="node1" class="node"><title>module~foodie</title>
<polygon fill="none" stroke="black" points="540,-134 486,-134 486,-108 540,-108 540,-134"/>
<text text-anchor="middle" x="513" y="-118.55" font-family="Helvetica,sans-Serif" font-size="10.50">foodie</text>
</g>
<!-- module~foodie_integrator_leapfrog -->
<g id="node2" class="node"><title>module~foodie_integrator_leapfrog</title>
<a xlink:href="../module/foodie_integrator_leapfrog.html" xlink:title="foodie_integrator_leapfrog">
<polygon fill="#337ab7" stroke="#337ab7" points="409,-240 271,-240 271,-214 409,-214 409,-240"/>
<text text-anchor="middle" x="340" y="-224.55" font-family="Helvetica,sans-Serif" font-size="10.50" fill="white">foodie_integrator_leapfrog</text>
</a>
</g>
<!-- module~foodie_integrator_leapfrog&#45;&gt;module~foodie -->
<g id="edge24" class="edge"><title>module~foodie_integrator_leapfrog&#45;&gt;module~foodie</title>
<path fill="none" stroke="black" stroke-dasharray="5,2" d="M409.541,-221.035C423.666,-217.695 437.89,-212.632 450,-205 473.747,-190.034 491.72,-162.68 502.274,-143.257"/>
<polygon fill="black" stroke="black" points="505.48,-144.677 506.979,-134.189 499.266,-141.453 505.48,-144.677"/>
</g>
<!-- module~foodie_integrator_low_storage_runge_kutta -->
<g id="node3" class="node"><title>module~foodie_integrator_low_storage_runge_kutta</title>
<a xlink:href="../module/foodie_integrator_low_storage_runge_kutta.html" xlink:title="foodie_integrator_low_storage_runge_kutta">
<polygon fill="#337ab7" stroke="#337ab7" points="450,-196 230,-196 230,-170 450,-170 450,-196"/>
<text text-anchor="middle" x="340" y="-180.55" font-family="Helvetica,sans-Serif" font-size="10.50" fill="white">foodie_integrator_low_storage_runge_kutta</text>
</a>
</g>
<!-- module~foodie_integrator_low_storage_runge_kutta&#45;&gt;module~foodie -->
<g id="edge26" class="edge"><title>module~foodie_integrator_low_storage_runge_kutta&#45;&gt;module~foodie</title>
<path fill="none" stroke="black" stroke-dasharray="5,2" d="M405.458,-169.97C420.337,-166.176 435.905,-161.53 450,-156 461.531,-151.476 473.565,-145.216 483.989,-139.241"/>
<polygon fill="black" stroke="black" points="485.847,-142.208 492.682,-134.113 482.29,-136.179 485.847,-142.208"/>
</g>
<!-- module~foodie_integrator_tvd_runge_kutta -->
<g id="node4" class="node"><title>module~foodie_integrator_tvd_runge_kutta</title>
<a xlink:href="../module/foodie_integrator_tvd_runge_kutta.html" xlink:title="foodie_integrator_tvd_runge_kutta">
<polygon fill="#337ab7" stroke="#337ab7" points="428,-114 252,-114 252,-88 428,-88 428,-114"/>
<text text-anchor="middle" x="340" y="-98.55" font-family="Helvetica,sans-Serif" font-size="10.50" fill="white">foodie_integrator_tvd_runge_kutta</text>
</a>
</g>
<!-- module~foodie_integrator_tvd_runge_kutta&#45;&gt;module~foodie -->
<g id="edge28" class="edge"><title>module~foodie_integrator_tvd_runge_kutta&#45;&gt;module~foodie</title>
<path fill="none" stroke="black" stroke-dasharray="5,2" d="M428.527,-111.234C445.221,-113.164 461.815,-115.083 475.818,-116.702"/>
<polygon fill="black" stroke="black" points="475.645,-120.205 485.981,-117.876 476.449,-113.251 475.645,-120.205"/>
</g>
<!-- module~type_integrand -->
<g id="node5" class="node"><title>module~type_integrand</title>
<a xlink:href="../module/type_integrand.html" xlink:title="type_integrand">
<polygon fill="#337ab7" stroke="#337ab7" points="194,-134 110,-134 110,-108 194,-108 194,-134"/>
<text text-anchor="middle" x="152" y="-118.55" font-family="Helvetica,sans-Serif" font-size="10.50" fill="white">type_integrand</text>
</a>
</g>
<!-- module~type_integrand&#45;&gt;module~foodie -->
<g id="edge30" class="edge"><title>module~type_integrand&#45;&gt;module~foodie</title>
<path fill="none" stroke="black" stroke-dasharray="5,2" d="M194.096,-122.277C205.726,-122.576 218.351,-122.851 230,-123 327.77,-124.253 352.235,-124.551 450,-123 458.323,-122.868 467.263,-122.638 475.718,-122.379"/>
<polygon fill="black" stroke="black" points="475.835,-125.878 485.716,-122.055 475.608,-118.881 475.835,-125.878"/>
</g>
<!-- module~type_integrand&#45;&gt;module~foodie_integrator_leapfrog -->
<g id="edge4" class="edge"><title>module~type_integrand&#45;&gt;module~foodie_integrator_leapfrog</title>
<path fill="none" stroke="black" stroke-dasharray="5,2" d="M160.275,-134.191C172.874,-153.09 198.735,-187.516 230,-205 239.435,-210.277 249.95,-214.299 260.633,-217.364"/>
<polygon fill="black" stroke="black" points="259.907,-220.791 270.466,-219.917 261.666,-214.016 259.907,-220.791"/>
</g>
<!-- module~type_integrand&#45;&gt;module~foodie_integrator_low_storage_runge_kutta -->
<g id="edge8" class="edge"><title>module~type_integrand&#45;&gt;module~foodie_integrator_low_storage_runge_kutta</title>
<path fill="none" stroke="black" stroke-dasharray="5,2" d="M177.878,-134.035C192.839,-141.208 212.175,-149.87 230,-156 242.299,-160.23 255.585,-164.076 268.528,-167.455"/>
<polygon fill="black" stroke="black" points="267.782,-170.877 278.336,-169.946 269.506,-164.092 267.782,-170.877"/>
</g>
<!-- module~type_integrand&#45;&gt;module~foodie_integrator_tvd_runge_kutta -->
<g id="edge12" class="edge"><title>module~type_integrand&#45;&gt;module~foodie_integrator_tvd_runge_kutta</title>
<path fill="none" stroke="black" stroke-dasharray="5,2" d="M194.191,-116.512C208.266,-115.014 224.595,-113.277 241.126,-111.518"/>
<polygon fill="black" stroke="black" points="241.853,-114.961 251.427,-110.423 241.112,-108 241.853,-114.961"/>
</g>
<!-- module~foodie_integrator_adams_bashforth -->
<g id="node6" class="node"><title>module~foodie_integrator_adams_bashforth</title>
<a xlink:href="../module/foodie_integrator_adams_bashforth.html" xlink:title="foodie_integrator_adams_bashforth">
<polygon fill="#337ab7" stroke="#337ab7" points="431,-70 249,-70 249,-44 431,-44 431,-70"/>
<text text-anchor="middle" x="340" y="-54.55" font-family="Helvetica,sans-Serif" font-size="10.50" fill="white">foodie_integrator_adams_bashforth</text>
</a>
</g>
<!-- module~type_integrand&#45;&gt;module~foodie_integrator_adams_bashforth -->
<g id="edge18" class="edge"><title>module~type_integrand&#45;&gt;module~foodie_integrator_adams_bashforth</title>
<path fill="none" stroke="black" stroke-dasharray="5,2" d="M172.403,-107.834C187.701,-98.513 209.452,-86.3998 230,-79 236.463,-76.6724 243.234,-74.5685 250.104,-72.671"/>
<polygon fill="black" stroke="black" points="251.423,-75.9443 260.218,-70.0363 249.658,-69.1704 251.423,-75.9443"/>
</g>
<!-- module~foodie_integrator_euler_explicit -->
<g id="node7" class="node"><title>module~foodie_integrator_euler_explicit</title>
<a xlink:href="../module/foodie_integrator_euler_explicit.html" xlink:title="foodie_integrator_euler_explicit">
<polygon fill="#337ab7" stroke="#337ab7" points="421,-26 259,-26 259,-1.24345e-14 421,-3.55271e-15 421,-26"/>
<text text-anchor="middle" x="340" y="-10.55" font-family="Helvetica,sans-Serif" font-size="10.50" fill="white">foodie_integrator_euler_explicit</text>
</a>
</g>
<!-- module~type_integrand&#45;&gt;module~foodie_integrator_euler_explicit -->
<g id="edge22" class="edge"><title>module~type_integrand&#45;&gt;module~foodie_integrator_euler_explicit</title>
<path fill="none" stroke="black" stroke-dasharray="5,2" d="M175.593,-107.81C181.997,-103.581 188.636,-98.541 194,-93 215.102,-71.2008 205.069,-52.2897 230,-35 235.941,-30.8797 242.473,-27.4918 249.298,-24.7104"/>
<polygon fill="black" stroke="black" points="250.551,-27.9793 258.76,-21.2819 248.166,-21.3981 250.551,-27.9793"/>
</g>
<!-- module~foodie_integrator_adams_bashforth&#45;&gt;module~foodie -->
<g id="edge32" class="edge"><title>module~foodie_integrator_adams_bashforth&#45;&gt;module~foodie</title>
<path fill="none" stroke="black" stroke-dasharray="5,2" d="M423.329,-70.0435C432.484,-72.5389 441.543,-75.4971 450,-79 463.839,-84.7324 477.841,-93.6833 489.118,-101.852"/>
<polygon fill="black" stroke="black" points="487.061,-104.684 497.163,-107.879 491.259,-99.0821 487.061,-104.684"/>
</g>
<!-- module~foodie_integrator_euler_explicit&#45;&gt;module~foodie -->
<g id="edge34" class="edge"><title>module~foodie_integrator_euler_explicit&#45;&gt;module~foodie</title>
<path fill="none" stroke="black" stroke-dasharray="5,2" d="M421.108,-21.9982C431.3,-25.1721 441.217,-29.3952 450,-35 474.269,-50.4862 492.304,-78.9032 502.722,-98.8202"/>
<polygon fill="black" stroke="black" points="499.618,-100.439 507.218,-107.821 505.88,-97.3108 499.618,-100.439"/>
</g>
<!-- IR_Precision -->
<g id="node8" class="node"><title>IR_Precision</title>
<polygon fill="#337ab7" stroke="#337ab7" points="73,-134 1,-134 1,-108 73,-108 73,-134"/>
<text text-anchor="middle" x="37" y="-118.55" font-family="Helvetica,sans-Serif" font-size="10.50" fill="white">IR_Precision</text>
</g>
<!-- IR_Precision&#45;&gt;module~foodie_integrator_leapfrog -->
<g id="edge2" class="edge"><title>IR_Precision&#45;&gt;module~foodie_integrator_leapfrog</title>
<path fill="none" stroke="black" stroke-dasharray="5,2" d="M152,-205C186.399,-216.225 225.986,-221.864 259.935,-224.646"/>
<polygon fill="black" stroke="black" points="260.045,-228.163 270.278,-225.42 260.568,-221.183 260.045,-228.163"/>
</g>
<!-- IR_Precision&#45;&gt;module~foodie_integrator_low_storage_runge_kutta -->
<g id="edge6" class="edge"><title>IR_Precision&#45;&gt;module~foodie_integrator_low_storage_runge_kutta</title>
<path fill="none" stroke="black" stroke-dasharray="5,2" d="M49.2276,-134.172C68.704,-154.071 108.987,-190.964 152,-205"/>
<path fill="none" stroke="black" stroke-dasharray="5,2" d="M152,-205C172.94,-211.833 223.503,-205.477 266.922,-197.871"/>
<polygon fill="black" stroke="black" points="267.696,-201.288 276.92,-196.077 266.459,-194.398 267.696,-201.288"/>
</g>
<!-- IR_Precision&#45;&gt;module~foodie_integrator_tvd_runge_kutta -->
<g id="edge10" class="edge"><title>IR_Precision&#45;&gt;module~foodie_integrator_tvd_runge_kutta</title>
<path fill="none" stroke="black" stroke-dasharray="5,2" d="M152,-79C172.423,-74.1464 219.284,-79.6164 261.108,-86.3148"/>
<polygon fill="black" stroke="black" points="260.62,-89.7813 271.054,-87.9448 261.752,-82.8734 260.62,-89.7813"/>
</g>
<!-- IR_Precision&#45;&gt;module~type_integrand -->
<g id="edge14" class="edge"><title>IR_Precision&#45;&gt;module~type_integrand</title>
<path fill="none" stroke="black" stroke-dasharray="5,2" d="M73.7029,-121C81.9237,-121 90.8,-121 99.521,-121"/>
<polygon fill="black" stroke="black" points="99.6389,-124.5 109.639,-121 99.6388,-117.5 99.6389,-124.5"/>
</g>
<!-- IR_Precision&#45;&gt;module~foodie_integrator_adams_bashforth -->
<g id="edge16" class="edge"><title>IR_Precision&#45;&gt;module~foodie_integrator_adams_bashforth</title>
<path fill="none" stroke="black" stroke-dasharray="5,2" d="M152,-79C179.62,-72.4359 210.008,-67.7967 238.151,-64.5307"/>
<polygon fill="black" stroke="black" points="238.857,-67.9738 248.409,-63.3886 238.083,-61.0168 238.857,-67.9738"/>
</g>
<!-- IR_Precision&#45;&gt;module~foodie_integrator_euler_explicit -->
<g id="edge20" class="edge"><title>IR_Precision&#45;&gt;module~foodie_integrator_euler_explicit</title>
<path fill="none" stroke="black" stroke-dasharray="5,2" d="M66.6758,-107.981C89.5575,-98.4814 122.222,-86.077 152,-79"/>
<path fill="none" stroke="black" stroke-dasharray="5,2" d="M152,-79C190.723,-69.7971 192.687,-48.8535 230,-35 236.317,-32.6545 242.937,-30.5411 249.661,-28.64"/>
<polygon fill="black" stroke="black" points="250.801,-31.9584 259.564,-26.0041 249.001,-25.1939 250.801,-31.9584"/>
</g>
</g>
</svg>
