<?xml version="1.0" encoding="UTF-8" standalone="no"?>
<!DOCTYPE svg PUBLIC "-//W3C//DTD SVG 1.1//EN"
 "http://www.w3.org/Graphics/SVG/1.1/DTD/svg11.dtd">
<!-- Generated by graphviz version 2.26.3 (20100126.1600)
 -->
<!-- Title: module~~type_integrand~~UsedByGraph Pages: 1 -->
<svg width="641pt" height="287pt"
 viewBox="0.00 0.00 641.00 287.24" xmlns="http://www.w3.org/2000/svg" xmlns:xlink="http://www.w3.org/1999/xlink">
<g id="graph1" class="graph" transform="scale(0.813452 0.813452) rotate(0) translate(4 349.113)">
<title>module~~type_integrand~~UsedByGraph</title>
<polygon fill="white" stroke="white" points="-4,5 -4,-349.113 785,-349.113 785,5 -4,5"/>
<!-- module~type_integrand -->
<g id="node1" class="node"><title>module~type_integrand</title>
<polygon fill="none" stroke="black" points="84,-184.407 4.26326e-14,-184.407 0,-158.407 84,-158.407 84,-184.407"/>
<text text-anchor="middle" x="42" y="-168.957" font-family="Helvetica,sans-Serif" font-size="10.50">type_integrand</text>
</g>
<!-- module~foodie_integrator_adams_bashforth -->
<g id="node2" class="node"><title>module~foodie_integrator_adams_bashforth</title>
<a xlink:href="../module/foodie_integrator_adams_bashforth.html" xlink:title="foodie_integrator_adams_bashforth">
<polygon fill="#337ab7" stroke="#337ab7" points="321,-290.407 139,-290.407 139,-264.407 321,-264.407 321,-290.407"/>
<text text-anchor="middle" x="230" y="-274.957" font-family="Helvetica,sans-Serif" font-size="10.50" fill="white">foodie_integrator_adams_bashforth</text>
</a>
</g>
<!-- module~type_integrand&#45;&gt;module~foodie_integrator_adams_bashforth -->
<g id="edge42" class="edge"><title>module~type_integrand&#45;&gt;module~foodie_integrator_adams_bashforth</title>
<path fill="none" stroke="black" stroke-dasharray="5,2" d="M50.2752,-184.598C62.8744,-203.497 88.7351,-237.923 120,-255.407 123.439,-257.33 127.022,-259.087 130.705,-260.692"/>
<polygon fill="black" stroke="black" points="129.45,-263.96 140.037,-264.375 132.02,-257.448 129.45,-263.96"/>
</g>
<!-- module~foodie_integrator_euler_explicit -->
<g id="node3" class="node"><title>module~foodie_integrator_euler_explicit</title>
<a xlink:href="../module/foodie_integrator_euler_explicit.html" xlink:title="foodie_integrator_euler_explicit">
<polygon fill="#337ab7" stroke="#337ab7" points="311,-246.407 149,-246.407 149,-220.407 311,-220.407 311,-246.407"/>
<text text-anchor="middle" x="230" y="-230.957" font-family="Helvetica,sans-Serif" font-size="10.50" fill="white">foodie_integrator_euler_explicit</text>
</a>
</g>
<!-- module~type_integrand&#45;&gt;module~foodie_integrator_euler_explicit -->
<g id="edge44" class="edge"><title>module~type_integrand&#45;&gt;module~foodie_integrator_euler_explicit</title>
<path fill="none" stroke="black" stroke-dasharray="5,2" d="M67.8784,-184.442C82.839,-191.615 102.175,-200.277 120,-206.407 132.299,-210.637 145.585,-214.483 158.528,-217.862"/>
<polygon fill="black" stroke="black" points="157.782,-221.284 168.336,-220.353 159.506,-214.499 157.782,-221.284"/>
</g>
<!-- module~foodie -->
<g id="node4" class="node"><title>module~foodie</title>
<a xlink:href="../module/foodie.html" xlink:title="foodie">
<polygon fill="#337ab7" stroke="#337ab7" points="430,-184.407 376,-184.407 376,-158.407 430,-158.407 430,-184.407"/>
<text text-anchor="middle" x="403" y="-168.957" font-family="Helvetica,sans-Serif" font-size="10.50" fill="white">foodie</text>
</a>
</g>
<!-- module~type_integrand&#45;&gt;module~foodie -->
<g id="edge46" class="edge"><title>module~type_integrand&#45;&gt;module~foodie</title>
<path fill="none" stroke="black" stroke-dasharray="5,2" d="M84.0959,-172.684C95.7265,-172.983 108.351,-173.258 120,-173.407 217.77,-174.66 242.235,-174.958 340,-173.407 348.323,-173.275 357.263,-173.045 365.718,-172.786"/>
<polygon fill="black" stroke="black" points="365.835,-176.285 375.716,-172.462 365.608,-169.288 365.835,-176.285"/>
</g>
<!-- module~foodie_integrator_leapfrog -->
<g id="node5" class="node"><title>module~foodie_integrator_leapfrog</title>
<a xlink:href="../module/foodie_integrator_leapfrog.html" xlink:title="foodie_integrator_leapfrog">
<polygon fill="#337ab7" stroke="#337ab7" points="299,-164.407 161,-164.407 161,-138.407 299,-138.407 299,-164.407"/>
<text text-anchor="middle" x="230" y="-148.957" font-family="Helvetica,sans-Serif" font-size="10.50" fill="white">foodie_integrator_leapfrog</text>
</a>
</g>
<!-- module~type_integrand&#45;&gt;module~foodie_integrator_leapfrog -->
<g id="edge48" class="edge"><title>module~type_integrand&#45;&gt;module~foodie_integrator_leapfrog</title>
<path fill="none" stroke="black" stroke-dasharray="5,2" d="M84.1909,-166.919C103.712,-164.842 127.568,-162.304 150.284,-159.887"/>
<polygon fill="black" stroke="black" points="150.703,-163.363 160.276,-158.824 149.962,-156.402 150.703,-163.363"/>
</g>
<!-- module~foodie_integrator_low_storage_runge_kutta -->
<g id="node6" class="node"><title>module~foodie_integrator_low_storage_runge_kutta</title>
<a xlink:href="../module/foodie_integrator_low_storage_runge_kutta.html" xlink:title="foodie_integrator_low_storage_runge_kutta">
<polygon fill="#337ab7" stroke="#337ab7" points="340,-120.407 120,-120.407 120,-94.407 340,-94.407 340,-120.407"/>
<text text-anchor="middle" x="230" y="-104.957" font-family="Helvetica,sans-Serif" font-size="10.50" fill="white">foodie_integrator_low_storage_runge_kutta</text>
</a>
</g>
<!-- module~type_integrand&#45;&gt;module~foodie_integrator_low_storage_runge_kutta -->
<g id="edge50" class="edge"><title>module~type_integrand&#45;&gt;module~foodie_integrator_low_storage_runge_kutta</title>
<path fill="none" stroke="black" stroke-dasharray="5,2" d="M62.403,-158.241C77.7007,-148.92 99.4522,-136.807 120,-129.407 126.463,-127.079 133.234,-124.976 140.104,-123.078"/>
<polygon fill="black" stroke="black" points="141.423,-126.351 150.218,-120.443 139.658,-119.577 141.423,-126.351"/>
</g>
<!-- module~foodie_integrator_tvd_runge_kutta -->
<g id="node7" class="node"><title>module~foodie_integrator_tvd_runge_kutta</title>
<a xlink:href="../module/foodie_integrator_tvd_runge_kutta.html" xlink:title="foodie_integrator_tvd_runge_kutta">
<polygon fill="#337ab7" stroke="#337ab7" points="318,-76.407 142,-76.407 142,-50.407 318,-50.407 318,-76.407"/>
<text text-anchor="middle" x="230" y="-60.957" font-family="Helvetica,sans-Serif" font-size="10.50" fill="white">foodie_integrator_tvd_runge_kutta</text>
</a>
</g>
<!-- module~type_integrand&#45;&gt;module~foodie_integrator_tvd_runge_kutta -->
<g id="edge52" class="edge"><title>module~type_integrand&#45;&gt;module~foodie_integrator_tvd_runge_kutta</title>
<path fill="none" stroke="black" stroke-dasharray="5,2" d="M49.9894,-158.221C62.4119,-138.941 88.2621,-103.401 120,-85.407 123.764,-83.2728 127.704,-81.3434 131.76,-79.5992"/>
<polygon fill="black" stroke="black" points="133.35,-82.7365 141.407,-75.8566 130.818,-76.2104 133.35,-82.7365"/>
</g>
<!-- module~foodie_integrator_adams_bashforth&#45;&gt;module~foodie -->
<g id="edge2" class="edge"><title>module~foodie_integrator_adams_bashforth&#45;&gt;module~foodie</title>
<path fill="none" stroke="black" stroke-dasharray="5,2" d="M321.501,-264.654C327.987,-262.093 334.233,-259.041 340,-255.407 363.747,-240.441 381.72,-213.087 392.274,-193.664"/>
<polygon fill="black" stroke="black" points="395.48,-195.084 396.979,-184.596 389.266,-191.86 395.48,-195.084"/>
</g>
<!-- module~foodie_integrator_euler_explicit&#45;&gt;module~foodie -->
<g id="edge4" class="edge"><title>module~foodie_integrator_euler_explicit&#45;&gt;module~foodie</title>
<path fill="none" stroke="black" stroke-dasharray="5,2" d="M295.458,-220.377C310.337,-216.584 325.905,-211.937 340,-206.407 351.531,-201.883 363.565,-195.623 373.989,-189.648"/>
<polygon fill="black" stroke="black" points="375.847,-192.615 382.682,-184.52 372.29,-186.586 375.847,-192.615"/>
</g>
<!-- program~integrate_burgers -->
<g id="node10" class="node"><title>program~integrate_burgers</title>
<a xlink:href="../program/integrate_burgers.html" xlink:title="integrate_burgers">
<polygon fill="#f0ad4e" stroke="#f0ad4e" points="753,-330.407 657,-330.407 657,-304.407 753,-304.407 753,-330.407"/>
<text text-anchor="middle" x="705" y="-314.957" font-family="Helvetica,sans-Serif" font-size="10.50" fill="white">integrate_burgers</text>
</a>
</g>
<!-- module~foodie&#45;&gt;program~integrate_burgers -->
<g id="edge16" class="edge"><title>module~foodie&#45;&gt;program~integrate_burgers</title>
<path fill="none" stroke="black" stroke-dasharray="5,2" d="M403.991,-184.679C407.044,-214.868 419.178,-288.45 466,-319.407 521.976,-356.416 602.606,-345.869 654.404,-333.08"/>
<polygon fill="black" stroke="black" points="655.557,-336.397 664.363,-330.506 653.806,-329.62 655.557,-336.397"/>
</g>
<!-- module~type_euler_1d -->
<g id="node11" class="node"><title>module~type_euler_1d</title>
<a xlink:href="../module/type_euler_1d.html" xlink:title="type_euler_1D">
<polygon fill="#337ab7" stroke="#337ab7" points="571,-266.407 489,-266.407 489,-240.407 571,-240.407 571,-266.407"/>
<text text-anchor="middle" x="530" y="-250.957" font-family="Helvetica,sans-Serif" font-size="10.50" fill="white">type_euler_1D</text>
</a>
</g>
<!-- module~foodie&#45;&gt;module~type_euler_1d -->
<g id="edge18" class="edge"><title>module~foodie&#45;&gt;module~type_euler_1d</title>
<path fill="none" stroke="black" stroke-dasharray="5,2" d="M415.536,-184.534C427.599,-196.607 446.791,-214.405 466,-226.407 471.703,-229.97 477.959,-233.263 484.255,-236.233"/>
<polygon fill="black" stroke="black" points="482.893,-239.457 493.45,-240.348 485.752,-233.068 482.893,-239.457"/>
</g>
<!-- program~integrate_lorenz -->
<g id="node12" class="node"><title>program~integrate_lorenz</title>
<a xlink:href="../program/integrate_lorenz.html" xlink:title="integrate_lorenz">
<polygon fill="#f0ad4e" stroke="#f0ad4e" points="750,-184.407 660,-184.407 660,-158.407 750,-158.407 750,-184.407"/>
<text text-anchor="middle" x="705" y="-168.957" font-family="Helvetica,sans-Serif" font-size="10.50" fill="white">integrate_lorenz</text>
</a>
</g>
<!-- module~foodie&#45;&gt;program~integrate_lorenz -->
<g id="edge20" class="edge"><title>module~foodie&#45;&gt;program~integrate_lorenz</title>
<path fill="none" stroke="black" stroke-dasharray="5,2" d="M430.024,-183.808C455.253,-194.49 494.275,-208.748 530,-212.407"/>
<path fill="none" stroke="black" stroke-dasharray="5,2" d="M530,-212.407C541.991,-213.635 603.256,-198.445 649.948,-186.209"/>
<polygon fill="black" stroke="black" points="650.888,-189.58 659.667,-183.649 649.106,-182.811 650.888,-189.58"/>
</g>
<!-- program~integrate_oscillation -->
<g id="node13" class="node"><title>program~integrate_oscillation</title>
<a xlink:href="../program/integrate_oscillation.html" xlink:title="integrate_oscillation">
<polygon fill="#f0ad4e" stroke="#f0ad4e" points="758,-112.407 652,-112.407 652,-86.407 758,-86.407 758,-112.407"/>
<text text-anchor="middle" x="705" y="-96.957" font-family="Helvetica,sans-Serif" font-size="10.50" fill="white">integrate_oscillation</text>
</a>
</g>
<!-- module~foodie&#45;&gt;program~integrate_oscillation -->
<g id="edge22" class="edge"><title>module~foodie&#45;&gt;program~integrate_oscillation</title>
<path fill="none" stroke="black" stroke-dasharray="5,2" d="M430.045,-161.098C441.091,-157.115 454.057,-152.727 466,-149.407 524.722,-133.086 592.869,-119.327 641.333,-110.399"/>
<polygon fill="black" stroke="black" points="642.156,-113.807 651.365,-108.569 640.899,-106.921 642.156,-113.807"/>
</g>
<!-- module~type_lorenz -->
<g id="node14" class="node"><title>module~type_lorenz</title>
<a xlink:href="../module/type_lorenz.html" xlink:title="type_lorenz">
<polygon fill="#337ab7" stroke="#337ab7" points="564,-184.407 496,-184.407 496,-158.407 564,-158.407 564,-184.407"/>
<text text-anchor="middle" x="530" y="-168.957" font-family="Helvetica,sans-Serif" font-size="10.50" fill="white">type_lorenz</text>
</a>
</g>
<!-- module~foodie&#45;&gt;module~type_lorenz -->
<g id="edge24" class="edge"><title>module~foodie&#45;&gt;module~type_lorenz</title>
<path fill="none" stroke="black" stroke-dasharray="5,2" d="M430.245,-171.407C446.282,-171.407 466.959,-171.407 485.326,-171.407"/>
<polygon fill="black" stroke="black" points="485.534,-174.907 495.534,-171.407 485.534,-167.907 485.534,-174.907"/>
</g>
<!-- module~type_burgers -->
<g id="node15" class="node"><title>module~type_burgers</title>
<a xlink:href="../module/type_burgers.html" xlink:title="type_burgers">
<polygon fill="#337ab7" stroke="#337ab7" points="568,-310.407 492,-310.407 492,-284.407 568,-284.407 568,-310.407"/>
<text text-anchor="middle" x="530" y="-294.957" font-family="Helvetica,sans-Serif" font-size="10.50" fill="white">type_burgers</text>
</a>
</g>
<!-- module~foodie&#45;&gt;module~type_burgers -->
<g id="edge26" class="edge"><title>module~foodie&#45;&gt;module~type_burgers</title>
<path fill="none" stroke="black" stroke-dasharray="5,2" d="M407.566,-184.6C415.819,-206.556 435.271,-250.627 466,-275.407 470.922,-279.376 476.602,-282.648 482.505,-285.342"/>
<polygon fill="black" stroke="black" points="481.303,-288.631 491.887,-289.114 483.915,-282.136 481.303,-288.631"/>
</g>
<!-- program~integrate_euler_1d -->
<g id="node16" class="node"><title>program~integrate_euler_1d</title>
<a xlink:href="../program/integrate_euler_1d.html" xlink:title="integrate_euler_1D">
<polygon fill="#f0ad4e" stroke="#f0ad4e" points="757,-228.407 653,-228.407 653,-202.407 757,-202.407 757,-228.407"/>
<text text-anchor="middle" x="705" y="-212.957" font-family="Helvetica,sans-Serif" font-size="10.50" fill="white">integrate_euler_1D</text>
</a>
</g>
<!-- module~foodie&#45;&gt;program~integrate_euler_1d -->
<g id="edge28" class="edge"><title>module~foodie&#45;&gt;program~integrate_euler_1d</title>
<path fill="none" stroke="black" stroke-dasharray="5,2" d="M530,-212.407C567.256,-216.223 609.202,-217.06 642.686,-216.902"/>
<polygon fill="black" stroke="black" points="642.819,-220.401 652.792,-216.823 642.765,-213.401 642.819,-220.401"/>
</g>
<!-- module~type_oscillation -->
<g id="node17" class="node"><title>module~type_oscillation</title>
<a xlink:href="../module/type_oscillation.html" xlink:title="type_oscillation">
<polygon fill="#337ab7" stroke="#337ab7" points="572,-102.407 488,-102.407 488,-76.407 572,-76.407 572,-102.407"/>
<text text-anchor="middle" x="530" y="-86.957" font-family="Helvetica,sans-Serif" font-size="10.50" fill="white">type_oscillation</text>
</a>
</g>
<!-- module~foodie&#45;&gt;module~type_oscillation -->
<g id="edge30" class="edge"><title>module~foodie&#45;&gt;module~type_oscillation</title>
<path fill="none" stroke="black" stroke-dasharray="5,2" d="M415.536,-158.281C427.599,-146.207 446.791,-128.409 466,-116.407 471.703,-112.844 477.959,-109.551 484.255,-106.581"/>
<polygon fill="black" stroke="black" points="485.752,-109.746 493.45,-102.466 482.893,-103.357 485.752,-109.746"/>
</g>
<!-- module~type_euler_1d_openmp -->
<g id="node18" class="node"><title>module~type_euler_1d_openmp</title>
<a xlink:href="../module/type_euler_1d_openmp.html" xlink:title="type_euler_1D_openmp">
<polygon fill="#337ab7" stroke="#337ab7" points="593,-58.407 467,-58.407 467,-32.407 593,-32.407 593,-58.407"/>
<text text-anchor="middle" x="530" y="-42.957" font-family="Helvetica,sans-Serif" font-size="10.50" fill="white">type_euler_1D_openmp</text>
</a>
</g>
<!-- module~foodie&#45;&gt;module~type_euler_1d_openmp -->
<g id="edge32" class="edge"><title>module~foodie&#45;&gt;module~type_euler_1d_openmp</title>
<path fill="none" stroke="black" stroke-dasharray="5,2" d="M407.566,-158.214C415.819,-136.258 435.271,-92.1867 466,-67.407 467.746,-65.9988 469.588,-64.6783 471.502,-63.4402"/>
<polygon fill="black" stroke="black" points="473.263,-66.4655 480.275,-58.5235 469.84,-60.3591 473.263,-66.4655"/>
</g>
<!-- program~integrate_euler_1d_openmp -->
<g id="node19" class="node"><title>program~integrate_euler_1d_openmp</title>
<a xlink:href="../program/integrate_euler_1d_openmp.html" xlink:title="integrate_euler_1D_openmp">
<polygon fill="#f0ad4e" stroke="#f0ad4e" points="779,-48.407 631,-48.407 631,-22.407 779,-22.407 779,-48.407"/>
<text text-anchor="middle" x="705" y="-32.957" font-family="Helvetica,sans-Serif" font-size="10.50" fill="white">integrate_euler_1D_openmp</text>
</a>
</g>
<!-- module~foodie&#45;&gt;program~integrate_euler_1d_openmp -->
<g id="edge34" class="edge"><title>module~foodie&#45;&gt;program~integrate_euler_1d_openmp</title>
<path fill="none" stroke="black" stroke-dasharray="5,2" d="M403.991,-158.135C407.044,-127.946 419.178,-54.3636 466,-23.407 524.969,15.5805 611.136,-2.56135 662.293,-19.1122"/>
<polygon fill="black" stroke="black" points="661.445,-22.5195 672.039,-22.3837 663.673,-15.8834 661.445,-22.5195"/>
</g>
<!-- module~foodie_integrator_leapfrog&#45;&gt;module~foodie -->
<g id="edge36" class="edge"><title>module~foodie_integrator_leapfrog&#45;&gt;module~foodie</title>
<path fill="none" stroke="black" stroke-dasharray="5,2" d="M299.867,-159.484C322.338,-162.082 346.366,-164.86 365.571,-167.08"/>
<polygon fill="black" stroke="black" points="365.368,-170.58 375.704,-168.251 366.172,-163.626 365.368,-170.58"/>
</g>
<!-- module~foodie_integrator_low_storage_runge_kutta&#45;&gt;module~foodie -->
<g id="edge38" class="edge"><title>module~foodie_integrator_low_storage_runge_kutta&#45;&gt;module~foodie</title>
<path fill="none" stroke="black" stroke-dasharray="5,2" d="M313.329,-120.45C322.484,-122.946 331.543,-125.904 340,-129.407 353.839,-135.139 367.841,-144.09 379.118,-152.259"/>
<polygon fill="black" stroke="black" points="377.061,-155.091 387.163,-158.286 381.259,-149.489 377.061,-155.091"/>
</g>
<!-- module~foodie_integrator_tvd_runge_kutta&#45;&gt;module~foodie -->
<g id="edge40" class="edge"><title>module~foodie_integrator_tvd_runge_kutta&#45;&gt;module~foodie</title>
<path fill="none" stroke="black" stroke-dasharray="5,2" d="M318.757,-75.0137C326.233,-77.7984 333.433,-81.2165 340,-85.407 364.269,-100.893 382.304,-129.31 392.722,-149.227"/>
<polygon fill="black" stroke="black" points="389.618,-150.846 397.218,-158.228 395.88,-147.718 389.618,-150.846"/>
</g>
<!-- module~type_euler_1d&#45;&gt;program~integrate_euler_1d -->
<g id="edge6" class="edge"><title>module~type_euler_1d&#45;&gt;program~integrate_euler_1d</title>
<path fill="none" stroke="black" stroke-dasharray="5,2" d="M571.03,-244.498C592.422,-239.853 619.034,-234.074 642.89,-228.894"/>
<polygon fill="black" stroke="black" points="643.892,-232.258 652.922,-226.715 642.407,-225.417 643.892,-232.258"/>
</g>
<!-- module~type_lorenz&#45;&gt;program~integrate_lorenz -->
<g id="edge8" class="edge"><title>module~type_lorenz&#45;&gt;program~integrate_lorenz</title>
<path fill="none" stroke="black" stroke-dasharray="5,2" d="M564.157,-171.407C588.519,-171.407 621.803,-171.407 649.898,-171.407"/>
<polygon fill="black" stroke="black" points="649.987,-174.907 659.987,-171.407 649.987,-167.907 649.987,-174.907"/>
</g>
<!-- module~type_burgers&#45;&gt;program~integrate_burgers -->
<g id="edge10" class="edge"><title>module~type_burgers&#45;&gt;program~integrate_burgers</title>
<path fill="none" stroke="black" stroke-dasharray="5,2" d="M568.404,-301.796C591.232,-304.405 620.651,-307.767 646.337,-310.703"/>
<polygon fill="black" stroke="black" points="646.012,-314.188 656.344,-311.846 646.807,-307.233 646.012,-314.188"/>
</g>
<!-- module~type_oscillation&#45;&gt;program~integrate_oscillation -->
<g id="edge12" class="edge"><title>module~type_oscillation&#45;&gt;program~integrate_oscillation</title>
<path fill="none" stroke="black" stroke-dasharray="5,2" d="M572.81,-91.8533C593.343,-93.0266 618.365,-94.4564 641.092,-95.7551"/>
<polygon fill="black" stroke="black" points="641.164,-99.2649 651.348,-96.3412 641.564,-92.2763 641.164,-99.2649"/>
</g>
<!-- module~type_euler_1d_openmp&#45;&gt;program~integrate_euler_1d_openmp -->
<g id="edge14" class="edge"><title>module~type_euler_1d_openmp&#45;&gt;program~integrate_euler_1d_openmp</title>
<path fill="none" stroke="black" stroke-dasharray="5,2" d="M593.674,-41.7685C602.337,-41.2735 611.337,-40.7592 620.297,-40.2472"/>
<polygon fill="black" stroke="black" points="620.594,-43.736 630.378,-39.6711 620.194,-36.7474 620.594,-43.736"/>
</g>
</g>
</svg>
