<?xml version="1.0" encoding="UTF-8" standalone="no"?>
<!DOCTYPE svg PUBLIC "-//W3C//DTD SVG 1.1//EN"
 "http://www.w3.org/Graphics/SVG/1.1/DTD/svg11.dtd">
<!-- Generated by graphviz version 2.26.3 (20100126.1600)
 -->
<!-- Title: module~~foodie_integrator_euler_explicit~~UsedByGraph Pages: 1 -->
<svg width="610pt" height="353pt"
 viewBox="0.00 0.00 610.00 353.11" xmlns="http://www.w3.org/2000/svg" xmlns:xlink="http://www.w3.org/1999/xlink">
<g id="graph1" class="graph" transform="scale(1 1) rotate(0) translate(4 349.113)">
<title>module~~foodie_integrator_euler_explicit~~UsedByGraph</title>
<polygon fill="white" stroke="white" points="-4,5 -4,-349.113 607,-349.113 607,5 -4,5"/>
<!-- module~foodie_integrator_euler_explicit -->
<g id="node1" class="node"><title>module~foodie_integrator_euler_explicit</title>
<polygon fill="none" stroke="black" points="162,-184.407 8.52651e-14,-184.407 0,-158.407 162,-158.407 162,-184.407"/>
<text text-anchor="middle" x="81" y="-168.957" font-family="Helvetica,sans-Serif" font-size="10.50">foodie_integrator_euler_explicit</text>
</g>
<!-- module~foodie -->
<g id="node2" class="node"><title>module~foodie</title>
<a xlink:href="../module/foodie.html" xlink:title="foodie">
<polygon fill="#337ab7" stroke="#337ab7" points="252,-184.407 198,-184.407 198,-158.407 252,-158.407 252,-184.407"/>
<text text-anchor="middle" x="225" y="-168.957" font-family="Helvetica,sans-Serif" font-size="10.50" fill="white">foodie</text>
</a>
</g>
<!-- module~foodie_integrator_euler_explicit&#45;&gt;module~foodie -->
<g id="edge32" class="edge"><title>module~foodie_integrator_euler_explicit&#45;&gt;module~foodie</title>
<path fill="none" stroke="black" stroke-dasharray="5,2" d="M162.258,-171.407C171.03,-171.407 179.616,-171.407 187.482,-171.407"/>
<polygon fill="black" stroke="black" points="187.714,-174.907 197.714,-171.407 187.714,-167.907 187.714,-174.907"/>
</g>
<!-- program~integrate_burgers -->
<g id="node3" class="node"><title>program~integrate_burgers</title>
<a xlink:href="../program/integrate_burgers.html" xlink:title="integrate_burgers">
<polygon fill="#f0ad4e" stroke="#f0ad4e" points="575,-330.407 479,-330.407 479,-304.407 575,-304.407 575,-330.407"/>
<text text-anchor="middle" x="527" y="-314.957" font-family="Helvetica,sans-Serif" font-size="10.50" fill="white">integrate_burgers</text>
</a>
</g>
<!-- module~foodie&#45;&gt;program~integrate_burgers -->
<g id="edge12" class="edge"><title>module~foodie&#45;&gt;program~integrate_burgers</title>
<path fill="none" stroke="black" stroke-dasharray="5,2" d="M225.991,-184.679C229.044,-214.868 241.178,-288.45 288,-319.407 343.976,-356.416 424.606,-345.869 476.404,-333.08"/>
<polygon fill="black" stroke="black" points="477.557,-336.397 486.363,-330.506 475.806,-329.62 477.557,-336.397"/>
</g>
<!-- module~type_euler_1d -->
<g id="node4" class="node"><title>module~type_euler_1d</title>
<a xlink:href="../module/type_euler_1d.html" xlink:title="type_euler_1D">
<polygon fill="#337ab7" stroke="#337ab7" points="393,-266.407 311,-266.407 311,-240.407 393,-240.407 393,-266.407"/>
<text text-anchor="middle" x="352" y="-250.957" font-family="Helvetica,sans-Serif" font-size="10.50" fill="white">type_euler_1D</text>
</a>
</g>
<!-- module~foodie&#45;&gt;module~type_euler_1d -->
<g id="edge14" class="edge"><title>module~foodie&#45;&gt;module~type_euler_1d</title>
<path fill="none" stroke="black" stroke-dasharray="5,2" d="M237.536,-184.534C249.599,-196.607 268.791,-214.405 288,-226.407 293.703,-229.97 299.959,-233.263 306.255,-236.233"/>
<polygon fill="black" stroke="black" points="304.893,-239.457 315.45,-240.348 307.752,-233.068 304.893,-239.457"/>
</g>
<!-- program~integrate_lorenz -->
<g id="node5" class="node"><title>program~integrate_lorenz</title>
<a xlink:href="../program/integrate_lorenz.html" xlink:title="integrate_lorenz">
<polygon fill="#f0ad4e" stroke="#f0ad4e" points="572,-184.407 482,-184.407 482,-158.407 572,-158.407 572,-184.407"/>
<text text-anchor="middle" x="527" y="-168.957" font-family="Helvetica,sans-Serif" font-size="10.50" fill="white">integrate_lorenz</text>
</a>
</g>
<!-- module~foodie&#45;&gt;program~integrate_lorenz -->
<g id="edge16" class="edge"><title>module~foodie&#45;&gt;program~integrate_lorenz</title>
<path fill="none" stroke="black" stroke-dasharray="5,2" d="M252.024,-183.808C277.253,-194.49 316.275,-208.748 352,-212.407"/>
<path fill="none" stroke="black" stroke-dasharray="5,2" d="M352,-212.407C363.991,-213.635 425.256,-198.445 471.948,-186.209"/>
<polygon fill="black" stroke="black" points="472.888,-189.58 481.667,-183.649 471.106,-182.811 472.888,-189.58"/>
</g>
<!-- program~integrate_oscillation -->
<g id="node6" class="node"><title>program~integrate_oscillation</title>
<a xlink:href="../program/integrate_oscillation.html" xlink:title="integrate_oscillation">
<polygon fill="#f0ad4e" stroke="#f0ad4e" points="580,-112.407 474,-112.407 474,-86.407 580,-86.407 580,-112.407"/>
<text text-anchor="middle" x="527" y="-96.957" font-family="Helvetica,sans-Serif" font-size="10.50" fill="white">integrate_oscillation</text>
</a>
</g>
<!-- module~foodie&#45;&gt;program~integrate_oscillation -->
<g id="edge18" class="edge"><title>module~foodie&#45;&gt;program~integrate_oscillation</title>
<path fill="none" stroke="black" stroke-dasharray="5,2" d="M252.045,-161.098C263.091,-157.115 276.057,-152.727 288,-149.407 346.722,-133.086 414.869,-119.327 463.333,-110.399"/>
<polygon fill="black" stroke="black" points="464.156,-113.807 473.365,-108.569 462.899,-106.921 464.156,-113.807"/>
</g>
<!-- module~type_lorenz -->
<g id="node7" class="node"><title>module~type_lorenz</title>
<a xlink:href="../module/type_lorenz.html" xlink:title="type_lorenz">
<polygon fill="#337ab7" stroke="#337ab7" points="386,-184.407 318,-184.407 318,-158.407 386,-158.407 386,-184.407"/>
<text text-anchor="middle" x="352" y="-168.957" font-family="Helvetica,sans-Serif" font-size="10.50" fill="white">type_lorenz</text>
</a>
</g>
<!-- module~foodie&#45;&gt;module~type_lorenz -->
<g id="edge20" class="edge"><title>module~foodie&#45;&gt;module~type_lorenz</title>
<path fill="none" stroke="black" stroke-dasharray="5,2" d="M252.245,-171.407C268.282,-171.407 288.959,-171.407 307.326,-171.407"/>
<polygon fill="black" stroke="black" points="307.534,-174.907 317.534,-171.407 307.534,-167.907 307.534,-174.907"/>
</g>
<!-- module~type_burgers -->
<g id="node8" class="node"><title>module~type_burgers</title>
<a xlink:href="../module/type_burgers.html" xlink:title="type_burgers">
<polygon fill="#337ab7" stroke="#337ab7" points="390,-310.407 314,-310.407 314,-284.407 390,-284.407 390,-310.407"/>
<text text-anchor="middle" x="352" y="-294.957" font-family="Helvetica,sans-Serif" font-size="10.50" fill="white">type_burgers</text>
</a>
</g>
<!-- module~foodie&#45;&gt;module~type_burgers -->
<g id="edge22" class="edge"><title>module~foodie&#45;&gt;module~type_burgers</title>
<path fill="none" stroke="black" stroke-dasharray="5,2" d="M229.566,-184.6C237.819,-206.556 257.271,-250.627 288,-275.407 292.922,-279.376 298.602,-282.648 304.505,-285.342"/>
<polygon fill="black" stroke="black" points="303.303,-288.631 313.887,-289.114 305.915,-282.136 303.303,-288.631"/>
</g>
<!-- program~integrate_euler_1d -->
<g id="node9" class="node"><title>program~integrate_euler_1d</title>
<a xlink:href="../program/integrate_euler_1d.html" xlink:title="integrate_euler_1D">
<polygon fill="#f0ad4e" stroke="#f0ad4e" points="579,-228.407 475,-228.407 475,-202.407 579,-202.407 579,-228.407"/>
<text text-anchor="middle" x="527" y="-212.957" font-family="Helvetica,sans-Serif" font-size="10.50" fill="white">integrate_euler_1D</text>
</a>
</g>
<!-- module~foodie&#45;&gt;program~integrate_euler_1d -->
<g id="edge24" class="edge"><title>module~foodie&#45;&gt;program~integrate_euler_1d</title>
<path fill="none" stroke="black" stroke-dasharray="5,2" d="M352,-212.407C389.256,-216.223 431.202,-217.06 464.686,-216.902"/>
<polygon fill="black" stroke="black" points="464.819,-220.401 474.792,-216.823 464.765,-213.401 464.819,-220.401"/>
</g>
<!-- module~type_oscillation -->
<g id="node10" class="node"><title>module~type_oscillation</title>
<a xlink:href="../module/type_oscillation.html" xlink:title="type_oscillation">
<polygon fill="#337ab7" stroke="#337ab7" points="394,-102.407 310,-102.407 310,-76.407 394,-76.407 394,-102.407"/>
<text text-anchor="middle" x="352" y="-86.957" font-family="Helvetica,sans-Serif" font-size="10.50" fill="white">type_oscillation</text>
</a>
</g>
<!-- module~foodie&#45;&gt;module~type_oscillation -->
<g id="edge26" class="edge"><title>module~foodie&#45;&gt;module~type_oscillation</title>
<path fill="none" stroke="black" stroke-dasharray="5,2" d="M237.536,-158.281C249.599,-146.207 268.791,-128.409 288,-116.407 293.703,-112.844 299.959,-109.551 306.255,-106.581"/>
<polygon fill="black" stroke="black" points="307.752,-109.746 315.45,-102.466 304.893,-103.357 307.752,-109.746"/>
</g>
<!-- module~type_euler_1d_openmp -->
<g id="node11" class="node"><title>module~type_euler_1d_openmp</title>
<a xlink:href="../module/type_euler_1d_openmp.html" xlink:title="type_euler_1D_openmp">
<polygon fill="#337ab7" stroke="#337ab7" points="415,-58.407 289,-58.407 289,-32.407 415,-32.407 415,-58.407"/>
<text text-anchor="middle" x="352" y="-42.957" font-family="Helvetica,sans-Serif" font-size="10.50" fill="white">type_euler_1D_openmp</text>
</a>
</g>
<!-- module~foodie&#45;&gt;module~type_euler_1d_openmp -->
<g id="edge28" class="edge"><title>module~foodie&#45;&gt;module~type_euler_1d_openmp</title>
<path fill="none" stroke="black" stroke-dasharray="5,2" d="M229.566,-158.214C237.819,-136.258 257.271,-92.1867 288,-67.407 289.746,-65.9988 291.588,-64.6783 293.502,-63.4402"/>
<polygon fill="black" stroke="black" points="295.263,-66.4655 302.275,-58.5235 291.84,-60.3591 295.263,-66.4655"/>
</g>
<!-- program~integrate_euler_1d_openmp -->
<g id="node12" class="node"><title>program~integrate_euler_1d_openmp</title>
<a xlink:href="../program/integrate_euler_1d_openmp.html" xlink:title="integrate_euler_1D_openmp">
<polygon fill="#f0ad4e" stroke="#f0ad4e" points="601,-48.407 453,-48.407 453,-22.407 601,-22.407 601,-48.407"/>
<text text-anchor="middle" x="527" y="-32.957" font-family="Helvetica,sans-Serif" font-size="10.50" fill="white">integrate_euler_1D_openmp</text>
</a>
</g>
<!-- module~foodie&#45;&gt;program~integrate_euler_1d_openmp -->
<g id="edge30" class="edge"><title>module~foodie&#45;&gt;program~integrate_euler_1d_openmp</title>
<path fill="none" stroke="black" stroke-dasharray="5,2" d="M225.991,-158.135C229.044,-127.946 241.178,-54.3636 288,-23.407 346.969,15.5805 433.136,-2.56135 484.293,-19.1122"/>
<polygon fill="black" stroke="black" points="483.445,-22.5195 494.039,-22.3837 485.673,-15.8834 483.445,-22.5195"/>
</g>
<!-- module~type_euler_1d&#45;&gt;program~integrate_euler_1d -->
<g id="edge2" class="edge"><title>module~type_euler_1d&#45;&gt;program~integrate_euler_1d</title>
<path fill="none" stroke="black" stroke-dasharray="5,2" d="M393.03,-244.498C414.422,-239.853 441.034,-234.074 464.89,-228.894"/>
<polygon fill="black" stroke="black" points="465.892,-232.258 474.922,-226.715 464.407,-225.417 465.892,-232.258"/>
</g>
<!-- module~type_lorenz&#45;&gt;program~integrate_lorenz -->
<g id="edge4" class="edge"><title>module~type_lorenz&#45;&gt;program~integrate_lorenz</title>
<path fill="none" stroke="black" stroke-dasharray="5,2" d="M386.157,-171.407C410.519,-171.407 443.803,-171.407 471.898,-171.407"/>
<polygon fill="black" stroke="black" points="471.987,-174.907 481.987,-171.407 471.987,-167.907 471.987,-174.907"/>
</g>
<!-- module~type_burgers&#45;&gt;program~integrate_burgers -->
<g id="edge6" class="edge"><title>module~type_burgers&#45;&gt;program~integrate_burgers</title>
<path fill="none" stroke="black" stroke-dasharray="5,2" d="M390.404,-301.796C413.232,-304.405 442.651,-307.767 468.337,-310.703"/>
<polygon fill="black" stroke="black" points="468.012,-314.188 478.344,-311.846 468.807,-307.233 468.012,-314.188"/>
</g>
<!-- module~type_oscillation&#45;&gt;program~integrate_oscillation -->
<g id="edge8" class="edge"><title>module~type_oscillation&#45;&gt;program~integrate_oscillation</title>
<path fill="none" stroke="black" stroke-dasharray="5,2" d="M394.81,-91.8533C415.343,-93.0266 440.365,-94.4564 463.092,-95.7551"/>
<polygon fill="black" stroke="black" points="463.164,-99.2649 473.348,-96.3412 463.564,-92.2763 463.164,-99.2649"/>
</g>
<!-- module~type_euler_1d_openmp&#45;&gt;program~integrate_euler_1d_openmp -->
<g id="edge10" class="edge"><title>module~type_euler_1d_openmp&#45;&gt;program~integrate_euler_1d_openmp</title>
<path fill="none" stroke="black" stroke-dasharray="5,2" d="M415.674,-41.7685C424.337,-41.2735 433.337,-40.7592 442.297,-40.2472"/>
<polygon fill="black" stroke="black" points="442.594,-43.736 452.378,-39.6711 442.194,-36.7474 442.594,-43.736"/>
</g>
</g>
</svg>
