<?xml version="1.0" encoding="UTF-8" standalone="no"?>
<!DOCTYPE svg PUBLIC "-//W3C//DTD SVG 1.1//EN"
 "http://www.w3.org/Graphics/SVG/1.1/DTD/svg11.dtd">
<!-- Generated by graphviz version 2.26.3 (20100126.1600)
 -->
<!-- Title: module~~foodie_integrator_tvd_runge_kutta~~UsedByGraph Pages: 1 -->
<svg width="542pt" height="307pt"
 viewBox="0.00 0.00 542.00 307.00" xmlns="http://www.w3.org/2000/svg" xmlns:xlink="http://www.w3.org/1999/xlink">
<g id="graph1" class="graph" transform="scale(1 1) rotate(0) translate(4 303.004)">
<title>module~~foodie_integrator_tvd_runge_kutta~~UsedByGraph</title>
<polygon fill="white" stroke="white" points="-4,5 -4,-303.004 539,-303.004 539,5 -4,5"/>
<!-- module~foodie_integrator_tvd_runge_kutta -->
<g id="node1" class="node"><title>module~foodie_integrator_tvd_runge_kutta</title>
<polygon fill="none" stroke="black" points="177,-169 1,-169 1,-143 177,-143 177,-169"/>
<text text-anchor="middle" x="89" y="-153.55" font-family="Helvetica,sans-Serif" font-size="10.50">foodie_integrator_tvd_runge_kutta</text>
</g>
<!-- module~foodie -->
<g id="node2" class="node"><title>module~foodie</title>
<a xlink:href="../module/foodie.html" xlink:title="foodie">
<polygon fill="#337ab7" stroke="#337ab7" points="268,-169 214,-169 214,-143 268,-143 268,-169"/>
<text text-anchor="middle" x="241" y="-153.55" font-family="Helvetica,sans-Serif" font-size="10.50" fill="white">foodie</text>
</a>
</g>
<!-- module~foodie_integrator_tvd_runge_kutta&#45;&gt;module~foodie -->
<g id="edge26" class="edge"><title>module~foodie_integrator_tvd_runge_kutta&#45;&gt;module~foodie</title>
<path fill="none" stroke="black" stroke-dasharray="5,2" d="M177.859,-156C186.893,-156 195.678,-156 203.682,-156"/>
<polygon fill="black" stroke="black" points="203.71,-159.5 213.71,-156 203.71,-152.5 203.71,-159.5"/>
</g>
<!-- program~integrate_burgers -->
<g id="node3" class="node"><title>program~integrate_burgers</title>
<a xlink:href="../program/integrate_burgers.html" xlink:title="integrate_burgers">
<polygon fill="#f0ad4e" stroke="#f0ad4e" points="528,-292 432,-292 432,-266 528,-266 528,-292"/>
<text text-anchor="middle" x="480" y="-276.55" font-family="Helvetica,sans-Serif" font-size="10.50" fill="white">integrate_burgers</text>
</a>
</g>
<!-- module~foodie&#45;&gt;program~integrate_burgers -->
<g id="edge10" class="edge"><title>module~foodie&#45;&gt;program~integrate_burgers</title>
<path fill="none" stroke="black" stroke-dasharray="5,2" d="M243.076,-169.265C248.059,-196.019 263.442,-256.023 304,-281 339.794,-303.043 387.941,-300.818 424.83,-294.042"/>
<polygon fill="black" stroke="black" points="425.796,-297.418 434.916,-292.026 424.424,-290.553 425.796,-297.418"/>
</g>
<!-- module~type_burgers -->
<g id="node4" class="node"><title>module~type_burgers</title>
<a xlink:href="../module/type_burgers.html" xlink:title="type_burgers">
<polygon fill="#337ab7" stroke="#337ab7" points="385,-272 309,-272 309,-246 385,-246 385,-272"/>
<text text-anchor="middle" x="347" y="-256.55" font-family="Helvetica,sans-Serif" font-size="10.50" fill="white">type_burgers</text>
</a>
</g>
<!-- module~foodie&#45;&gt;module~type_burgers -->
<g id="edge12" class="edge"><title>module~foodie&#45;&gt;module~type_burgers</title>
<path fill="none" stroke="black" stroke-dasharray="5,2" d="M249.935,-169.183C261.255,-185.262 281.961,-212.683 304,-232 307.373,-234.956 311.103,-237.803 314.916,-240.469"/>
<polygon fill="black" stroke="black" points="313.011,-243.405 323.287,-245.984 316.862,-237.56 313.011,-243.405"/>
</g>
<!-- program~integrate_lorenz -->
<g id="node5" class="node"><title>program~integrate_lorenz</title>
<a xlink:href="../program/integrate_lorenz.html" xlink:title="integrate_lorenz">
<polygon fill="#f0ad4e" stroke="#f0ad4e" points="525,-210 435,-210 435,-184 525,-184 525,-210"/>
<text text-anchor="middle" x="480" y="-194.55" font-family="Helvetica,sans-Serif" font-size="10.50" fill="white">integrate_lorenz</text>
</a>
</g>
<!-- module~foodie&#45;&gt;program~integrate_lorenz -->
<g id="edge14" class="edge"><title>module~foodie&#45;&gt;program~integrate_lorenz</title>
<path fill="none" stroke="black" stroke-dasharray="5,2" d="M255.179,-169.415C267.143,-179.75 285.274,-193.218 304,-199 343.064,-211.061 389.369,-209.969 424.676,-206.177"/>
<polygon fill="black" stroke="black" points="425.271,-209.632 434.793,-204.986 424.452,-202.68 425.271,-209.632"/>
</g>
<!-- program~integrate_euler_1d -->
<g id="node6" class="node"><title>program~integrate_euler_1d</title>
<a xlink:href="../program/integrate_euler_1d.html" xlink:title="integrate_euler_1D">
<polygon fill="#f0ad4e" stroke="#f0ad4e" points="532,-119 428,-119 428,-93 532,-93 532,-119"/>
<text text-anchor="middle" x="480" y="-103.55" font-family="Helvetica,sans-Serif" font-size="10.50" fill="white">integrate_euler_1D</text>
</a>
</g>
<!-- module~foodie&#45;&gt;program~integrate_euler_1d -->
<g id="edge16" class="edge"><title>module~foodie&#45;&gt;program~integrate_euler_1d</title>
<path fill="none" stroke="black" stroke-dasharray="5,2" d="M268.416,-150.264C304.589,-142.697 369.324,-129.154 417.696,-119.034"/>
<polygon fill="black" stroke="black" points="418.682,-122.404 427.754,-116.93 417.249,-115.552 418.682,-122.404"/>
</g>
<!-- module~type_euler_1d -->
<g id="node7" class="node"><title>module~type_euler_1d</title>
<a xlink:href="../module/type_euler_1d.html" xlink:title="type_euler_1D">
<polygon fill="#337ab7" stroke="#337ab7" points="388,-108 306,-108 306,-82 388,-82 388,-108"/>
<text text-anchor="middle" x="347" y="-92.55" font-family="Helvetica,sans-Serif" font-size="10.50" fill="white">type_euler_1D</text>
</a>
</g>
<!-- module~foodie&#45;&gt;module~type_euler_1d -->
<g id="edge18" class="edge"><title>module~foodie&#45;&gt;module~type_euler_1d</title>
<path fill="none" stroke="black" stroke-dasharray="5,2" d="M263.74,-142.914C278.83,-134.23 298.842,-122.713 315.465,-113.148"/>
<polygon fill="black" stroke="black" points="317.376,-116.086 324.298,-108.064 313.885,-110.019 317.376,-116.086"/>
</g>
<!-- module~type_lorenz -->
<g id="node8" class="node"><title>module~type_lorenz</title>
<a xlink:href="../module/type_lorenz.html" xlink:title="type_lorenz">
<polygon fill="#337ab7" stroke="#337ab7" points="381,-190 313,-190 313,-164 381,-164 381,-190"/>
<text text-anchor="middle" x="347" y="-174.55" font-family="Helvetica,sans-Serif" font-size="10.50" fill="white">type_lorenz</text>
</a>
</g>
<!-- module~foodie&#45;&gt;module~type_lorenz -->
<g id="edge20" class="edge"><title>module~foodie&#45;&gt;module~type_lorenz</title>
<path fill="none" stroke="black" stroke-dasharray="5,2" d="M268.023,-161.354C278.555,-163.44 290.905,-165.887 302.669,-168.217"/>
<polygon fill="black" stroke="black" points="302.307,-171.714 312.796,-170.224 303.667,-164.847 302.307,-171.714"/>
</g>
<!-- program~integrate_oscillation -->
<g id="node9" class="node"><title>program~integrate_oscillation</title>
<a xlink:href="../program/integrate_oscillation.html" xlink:title="integrate_oscillation">
<polygon fill="#f0ad4e" stroke="#f0ad4e" points="533,-56 427,-56 427,-30 533,-30 533,-56"/>
<text text-anchor="middle" x="480" y="-40.55" font-family="Helvetica,sans-Serif" font-size="10.50" fill="white">integrate_oscillation</text>
</a>
</g>
<!-- module~foodie&#45;&gt;program~integrate_oscillation -->
<g id="edge22" class="edge"><title>module~foodie&#45;&gt;program~integrate_oscillation</title>
<path fill="none" stroke="black" stroke-dasharray="5,2" d="M246.999,-142.863C256.322,-124.06 276.158,-89.8864 304,-73 337.529,-52.6646 380.902,-45.1016 416.2,-42.6533"/>
<polygon fill="black" stroke="black" points="416.616,-46.1354 426.4,-42.0705 416.217,-39.1468 416.616,-46.1354"/>
</g>
<!-- module~type_oscillation -->
<g id="node10" class="node"><title>module~type_oscillation</title>
<a xlink:href="../module/type_oscillation.html" xlink:title="type_oscillation">
<polygon fill="#337ab7" stroke="#337ab7" points="389,-26 305,-26 305,-1.24345e-14 389,-3.55271e-15 389,-26"/>
<text text-anchor="middle" x="347" y="-10.55" font-family="Helvetica,sans-Serif" font-size="10.50" fill="white">type_oscillation</text>
</a>
</g>
<!-- module~foodie&#45;&gt;module~type_oscillation -->
<g id="edge24" class="edge"><title>module~foodie&#45;&gt;module~type_oscillation</title>
<path fill="none" stroke="black" stroke-dasharray="5,2" d="M245.595,-142.811C254.144,-119.757 274.355,-71.5791 304,-40 306.706,-37.118 309.783,-34.4172 313.018,-31.9225"/>
<polygon fill="black" stroke="black" points="315.073,-34.7567 321.266,-26.1603 311.064,-29.0185 315.073,-34.7567"/>
</g>
<!-- module~type_burgers&#45;&gt;program~integrate_burgers -->
<g id="edge2" class="edge"><title>module~type_burgers&#45;&gt;program~integrate_burgers</title>
<path fill="none" stroke="black" stroke-dasharray="5,2" d="M385.112,-264.731C396.387,-266.427 409.001,-268.323 421.259,-270.167"/>
<polygon fill="black" stroke="black" points="421.025,-273.671 431.434,-271.697 422.066,-266.749 421.025,-273.671"/>
</g>
<!-- module~type_euler_1d&#45;&gt;program~integrate_euler_1d -->
<g id="edge4" class="edge"><title>module~type_euler_1d&#45;&gt;program~integrate_euler_1d</title>
<path fill="none" stroke="black" stroke-dasharray="5,2" d="M388.353,-98.4202C397.635,-99.1878 407.683,-100.019 417.608,-100.84"/>
<polygon fill="black" stroke="black" points="417.616,-104.352 427.87,-101.689 418.193,-97.3761 417.616,-104.352"/>
</g>
<!-- module~type_lorenz&#45;&gt;program~integrate_lorenz -->
<g id="edge6" class="edge"><title>module~type_lorenz&#45;&gt;program~integrate_lorenz</title>
<path fill="none" stroke="black" stroke-dasharray="5,2" d="M381.251,-182.15C394.508,-184.144 410.022,-186.477 424.774,-188.695"/>
<polygon fill="black" stroke="black" points="424.418,-192.181 434.827,-190.207 425.459,-185.259 424.418,-192.181"/>
</g>
<!-- module~type_oscillation&#45;&gt;program~integrate_oscillation -->
<g id="edge8" class="edge"><title>module~type_oscillation&#45;&gt;program~integrate_oscillation</title>
<path fill="none" stroke="black" stroke-dasharray="5,2" d="M389.814,-22.6573C398.201,-24.549 407.165,-26.5711 416.068,-28.5793"/>
<polygon fill="black" stroke="black" points="415.535,-32.0468 426.06,-30.833 417.075,-25.2183 415.535,-32.0468"/>
</g>
</g>
</svg>
