<?xml version="1.0" encoding="UTF-8" standalone="no"?>
<!DOCTYPE svg PUBLIC "-//W3C//DTD SVG 1.1//EN"
 "http://www.w3.org/Graphics/SVG/1.1/DTD/svg11.dtd">
<!-- Generated by graphviz version 2.38.0 (20140413.2041)
 -->
<!-- Title: module~~foodie_integrator_adams_bashforth~~UsedByGraph Pages: 1 -->
<svg width="545pt" height="234pt"
 viewBox="0.00 0.00 545.00 234.00" xmlns="http://www.w3.org/2000/svg" xmlns:xlink="http://www.w3.org/1999/xlink">
<g id="graph0" class="graph" transform="scale(1 1) rotate(0) translate(4 230)">
<title>module~~foodie_integrator_adams_bashforth~~UsedByGraph</title>
<polygon fill="white" stroke="none" points="-4,4 -4,-230 541,-230 541,4 -4,4"/>
<!-- module~foodie_integrator_adams_bashforth -->
<g id="node1" class="node"><title>module~foodie_integrator_adams_bashforth</title>
<polygon fill="none" stroke="black" points="183,-125 0,-125 0,-101 183,-101 183,-125"/>
<text text-anchor="middle" x="91.5" y="-110.6" font-family="Helvetica,sans-Serif" font-size="10.50">foodie_integrator_adams_bashforth</text>
</g>
<!-- module~foodie -->
<g id="node2" class="node"><title>module~foodie</title>
<g id="a_node2"><a xlink:href="../module/foodie.html" xlink:title="foodie">
<polygon fill="#337ab7" stroke="#337ab7" points="273,-125 219,-125 219,-101 273,-101 273,-125"/>
<text text-anchor="middle" x="246" y="-110.6" font-family="Helvetica,sans-Serif" font-size="10.50" fill="white">foodie</text>
</a>
</g>
</g>
<!-- module~foodie_integrator_adams_bashforth&#45;&gt;module~foodie -->
<g id="edge11" class="edge"><title>module~foodie_integrator_adams_bashforth&#45;&gt;module~foodie</title>
<path fill="none" stroke="black" stroke-dasharray="5,2" d="M183.412,-113C192.27,-113 200.854,-113 208.661,-113"/>
<polygon fill="black" stroke="black" points="208.778,-116.5 218.778,-113 208.778,-109.5 208.778,-116.5"/>
</g>
<!-- module~type_burgers -->
<g id="node3" class="node"><title>module~type_burgers</title>
<g id="a_node3"><a xlink:href="../module/type_burgers.html" xlink:title="type_burgers">
<polygon fill="#337ab7" stroke="#337ab7" points="389.5,-226 313.5,-226 313.5,-202 389.5,-202 389.5,-226"/>
<text text-anchor="middle" x="351.5" y="-211.6" font-family="Helvetica,sans-Serif" font-size="10.50" fill="white">type_burgers</text>
</a>
</g>
</g>
<!-- module~foodie&#45;&gt;module~type_burgers -->
<g id="edge4" class="edge"><title>module~foodie&#45;&gt;module~type_burgers</title>
<path fill="none" stroke="black" stroke-dasharray="5,2" d="M255.205,-125.19C266.198,-140.937 286.897,-168.621 309,-188 312.236,-190.838 315.816,-193.57 319.476,-196.127"/>
<polygon fill="black" stroke="black" points="317.758,-199.186 328.039,-201.744 321.597,-193.333 317.758,-199.186"/>
</g>
<!-- program~integrate_lorenz -->
<g id="node4" class="node"><title>program~integrate_lorenz</title>
<g id="a_node4"><a xlink:href="../program/integrate_lorenz.html" xlink:title="integrate_lorenz">
<polygon fill="#f0ad4e" stroke="#f0ad4e" points="528.5,-146 438.5,-146 438.5,-122 528.5,-122 528.5,-146"/>
<text text-anchor="middle" x="483.5" y="-131.6" font-family="Helvetica,sans-Serif" font-size="10.50" fill="white">integrate_lorenz</text>
</a>
</g>
</g>
<!-- module~foodie&#45;&gt;program~integrate_lorenz -->
<g id="edge5" class="edge"><title>module~foodie&#45;&gt;program~integrate_lorenz</title>
<path fill="none" stroke="black" stroke-dasharray="5,2" d="M260.445,-125.11C279.053,-140.821 314.456,-167.044 350.5,-174"/>
<path fill="none" stroke="black" stroke-dasharray="5,2" d="M352.5,-174C361.258,-175.69 404.959,-161.453 439.307,-149.499"/>
<polygon fill="black" stroke="black" points="440.884,-152.655 449.163,-146.044 438.568,-146.05 440.884,-152.655"/>
</g>
<!-- module~type_oscillation -->
<g id="node5" class="node"><title>module~type_oscillation</title>
<g id="a_node5"><a xlink:href="../module/type_oscillation.html" xlink:title="type_oscillation">
<polygon fill="#337ab7" stroke="#337ab7" points="394,-104 309,-104 309,-80 394,-80 394,-104"/>
<text text-anchor="middle" x="351.5" y="-89.6" font-family="Helvetica,sans-Serif" font-size="10.50" fill="white">type_oscillation</text>
</a>
</g>
</g>
<!-- module~foodie&#45;&gt;module~type_oscillation -->
<g id="edge6" class="edge"><title>module~foodie&#45;&gt;module~type_oscillation</title>
<path fill="none" stroke="black" stroke-dasharray="5,2" d="M273.117,-107.701C280.949,-106.112 289.829,-104.31 298.71,-102.508"/>
<polygon fill="black" stroke="black" points="299.578,-105.903 308.682,-100.485 298.186,-99.0432 299.578,-105.903"/>
</g>
<!-- module~type_lorenz -->
<g id="node6" class="node"><title>module~type_lorenz</title>
<g id="a_node6"><a xlink:href="../module/type_lorenz.html" xlink:title="type_lorenz">
<polygon fill="#337ab7" stroke="#337ab7" points="385.5,-146 317.5,-146 317.5,-122 385.5,-122 385.5,-146"/>
<text text-anchor="middle" x="351.5" y="-131.6" font-family="Helvetica,sans-Serif" font-size="10.50" fill="white">type_lorenz</text>
</a>
</g>
</g>
<!-- module~foodie&#45;&gt;module~type_lorenz -->
<g id="edge7" class="edge"><title>module~foodie&#45;&gt;module~type_lorenz</title>
<path fill="none" stroke="black" stroke-dasharray="5,2" d="M273.117,-118.299C283.492,-120.404 295.706,-122.882 307.327,-125.24"/>
<polygon fill="black" stroke="black" points="306.829,-128.71 317.325,-127.269 308.221,-121.85 306.829,-128.71"/>
</g>
<!-- program~integrate_burgers -->
<g id="node7" class="node"><title>program~integrate_burgers</title>
<g id="a_node7"><a xlink:href="../program/integrate_burgers.html" xlink:title="integrate_burgers">
<polygon fill="#f0ad4e" stroke="#f0ad4e" points="532,-188 435,-188 435,-164 532,-164 532,-188"/>
<text text-anchor="middle" x="483.5" y="-173.6" font-family="Helvetica,sans-Serif" font-size="10.50" fill="white">integrate_burgers</text>
</a>
</g>
</g>
<!-- module~foodie&#45;&gt;program~integrate_burgers -->
<g id="edge8" class="edge"><title>module~foodie&#45;&gt;program~integrate_burgers</title>
<path fill="none" stroke="black" stroke-dasharray="5,2" d="M352.5,-174C375.852,-178.506 402.003,-179.642 424.693,-179.419"/>
<polygon fill="black" stroke="black" points="424.92,-182.915 434.853,-179.227 424.788,-175.916 424.92,-182.915"/>
</g>
<!-- program~integrate_oscillation -->
<g id="node8" class="node"><title>program~integrate_oscillation</title>
<g id="a_node8"><a xlink:href="../program/integrate_oscillation.html" xlink:title="integrate_oscillation">
<polygon fill="#f0ad4e" stroke="#f0ad4e" points="537,-84 430,-84 430,-60 537,-60 537,-84"/>
<text text-anchor="middle" x="483.5" y="-69.6" font-family="Helvetica,sans-Serif" font-size="10.50" fill="white">integrate_oscillation</text>
</a>
</g>
</g>
<!-- module~foodie&#45;&gt;program~integrate_oscillation -->
<g id="edge9" class="edge"><title>module~foodie&#45;&gt;program~integrate_oscillation</title>
<path fill="none" stroke="black" stroke-dasharray="5,2" d="M260.029,-100.707C271.792,-90.5164 290.108,-76.7966 309,-71 344.492,-60.1101 386.025,-59.9378 419.555,-62.6874"/>
<polygon fill="black" stroke="black" points="419.408,-66.1886 429.688,-63.6258 420.054,-59.2185 419.408,-66.1886"/>
</g>
<!-- module~type_euler_1d -->
<g id="node9" class="node"><title>module~type_euler_1d</title>
<g id="a_node9"><a xlink:href="../module/type_euler_1d.html" xlink:title="type_euler_1D">
<polygon fill="#337ab7" stroke="#337ab7" points="392.5,-24 310.5,-24 310.5,-0 392.5,-0 392.5,-24"/>
<text text-anchor="middle" x="351.5" y="-9.6" font-family="Helvetica,sans-Serif" font-size="10.50" fill="white">type_euler_1D</text>
</a>
</g>
</g>
<!-- module~foodie&#45;&gt;module~type_euler_1d -->
<g id="edge10" class="edge"><title>module~foodie&#45;&gt;module~type_euler_1d</title>
<path fill="none" stroke="black" stroke-dasharray="5,2" d="M255.205,-100.81C266.198,-85.0631 286.897,-57.3794 309,-38 312.236,-35.1624 315.816,-32.4303 319.476,-29.873"/>
<polygon fill="black" stroke="black" points="321.597,-32.6673 328.039,-24.2556 317.758,-26.8142 321.597,-32.6673"/>
</g>
<!-- module~type_burgers&#45;&gt;program~integrate_burgers -->
<g id="edge1" class="edge"><title>module~type_burgers&#45;&gt;program~integrate_burgers</title>
<path fill="none" stroke="black" stroke-dasharray="5,2" d="M389.753,-203.111C402.673,-199.334 417.394,-195.031 431.242,-190.983"/>
<polygon fill="black" stroke="black" points="432.518,-194.257 441.134,-188.092 430.554,-187.538 432.518,-194.257"/>
</g>
<!-- module~type_oscillation&#45;&gt;program~integrate_oscillation -->
<g id="edge2" class="edge"><title>module~type_oscillation&#45;&gt;program~integrate_oscillation</title>
<path fill="none" stroke="black" stroke-dasharray="5,2" d="M394.348,-85.5618C402.457,-84.3142 411.12,-82.9816 419.729,-81.657"/>
<polygon fill="black" stroke="black" points="420.425,-85.0913 429.776,-80.1113 419.36,-78.1727 420.425,-85.0913"/>
</g>
<!-- module~type_lorenz&#45;&gt;program~integrate_lorenz -->
<g id="edge3" class="edge"><title>module~type_lorenz&#45;&gt;program~integrate_lorenz</title>
<path fill="none" stroke="black" stroke-dasharray="5,2" d="M385.641,-134C398.474,-134 413.508,-134 427.852,-134"/>
<polygon fill="black" stroke="black" points="428.134,-137.5 438.133,-134 428.133,-130.5 428.134,-137.5"/>
</g>
</g>
</svg>
