<?xml version="1.0" encoding="UTF-8" standalone="no"?>
<!DOCTYPE svg PUBLIC "-//W3C//DTD SVG 1.1//EN"
 "http://www.w3.org/Graphics/SVG/1.1/DTD/svg11.dtd">
<!-- Generated by graphviz version 2.26.3 (20100126.1600)
 -->
<!-- Title: module~~graph~~ModuleGraph Pages: 1 -->
<svg width="855pt" height="534pt"
 viewBox="0.00 0.00 855.00 534.49" xmlns="http://www.w3.org/2000/svg" xmlns:xlink="http://www.w3.org/1999/xlink">
<g id="graph1" class="graph" transform="scale(0.885093 0.885093) rotate(0) translate(4 599.875)">
<title>module~~graph~~ModuleGraph</title>
<polygon fill="white" stroke="white" points="-4,5 -4,-599.875 963,-599.875 963,5 -4,5"/>
<!-- module~foodie -->
<g id="node1" class="node"><title>module~foodie</title>
<a xlink:href="../module/foodie.html" xlink:title="foodie">
<polygon fill="#337ab7" stroke="#337ab7" points="540,-357.182 486,-357.182 486,-331.182 540,-331.182 540,-357.182"/>
<text text-anchor="middle" x="513" y="-341.732" font-family="Helvetica,sans-Serif" font-size="10.50" fill="white">foodie</text>
</a>
</g>
<!-- module~type_burgers -->
<g id="node5" class="node"><title>module~type_burgers</title>
<a xlink:href="../module/type_burgers.html" xlink:title="type_burgers">
<polygon fill="#337ab7" stroke="#337ab7" points="712,-560.182 636,-560.182 636,-534.182 712,-534.182 712,-560.182"/>
<text text-anchor="middle" x="674" y="-544.732" font-family="Helvetica,sans-Serif" font-size="10.50" fill="white">type_burgers</text>
</a>
</g>
<!-- module~foodie&#45;&gt;module~type_burgers -->
<g id="edge28" class="edge"><title>module~foodie&#45;&gt;module~type_burgers</title>
<path fill="none" stroke="black" stroke-dasharray="5,2" d="M515.994,-357.467C522.669,-384.59 541.011,-447.143 576,-487.182 591.752,-505.208 614.269,-519.517 633.748,-529.635"/>
<polygon fill="black" stroke="black" points="632.225,-532.786 642.735,-534.124 635.353,-526.524 632.225,-532.786"/>
</g>
<!-- module~type_euler_1d -->
<g id="node6" class="node"><title>module~type_euler_1d</title>
<a xlink:href="../module/type_euler_1d.html" xlink:title="type_euler_1D">
<polygon fill="#337ab7" stroke="#337ab7" points="715,-232.182 633,-232.182 633,-206.182 715,-206.182 715,-232.182"/>
<text text-anchor="middle" x="674" y="-216.732" font-family="Helvetica,sans-Serif" font-size="10.50" fill="white">type_euler_1D</text>
</a>
</g>
<!-- module~foodie&#45;&gt;module~type_euler_1d -->
<g id="edge34" class="edge"><title>module~foodie&#45;&gt;module~type_euler_1d</title>
<path fill="none" stroke="black" stroke-dasharray="5,2" d="M517.894,-330.865C526.379,-309.658 545.857,-268.352 576,-246.182 589.657,-236.138 606.864,-229.829 623.033,-225.868"/>
<polygon fill="black" stroke="black" points="623.911,-229.259 632.926,-223.692 622.407,-222.422 623.911,-229.259"/>
</g>
<!-- module~type_euler_1d_openmp -->
<g id="node8" class="node"><title>module~type_euler_1d_openmp</title>
<a xlink:href="../module/type_euler_1d_openmp.html" xlink:title="type_euler_1D_openmp">
<polygon fill="#337ab7" stroke="#337ab7" points="737,-144.182 611,-144.182 611,-118.182 737,-118.182 737,-144.182"/>
<text text-anchor="middle" x="674" y="-128.732" font-family="Helvetica,sans-Serif" font-size="10.50" fill="white">type_euler_1D_openmp</text>
</a>
</g>
<!-- module~foodie&#45;&gt;module~type_euler_1d_openmp -->
<g id="edge44" class="edge"><title>module~foodie&#45;&gt;module~type_euler_1d_openmp</title>
<path fill="none" stroke="black" stroke-dasharray="5,2" d="M515.569,-331.123C523.489,-292.174 548.646,-177.985 576,-153.182 583.095,-146.749 591.656,-142.064 600.728,-138.672"/>
<polygon fill="black" stroke="black" points="601.877,-141.98 610.326,-135.588 599.735,-135.315 601.877,-141.98"/>
</g>
<!-- module~type_oscillation -->
<g id="node11" class="node"><title>module~type_oscillation</title>
<a xlink:href="../module/type_oscillation.html" xlink:title="type_oscillation">
<polygon fill="#337ab7" stroke="#337ab7" points="716,-188.182 632,-188.182 632,-162.182 716,-162.182 716,-188.182"/>
<text text-anchor="middle" x="674" y="-172.732" font-family="Helvetica,sans-Serif" font-size="10.50" fill="white">type_oscillation</text>
</a>
</g>
<!-- module~foodie&#45;&gt;module~type_oscillation -->
<g id="edge54" class="edge"><title>module~foodie&#45;&gt;module~type_oscillation</title>
<path fill="none" stroke="black" stroke-dasharray="5,2" d="M514.659,-330.817C519.008,-301.735 533.504,-232.497 576,-197.182 588.541,-186.76 604.997,-181.016 620.834,-177.924"/>
<polygon fill="black" stroke="black" points="621.797,-181.314 631.105,-176.252 620.672,-174.405 621.797,-181.314"/>
</g>
<!-- module~type_lorenz -->
<g id="node12" class="node"><title>module~type_lorenz</title>
<a xlink:href="../module/type_lorenz.html" xlink:title="type_lorenz">
<polygon fill="#337ab7" stroke="#337ab7" points="708,-478.182 640,-478.182 640,-452.182 708,-452.182 708,-478.182"/>
<text text-anchor="middle" x="674" y="-462.732" font-family="Helvetica,sans-Serif" font-size="10.50" fill="white">type_lorenz</text>
</a>
</g>
<!-- module~foodie&#45;&gt;module~type_lorenz -->
<g id="edge58" class="edge"><title>module~foodie&#45;&gt;module~type_lorenz</title>
<path fill="none" stroke="black" stroke-dasharray="5,2" d="M526.53,-357.22C538.972,-368.961 558.143,-386.433 576,-400.182 597.884,-417.031 624.006,-434.224 643.775,-446.692"/>
<polygon fill="black" stroke="black" points="642.039,-449.735 652.374,-452.07 645.751,-443.8 642.039,-449.735"/>
</g>
<!-- program~integrate_lorenz -->
<g id="node13" class="node"><title>program~integrate_lorenz</title>
<a xlink:href="../program/integrate_lorenz.html" xlink:title="integrate_lorenz">
<polygon fill="#f0ad4e" stroke="#f0ad4e" points="928,-399.182 838,-399.182 838,-373.182 928,-373.182 928,-399.182"/>
<text text-anchor="middle" x="883" y="-383.732" font-family="Helvetica,sans-Serif" font-size="10.50" fill="white">integrate_lorenz</text>
</a>
</g>
<!-- module~foodie&#45;&gt;program~integrate_lorenz -->
<g id="edge64" class="edge"><title>module~foodie&#45;&gt;program~integrate_lorenz</title>
<path fill="none" stroke="black" stroke-dasharray="5,2" d="M674,-386.182C725.867,-392.836 785.573,-391.998 827.854,-389.995"/>
<polygon fill="black" stroke="black" points="828.135,-393.485 837.943,-389.479 827.777,-386.494 828.135,-393.485"/>
</g>
<!-- program~integrate_burgers -->
<g id="node14" class="node"><title>program~integrate_burgers</title>
<a xlink:href="../program/integrate_burgers.html" xlink:title="integrate_burgers">
<polygon fill="#f0ad4e" stroke="#f0ad4e" points="931,-443.182 835,-443.182 835,-417.182 931,-417.182 931,-443.182"/>
<text text-anchor="middle" x="883" y="-427.732" font-family="Helvetica,sans-Serif" font-size="10.50" fill="white">integrate_burgers</text>
</a>
</g>
<!-- module~foodie&#45;&gt;program~integrate_burgers -->
<g id="edge72" class="edge"><title>module~foodie&#45;&gt;program~integrate_burgers</title>
<path fill="none" stroke="black" stroke-dasharray="5,2" d="M674,-386.182C725.306,-392.764 782.756,-405.238 824.419,-415.228"/>
<polygon fill="black" stroke="black" points="823.848,-418.691 834.391,-417.644 825.496,-411.887 823.848,-418.691"/>
</g>
<!-- program~integrate_euler_1d -->
<g id="node15" class="node"><title>program~integrate_euler_1d</title>
<a xlink:href="../program/integrate_euler_1d.html" xlink:title="integrate_euler_1D">
<polygon fill="#f0ad4e" stroke="#f0ad4e" points="935,-355.182 831,-355.182 831,-329.182 935,-329.182 935,-355.182"/>
<text text-anchor="middle" x="883" y="-339.732" font-family="Helvetica,sans-Serif" font-size="10.50" fill="white">integrate_euler_1D</text>
</a>
</g>
<!-- module~foodie&#45;&gt;program~integrate_euler_1d -->
<g id="edge82" class="edge"><title>module~foodie&#45;&gt;program~integrate_euler_1d</title>
<path fill="none" stroke="black" stroke-dasharray="5,2" d="M540.292,-355.217C551.262,-359.37 564.107,-363.881 576,-367.182 618.75,-379.049 629.994,-380.537 674,-386.182"/>
<path fill="none" stroke="black" stroke-dasharray="5,2" d="M674,-386.182C703.283,-389.939 777.001,-371.998 828.545,-357.899"/>
<polygon fill="black" stroke="black" points="829.509,-361.263 838.217,-355.227 827.646,-354.516 829.509,-361.263"/>
</g>
<!-- program~integrate_oscillation -->
<g id="node16" class="node"><title>program~integrate_oscillation</title>
<a xlink:href="../program/integrate_oscillation.html" xlink:title="integrate_oscillation">
<polygon fill="#f0ad4e" stroke="#f0ad4e" points="936,-273.182 830,-273.182 830,-247.182 936,-247.182 936,-273.182"/>
<text text-anchor="middle" x="883" y="-257.732" font-family="Helvetica,sans-Serif" font-size="10.50" fill="white">integrate_oscillation</text>
</a>
</g>
<!-- module~foodie&#45;&gt;program~integrate_oscillation -->
<g id="edge94" class="edge"><title>module~foodie&#45;&gt;program~integrate_oscillation</title>
<path fill="none" stroke="black" stroke-dasharray="5,2" d="M674,-260.182C720.562,-243.551 776.771,-244.625 819.165,-249.268"/>
<polygon fill="black" stroke="black" points="819.012,-252.774 829.356,-250.481 819.84,-245.823 819.012,-252.774"/>
</g>
<!-- program~integrate_euler_1d_openmp -->
<g id="node17" class="node"><title>program~integrate_euler_1d_openmp</title>
<a xlink:href="../program/integrate_euler_1d_openmp.html" xlink:title="integrate_euler_1D_openmp">
<polygon fill="#f0ad4e" stroke="#f0ad4e" points="957,-186.182 809,-186.182 809,-160.182 957,-160.182 957,-186.182"/>
<text text-anchor="middle" x="883" y="-170.732" font-family="Helvetica,sans-Serif" font-size="10.50" fill="white">integrate_euler_1D_openmp</text>
</a>
</g>
<!-- module~foodie&#45;&gt;program~integrate_euler_1d_openmp -->
<g id="edge104" class="edge"><title>module~foodie&#45;&gt;program~integrate_euler_1d_openmp</title>
<path fill="none" stroke="black" stroke-dasharray="5,2" d="M521.791,-331.145C532.67,-316.105 552.645,-291.828 576,-279.182 615.015,-258.057 632.218,-275.105 674,-260.182"/>
<path fill="none" stroke="black" stroke-dasharray="5,2" d="M674,-260.182C715.782,-245.259 730.645,-257.249 772,-241.182 803.475,-228.953 836.021,-207.835 857.666,-192.37"/>
<polygon fill="black" stroke="black" points="859.932,-195.05 865.96,-186.338 855.814,-189.389 859.932,-195.05"/>
</g>
<!-- module~foodie_integrator_euler_explicit -->
<g id="node2" class="node"><title>module~foodie_integrator_euler_explicit</title>
<a xlink:href="../module/foodie_integrator_euler_explicit.html" xlink:title="foodie_integrator_euler_explicit">
<polygon fill="#337ab7" stroke="#337ab7" points="421,-269.182 259,-269.182 259,-243.182 421,-243.182 421,-269.182"/>
<text text-anchor="middle" x="340" y="-253.732" font-family="Helvetica,sans-Serif" font-size="10.50" fill="white">foodie_integrator_euler_explicit</text>
</a>
</g>
<!-- module~foodie_integrator_euler_explicit&#45;&gt;module~foodie -->
<g id="edge4" class="edge"><title>module~foodie_integrator_euler_explicit&#45;&gt;module~foodie</title>
<path fill="none" stroke="black" stroke-dasharray="5,2" d="M421.037,-266.442C431.132,-269.42 441.042,-273.253 450,-278.182 469.606,-288.97 486.759,-307.951 498.195,-322.797"/>
<polygon fill="black" stroke="black" points="495.481,-325.012 504.244,-330.967 501.107,-320.847 495.481,-325.012"/>
</g>
<!-- module~foodie_integrator_adams_bashforth -->
<g id="node3" class="node"><title>module~foodie_integrator_adams_bashforth</title>
<a xlink:href="../module/foodie_integrator_adams_bashforth.html" xlink:title="foodie_integrator_adams_bashforth">
<polygon fill="#337ab7" stroke="#337ab7" points="431,-483.182 249,-483.182 249,-457.182 431,-457.182 431,-483.182"/>
<text text-anchor="middle" x="340" y="-467.732" font-family="Helvetica,sans-Serif" font-size="10.50" fill="white">foodie_integrator_adams_bashforth</text>
</a>
</g>
<!-- module~foodie_integrator_adams_bashforth&#45;&gt;module~foodie -->
<g id="edge2" class="edge"><title>module~foodie_integrator_adams_bashforth&#45;&gt;module~foodie</title>
<path fill="none" stroke="black" stroke-dasharray="5,2" d="M431.644,-458.171C438.135,-455.445 444.34,-452.153 450,-448.182 478.428,-428.238 496.335,-390.983 505.503,-366.899"/>
<polygon fill="black" stroke="black" points="508.803,-368.067 508.903,-357.473 502.218,-365.692 508.803,-368.067"/>
</g>
<!-- module~foodie_integrator_tvd_runge_kutta -->
<g id="node4" class="node"><title>module~foodie_integrator_tvd_runge_kutta</title>
<a xlink:href="../module/foodie_integrator_tvd_runge_kutta.html" xlink:title="foodie_integrator_tvd_runge_kutta">
<polygon fill="#337ab7" stroke="#337ab7" points="428,-439.182 252,-439.182 252,-413.182 428,-413.182 428,-439.182"/>
<text text-anchor="middle" x="340" y="-423.732" font-family="Helvetica,sans-Serif" font-size="10.50" fill="white">foodie_integrator_tvd_runge_kutta</text>
</a>
</g>
<!-- module~foodie_integrator_tvd_runge_kutta&#45;&gt;module~foodie -->
<g id="edge10" class="edge"><title>module~foodie_integrator_tvd_runge_kutta&#45;&gt;module~foodie</title>
<path fill="none" stroke="black" stroke-dasharray="5,2" d="M414.258,-413.108C426.568,-409.502 438.92,-404.939 450,-399.182 466.699,-390.506 482.637,-376.517 494.305,-364.819"/>
<polygon fill="black" stroke="black" points="496.9,-367.17 501.321,-357.541 491.861,-362.311 496.9,-367.17"/>
</g>
<!-- module~type_burgers&#45;&gt;program~integrate_burgers -->
<g id="edge78" class="edge"><title>module~type_burgers&#45;&gt;program~integrate_burgers</title>
<path fill="none" stroke="black" stroke-dasharray="5,2" d="M712.114,-540.514C730.836,-536.297 753.325,-529.788 772,-520.182 807.604,-501.869 842.431,-470.878 863.311,-450.472"/>
<polygon fill="black" stroke="black" points="865.982,-452.752 870.603,-443.218 861.045,-447.789 865.982,-452.752"/>
</g>
<!-- module~type_euler_1d&#45;&gt;program~integrate_euler_1d -->
<g id="edge88" class="edge"><title>module~type_euler_1d&#45;&gt;program~integrate_euler_1d</title>
<path fill="none" stroke="black" stroke-dasharray="5,2" d="M715.44,-225.654C733.651,-229.714 754.765,-236.15 772,-246.182 791.556,-257.565 791.14,-267.091 808,-282.182 823.891,-296.405 842.624,-311.393 857.393,-322.831"/>
<polygon fill="black" stroke="black" points="855.517,-325.803 865.579,-329.122 859.783,-320.253 855.517,-325.803"/>
</g>
<!-- module~foodie_integrator_low_storage_runge_kutta -->
<g id="node7" class="node"><title>module~foodie_integrator_low_storage_runge_kutta</title>
<a xlink:href="../module/foodie_integrator_low_storage_runge_kutta.html" xlink:title="foodie_integrator_low_storage_runge_kutta">
<polygon fill="#337ab7" stroke="#337ab7" points="450,-357.182 230,-357.182 230,-331.182 450,-331.182 450,-357.182"/>
<text text-anchor="middle" x="340" y="-341.732" font-family="Helvetica,sans-Serif" font-size="10.50" fill="white">foodie_integrator_low_storage_runge_kutta</text>
</a>
</g>
<!-- module~foodie_integrator_low_storage_runge_kutta&#45;&gt;module~foodie -->
<g id="edge8" class="edge"><title>module~foodie_integrator_low_storage_runge_kutta&#45;&gt;module~foodie</title>
<path fill="none" stroke="black" stroke-dasharray="5,2" d="M450.054,-344.182C459.125,-344.182 467.822,-344.182 475.703,-344.182"/>
<polygon fill="black" stroke="black" points="475.902,-347.682 485.902,-344.182 475.902,-340.682 475.902,-347.682"/>
</g>
<!-- module~type_euler_1d_openmp&#45;&gt;program~integrate_euler_1d_openmp -->
<g id="edge108" class="edge"><title>module~type_euler_1d_openmp&#45;&gt;program~integrate_euler_1d_openmp</title>
<path fill="none" stroke="black" stroke-dasharray="5,2" d="M737.558,-143.954C759.841,-148.432 785.074,-153.503 808.193,-158.149"/>
<polygon fill="black" stroke="black" points="807.807,-161.641 818.301,-160.18 809.186,-154.779 807.807,-161.641"/>
</g>
<!-- module~type_integrand -->
<g id="node9" class="node"><title>module~type_integrand</title>
<a xlink:href="../module/type_integrand.html" xlink:title="type_integrand">
<polygon fill="#337ab7" stroke="#337ab7" points="194,-377.182 110,-377.182 110,-351.182 194,-351.182 194,-377.182"/>
<text text-anchor="middle" x="152" y="-361.732" font-family="Helvetica,sans-Serif" font-size="10.50" fill="white">type_integrand</text>
</a>
</g>
<!-- module~type_integrand&#45;&gt;module~foodie -->
<g id="edge12" class="edge"><title>module~type_integrand&#45;&gt;module~foodie</title>
<path fill="none" stroke="black" stroke-dasharray="5,2" d="M194.32,-369.058C252.429,-374.714 359.969,-381.45 450,-366.182 458.702,-364.706 467.805,-362.16 476.298,-359.312"/>
<polygon fill="black" stroke="black" points="477.687,-362.533 485.929,-355.875 475.335,-355.94 477.687,-362.533"/>
</g>
<!-- module~type_integrand&#45;&gt;module~foodie_integrator_euler_explicit -->
<g id="edge14" class="edge"><title>module~type_integrand&#45;&gt;module~foodie_integrator_euler_explicit</title>
<path fill="none" stroke="black" stroke-dasharray="5,2" d="M159.989,-350.996C172.412,-331.716 198.262,-296.176 230,-278.182 235.976,-274.794 242.394,-271.922 249.018,-269.488"/>
<polygon fill="black" stroke="black" points="250.455,-272.699 258.843,-266.226 248.249,-266.055 250.455,-272.699"/>
</g>
<!-- module~type_integrand&#45;&gt;module~foodie_integrator_adams_bashforth -->
<g id="edge18" class="edge"><title>module~type_integrand&#45;&gt;module~foodie_integrator_adams_bashforth</title>
<path fill="none" stroke="black" stroke-dasharray="5,2" d="M160.275,-377.373C172.874,-396.272 198.735,-430.698 230,-448.182 233.439,-450.105 237.022,-451.862 240.705,-453.467"/>
<polygon fill="black" stroke="black" points="239.45,-456.735 250.037,-457.15 242.02,-450.223 239.45,-456.735"/>
</g>
<!-- module~type_integrand&#45;&gt;module~foodie_integrator_tvd_runge_kutta -->
<g id="edge22" class="edge"><title>module~type_integrand&#45;&gt;module~foodie_integrator_tvd_runge_kutta</title>
<path fill="none" stroke="black" stroke-dasharray="5,2" d="M177.878,-377.217C192.839,-384.39 212.175,-393.052 230,-399.182 242.299,-403.412 255.585,-407.258 268.528,-410.637"/>
<polygon fill="black" stroke="black" points="267.782,-414.059 278.336,-413.128 269.506,-407.274 267.782,-414.059"/>
</g>
<!-- module~type_integrand&#45;&gt;module~foodie_integrator_low_storage_runge_kutta -->
<g id="edge36" class="edge"><title>module~type_integrand&#45;&gt;module~foodie_integrator_low_storage_runge_kutta</title>
<path fill="none" stroke="black" stroke-dasharray="5,2" d="M194.191,-359.694C202.057,-358.857 210.626,-357.945 219.541,-356.997"/>
<polygon fill="black" stroke="black" points="220.161,-360.451 229.735,-355.912 219.421,-353.49 220.161,-360.451"/>
</g>
<!-- module~foodie_integrator_leapfrog -->
<g id="node10" class="node"><title>module~foodie_integrator_leapfrog</title>
<a xlink:href="../module/foodie_integrator_leapfrog.html" xlink:title="foodie_integrator_leapfrog">
<polygon fill="#337ab7" stroke="#337ab7" points="409,-313.182 271,-313.182 271,-287.182 409,-287.182 409,-313.182"/>
<text text-anchor="middle" x="340" y="-297.732" font-family="Helvetica,sans-Serif" font-size="10.50" fill="white">foodie_integrator_leapfrog</text>
</a>
</g>
<!-- module~type_integrand&#45;&gt;module~foodie_integrator_leapfrog -->
<g id="edge48" class="edge"><title>module~type_integrand&#45;&gt;module~foodie_integrator_leapfrog</title>
<path fill="none" stroke="black" stroke-dasharray="5,2" d="M172.403,-351.016C187.701,-341.695 209.452,-329.582 230,-322.182 239.72,-318.682 250.135,-315.687 260.539,-313.139"/>
<polygon fill="black" stroke="black" points="261.538,-316.501 270.489,-310.832 259.956,-309.682 261.538,-316.501"/>
</g>
<!-- module~foodie_integrator_leapfrog&#45;&gt;module~foodie -->
<g id="edge6" class="edge"><title>module~foodie_integrator_leapfrog&#45;&gt;module~foodie</title>
<path fill="none" stroke="black" stroke-dasharray="5,2" d="M409.584,-312.58C423.071,-315.41 437.037,-318.641 450,-322.182 458.688,-324.556 467.91,-327.516 476.539,-330.489"/>
<polygon fill="black" stroke="black" points="475.375,-333.79 485.97,-333.819 477.706,-327.189 475.375,-333.79"/>
</g>
<!-- module~type_oscillation&#45;&gt;program~integrate_oscillation -->
<g id="edge92" class="edge"><title>module~type_oscillation&#45;&gt;program~integrate_oscillation</title>
<path fill="none" stroke="black" stroke-dasharray="5,2" d="M716.776,-181.937C734.245,-185.422 754.432,-190.398 772,-197.182 801.976,-208.758 833.611,-227.436 855.405,-241.454"/>
<polygon fill="black" stroke="black" points="853.537,-244.414 863.823,-246.953 857.365,-238.554 853.537,-244.414"/>
</g>
<!-- module~type_lorenz&#45;&gt;program~integrate_lorenz -->
<g id="edge62" class="edge"><title>module~type_lorenz&#45;&gt;program~integrate_lorenz</title>
<path fill="none" stroke="black" stroke-dasharray="5,2" d="M708.444,-459.435C727.865,-455.293 752.139,-448.567 772,-438.182 790.456,-428.531 789.624,-417.985 808,-408.182 814.338,-404.801 821.262,-401.878 828.258,-399.367"/>
<polygon fill="black" stroke="black" points="829.411,-402.672 837.795,-396.196 827.202,-396.03 829.411,-402.672"/>
</g>
<!-- IR_Precision -->
<g id="node25" class="node"><title>IR_Precision</title>
<polygon fill="#337ab7" stroke="#337ab7" points="73,-377.182 1,-377.182 1,-351.182 73,-351.182 73,-377.182"/>
<text text-anchor="middle" x="37" y="-361.732" font-family="Helvetica,sans-Serif" font-size="10.50" fill="white">IR_Precision</text>
</g>
<!-- IR_Precision&#45;&gt;module~foodie_integrator_euler_explicit -->
<g id="edge16" class="edge"><title>IR_Precision&#45;&gt;module~foodie_integrator_euler_explicit</title>
<path fill="none" stroke="black" stroke-dasharray="5,2" d="M152,-256.182C182.505,-246.181 217.32,-243.865 248.631,-244.805"/>
<polygon fill="black" stroke="black" points="248.529,-248.304 258.664,-245.219 248.817,-241.31 248.529,-248.304"/>
</g>
<!-- IR_Precision&#45;&gt;module~foodie_integrator_adams_bashforth -->
<g id="edge20" class="edge"><title>IR_Precision&#45;&gt;module~foodie_integrator_adams_bashforth</title>
<path fill="none" stroke="black" stroke-dasharray="5,2" d="M152,-511.182C158.039,-513.343 224.512,-498.15 276.723,-485.651"/>
<polygon fill="black" stroke="black" points="277.715,-489.012 286.621,-483.273 276.08,-482.206 277.715,-489.012"/>
</g>
<!-- IR_Precision&#45;&gt;module~foodie_integrator_tvd_runge_kutta -->
<g id="edge24" class="edge"><title>IR_Precision&#45;&gt;module~foodie_integrator_tvd_runge_kutta</title>
<path fill="none" stroke="black" stroke-dasharray="5,2" d="M41.7827,-377.626C54.0439,-409.574 90.0669,-489.025 152,-511.182"/>
<path fill="none" stroke="black" stroke-dasharray="5,2" d="M152,-511.182C193.958,-526.193 189.652,-467.098 230,-448.182 234.567,-446.041 239.335,-444.108 244.218,-442.363"/>
<polygon fill="black" stroke="black" points="245.322,-445.684 253.726,-439.233 243.133,-439.035 245.322,-445.684"/>
</g>
<!-- IR_Precision&#45;&gt;module~type_burgers -->
<g id="edge26" class="edge"><title>IR_Precision&#45;&gt;module~type_burgers</title>
<path fill="none" stroke="black" stroke-dasharray="5,2" d="M513,-507.182C524.355,-507.015 582.826,-522.236 626.049,-533.948"/>
<polygon fill="black" stroke="black" points="625.275,-537.364 635.843,-536.612 627.112,-530.61 625.275,-537.364"/>
</g>
<!-- IR_Precision&#45;&gt;module~type_euler_1d -->
<g id="edge32" class="edge"><title>IR_Precision&#45;&gt;module~type_euler_1d</title>
<path fill="none" stroke="black" stroke-dasharray="5,2" d="M513,-217.182C549.61,-215.129 590.972,-215.705 622.605,-216.755"/>
<polygon fill="black" stroke="black" points="622.82,-220.265 632.939,-217.126 623.071,-213.269 622.82,-220.265"/>
</g>
<!-- IR_Precision&#45;&gt;module~foodie_integrator_low_storage_runge_kutta -->
<g id="edge38" class="edge"><title>IR_Precision&#45;&gt;module~foodie_integrator_low_storage_runge_kutta</title>
<path fill="none" stroke="black" stroke-dasharray="5,2" d="M152,-256.182C195.152,-242.035 189.106,-302.437 230,-322.182 234.321,-324.269 238.83,-326.157 243.45,-327.867"/>
<polygon fill="black" stroke="black" points="242.47,-331.23 253.064,-331.131 244.72,-324.602 242.47,-331.23"/>
</g>
<!-- IR_Precision&#45;&gt;module~type_euler_1d_openmp -->
<g id="edge42" class="edge"><title>IR_Precision&#45;&gt;module~type_euler_1d_openmp</title>
<path fill="none" stroke="black" stroke-dasharray="5,2" d="M513,-90.182C515.543,-89.2387 570.711,-103.567 615.767,-115.541"/>
<polygon fill="black" stroke="black" points="614.933,-118.941 625.497,-118.132 616.734,-112.177 614.933,-118.941"/>
</g>
<!-- IR_Precision&#45;&gt;module~type_integrand -->
<g id="edge46" class="edge"><title>IR_Precision&#45;&gt;module~type_integrand</title>
<path fill="none" stroke="black" stroke-dasharray="5,2" d="M73.7029,-364.182C81.9237,-364.182 90.8,-364.182 99.521,-364.182"/>
<polygon fill="black" stroke="black" points="99.6389,-367.682 109.639,-364.182 99.6388,-360.682 99.6389,-367.682"/>
</g>
<!-- IR_Precision&#45;&gt;module~foodie_integrator_leapfrog -->
<g id="edge50" class="edge"><title>IR_Precision&#45;&gt;module~foodie_integrator_leapfrog</title>
<path fill="none" stroke="black" stroke-dasharray="5,2" d="M152,-256.182C186.227,-244.961 194.981,-269.755 230,-278.182 239.901,-280.565 250.346,-282.892 260.701,-285.087"/>
<polygon fill="black" stroke="black" points="260.076,-288.531 270.58,-287.148 261.506,-281.679 260.076,-288.531"/>
</g>
<!-- IR_Precision&#45;&gt;module~type_oscillation -->
<g id="edge52" class="edge"><title>IR_Precision&#45;&gt;module~type_oscillation</title>
<path fill="none" stroke="black" stroke-dasharray="5,2" d="M340,-215.182C413.939,-194.069 436.227,-221.487 513,-217.182"/>
<path fill="none" stroke="black" stroke-dasharray="5,2" d="M513,-217.182C542.331,-215.537 547.642,-204.851 576,-197.182 590.634,-193.225 606.631,-189.418 621.377,-186.116"/>
<polygon fill="black" stroke="black" points="622.343,-189.487 631.354,-183.915 620.835,-182.651 622.343,-189.487"/>
</g>
<!-- IR_Precision&#45;&gt;module~type_lorenz -->
<g id="edge56" class="edge"><title>IR_Precision&#45;&gt;module~type_lorenz</title>
<path fill="none" stroke="black" stroke-dasharray="5,2" d="M513,-507.182C518.97,-507.094 584.407,-489.595 629.994,-477.215"/>
<polygon fill="black" stroke="black" points="630.945,-480.583 639.676,-474.581 629.108,-473.828 630.945,-480.583"/>
</g>
<!-- IR_Precision&#45;&gt;program~integrate_lorenz -->
<g id="edge66" class="edge"><title>IR_Precision&#45;&gt;program~integrate_lorenz</title>
<path fill="none" stroke="black" stroke-dasharray="5,2" d="M513,-507.182C628.441,-505.489 677.378,-553.335 772,-487.182 803.623,-465.074 778.846,-433.458 808,-408.182 813.911,-403.057 820.964,-399.125 828.345,-396.107"/>
<polygon fill="black" stroke="black" points="829.55,-399.394 837.807,-392.755 827.212,-392.796 829.55,-399.394"/>
</g>
<!-- IR_Precision&#45;&gt;program~integrate_burgers -->
<g id="edge74" class="edge"><title>IR_Precision&#45;&gt;program~integrate_burgers</title>
<path fill="none" stroke="black" stroke-dasharray="5,2" d="M513,-507.182C552.231,-505.127 539.646,-554.294 576,-569.182 656.613,-602.196 693.503,-606.952 772,-569.182 822.439,-544.912 857.097,-485.332 873.037,-452.607"/>
<polygon fill="black" stroke="black" points="876.287,-453.92 877.379,-443.382 869.953,-450.939 876.287,-453.92"/>
</g>
<!-- IR_Precision&#45;&gt;program~integrate_euler_1d -->
<g id="edge84" class="edge"><title>IR_Precision&#45;&gt;program~integrate_euler_1d</title>
<path fill="none" stroke="black" stroke-dasharray="5,2" d="M152,-511.182C303.077,-565.231 352.566,-509.734 513,-507.182"/>
<path fill="none" stroke="black" stroke-dasharray="5,2" d="M513,-507.182C552.863,-505.169 541.061,-462.479 576,-443.182 654.067,-400.064 693.764,-442.992 772,-400.182 791.85,-389.32 788.539,-375.725 808,-364.182 812.158,-361.716 816.611,-359.51 821.196,-357.54"/>
<polygon fill="black" stroke="black" points="822.697,-360.712 830.743,-353.819 820.154,-354.19 822.697,-360.712"/>
</g>
<!-- IR_Precision&#45;&gt;program~integrate_oscillation -->
<g id="edge96" class="edge"><title>IR_Precision&#45;&gt;program~integrate_oscillation</title>
<path fill="none" stroke="black" stroke-dasharray="5,2" d="M513,-90.182C567.108,-70.1122 725.158,-75.4725 772,-109.182 805.632,-133.385 783.703,-161.617 808,-195.182 820.872,-212.965 839.509,-229.147 854.983,-240.917"/>
<polygon fill="black" stroke="black" points="853.075,-243.858 863.198,-246.984 857.234,-238.228 853.075,-243.858"/>
</g>
<!-- IR_Precision&#45;&gt;program~integrate_euler_1d_openmp -->
<g id="edge100" class="edge"><title>IR_Precision&#45;&gt;program~integrate_euler_1d_openmp</title>
<path fill="none" stroke="black" stroke-dasharray="5,2" d="M45.084,-351.159C61.5012,-326.222 101.509,-272.735 152,-256.182"/>
<path fill="none" stroke="black" stroke-dasharray="5,2" d="M152,-256.182C186.227,-244.961 194.872,-242.147 230,-234.182 278.385,-223.211 292.294,-228.804 340,-215.182"/>
<path fill="none" stroke="black" stroke-dasharray="5,2" d="M340,-215.182C431.214,-189.137 423.96,-122.897 513,-90.182"/>
<path fill="none" stroke="black" stroke-dasharray="5,2" d="M513,-90.182C550.169,-76.5257 539.416,-42.3355 576,-27.182 656.48,6.15398 693.958,11.5202 772,-27.182 824.186,-53.0617 858.471,-116.512 873.79,-150.62"/>
<polygon fill="black" stroke="black" points="870.58,-152.016 877.771,-159.798 877.002,-149.231 870.58,-152.016"/>
</g>
<!-- wenoof -->
<g id="node33" class="node"><title>wenoof</title>
<polygon fill="#337ab7" stroke="#337ab7" points="540,-166.182 486,-166.182 486,-140.182 540,-140.182 540,-166.182"/>
<text text-anchor="middle" x="513" y="-150.732" font-family="Helvetica,sans-Serif" font-size="10.50" fill="white">wenoof</text>
</g>
<!-- wenoof&#45;&gt;module~type_euler_1d -->
<g id="edge30" class="edge"><title>wenoof&#45;&gt;module~type_euler_1d</title>
<path fill="none" stroke="black" stroke-dasharray="5,2" d="M528.027,-166.22C540.193,-176.118 558.177,-189.324 576,-197.182 590.659,-203.645 607.419,-208.303 622.883,-211.618"/>
<polygon fill="black" stroke="black" points="622.33,-215.077 632.823,-213.609 623.705,-208.213 622.33,-215.077"/>
</g>
<!-- wenoof&#45;&gt;module~type_euler_1d_openmp -->
<g id="edge40" class="edge"><title>wenoof&#45;&gt;module~type_euler_1d_openmp</title>
<path fill="none" stroke="black" stroke-dasharray="5,2" d="M540.311,-149.45C556.886,-147.185 578.904,-144.176 600.281,-141.255"/>
<polygon fill="black" stroke="black" points="600.931,-144.699 610.365,-139.877 599.983,-137.764 600.931,-144.699"/>
</g>
<!-- pyplot_module -->
<g id="node49" class="node"><title>pyplot_module</title>
<polygon fill="#337ab7" stroke="#337ab7" points="715,-314.182 633,-314.182 633,-288.182 715,-288.182 715,-314.182"/>
<text text-anchor="middle" x="674" y="-298.732" font-family="Helvetica,sans-Serif" font-size="10.50" fill="white">pyplot_module</text>
</g>
<!-- pyplot_module&#45;&gt;program~integrate_lorenz -->
<g id="edge60" class="edge"><title>pyplot_module&#45;&gt;program~integrate_lorenz</title>
<path fill="none" stroke="black" stroke-dasharray="5,2" d="M715.227,-304.616C733.601,-307.566 754.905,-313.038 772,-323.182 792.855,-335.557 787.555,-351.141 808,-364.182 814.214,-368.145 821.166,-371.417 828.265,-374.113"/>
<polygon fill="black" stroke="black" points="827.385,-377.511 837.98,-377.442 829.655,-370.889 827.385,-377.511"/>
</g>
<!-- pyplot_module&#45;&gt;program~integrate_burgers -->
<g id="edge76" class="edge"><title>pyplot_module&#45;&gt;program~integrate_burgers</title>
<path fill="none" stroke="black" stroke-dasharray="5,2" d="M715.448,-302.034C734.521,-304.39 756.337,-310.109 772,-323.182 803.497,-349.47 777.367,-380.892 808,-408.182 812.854,-412.506 818.517,-415.982 824.518,-418.776"/>
<polygon fill="black" stroke="black" points="823.571,-422.167 834.156,-422.63 826.17,-415.668 823.571,-422.167"/>
</g>
<!-- pyplot_module&#45;&gt;program~integrate_euler_1d -->
<g id="edge86" class="edge"><title>pyplot_module&#45;&gt;program~integrate_euler_1d</title>
<path fill="none" stroke="black" stroke-dasharray="5,2" d="M715.292,-309.282C745.392,-315.187 786.7,-323.291 820.787,-329.977"/>
<polygon fill="black" stroke="black" points="820.166,-333.422 830.652,-331.913 821.513,-326.553 820.166,-333.422"/>
</g>
<!-- pyplot_module&#45;&gt;program~integrate_oscillation -->
<g id="edge90" class="edge"><title>pyplot_module&#45;&gt;program~integrate_oscillation</title>
<path fill="none" stroke="black" stroke-dasharray="5,2" d="M715.292,-293.082C744.939,-287.266 785.46,-279.317 819.244,-272.689"/>
<polygon fill="black" stroke="black" points="820.354,-276.038 829.493,-270.679 819.006,-269.169 820.354,-276.038"/>
</g>
<!-- pyplot_module&#45;&gt;program~integrate_euler_1d_openmp -->
<g id="edge106" class="edge"><title>pyplot_module&#45;&gt;program~integrate_euler_1d_openmp</title>
<path fill="none" stroke="black" stroke-dasharray="5,2" d="M715.44,-294.71C733.651,-290.65 754.765,-284.214 772,-274.182 791.556,-262.799 791.44,-253.601 808,-238.182 824.811,-222.529 844.452,-205.552 859.417,-192.874"/>
<polygon fill="black" stroke="black" points="861.813,-195.432 867.202,-186.309 857.301,-190.08 861.813,-195.432"/>
</g>
<!-- Data_Type_Command_Line_Interface -->
<g id="node54" class="node"><title>Data_Type_Command_Line_Interface</title>
<polygon fill="#337ab7" stroke="#337ab7" points="771,-358.182 577,-358.182 577,-332.182 771,-332.182 771,-358.182"/>
<text text-anchor="middle" x="674" y="-342.732" font-family="Helvetica,sans-Serif" font-size="10.50" fill="white">Data_Type_Command_Line_Interface</text>
</g>
<!-- Data_Type_Command_Line_Interface&#45;&gt;program~integrate_lorenz -->
<g id="edge68" class="edge"><title>Data_Type_Command_Line_Interface&#45;&gt;program~integrate_lorenz</title>
<path fill="none" stroke="black" stroke-dasharray="5,2" d="M740.416,-358.211C768.609,-363.742 801.086,-370.113 827.916,-375.376"/>
<polygon fill="black" stroke="black" points="827.416,-378.845 837.902,-377.335 828.763,-371.975 827.416,-378.845"/>
</g>
<!-- Data_Type_Command_Line_Interface&#45;&gt;program~integrate_burgers -->
<g id="edge70" class="edge"><title>Data_Type_Command_Line_Interface&#45;&gt;program~integrate_burgers</title>
<path fill="none" stroke="black" stroke-dasharray="5,2" d="M739.699,-358.207C750.889,-361.831 762.086,-366.412 772,-372.182 791.556,-383.565 788.539,-396.639 808,-408.182 813.159,-411.242 818.772,-413.901 824.529,-416.207"/>
<polygon fill="black" stroke="black" points="823.705,-419.631 834.299,-419.761 826.099,-413.053 823.705,-419.631"/>
</g>
<!-- Data_Type_Command_Line_Interface&#45;&gt;program~integrate_euler_1d -->
<g id="edge80" class="edge"><title>Data_Type_Command_Line_Interface&#45;&gt;program~integrate_euler_1d</title>
<path fill="none" stroke="black" stroke-dasharray="5,2" d="M771.769,-343.779C788.342,-343.541 805.142,-343.3 820.492,-343.079"/>
<polygon fill="black" stroke="black" points="820.918,-346.574 830.867,-342.93 820.818,-339.574 820.918,-346.574"/>
</g>
<!-- Data_Type_Command_Line_Interface&#45;&gt;program~integrate_oscillation -->
<g id="edge98" class="edge"><title>Data_Type_Command_Line_Interface&#45;&gt;program~integrate_oscillation</title>
<path fill="none" stroke="black" stroke-dasharray="5,2" d="M743.827,-332.182C753.428,-329.623 763.053,-326.637 772,-323.182 801.976,-311.606 833.611,-292.928 855.405,-278.91"/>
<polygon fill="black" stroke="black" points="857.365,-281.81 863.823,-273.411 853.537,-275.95 857.365,-281.81"/>
</g>
<!-- Data_Type_Command_Line_Interface&#45;&gt;program~integrate_euler_1d_openmp -->
<g id="edge102" class="edge"><title>Data_Type_Command_Line_Interface&#45;&gt;program~integrate_euler_1d_openmp</title>
<path fill="none" stroke="black" stroke-dasharray="5,2" d="M758.419,-332.099C763.268,-329.593 767.85,-326.646 772,-323.182 803.497,-296.894 783.874,-271.365 808,-238.182 820.91,-220.426 839.546,-204.244 855.011,-192.468"/>
<polygon fill="black" stroke="black" points="857.262,-195.157 863.22,-186.396 853.099,-189.529 857.262,-195.157"/>
</g>
<!-- omp_lib -->
<g id="node76" class="node"><title>omp_lib</title>
<a xlink:href="https://gcc.gnu.org/onlinedocs/gcc-4.4.3/libgomp/Runtime-Library-Routines.html" xlink:title="omp_lib">
<polygon fill="#337ab7" stroke="#337ab7" points="701,-62.182 647,-62.182 647,-36.182 701,-36.182 701,-62.182"/>
<text text-anchor="middle" x="674" y="-46.732" font-family="Helvetica,sans-Serif" font-size="10.50" fill="white">omp_lib</text>
</a>
</g>
<!-- omp_lib&#45;&gt;program~integrate_euler_1d_openmp -->
<g id="edge110" class="edge"><title>omp_lib&#45;&gt;program~integrate_euler_1d_openmp</title>
<path fill="none" stroke="black" stroke-dasharray="5,2" d="M701.009,-53.2511C721.409,-57.1052 749.62,-64.1433 772,-76.182 809.135,-96.1576 844.45,-130.601 864.904,-152.615"/>
<polygon fill="black" stroke="black" points="862.418,-155.083 871.743,-160.113 867.59,-150.366 862.418,-155.083"/>
</g>
</g>
</svg>
