<?xml version="1.0" encoding="UTF-8" standalone="no"?>
<!DOCTYPE svg PUBLIC "-//W3C//DTD SVG 1.1//EN"
 "http://www.w3.org/Graphics/SVG/1.1/DTD/svg11.dtd">
<!-- Generated by graphviz version 2.26.3 (20100126.1600)
 -->
<!-- Title: module~~foodie_integrator_euler_explicit~~UsedByGraph Pages: 1 -->
<svg width="526pt" height="266pt"
 viewBox="0.00 0.00 526.00 265.79" xmlns="http://www.w3.org/2000/svg" xmlns:xlink="http://www.w3.org/1999/xlink">
<g id="graph1" class="graph" transform="scale(1 1) rotate(0) translate(4 261.791)">
<title>module~~foodie_integrator_euler_explicit~~UsedByGraph</title>
<polygon fill="white" stroke="white" points="-4,5 -4,-261.791 523,-261.791 523,5 -4,5"/>
<!-- module~foodie_integrator_euler_explicit -->
<g id="node1" class="node"><title>module~foodie_integrator_euler_explicit</title>
<polygon fill="none" stroke="black" points="162,-131.791 8.52651e-14,-131.791 0,-105.791 162,-105.791 162,-131.791"/>
<text text-anchor="middle" x="81" y="-116.341" font-family="Helvetica,sans-Serif" font-size="10.50">foodie_integrator_euler_explicit</text>
</g>
<!-- module~foodie -->
<g id="node2" class="node"><title>module~foodie</title>
<a xlink:href="../module/foodie.html" xlink:title="foodie">
<polygon fill="#337ab7" stroke="#337ab7" points="252,-131.791 198,-131.791 198,-105.791 252,-105.791 252,-131.791"/>
<text text-anchor="middle" x="225" y="-116.341" font-family="Helvetica,sans-Serif" font-size="10.50" fill="white">foodie</text>
</a>
</g>
<!-- module~foodie_integrator_euler_explicit&#45;&gt;module~foodie -->
<g id="edge26" class="edge"><title>module~foodie_integrator_euler_explicit&#45;&gt;module~foodie</title>
<path fill="none" stroke="black" stroke-dasharray="5,2" d="M162.258,-118.791C171.03,-118.791 179.616,-118.791 187.482,-118.791"/>
<polygon fill="black" stroke="black" points="187.714,-122.291 197.714,-118.791 187.714,-115.291 187.714,-122.291"/>
</g>
<!-- module~type_oscillation -->
<g id="node3" class="node"><title>module~type_oscillation</title>
<a xlink:href="../module/type_oscillation.html" xlink:title="type_oscillation">
<polygon fill="#337ab7" stroke="#337ab7" points="373,-257.791 289,-257.791 289,-231.791 373,-231.791 373,-257.791"/>
<text text-anchor="middle" x="331" y="-242.341" font-family="Helvetica,sans-Serif" font-size="10.50" fill="white">type_oscillation</text>
</a>
</g>
<!-- module~foodie&#45;&gt;module~type_oscillation -->
<g id="edge10" class="edge"><title>module~foodie&#45;&gt;module~type_oscillation</title>
<path fill="none" stroke="black" stroke-dasharray="5,2" d="M230.997,-131.938C240.727,-152.212 261.558,-191.508 288,-217.791 290.872,-220.645 294.098,-223.345 297.458,-225.853"/>
<polygon fill="black" stroke="black" points="295.733,-228.914 305.963,-231.673 299.687,-223.137 295.733,-228.914"/>
</g>
<!-- program~integrate_lorenz -->
<g id="node4" class="node"><title>program~integrate_lorenz</title>
<a xlink:href="../program/integrate_lorenz.html" xlink:title="integrate_lorenz">
<polygon fill="#f0ad4e" stroke="#f0ad4e" points="509,-175.791 419,-175.791 419,-149.791 509,-149.791 509,-175.791"/>
<text text-anchor="middle" x="464" y="-160.341" font-family="Helvetica,sans-Serif" font-size="10.50" fill="white">integrate_lorenz</text>
</a>
</g>
<!-- module~foodie&#45;&gt;program~integrate_lorenz -->
<g id="edge12" class="edge"><title>module~foodie&#45;&gt;program~integrate_lorenz</title>
<path fill="none" stroke="black" stroke-dasharray="5,2" d="M234.906,-131.923C246.381,-146.412 266.483,-169.676 288,-184.791 305.097,-196.8 310.847,-198.278 331,-203.791"/>
<path fill="none" stroke="black" stroke-dasharray="5,2" d="M331,-203.791C339.734,-206.18 383.844,-191.712 418.905,-179.31"/>
<polygon fill="black" stroke="black" points="420.274,-182.538 428.517,-175.883 417.923,-175.945 420.274,-182.538"/>
</g>
<!-- module~type_euler_1d -->
<g id="node5" class="node"><title>module~type_euler_1d</title>
<a xlink:href="../module/type_euler_1d.html" xlink:title="type_euler_1D">
<polygon fill="#337ab7" stroke="#337ab7" points="372,-131.791 290,-131.791 290,-105.791 372,-105.791 372,-131.791"/>
<text text-anchor="middle" x="331" y="-116.341" font-family="Helvetica,sans-Serif" font-size="10.50" fill="white">type_euler_1D</text>
</a>
</g>
<!-- module~foodie&#45;&gt;module~type_euler_1d -->
<g id="edge14" class="edge"><title>module~foodie&#45;&gt;module~type_euler_1d</title>
<path fill="none" stroke="black" stroke-dasharray="5,2" d="M252.023,-118.791C260.401,-118.791 269.93,-118.791 279.4,-118.791"/>
<polygon fill="black" stroke="black" points="279.594,-122.291 289.594,-118.791 279.594,-115.291 279.594,-122.291"/>
</g>
<!-- module~type_burgers -->
<g id="node6" class="node"><title>module~type_burgers</title>
<a xlink:href="../module/type_burgers.html" xlink:title="type_burgers">
<polygon fill="#337ab7" stroke="#337ab7" points="369,-49.7905 293,-49.7905 293,-23.7905 369,-23.7905 369,-49.7905"/>
<text text-anchor="middle" x="331" y="-34.3405" font-family="Helvetica,sans-Serif" font-size="10.50" fill="white">type_burgers</text>
</a>
</g>
<!-- module~foodie&#45;&gt;module~type_burgers -->
<g id="edge16" class="edge"><title>module~foodie&#45;&gt;module~type_burgers</title>
<path fill="none" stroke="black" stroke-dasharray="5,2" d="M238.975,-105.453C251.399,-93.877 270.288,-76.9558 288,-63.7905 291.865,-60.918 296.038,-58.0421 300.212,-55.2949"/>
<polygon fill="black" stroke="black" points="302.142,-58.2148 308.682,-49.8793 298.372,-52.3171 302.142,-58.2148"/>
</g>
<!-- program~integrate_burgers -->
<g id="node7" class="node"><title>program~integrate_burgers</title>
<a xlink:href="../program/integrate_burgers.html" xlink:title="integrate_burgers">
<polygon fill="#f0ad4e" stroke="#f0ad4e" points="512,-38.7905 416,-38.7905 416,-12.7905 512,-12.7905 512,-38.7905"/>
<text text-anchor="middle" x="464" y="-23.3405" font-family="Helvetica,sans-Serif" font-size="10.50" fill="white">integrate_burgers</text>
</a>
</g>
<!-- module~foodie&#45;&gt;program~integrate_burgers -->
<g id="edge18" class="edge"><title>module~foodie&#45;&gt;program~integrate_burgers</title>
<path fill="none" stroke="black" stroke-dasharray="5,2" d="M228.435,-105.543C235.279,-82.2296 253.055,-34.4783 288,-14.7905 327.788,7.62623 380.966,0.183857 418.419,-9.93135"/>
<polygon fill="black" stroke="black" points="417.485,-13.3046 428.062,-12.6877 419.409,-6.57414 417.485,-13.3046"/>
</g>
<!-- program~integrate_oscillation -->
<g id="node8" class="node"><title>program~integrate_oscillation</title>
<a xlink:href="../program/integrate_oscillation.html" xlink:title="integrate_oscillation">
<polygon fill="#f0ad4e" stroke="#f0ad4e" points="517,-219.791 411,-219.791 411,-193.791 517,-193.791 517,-219.791"/>
<text text-anchor="middle" x="464" y="-204.341" font-family="Helvetica,sans-Serif" font-size="10.50" fill="white">integrate_oscillation</text>
</a>
</g>
<!-- module~foodie&#45;&gt;program~integrate_oscillation -->
<g id="edge20" class="edge"><title>module~foodie&#45;&gt;program~integrate_oscillation</title>
<path fill="none" stroke="black" stroke-dasharray="5,2" d="M331,-203.791C353.12,-209.841 378.09,-211.649 400.37,-211.596"/>
<polygon fill="black" stroke="black" points="400.45,-215.095 410.398,-211.449 400.348,-208.096 400.45,-215.095"/>
</g>
<!-- module~type_lorenz -->
<g id="node9" class="node"><title>module~type_lorenz</title>
<a xlink:href="../module/type_lorenz.html" xlink:title="type_lorenz">
<polygon fill="#337ab7" stroke="#337ab7" points="365,-175.791 297,-175.791 297,-149.791 365,-149.791 365,-175.791"/>
<text text-anchor="middle" x="331" y="-160.341" font-family="Helvetica,sans-Serif" font-size="10.50" fill="white">type_lorenz</text>
</a>
</g>
<!-- module~foodie&#45;&gt;module~type_lorenz -->
<g id="edge22" class="edge"><title>module~foodie&#45;&gt;module~type_lorenz</title>
<path fill="none" stroke="black" stroke-dasharray="5,2" d="M252.023,-130.007C263.558,-134.796 277.275,-140.489 290.014,-145.777"/>
<polygon fill="black" stroke="black" points="288.935,-149.119 299.513,-149.72 291.619,-142.654 288.935,-149.119"/>
</g>
<!-- program~integrate_euler_1d -->
<g id="node10" class="node"><title>program~integrate_euler_1d</title>
<a xlink:href="../program/integrate_euler_1d.html" xlink:title="integrate_euler_1D">
<polygon fill="#f0ad4e" stroke="#f0ad4e" points="516,-101.791 412,-101.791 412,-75.7905 516,-75.7905 516,-101.791"/>
<text text-anchor="middle" x="464" y="-86.3405" font-family="Helvetica,sans-Serif" font-size="10.50" fill="white">integrate_euler_1D</text>
</a>
</g>
<!-- module~foodie&#45;&gt;program~integrate_euler_1d -->
<g id="edge24" class="edge"><title>module~foodie&#45;&gt;program~integrate_euler_1d</title>
<path fill="none" stroke="black" stroke-dasharray="5,2" d="M252.122,-107.38C263.069,-103.29 275.942,-99.1182 288,-96.7905 325.287,-89.5925 367.804,-87.4947 401.708,-87.243"/>
<polygon fill="black" stroke="black" points="401.945,-90.7426 411.938,-87.2206 401.93,-83.7426 401.945,-90.7426"/>
</g>
<!-- module~type_oscillation&#45;&gt;program~integrate_oscillation -->
<g id="edge2" class="edge"><title>module~type_oscillation&#45;&gt;program~integrate_oscillation</title>
<path fill="none" stroke="black" stroke-dasharray="5,2" d="M373.814,-232.558C384.738,-229.437 396.644,-226.035 408.116,-222.757"/>
<polygon fill="black" stroke="black" points="409.398,-226.031 418.051,-219.919 407.475,-219.301 409.398,-226.031"/>
</g>
<!-- module~type_euler_1d&#45;&gt;program~integrate_euler_1d -->
<g id="edge4" class="edge"><title>module~type_euler_1d&#45;&gt;program~integrate_euler_1d</title>
<path fill="none" stroke="black" stroke-dasharray="5,2" d="M372.353,-109.463C381.732,-107.347 391.894,-105.055 401.922,-102.793"/>
<polygon fill="black" stroke="black" points="402.885,-106.164 411.87,-100.549 401.345,-99.3353 402.885,-106.164"/>
</g>
<!-- module~type_burgers&#45;&gt;program~integrate_burgers -->
<g id="edge6" class="edge"><title>module~type_burgers&#45;&gt;program~integrate_burgers</title>
<path fill="none" stroke="black" stroke-dasharray="5,2" d="M369.112,-33.6384C380.387,-32.7059 393.001,-31.6626 405.259,-30.6488"/>
<polygon fill="black" stroke="black" points="405.757,-34.1197 415.434,-29.8072 405.18,-27.1435 405.757,-34.1197"/>
</g>
<!-- module~type_lorenz&#45;&gt;program~integrate_lorenz -->
<g id="edge8" class="edge"><title>module~type_lorenz&#45;&gt;program~integrate_lorenz</title>
<path fill="none" stroke="black" stroke-dasharray="5,2" d="M365.251,-162.791C378.508,-162.791 394.022,-162.791 408.774,-162.791"/>
<polygon fill="black" stroke="black" points="408.827,-166.291 418.827,-162.791 408.827,-159.291 408.827,-166.291"/>
</g>
</g>
</svg>
