<?xml version="1.0" encoding="UTF-8" standalone="no"?>
<!DOCTYPE svg PUBLIC "-//W3C//DTD SVG 1.1//EN"
 "http://www.w3.org/Graphics/SVG/1.1/DTD/svg11.dtd">
<!-- Generated by graphviz version 2.26.3 (20100126.1600)
 -->
<!-- Title: module~~foodie~~UsedByGraph Pages: 1 -->
<svg width="328pt" height="294pt"
 viewBox="0.00 0.00 328.00 294.08" xmlns="http://www.w3.org/2000/svg" xmlns:xlink="http://www.w3.org/1999/xlink">
<g id="graph1" class="graph" transform="scale(1 1) rotate(0) translate(4 290.081)">
<title>module~~foodie~~UsedByGraph</title>
<polygon fill="white" stroke="white" points="-4,5 -4,-290.081 325,-290.081 325,5 -4,5"/>
<!-- module~foodie -->
<g id="node1" class="node"><title>module~foodie</title>
<polygon fill="none" stroke="black" points="54,-155.03 2.13163e-14,-155.03 0,-129.03 54,-129.03 54,-155.03"/>
<text text-anchor="middle" x="27" y="-139.58" font-family="Helvetica,sans-Serif" font-size="10.50">foodie</text>
</g>
<!-- program~integrate_burgers -->
<g id="node2" class="node"><title>program~integrate_burgers</title>
<a xlink:href="../program/integrate_burgers.html" xlink:title="integrate_burgers">
<polygon fill="#f0ad4e" stroke="#f0ad4e" points="314,-279.03 218,-279.03 218,-253.03 314,-253.03 314,-279.03"/>
<text text-anchor="middle" x="266" y="-263.58" font-family="Helvetica,sans-Serif" font-size="10.50" fill="white">integrate_burgers</text>
</a>
</g>
<!-- module~foodie&#45;&gt;program~integrate_burgers -->
<g id="edge10" class="edge"><title>module~foodie&#45;&gt;program~integrate_burgers</title>
<path fill="none" stroke="black" stroke-dasharray="5,2" d="M29.0401,-155.396C33.9565,-182.358 49.2235,-242.828 90,-268.03 125.759,-290.13 173.909,-287.9 210.807,-281.108"/>
<polygon fill="black" stroke="black" points="211.778,-284.483 220.896,-279.087 210.404,-277.619 211.778,-284.483"/>
</g>
<!-- program~integrate_lorenz -->
<g id="node3" class="node"><title>program~integrate_lorenz</title>
<a xlink:href="../program/integrate_lorenz.html" xlink:title="integrate_lorenz">
<polygon fill="#f0ad4e" stroke="#f0ad4e" points="311,-197.03 221,-197.03 221,-171.03 311,-171.03 311,-197.03"/>
<text text-anchor="middle" x="266" y="-181.58" font-family="Helvetica,sans-Serif" font-size="10.50" fill="white">integrate_lorenz</text>
</a>
</g>
<!-- module~foodie&#45;&gt;program~integrate_lorenz -->
<g id="edge12" class="edge"><title>module~foodie&#45;&gt;program~integrate_lorenz</title>
<path fill="none" stroke="black" stroke-dasharray="5,2" d="M40.6406,-155.324C52.5627,-165.95 70.9111,-180.023 90,-186.03 128.999,-198.3 175.307,-197.198 210.632,-193.35"/>
<polygon fill="black" stroke="black" points="211.24,-196.803 220.754,-192.141 210.409,-189.852 211.24,-196.803"/>
</g>
<!-- module~type_euler_1d -->
<g id="node4" class="node"><title>module~type_euler_1d</title>
<a xlink:href="../module/type_euler_1d.html" xlink:title="type_euler_1D">
<polygon fill="#337ab7" stroke="#337ab7" points="174,-133.03 92,-133.03 92,-107.03 174,-107.03 174,-133.03"/>
<text text-anchor="middle" x="133" y="-117.58" font-family="Helvetica,sans-Serif" font-size="10.50" fill="white">type_euler_1D</text>
</a>
</g>
<!-- module~foodie&#45;&gt;module~type_euler_1d -->
<g id="edge14" class="edge"><title>module~foodie&#45;&gt;module~type_euler_1d</title>
<path fill="none" stroke="black" stroke-dasharray="5,2" d="M54.0225,-136.421C62.4901,-134.664 72.1329,-132.662 81.7017,-130.676"/>
<polygon fill="black" stroke="black" points="82.5142,-134.082 91.5943,-128.623 81.0916,-127.228 82.5142,-134.082"/>
</g>
<!-- program~integrate_euler_1d -->
<g id="node5" class="node"><title>program~integrate_euler_1d</title>
<a xlink:href="../program/integrate_euler_1d.html" xlink:title="integrate_euler_1D">
<polygon fill="#f0ad4e" stroke="#f0ad4e" points="318,-103.03 214,-103.03 214,-77.0295 318,-77.0295 318,-103.03"/>
<text text-anchor="middle" x="266" y="-87.5795" font-family="Helvetica,sans-Serif" font-size="10.50" fill="white">integrate_euler_1D</text>
</a>
</g>
<!-- module~foodie&#45;&gt;program~integrate_euler_1d -->
<g id="edge16" class="edge"><title>module~foodie&#45;&gt;program~integrate_euler_1d</title>
<path fill="none" stroke="black" stroke-dasharray="5,2" d="M40.7133,-128.957C52.6797,-118.467 71.0524,-104.468 90,-98.0295 126.219,-85.7229 169.054,-83.5312 203.397,-84.5087"/>
<polygon fill="black" stroke="black" points="203.639,-88.0205 213.766,-84.9062 203.907,-81.0256 203.639,-88.0205"/>
</g>
<!-- module~type_oscillation -->
<g id="node6" class="node"><title>module~type_oscillation</title>
<a xlink:href="../module/type_oscillation.html" xlink:title="type_oscillation">
<polygon fill="#337ab7" stroke="#337ab7" points="175,-51.0295 91,-51.0295 91,-25.0295 175,-25.0295 175,-51.0295"/>
<text text-anchor="middle" x="133" y="-35.5795" font-family="Helvetica,sans-Serif" font-size="10.50" fill="white">type_oscillation</text>
</a>
</g>
<!-- module~foodie&#45;&gt;module~type_oscillation -->
<g id="edge18" class="edge"><title>module~foodie&#45;&gt;module~type_oscillation</title>
<path fill="none" stroke="black" stroke-dasharray="5,2" d="M35.7016,-128.947C46.9405,-112.686 67.7215,-84.683 90,-65.0295 93.1978,-62.2086 96.7224,-59.4896 100.336,-56.9348"/>
<polygon fill="black" stroke="black" points="102.425,-59.7493 108.819,-51.301 98.552,-53.9183 102.425,-59.7493"/>
</g>
<!-- module~type_lorenz -->
<g id="node7" class="node"><title>module~type_lorenz</title>
<a xlink:href="../module/type_lorenz.html" xlink:title="type_lorenz">
<polygon fill="#337ab7" stroke="#337ab7" points="167,-177.03 99,-177.03 99,-151.03 167,-151.03 167,-177.03"/>
<text text-anchor="middle" x="133" y="-161.58" font-family="Helvetica,sans-Serif" font-size="10.50" fill="white">type_lorenz</text>
</a>
</g>
<!-- module~foodie&#45;&gt;module~type_lorenz -->
<g id="edge20" class="edge"><title>module~foodie&#45;&gt;module~type_lorenz</title>
<path fill="none" stroke="black" stroke-dasharray="5,2" d="M54.0225,-147.638C64.5545,-149.824 76.9047,-152.387 88.6691,-154.829"/>
<polygon fill="black" stroke="black" points="88.2937,-158.325 98.7964,-156.931 89.7163,-151.471 88.2937,-158.325"/>
</g>
<!-- program~integrate_oscillation -->
<g id="node8" class="node"><title>program~integrate_oscillation</title>
<a xlink:href="../program/integrate_oscillation.html" xlink:title="integrate_oscillation">
<polygon fill="#f0ad4e" stroke="#f0ad4e" points="319,-40.0295 213,-40.0295 213,-14.0295 319,-14.0295 319,-40.0295"/>
<text text-anchor="middle" x="266" y="-24.5795" font-family="Helvetica,sans-Serif" font-size="10.50" fill="white">integrate_oscillation</text>
</a>
</g>
<!-- module~foodie&#45;&gt;program~integrate_oscillation -->
<g id="edge22" class="edge"><title>module~foodie&#45;&gt;program~integrate_oscillation</title>
<path fill="none" stroke="black" stroke-dasharray="5,2" d="M29.0401,-128.663C33.9565,-101.702 49.2235,-41.2308 90,-16.0295 129.685,8.49702 184.485,-0.0725494 222.345,-11.0278"/>
<polygon fill="black" stroke="black" points="221.479,-14.4231 232.066,-14 223.526,-7.72896 221.479,-14.4231"/>
</g>
<!-- module~type_burgers -->
<g id="node9" class="node"><title>module~type_burgers</title>
<a xlink:href="../module/type_burgers.html" xlink:title="type_burgers">
<polygon fill="#337ab7" stroke="#337ab7" points="171,-259.03 95,-259.03 95,-233.03 171,-233.03 171,-259.03"/>
<text text-anchor="middle" x="133" y="-243.58" font-family="Helvetica,sans-Serif" font-size="10.50" fill="white">type_burgers</text>
</a>
</g>
<!-- module~foodie&#45;&gt;module~type_burgers -->
<g id="edge24" class="edge"><title>module~foodie&#45;&gt;module~type_burgers</title>
<path fill="none" stroke="black" stroke-dasharray="5,2" d="M35.7016,-155.112C46.9405,-171.373 67.7215,-199.376 90,-219.03 93.1978,-221.851 96.7224,-224.569 100.336,-227.124"/>
<polygon fill="black" stroke="black" points="98.552,-230.141 108.819,-232.758 102.425,-224.31 98.552,-230.141"/>
</g>
<!-- module~type_euler_1d&#45;&gt;program~integrate_euler_1d -->
<g id="edge2" class="edge"><title>module~type_euler_1d&#45;&gt;program~integrate_euler_1d</title>
<path fill="none" stroke="black" stroke-dasharray="5,2" d="M174.353,-110.702C183.732,-108.586 193.894,-106.294 203.922,-104.032"/>
<polygon fill="black" stroke="black" points="204.885,-107.403 213.87,-101.788 203.345,-100.574 204.885,-107.403"/>
</g>
<!-- module~type_oscillation&#45;&gt;program~integrate_oscillation -->
<g id="edge4" class="edge"><title>module~type_oscillation&#45;&gt;program~integrate_oscillation</title>
<path fill="none" stroke="black" stroke-dasharray="5,2" d="M175.814,-34.4885C184.201,-33.7949 193.165,-33.0535 202.068,-32.3171"/>
<polygon fill="black" stroke="black" points="202.382,-35.8032 212.06,-31.4908 201.805,-28.827 202.382,-35.8032"/>
</g>
<!-- module~type_lorenz&#45;&gt;program~integrate_lorenz -->
<g id="edge6" class="edge"><title>module~type_lorenz&#45;&gt;program~integrate_lorenz</title>
<path fill="none" stroke="black" stroke-dasharray="5,2" d="M167.251,-169.18C180.508,-171.174 196.022,-173.507 210.774,-175.725"/>
<polygon fill="black" stroke="black" points="210.418,-179.211 220.827,-177.237 211.459,-172.288 210.418,-179.211"/>
</g>
<!-- module~type_burgers&#45;&gt;program~integrate_burgers -->
<g id="edge8" class="edge"><title>module~type_burgers&#45;&gt;program~integrate_burgers</title>
<path fill="none" stroke="black" stroke-dasharray="5,2" d="M171.112,-251.761C182.387,-253.456 195.001,-255.353 207.259,-257.196"/>
<polygon fill="black" stroke="black" points="207.025,-260.7 217.434,-258.726 208.066,-253.778 207.025,-260.7"/>
</g>
</g>
</svg>
