<?xml version="1.0" encoding="UTF-8" standalone="no"?>
<!DOCTYPE svg PUBLIC "-//W3C//DTD SVG 1.1//EN"
 "http://www.w3.org/Graphics/SVG/1.1/DTD/svg11.dtd">
<!-- Generated by graphviz version 2.26.3 (20100126.1600)
 -->
<!-- Title: module~~foodie_integrator_tvd_runge_kutta~~UsedByGraph Pages: 1 -->
<svg width="542pt" height="294pt"
 viewBox="0.00 0.00 542.00 294.08" xmlns="http://www.w3.org/2000/svg" xmlns:xlink="http://www.w3.org/1999/xlink">
<g id="graph1" class="graph" transform="scale(1 1) rotate(0) translate(4 290.081)">
<title>module~~foodie_integrator_tvd_runge_kutta~~UsedByGraph</title>
<polygon fill="white" stroke="white" points="-4,5 -4,-290.081 539,-290.081 539,5 -4,5"/>
<!-- module~foodie_integrator_tvd_runge_kutta -->
<g id="node1" class="node"><title>module~foodie_integrator_tvd_runge_kutta</title>
<polygon fill="none" stroke="black" points="177,-155.03 1,-155.03 1,-129.03 177,-129.03 177,-155.03"/>
<text text-anchor="middle" x="89" y="-139.58" font-family="Helvetica,sans-Serif" font-size="10.50">foodie_integrator_tvd_runge_kutta</text>
</g>
<!-- module~foodie -->
<g id="node2" class="node"><title>module~foodie</title>
<a xlink:href="../module/foodie.html" xlink:title="foodie">
<polygon fill="#337ab7" stroke="#337ab7" points="268,-155.03 214,-155.03 214,-129.03 268,-129.03 268,-155.03"/>
<text text-anchor="middle" x="241" y="-139.58" font-family="Helvetica,sans-Serif" font-size="10.50" fill="white">foodie</text>
</a>
</g>
<!-- module~foodie_integrator_tvd_runge_kutta&#45;&gt;module~foodie -->
<g id="edge26" class="edge"><title>module~foodie_integrator_tvd_runge_kutta&#45;&gt;module~foodie</title>
<path fill="none" stroke="black" stroke-dasharray="5,2" d="M177.859,-142.03C186.893,-142.03 195.678,-142.03 203.682,-142.03"/>
<polygon fill="black" stroke="black" points="203.71,-145.53 213.71,-142.03 203.71,-138.53 203.71,-145.53"/>
</g>
<!-- program~integrate_burgers -->
<g id="node3" class="node"><title>program~integrate_burgers</title>
<a xlink:href="../program/integrate_burgers.html" xlink:title="integrate_burgers">
<polygon fill="#f0ad4e" stroke="#f0ad4e" points="528,-279.03 432,-279.03 432,-253.03 528,-253.03 528,-279.03"/>
<text text-anchor="middle" x="480" y="-263.58" font-family="Helvetica,sans-Serif" font-size="10.50" fill="white">integrate_burgers</text>
</a>
</g>
<!-- module~foodie&#45;&gt;program~integrate_burgers -->
<g id="edge10" class="edge"><title>module~foodie&#45;&gt;program~integrate_burgers</title>
<path fill="none" stroke="black" stroke-dasharray="5,2" d="M243.04,-155.396C247.957,-182.358 263.223,-242.828 304,-268.03 339.759,-290.13 387.909,-287.9 424.807,-281.108"/>
<polygon fill="black" stroke="black" points="425.778,-284.483 434.896,-279.087 424.404,-277.619 425.778,-284.483"/>
</g>
<!-- program~integrate_lorenz -->
<g id="node4" class="node"><title>program~integrate_lorenz</title>
<a xlink:href="../program/integrate_lorenz.html" xlink:title="integrate_lorenz">
<polygon fill="#f0ad4e" stroke="#f0ad4e" points="525,-197.03 435,-197.03 435,-171.03 525,-171.03 525,-197.03"/>
<text text-anchor="middle" x="480" y="-181.58" font-family="Helvetica,sans-Serif" font-size="10.50" fill="white">integrate_lorenz</text>
</a>
</g>
<!-- module~foodie&#45;&gt;program~integrate_lorenz -->
<g id="edge12" class="edge"><title>module~foodie&#45;&gt;program~integrate_lorenz</title>
<path fill="none" stroke="black" stroke-dasharray="5,2" d="M254.641,-155.324C266.563,-165.95 284.911,-180.023 304,-186.03 342.999,-198.3 389.307,-197.198 424.632,-193.35"/>
<polygon fill="black" stroke="black" points="425.24,-196.803 434.754,-192.141 424.409,-189.852 425.24,-196.803"/>
</g>
<!-- module~type_euler_1d -->
<g id="node5" class="node"><title>module~type_euler_1d</title>
<a xlink:href="../module/type_euler_1d.html" xlink:title="type_euler_1D">
<polygon fill="#337ab7" stroke="#337ab7" points="388,-133.03 306,-133.03 306,-107.03 388,-107.03 388,-133.03"/>
<text text-anchor="middle" x="347" y="-117.58" font-family="Helvetica,sans-Serif" font-size="10.50" fill="white">type_euler_1D</text>
</a>
</g>
<!-- module~foodie&#45;&gt;module~type_euler_1d -->
<g id="edge14" class="edge"><title>module~foodie&#45;&gt;module~type_euler_1d</title>
<path fill="none" stroke="black" stroke-dasharray="5,2" d="M268.023,-136.421C276.49,-134.664 286.133,-132.662 295.702,-130.676"/>
<polygon fill="black" stroke="black" points="296.514,-134.082 305.594,-128.623 295.092,-127.228 296.514,-134.082"/>
</g>
<!-- program~integrate_euler_1d -->
<g id="node6" class="node"><title>program~integrate_euler_1d</title>
<a xlink:href="../program/integrate_euler_1d.html" xlink:title="integrate_euler_1D">
<polygon fill="#f0ad4e" stroke="#f0ad4e" points="532,-103.03 428,-103.03 428,-77.0295 532,-77.0295 532,-103.03"/>
<text text-anchor="middle" x="480" y="-87.5795" font-family="Helvetica,sans-Serif" font-size="10.50" fill="white">integrate_euler_1D</text>
</a>
</g>
<!-- module~foodie&#45;&gt;program~integrate_euler_1d -->
<g id="edge16" class="edge"><title>module~foodie&#45;&gt;program~integrate_euler_1d</title>
<path fill="none" stroke="black" stroke-dasharray="5,2" d="M254.713,-128.957C266.68,-118.467 285.052,-104.468 304,-98.0295 340.219,-85.7229 383.054,-83.5312 417.397,-84.5087"/>
<polygon fill="black" stroke="black" points="417.639,-88.0205 427.766,-84.9062 417.907,-81.0256 417.639,-88.0205"/>
</g>
<!-- module~type_oscillation -->
<g id="node7" class="node"><title>module~type_oscillation</title>
<a xlink:href="../module/type_oscillation.html" xlink:title="type_oscillation">
<polygon fill="#337ab7" stroke="#337ab7" points="389,-51.0295 305,-51.0295 305,-25.0295 389,-25.0295 389,-51.0295"/>
<text text-anchor="middle" x="347" y="-35.5795" font-family="Helvetica,sans-Serif" font-size="10.50" fill="white">type_oscillation</text>
</a>
</g>
<!-- module~foodie&#45;&gt;module~type_oscillation -->
<g id="edge18" class="edge"><title>module~foodie&#45;&gt;module~type_oscillation</title>
<path fill="none" stroke="black" stroke-dasharray="5,2" d="M249.702,-128.947C260.941,-112.686 281.721,-84.683 304,-65.0295 307.198,-62.2086 310.722,-59.4896 314.336,-56.9348"/>
<polygon fill="black" stroke="black" points="316.425,-59.7493 322.819,-51.301 312.552,-53.9183 316.425,-59.7493"/>
</g>
<!-- module~type_lorenz -->
<g id="node8" class="node"><title>module~type_lorenz</title>
<a xlink:href="../module/type_lorenz.html" xlink:title="type_lorenz">
<polygon fill="#337ab7" stroke="#337ab7" points="381,-177.03 313,-177.03 313,-151.03 381,-151.03 381,-177.03"/>
<text text-anchor="middle" x="347" y="-161.58" font-family="Helvetica,sans-Serif" font-size="10.50" fill="white">type_lorenz</text>
</a>
</g>
<!-- module~foodie&#45;&gt;module~type_lorenz -->
<g id="edge20" class="edge"><title>module~foodie&#45;&gt;module~type_lorenz</title>
<path fill="none" stroke="black" stroke-dasharray="5,2" d="M268.023,-147.638C278.555,-149.824 290.905,-152.387 302.669,-154.829"/>
<polygon fill="black" stroke="black" points="302.294,-158.325 312.796,-156.931 303.716,-151.471 302.294,-158.325"/>
</g>
<!-- program~integrate_oscillation -->
<g id="node9" class="node"><title>program~integrate_oscillation</title>
<a xlink:href="../program/integrate_oscillation.html" xlink:title="integrate_oscillation">
<polygon fill="#f0ad4e" stroke="#f0ad4e" points="533,-40.0295 427,-40.0295 427,-14.0295 533,-14.0295 533,-40.0295"/>
<text text-anchor="middle" x="480" y="-24.5795" font-family="Helvetica,sans-Serif" font-size="10.50" fill="white">integrate_oscillation</text>
</a>
</g>
<!-- module~foodie&#45;&gt;program~integrate_oscillation -->
<g id="edge22" class="edge"><title>module~foodie&#45;&gt;program~integrate_oscillation</title>
<path fill="none" stroke="black" stroke-dasharray="5,2" d="M243.04,-128.663C247.957,-101.702 263.223,-41.2308 304,-16.0295 343.685,8.49702 398.485,-0.0725494 436.345,-11.0278"/>
<polygon fill="black" stroke="black" points="435.479,-14.4231 446.066,-14 437.526,-7.72896 435.479,-14.4231"/>
</g>
<!-- module~type_burgers -->
<g id="node10" class="node"><title>module~type_burgers</title>
<a xlink:href="../module/type_burgers.html" xlink:title="type_burgers">
<polygon fill="#337ab7" stroke="#337ab7" points="385,-259.03 309,-259.03 309,-233.03 385,-233.03 385,-259.03"/>
<text text-anchor="middle" x="347" y="-243.58" font-family="Helvetica,sans-Serif" font-size="10.50" fill="white">type_burgers</text>
</a>
</g>
<!-- module~foodie&#45;&gt;module~type_burgers -->
<g id="edge24" class="edge"><title>module~foodie&#45;&gt;module~type_burgers</title>
<path fill="none" stroke="black" stroke-dasharray="5,2" d="M249.702,-155.112C260.941,-171.373 281.721,-199.376 304,-219.03 307.198,-221.851 310.722,-224.569 314.336,-227.124"/>
<polygon fill="black" stroke="black" points="312.552,-230.141 322.819,-232.758 316.425,-224.31 312.552,-230.141"/>
</g>
<!-- module~type_euler_1d&#45;&gt;program~integrate_euler_1d -->
<g id="edge2" class="edge"><title>module~type_euler_1d&#45;&gt;program~integrate_euler_1d</title>
<path fill="none" stroke="black" stroke-dasharray="5,2" d="M388.353,-110.702C397.732,-108.586 407.894,-106.294 417.922,-104.032"/>
<polygon fill="black" stroke="black" points="418.885,-107.403 427.87,-101.788 417.345,-100.574 418.885,-107.403"/>
</g>
<!-- module~type_oscillation&#45;&gt;program~integrate_oscillation -->
<g id="edge4" class="edge"><title>module~type_oscillation&#45;&gt;program~integrate_oscillation</title>
<path fill="none" stroke="black" stroke-dasharray="5,2" d="M389.814,-34.4885C398.201,-33.7949 407.165,-33.0535 416.068,-32.3171"/>
<polygon fill="black" stroke="black" points="416.382,-35.8032 426.06,-31.4908 415.805,-28.827 416.382,-35.8032"/>
</g>
<!-- module~type_lorenz&#45;&gt;program~integrate_lorenz -->
<g id="edge6" class="edge"><title>module~type_lorenz&#45;&gt;program~integrate_lorenz</title>
<path fill="none" stroke="black" stroke-dasharray="5,2" d="M381.251,-169.18C394.508,-171.174 410.022,-173.507 424.774,-175.725"/>
<polygon fill="black" stroke="black" points="424.418,-179.211 434.827,-177.237 425.459,-172.288 424.418,-179.211"/>
</g>
<!-- module~type_burgers&#45;&gt;program~integrate_burgers -->
<g id="edge8" class="edge"><title>module~type_burgers&#45;&gt;program~integrate_burgers</title>
<path fill="none" stroke="black" stroke-dasharray="5,2" d="M385.112,-251.761C396.387,-253.456 409.001,-255.353 421.259,-257.196"/>
<polygon fill="black" stroke="black" points="421.025,-260.7 431.434,-258.726 422.066,-253.778 421.025,-260.7"/>
</g>
</g>
</svg>
