<?xml version="1.0" encoding="UTF-8" standalone="no"?>
<!DOCTYPE svg PUBLIC "-//W3C//DTD SVG 1.1//EN"
 "http://www.w3.org/Graphics/SVG/1.1/DTD/svg11.dtd">
<!-- Generated by graphviz version 2.26.3 (20100126.1600)
 -->
<!-- Title: module~~foodie_integrator_adams_bashforth~~UsedByGraph Pages: 1 -->
<svg width="548pt" height="307pt"
 viewBox="0.00 0.00 548.00 307.00" xmlns="http://www.w3.org/2000/svg" xmlns:xlink="http://www.w3.org/1999/xlink">
<g id="graph1" class="graph" transform="scale(1 1) rotate(0) translate(4 303.004)">
<title>module~~foodie_integrator_adams_bashforth~~UsedByGraph</title>
<polygon fill="white" stroke="white" points="-4,5 -4,-303.004 545,-303.004 545,5 -4,5"/>
<!-- module~foodie_integrator_adams_bashforth -->
<g id="node1" class="node"><title>module~foodie_integrator_adams_bashforth</title>
<polygon fill="none" stroke="black" points="183,-169 1,-169 1,-143 183,-143 183,-169"/>
<text text-anchor="middle" x="92" y="-153.55" font-family="Helvetica,sans-Serif" font-size="10.50">foodie_integrator_adams_bashforth</text>
</g>
<!-- module~foodie -->
<g id="node2" class="node"><title>module~foodie</title>
<a xlink:href="../module/foodie.html" xlink:title="foodie">
<polygon fill="#337ab7" stroke="#337ab7" points="274,-169 220,-169 220,-143 274,-143 274,-169"/>
<text text-anchor="middle" x="247" y="-153.55" font-family="Helvetica,sans-Serif" font-size="10.50" fill="white">foodie</text>
</a>
</g>
<!-- module~foodie_integrator_adams_bashforth&#45;&gt;module~foodie -->
<g id="edge26" class="edge"><title>module~foodie_integrator_adams_bashforth&#45;&gt;module~foodie</title>
<path fill="none" stroke="black" stroke-dasharray="5,2" d="M183.508,-156C192.714,-156 201.647,-156 209.764,-156"/>
<polygon fill="black" stroke="black" points="209.919,-159.5 219.919,-156 209.919,-152.5 209.919,-159.5"/>
</g>
<!-- program~integrate_burgers -->
<g id="node3" class="node"><title>program~integrate_burgers</title>
<a xlink:href="../program/integrate_burgers.html" xlink:title="integrate_burgers">
<polygon fill="#f0ad4e" stroke="#f0ad4e" points="534,-292 438,-292 438,-266 534,-266 534,-292"/>
<text text-anchor="middle" x="486" y="-276.55" font-family="Helvetica,sans-Serif" font-size="10.50" fill="white">integrate_burgers</text>
</a>
</g>
<!-- module~foodie&#45;&gt;program~integrate_burgers -->
<g id="edge10" class="edge"><title>module~foodie&#45;&gt;program~integrate_burgers</title>
<path fill="none" stroke="black" stroke-dasharray="5,2" d="M249.076,-169.265C254.059,-196.019 269.442,-256.023 310,-281 345.794,-303.043 393.941,-300.818 430.83,-294.042"/>
<polygon fill="black" stroke="black" points="431.796,-297.418 440.916,-292.026 430.424,-290.553 431.796,-297.418"/>
</g>
<!-- module~type_burgers -->
<g id="node4" class="node"><title>module~type_burgers</title>
<a xlink:href="../module/type_burgers.html" xlink:title="type_burgers">
<polygon fill="#337ab7" stroke="#337ab7" points="391,-272 315,-272 315,-246 391,-246 391,-272"/>
<text text-anchor="middle" x="353" y="-256.55" font-family="Helvetica,sans-Serif" font-size="10.50" fill="white">type_burgers</text>
</a>
</g>
<!-- module~foodie&#45;&gt;module~type_burgers -->
<g id="edge12" class="edge"><title>module~foodie&#45;&gt;module~type_burgers</title>
<path fill="none" stroke="black" stroke-dasharray="5,2" d="M255.935,-169.183C267.255,-185.262 287.961,-212.683 310,-232 313.373,-234.956 317.103,-237.803 320.916,-240.469"/>
<polygon fill="black" stroke="black" points="319.011,-243.405 329.287,-245.984 322.862,-237.56 319.011,-243.405"/>
</g>
<!-- program~integrate_lorenz -->
<g id="node5" class="node"><title>program~integrate_lorenz</title>
<a xlink:href="../program/integrate_lorenz.html" xlink:title="integrate_lorenz">
<polygon fill="#f0ad4e" stroke="#f0ad4e" points="531,-210 441,-210 441,-184 531,-184 531,-210"/>
<text text-anchor="middle" x="486" y="-194.55" font-family="Helvetica,sans-Serif" font-size="10.50" fill="white">integrate_lorenz</text>
</a>
</g>
<!-- module~foodie&#45;&gt;program~integrate_lorenz -->
<g id="edge14" class="edge"><title>module~foodie&#45;&gt;program~integrate_lorenz</title>
<path fill="none" stroke="black" stroke-dasharray="5,2" d="M261.179,-169.415C273.143,-179.75 291.274,-193.218 310,-199 349.064,-211.061 395.369,-209.969 430.676,-206.177"/>
<polygon fill="black" stroke="black" points="431.271,-209.632 440.793,-204.986 430.452,-202.68 431.271,-209.632"/>
</g>
<!-- program~integrate_euler_1d -->
<g id="node6" class="node"><title>program~integrate_euler_1d</title>
<a xlink:href="../program/integrate_euler_1d.html" xlink:title="integrate_euler_1D">
<polygon fill="#f0ad4e" stroke="#f0ad4e" points="538,-119 434,-119 434,-93 538,-93 538,-119"/>
<text text-anchor="middle" x="486" y="-103.55" font-family="Helvetica,sans-Serif" font-size="10.50" fill="white">integrate_euler_1D</text>
</a>
</g>
<!-- module~foodie&#45;&gt;program~integrate_euler_1d -->
<g id="edge16" class="edge"><title>module~foodie&#45;&gt;program~integrate_euler_1d</title>
<path fill="none" stroke="black" stroke-dasharray="5,2" d="M274.416,-150.264C310.589,-142.697 375.324,-129.154 423.696,-119.034"/>
<polygon fill="black" stroke="black" points="424.682,-122.404 433.754,-116.93 423.249,-115.552 424.682,-122.404"/>
</g>
<!-- module~type_euler_1d -->
<g id="node7" class="node"><title>module~type_euler_1d</title>
<a xlink:href="../module/type_euler_1d.html" xlink:title="type_euler_1D">
<polygon fill="#337ab7" stroke="#337ab7" points="394,-108 312,-108 312,-82 394,-82 394,-108"/>
<text text-anchor="middle" x="353" y="-92.55" font-family="Helvetica,sans-Serif" font-size="10.50" fill="white">type_euler_1D</text>
</a>
</g>
<!-- module~foodie&#45;&gt;module~type_euler_1d -->
<g id="edge18" class="edge"><title>module~foodie&#45;&gt;module~type_euler_1d</title>
<path fill="none" stroke="black" stroke-dasharray="5,2" d="M269.74,-142.914C284.83,-134.23 304.842,-122.713 321.465,-113.148"/>
<polygon fill="black" stroke="black" points="323.376,-116.086 330.298,-108.064 319.885,-110.019 323.376,-116.086"/>
</g>
<!-- module~type_lorenz -->
<g id="node8" class="node"><title>module~type_lorenz</title>
<a xlink:href="../module/type_lorenz.html" xlink:title="type_lorenz">
<polygon fill="#337ab7" stroke="#337ab7" points="387,-190 319,-190 319,-164 387,-164 387,-190"/>
<text text-anchor="middle" x="353" y="-174.55" font-family="Helvetica,sans-Serif" font-size="10.50" fill="white">type_lorenz</text>
</a>
</g>
<!-- module~foodie&#45;&gt;module~type_lorenz -->
<g id="edge20" class="edge"><title>module~foodie&#45;&gt;module~type_lorenz</title>
<path fill="none" stroke="black" stroke-dasharray="5,2" d="M274.023,-161.354C284.555,-163.44 296.905,-165.887 308.669,-168.217"/>
<polygon fill="black" stroke="black" points="308.307,-171.714 318.796,-170.224 309.667,-164.847 308.307,-171.714"/>
</g>
<!-- program~integrate_oscillation -->
<g id="node9" class="node"><title>program~integrate_oscillation</title>
<a xlink:href="../program/integrate_oscillation.html" xlink:title="integrate_oscillation">
<polygon fill="#f0ad4e" stroke="#f0ad4e" points="539,-56 433,-56 433,-30 539,-30 539,-56"/>
<text text-anchor="middle" x="486" y="-40.55" font-family="Helvetica,sans-Serif" font-size="10.50" fill="white">integrate_oscillation</text>
</a>
</g>
<!-- module~foodie&#45;&gt;program~integrate_oscillation -->
<g id="edge22" class="edge"><title>module~foodie&#45;&gt;program~integrate_oscillation</title>
<path fill="none" stroke="black" stroke-dasharray="5,2" d="M252.999,-142.863C262.322,-124.06 282.158,-89.8864 310,-73 343.529,-52.6646 386.902,-45.1016 422.2,-42.6533"/>
<polygon fill="black" stroke="black" points="422.616,-46.1354 432.4,-42.0705 422.217,-39.1468 422.616,-46.1354"/>
</g>
<!-- module~type_oscillation -->
<g id="node10" class="node"><title>module~type_oscillation</title>
<a xlink:href="../module/type_oscillation.html" xlink:title="type_oscillation">
<polygon fill="#337ab7" stroke="#337ab7" points="395,-26 311,-26 311,-1.24345e-14 395,-3.55271e-15 395,-26"/>
<text text-anchor="middle" x="353" y="-10.55" font-family="Helvetica,sans-Serif" font-size="10.50" fill="white">type_oscillation</text>
</a>
</g>
<!-- module~foodie&#45;&gt;module~type_oscillation -->
<g id="edge24" class="edge"><title>module~foodie&#45;&gt;module~type_oscillation</title>
<path fill="none" stroke="black" stroke-dasharray="5,2" d="M251.595,-142.811C260.144,-119.757 280.355,-71.5791 310,-40 312.706,-37.118 315.783,-34.4172 319.018,-31.9225"/>
<polygon fill="black" stroke="black" points="321.073,-34.7567 327.266,-26.1603 317.064,-29.0185 321.073,-34.7567"/>
</g>
<!-- module~type_burgers&#45;&gt;program~integrate_burgers -->
<g id="edge2" class="edge"><title>module~type_burgers&#45;&gt;program~integrate_burgers</title>
<path fill="none" stroke="black" stroke-dasharray="5,2" d="M391.112,-264.731C402.387,-266.427 415.001,-268.323 427.259,-270.167"/>
<polygon fill="black" stroke="black" points="427.025,-273.671 437.434,-271.697 428.066,-266.749 427.025,-273.671"/>
</g>
<!-- module~type_euler_1d&#45;&gt;program~integrate_euler_1d -->
<g id="edge4" class="edge"><title>module~type_euler_1d&#45;&gt;program~integrate_euler_1d</title>
<path fill="none" stroke="black" stroke-dasharray="5,2" d="M394.353,-98.4202C403.635,-99.1878 413.683,-100.019 423.608,-100.84"/>
<polygon fill="black" stroke="black" points="423.616,-104.352 433.87,-101.689 424.193,-97.3761 423.616,-104.352"/>
</g>
<!-- module~type_lorenz&#45;&gt;program~integrate_lorenz -->
<g id="edge6" class="edge"><title>module~type_lorenz&#45;&gt;program~integrate_lorenz</title>
<path fill="none" stroke="black" stroke-dasharray="5,2" d="M387.251,-182.15C400.508,-184.144 416.022,-186.477 430.774,-188.695"/>
<polygon fill="black" stroke="black" points="430.418,-192.181 440.827,-190.207 431.459,-185.259 430.418,-192.181"/>
</g>
<!-- module~type_oscillation&#45;&gt;program~integrate_oscillation -->
<g id="edge8" class="edge"><title>module~type_oscillation&#45;&gt;program~integrate_oscillation</title>
<path fill="none" stroke="black" stroke-dasharray="5,2" d="M395.814,-22.6573C404.201,-24.549 413.165,-26.5711 422.068,-28.5793"/>
<polygon fill="black" stroke="black" points="421.535,-32.0468 432.06,-30.833 423.075,-25.2183 421.535,-32.0468"/>
</g>
</g>
</svg>
