<?xml version="1.0" encoding="UTF-8" standalone="no"?>
<!DOCTYPE svg PUBLIC "-//W3C//DTD SVG 1.1//EN"
 "http://www.w3.org/Graphics/SVG/1.1/DTD/svg11.dtd">
<!-- Generated by graphviz version 2.38.0 (20140413.2041)
 -->
<!-- Title: module~~foodie_integrator_adams_bashforth~~UsesGraph Pages: 1 -->
<svg width="420pt" height="52pt"
 viewBox="0.00 0.00 420.00 52.00" xmlns="http://www.w3.org/2000/svg" xmlns:xlink="http://www.w3.org/1999/xlink">
<g id="graph0" class="graph" transform="scale(1 1) rotate(0) translate(4 48)">
<title>module~~foodie_integrator_adams_bashforth~~UsesGraph</title>
<polygon fill="white" stroke="none" points="-4,4 -4,-48 416,-48 416,4 -4,4"/>
<!-- module~foodie_integrator_adams_bashforth -->
<g id="node1" class="node"><title>module~foodie_integrator_adams_bashforth</title>
<polygon fill="none" stroke="black" points="412,-44 229,-44 229,-20 412,-20 412,-44"/>
<text text-anchor="middle" x="320.5" y="-29.6" font-family="Helvetica,sans-Serif" font-size="10.50">foodie_integrator_adams_bashforth</text>
</g>
<!-- IR_Precision -->
<g id="node2" class="node"><title>IR_Precision</title>
<polygon fill="#337ab7" stroke="#337ab7" points="73,-44 0,-44 0,-20 73,-20 73,-44"/>
<text text-anchor="middle" x="36.5" y="-29.6" font-family="Helvetica,sans-Serif" font-size="10.50" fill="white">IR_Precision</text>
</g>
<!-- IR_Precision&#45;&gt;module~foodie_integrator_adams_bashforth -->
<g id="edge2" class="edge"><title>IR_Precision&#45;&gt;module~foodie_integrator_adams_bashforth</title>
<path fill="none" stroke="black" stroke-dasharray="5,2" d="M73.1402,-32.5965C84.591,-32.7619 97.3307,-32.9184 109,-33 144.756,-33.25 183.929,-33.1629 218.684,-32.9597"/>
<polygon fill="black" stroke="black" points="218.861,-36.4588 228.839,-32.8964 218.817,-29.4589 218.861,-36.4588"/>
</g>
<!-- module~type_integrand -->
<g id="node3" class="node"><title>module~type_integrand</title>
<g id="a_node3"><a xlink:href="../module/type_integrand.html" xlink:title="type_integrand">
<polygon fill="#337ab7" stroke="#337ab7" points="193,-24 109,-24 109,-0 193,-0 193,-24"/>
<text text-anchor="middle" x="151" y="-9.6" font-family="Helvetica,sans-Serif" font-size="10.50" fill="white">type_integrand</text>
</a>
</g>
</g>
<!-- IR_Precision&#45;&gt;module~type_integrand -->
<g id="edge1" class="edge"><title>IR_Precision&#45;&gt;module~type_integrand</title>
<path fill="none" stroke="black" stroke-dasharray="5,2" d="M73.0957,-25.6719C81.2389,-24.2242 90.0527,-22.6573 98.7087,-21.1185"/>
<polygon fill="black" stroke="black" points="99.515,-24.5301 108.748,-19.3337 98.2897,-17.6381 99.515,-24.5301"/>
</g>
<!-- module~type_integrand&#45;&gt;module~foodie_integrator_adams_bashforth -->
<g id="edge3" class="edge"><title>module~type_integrand&#45;&gt;module~foodie_integrator_adams_bashforth</title>
<path fill="none" stroke="black" stroke-dasharray="5,2" d="M193.405,-16.9438C201.288,-17.8851 209.851,-18.9075 218.678,-19.9615"/>
<polygon fill="black" stroke="black" points="218.389,-23.4519 228.734,-21.1623 219.219,-16.5012 218.389,-23.4519"/>
</g>
</g>
</svg>
