<?xml version="1.0" encoding="UTF-8" standalone="no"?>
<!DOCTYPE svg PUBLIC "-//W3C//DTD SVG 1.1//EN"
 "http://www.w3.org/Graphics/SVG/1.1/DTD/svg11.dtd">
<!-- Generated by graphviz version 2.26.3 (20100126.1600)
 -->
<!-- Title: module~~foodie_integrator_tvd_runge_kutta~~UsedByGraph Pages: 1 -->
<svg width="542pt" height="305pt"
 viewBox="0.00 0.00 542.00 304.93" xmlns="http://www.w3.org/2000/svg" xmlns:xlink="http://www.w3.org/1999/xlink">
<g id="graph1" class="graph" transform="scale(1 1) rotate(0) translate(4 300.927)">
<title>module~~foodie_integrator_tvd_runge_kutta~~UsedByGraph</title>
<polygon fill="white" stroke="white" points="-4,5 -4,-300.927 539,-300.927 539,5 -4,5"/>
<!-- module~foodie_integrator_tvd_runge_kutta -->
<g id="node1" class="node"><title>module~foodie_integrator_tvd_runge_kutta</title>
<polygon fill="none" stroke="black" points="177,-152.927 1,-152.927 1,-126.927 177,-126.927 177,-152.927"/>
<text text-anchor="middle" x="89" y="-137.477" font-family="Helvetica,sans-Serif" font-size="10.50">foodie_integrator_tvd_runge_kutta</text>
</g>
<!-- module~foodie -->
<g id="node2" class="node"><title>module~foodie</title>
<a xlink:href="../module/foodie.html" xlink:title="foodie">
<polygon fill="#337ab7" stroke="#337ab7" points="268,-152.927 214,-152.927 214,-126.927 268,-126.927 268,-152.927"/>
<text text-anchor="middle" x="241" y="-137.477" font-family="Helvetica,sans-Serif" font-size="10.50" fill="white">foodie</text>
</a>
</g>
<!-- module~foodie_integrator_tvd_runge_kutta&#45;&gt;module~foodie -->
<g id="edge26" class="edge"><title>module~foodie_integrator_tvd_runge_kutta&#45;&gt;module~foodie</title>
<path fill="none" stroke="black" stroke-dasharray="5,2" d="M177.859,-139.927C186.893,-139.927 195.678,-139.927 203.682,-139.927"/>
<polygon fill="black" stroke="black" points="203.71,-143.428 213.71,-139.927 203.71,-136.428 203.71,-143.428"/>
</g>
<!-- module~type_oscillation -->
<g id="node3" class="node"><title>module~type_oscillation</title>
<a xlink:href="../module/type_oscillation.html" xlink:title="type_oscillation">
<polygon fill="#337ab7" stroke="#337ab7" points="389,-296.927 305,-296.927 305,-270.927 389,-270.927 389,-296.927"/>
<text text-anchor="middle" x="347" y="-281.477" font-family="Helvetica,sans-Serif" font-size="10.50" fill="white">type_oscillation</text>
</a>
</g>
<!-- module~foodie&#45;&gt;module~type_oscillation -->
<g id="edge10" class="edge"><title>module~foodie&#45;&gt;module~type_oscillation</title>
<path fill="none" stroke="black" stroke-dasharray="5,2" d="M245.566,-153.231C254.07,-176.488 274.214,-225.084 304,-256.927 306.7,-259.814 309.774,-262.518 313.008,-265.015"/>
<polygon fill="black" stroke="black" points="311.051,-267.918 321.252,-270.779 315.062,-262.181 311.051,-267.918"/>
</g>
<!-- module~type_burgers -->
<g id="node4" class="node"><title>module~type_burgers</title>
<a xlink:href="../module/type_burgers.html" xlink:title="type_burgers">
<polygon fill="#337ab7" stroke="#337ab7" points="385,-214.927 309,-214.927 309,-188.927 385,-188.927 385,-214.927"/>
<text text-anchor="middle" x="347" y="-199.477" font-family="Helvetica,sans-Serif" font-size="10.50" fill="white">type_burgers</text>
</a>
</g>
<!-- module~foodie&#45;&gt;module~type_burgers -->
<g id="edge12" class="edge"><title>module~foodie&#45;&gt;module~type_burgers</title>
<path fill="none" stroke="black" stroke-dasharray="5,2" d="M263.48,-153.076C278.658,-161.954 298.901,-173.794 315.657,-183.595"/>
<polygon fill="black" stroke="black" points="314.154,-186.77 324.553,-188.798 317.688,-180.728 314.154,-186.77"/>
</g>
<!-- program~integrate_oscillation -->
<g id="node5" class="node"><title>program~integrate_oscillation</title>
<a xlink:href="../program/integrate_oscillation.html" xlink:title="integrate_oscillation">
<polygon fill="#f0ad4e" stroke="#f0ad4e" points="533,-275.927 427,-275.927 427,-249.927 533,-249.927 533,-275.927"/>
<text text-anchor="middle" x="480" y="-260.477" font-family="Helvetica,sans-Serif" font-size="10.50" fill="white">integrate_oscillation</text>
</a>
</g>
<!-- module~foodie&#45;&gt;program~integrate_oscillation -->
<g id="edge14" class="edge"><title>module~foodie&#45;&gt;program~integrate_oscillation</title>
<path fill="none" stroke="black" stroke-dasharray="5,2" d="M247.069,-153.04C256.48,-171.842 276.423,-206.147 304,-223.927 337.277,-245.383 380.647,-255.157 416.007,-259.555"/>
<polygon fill="black" stroke="black" points="415.898,-263.065 426.227,-260.707 416.681,-256.109 415.898,-263.065"/>
</g>
<!-- program~integrate_burgers -->
<g id="node6" class="node"><title>program~integrate_burgers</title>
<a xlink:href="../program/integrate_burgers.html" xlink:title="integrate_burgers">
<polygon fill="#f0ad4e" stroke="#f0ad4e" points="528,-193.927 432,-193.927 432,-167.927 528,-167.927 528,-193.927"/>
<text text-anchor="middle" x="480" y="-178.477" font-family="Helvetica,sans-Serif" font-size="10.50" fill="white">integrate_burgers</text>
</a>
</g>
<!-- module~foodie&#45;&gt;program~integrate_burgers -->
<g id="edge16" class="edge"><title>module~foodie&#45;&gt;program~integrate_burgers</title>
<path fill="none" stroke="black" stroke-dasharray="5,2" d="M268.416,-144.631C305.505,-150.993 372.62,-162.507 421.338,-170.864"/>
<polygon fill="black" stroke="black" points="420.989,-174.355 431.437,-172.596 422.173,-167.456 420.989,-174.355"/>
</g>
<!-- module~type_euler_1d -->
<g id="node7" class="node"><title>module~type_euler_1d</title>
<a xlink:href="../module/type_euler_1d.html" xlink:title="type_euler_1D">
<polygon fill="#337ab7" stroke="#337ab7" points="388,-132.927 306,-132.927 306,-106.927 388,-106.927 388,-132.927"/>
<text text-anchor="middle" x="347" y="-117.477" font-family="Helvetica,sans-Serif" font-size="10.50" fill="white">type_euler_1D</text>
</a>
</g>
<!-- module~foodie&#45;&gt;module~type_euler_1d -->
<g id="edge18" class="edge"><title>module~foodie&#45;&gt;module~type_euler_1d</title>
<path fill="none" stroke="black" stroke-dasharray="5,2" d="M268.023,-134.829C276.49,-133.231 286.133,-131.412 295.702,-129.606"/>
<polygon fill="black" stroke="black" points="296.417,-133.033 305.594,-127.74 295.119,-126.155 296.417,-133.033"/>
</g>
<!-- program~integrate_euler_1d -->
<g id="node8" class="node"><title>program~integrate_euler_1d</title>
<a xlink:href="../program/integrate_euler_1d.html" xlink:title="integrate_euler_1D">
<polygon fill="#f0ad4e" stroke="#f0ad4e" points="532,-102.927 428,-102.927 428,-76.9274 532,-76.9274 532,-102.927"/>
<text text-anchor="middle" x="480" y="-87.4774" font-family="Helvetica,sans-Serif" font-size="10.50" fill="white">integrate_euler_1D</text>
</a>
</g>
<!-- module~foodie&#45;&gt;program~integrate_euler_1d -->
<g id="edge20" class="edge"><title>module~foodie&#45;&gt;program~integrate_euler_1d</title>
<path fill="none" stroke="black" stroke-dasharray="5,2" d="M255.798,-126.639C267.836,-116.725 285.762,-103.905 304,-97.9274 340.35,-86.0137 383.188,-83.8311 417.5,-84.715"/>
<polygon fill="black" stroke="black" points="417.741,-88.2256 427.858,-85.0804 417.987,-81.2299 417.741,-88.2256"/>
</g>
<!-- module~type_lorenz -->
<g id="node9" class="node"><title>module~type_lorenz</title>
<a xlink:href="../module/type_lorenz.html" xlink:title="type_lorenz">
<polygon fill="#337ab7" stroke="#337ab7" points="381,-50.9274 313,-50.9274 313,-24.9274 381,-24.9274 381,-50.9274"/>
<text text-anchor="middle" x="347" y="-35.4774" font-family="Helvetica,sans-Serif" font-size="10.50" fill="white">type_lorenz</text>
</a>
</g>
<!-- module~foodie&#45;&gt;module~type_lorenz -->
<g id="edge22" class="edge"><title>module~foodie&#45;&gt;module~type_lorenz</title>
<path fill="none" stroke="black" stroke-dasharray="5,2" d="M250.171,-126.649C261.57,-110.756 282.198,-83.9112 304,-64.9274 307.382,-61.9825 311.118,-59.1417 314.934,-56.48"/>
<polygon fill="black" stroke="black" points="316.879,-59.3896 323.308,-50.9682 313.031,-53.5425 316.879,-59.3896"/>
</g>
<!-- program~integrate_lorenz -->
<g id="node10" class="node"><title>program~integrate_lorenz</title>
<a xlink:href="../program/integrate_lorenz.html" xlink:title="integrate_lorenz">
<polygon fill="#f0ad4e" stroke="#f0ad4e" points="525,-39.9274 435,-39.9274 435,-13.9274 525,-13.9274 525,-39.9274"/>
<text text-anchor="middle" x="480" y="-24.4774" font-family="Helvetica,sans-Serif" font-size="10.50" fill="white">integrate_lorenz</text>
</a>
</g>
<!-- module~foodie&#45;&gt;program~integrate_lorenz -->
<g id="edge24" class="edge"><title>module~foodie&#45;&gt;program~integrate_lorenz</title>
<path fill="none" stroke="black" stroke-dasharray="5,2" d="M243.112,-126.765C248.161,-100.217 263.661,-40.6796 304,-15.9274 343.644,8.39791 398.219,-0.0226532 436.041,-10.8899"/>
<polygon fill="black" stroke="black" points="435.171,-14.2835 445.757,-13.8402 437.205,-7.5855 435.171,-14.2835"/>
</g>
<!-- module~type_oscillation&#45;&gt;program~integrate_oscillation -->
<g id="edge2" class="edge"><title>module~type_oscillation&#45;&gt;program~integrate_oscillation</title>
<path fill="none" stroke="black" stroke-dasharray="5,2" d="M389.814,-277.167C398.201,-275.843 407.165,-274.428 416.068,-273.022"/>
<polygon fill="black" stroke="black" points="416.728,-276.461 426.06,-271.444 415.636,-269.547 416.728,-276.461"/>
</g>
<!-- module~type_burgers&#45;&gt;program~integrate_burgers -->
<g id="edge4" class="edge"><title>module~type_burgers&#45;&gt;program~integrate_burgers</title>
<path fill="none" stroke="black" stroke-dasharray="5,2" d="M385.112,-195.91C396.387,-194.13 409.001,-192.138 421.259,-190.202"/>
<polygon fill="black" stroke="black" points="422.102,-193.613 431.434,-188.596 421.011,-186.698 422.102,-193.613"/>
</g>
<!-- module~type_euler_1d&#45;&gt;program~integrate_euler_1d -->
<g id="edge6" class="edge"><title>module~type_euler_1d&#45;&gt;program~integrate_euler_1d</title>
<path fill="none" stroke="black" stroke-dasharray="5,2" d="M388.353,-110.6C397.732,-108.484 407.894,-106.192 417.922,-103.93"/>
<polygon fill="black" stroke="black" points="418.885,-107.301 427.87,-101.686 417.345,-100.472 418.885,-107.301"/>
</g>
<!-- module~type_lorenz&#45;&gt;program~integrate_lorenz -->
<g id="edge8" class="edge"><title>module~type_lorenz&#45;&gt;program~integrate_lorenz</title>
<path fill="none" stroke="black" stroke-dasharray="5,2" d="M381.251,-35.0946C394.508,-33.9982 410.022,-32.7151 424.774,-31.495"/>
<polygon fill="black" stroke="black" points="425.15,-34.9759 434.827,-30.6635 424.573,-27.9998 425.15,-34.9759"/>
</g>
</g>
</svg>
