<?xml version="1.0" encoding="UTF-8" standalone="no"?>
<!DOCTYPE svg PUBLIC "-//W3C//DTD SVG 1.1//EN"
 "http://www.w3.org/Graphics/SVG/1.1/DTD/svg11.dtd">
<!-- Generated by graphviz version 2.26.3 (20100126.1600)
 -->
<!-- Title: module~~foodie_integrator_tvd_runge_kutta~~UsedByGraph Pages: 1 -->
<svg width="542pt" height="280pt"
 viewBox="0.00 0.00 542.00 280.00" xmlns="http://www.w3.org/2000/svg" xmlns:xlink="http://www.w3.org/1999/xlink">
<g id="graph1" class="graph" transform="scale(1 1) rotate(0) translate(4 276)">
<title>module~~foodie_integrator_tvd_runge_kutta~~UsedByGraph</title>
<polygon fill="white" stroke="white" points="-4,5 -4,-276 539,-276 539,5 -4,5"/>
<!-- module~foodie_integrator_tvd_runge_kutta -->
<g id="node1" class="node"><title>module~foodie_integrator_tvd_runge_kutta</title>
<polygon fill="none" stroke="black" points="177,-149 1,-149 1,-123 177,-123 177,-149"/>
<text text-anchor="middle" x="89" y="-133.55" font-family="Helvetica,sans-Serif" font-size="10.50">foodie_integrator_tvd_runge_kutta</text>
</g>
<!-- module~foodie -->
<g id="node2" class="node"><title>module~foodie</title>
<a xlink:href="../module/foodie.html" xlink:title="foodie">
<polygon fill="#337ab7" stroke="#337ab7" points="268,-149 214,-149 214,-123 268,-123 268,-149"/>
<text text-anchor="middle" x="241" y="-133.55" font-family="Helvetica,sans-Serif" font-size="10.50" fill="white">foodie</text>
</a>
</g>
<!-- module~foodie_integrator_tvd_runge_kutta&#45;&gt;module~foodie -->
<g id="edge26" class="edge"><title>module~foodie_integrator_tvd_runge_kutta&#45;&gt;module~foodie</title>
<path fill="none" stroke="black" stroke-dasharray="5,2" d="M177.859,-136C186.893,-136 195.678,-136 203.682,-136"/>
<polygon fill="black" stroke="black" points="203.71,-139.5 213.71,-136 203.71,-132.5 203.71,-139.5"/>
</g>
<!-- module~type_burgers -->
<g id="node3" class="node"><title>module~type_burgers</title>
<a xlink:href="../module/type_burgers.html" xlink:title="type_burgers">
<polygon fill="#337ab7" stroke="#337ab7" points="385,-272 309,-272 309,-246 385,-246 385,-272"/>
<text text-anchor="middle" x="347" y="-256.55" font-family="Helvetica,sans-Serif" font-size="10.50" fill="white">type_burgers</text>
</a>
</g>
<!-- module~foodie&#45;&gt;module~type_burgers -->
<g id="edge10" class="edge"><title>module~foodie&#45;&gt;module~type_burgers</title>
<path fill="none" stroke="black" stroke-dasharray="5,2" d="M247.254,-149.061C257.178,-168.796 278.089,-206.604 304,-232 306.892,-234.834 310.131,-237.521 313.498,-240.022"/>
<polygon fill="black" stroke="black" points="311.779,-243.086 322.012,-245.832 315.726,-237.304 311.779,-243.086"/>
</g>
<!-- program~integrate_burgers -->
<g id="node4" class="node"><title>program~integrate_burgers</title>
<a xlink:href="../program/integrate_burgers.html" xlink:title="integrate_burgers">
<polygon fill="#f0ad4e" stroke="#f0ad4e" points="528,-251 432,-251 432,-225 528,-225 528,-251"/>
<text text-anchor="middle" x="480" y="-235.55" font-family="Helvetica,sans-Serif" font-size="10.50" fill="white">integrate_burgers</text>
</a>
</g>
<!-- module~foodie&#45;&gt;program~integrate_burgers -->
<g id="edge12" class="edge"><title>module~foodie&#45;&gt;program~integrate_burgers</title>
<path fill="none" stroke="black" stroke-dasharray="5,2" d="M250.337,-149.044C261.443,-163.552 281.352,-186.576 304,-199 340.088,-218.796 385.548,-228.545 421.225,-233.346"/>
<polygon fill="black" stroke="black" points="421.13,-236.861 431.486,-234.628 421.997,-229.915 421.13,-236.861"/>
</g>
<!-- module~type_euler_1d -->
<g id="node5" class="node"><title>module~type_euler_1d</title>
<a xlink:href="../module/type_euler_1d.html" xlink:title="type_euler_1D">
<polygon fill="#337ab7" stroke="#337ab7" points="388,-190 306,-190 306,-164 388,-164 388,-190"/>
<text text-anchor="middle" x="347" y="-174.55" font-family="Helvetica,sans-Serif" font-size="10.50" fill="white">type_euler_1D</text>
</a>
</g>
<!-- module~foodie&#45;&gt;module~type_euler_1d -->
<g id="edge14" class="edge"><title>module~foodie&#45;&gt;module~type_euler_1d</title>
<path fill="none" stroke="black" stroke-dasharray="5,2" d="M268.023,-146.452C278.864,-150.646 291.632,-155.584 303.705,-160.254"/>
<polygon fill="black" stroke="black" points="302.598,-163.578 313.188,-163.922 305.124,-157.05 302.598,-163.578"/>
</g>
<!-- program~integrate_oscillation -->
<g id="node6" class="node"><title>program~integrate_oscillation</title>
<a xlink:href="../program/integrate_oscillation.html" xlink:title="integrate_oscillation">
<polygon fill="#f0ad4e" stroke="#f0ad4e" points="533,-108 427,-108 427,-82 533,-82 533,-108"/>
<text text-anchor="middle" x="480" y="-92.55" font-family="Helvetica,sans-Serif" font-size="10.50" fill="white">integrate_oscillation</text>
</a>
</g>
<!-- module~foodie&#45;&gt;program~integrate_oscillation -->
<g id="edge16" class="edge"><title>module~foodie&#45;&gt;program~integrate_oscillation</title>
<path fill="none" stroke="black" stroke-dasharray="5,2" d="M268.049,-137.055C289.491,-137.637 320.2,-137.905 347,-136"/>
<path fill="none" stroke="black" stroke-dasharray="5,2" d="M347,-136C364.146,-134.781 403.317,-122.253 434.733,-111.362"/>
<polygon fill="black" stroke="black" points="435.918,-114.655 444.201,-108.049 433.607,-108.048 435.918,-114.655"/>
</g>
<!-- program~integrate_euler_1d -->
<g id="node7" class="node"><title>program~integrate_euler_1d</title>
<a xlink:href="../program/integrate_euler_1d.html" xlink:title="integrate_euler_1D">
<polygon fill="#f0ad4e" stroke="#f0ad4e" points="532,-152 428,-152 428,-126 532,-126 532,-152"/>
<text text-anchor="middle" x="480" y="-136.55" font-family="Helvetica,sans-Serif" font-size="10.50" fill="white">integrate_euler_1D</text>
</a>
</g>
<!-- module~foodie&#45;&gt;program~integrate_euler_1d -->
<g id="edge18" class="edge"><title>module~foodie&#45;&gt;program~integrate_euler_1d</title>
<path fill="none" stroke="black" stroke-dasharray="5,2" d="M347,-136C370.075,-134.36 395.453,-134.463 417.8,-135.195"/>
<polygon fill="black" stroke="black" points="417.71,-138.694 427.835,-135.572 417.973,-131.699 417.71,-138.694"/>
</g>
<!-- program~integrate_lorenz -->
<g id="node8" class="node"><title>program~integrate_lorenz</title>
<a xlink:href="../program/integrate_lorenz.html" xlink:title="integrate_lorenz">
<polygon fill="#f0ad4e" stroke="#f0ad4e" points="525,-45 435,-45 435,-19 525,-19 525,-45"/>
<text text-anchor="middle" x="480" y="-29.55" font-family="Helvetica,sans-Serif" font-size="10.50" fill="white">integrate_lorenz</text>
</a>
</g>
<!-- module~foodie&#45;&gt;program~integrate_lorenz -->
<g id="edge20" class="edge"><title>module~foodie&#45;&gt;program~integrate_lorenz</title>
<path fill="none" stroke="black" stroke-dasharray="5,2" d="M250.362,-123C261.49,-108.533 281.42,-85.5457 304,-73 341.192,-52.336 388.37,-42.0595 424.516,-36.964"/>
<polygon fill="black" stroke="black" points="425.42,-40.3754 434.878,-35.6014 424.507,-33.4351 425.42,-40.3754"/>
</g>
<!-- module~type_lorenz -->
<g id="node9" class="node"><title>module~type_lorenz</title>
<a xlink:href="../module/type_lorenz.html" xlink:title="type_lorenz">
<polygon fill="#337ab7" stroke="#337ab7" points="381,-26 313,-26 313,-1.24345e-14 381,-3.55271e-15 381,-26"/>
<text text-anchor="middle" x="347" y="-10.55" font-family="Helvetica,sans-Serif" font-size="10.50" fill="white">type_lorenz</text>
</a>
</g>
<!-- module~foodie&#45;&gt;module~type_lorenz -->
<g id="edge22" class="edge"><title>module~foodie&#45;&gt;module~type_lorenz</title>
<path fill="none" stroke="black" stroke-dasharray="5,2" d="M247.254,-122.939C257.178,-103.204 278.089,-65.3964 304,-40 306.892,-37.1655 310.131,-34.4789 313.498,-31.9784"/>
<polygon fill="black" stroke="black" points="315.726,-34.6959 322.012,-26.1677 311.779,-28.9141 315.726,-34.6959"/>
</g>
<!-- module~type_oscillation -->
<g id="node10" class="node"><title>module~type_oscillation</title>
<a xlink:href="../module/type_oscillation.html" xlink:title="type_oscillation">
<polygon fill="#337ab7" stroke="#337ab7" points="389,-108 305,-108 305,-82 389,-82 389,-108"/>
<text text-anchor="middle" x="347" y="-92.55" font-family="Helvetica,sans-Serif" font-size="10.50" fill="white">type_oscillation</text>
</a>
</g>
<!-- module~foodie&#45;&gt;module~type_oscillation -->
<g id="edge24" class="edge"><title>module~foodie&#45;&gt;module~type_oscillation</title>
<path fill="none" stroke="black" stroke-dasharray="5,2" d="M268.023,-125.548C278.864,-121.354 291.632,-116.416 303.705,-111.746"/>
<polygon fill="black" stroke="black" points="305.124,-114.95 313.188,-108.078 302.598,-108.422 305.124,-114.95"/>
</g>
<!-- module~type_burgers&#45;&gt;program~integrate_burgers -->
<g id="edge2" class="edge"><title>module~type_burgers&#45;&gt;program~integrate_burgers</title>
<path fill="none" stroke="black" stroke-dasharray="5,2" d="M385.112,-252.982C396.387,-251.202 409.001,-249.21 421.259,-247.275"/>
<polygon fill="black" stroke="black" points="422.102,-250.685 431.434,-245.668 421.011,-243.771 422.102,-250.685"/>
</g>
<!-- module~type_euler_1d&#45;&gt;program~integrate_euler_1d -->
<g id="edge4" class="edge"><title>module~type_euler_1d&#45;&gt;program~integrate_euler_1d</title>
<path fill="none" stroke="black" stroke-dasharray="5,2" d="M388.353,-165.185C399.672,-161.951 412.131,-158.391 424.118,-154.966"/>
<polygon fill="black" stroke="black" points="425.386,-158.244 434.04,-152.131 423.463,-151.513 425.386,-158.244"/>
</g>
<!-- module~type_lorenz&#45;&gt;program~integrate_lorenz -->
<g id="edge6" class="edge"><title>module~type_lorenz&#45;&gt;program~integrate_lorenz</title>
<path fill="none" stroke="black" stroke-dasharray="5,2" d="M381.251,-17.893C394.508,-19.7869 410.022,-22.0032 424.774,-24.1105"/>
<polygon fill="black" stroke="black" points="424.433,-27.5973 434.827,-25.5468 425.423,-20.6676 424.433,-27.5973"/>
</g>
<!-- module~type_oscillation&#45;&gt;program~integrate_oscillation -->
<g id="edge8" class="edge"><title>module~type_oscillation&#45;&gt;program~integrate_oscillation</title>
<path fill="none" stroke="black" stroke-dasharray="5,2" d="M389.814,-95C398.11,-95 406.972,-95 415.781,-95"/>
<polygon fill="black" stroke="black" points="416.06,-98.5001 426.06,-95 416.06,-91.5001 416.06,-98.5001"/>
</g>
</g>
</svg>
