<?xml version="1.0" encoding="UTF-8" standalone="no"?>
<!DOCTYPE svg PUBLIC "-//W3C//DTD SVG 1.1//EN"
 "http://www.w3.org/Graphics/SVG/1.1/DTD/svg11.dtd">
<!-- Generated by graphviz version 2.38.0 (20140413.2041)
 -->
<!-- Title: proc~~save_plots~~CalledByGraph Pages: 1 -->
<svg width="311pt" height="116pt"
 viewBox="0.00 0.00 311.00 116.00" xmlns="http://www.w3.org/2000/svg" xmlns:xlink="http://www.w3.org/1999/xlink">
<g id="graph0" class="graph" transform="scale(1 1) rotate(0) translate(4 112)">
<title>proc~~save_plots~~CalledByGraph</title>
<polygon fill="white" stroke="none" points="-4,4 -4,-112 307,-112 307,4 -4,4"/>
<!-- proc~save_plots -->
<g id="node1" class="node"><title>proc~save_plots</title>
<polygon fill="none" stroke="black" points="303,-66 239,-66 239,-42 303,-42 303,-66"/>
<text text-anchor="middle" x="271" y="-51.6" font-family="Helvetica,sans-Serif" font-size="10.50">save_plots</text>
</g>
<!-- proc~test_euler -->
<g id="node2" class="node"><title>proc~test_euler</title>
<g id="a_node2"><a xlink:href="../proc/test_euler.html" xlink:title="test_euler">
<polygon fill="#d9534f" stroke="#d9534f" points="203,-108 143,-108 143,-84 203,-84 203,-108"/>
<text text-anchor="middle" x="173" y="-93.6" font-family="Helvetica,sans-Serif" font-size="10.50" fill="white">test_euler</text>
</a>
</g>
</g>
<!-- proc~test_euler&#45;&gt;proc~save_plots -->
<g id="edge4" class="edge"><title>proc~test_euler&#45;&gt;proc~save_plots</title>
<path fill="none" stroke="black" d="M201.51,-83.9645C211.351,-79.6588 222.607,-74.7342 233.112,-70.1384"/>
<polygon fill="black" stroke="black" points="234.728,-73.2521 242.486,-66.0373 231.922,-66.839 234.728,-73.2521"/>
</g>
<!-- proc~test_rk -->
<g id="node3" class="node"><title>proc~test_rk</title>
<g id="a_node3"><a xlink:href="../proc/test_rk.html" xlink:title="test_rk">
<polygon fill="#d9534f" stroke="#d9534f" points="200,-66 146,-66 146,-42 200,-42 200,-66"/>
<text text-anchor="middle" x="173" y="-51.6" font-family="Helvetica,sans-Serif" font-size="10.50" fill="white">test_rk</text>
</a>
</g>
</g>
<!-- proc~test_rk&#45;&gt;proc~save_plots -->
<g id="edge5" class="edge"><title>proc~test_rk&#45;&gt;proc~save_plots</title>
<path fill="none" stroke="black" d="M200.232,-54C208.957,-54 218.899,-54 228.489,-54"/>
<polygon fill="black" stroke="black" points="228.682,-57.5001 238.682,-54 228.682,-50.5001 228.682,-57.5001"/>
</g>
<!-- proc~test_ab -->
<g id="node4" class="node"><title>proc~test_ab</title>
<g id="a_node4"><a xlink:href="../proc/test_ab.html" xlink:title="test_ab">
<polygon fill="#d9534f" stroke="#d9534f" points="200,-24 146,-24 146,-0 200,-0 200,-24"/>
<text text-anchor="middle" x="173" y="-9.6" font-family="Helvetica,sans-Serif" font-size="10.50" fill="white">test_ab</text>
</a>
</g>
</g>
<!-- proc~test_ab&#45;&gt;proc~save_plots -->
<g id="edge6" class="edge"><title>proc~test_ab&#45;&gt;proc~save_plots</title>
<path fill="none" stroke="black" d="M200.232,-23.4767C210.366,-27.91 222.141,-33.0617 233.1,-37.8561"/>
<polygon fill="black" stroke="black" points="231.894,-41.1487 242.458,-41.9504 234.699,-34.7356 231.894,-41.1487"/>
</g>
<!-- program~integrate_oscillation -->
<g id="node5" class="node"><title>program~integrate_oscillation</title>
<g id="a_node5"><a xlink:href="../program/integrate_oscillation.html" xlink:title="integrate_oscillation">
<polygon fill="#f0ad4e" stroke="#f0ad4e" points="107,-66 0,-66 0,-42 107,-42 107,-66"/>
<text text-anchor="middle" x="53.5" y="-51.6" font-family="Helvetica,sans-Serif" font-size="10.50" fill="white">integrate_oscillation</text>
</a>
</g>
</g>
<!-- program~integrate_oscillation&#45;&gt;proc~test_euler -->
<g id="edge1" class="edge"><title>program~integrate_oscillation&#45;&gt;proc~test_euler</title>
<path fill="none" stroke="black" d="M88.1708,-66.0355C102.166,-71.0381 118.499,-76.8761 133.011,-82.0634"/>
<polygon fill="black" stroke="black" points="132.121,-85.4622 142.716,-85.5324 134.477,-78.8706 132.121,-85.4622"/>
</g>
<!-- program~integrate_oscillation&#45;&gt;proc~test_rk -->
<g id="edge2" class="edge"><title>program~integrate_oscillation&#45;&gt;proc~test_rk</title>
<path fill="none" stroke="black" d="M107.064,-54C116.726,-54 126.614,-54 135.666,-54"/>
<polygon fill="black" stroke="black" points="135.845,-57.5001 145.845,-54 135.845,-50.5001 135.845,-57.5001"/>
</g>
<!-- program~integrate_oscillation&#45;&gt;proc~test_ab -->
<g id="edge3" class="edge"><title>program~integrate_oscillation&#45;&gt;proc~test_ab</title>
<path fill="none" stroke="black" d="M88.1708,-41.9645C103.191,-36.5957 120.903,-30.2645 136.167,-24.8083"/>
<polygon fill="black" stroke="black" points="137.553,-28.0298 145.792,-21.368 135.197,-21.4382 137.553,-28.0298"/>
</g>
</g>
</svg>
