<?xml version="1.0" encoding="UTF-8" standalone="no"?>
<!DOCTYPE svg PUBLIC "-//W3C//DTD SVG 1.1//EN"
 "http://www.w3.org/Graphics/SVG/1.1/DTD/svg11.dtd">
<!-- Generated by graphviz version 2.26.3 (20100126.1600)
 -->
<!-- Title: proc~~a~~CalledByGraph Pages: 1 -->
<svg width="366pt" height="122pt"
 viewBox="0.00 0.00 366.00 122.00" xmlns="http://www.w3.org/2000/svg" xmlns:xlink="http://www.w3.org/1999/xlink">
<g id="graph1" class="graph" transform="scale(1 1) rotate(0) translate(4 118)">
<title>proc~~a~~CalledByGraph</title>
<polygon fill="white" stroke="white" points="-4,5 -4,-118 363,-118 363,5 -4,5"/>
<!-- proc~a -->
<g id="node1" class="node"><title>proc~a</title>
<polygon fill="none" stroke="black" points="358,-70 304,-70 304,-44 358,-44 358,-70"/>
<text text-anchor="middle" x="331" y="-54.55" font-family="Helvetica,sans-Serif" font-size="10.50">a</text>
</g>
<!-- proc~compute_dt~2 -->
<g id="node2" class="node"><title>proc~compute_dt~2</title>
<a xlink:href="../proc/compute_dt%7E2.html" xlink:title="compute_dt">
<polygon fill="#d94e8f" stroke="#d94e8f" points="263,-114 195,-114 195,-88 263,-88 263,-114"/>
<text text-anchor="middle" x="229" y="-98.55" font-family="Helvetica,sans-Serif" font-size="10.50" fill="white">compute_dt</text>
</a>
</g>
<!-- proc~compute_dt~2&#45;&gt;proc~a -->
<g id="edge6" class="edge"><title>proc~compute_dt~2&#45;&gt;proc~a</title>
<path fill="none" stroke="black" d="M259.327,-87.9177C270.338,-83.1679 282.896,-77.7506 294.392,-72.7917"/>
<polygon fill="black" stroke="black" points="295.945,-75.9334 303.741,-68.7587 293.173,-69.5059 295.945,-75.9334"/>
</g>
<!-- none~eigen_vect_r -->
<g id="node3" class="node"><title>none~eigen_vect_r</title>
<polygon fill="#d94e8f" stroke="#d94e8f" points="268,-70 190,-70 190,-44 268,-44 268,-70"/>
<text text-anchor="middle" x="229" y="-54.55" font-family="Helvetica,sans-Serif" font-size="10.50" fill="white">eigen_vect_R</text>
</g>
<!-- none~eigen_vect_r&#45;&gt;proc~a -->
<g id="edge8" class="edge"><title>none~eigen_vect_r&#45;&gt;proc~a</title>
<path fill="none" stroke="black" d="M268.144,-57C276.519,-57 285.345,-57 293.649,-57"/>
<polygon fill="black" stroke="black" points="293.817,-60.5001 303.817,-57 293.817,-53.5001 293.817,-60.5001"/>
</g>
<!-- none~eigen_vect_l -->
<g id="node4" class="node"><title>none~eigen_vect_l</title>
<polygon fill="#d94e8f" stroke="#d94e8f" points="267,-26 191,-26 191,-1.24345e-14 267,-3.55271e-15 267,-26"/>
<text text-anchor="middle" x="229" y="-10.55" font-family="Helvetica,sans-Serif" font-size="10.50" fill="white">eigen_vect_L</text>
</g>
<!-- none~eigen_vect_l&#45;&gt;proc~a -->
<g id="edge10" class="edge"><title>none~eigen_vect_l&#45;&gt;proc~a</title>
<path fill="none" stroke="black" d="M259.327,-26.0823C270.338,-30.8321 282.896,-36.2494 294.392,-41.2083"/>
<polygon fill="black" stroke="black" points="293.173,-44.4941 303.741,-45.2413 295.945,-38.0666 293.173,-44.4941"/>
</g>
<!-- proc~reconstruct_interfaces_states -->
<g id="node5" class="node"><title>proc~reconstruct_interfaces_states</title>
<a xlink:href="../proc/reconstruct_interfaces_states.html" xlink:title="reconstruct_interfaces_states">
<polygon fill="#d9534f" stroke="#d9534f" points="153,-48 1,-48 1,-22 153,-22 153,-48"/>
<text text-anchor="middle" x="77" y="-32.55" font-family="Helvetica,sans-Serif" font-size="10.50" fill="white">reconstruct_interfaces_states</text>
</a>
</g>
<!-- proc~reconstruct_interfaces_states&#45;&gt;none~eigen_vect_r -->
<g id="edge2" class="edge"><title>proc~reconstruct_interfaces_states&#45;&gt;none~eigen_vect_r</title>
<path fill="none" stroke="black" d="M153.891,-46.1289C162.79,-47.417 171.673,-48.7027 180.052,-49.9154"/>
<polygon fill="black" stroke="black" points="179.591,-53.385 189.989,-51.3537 180.593,-46.4572 179.591,-53.385"/>
</g>
<!-- proc~reconstruct_interfaces_states&#45;&gt;none~eigen_vect_l -->
<g id="edge4" class="edge"><title>proc~reconstruct_interfaces_states&#45;&gt;none~eigen_vect_l</title>
<path fill="none" stroke="black" d="M153.891,-23.8711C162.999,-22.5527 172.091,-21.2368 180.642,-19.9991"/>
<polygon fill="black" stroke="black" points="181.374,-23.4298 190.77,-18.5333 180.371,-16.502 181.374,-23.4298"/>
</g>
</g>
</svg>
