<?xml version="1.0" encoding="UTF-8" standalone="no"?>
<!DOCTYPE svg PUBLIC "-//W3C//DTD SVG 1.1//EN"
 "http://www.w3.org/Graphics/SVG/1.1/DTD/svg11.dtd">
<!-- Generated by graphviz version 2.26.3 (20100126.1600)
 -->
<!-- Title: proc~~save_time_serie~~CalledByGraph Pages: 1 -->
<svg width="336pt" height="122pt"
 viewBox="0.00 0.00 336.00 122.00" xmlns="http://www.w3.org/2000/svg" xmlns:xlink="http://www.w3.org/1999/xlink">
<g id="graph1" class="graph" transform="scale(1 1) rotate(0) translate(4 118)">
<title>proc~~save_time_serie~~CalledByGraph</title>
<polygon fill="white" stroke="white" points="-4,5 -4,-118 333,-118 333,5 -4,5"/>
<!-- proc~save_time_serie -->
<g id="node1" class="node"><title>proc~save_time_serie</title>
<polygon fill="none" stroke="black" points="327,-70 237,-70 237,-44 327,-44 327,-70"/>
<text text-anchor="middle" x="282" y="-54.55" font-family="Helvetica,sans-Serif" font-size="10.50">save_time_serie</text>
</g>
<!-- proc~test_euler~2 -->
<g id="node2" class="node"><title>proc~test_euler~2</title>
<a xlink:href="../proc/test_euler%7E2.html" xlink:title="test_euler">
<polygon fill="#d9534f" stroke="#d9534f" points="200,-114 140,-114 140,-88 200,-88 200,-114"/>
<text text-anchor="middle" x="170" y="-98.55" font-family="Helvetica,sans-Serif" font-size="10.50" fill="white">test_euler</text>
</a>
</g>
<!-- proc~test_euler~2&#45;&gt;proc~save_time_serie -->
<g id="edge8" class="edge"><title>proc~test_euler~2&#45;&gt;proc~save_time_serie</title>
<path fill="none" stroke="black" d="M200.014,-89.2088C212.111,-84.4565 226.286,-78.8877 239.416,-73.7295"/>
<polygon fill="black" stroke="black" points="240.719,-76.978 248.747,-70.0637 238.16,-70.4627 240.719,-76.978"/>
</g>
<!-- proc~test_ab~2 -->
<g id="node3" class="node"><title>proc~test_ab~2</title>
<a xlink:href="../proc/test_ab%7E2.html" xlink:title="test_ab">
<polygon fill="#d9534f" stroke="#d9534f" points="197,-70 143,-70 143,-44 197,-44 197,-70"/>
<text text-anchor="middle" x="170" y="-54.55" font-family="Helvetica,sans-Serif" font-size="10.50" fill="white">test_ab</text>
</a>
</g>
<!-- proc~test_ab~2&#45;&gt;proc~save_time_serie -->
<g id="edge10" class="edge"><title>proc~test_ab~2&#45;&gt;proc~save_time_serie</title>
<path fill="none" stroke="black" d="M197.112,-57C205.949,-57 216.108,-57 226.255,-57"/>
<polygon fill="black" stroke="black" points="226.349,-60.5001 236.349,-57 226.349,-53.5001 226.349,-60.5001"/>
</g>
<!-- proc~test_rk~2 -->
<g id="node4" class="node"><title>proc~test_rk~2</title>
<a xlink:href="../proc/test_rk%7E2.html" xlink:title="test_rk">
<polygon fill="#d9534f" stroke="#d9534f" points="197,-26 143,-26 143,-1.24345e-14 197,-3.55271e-15 197,-26"/>
<text text-anchor="middle" x="170" y="-10.55" font-family="Helvetica,sans-Serif" font-size="10.50" fill="white">test_rk</text>
</a>
</g>
<!-- proc~test_rk~2&#45;&gt;proc~save_time_serie -->
<g id="edge12" class="edge"><title>proc~test_rk~2&#45;&gt;proc~save_time_serie</title>
<path fill="none" stroke="black" d="M197.112,-23.6512C209.736,-28.6107 225.058,-34.6298 239.191,-40.1821"/>
<polygon fill="black" stroke="black" points="238.15,-43.5336 248.737,-43.9326 240.71,-37.0183 238.15,-43.5336"/>
</g>
<!-- program~integrate_euler_1d -->
<g id="node5" class="node"><title>program~integrate_euler_1d</title>
<a xlink:href="../program/integrate_euler_1d.html" xlink:title="integrate_euler_1D">
<polygon fill="#f0ad4e" stroke="#f0ad4e" points="104,-70 3.55271e-14,-70 0,-44 104,-44 104,-70"/>
<text text-anchor="middle" x="52" y="-54.55" font-family="Helvetica,sans-Serif" font-size="10.50" fill="white">integrate_euler_1D</text>
</a>
</g>
<!-- program~integrate_euler_1d&#45;&gt;proc~test_euler~2 -->
<g id="edge2" class="edge"><title>program~integrate_euler_1d&#45;&gt;proc~test_euler~2</title>
<path fill="none" stroke="black" d="M87.0844,-70.0823C100.663,-75.1456 116.276,-80.9674 130.266,-86.1839"/>
<polygon fill="black" stroke="black" points="129.054,-89.4674 139.647,-89.6819 131.5,-82.9085 129.054,-89.4674"/>
</g>
<!-- program~integrate_euler_1d&#45;&gt;proc~test_ab~2 -->
<g id="edge4" class="edge"><title>program~integrate_euler_1d&#45;&gt;proc~test_ab~2</title>
<path fill="none" stroke="black" d="M104.1,-57C113.685,-57 123.516,-57 132.563,-57"/>
<polygon fill="black" stroke="black" points="132.762,-60.5001 142.762,-57 132.762,-53.5001 132.762,-60.5001"/>
</g>
<!-- program~integrate_euler_1d&#45;&gt;proc~test_rk~2 -->
<g id="edge6" class="edge"><title>program~integrate_euler_1d&#45;&gt;proc~test_rk~2</title>
<path fill="none" stroke="black" d="M87.0844,-43.9177C101.546,-38.5251 118.316,-32.2721 132.974,-26.8063"/>
<polygon fill="black" stroke="black" points="134.583,-29.9416 142.73,-23.1683 132.138,-23.3828 134.583,-29.9416"/>
</g>
</g>
</svg>
