<?xml version="1.0" encoding="UTF-8" standalone="no"?>
<!DOCTYPE svg PUBLIC "-//W3C//DTD SVG 1.1//EN"
 "http://www.w3.org/Graphics/SVG/1.1/DTD/svg11.dtd">
<!-- Generated by graphviz version 2.26.3 (20100126.1600)
 -->
<!-- Title: proc~~save_results~2~~CalledByGraph Pages: 1 -->
<svg width="334pt" height="210pt"
 viewBox="0.00 0.00 334.00 210.00" xmlns="http://www.w3.org/2000/svg" xmlns:xlink="http://www.w3.org/1999/xlink">
<g id="graph1" class="graph" transform="scale(1 1) rotate(0) translate(4 206)">
<title>proc~~save_results~2~~CalledByGraph</title>
<polygon fill="white" stroke="white" points="-4,5 -4,-206 331,-206 331,5 -4,5"/>
<!-- proc~save_results~2 -->
<g id="node1" class="node"><title>proc~save_results~2</title>
<polygon fill="none" stroke="black" points="325,-114 253,-114 253,-88 325,-88 325,-114"/>
<text text-anchor="middle" x="289" y="-98.55" font-family="Helvetica,sans-Serif" font-size="10.50">save_results</text>
</g>
<!-- proc~test_ab~2 -->
<g id="node2" class="node"><title>proc~test_ab~2</title>
<a xlink:href="../proc/test_ab%7E2.html" xlink:title="test_ab">
<polygon fill="#d9534f" stroke="#d9534f" points="205,-202 151,-202 151,-176 205,-176 205,-202"/>
<text text-anchor="middle" x="178" y="-186.55" font-family="Helvetica,sans-Serif" font-size="10.50" fill="white">test_ab</text>
</a>
</g>
<!-- proc~test_ab~2&#45;&gt;proc~save_results~2 -->
<g id="edge12" class="edge"><title>proc~test_ab~2&#45;&gt;proc~save_results~2</title>
<path fill="none" stroke="black" d="M202.604,-175.773C207.167,-173.037 211.811,-170.054 216,-167 235.104,-153.073 254.884,-134.918 269.028,-121.176"/>
<polygon fill="black" stroke="black" points="271.595,-123.56 276.265,-114.05 266.684,-118.572 271.595,-123.56"/>
</g>
<!-- proc~test_tvd_rk~2 -->
<g id="node3" class="node"><title>proc~test_tvd_rk~2</title>
<a xlink:href="../proc/test_tvd_rk%7E2.html" xlink:title="test_tvd_rk">
<polygon fill="#d9534f" stroke="#d9534f" points="210,-158 146,-158 146,-132 210,-132 210,-158"/>
<text text-anchor="middle" x="178" y="-142.55" font-family="Helvetica,sans-Serif" font-size="10.50" fill="white">test_tvd_rk</text>
</a>
</g>
<!-- proc~test_tvd_rk~2&#45;&gt;proc~save_results~2 -->
<g id="edge14" class="edge"><title>proc~test_tvd_rk~2&#45;&gt;proc~save_results~2</title>
<path fill="none" stroke="black" d="M210.703,-132.037C222.006,-127.556 234.836,-122.47 246.792,-117.731"/>
<polygon fill="black" stroke="black" points="248.14,-120.962 256.147,-114.023 245.561,-114.454 248.14,-120.962"/>
</g>
<!-- proc~test_ls_rk~2 -->
<g id="node4" class="node"><title>proc~test_ls_rk~2</title>
<a xlink:href="../proc/test_ls_rk%7E2.html" xlink:title="test_ls_rk">
<polygon fill="#d9534f" stroke="#d9534f" points="207,-114 149,-114 149,-88 207,-88 207,-114"/>
<text text-anchor="middle" x="178" y="-98.55" font-family="Helvetica,sans-Serif" font-size="10.50" fill="white">test_ls_rk</text>
</a>
</g>
<!-- proc~test_ls_rk~2&#45;&gt;proc~save_results~2 -->
<g id="edge16" class="edge"><title>proc~test_ls_rk~2&#45;&gt;proc~save_results~2</title>
<path fill="none" stroke="black" d="M207.164,-101C217.895,-101 230.336,-101 242.228,-101"/>
<polygon fill="black" stroke="black" points="242.482,-104.5 252.481,-101 242.481,-97.5001 242.482,-104.5"/>
</g>
<!-- proc~test_leapfrog~2 -->
<g id="node5" class="node"><title>proc~test_leapfrog~2</title>
<a xlink:href="../proc/test_leapfrog%7E2.html" xlink:title="test_leapfrog">
<polygon fill="#d9534f" stroke="#d9534f" points="215,-70 141,-70 141,-44 215,-44 215,-70"/>
<text text-anchor="middle" x="178" y="-54.55" font-family="Helvetica,sans-Serif" font-size="10.50" fill="white">test_leapfrog</text>
</a>
</g>
<!-- proc~test_leapfrog~2&#45;&gt;proc~save_results~2 -->
<g id="edge18" class="edge"><title>proc~test_leapfrog~2&#45;&gt;proc~save_results~2</title>
<path fill="none" stroke="black" d="M211.003,-70.0823C222.087,-74.4758 234.611,-79.4405 246.329,-84.0853"/>
<polygon fill="black" stroke="black" points="245.346,-87.4607 255.932,-87.8921 247.926,-80.9533 245.346,-87.4607"/>
</g>
<!-- proc~test_euler~2 -->
<g id="node6" class="node"><title>proc~test_euler~2</title>
<a xlink:href="../proc/test_euler%7E2.html" xlink:title="test_euler">
<polygon fill="#d9534f" stroke="#d9534f" points="208,-26 148,-26 148,-1.24345e-14 208,-3.55271e-15 208,-26"/>
<text text-anchor="middle" x="178" y="-10.55" font-family="Helvetica,sans-Serif" font-size="10.50" fill="white">test_euler</text>
</a>
</g>
<!-- proc~test_euler~2&#45;&gt;proc~save_results~2 -->
<g id="edge20" class="edge"><title>proc~test_euler~2&#45;&gt;proc~save_results~2</title>
<path fill="none" stroke="black" d="M202.604,-26.2273C207.167,-28.9626 211.811,-31.9463 216,-35 235.104,-48.9274 254.884,-67.0817 269.028,-80.8243"/>
<polygon fill="black" stroke="black" points="266.684,-83.4283 276.265,-87.9503 271.595,-78.4403 266.684,-83.4283"/>
</g>
<!-- program~integrate_euler_1d -->
<g id="node7" class="node"><title>program~integrate_euler_1d</title>
<a xlink:href="../program/integrate_euler_1d.html" xlink:title="integrate_euler_1D">
<polygon fill="#f0ad4e" stroke="#f0ad4e" points="104,-114 3.55271e-14,-114 0,-88 104,-88 104,-114"/>
<text text-anchor="middle" x="52" y="-98.55" font-family="Helvetica,sans-Serif" font-size="10.50" fill="white">integrate_euler_1D</text>
</a>
</g>
<!-- program~integrate_euler_1d&#45;&gt;proc~test_ab~2 -->
<g id="edge2" class="edge"><title>program~integrate_euler_1d&#45;&gt;proc~test_ab~2</title>
<path fill="none" stroke="black" d="M68.1221,-114.005C85.4573,-127.77 114.033,-149.833 140,-167 141.86,-168.23 143.791,-169.466 145.753,-170.69"/>
<polygon fill="black" stroke="black" points="144.054,-173.753 154.423,-175.933 147.677,-167.763 144.054,-173.753"/>
</g>
<!-- program~integrate_euler_1d&#45;&gt;proc~test_tvd_rk~2 -->
<g id="edge4" class="edge"><title>program~integrate_euler_1d&#45;&gt;proc~test_tvd_rk~2</title>
<path fill="none" stroke="black" d="M89.463,-114.082C103.983,-119.153 120.681,-124.984 135.635,-130.206"/>
<polygon fill="black" stroke="black" points="134.575,-133.543 145.17,-133.536 136.883,-126.934 134.575,-133.543"/>
</g>
<!-- program~integrate_euler_1d&#45;&gt;proc~test_ls_rk~2 -->
<g id="edge6" class="edge"><title>program~integrate_euler_1d&#45;&gt;proc~test_ls_rk~2</title>
<path fill="none" stroke="black" d="M104.341,-101C115.818,-101 127.782,-101 138.648,-101"/>
<polygon fill="black" stroke="black" points="138.677,-104.5 148.677,-101 138.677,-97.5001 138.677,-104.5"/>
</g>
<!-- program~integrate_euler_1d&#45;&gt;proc~test_leapfrog~2 -->
<g id="edge8" class="edge"><title>program~integrate_euler_1d&#45;&gt;proc~test_leapfrog~2</title>
<path fill="none" stroke="black" d="M89.463,-87.9177C102.422,-83.3923 117.116,-78.2611 130.757,-73.4975"/>
<polygon fill="black" stroke="black" points="132.177,-76.7091 140.464,-70.1079 129.869,-70.1005 132.177,-76.7091"/>
</g>
<!-- program~integrate_euler_1d&#45;&gt;proc~test_euler~2 -->
<g id="edge10" class="edge"><title>program~integrate_euler_1d&#45;&gt;proc~test_euler~2</title>
<path fill="none" stroke="black" d="M68.1221,-87.9946C85.4573,-74.23 114.033,-52.167 140,-35 141.86,-33.7703 143.791,-32.5344 145.753,-31.3098"/>
<polygon fill="black" stroke="black" points="147.677,-34.2366 154.423,-26.067 144.054,-28.2466 147.677,-34.2366"/>
</g>
</g>
</svg>
