<?xml version="1.0" encoding="UTF-8" standalone="no"?>
<!DOCTYPE svg PUBLIC "-//W3C//DTD SVG 1.1//EN"
 "http://www.w3.org/Graphics/SVG/1.1/DTD/svg11.dtd">
<!-- Generated by graphviz version 2.26.3 (20100126.1600)
 -->
<!-- Title: proc~~save_results~3~~CallsGraph Pages: 1 -->
<svg width="172pt" height="34pt"
 viewBox="0.00 0.00 172.00 34.00" xmlns="http://www.w3.org/2000/svg" xmlns:xlink="http://www.w3.org/1999/xlink">
<g id="graph1" class="graph" transform="scale(1 1) rotate(0) translate(4 30)">
<title>proc~~save_results~3~~CallsGraph</title>
<polygon fill="white" stroke="white" points="-4,5 -4,-30 169,-30 169,5 -4,5"/>
<!-- proc~save_results~3 -->
<g id="node1" class="node"><title>proc~save_results~3</title>
<polygon fill="none" stroke="black" points="73,-26 1,-26 1,-1.24345e-14 73,-3.55271e-15 73,-26"/>
<text text-anchor="middle" x="37" y="-10.55" font-family="Helvetica,sans-Serif" font-size="10.50">save_results</text>
</g>
<!-- str -->
<g id="node2" class="node"><title>str</title>
<polygon fill="#777777" stroke="#777777" points="164,-26 110,-26 110,-1.24345e-14 164,-3.55271e-15 164,-26"/>
<text text-anchor="middle" x="137" y="-10.55" font-family="Helvetica,sans-Serif" font-size="10.50" fill="white">str</text>
</g>
<!-- proc~save_results~3&#45;&gt;str -->
<g id="edge2" class="edge"><title>proc~save_results~3&#45;&gt;str</title>
<path fill="none" stroke="black" d="M73.6685,-13C82.1491,-13 91.1818,-13 99.6895,-13"/>
<polygon fill="black" stroke="black" points="99.7345,-16.5001 109.734,-13 99.7344,-9.5001 99.7345,-16.5001"/>
</g>
</g>
</svg>
