<?xml version="1.0" encoding="UTF-8" standalone="no"?>
<!DOCTYPE svg PUBLIC "-//W3C//DTD SVG 1.1//EN"
 "http://www.w3.org/Graphics/SVG/1.1/DTD/svg11.dtd">
<!-- Generated by graphviz version 2.26.3 (20100126.1600)
 -->
<!-- Title: proc~~reconstruct_interfaces_states~~CallsGraph Pages: 1 -->
<svg width="366pt" height="254pt"
 viewBox="0.00 0.00 366.00 254.00" xmlns="http://www.w3.org/2000/svg" xmlns:xlink="http://www.w3.org/1999/xlink">
<g id="graph1" class="graph" transform="scale(1 1) rotate(0) translate(4 250)">
<title>proc~~reconstruct_interfaces_states~~CallsGraph</title>
<polygon fill="white" stroke="white" points="-4,5 -4,-250 363,-250 363,5 -4,5"/>
<!-- proc~reconstruct_interfaces_states -->
<g id="node1" class="node"><title>proc~reconstruct_interfaces_states</title>
<polygon fill="none" stroke="black" points="153,-136 1,-136 1,-110 153,-110 153,-136"/>
<text text-anchor="middle" x="77" y="-120.55" font-family="Helvetica,sans-Serif" font-size="10.50">reconstruct_interfaces_states</text>
</g>
<!-- none~eigen_vect_l -->
<g id="node2" class="node"><title>none~eigen_vect_l</title>
<polygon fill="#d94e8f" stroke="#d94e8f" points="267,-246 191,-246 191,-220 267,-220 267,-246"/>
<text text-anchor="middle" x="229" y="-230.55" font-family="Helvetica,sans-Serif" font-size="10.50" fill="white">eigen_vect_L</text>
</g>
<!-- proc~reconstruct_interfaces_states&#45;&gt;none~eigen_vect_l -->
<g id="edge10" class="edge"><title>proc~reconstruct_interfaces_states&#45;&gt;none~eigen_vect_l</title>
<path fill="none" stroke="black" d="M92.538,-136.302C113.826,-154.243 153.578,-186.738 190,-211 191.84,-212.226 193.752,-213.45 195.698,-214.659"/>
<polygon fill="black" stroke="black" points="193.946,-217.689 204.325,-219.813 197.535,-211.68 193.946,-217.689"/>
</g>
<!-- rpm -->
<g id="node3" class="node"><title>rpm</title>
<polygon fill="#777777" stroke="#777777" points="256,-202 202,-202 202,-176 256,-176 256,-202"/>
<text text-anchor="middle" x="229" y="-186.55" font-family="Helvetica,sans-Serif" font-size="10.50" fill="white">rpm</text>
</g>
<!-- proc~reconstruct_interfaces_states&#45;&gt;rpm -->
<g id="edge12" class="edge"><title>proc~reconstruct_interfaces_states&#45;&gt;rpm</title>
<path fill="none" stroke="black" d="M107.03,-136.039C131.611,-146.713 166.468,-161.848 192.628,-173.207"/>
<polygon fill="black" stroke="black" points="191.271,-176.433 201.838,-177.206 194.059,-170.013 191.271,-176.433"/>
</g>
<!-- none~eigen_vect_r -->
<g id="node4" class="node"><title>none~eigen_vect_r</title>
<polygon fill="#d94e8f" stroke="#d94e8f" points="268,-158 190,-158 190,-132 268,-132 268,-158"/>
<text text-anchor="middle" x="229" y="-142.55" font-family="Helvetica,sans-Serif" font-size="10.50" fill="white">eigen_vect_R</text>
</g>
<!-- proc~reconstruct_interfaces_states&#45;&gt;none~eigen_vect_r -->
<g id="edge14" class="edge"><title>proc~reconstruct_interfaces_states&#45;&gt;none~eigen_vect_r</title>
<path fill="none" stroke="black" d="M153.891,-134.129C162.79,-135.417 171.673,-136.703 180.052,-137.915"/>
<polygon fill="black" stroke="black" points="179.591,-141.385 189.989,-139.354 180.593,-134.457 179.591,-141.385"/>
</g>
<!-- cr -->
<g id="node5" class="node"><title>cr</title>
<polygon fill="#777777" stroke="#777777" points="256,-114 202,-114 202,-88 256,-88 256,-114"/>
<text text-anchor="middle" x="229" y="-98.55" font-family="Helvetica,sans-Serif" font-size="10.50" fill="white">cr</text>
</g>
<!-- proc~reconstruct_interfaces_states&#45;&gt;cr -->
<g id="edge16" class="edge"><title>proc~reconstruct_interfaces_states&#45;&gt;cr</title>
<path fill="none" stroke="black" d="M153.891,-111.871C167.083,-109.962 180.239,-108.058 191.769,-106.389"/>
<polygon fill="black" stroke="black" points="192.46,-109.825 201.856,-104.929 191.457,-102.897 192.46,-109.825"/>
</g>
<!-- pm -->
<g id="node6" class="node"><title>pm</title>
<polygon fill="#777777" stroke="#777777" points="256,-70 202,-70 202,-44 256,-44 256,-70"/>
<text text-anchor="middle" x="229" y="-54.55" font-family="Helvetica,sans-Serif" font-size="10.50" fill="white">pm</text>
</g>
<!-- proc~reconstruct_interfaces_states&#45;&gt;pm -->
<g id="edge18" class="edge"><title>proc~reconstruct_interfaces_states&#45;&gt;pm</title>
<path fill="none" stroke="black" d="M107.03,-109.961C131.611,-99.2873 166.468,-84.1519 192.628,-72.7929"/>
<polygon fill="black" stroke="black" points="194.059,-75.9875 201.838,-68.7941 191.271,-69.5666 194.059,-75.9875"/>
</g>
<!-- lpm -->
<g id="node7" class="node"><title>lpm</title>
<polygon fill="#777777" stroke="#777777" points="256,-26 202,-26 202,-1.24345e-14 256,-3.55271e-15 256,-26"/>
<text text-anchor="middle" x="229" y="-10.55" font-family="Helvetica,sans-Serif" font-size="10.50" fill="white">lpm</text>
</g>
<!-- proc~reconstruct_interfaces_states&#45;&gt;lpm -->
<g id="edge20" class="edge"><title>proc~reconstruct_interfaces_states&#45;&gt;lpm</title>
<path fill="none" stroke="black" d="M92.538,-109.698C113.826,-91.7573 153.578,-59.2617 190,-35 191.84,-33.7744 193.752,-32.5497 195.698,-31.3406"/>
<polygon fill="black" stroke="black" points="197.535,-34.3202 204.325,-26.1872 193.946,-28.3107 197.535,-34.3202"/>
</g>
<!-- proc~a -->
<g id="node8" class="node"><title>proc~a</title>
<a xlink:href="../proc/a.html" xlink:title="a">
<polygon fill="#d94e8f" stroke="#d94e8f" points="358,-202 304,-202 304,-176 358,-176 358,-202"/>
<text text-anchor="middle" x="331" y="-186.55" font-family="Helvetica,sans-Serif" font-size="10.50" fill="white">a</text>
</a>
</g>
<!-- none~eigen_vect_l&#45;&gt;proc~a -->
<g id="edge2" class="edge"><title>none~eigen_vect_l&#45;&gt;proc~a</title>
<path fill="none" stroke="black" d="M259.327,-219.918C270.338,-215.168 282.896,-209.751 294.392,-204.792"/>
<polygon fill="black" stroke="black" points="295.945,-207.933 303.741,-200.759 293.173,-201.506 295.945,-207.933"/>
</g>
<!-- l -->
<g id="node9" class="node"><title>l</title>
<polygon fill="#777777" stroke="#777777" points="358,-246 304,-246 304,-220 358,-220 358,-246"/>
<text text-anchor="middle" x="331" y="-230.55" font-family="Helvetica,sans-Serif" font-size="10.50" fill="white">l</text>
</g>
<!-- none~eigen_vect_l&#45;&gt;l -->
<g id="edge4" class="edge"><title>none~eigen_vect_l&#45;&gt;l</title>
<path fill="none" stroke="black" d="M267.271,-233C275.952,-233 285.158,-233 293.794,-233"/>
<polygon fill="black" stroke="black" points="293.971,-236.5 303.971,-233 293.971,-229.5 293.971,-236.5"/>
</g>
<!-- none~eigen_vect_r&#45;&gt;proc~a -->
<g id="edge6" class="edge"><title>none~eigen_vect_r&#45;&gt;proc~a</title>
<path fill="none" stroke="black" d="M259.327,-158.082C270.338,-162.832 282.896,-168.249 294.392,-173.208"/>
<polygon fill="black" stroke="black" points="293.173,-176.494 303.741,-177.241 295.945,-170.067 293.173,-176.494"/>
</g>
<!-- proc~r -->
<g id="node12" class="node"><title>proc~r</title>
<a xlink:href="../proc/r.html" xlink:title="r">
<polygon fill="#d94e8f" stroke="#d94e8f" points="358,-158 304,-158 304,-132 358,-132 358,-158"/>
<text text-anchor="middle" x="331" y="-142.55" font-family="Helvetica,sans-Serif" font-size="10.50" fill="white">r</text>
</a>
</g>
<!-- none~eigen_vect_r&#45;&gt;proc~r -->
<g id="edge8" class="edge"><title>none~eigen_vect_r&#45;&gt;proc~r</title>
<path fill="none" stroke="black" d="M268.144,-145C276.519,-145 285.345,-145 293.649,-145"/>
<polygon fill="black" stroke="black" points="293.817,-148.5 303.817,-145 293.817,-141.5 293.817,-148.5"/>
</g>
</g>
</svg>
