<?xml version="1.0" encoding="UTF-8" standalone="no"?>
<!DOCTYPE svg PUBLIC "-//W3C//DTD SVG 1.1//EN"
 "http://www.w3.org/Graphics/SVG/1.1/DTD/svg11.dtd">
<!-- Generated by graphviz version 2.26.3 (20100126.1600)
 -->
<!-- Title: proc~~p~~CalledByGraph Pages: 1 -->
<svg width="168pt" height="78pt"
 viewBox="0.00 0.00 168.00 78.00" xmlns="http://www.w3.org/2000/svg" xmlns:xlink="http://www.w3.org/1999/xlink">
<g id="graph1" class="graph" transform="scale(1 1) rotate(0) translate(4 74)">
<title>proc~~p~~CalledByGraph</title>
<polygon fill="white" stroke="white" points="-4,5 -4,-74 165,-74 165,5 -4,5"/>
<!-- proc~p -->
<g id="node1" class="node"><title>proc~p</title>
<polygon fill="none" stroke="black" points="160,-48 106,-48 106,-22 160,-22 160,-48"/>
<text text-anchor="middle" x="133" y="-32.55" font-family="Helvetica,sans-Serif" font-size="10.50">p</text>
</g>
<!-- proc~compute_dt~2 -->
<g id="node2" class="node"><title>proc~compute_dt~2</title>
<a xlink:href="../proc/compute_dt%7E2.html" xlink:title="compute_dt">
<polygon fill="#d94e8f" stroke="#d94e8f" points="69,-70 1,-70 1,-44 69,-44 69,-70"/>
<text text-anchor="middle" x="35" y="-54.55" font-family="Helvetica,sans-Serif" font-size="10.50" fill="white">compute_dt</text>
</a>
</g>
<!-- proc~compute_dt~2&#45;&gt;proc~p -->
<g id="edge2" class="edge"><title>proc~compute_dt~2&#45;&gt;proc~p</title>
<path fill="none" stroke="black" d="M69.5511,-49.2436C78.1065,-47.323 87.3072,-45.2576 95.9754,-43.3117"/>
<polygon fill="black" stroke="black" points="96.8452,-46.7036 105.836,-41.0981 95.3119,-39.8736 96.8452,-46.7036"/>
</g>
<!-- proc~deuler_dt -->
<g id="node3" class="node"><title>proc~deuler_dt</title>
<a xlink:href="../proc/deuler_dt.html" xlink:title="dEuler_dt">
<polygon fill="#d94e8f" stroke="#d94e8f" points="64,-26 6,-26 6,-1.24345e-14 64,-3.55271e-15 64,-26"/>
<text text-anchor="middle" x="35" y="-10.55" font-family="Helvetica,sans-Serif" font-size="10.50" fill="white">dEuler_dt</text>
</a>
</g>
<!-- proc~deuler_dt&#45;&gt;proc~p -->
<g id="edge4" class="edge"><title>proc~deuler_dt&#45;&gt;proc~p</title>
<path fill="none" stroke="black" d="M64.1379,-19.5412C74.143,-21.7872 85.478,-24.3318 96.0215,-26.6987"/>
<polygon fill="black" stroke="black" points="95.2946,-30.1226 105.818,-28.898 96.828,-23.2926 95.2946,-30.1226"/>
</g>
</g>
</svg>
