<?xml version="1.0" encoding="UTF-8" standalone="no"?>
<!DOCTYPE svg PUBLIC "-//W3C//DTD SVG 1.1//EN"
 "http://www.w3.org/Graphics/SVG/1.1/DTD/svg11.dtd">
<!-- Generated by graphviz version 2.26.3 (20100126.1600)
 -->
<!-- Title: proc~~save_results~2~~CalledByGraph Pages: 1 -->
<svg width="268pt" height="34pt"
 viewBox="0.00 0.00 268.00 34.00" xmlns="http://www.w3.org/2000/svg" xmlns:xlink="http://www.w3.org/1999/xlink">
<g id="graph1" class="graph" transform="scale(1 1) rotate(0) translate(4 30)">
<title>proc~~save_results~2~~CalledByGraph</title>
<polygon fill="white" stroke="white" points="-4,5 -4,-30 265,-30 265,5 -4,5"/>
<!-- proc~save_results~2 -->
<g id="node1" class="node"><title>proc~save_results~2</title>
<polygon fill="none" stroke="black" points="259,-26 187,-26 187,-1.24345e-14 259,-3.55271e-15 259,-26"/>
<text text-anchor="middle" x="223" y="-10.55" font-family="Helvetica,sans-Serif" font-size="10.50">save_results</text>
</g>
<!-- program~integrate_euler_1d_openmp -->
<g id="node2" class="node"><title>program~integrate_euler_1d_openmp</title>
<a xlink:href="../program/integrate_euler_1d_openmp.html" xlink:title="integrate_euler_1D_openmp">
<polygon fill="#f0ad4e" stroke="#f0ad4e" points="149,-26 1,-26 1,-1.24345e-14 149,-3.55271e-15 149,-26"/>
<text text-anchor="middle" x="75" y="-10.55" font-family="Helvetica,sans-Serif" font-size="10.50" fill="white">integrate_euler_1D_openmp</text>
</a>
</g>
<!-- program~integrate_euler_1d_openmp&#45;&gt;proc~save_results~2 -->
<g id="edge2" class="edge"><title>program~integrate_euler_1d_openmp&#45;&gt;proc~save_results~2</title>
<path fill="none" stroke="black" d="M149.867,-13C158.74,-13 167.595,-13 175.924,-13"/>
<polygon fill="black" stroke="black" points="176.154,-16.5001 186.154,-13 176.154,-9.5001 176.154,-16.5001"/>
</g>
</g>
</svg>
