<?xml version="1.0" encoding="UTF-8" standalone="no"?>
<!DOCTYPE svg PUBLIC "-//W3C//DTD SVG 1.1//EN"
 "http://www.w3.org/Graphics/SVG/1.1/DTD/svg11.dtd">
<!-- Generated by graphviz version 2.26.3 (20100126.1600)
 -->
<!-- Title: proc~~compute_dt~2~~CallsGraph Pages: 1 -->
<svg width="168pt" height="78pt"
 viewBox="0.00 0.00 168.00 78.00" xmlns="http://www.w3.org/2000/svg" xmlns:xlink="http://www.w3.org/1999/xlink">
<g id="graph1" class="graph" transform="scale(1 1) rotate(0) translate(4 74)">
<title>proc~~compute_dt~2~~CallsGraph</title>
<polygon fill="white" stroke="white" points="-4,5 -4,-74 165,-74 165,5 -4,5"/>
<!-- proc~compute_dt~2 -->
<g id="node1" class="node"><title>proc~compute_dt~2</title>
<polygon fill="none" stroke="black" points="69,-48 1,-48 1,-22 69,-22 69,-48"/>
<text text-anchor="middle" x="35" y="-32.55" font-family="Helvetica,sans-Serif" font-size="10.50">compute_dt</text>
</g>
<!-- proc~a -->
<g id="node2" class="node"><title>proc~a</title>
<a xlink:href="../proc/a.html" xlink:title="a">
<polygon fill="#d94e8f" stroke="#d94e8f" points="160,-70 106,-70 106,-44 160,-44 160,-70"/>
<text text-anchor="middle" x="133" y="-54.55" font-family="Helvetica,sans-Serif" font-size="10.50" fill="white">a</text>
</a>
</g>
<!-- proc~compute_dt~2&#45;&gt;proc~a -->
<g id="edge2" class="edge"><title>proc~compute_dt~2&#45;&gt;proc~a</title>
<path fill="none" stroke="black" d="M69.5511,-42.7564C78.1065,-44.677 87.3072,-46.7424 95.9754,-48.6883"/>
<polygon fill="black" stroke="black" points="95.3119,-52.1264 105.836,-50.9019 96.8452,-45.2964 95.3119,-52.1264"/>
</g>
<!-- proc~p -->
<g id="node3" class="node"><title>proc~p</title>
<a xlink:href="../proc/p.html" xlink:title="p">
<polygon fill="#d94e8f" stroke="#d94e8f" points="160,-26 106,-26 106,-1.24345e-14 160,-3.55271e-15 160,-26"/>
<text text-anchor="middle" x="133" y="-10.55" font-family="Helvetica,sans-Serif" font-size="10.50" fill="white">p</text>
</a>
</g>
<!-- proc~compute_dt~2&#45;&gt;proc~p -->
<g id="edge4" class="edge"><title>proc~compute_dt~2&#45;&gt;proc~p</title>
<path fill="none" stroke="black" d="M69.5511,-27.2436C78.1065,-25.323 87.3072,-23.2576 95.9754,-21.3117"/>
<polygon fill="black" stroke="black" points="96.8452,-24.7036 105.836,-19.0981 95.3119,-17.8736 96.8452,-24.7036"/>
</g>
</g>
</svg>
