<?xml version="1.0" encoding="UTF-8" standalone="no"?>
<!DOCTYPE svg PUBLIC "-//W3C//DTD SVG 1.1//EN"
 "http://www.w3.org/Graphics/SVG/1.1/DTD/svg11.dtd">
<!-- Generated by graphviz version 2.26.3 (20100126.1600)
 -->
<!-- Title: proc~~riemann_solver~~CallsGraph Pages: 1 -->
<svg width="336pt" height="232pt"
 viewBox="0.00 0.00 336.00 232.00" xmlns="http://www.w3.org/2000/svg" xmlns:xlink="http://www.w3.org/1999/xlink">
<g id="graph1" class="graph" transform="scale(1 1) rotate(0) translate(4 228)">
<title>proc~~riemann_solver~~CallsGraph</title>
<polygon fill="white" stroke="white" points="-4,5 -4,-228 333,-228 333,5 -4,5"/>
<!-- proc~riemann_solver -->
<g id="node1" class="node"><title>proc~riemann_solver</title>
<polygon fill="none" stroke="black" points="86,-136 4.26326e-14,-136 0,-110 86,-110 86,-136"/>
<text text-anchor="middle" x="43" y="-120.55" font-family="Helvetica,sans-Serif" font-size="10.50">riemann_solver</text>
</g>
<!-- proc~compute_inter_states -->
<g id="node2" class="node"><title>proc~compute_inter_states</title>
<a xlink:href="../proc/compute_inter_states.html" xlink:title="compute_inter_states">
<polygon fill="#d9534f" stroke="#d9534f" points="237,-224 123,-224 123,-198 237,-198 237,-224"/>
<text text-anchor="middle" x="180" y="-208.55" font-family="Helvetica,sans-Serif" font-size="10.50" fill="white">compute_inter_states</text>
</a>
</g>
<!-- proc~riemann_solver&#45;&gt;proc~compute_inter_states -->
<g id="edge6" class="edge"><title>proc~riemann_solver&#45;&gt;proc~compute_inter_states</title>
<path fill="none" stroke="black" d="M55.9317,-136.182C70.777,-150.717 96.3919,-174.021 122,-189 124.835,-190.658 127.818,-192.234 130.873,-193.723"/>
<polygon fill="black" stroke="black" points="129.626,-197 140.18,-197.926 132.507,-190.62 129.626,-197"/>
</g>
<!-- f4 -->
<g id="node3" class="node"><title>f4</title>
<polygon fill="#777777" stroke="#777777" points="207,-180 153,-180 153,-154 207,-154 207,-180"/>
<text text-anchor="middle" x="180" y="-164.55" font-family="Helvetica,sans-Serif" font-size="10.50" fill="white">f4</text>
</g>
<!-- proc~riemann_solver&#45;&gt;f4 -->
<g id="edge8" class="edge"><title>proc~riemann_solver&#45;&gt;f4</title>
<path fill="none" stroke="black" d="M83.7336,-136.082C102.501,-142.11 124.615,-149.212 142.913,-155.089"/>
<polygon fill="black" stroke="black" points="142.049,-158.487 152.64,-158.213 144.189,-151.823 142.049,-158.487"/>
</g>
<!-- f1 -->
<g id="node4" class="node"><title>f1</title>
<polygon fill="#777777" stroke="#777777" points="207,-136 153,-136 153,-110 207,-110 207,-136"/>
<text text-anchor="middle" x="180" y="-120.55" font-family="Helvetica,sans-Serif" font-size="10.50" fill="white">f1</text>
</g>
<!-- proc~riemann_solver&#45;&gt;f1 -->
<g id="edge10" class="edge"><title>proc~riemann_solver&#45;&gt;f1</title>
<path fill="none" stroke="black" d="M86.3477,-123C104.395,-123 125.147,-123 142.523,-123"/>
<polygon fill="black" stroke="black" points="142.851,-126.5 152.851,-123 142.851,-119.5 142.851,-126.5"/>
</g>
<!-- proc~e -->
<g id="node5" class="node"><title>proc~e</title>
<a xlink:href="../proc/e.html" xlink:title="E">
<polygon fill="#d94e8f" stroke="#d94e8f" points="207,-92 153,-92 153,-66 207,-66 207,-92"/>
<text text-anchor="middle" x="180" y="-76.55" font-family="Helvetica,sans-Serif" font-size="10.50" fill="white">E</text>
</a>
</g>
<!-- proc~riemann_solver&#45;&gt;proc~e -->
<g id="edge12" class="edge"><title>proc~riemann_solver&#45;&gt;proc~e</title>
<path fill="none" stroke="black" d="M83.7336,-109.918C102.501,-103.89 124.615,-96.7878 142.913,-90.9112"/>
<polygon fill="black" stroke="black" points="144.189,-94.1774 152.64,-87.7872 142.049,-87.5127 144.189,-94.1774"/>
</g>
<!-- none~fluxes -->
<g id="node6" class="node"><title>none~fluxes</title>
<polygon fill="#d94e8f" stroke="#d94e8f" points="207,-48 153,-48 153,-22 207,-22 207,-48"/>
<text text-anchor="middle" x="180" y="-32.55" font-family="Helvetica,sans-Serif" font-size="10.50" fill="white">fluxes</text>
</g>
<!-- proc~riemann_solver&#45;&gt;none~fluxes -->
<g id="edge14" class="edge"><title>proc~riemann_solver&#45;&gt;none~fluxes</title>
<path fill="none" stroke="black" d="M55.9317,-109.818C70.777,-95.2831 96.3919,-71.9789 122,-57 128.583,-53.1496 135.962,-49.746 143.192,-46.8367"/>
<polygon fill="black" stroke="black" points="144.754,-49.9882 152.872,-43.1802 142.281,-43.4398 144.754,-49.9882"/>
</g>
<!-- fc -->
<g id="node7" class="node"><title>fc</title>
<polygon fill="#777777" stroke="#777777" points="328,-70 274,-70 274,-44 328,-44 328,-70"/>
<text text-anchor="middle" x="301" y="-54.55" font-family="Helvetica,sans-Serif" font-size="10.50" fill="white">fc</text>
</g>
<!-- none~fluxes&#45;&gt;fc -->
<g id="edge2" class="edge"><title>none~fluxes&#45;&gt;fc</title>
<path fill="none" stroke="black" d="M207.155,-39.9372C223.891,-42.9802 245.578,-46.9233 263.887,-50.2523"/>
<polygon fill="black" stroke="black" points="263.471,-53.7339 273.936,-52.0792 264.723,-46.8468 263.471,-53.7339"/>
</g>
<!-- proc~h -->
<g id="node8" class="node"><title>proc~h</title>
<a xlink:href="../proc/h.html" xlink:title="H">
<polygon fill="#d94e8f" stroke="#d94e8f" points="328,-26 274,-26 274,-1.24345e-14 328,-3.55271e-15 328,-26"/>
<text text-anchor="middle" x="301" y="-10.55" font-family="Helvetica,sans-Serif" font-size="10.50" fill="white">H</text>
</a>
</g>
<!-- none~fluxes&#45;&gt;proc~h -->
<g id="edge4" class="edge"><title>none~fluxes&#45;&gt;proc~h</title>
<path fill="none" stroke="black" d="M207.155,-30.0628C223.891,-27.0198 245.578,-23.0767 263.887,-19.7477"/>
<polygon fill="black" stroke="black" points="264.723,-23.1532 273.936,-17.9208 263.471,-16.2661 264.723,-23.1532"/>
</g>
</g>
</svg>
