<?xml version="1.0" encoding="UTF-8" standalone="no"?>
<!DOCTYPE svg PUBLIC "-//W3C//DTD SVG 1.1//EN"
 "http://www.w3.org/Graphics/SVG/1.1/DTD/svg11.dtd">
<!-- Generated by graphviz version 2.38.0 (20140413.2041)
 -->
<!-- Title: proc~~save_plots~2~~CalledByGraph Pages: 1 -->
<svg width="294pt" height="116pt"
 viewBox="0.00 0.00 294.00 116.00" xmlns="http://www.w3.org/2000/svg" xmlns:xlink="http://www.w3.org/1999/xlink">
<g id="graph0" class="graph" transform="scale(1 1) rotate(0) translate(4 112)">
<title>proc~~save_plots~2~~CalledByGraph</title>
<polygon fill="white" stroke="none" points="-4,4 -4,-112 290,-112 290,4 -4,4"/>
<!-- proc~save_plots~2 -->
<g id="node1" class="node"><title>proc~save_plots~2</title>
<polygon fill="none" stroke="black" points="286,-66 222,-66 222,-42 286,-42 286,-66"/>
<text text-anchor="middle" x="254" y="-51.6" font-family="Helvetica,sans-Serif" font-size="10.50">save_plots</text>
</g>
<!-- proc~test_rk~2 -->
<g id="node2" class="node"><title>proc~test_rk~2</title>
<g id="a_node2"><a xlink:href="../proc/test_rk%7E2.html" xlink:title="test_rk">
<polygon fill="#d9534f" stroke="#d9534f" points="183,-108 129,-108 129,-84 183,-84 183,-108"/>
<text text-anchor="middle" x="156" y="-93.6" font-family="Helvetica,sans-Serif" font-size="10.50" fill="white">test_rk</text>
</a>
</g>
</g>
<!-- proc~test_rk~2&#45;&gt;proc~save_plots~2 -->
<g id="edge4" class="edge"><title>proc~test_rk~2&#45;&gt;proc~save_plots~2</title>
<path fill="none" stroke="black" d="M183.232,-84.5233C193.366,-80.09 205.141,-74.9383 216.1,-70.1439"/>
<polygon fill="black" stroke="black" points="217.699,-73.2644 225.458,-66.0496 214.894,-66.8513 217.699,-73.2644"/>
</g>
<!-- proc~test_euler~2 -->
<g id="node3" class="node"><title>proc~test_euler~2</title>
<g id="a_node3"><a xlink:href="../proc/test_euler%7E2.html" xlink:title="test_euler">
<polygon fill="#d9534f" stroke="#d9534f" points="186,-66 126,-66 126,-42 186,-42 186,-66"/>
<text text-anchor="middle" x="156" y="-51.6" font-family="Helvetica,sans-Serif" font-size="10.50" fill="white">test_euler</text>
</a>
</g>
</g>
<!-- proc~test_euler~2&#45;&gt;proc~save_plots~2 -->
<g id="edge5" class="edge"><title>proc~test_euler~2&#45;&gt;proc~save_plots~2</title>
<path fill="none" stroke="black" d="M186.064,-54C194.067,-54 202.908,-54 211.468,-54"/>
<polygon fill="black" stroke="black" points="211.697,-57.5001 221.697,-54 211.697,-50.5001 211.697,-57.5001"/>
</g>
<!-- proc~test_ab~2 -->
<g id="node4" class="node"><title>proc~test_ab~2</title>
<g id="a_node4"><a xlink:href="../proc/test_ab%7E2.html" xlink:title="test_ab">
<polygon fill="#d9534f" stroke="#d9534f" points="183,-24 129,-24 129,-0 183,-0 183,-24"/>
<text text-anchor="middle" x="156" y="-9.6" font-family="Helvetica,sans-Serif" font-size="10.50" fill="white">test_ab</text>
</a>
</g>
</g>
<!-- proc~test_ab~2&#45;&gt;proc~save_plots~2 -->
<g id="edge6" class="edge"><title>proc~test_ab~2&#45;&gt;proc~save_plots~2</title>
<path fill="none" stroke="black" d="M183.232,-23.4767C193.366,-27.91 205.141,-33.0617 216.1,-37.8561"/>
<polygon fill="black" stroke="black" points="214.894,-41.1487 225.458,-41.9504 217.699,-34.7356 214.894,-41.1487"/>
</g>
<!-- program~integrate_lorenz -->
<g id="node5" class="node"><title>program~integrate_lorenz</title>
<g id="a_node5"><a xlink:href="../program/integrate_lorenz.html" xlink:title="integrate_lorenz">
<polygon fill="#f0ad4e" stroke="#f0ad4e" points="90,-66 0,-66 0,-42 90,-42 90,-66"/>
<text text-anchor="middle" x="45" y="-51.6" font-family="Helvetica,sans-Serif" font-size="10.50" fill="white">integrate_lorenz</text>
</a>
</g>
</g>
<!-- program~integrate_lorenz&#45;&gt;proc~test_rk~2 -->
<g id="edge1" class="edge"><title>program~integrate_lorenz&#45;&gt;proc~test_rk~2</title>
<path fill="none" stroke="black" d="M77.235,-66.0355C90.3967,-71.107 105.787,-77.0372 119.387,-82.2775"/>
<polygon fill="black" stroke="black" points="118.326,-85.6195 128.916,-85.9491 120.843,-79.0876 118.326,-85.6195"/>
</g>
<!-- program~integrate_lorenz&#45;&gt;proc~test_euler~2 -->
<g id="edge2" class="edge"><title>program~integrate_lorenz&#45;&gt;proc~test_euler~2</title>
<path fill="none" stroke="black" d="M90.0203,-54C98.4953,-54 107.322,-54 115.637,-54"/>
<polygon fill="black" stroke="black" points="115.833,-57.5001 125.833,-54 115.832,-50.5001 115.833,-57.5001"/>
</g>
<!-- program~integrate_lorenz&#45;&gt;proc~test_ab~2 -->
<g id="edge3" class="edge"><title>program~integrate_lorenz&#45;&gt;proc~test_ab~2</title>
<path fill="none" stroke="black" d="M77.235,-41.9645C90.3967,-36.893 105.787,-30.9628 119.387,-25.7225"/>
<polygon fill="black" stroke="black" points="120.843,-28.9124 128.916,-22.0509 118.326,-22.3805 120.843,-28.9124"/>
</g>
</g>
</svg>
