<?xml version="1.0" encoding="UTF-8" standalone="no"?>
<!DOCTYPE svg PUBLIC "-//W3C//DTD SVG 1.1//EN"
 "http://www.w3.org/Graphics/SVG/1.1/DTD/svg11.dtd">
<!-- Generated by graphviz version 2.26.3 (20100126.1600)
 -->
<!-- Title: proc~~save_time_serie~~CallsGraph Pages: 1 -->
<svg width="190pt" height="34pt"
 viewBox="0.00 0.00 190.00 34.00" xmlns="http://www.w3.org/2000/svg" xmlns:xlink="http://www.w3.org/1999/xlink">
<g id="graph1" class="graph" transform="scale(1 1) rotate(0) translate(4 30)">
<title>proc~~save_time_serie~~CallsGraph</title>
<polygon fill="white" stroke="white" points="-4,5 -4,-30 187,-30 187,5 -4,5"/>
<!-- proc~save_time_serie -->
<g id="node1" class="node"><title>proc~save_time_serie</title>
<polygon fill="none" stroke="black" points="91,-26 1,-26 1,-1.24345e-14 91,-3.55271e-15 91,-26"/>
<text text-anchor="middle" x="46" y="-10.55" font-family="Helvetica,sans-Serif" font-size="10.50">save_time_serie</text>
</g>
<!-- str -->
<g id="node2" class="node"><title>str</title>
<polygon fill="#777777" stroke="#777777" points="182,-26 128,-26 128,-1.24345e-14 182,-3.55271e-15 182,-26"/>
<text text-anchor="middle" x="155" y="-10.55" font-family="Helvetica,sans-Serif" font-size="10.50" fill="white">str</text>
</g>
<!-- proc~save_time_serie&#45;&gt;str -->
<g id="edge2" class="edge"><title>proc~save_time_serie&#45;&gt;str</title>
<path fill="none" stroke="black" d="M91.5942,-13C100.29,-13 109.297,-13 117.697,-13"/>
<polygon fill="black" stroke="black" points="117.942,-16.5001 127.942,-13 117.942,-9.5001 117.942,-16.5001"/>
</g>
</g>
</svg>
