<?xml version="1.0" encoding="UTF-8" standalone="no"?>
<!DOCTYPE svg PUBLIC "-//W3C//DTD SVG 1.1//EN"
 "http://www.w3.org/Graphics/SVG/1.1/DTD/svg11.dtd">
<!-- Generated by graphviz version 2.26.3 (20100126.1600)
 -->
<!-- Title: proc~~save_results~4~~CalledByGraph Pages: 1 -->
<svg width="328pt" height="166pt"
 viewBox="0.00 0.00 328.00 166.00" xmlns="http://www.w3.org/2000/svg" xmlns:xlink="http://www.w3.org/1999/xlink">
<g id="graph1" class="graph" transform="scale(1 1) rotate(0) translate(4 162)">
<title>proc~~save_results~4~~CalledByGraph</title>
<polygon fill="white" stroke="white" points="-4,5 -4,-162 325,-162 325,5 -4,5"/>
<!-- proc~save_results~4 -->
<g id="node1" class="node"><title>proc~save_results~4</title>
<polygon fill="none" stroke="black" points="319,-92 247,-92 247,-66 319,-66 319,-92"/>
<text text-anchor="middle" x="283" y="-76.55" font-family="Helvetica,sans-Serif" font-size="10.50">save_results</text>
</g>
<!-- proc~test_euler~4 -->
<g id="node2" class="node"><title>proc~test_euler~4</title>
<a xlink:href="../proc/test_euler%7E4.html" xlink:title="test_euler">
<polygon fill="#d9534f" stroke="#d9534f" points="207,-158 147,-158 147,-132 207,-132 207,-158"/>
<text text-anchor="middle" x="177" y="-142.55" font-family="Helvetica,sans-Serif" font-size="10.50" fill="white">test_euler</text>
</a>
</g>
<!-- proc~test_euler~4&#45;&gt;proc~save_results~4 -->
<g id="edge10" class="edge"><title>proc~test_euler~4&#45;&gt;proc~save_results~4</title>
<path fill="none" stroke="black" d="M197.942,-131.961C213.767,-122.107 235.699,-108.451 253.329,-97.4742"/>
<polygon fill="black" stroke="black" points="255.462,-100.269 262.101,-92.0124 251.762,-94.3269 255.462,-100.269"/>
</g>
<!-- proc~test_ab~4 -->
<g id="node3" class="node"><title>proc~test_ab~4</title>
<a xlink:href="../proc/test_ab%7E4.html" xlink:title="test_ab">
<polygon fill="#d9534f" stroke="#d9534f" points="204,-114 150,-114 150,-88 204,-88 204,-114"/>
<text text-anchor="middle" x="177" y="-98.55" font-family="Helvetica,sans-Serif" font-size="10.50" fill="white">test_ab</text>
</a>
</g>
<!-- proc~test_ab~4&#45;&gt;proc~save_results~4 -->
<g id="edge12" class="edge"><title>proc~test_ab~4&#45;&gt;proc~save_results~4</title>
<path fill="none" stroke="black" d="M204.023,-95.3915C213.885,-93.3447 225.341,-90.967 236.418,-88.668"/>
<polygon fill="black" stroke="black" points="237.347,-92.0499 246.427,-86.5906 235.924,-85.1959 237.347,-92.0499"/>
</g>
<!-- proc~test_ls_rk~4 -->
<g id="node4" class="node"><title>proc~test_ls_rk~4</title>
<a xlink:href="../proc/test_ls_rk%7E4.html" xlink:title="test_ls_rk">
<polygon fill="#d9534f" stroke="#d9534f" points="206,-70 148,-70 148,-44 206,-44 206,-70"/>
<text text-anchor="middle" x="177" y="-54.55" font-family="Helvetica,sans-Serif" font-size="10.50" fill="white">test_ls_rk</text>
</a>
</g>
<!-- proc~test_ls_rk~4&#45;&gt;proc~save_results~4 -->
<g id="edge14" class="edge"><title>proc~test_ls_rk~4&#45;&gt;proc~save_results~4</title>
<path fill="none" stroke="black" d="M206.246,-63.0698C215.529,-64.9967 226.04,-67.178 236.237,-69.2945"/>
<polygon fill="black" stroke="black" points="235.771,-72.7723 246.274,-71.3776 237.194,-65.9184 235.771,-72.7723"/>
</g>
<!-- proc~test_tvd_rk~4 -->
<g id="node5" class="node"><title>proc~test_tvd_rk~4</title>
<a xlink:href="../proc/test_tvd_rk%7E4.html" xlink:title="test_tvd_rk">
<polygon fill="#d9534f" stroke="#d9534f" points="209,-26 145,-26 145,-1.24345e-14 209,-3.55271e-15 209,-26"/>
<text text-anchor="middle" x="177" y="-10.55" font-family="Helvetica,sans-Serif" font-size="10.50" fill="white">test_tvd_rk</text>
</a>
</g>
<!-- proc~test_tvd_rk~4&#45;&gt;proc~save_results~4 -->
<g id="edge16" class="edge"><title>proc~test_tvd_rk~4&#45;&gt;proc~save_results~4</title>
<path fill="none" stroke="black" d="M197.942,-26.0395C213.767,-35.8927 235.699,-49.5487 253.329,-60.5258"/>
<polygon fill="black" stroke="black" points="251.762,-63.6731 262.101,-65.9876 255.462,-57.7308 251.762,-63.6731"/>
</g>
<!-- program~integrate_oscillation -->
<g id="node6" class="node"><title>program~integrate_oscillation</title>
<a xlink:href="../program/integrate_oscillation.html" xlink:title="integrate_oscillation">
<polygon fill="#f0ad4e" stroke="#f0ad4e" points="107,-92 1,-92 1,-66 107,-66 107,-92"/>
<text text-anchor="middle" x="54" y="-76.55" font-family="Helvetica,sans-Serif" font-size="10.50" fill="white">integrate_oscillation</text>
</a>
</g>
<!-- program~integrate_oscillation&#45;&gt;proc~test_euler~4 -->
<g id="edge2" class="edge"><title>program~integrate_oscillation&#45;&gt;proc~test_euler~4</title>
<path fill="none" stroke="black" d="M78.3008,-92.0395C97.0005,-102.073 123.05,-116.051 143.692,-127.127"/>
<polygon fill="black" stroke="black" points="142.283,-130.343 152.75,-131.988 145.593,-124.175 142.283,-130.343"/>
</g>
<!-- program~integrate_oscillation&#45;&gt;proc~test_ab~4 -->
<g id="edge4" class="edge"><title>program~integrate_oscillation&#45;&gt;proc~test_ab~4</title>
<path fill="none" stroke="black" d="M107.592,-88.5855C118.451,-90.5278 129.644,-92.5298 139.787,-94.344"/>
<polygon fill="black" stroke="black" points="139.459,-97.8408 149.919,-96.1563 140.692,-90.9502 139.459,-97.8408"/>
</g>
<!-- program~integrate_oscillation&#45;&gt;proc~test_ls_rk~4 -->
<g id="edge6" class="edge"><title>program~integrate_oscillation&#45;&gt;proc~test_ls_rk~4</title>
<path fill="none" stroke="black" d="M107.592,-69.4145C117.766,-67.5947 128.233,-65.7225 137.856,-64.0014"/>
<polygon fill="black" stroke="black" points="138.684,-67.4089 147.912,-62.2028 137.452,-60.5182 138.684,-67.4089"/>
</g>
<!-- program~integrate_oscillation&#45;&gt;proc~test_tvd_rk~4 -->
<g id="edge8" class="edge"><title>program~integrate_oscillation&#45;&gt;proc~test_tvd_rk~4</title>
<path fill="none" stroke="black" d="M78.3008,-65.9605C97.0005,-55.9266 123.05,-41.9489 143.692,-30.8727"/>
<polygon fill="black" stroke="black" points="145.593,-33.8247 152.75,-26.0124 142.283,-27.6566 145.593,-33.8247"/>
</g>
</g>
</svg>
