<?xml version="1.0" encoding="UTF-8" standalone="no"?>
<!DOCTYPE svg PUBLIC "-//W3C//DTD SVG 1.1//EN"
 "http://www.w3.org/Graphics/SVG/1.1/DTD/svg11.dtd">
<!-- Generated by graphviz version 2.26.3 (20100126.1600)
 -->
<!-- Title: proc~~save_results~2~~CalledByGraph Pages: 1 -->
<svg width="318pt" height="122pt"
 viewBox="0.00 0.00 318.00 122.00" xmlns="http://www.w3.org/2000/svg" xmlns:xlink="http://www.w3.org/1999/xlink">
<g id="graph1" class="graph" transform="scale(1 1) rotate(0) translate(4 118)">
<title>proc~~save_results~2~~CalledByGraph</title>
<polygon fill="white" stroke="white" points="-4,5 -4,-118 315,-118 315,5 -4,5"/>
<!-- proc~save_results~2 -->
<g id="node1" class="node"><title>proc~save_results~2</title>
<polygon fill="none" stroke="black" points="309,-70 237,-70 237,-44 309,-44 309,-70"/>
<text text-anchor="middle" x="273" y="-54.55" font-family="Helvetica,sans-Serif" font-size="10.50">save_results</text>
</g>
<!-- proc~test_euler~2 -->
<g id="node2" class="node"><title>proc~test_euler~2</title>
<a xlink:href="../proc/test_euler%7E2.html" xlink:title="test_euler">
<polygon fill="#d9534f" stroke="#d9534f" points="200,-114 140,-114 140,-88 200,-88 200,-114"/>
<text text-anchor="middle" x="170" y="-98.55" font-family="Helvetica,sans-Serif" font-size="10.50" fill="white">test_euler</text>
</a>
</g>
<!-- proc~test_euler~2&#45;&gt;proc~save_results~2 -->
<g id="edge8" class="edge"><title>proc~test_euler~2&#45;&gt;proc~save_results~2</title>
<path fill="none" stroke="black" d="M200.069,-88.1551C210.356,-83.7605 222.032,-78.7727 232.979,-74.0964"/>
<polygon fill="black" stroke="black" points="234.537,-77.2369 242.358,-70.0898 231.787,-70.7996 234.537,-77.2369"/>
</g>
<!-- proc~test_ab~2 -->
<g id="node3" class="node"><title>proc~test_ab~2</title>
<a xlink:href="../proc/test_ab%7E2.html" xlink:title="test_ab">
<polygon fill="#d9534f" stroke="#d9534f" points="197,-70 143,-70 143,-44 197,-44 197,-70"/>
<text text-anchor="middle" x="170" y="-54.55" font-family="Helvetica,sans-Serif" font-size="10.50" fill="white">test_ab</text>
</a>
</g>
<!-- proc~test_ab~2&#45;&gt;proc~save_results~2 -->
<g id="edge10" class="edge"><title>proc~test_ab~2&#45;&gt;proc~save_results~2</title>
<path fill="none" stroke="black" d="M197.062,-57C205.998,-57 216.212,-57 226.189,-57"/>
<polygon fill="black" stroke="black" points="226.437,-60.5001 236.437,-57 226.437,-53.5001 226.437,-60.5001"/>
</g>
<!-- proc~test_rk~2 -->
<g id="node4" class="node"><title>proc~test_rk~2</title>
<a xlink:href="../proc/test_rk%7E2.html" xlink:title="test_rk">
<polygon fill="#d9534f" stroke="#d9534f" points="197,-26 143,-26 143,-1.24345e-14 197,-3.55271e-15 197,-26"/>
<text text-anchor="middle" x="170" y="-10.55" font-family="Helvetica,sans-Serif" font-size="10.50" fill="white">test_rk</text>
</a>
</g>
<!-- proc~test_rk~2&#45;&gt;proc~save_results~2 -->
<g id="edge12" class="edge"><title>proc~test_rk~2&#45;&gt;proc~save_results~2</title>
<path fill="none" stroke="black" d="M197.062,-24.5605C208.067,-29.2618 221.011,-34.791 233.063,-39.9397"/>
<polygon fill="black" stroke="black" points="231.913,-43.2543 242.484,-43.9641 234.663,-36.817 231.913,-43.2543"/>
</g>
<!-- program~integrate_euler_1d -->
<g id="node5" class="node"><title>program~integrate_euler_1d</title>
<a xlink:href="../program/integrate_euler_1d.html" xlink:title="integrate_euler_1D">
<polygon fill="#f0ad4e" stroke="#f0ad4e" points="104,-70 3.55271e-14,-70 0,-44 104,-44 104,-70"/>
<text text-anchor="middle" x="52" y="-54.55" font-family="Helvetica,sans-Serif" font-size="10.50" fill="white">integrate_euler_1D</text>
</a>
</g>
<!-- program~integrate_euler_1d&#45;&gt;proc~test_euler~2 -->
<g id="edge2" class="edge"><title>program~integrate_euler_1d&#45;&gt;proc~test_euler~2</title>
<path fill="none" stroke="black" d="M87.0844,-70.0823C100.663,-75.1456 116.276,-80.9674 130.266,-86.1839"/>
<polygon fill="black" stroke="black" points="129.054,-89.4674 139.647,-89.6819 131.5,-82.9085 129.054,-89.4674"/>
</g>
<!-- program~integrate_euler_1d&#45;&gt;proc~test_ab~2 -->
<g id="edge4" class="edge"><title>program~integrate_euler_1d&#45;&gt;proc~test_ab~2</title>
<path fill="none" stroke="black" d="M104.1,-57C113.685,-57 123.516,-57 132.563,-57"/>
<polygon fill="black" stroke="black" points="132.762,-60.5001 142.762,-57 132.762,-53.5001 132.762,-60.5001"/>
</g>
<!-- program~integrate_euler_1d&#45;&gt;proc~test_rk~2 -->
<g id="edge6" class="edge"><title>program~integrate_euler_1d&#45;&gt;proc~test_rk~2</title>
<path fill="none" stroke="black" d="M87.0844,-43.9177C101.546,-38.5251 118.316,-32.2721 132.974,-26.8063"/>
<polygon fill="black" stroke="black" points="134.583,-29.9416 142.73,-23.1683 132.138,-23.3828 134.583,-29.9416"/>
</g>
</g>
</svg>
