<?xml version="1.0" encoding="UTF-8" standalone="no"?>
<!DOCTYPE svg PUBLIC "-//W3C//DTD SVG 1.1//EN"
 "http://www.w3.org/Graphics/SVG/1.1/DTD/svg11.dtd">
<!-- Generated by graphviz version 2.26.3 (20100126.1600)
 -->
<!-- Title: proc~~save_results~3~~CalledByGraph Pages: 1 -->
<svg width="320pt" height="210pt"
 viewBox="0.00 0.00 320.00 210.00" xmlns="http://www.w3.org/2000/svg" xmlns:xlink="http://www.w3.org/1999/xlink">
<g id="graph1" class="graph" transform="scale(1 1) rotate(0) translate(4 206)">
<title>proc~~save_results~3~~CalledByGraph</title>
<polygon fill="white" stroke="white" points="-4,5 -4,-206 317,-206 317,5 -4,5"/>
<!-- proc~save_results~3 -->
<g id="node1" class="node"><title>proc~save_results~3</title>
<polygon fill="none" stroke="black" points="311,-114 239,-114 239,-88 311,-88 311,-114"/>
<text text-anchor="middle" x="275" y="-98.55" font-family="Helvetica,sans-Serif" font-size="10.50">save_results</text>
</g>
<!-- proc~test_leapfrog~3 -->
<g id="node2" class="node"><title>proc~test_leapfrog~3</title>
<a xlink:href="../proc/test_leapfrog%7E3.html" xlink:title="test_leapfrog">
<polygon fill="#d9534f" stroke="#d9534f" points="201,-202 127,-202 127,-176 201,-176 201,-202"/>
<text text-anchor="middle" x="164" y="-186.55" font-family="Helvetica,sans-Serif" font-size="10.50" fill="white">test_leapfrog</text>
</a>
</g>
<!-- proc~test_leapfrog~3&#45;&gt;proc~save_results~3 -->
<g id="edge12" class="edge"><title>proc~test_leapfrog~3&#45;&gt;proc~save_results~3</title>
<path fill="none" stroke="black" d="M188.604,-175.773C193.167,-173.037 197.811,-170.054 202,-167 221.104,-153.073 240.884,-134.918 255.028,-121.176"/>
<polygon fill="black" stroke="black" points="257.595,-123.56 262.265,-114.05 252.684,-118.572 257.595,-123.56"/>
</g>
<!-- proc~test_tvd_rk~3 -->
<g id="node3" class="node"><title>proc~test_tvd_rk~3</title>
<a xlink:href="../proc/test_tvd_rk%7E3.html" xlink:title="test_tvd_rk">
<polygon fill="#d9534f" stroke="#d9534f" points="196,-158 132,-158 132,-132 196,-132 196,-158"/>
<text text-anchor="middle" x="164" y="-142.55" font-family="Helvetica,sans-Serif" font-size="10.50" fill="white">test_tvd_rk</text>
</a>
</g>
<!-- proc~test_tvd_rk~3&#45;&gt;proc~save_results~3 -->
<g id="edge14" class="edge"><title>proc~test_tvd_rk~3&#45;&gt;proc~save_results~3</title>
<path fill="none" stroke="black" d="M196.703,-132.037C208.006,-127.556 220.836,-122.47 232.792,-117.731"/>
<polygon fill="black" stroke="black" points="234.14,-120.962 242.147,-114.023 231.561,-114.454 234.14,-120.962"/>
</g>
<!-- proc~test_ls_rk~3 -->
<g id="node4" class="node"><title>proc~test_ls_rk~3</title>
<a xlink:href="../proc/test_ls_rk%7E3.html" xlink:title="test_ls_rk">
<polygon fill="#d9534f" stroke="#d9534f" points="193,-114 135,-114 135,-88 193,-88 193,-114"/>
<text text-anchor="middle" x="164" y="-98.55" font-family="Helvetica,sans-Serif" font-size="10.50" fill="white">test_ls_rk</text>
</a>
</g>
<!-- proc~test_ls_rk~3&#45;&gt;proc~save_results~3 -->
<g id="edge16" class="edge"><title>proc~test_ls_rk~3&#45;&gt;proc~save_results~3</title>
<path fill="none" stroke="black" d="M193.164,-101C203.895,-101 216.336,-101 228.228,-101"/>
<polygon fill="black" stroke="black" points="228.482,-104.5 238.481,-101 228.481,-97.5001 228.482,-104.5"/>
</g>
<!-- proc~test_ab~3 -->
<g id="node5" class="node"><title>proc~test_ab~3</title>
<a xlink:href="../proc/test_ab%7E3.html" xlink:title="test_ab">
<polygon fill="#d9534f" stroke="#d9534f" points="191,-70 137,-70 137,-44 191,-44 191,-70"/>
<text text-anchor="middle" x="164" y="-54.55" font-family="Helvetica,sans-Serif" font-size="10.50" fill="white">test_ab</text>
</a>
</g>
<!-- proc~test_ab~3&#45;&gt;proc~save_results~3 -->
<g id="edge18" class="edge"><title>proc~test_ab~3&#45;&gt;proc~save_results~3</title>
<path fill="none" stroke="black" d="M191.154,-67.7636C203.669,-72.7247 218.814,-78.7279 232.769,-84.2598"/>
<polygon fill="black" stroke="black" points="231.608,-87.5643 242.194,-87.9957 234.187,-81.0569 231.608,-87.5643"/>
</g>
<!-- proc~test_euler~3 -->
<g id="node6" class="node"><title>proc~test_euler~3</title>
<a xlink:href="../proc/test_euler%7E3.html" xlink:title="test_euler">
<polygon fill="#d9534f" stroke="#d9534f" points="194,-26 134,-26 134,-1.24345e-14 194,-3.55271e-15 194,-26"/>
<text text-anchor="middle" x="164" y="-10.55" font-family="Helvetica,sans-Serif" font-size="10.50" fill="white">test_euler</text>
</a>
</g>
<!-- proc~test_euler~3&#45;&gt;proc~save_results~3 -->
<g id="edge20" class="edge"><title>proc~test_euler~3&#45;&gt;proc~save_results~3</title>
<path fill="none" stroke="black" d="M188.604,-26.2273C193.167,-28.9626 197.811,-31.9463 202,-35 221.104,-48.9274 240.884,-67.0817 255.028,-80.8243"/>
<polygon fill="black" stroke="black" points="252.684,-83.4283 262.265,-87.9503 257.595,-78.4403 252.684,-83.4283"/>
</g>
<!-- program~integrate_lorenz -->
<g id="node7" class="node"><title>program~integrate_lorenz</title>
<a xlink:href="../program/integrate_lorenz.html" xlink:title="integrate_lorenz">
<polygon fill="#f0ad4e" stroke="#f0ad4e" points="90,-114 4.26326e-14,-114 0,-88 90,-88 90,-114"/>
<text text-anchor="middle" x="45" y="-98.55" font-family="Helvetica,sans-Serif" font-size="10.50" fill="white">integrate_lorenz</text>
</a>
</g>
<!-- program~integrate_lorenz&#45;&gt;proc~test_leapfrog~3 -->
<g id="edge2" class="edge"><title>program~integrate_lorenz&#45;&gt;proc~test_leapfrog~3</title>
<path fill="none" stroke="black" d="M59.6691,-114.151C75.483,-128.038 101.668,-150.201 126,-167 127.647,-168.137 129.355,-169.272 131.096,-170.394"/>
<polygon fill="black" stroke="black" points="129.575,-173.568 139.924,-175.836 133.249,-167.609 129.575,-173.568"/>
</g>
<!-- program~integrate_lorenz&#45;&gt;proc~test_tvd_rk~3 -->
<g id="edge4" class="edge"><title>program~integrate_lorenz&#45;&gt;proc~test_tvd_rk~3</title>
<path fill="none" stroke="black" d="M80.3817,-114.082C93.3925,-118.893 108.255,-124.389 121.806,-129.399"/>
<polygon fill="black" stroke="black" points="120.803,-132.76 131.397,-132.945 123.231,-126.194 120.803,-132.76"/>
</g>
<!-- program~integrate_lorenz&#45;&gt;proc~test_ls_rk~3 -->
<g id="edge6" class="edge"><title>program~integrate_lorenz&#45;&gt;proc~test_ls_rk~3</title>
<path fill="none" stroke="black" d="M90.3283,-101C101.677,-101 113.756,-101 124.78,-101"/>
<polygon fill="black" stroke="black" points="124.968,-104.5 134.968,-101 124.968,-97.5001 124.968,-104.5"/>
</g>
<!-- program~integrate_lorenz&#45;&gt;proc~test_ab~3 -->
<g id="edge8" class="edge"><title>program~integrate_lorenz&#45;&gt;proc~test_ab~3</title>
<path fill="none" stroke="black" d="M80.3817,-87.9177C95.2188,-82.4317 112.464,-76.0552 127.426,-70.523"/>
<polygon fill="black" stroke="black" points="128.715,-73.7781 136.881,-67.0273 126.288,-67.2126 128.715,-73.7781"/>
</g>
<!-- program~integrate_lorenz&#45;&gt;proc~test_euler~3 -->
<g id="edge10" class="edge"><title>program~integrate_lorenz&#45;&gt;proc~test_euler~3</title>
<path fill="none" stroke="black" d="M59.6691,-87.8488C75.483,-73.9625 101.668,-51.7988 126,-35 127.647,-33.8631 129.355,-32.728 131.096,-31.6064"/>
<polygon fill="black" stroke="black" points="133.249,-34.3909 139.924,-26.1636 129.575,-28.4322 133.249,-34.3909"/>
</g>
</g>
</svg>
