<?xml version="1.0" encoding="UTF-8" standalone="no"?>
<!DOCTYPE svg PUBLIC "-//W3C//DTD SVG 1.1//EN"
 "http://www.w3.org/Graphics/SVG/1.1/DTD/svg11.dtd">
<!-- Generated by graphviz version 2.26.3 (20100126.1600)
 -->
<!-- Title: proc~~save_results~~CalledByGraph Pages: 1 -->
<svg width="312pt" height="122pt"
 viewBox="0.00 0.00 312.00 122.00" xmlns="http://www.w3.org/2000/svg" xmlns:xlink="http://www.w3.org/1999/xlink">
<g id="graph1" class="graph" transform="scale(1 1) rotate(0) translate(4 118)">
<title>proc~~save_results~~CalledByGraph</title>
<polygon fill="white" stroke="white" points="-4,5 -4,-118 309,-118 309,5 -4,5"/>
<!-- proc~save_results -->
<g id="node1" class="node"><title>proc~save_results</title>
<polygon fill="none" stroke="black" points="303,-70 231,-70 231,-44 303,-44 303,-70"/>
<text text-anchor="middle" x="267" y="-54.55" font-family="Helvetica,sans-Serif" font-size="10.50">save_results</text>
</g>
<!-- proc~test_euler -->
<g id="node2" class="node"><title>proc~test_euler</title>
<a xlink:href="../proc/test_euler.html" xlink:title="test_euler">
<polygon fill="#d9534f" stroke="#d9534f" points="194,-114 134,-114 134,-88 194,-88 194,-114"/>
<text text-anchor="middle" x="164" y="-98.55" font-family="Helvetica,sans-Serif" font-size="10.50" fill="white">test_euler</text>
</a>
</g>
<!-- proc~test_euler&#45;&gt;proc~save_results -->
<g id="edge8" class="edge"><title>proc~test_euler&#45;&gt;proc~save_results</title>
<path fill="none" stroke="black" d="M194.069,-88.1551C204.356,-83.7605 216.032,-78.7727 226.979,-74.0964"/>
<polygon fill="black" stroke="black" points="228.537,-77.2369 236.358,-70.0898 225.787,-70.7996 228.537,-77.2369"/>
</g>
<!-- proc~test_ab -->
<g id="node3" class="node"><title>proc~test_ab</title>
<a xlink:href="../proc/test_ab.html" xlink:title="test_ab">
<polygon fill="#d9534f" stroke="#d9534f" points="191,-70 137,-70 137,-44 191,-44 191,-70"/>
<text text-anchor="middle" x="164" y="-54.55" font-family="Helvetica,sans-Serif" font-size="10.50" fill="white">test_ab</text>
</a>
</g>
<!-- proc~test_ab&#45;&gt;proc~save_results -->
<g id="edge10" class="edge"><title>proc~test_ab&#45;&gt;proc~save_results</title>
<path fill="none" stroke="black" d="M191.062,-57C199.998,-57 210.212,-57 220.189,-57"/>
<polygon fill="black" stroke="black" points="220.437,-60.5001 230.437,-57 220.437,-53.5001 220.437,-60.5001"/>
</g>
<!-- proc~test_rk -->
<g id="node4" class="node"><title>proc~test_rk</title>
<a xlink:href="../proc/test_rk.html" xlink:title="test_rk">
<polygon fill="#d9534f" stroke="#d9534f" points="191,-26 137,-26 137,-1.24345e-14 191,-3.55271e-15 191,-26"/>
<text text-anchor="middle" x="164" y="-10.55" font-family="Helvetica,sans-Serif" font-size="10.50" fill="white">test_rk</text>
</a>
</g>
<!-- proc~test_rk&#45;&gt;proc~save_results -->
<g id="edge12" class="edge"><title>proc~test_rk&#45;&gt;proc~save_results</title>
<path fill="none" stroke="black" d="M191.062,-24.5605C202.067,-29.2618 215.011,-34.791 227.063,-39.9397"/>
<polygon fill="black" stroke="black" points="225.913,-43.2543 236.484,-43.9641 228.663,-36.817 225.913,-43.2543"/>
</g>
<!-- program~integrate_burgers -->
<g id="node5" class="node"><title>program~integrate_burgers</title>
<a xlink:href="../program/integrate_burgers.html" xlink:title="integrate_burgers">
<polygon fill="#f0ad4e" stroke="#f0ad4e" points="97,-70 1,-70 1,-44 97,-44 97,-70"/>
<text text-anchor="middle" x="49" y="-54.55" font-family="Helvetica,sans-Serif" font-size="10.50" fill="white">integrate_burgers</text>
</a>
</g>
<!-- program~integrate_burgers&#45;&gt;proc~test_euler -->
<g id="edge2" class="edge"><title>program~integrate_burgers&#45;&gt;proc~test_euler</title>
<path fill="none" stroke="black" d="M83.1924,-70.0823C96.0855,-75.0153 110.861,-80.6684 124.221,-85.7802"/>
<polygon fill="black" stroke="black" points="123.062,-89.0841 133.652,-89.3887 125.563,-82.5463 123.062,-89.0841"/>
</g>
<!-- program~integrate_burgers&#45;&gt;proc~test_ab -->
<g id="edge4" class="edge"><title>program~integrate_burgers&#45;&gt;proc~test_ab</title>
<path fill="none" stroke="black" d="M97.7704,-57C107.467,-57 117.502,-57 126.739,-57"/>
<polygon fill="black" stroke="black" points="126.767,-60.5001 136.767,-57 126.767,-53.5001 126.767,-60.5001"/>
</g>
<!-- program~integrate_burgers&#45;&gt;proc~test_rk -->
<g id="edge6" class="edge"><title>program~integrate_burgers&#45;&gt;proc~test_rk</title>
<path fill="none" stroke="black" d="M83.1924,-43.9177C97.0714,-38.6075 113.131,-32.4628 127.26,-27.0572"/>
<polygon fill="black" stroke="black" points="128.593,-30.2947 136.682,-23.4522 126.091,-23.7568 128.593,-30.2947"/>
</g>
</g>
</svg>
