<?xml version="1.0" encoding="UTF-8" standalone="no"?>
<!DOCTYPE svg PUBLIC "-//W3C//DTD SVG 1.1//EN"
 "http://www.w3.org/Graphics/SVG/1.1/DTD/svg11.dtd">
<!-- Generated by graphviz version 2.26.3 (20100126.1600)
 -->
<!-- Title: proc~~compute_inter_states~~CalledByGraph Pages: 1 -->
<svg width="246pt" height="34pt"
 viewBox="0.00 0.00 246.00 34.00" xmlns="http://www.w3.org/2000/svg" xmlns:xlink="http://www.w3.org/1999/xlink">
<g id="graph1" class="graph" transform="scale(1 1) rotate(0) translate(4 30)">
<title>proc~~compute_inter_states~~CalledByGraph</title>
<polygon fill="white" stroke="white" points="-4,5 -4,-30 243,-30 243,5 -4,5"/>
<!-- proc~compute_inter_states -->
<g id="node1" class="node"><title>proc~compute_inter_states</title>
<polygon fill="none" stroke="black" points="237,-26 123,-26 123,-1.24345e-14 237,-3.55271e-15 237,-26"/>
<text text-anchor="middle" x="180" y="-10.55" font-family="Helvetica,sans-Serif" font-size="10.50">compute_inter_states</text>
</g>
<!-- proc~riemann_solver -->
<g id="node2" class="node"><title>proc~riemann_solver</title>
<a xlink:href="../proc/riemann_solver.html" xlink:title="riemann_solver">
<polygon fill="#d9534f" stroke="#d9534f" points="86,-26 4.26326e-14,-26 0,-1.24345e-14 86,-3.55271e-15 86,-26"/>
<text text-anchor="middle" x="43" y="-10.55" font-family="Helvetica,sans-Serif" font-size="10.50" fill="white">riemann_solver</text>
</a>
</g>
<!-- proc~riemann_solver&#45;&gt;proc~compute_inter_states -->
<g id="edge2" class="edge"><title>proc~riemann_solver&#45;&gt;proc~compute_inter_states</title>
<path fill="none" stroke="black" d="M86.3477,-13C94.5739,-13 103.362,-13 112.137,-13"/>
<polygon fill="black" stroke="black" points="112.396,-16.5001 122.396,-13 112.396,-9.5001 112.396,-16.5001"/>
</g>
</g>
</svg>
