<?xml version="1.0" encoding="UTF-8" standalone="no"?>
<!DOCTYPE svg PUBLIC "-//W3C//DTD SVG 1.1//EN"
 "http://www.w3.org/Graphics/SVG/1.1/DTD/svg11.dtd">
<!-- Generated by graphviz version 2.26.3 (20100126.1600)
 -->
<!-- Title: proc~~save_time_serie~~CalledByGraph Pages: 1 -->
<svg width="352pt" height="210pt"
 viewBox="0.00 0.00 352.00 210.00" xmlns="http://www.w3.org/2000/svg" xmlns:xlink="http://www.w3.org/1999/xlink">
<g id="graph1" class="graph" transform="scale(1 1) rotate(0) translate(4 206)">
<title>proc~~save_time_serie~~CalledByGraph</title>
<polygon fill="white" stroke="white" points="-4,5 -4,-206 349,-206 349,5 -4,5"/>
<!-- proc~save_time_serie -->
<g id="node1" class="node"><title>proc~save_time_serie</title>
<polygon fill="none" stroke="black" points="343,-114 253,-114 253,-88 343,-88 343,-114"/>
<text text-anchor="middle" x="298" y="-98.55" font-family="Helvetica,sans-Serif" font-size="10.50">save_time_serie</text>
</g>
<!-- proc~test_tvd_rk~2 -->
<g id="node2" class="node"><title>proc~test_tvd_rk~2</title>
<a xlink:href="../proc/test_tvd_rk%7E2.html" xlink:title="test_tvd_rk">
<polygon fill="#d9534f" stroke="#d9534f" points="210,-202 146,-202 146,-176 210,-176 210,-202"/>
<text text-anchor="middle" x="178" y="-186.55" font-family="Helvetica,sans-Serif" font-size="10.50" fill="white">test_tvd_rk</text>
</a>
</g>
<!-- proc~test_tvd_rk~2&#45;&gt;proc~save_time_serie -->
<g id="edge12" class="edge"><title>proc~test_tvd_rk~2&#45;&gt;proc~save_time_serie</title>
<path fill="none" stroke="black" d="M202.061,-175.816C206.765,-173.031 211.6,-170.019 216,-167 236.917,-152.651 259.259,-134.459 275.33,-120.81"/>
<polygon fill="black" stroke="black" points="277.808,-123.296 283.123,-114.131 273.252,-117.982 277.808,-123.296"/>
</g>
<!-- proc~test_euler~2 -->
<g id="node3" class="node"><title>proc~test_euler~2</title>
<a xlink:href="../proc/test_euler%7E2.html" xlink:title="test_euler">
<polygon fill="#d9534f" stroke="#d9534f" points="208,-158 148,-158 148,-132 208,-132 208,-158"/>
<text text-anchor="middle" x="178" y="-142.55" font-family="Helvetica,sans-Serif" font-size="10.50" fill="white">test_euler</text>
</a>
</g>
<!-- proc~test_euler~2&#45;&gt;proc~save_time_serie -->
<g id="edge14" class="edge"><title>proc~test_euler~2&#45;&gt;proc~save_time_serie</title>
<path fill="none" stroke="black" d="M208.281,-133.897C221.723,-128.968 237.826,-123.064 252.657,-117.626"/>
<polygon fill="black" stroke="black" points="253.995,-120.863 262.179,-114.134 251.585,-114.291 253.995,-120.863"/>
</g>
<!-- proc~test_ls_rk~2 -->
<g id="node4" class="node"><title>proc~test_ls_rk~2</title>
<a xlink:href="../proc/test_ls_rk%7E2.html" xlink:title="test_ls_rk">
<polygon fill="#d9534f" stroke="#d9534f" points="207,-114 149,-114 149,-88 207,-88 207,-114"/>
<text text-anchor="middle" x="178" y="-98.55" font-family="Helvetica,sans-Serif" font-size="10.50" fill="white">test_ls_rk</text>
</a>
</g>
<!-- proc~test_ls_rk~2&#45;&gt;proc~save_time_serie -->
<g id="edge16" class="edge"><title>proc~test_ls_rk~2&#45;&gt;proc~save_time_serie</title>
<path fill="none" stroke="black" d="M207.049,-101C217.67,-101 230.073,-101 242.243,-101"/>
<polygon fill="black" stroke="black" points="242.366,-104.5 252.366,-101 242.366,-97.5001 242.366,-104.5"/>
</g>
<!-- proc~test_ab~2 -->
<g id="node5" class="node"><title>proc~test_ab~2</title>
<a xlink:href="../proc/test_ab%7E2.html" xlink:title="test_ab">
<polygon fill="#d9534f" stroke="#d9534f" points="205,-70 151,-70 151,-44 205,-44 205,-70"/>
<text text-anchor="middle" x="178" y="-54.55" font-family="Helvetica,sans-Serif" font-size="10.50" fill="white">test_ab</text>
</a>
</g>
<!-- proc~test_ab~2&#45;&gt;proc~save_time_serie -->
<g id="edge18" class="edge"><title>proc~test_ab~2&#45;&gt;proc~save_time_serie</title>
<path fill="none" stroke="black" d="M205.23,-66.9843C219.203,-72.1076 236.596,-78.4851 252.533,-84.3288"/>
<polygon fill="black" stroke="black" points="251.631,-87.7258 262.225,-87.8823 254.041,-81.1537 251.631,-87.7258"/>
</g>
<!-- proc~test_leapfrog~2 -->
<g id="node6" class="node"><title>proc~test_leapfrog~2</title>
<a xlink:href="../proc/test_leapfrog%7E2.html" xlink:title="test_leapfrog">
<polygon fill="#d9534f" stroke="#d9534f" points="215,-26 141,-26 141,-1.24345e-14 215,-3.55271e-15 215,-26"/>
<text text-anchor="middle" x="178" y="-10.55" font-family="Helvetica,sans-Serif" font-size="10.50" fill="white">test_leapfrog</text>
</a>
</g>
<!-- proc~test_leapfrog~2&#45;&gt;proc~save_time_serie -->
<g id="edge20" class="edge"><title>proc~test_leapfrog~2&#45;&gt;proc~save_time_serie</title>
<path fill="none" stroke="black" d="M202.061,-26.1845C206.765,-28.9688 211.6,-31.9815 216,-35 236.917,-49.3489 259.259,-67.5408 275.33,-81.19"/>
<polygon fill="black" stroke="black" points="273.252,-84.0185 283.123,-87.8691 277.808,-78.7037 273.252,-84.0185"/>
</g>
<!-- program~integrate_euler_1d -->
<g id="node7" class="node"><title>program~integrate_euler_1d</title>
<a xlink:href="../program/integrate_euler_1d.html" xlink:title="integrate_euler_1D">
<polygon fill="#f0ad4e" stroke="#f0ad4e" points="104,-114 3.55271e-14,-114 0,-88 104,-88 104,-114"/>
<text text-anchor="middle" x="52" y="-98.55" font-family="Helvetica,sans-Serif" font-size="10.50" fill="white">integrate_euler_1D</text>
</a>
</g>
<!-- program~integrate_euler_1d&#45;&gt;proc~test_tvd_rk~2 -->
<g id="edge2" class="edge"><title>program~integrate_euler_1d&#45;&gt;proc~test_tvd_rk~2</title>
<path fill="none" stroke="black" d="M68.1221,-114.005C85.4573,-127.77 114.033,-149.833 140,-167 141.86,-168.23 143.791,-169.466 145.753,-170.69"/>
<polygon fill="black" stroke="black" points="144.054,-173.753 154.423,-175.933 147.677,-167.763 144.054,-173.753"/>
</g>
<!-- program~integrate_euler_1d&#45;&gt;proc~test_euler~2 -->
<g id="edge4" class="edge"><title>program~integrate_euler_1d&#45;&gt;proc~test_euler~2</title>
<path fill="none" stroke="black" d="M89.463,-114.082C104.697,-119.402 122.329,-125.559 137.828,-130.972"/>
<polygon fill="black" stroke="black" points="137.065,-134.412 147.66,-134.405 139.373,-127.804 137.065,-134.412"/>
</g>
<!-- program~integrate_euler_1d&#45;&gt;proc~test_ls_rk~2 -->
<g id="edge6" class="edge"><title>program~integrate_euler_1d&#45;&gt;proc~test_ls_rk~2</title>
<path fill="none" stroke="black" d="M104.341,-101C115.818,-101 127.782,-101 138.648,-101"/>
<polygon fill="black" stroke="black" points="138.677,-104.5 148.677,-101 138.677,-97.5001 138.677,-104.5"/>
</g>
<!-- program~integrate_euler_1d&#45;&gt;proc~test_ab~2 -->
<g id="edge8" class="edge"><title>program~integrate_euler_1d&#45;&gt;proc~test_ab~2</title>
<path fill="none" stroke="black" d="M89.463,-87.9177C105.803,-82.2116 124.902,-75.5422 141.17,-69.8614"/>
<polygon fill="black" stroke="black" points="142.596,-73.0707 150.883,-66.4695 140.288,-66.4621 142.596,-73.0707"/>
</g>
<!-- program~integrate_euler_1d&#45;&gt;proc~test_leapfrog~2 -->
<g id="edge10" class="edge"><title>program~integrate_euler_1d&#45;&gt;proc~test_leapfrog~2</title>
<path fill="none" stroke="black" d="M68.1221,-87.9946C85.4573,-74.23 114.033,-52.167 140,-35 141.86,-33.7703 143.791,-32.5344 145.753,-31.3098"/>
<polygon fill="black" stroke="black" points="147.677,-34.2366 154.423,-26.067 144.054,-28.2466 147.677,-34.2366"/>
</g>
</g>
</svg>
