<?xml version="1.0" encoding="UTF-8" standalone="no"?>
<!DOCTYPE svg PUBLIC "-//W3C//DTD SVG 1.1//EN"
 "http://www.w3.org/Graphics/SVG/1.1/DTD/svg11.dtd">
<!-- Generated by graphviz version 2.26.3 (20100126.1600)
 -->
<!-- Title: proc~~save_results~2~~CalledByGraph Pages: 1 -->
<svg width="324pt" height="166pt"
 viewBox="0.00 0.00 324.00 166.00" xmlns="http://www.w3.org/2000/svg" xmlns:xlink="http://www.w3.org/1999/xlink">
<g id="graph1" class="graph" transform="scale(1 1) rotate(0) translate(4 162)">
<title>proc~~save_results~2~~CalledByGraph</title>
<polygon fill="white" stroke="white" points="-4,5 -4,-162 321,-162 321,5 -4,5"/>
<!-- proc~save_results~2 -->
<g id="node1" class="node"><title>proc~save_results~2</title>
<polygon fill="none" stroke="black" points="315,-92 243,-92 243,-66 315,-66 315,-92"/>
<text text-anchor="middle" x="279" y="-76.55" font-family="Helvetica,sans-Serif" font-size="10.50">save_results</text>
</g>
<!-- proc~test_ls_rk~2 -->
<g id="node2" class="node"><title>proc~test_ls_rk~2</title>
<a xlink:href="../proc/test_ls_rk%7E2.html" xlink:title="test_ls_rk">
<polygon fill="#d9534f" stroke="#d9534f" points="202,-158 144,-158 144,-132 202,-132 202,-158"/>
<text text-anchor="middle" x="173" y="-142.55" font-family="Helvetica,sans-Serif" font-size="10.50" fill="white">test_ls_rk</text>
</a>
</g>
<!-- proc~test_ls_rk~2&#45;&gt;proc~save_results~2 -->
<g id="edge10" class="edge"><title>proc~test_ls_rk~2&#45;&gt;proc~save_results~2</title>
<path fill="none" stroke="black" d="M193.942,-131.961C209.767,-122.107 231.699,-108.451 249.329,-97.4742"/>
<polygon fill="black" stroke="black" points="251.462,-100.269 258.101,-92.0124 247.762,-94.3269 251.462,-100.269"/>
</g>
<!-- proc~test_euler~2 -->
<g id="node3" class="node"><title>proc~test_euler~2</title>
<a xlink:href="../proc/test_euler%7E2.html" xlink:title="test_euler">
<polygon fill="#d9534f" stroke="#d9534f" points="203,-114 143,-114 143,-88 203,-88 203,-114"/>
<text text-anchor="middle" x="173" y="-98.55" font-family="Helvetica,sans-Serif" font-size="10.50" fill="white">test_euler</text>
</a>
</g>
<!-- proc~test_euler~2&#45;&gt;proc~save_results~2 -->
<g id="edge12" class="edge"><title>proc~test_euler~2&#45;&gt;proc~save_results~2</title>
<path fill="none" stroke="black" d="M203.092,-94.7545C212.273,-92.849 222.59,-90.7078 232.589,-88.6325"/>
<polygon fill="black" stroke="black" points="233.348,-92.0496 242.428,-86.5904 231.925,-85.1957 233.348,-92.0496"/>
</g>
<!-- proc~test_ab~2 -->
<g id="node4" class="node"><title>proc~test_ab~2</title>
<a xlink:href="../proc/test_ab%7E2.html" xlink:title="test_ab">
<polygon fill="#d9534f" stroke="#d9534f" points="200,-70 146,-70 146,-44 200,-44 200,-70"/>
<text text-anchor="middle" x="173" y="-54.55" font-family="Helvetica,sans-Serif" font-size="10.50" fill="white">test_ab</text>
</a>
</g>
<!-- proc~test_ab~2&#45;&gt;proc~save_results~2 -->
<g id="edge14" class="edge"><title>proc~test_ab~2&#45;&gt;proc~save_results~2</title>
<path fill="none" stroke="black" d="M200.023,-62.6085C209.885,-64.6553 221.341,-67.033 232.418,-69.332"/>
<polygon fill="black" stroke="black" points="231.924,-72.8041 242.427,-71.4094 233.347,-65.9501 231.924,-72.8041"/>
</g>
<!-- proc~test_tvd_rk~2 -->
<g id="node5" class="node"><title>proc~test_tvd_rk~2</title>
<a xlink:href="../proc/test_tvd_rk%7E2.html" xlink:title="test_tvd_rk">
<polygon fill="#d9534f" stroke="#d9534f" points="205,-26 141,-26 141,-1.24345e-14 205,-3.55271e-15 205,-26"/>
<text text-anchor="middle" x="173" y="-10.55" font-family="Helvetica,sans-Serif" font-size="10.50" fill="white">test_tvd_rk</text>
</a>
</g>
<!-- proc~test_tvd_rk~2&#45;&gt;proc~save_results~2 -->
<g id="edge16" class="edge"><title>proc~test_tvd_rk~2&#45;&gt;proc~save_results~2</title>
<path fill="none" stroke="black" d="M193.942,-26.0395C209.767,-35.8927 231.699,-49.5487 249.329,-60.5258"/>
<polygon fill="black" stroke="black" points="247.762,-63.6731 258.101,-65.9876 251.462,-57.7308 247.762,-63.6731"/>
</g>
<!-- program~integrate_euler_1d -->
<g id="node6" class="node"><title>program~integrate_euler_1d</title>
<a xlink:href="../program/integrate_euler_1d.html" xlink:title="integrate_euler_1D">
<polygon fill="#f0ad4e" stroke="#f0ad4e" points="104,-92 3.55271e-14,-92 0,-66 104,-66 104,-92"/>
<text text-anchor="middle" x="52" y="-76.55" font-family="Helvetica,sans-Serif" font-size="10.50" fill="white">integrate_euler_1D</text>
</a>
</g>
<!-- program~integrate_euler_1d&#45;&gt;proc~test_ls_rk~2 -->
<g id="edge2" class="edge"><title>program~integrate_euler_1d&#45;&gt;proc~test_ls_rk~2</title>
<path fill="none" stroke="black" d="M75.9057,-92.0395C94.3013,-102.073 119.927,-116.051 140.233,-127.127"/>
<polygon fill="black" stroke="black" points="138.689,-130.272 149.144,-131.988 142.041,-124.126 138.689,-130.272"/>
</g>
<!-- program~integrate_euler_1d&#45;&gt;proc~test_euler~2 -->
<g id="edge4" class="edge"><title>program~integrate_euler_1d&#45;&gt;proc~test_euler~2</title>
<path fill="none" stroke="black" d="M104.017,-88.4577C113.604,-90.2007 123.481,-91.9965 132.659,-93.6653"/>
<polygon fill="black" stroke="black" points="132.207,-97.1403 142.672,-95.4857 133.459,-90.2533 132.207,-97.1403"/>
</g>
<!-- program~integrate_euler_1d&#45;&gt;proc~test_ab~2 -->
<g id="edge6" class="edge"><title>program~integrate_euler_1d&#45;&gt;proc~test_ab~2</title>
<path fill="none" stroke="black" d="M104.017,-69.5423C114.666,-67.6062 125.672,-65.605 135.682,-63.7852"/>
<polygon fill="black" stroke="black" points="136.482,-67.1971 145.694,-61.9647 135.23,-60.3101 136.482,-67.1971"/>
</g>
<!-- program~integrate_euler_1d&#45;&gt;proc~test_tvd_rk~2 -->
<g id="edge8" class="edge"><title>program~integrate_euler_1d&#45;&gt;proc~test_tvd_rk~2</title>
<path fill="none" stroke="black" d="M75.9057,-65.9605C94.3013,-55.9266 119.927,-41.9489 140.233,-30.8727"/>
<polygon fill="black" stroke="black" points="142.041,-33.8736 149.144,-26.0124 138.689,-27.7283 142.041,-33.8736"/>
</g>
</g>
</svg>
