<?xml version="1.0" encoding="UTF-8" standalone="no"?>
<!DOCTYPE svg PUBLIC "-//W3C//DTD SVG 1.1//EN"
 "http://www.w3.org/Graphics/SVG/1.1/DTD/svg11.dtd">
<!-- Generated by graphviz version 2.26.3 (20100126.1600)
 -->
<!-- Title: proc~~a~~CalledByGraph Pages: 1 -->
<svg width="168pt" height="34pt"
 viewBox="0.00 0.00 168.00 34.00" xmlns="http://www.w3.org/2000/svg" xmlns:xlink="http://www.w3.org/1999/xlink">
<g id="graph1" class="graph" transform="scale(1 1) rotate(0) translate(4 30)">
<title>proc~~a~~CalledByGraph</title>
<polygon fill="white" stroke="white" points="-4,5 -4,-30 165,-30 165,5 -4,5"/>
<!-- proc~a -->
<g id="node1" class="node"><title>proc~a</title>
<polygon fill="none" stroke="black" points="160,-26 106,-26 106,-1.24345e-14 160,-3.55271e-15 160,-26"/>
<text text-anchor="middle" x="133" y="-10.55" font-family="Helvetica,sans-Serif" font-size="10.50">a</text>
</g>
<!-- proc~compute_dt~2 -->
<g id="node2" class="node"><title>proc~compute_dt~2</title>
<a xlink:href="../proc/compute_dt%7E2.html" xlink:title="compute_dt">
<polygon fill="#d94e8f" stroke="#d94e8f" points="69,-26 1,-26 1,-1.24345e-14 69,-3.55271e-15 69,-26"/>
<text text-anchor="middle" x="35" y="-10.55" font-family="Helvetica,sans-Serif" font-size="10.50" fill="white">compute_dt</text>
</a>
</g>
<!-- proc~compute_dt~2&#45;&gt;proc~a -->
<g id="edge2" class="edge"><title>proc~compute_dt~2&#45;&gt;proc~a</title>
<path fill="none" stroke="black" d="M69.5511,-13C78.0135,-13 87.1073,-13 95.6925,-13"/>
<polygon fill="black" stroke="black" points="95.8358,-16.5001 105.836,-13 95.8357,-9.5001 95.8358,-16.5001"/>
</g>
</g>
</svg>
