<?xml version="1.0" encoding="UTF-8" standalone="no"?>
<!DOCTYPE svg PUBLIC "-//W3C//DTD SVG 1.1//EN"
 "http://www.w3.org/Graphics/SVG/1.1/DTD/svg11.dtd">
<!-- Generated by graphviz version 2.26.3 (20100126.1600)
 -->
<!-- Title: proc~~save_time_serie~~CalledByGraph Pages: 1 -->
<svg width="342pt" height="166pt"
 viewBox="0.00 0.00 342.00 166.00" xmlns="http://www.w3.org/2000/svg" xmlns:xlink="http://www.w3.org/1999/xlink">
<g id="graph1" class="graph" transform="scale(1 1) rotate(0) translate(4 162)">
<title>proc~~save_time_serie~~CalledByGraph</title>
<polygon fill="white" stroke="white" points="-4,5 -4,-162 339,-162 339,5 -4,5"/>
<!-- proc~save_time_serie -->
<g id="node1" class="node"><title>proc~save_time_serie</title>
<polygon fill="none" stroke="black" points="333,-92 243,-92 243,-66 333,-66 333,-92"/>
<text text-anchor="middle" x="288" y="-76.55" font-family="Helvetica,sans-Serif" font-size="10.50">save_time_serie</text>
</g>
<!-- proc~test_ls_rk~2 -->
<g id="node2" class="node"><title>proc~test_ls_rk~2</title>
<a xlink:href="../proc/test_ls_rk%7E2.html" xlink:title="test_ls_rk">
<polygon fill="#d9534f" stroke="#d9534f" points="202,-158 144,-158 144,-132 202,-132 202,-158"/>
<text text-anchor="middle" x="173" y="-142.55" font-family="Helvetica,sans-Serif" font-size="10.50" fill="white">test_ls_rk</text>
</a>
</g>
<!-- proc~test_ls_rk~2&#45;&gt;proc~save_time_serie -->
<g id="edge10" class="edge"><title>proc~test_ls_rk~2&#45;&gt;proc~save_time_serie</title>
<path fill="none" stroke="black" d="M195.72,-131.961C213.125,-121.972 237.34,-108.075 256.597,-97.0225"/>
<polygon fill="black" stroke="black" points="258.396,-100.026 265.327,-92.0124 254.912,-93.9545 258.396,-100.026"/>
</g>
<!-- proc~test_euler~2 -->
<g id="node3" class="node"><title>proc~test_euler~2</title>
<a xlink:href="../proc/test_euler%7E2.html" xlink:title="test_euler">
<polygon fill="#d9534f" stroke="#d9534f" points="203,-114 143,-114 143,-88 203,-88 203,-114"/>
<text text-anchor="middle" x="173" y="-98.55" font-family="Helvetica,sans-Serif" font-size="10.50" fill="white">test_euler</text>
</a>
</g>
<!-- proc~test_euler~2&#45;&gt;proc~save_time_serie -->
<g id="edge12" class="edge"><title>proc~test_euler~2&#45;&gt;proc~save_time_serie</title>
<path fill="none" stroke="black" d="M203.215,-95.2198C212.199,-93.5011 222.34,-91.5611 232.403,-89.636"/>
<polygon fill="black" stroke="black" points="233.23,-93.0413 242.394,-87.7246 231.915,-86.166 233.23,-93.0413"/>
</g>
<!-- proc~test_ab~2 -->
<g id="node4" class="node"><title>proc~test_ab~2</title>
<a xlink:href="../proc/test_ab%7E2.html" xlink:title="test_ab">
<polygon fill="#d9534f" stroke="#d9534f" points="200,-70 146,-70 146,-44 200,-44 200,-70"/>
<text text-anchor="middle" x="173" y="-54.55" font-family="Helvetica,sans-Serif" font-size="10.50" fill="white">test_ab</text>
</a>
</g>
<!-- proc~test_ab~2&#45;&gt;proc~save_time_serie -->
<g id="edge14" class="edge"><title>proc~test_ab~2&#45;&gt;proc~save_time_serie</title>
<path fill="none" stroke="black" d="M200.253,-62.2137C209.814,-64.0426 220.934,-66.1699 231.981,-68.2832"/>
<polygon fill="black" stroke="black" points="231.579,-71.7698 242.058,-70.2112 232.894,-64.8944 231.579,-71.7698"/>
</g>
<!-- proc~test_tvd_rk~2 -->
<g id="node5" class="node"><title>proc~test_tvd_rk~2</title>
<a xlink:href="../proc/test_tvd_rk%7E2.html" xlink:title="test_tvd_rk">
<polygon fill="#d9534f" stroke="#d9534f" points="205,-26 141,-26 141,-1.24345e-14 205,-3.55271e-15 205,-26"/>
<text text-anchor="middle" x="173" y="-10.55" font-family="Helvetica,sans-Serif" font-size="10.50" fill="white">test_tvd_rk</text>
</a>
</g>
<!-- proc~test_tvd_rk~2&#45;&gt;proc~save_time_serie -->
<g id="edge16" class="edge"><title>proc~test_tvd_rk~2&#45;&gt;proc~save_time_serie</title>
<path fill="none" stroke="black" d="M195.72,-26.0395C213.125,-36.0282 237.34,-49.9253 256.597,-60.9775"/>
<polygon fill="black" stroke="black" points="254.912,-64.0455 265.327,-65.9876 258.396,-57.9743 254.912,-64.0455"/>
</g>
<!-- program~integrate_euler_1d -->
<g id="node6" class="node"><title>program~integrate_euler_1d</title>
<a xlink:href="../program/integrate_euler_1d.html" xlink:title="integrate_euler_1D">
<polygon fill="#f0ad4e" stroke="#f0ad4e" points="104,-92 3.55271e-14,-92 0,-66 104,-66 104,-92"/>
<text text-anchor="middle" x="52" y="-76.55" font-family="Helvetica,sans-Serif" font-size="10.50" fill="white">integrate_euler_1D</text>
</a>
</g>
<!-- program~integrate_euler_1d&#45;&gt;proc~test_ls_rk~2 -->
<g id="edge2" class="edge"><title>program~integrate_euler_1d&#45;&gt;proc~test_ls_rk~2</title>
<path fill="none" stroke="black" d="M75.9057,-92.0395C94.3013,-102.073 119.927,-116.051 140.233,-127.127"/>
<polygon fill="black" stroke="black" points="138.689,-130.272 149.144,-131.988 142.041,-124.126 138.689,-130.272"/>
</g>
<!-- program~integrate_euler_1d&#45;&gt;proc~test_euler~2 -->
<g id="edge4" class="edge"><title>program~integrate_euler_1d&#45;&gt;proc~test_euler~2</title>
<path fill="none" stroke="black" d="M104.017,-88.4577C113.604,-90.2007 123.481,-91.9965 132.659,-93.6653"/>
<polygon fill="black" stroke="black" points="132.207,-97.1403 142.672,-95.4857 133.459,-90.2533 132.207,-97.1403"/>
</g>
<!-- program~integrate_euler_1d&#45;&gt;proc~test_ab~2 -->
<g id="edge6" class="edge"><title>program~integrate_euler_1d&#45;&gt;proc~test_ab~2</title>
<path fill="none" stroke="black" d="M104.017,-69.5423C114.666,-67.6062 125.672,-65.605 135.682,-63.7852"/>
<polygon fill="black" stroke="black" points="136.482,-67.1971 145.694,-61.9647 135.23,-60.3101 136.482,-67.1971"/>
</g>
<!-- program~integrate_euler_1d&#45;&gt;proc~test_tvd_rk~2 -->
<g id="edge8" class="edge"><title>program~integrate_euler_1d&#45;&gt;proc~test_tvd_rk~2</title>
<path fill="none" stroke="black" d="M75.9057,-65.9605C94.3013,-55.9266 119.927,-41.9489 140.233,-30.8727"/>
<polygon fill="black" stroke="black" points="142.041,-33.8736 149.144,-26.0124 138.689,-27.7283 142.041,-33.8736"/>
</g>
</g>
</svg>
