<?xml version="1.0" encoding="UTF-8" standalone="no"?>
<!DOCTYPE svg PUBLIC "-//W3C//DTD SVG 1.1//EN"
 "http://www.w3.org/Graphics/SVG/1.1/DTD/svg11.dtd">
<!-- Generated by graphviz version 2.38.0 (20140413.2041)
 -->
<!-- Title: program~~integrate_lorenz~~CallsGraph Pages: 1 -->
<svg width="462pt" height="116pt"
 viewBox="0.00 0.00 462.00 116.00" xmlns="http://www.w3.org/2000/svg" xmlns:xlink="http://www.w3.org/1999/xlink">
<g id="graph0" class="graph" transform="scale(1 1) rotate(0) translate(4 112)">
<title>program~~integrate_lorenz~~CallsGraph</title>
<polygon fill="white" stroke="none" points="-4,4 -4,-112 458,-112 458,4 -4,4"/>
<!-- program~integrate_lorenz -->
<g id="node1" class="node"><title>program~integrate_lorenz</title>
<polygon fill="none" stroke="black" points="90,-66 0,-66 0,-42 90,-42 90,-66"/>
<text text-anchor="middle" x="45" y="-51.6" font-family="Helvetica,sans-Serif" font-size="10.50">integrate_lorenz</text>
</g>
<!-- proc~test_rk~2 -->
<g id="node2" class="node"><title>proc~test_rk~2</title>
<g id="a_node2"><a xlink:href="../proc/test_rk%7E2.html" xlink:title="test_rk">
<polygon fill="#d9534f" stroke="#d9534f" points="183,-24 129,-24 129,-0 183,-0 183,-24"/>
<text text-anchor="middle" x="156" y="-9.6" font-family="Helvetica,sans-Serif" font-size="10.50" fill="white">test_rk</text>
</a>
</g>
</g>
<!-- program~integrate_lorenz&#45;&gt;proc~test_rk~2 -->
<g id="edge9" class="edge"><title>program~integrate_lorenz&#45;&gt;proc~test_rk~2</title>
<path fill="none" stroke="black" d="M77.235,-41.9645C90.3967,-36.893 105.787,-30.9628 119.387,-25.7225"/>
<polygon fill="black" stroke="black" points="120.843,-28.9124 128.916,-22.0509 118.326,-22.3805 120.843,-28.9124"/>
</g>
<!-- proc~test_euler~2 -->
<g id="node3" class="node"><title>proc~test_euler~2</title>
<g id="a_node3"><a xlink:href="../proc/test_euler%7E2.html" xlink:title="test_euler">
<polygon fill="#d9534f" stroke="#d9534f" points="186,-108 126,-108 126,-84 186,-84 186,-108"/>
<text text-anchor="middle" x="156" y="-93.6" font-family="Helvetica,sans-Serif" font-size="10.50" fill="white">test_euler</text>
</a>
</g>
</g>
<!-- program~integrate_lorenz&#45;&gt;proc~test_euler~2 -->
<g id="edge10" class="edge"><title>program~integrate_lorenz&#45;&gt;proc~test_euler~2</title>
<path fill="none" stroke="black" d="M77.235,-66.0355C89.3666,-70.7101 103.392,-76.1142 116.163,-81.0351"/>
<polygon fill="black" stroke="black" points="115.042,-84.3543 125.632,-84.6839 117.559,-77.8224 115.042,-84.3543"/>
</g>
<!-- proc~test_ab~2 -->
<g id="node4" class="node"><title>proc~test_ab~2</title>
<g id="a_node4"><a xlink:href="../proc/test_ab%7E2.html" xlink:title="test_ab">
<polygon fill="#d9534f" stroke="#d9534f" points="183,-66 129,-66 129,-42 183,-42 183,-66"/>
<text text-anchor="middle" x="156" y="-51.6" font-family="Helvetica,sans-Serif" font-size="10.50" fill="white">test_ab</text>
</a>
</g>
</g>
<!-- program~integrate_lorenz&#45;&gt;proc~test_ab~2 -->
<g id="edge11" class="edge"><title>program~integrate_lorenz&#45;&gt;proc~test_ab~2</title>
<path fill="none" stroke="black" d="M90.0203,-54C99.448,-54 109.311,-54 118.421,-54"/>
<polygon fill="black" stroke="black" points="118.7,-57.5001 128.7,-54 118.7,-50.5001 118.7,-57.5001"/>
</g>
<!-- proc~save_plots~2 -->
<g id="node5" class="node"><title>proc~save_plots~2</title>
<g id="a_node5"><a xlink:href="../proc/save_plots%7E2.html" xlink:title="save_plots">
<polygon fill="#d9534f" stroke="#d9534f" points="325,-108 261,-108 261,-84 325,-84 325,-108"/>
<text text-anchor="middle" x="293" y="-93.6" font-family="Helvetica,sans-Serif" font-size="10.50" fill="white">save_plots</text>
</a>
</g>
</g>
<!-- proc~test_rk~2&#45;&gt;proc~save_plots~2 -->
<g id="edge2" class="edge"><title>proc~test_rk~2&#45;&gt;proc~save_plots~2</title>
<path fill="none" stroke="black" d="M175.002,-24.0243C178.767,-26.8136 182.617,-29.8832 186,-33 204.082,-49.6584 201.392,-61.5922 222,-75 230.694,-80.6566 240.974,-84.842 250.94,-87.9189"/>
<polygon fill="black" stroke="black" points="250.159,-91.3345 260.731,-90.6398 252.033,-84.5901 250.159,-91.3345"/>
</g>
<!-- str -->
<g id="node6" class="node"><title>str</title>
<polygon fill="#777777" stroke="#777777" points="320,-24 266,-24 266,-0 320,-0 320,-24"/>
<text text-anchor="middle" x="293" y="-9.6" font-family="Helvetica,sans-Serif" font-size="10.50" fill="white">str</text>
</g>
<!-- proc~test_rk~2&#45;&gt;str -->
<g id="edge3" class="edge"><title>proc~test_rk~2&#45;&gt;str</title>
<path fill="none" stroke="black" d="M183.029,-12C203.627,-12 232.636,-12 255.545,-12"/>
<polygon fill="black" stroke="black" points="255.59,-15.5001 265.59,-12 255.59,-8.5001 255.59,-15.5001"/>
</g>
<!-- interface~tvd_runge_kutta_integrator -->
<g id="node7" class="node"><title>interface~tvd_runge_kutta_integrator</title>
<g id="a_node7"><a xlink:href="../interface/tvd_runge_kutta_integrator.html" xlink:title="tvd_runge_kutta_integrator">
<polygon fill="#a7506f" stroke="#a7506f" points="364,-66 222,-66 222,-42 364,-42 364,-66"/>
<text text-anchor="middle" x="293" y="-51.6" font-family="Helvetica,sans-Serif" font-size="10.50" fill="white">tvd_runge_kutta_integrator</text>
</a>
</g>
</g>
<!-- proc~test_rk~2&#45;&gt;interface~tvd_runge_kutta_integrator -->
<g id="edge4" class="edge"><title>proc~test_rk~2&#45;&gt;interface~tvd_runge_kutta_integrator</title>
<path fill="none" stroke="black" d="M183.21,-20.6065C195.042,-24.4559 209.206,-29.0145 222,-33 228.348,-34.9775 235.031,-37.0254 241.645,-39.0321"/>
<polygon fill="black" stroke="black" points="240.655,-42.389 251.24,-41.9295 242.678,-35.6879 240.655,-42.389"/>
</g>
<!-- proc~test_euler~2&#45;&gt;proc~save_plots~2 -->
<g id="edge5" class="edge"><title>proc~test_euler~2&#45;&gt;proc~save_plots~2</title>
<path fill="none" stroke="black" d="M186.293,-96C205.134,-96 229.895,-96 250.717,-96"/>
<polygon fill="black" stroke="black" points="250.885,-99.5001 260.885,-96 250.885,-92.5001 250.885,-99.5001"/>
</g>
<!-- proc~test_ab~2&#45;&gt;proc~save_plots~2 -->
<g id="edge6" class="edge"><title>proc~test_ab~2&#45;&gt;proc~save_plots~2</title>
<path fill="none" stroke="black" d="M183.21,-62.6065C195.042,-66.4559 209.206,-71.0145 222,-75 231.44,-77.9406 241.62,-81.0369 251.214,-83.9217"/>
<polygon fill="black" stroke="black" points="250.36,-87.3196 260.944,-86.8358 252.368,-80.6139 250.36,-87.3196"/>
</g>
<!-- proc~test_ab~2&#45;&gt;str -->
<g id="edge7" class="edge"><title>proc~test_ab~2&#45;&gt;str</title>
<path fill="none" stroke="black" d="M183.21,-45.3935C195.042,-41.5441 209.206,-36.9855 222,-33 233.037,-29.562 245.084,-25.9113 256.025,-22.6347"/>
<polygon fill="black" stroke="black" points="257.118,-25.9609 265.7,-19.7476 255.117,-19.2531 257.118,-25.9609"/>
</g>
<!-- proc~test_ab~2&#45;&gt;interface~tvd_runge_kutta_integrator -->
<g id="edge8" class="edge"><title>proc~test_ab~2&#45;&gt;interface~tvd_runge_kutta_integrator</title>
<path fill="none" stroke="black" d="M183.029,-54C191.565,-54 201.544,-54 211.936,-54"/>
<polygon fill="black" stroke="black" points="211.992,-57.5001 221.992,-54 211.991,-50.5001 211.992,-57.5001"/>
</g>
<!-- proc~create -->
<g id="node8" class="node"><title>proc~create</title>
<g id="a_node8"><a xlink:href="../proc/create.html" xlink:title="create">
<polygon fill="#d94e8f" stroke="#d94e8f" points="454,-66 400,-66 400,-42 454,-42 454,-66"/>
<text text-anchor="middle" x="427" y="-51.6" font-family="Helvetica,sans-Serif" font-size="10.50" fill="white">create</text>
</a>
</g>
</g>
<!-- interface~tvd_runge_kutta_integrator&#45;&gt;proc~create -->
<g id="edge1" class="edge"><title>interface~tvd_runge_kutta_integrator&#45;&gt;proc~create</title>
<path fill="none" stroke="black" stroke-dasharray="5,2" d="M364.251,-54C373.07,-54 381.787,-54 389.77,-54"/>
<polygon fill="black" stroke="black" points="389.787,-57.5001 399.787,-54 389.787,-50.5001 389.787,-57.5001"/>
</g>
</g>
</svg>
