<?xml version="1.0" encoding="UTF-8" standalone="no"?>
<!DOCTYPE svg PUBLIC "-//W3C//DTD SVG 1.1//EN"
 "http://www.w3.org/Graphics/SVG/1.1/DTD/svg11.dtd">
<!-- Generated by graphviz version 2.26.3 (20100126.1600)
 -->
<!-- Title: program~~integrate_euler_1d~~CallsGraph Pages: 1 -->
<svg width="426pt" height="119pt"
 viewBox="0.00 0.00 426.00 119.00" xmlns="http://www.w3.org/2000/svg" xmlns:xlink="http://www.w3.org/1999/xlink">
<g id="graph1" class="graph" transform="scale(1 1) rotate(0) translate(4 115)">
<title>program~~integrate_euler_1d~~CallsGraph</title>
<polygon fill="white" stroke="white" points="-4,5 -4,-115 423,-115 423,5 -4,5"/>
<!-- program~integrate_euler_1d -->
<g id="node1" class="node"><title>program~integrate_euler_1d</title>
<polygon fill="none" stroke="black" points="104,-48 3.55271e-14,-48 0,-22 104,-22 104,-48"/>
<text text-anchor="middle" x="52" y="-32.55" font-family="Helvetica,sans-Serif" font-size="10.50">integrate_euler_1D</text>
</g>
<!-- proc~test_euler~2 -->
<g id="node2" class="node"><title>proc~test_euler~2</title>
<a xlink:href="../proc/test_euler%7E2.html" xlink:title="test_euler">
<polygon fill="#d9534f" stroke="#d9534f" points="200,-70 140,-70 140,-44 200,-44 200,-70"/>
<text text-anchor="middle" x="170" y="-54.55" font-family="Helvetica,sans-Serif" font-size="10.50" fill="white">test_euler</text>
</a>
</g>
<!-- program~integrate_euler_1d&#45;&gt;proc~test_euler~2 -->
<g id="edge12" class="edge"><title>program~integrate_euler_1d&#45;&gt;proc~test_euler~2</title>
<path fill="none" stroke="black" d="M104.1,-44.7136C112.695,-46.3161 121.489,-47.9555 129.737,-49.4933"/>
<polygon fill="black" stroke="black" points="129.365,-52.9842 139.837,-51.3764 130.648,-46.1028 129.365,-52.9842"/>
</g>
<!-- proc~init~5 -->
<g id="node3" class="node"><title>proc~init~5</title>
<a xlink:href="../proc/init%7E5.html" xlink:title="init">
<polygon fill="#d9534f" stroke="#d9534f" points="197,-26 143,-26 143,-1.24345e-14 197,-3.55271e-15 197,-26"/>
<text text-anchor="middle" x="170" y="-10.55" font-family="Helvetica,sans-Serif" font-size="10.50" fill="white">init</text>
</a>
</g>
<!-- program~integrate_euler_1d&#45;&gt;proc~init~5 -->
<g id="edge14" class="edge"><title>program~integrate_euler_1d&#45;&gt;proc~init~5</title>
<path fill="none" stroke="black" d="M104.1,-25.2864C113.789,-23.48 123.73,-21.6266 132.858,-19.9248"/>
<polygon fill="black" stroke="black" points="133.573,-23.3519 142.762,-18.0783 132.29,-16.4705 133.573,-23.3519"/>
</g>
<!-- proc~save_time_serie -->
<g id="node4" class="node"><title>proc~save_time_serie</title>
<a xlink:href="../proc/save_time_serie.html" xlink:title="save_time_serie">
<polygon fill="#d9534f" stroke="#d9534f" points="327,-111 237,-111 237,-85 327,-85 327,-111"/>
<text text-anchor="middle" x="282" y="-95.55" font-family="Helvetica,sans-Serif" font-size="10.50" fill="white">save_time_serie</text>
</a>
</g>
<!-- proc~test_euler~2&#45;&gt;proc~save_time_serie -->
<g id="edge6" class="edge"><title>proc~test_euler~2&#45;&gt;proc~save_time_serie</title>
<path fill="none" stroke="black" d="M200.014,-67.9872C211.262,-72.1049 224.308,-76.8805 236.639,-81.3945"/>
<polygon fill="black" stroke="black" points="235.733,-84.7901 246.327,-84.9411 238.139,-78.2167 235.733,-84.7901"/>
</g>
<!-- str -->
<g id="node5" class="node"><title>str</title>
<polygon fill="#777777" stroke="#777777" points="418,-70 364,-70 364,-44 418,-44 418,-70"/>
<text text-anchor="middle" x="391" y="-54.55" font-family="Helvetica,sans-Serif" font-size="10.50" fill="white">str</text>
</g>
<!-- proc~test_euler~2&#45;&gt;str -->
<g id="edge8" class="edge"><title>proc~test_euler~2&#45;&gt;str</title>
<path fill="none" stroke="black" d="M200.266,-57C240.237,-57 310.597,-57 353.777,-57"/>
<polygon fill="black" stroke="black" points="353.872,-60.5001 363.872,-57 353.872,-53.5001 353.872,-60.5001"/>
</g>
<!-- proc~save_results~2 -->
<g id="node6" class="node"><title>proc~save_results~2</title>
<a xlink:href="../proc/save_results%7E2.html" xlink:title="save_results">
<polygon fill="#d9534f" stroke="#d9534f" points="318,-29 246,-29 246,-3 318,-3 318,-29"/>
<text text-anchor="middle" x="282" y="-13.55" font-family="Helvetica,sans-Serif" font-size="10.50" fill="white">save_results</text>
</a>
</g>
<!-- proc~test_euler~2&#45;&gt;proc~save_results~2 -->
<g id="edge10" class="edge"><title>proc~test_euler~2&#45;&gt;proc~save_results~2</title>
<path fill="none" stroke="black" d="M200.014,-46.0128C211.262,-41.8951 224.308,-37.1195 236.639,-32.6055"/>
<polygon fill="black" stroke="black" points="238.139,-35.7833 246.327,-29.0589 235.733,-29.2099 238.139,-35.7833"/>
</g>
<!-- proc~save_time_serie&#45;&gt;str -->
<g id="edge2" class="edge"><title>proc~save_time_serie&#45;&gt;str</title>
<path fill="none" stroke="black" d="M316.788,-84.9146C328.783,-80.4026 342.251,-75.3367 354.388,-70.7715"/>
<polygon fill="black" stroke="black" points="355.655,-74.0344 363.782,-67.2378 353.19,-67.4826 355.655,-74.0344"/>
</g>
<!-- proc~save_results~2&#45;&gt;str -->
<g id="edge4" class="edge"><title>proc~save_results~2&#45;&gt;str</title>
<path fill="none" stroke="black" d="M316.788,-29.0854C328.783,-33.5974 342.251,-38.6633 354.388,-43.2285"/>
<polygon fill="black" stroke="black" points="353.19,-46.5174 363.782,-46.7622 355.655,-39.9656 353.19,-46.5174"/>
</g>
</g>
</svg>
