<?xml version="1.0" encoding="UTF-8" standalone="no"?>
<!DOCTYPE svg PUBLIC "-//W3C//DTD SVG 1.1//EN"
 "http://www.w3.org/Graphics/SVG/1.1/DTD/svg11.dtd">
<!-- Generated by graphviz version 2.26.3 (20100126.1600)
 -->
<!-- Title: program~~integrate_burgers~~CallsGraph Pages: 1 -->
<svg width="470pt" height="166pt"
 viewBox="0.00 0.00 470.00 166.00" xmlns="http://www.w3.org/2000/svg" xmlns:xlink="http://www.w3.org/1999/xlink">
<g id="graph1" class="graph" transform="scale(1 1) rotate(0) translate(4 162)">
<title>program~~integrate_burgers~~CallsGraph</title>
<polygon fill="white" stroke="white" points="-4,5 -4,-162 467,-162 467,5 -4,5"/>
<!-- program~integrate_burgers -->
<g id="node1" class="node"><title>program~integrate_burgers</title>
<polygon fill="none" stroke="black" points="97,-92 1,-92 1,-66 97,-66 97,-92"/>
<text text-anchor="middle" x="49" y="-76.55" font-family="Helvetica,sans-Serif" font-size="10.50">integrate_burgers</text>
</g>
<!-- proc~init~3 -->
<g id="node2" class="node"><title>proc~init~3</title>
<a xlink:href="../proc/init%7E3.html" xlink:title="init">
<polygon fill="#d9534f" stroke="#d9534f" points="191,-158 137,-158 137,-132 191,-132 191,-158"/>
<text text-anchor="middle" x="164" y="-142.55" font-family="Helvetica,sans-Serif" font-size="10.50" fill="white">init</text>
</a>
</g>
<!-- program~integrate_burgers&#45;&gt;proc~init~3 -->
<g id="edge18" class="edge"><title>program~integrate_burgers&#45;&gt;proc~init~3</title>
<path fill="none" stroke="black" d="M71.7203,-92.0395C89.125,-102.028 113.34,-115.925 132.597,-126.977"/>
<polygon fill="black" stroke="black" points="130.912,-130.046 141.327,-131.988 134.396,-123.974 130.912,-130.046"/>
</g>
<!-- proc~test_ab -->
<g id="node3" class="node"><title>proc~test_ab</title>
<a xlink:href="../proc/test_ab.html" xlink:title="test_ab">
<polygon fill="#d9534f" stroke="#d9534f" points="191,-70 137,-70 137,-44 191,-44 191,-70"/>
<text text-anchor="middle" x="164" y="-54.55" font-family="Helvetica,sans-Serif" font-size="10.50" fill="white">test_ab</text>
</a>
</g>
<!-- program~integrate_burgers&#45;&gt;proc~test_ab -->
<g id="edge20" class="edge"><title>program~integrate_burgers&#45;&gt;proc~test_ab</title>
<path fill="none" stroke="black" d="M97.7704,-69.67C107.467,-67.8151 117.502,-65.8953 126.739,-64.1283"/>
<polygon fill="black" stroke="black" points="127.603,-67.5265 136.767,-62.2098 126.288,-60.6512 127.603,-67.5265"/>
</g>
<!-- proc~test_rk -->
<g id="node4" class="node"><title>proc~test_rk</title>
<a xlink:href="../proc/test_rk.html" xlink:title="test_rk">
<polygon fill="#d9534f" stroke="#d9534f" points="191,-26 137,-26 137,-1.24345e-14 191,-3.55271e-15 191,-26"/>
<text text-anchor="middle" x="164" y="-10.55" font-family="Helvetica,sans-Serif" font-size="10.50" fill="white">test_rk</text>
</a>
</g>
<!-- program~integrate_burgers&#45;&gt;proc~test_rk -->
<g id="edge22" class="edge"><title>program~integrate_burgers&#45;&gt;proc~test_rk</title>
<path fill="none" stroke="black" d="M71.7203,-65.9605C89.125,-55.9718 113.34,-42.0747 132.597,-31.0225"/>
<polygon fill="black" stroke="black" points="134.396,-34.0257 141.327,-26.0124 130.912,-27.9545 134.396,-34.0257"/>
</g>
<!-- proc~test_euler -->
<g id="node5" class="node"><title>proc~test_euler</title>
<a xlink:href="../proc/test_euler.html" xlink:title="test_euler">
<polygon fill="#d9534f" stroke="#d9534f" points="194,-114 134,-114 134,-88 194,-88 194,-114"/>
<text text-anchor="middle" x="164" y="-98.55" font-family="Helvetica,sans-Serif" font-size="10.50" fill="white">test_euler</text>
</a>
</g>
<!-- program~integrate_burgers&#45;&gt;proc~test_euler -->
<g id="edge24" class="edge"><title>program~integrate_burgers&#45;&gt;proc~test_euler</title>
<path fill="none" stroke="black" d="M97.7704,-88.33C106.475,-89.9952 115.452,-91.7126 123.88,-93.3249"/>
<polygon fill="black" stroke="black" points="123.353,-96.7874 133.832,-95.2287 124.668,-89.912 123.353,-96.7874"/>
</g>
<!-- proc~save_results -->
<g id="node6" class="node"><title>proc~save_results</title>
<a xlink:href="../proc/save_results.html" xlink:title="save_results">
<polygon fill="#d9534f" stroke="#d9534f" points="337,-114 265,-114 265,-88 337,-88 337,-114"/>
<text text-anchor="middle" x="301" y="-98.55" font-family="Helvetica,sans-Serif" font-size="10.50" fill="white">save_results</text>
</a>
</g>
<!-- proc~test_ab&#45;&gt;proc~save_results -->
<g id="edge4" class="edge"><title>proc~test_ab&#45;&gt;proc~save_results</title>
<path fill="none" stroke="black" d="M191.252,-66.2286C203.134,-70.2148 217.237,-74.8959 230,-79 238.035,-81.5838 246.599,-84.2834 254.897,-86.8709"/>
<polygon fill="black" stroke="black" points="253.88,-90.22 264.469,-89.8434 255.957,-83.5349 253.88,-90.22"/>
</g>
<!-- str -->
<g id="node7" class="node"><title>str</title>
<polygon fill="#777777" stroke="#777777" points="328,-26 274,-26 274,-1.24345e-14 328,-3.55271e-15 328,-26"/>
<text text-anchor="middle" x="301" y="-10.55" font-family="Helvetica,sans-Serif" font-size="10.50" fill="white">str</text>
</g>
<!-- proc~test_ab&#45;&gt;str -->
<g id="edge6" class="edge"><title>proc~test_ab&#45;&gt;str</title>
<path fill="none" stroke="black" d="M191.252,-47.7714C203.134,-43.7852 217.237,-39.1041 230,-35 241.099,-31.4311 253.206,-27.6413 264.229,-24.2309"/>
<polygon fill="black" stroke="black" points="265.461,-27.5136 273.986,-21.2228 263.398,-20.8243 265.461,-27.5136"/>
</g>
<!-- interface~tvd_runge_kutta_integrator -->
<g id="node8" class="node"><title>interface~tvd_runge_kutta_integrator</title>
<a xlink:href="../interface/tvd_runge_kutta_integrator.html" xlink:title="tvd_runge_kutta_integrator">
<polygon fill="#a7506f" stroke="#a7506f" points="372,-70 230,-70 230,-44 372,-44 372,-70"/>
<text text-anchor="middle" x="301" y="-54.55" font-family="Helvetica,sans-Serif" font-size="10.50" fill="white">tvd_runge_kutta_integrator</text>
</a>
</g>
<!-- proc~test_ab&#45;&gt;interface~tvd_runge_kutta_integrator -->
<g id="edge8" class="edge"><title>proc~test_ab&#45;&gt;interface~tvd_runge_kutta_integrator</title>
<path fill="none" stroke="black" d="M191.067,-57C199.636,-57 209.59,-57 219.94,-57"/>
<polygon fill="black" stroke="black" points="219.953,-60.5001 229.953,-57 219.953,-53.5001 219.953,-60.5001"/>
</g>
<!-- proc~test_rk&#45;&gt;proc~save_results -->
<g id="edge10" class="edge"><title>proc~test_rk&#45;&gt;proc~save_results</title>
<path fill="none" stroke="black" d="M183.302,-26.0379C186.99,-28.8343 190.72,-31.8889 194,-35 212.333,-52.3869 209.044,-64.8843 230,-79 237.388,-83.9761 245.953,-87.8682 254.524,-90.8991"/>
<polygon fill="black" stroke="black" points="253.55,-94.2621 264.14,-93.967 255.677,-87.5932 253.55,-94.2621"/>
</g>
<!-- proc~test_rk&#45;&gt;str -->
<g id="edge12" class="edge"><title>proc~test_rk&#45;&gt;str</title>
<path fill="none" stroke="black" d="M191.067,-13C211.895,-13 240.909,-13 263.901,-13"/>
<polygon fill="black" stroke="black" points="263.989,-16.5001 273.989,-13 263.989,-9.5001 263.989,-16.5001"/>
</g>
<!-- proc~test_rk&#45;&gt;interface~tvd_runge_kutta_integrator -->
<g id="edge14" class="edge"><title>proc~test_rk&#45;&gt;interface~tvd_runge_kutta_integrator</title>
<path fill="none" stroke="black" d="M191.252,-22.2286C203.134,-26.2148 217.237,-30.8959 230,-35 235.966,-36.9184 242.223,-38.9006 248.447,-40.8534"/>
<polygon fill="black" stroke="black" points="247.564,-44.2442 258.152,-43.8845 249.651,-37.5625 247.564,-44.2442"/>
</g>
<!-- proc~test_euler&#45;&gt;proc~save_results -->
<g id="edge16" class="edge"><title>proc~test_euler&#45;&gt;proc~save_results</title>
<path fill="none" stroke="black" d="M194.065,-101C211.706,-101 234.374,-101 254.297,-101"/>
<polygon fill="black" stroke="black" points="254.424,-104.5 264.424,-101 254.424,-97.5001 254.424,-104.5"/>
</g>
<!-- proc~create -->
<g id="node9" class="node"><title>proc~create</title>
<a xlink:href="../proc/create.html" xlink:title="create">
<polygon fill="#d94e8f" stroke="#d94e8f" points="462,-70 408,-70 408,-44 462,-44 462,-70"/>
<text text-anchor="middle" x="435" y="-54.55" font-family="Helvetica,sans-Serif" font-size="10.50" fill="white">create</text>
</a>
</g>
<!-- interface~tvd_runge_kutta_integrator&#45;&gt;proc~create -->
<g id="edge2" class="edge"><title>interface~tvd_runge_kutta_integrator&#45;&gt;proc~create</title>
<path fill="none" stroke="black" stroke-dasharray="5,2" d="M372.316,-57C381.094,-57 389.774,-57 397.748,-57"/>
<polygon fill="black" stroke="black" points="397.773,-60.5001 407.773,-57 397.773,-53.5001 397.773,-60.5001"/>
</g>
</g>
</svg>
