<?xml version="1.0" encoding="UTF-8" standalone="no"?>
<!DOCTYPE svg PUBLIC "-//W3C//DTD SVG 1.1//EN"
 "http://www.w3.org/Graphics/SVG/1.1/DTD/svg11.dtd">
<!-- Generated by graphviz version 2.26.3 (20100126.1600)
 -->
<!-- Title: program~~integrate_euler_1d_openmp~~CallsGraph Pages: 1 -->
<svg width="408pt" height="292pt"
 viewBox="0.00 0.00 408.00 292.00" xmlns="http://www.w3.org/2000/svg" xmlns:xlink="http://www.w3.org/1999/xlink">
<g id="graph1" class="graph" transform="scale(1 1) rotate(0) translate(4 288)">
<title>program~~integrate_euler_1d_openmp~~CallsGraph</title>
<polygon fill="white" stroke="white" points="-4,5 -4,-288 405,-288 405,5 -4,5"/>
<!-- program~integrate_euler_1d_openmp -->
<g id="node1" class="node"><title>program~integrate_euler_1d_openmp</title>
<polygon fill="none" stroke="black" points="149,-155 1,-155 1,-129 149,-129 149,-155"/>
<text text-anchor="middle" x="75" y="-139.55" font-family="Helvetica,sans-Serif" font-size="10.50">integrate_euler_1D_openmp</text>
</g>
<!-- omp_set_dynamic -->
<g id="node2" class="node"><title>omp_set_dynamic</title>
<polygon fill="#777777" stroke="#777777" points="298,-284 198,-284 198,-258 298,-258 298,-284"/>
<text text-anchor="middle" x="248" y="-268.55" font-family="Helvetica,sans-Serif" font-size="10.50" fill="white">omp_set_dynamic</text>
</g>
<!-- program~integrate_euler_1d_openmp&#45;&gt;omp_set_dynamic -->
<g id="edge6" class="edge"><title>program~integrate_euler_1d_openmp&#45;&gt;omp_set_dynamic</title>
<path fill="none" stroke="black" d="M85.2765,-155.034C103.403,-177.23 143.206,-222.526 186,-249 188.768,-250.713 191.688,-252.316 194.693,-253.815"/>
<polygon fill="black" stroke="black" points="193.337,-257.043 203.889,-257.995 196.234,-250.67 193.337,-257.043"/>
</g>
<!-- omp_set_num_threads -->
<g id="node3" class="node"><title>omp_set_num_threads</title>
<polygon fill="#777777" stroke="#777777" points="309,-240 187,-240 187,-214 309,-214 309,-240"/>
<text text-anchor="middle" x="248" y="-224.55" font-family="Helvetica,sans-Serif" font-size="10.50" fill="white">omp_set_num_threads</text>
</g>
<!-- program~integrate_euler_1d_openmp&#45;&gt;omp_set_num_threads -->
<g id="edge8" class="edge"><title>program~integrate_euler_1d_openmp&#45;&gt;omp_set_num_threads</title>
<path fill="none" stroke="black" d="M95.7007,-155.21C117.573,-168.816 153.35,-190.081 186,-205 190.024,-206.839 194.249,-208.625 198.524,-210.332"/>
<polygon fill="black" stroke="black" points="197.309,-213.614 207.899,-213.932 199.818,-207.08 197.309,-213.614"/>
</g>
<!-- omp_get_num_threads -->
<g id="node4" class="node"><title>omp_get_num_threads</title>
<polygon fill="#777777" stroke="#777777" points="310,-196 186,-196 186,-170 310,-170 310,-196"/>
<text text-anchor="middle" x="248" y="-180.55" font-family="Helvetica,sans-Serif" font-size="10.50" fill="white">omp_get_num_threads</text>
</g>
<!-- program~integrate_euler_1d_openmp&#45;&gt;omp_get_num_threads -->
<g id="edge10" class="edge"><title>program~integrate_euler_1d_openmp&#45;&gt;omp_get_num_threads</title>
<path fill="none" stroke="black" d="M130.214,-155.085C146.994,-159.062 165.59,-163.469 182.955,-167.585"/>
<polygon fill="black" stroke="black" points="182.476,-171.068 193.014,-169.969 184.09,-164.257 182.476,-171.068"/>
</g>
<!-- str -->
<g id="node5" class="node"><title>str</title>
<polygon fill="#777777" stroke="#777777" points="400,-114 346,-114 346,-88 400,-88 400,-114"/>
<text text-anchor="middle" x="373" y="-98.55" font-family="Helvetica,sans-Serif" font-size="10.50" fill="white">str</text>
</g>
<!-- program~integrate_euler_1d_openmp&#45;&gt;str -->
<g id="edge12" class="edge"><title>program~integrate_euler_1d_openmp&#45;&gt;str</title>
<path fill="none" stroke="black" d="M149.523,-140.821C196.081,-138.894 257.038,-134.196 310,-123 318.636,-121.175 327.711,-118.487 336.2,-115.612"/>
<polygon fill="black" stroke="black" points="337.581,-118.836 345.834,-112.192 335.239,-112.239 337.581,-118.836"/>
</g>
<!-- proc~save_time_serie -->
<g id="node6" class="node"><title>proc~save_time_serie</title>
<a xlink:href="../proc/save_time_serie.html" xlink:title="save_time_serie">
<polygon fill="#d9534f" stroke="#d9534f" points="293,-114 203,-114 203,-88 293,-88 293,-114"/>
<text text-anchor="middle" x="248" y="-98.55" font-family="Helvetica,sans-Serif" font-size="10.50" fill="white">save_time_serie</text>
</a>
</g>
<!-- program~integrate_euler_1d_openmp&#45;&gt;proc~save_time_serie -->
<g id="edge14" class="edge"><title>program~integrate_euler_1d_openmp&#45;&gt;proc~save_time_serie</title>
<path fill="none" stroke="black" d="M130.214,-128.915C150.094,-124.203 172.521,-118.888 192.431,-114.17"/>
<polygon fill="black" stroke="black" points="193.359,-117.547 202.282,-111.835 191.744,-110.735 193.359,-117.547"/>
</g>
<!-- proc~save_results~2 -->
<g id="node7" class="node"><title>proc~save_results~2</title>
<a xlink:href="../proc/save_results%7E2.html" xlink:title="save_results">
<polygon fill="#d9534f" stroke="#d9534f" points="284,-70 212,-70 212,-44 284,-44 284,-70"/>
<text text-anchor="middle" x="248" y="-54.55" font-family="Helvetica,sans-Serif" font-size="10.50" fill="white">save_results</text>
</a>
</g>
<!-- program~integrate_euler_1d_openmp&#45;&gt;proc~save_results~2 -->
<g id="edge16" class="edge"><title>program~integrate_euler_1d_openmp&#45;&gt;proc~save_results~2</title>
<path fill="none" stroke="black" d="M95.7007,-128.79C117.573,-115.184 153.35,-93.9187 186,-79 190.999,-76.7156 196.31,-74.5126 201.639,-72.4412"/>
<polygon fill="black" stroke="black" points="203.048,-75.6507 211.185,-68.8654 200.593,-69.0954 203.048,-75.6507"/>
</g>
<!-- proc~init~7 -->
<g id="node8" class="node"><title>proc~init~7</title>
<a xlink:href="../proc/init%7E7.html" xlink:title="init">
<polygon fill="#d9534f" stroke="#d9534f" points="275,-26 221,-26 221,-1.24345e-14 275,-3.55271e-15 275,-26"/>
<text text-anchor="middle" x="248" y="-10.55" font-family="Helvetica,sans-Serif" font-size="10.50" fill="white">init</text>
</a>
</g>
<!-- program~integrate_euler_1d_openmp&#45;&gt;proc~init~7 -->
<g id="edge18" class="edge"><title>program~integrate_euler_1d_openmp&#45;&gt;proc~init~7</title>
<path fill="none" stroke="black" d="M85.2765,-128.966C103.403,-106.77 143.206,-61.4742 186,-35 193.763,-30.1976 202.721,-26.2495 211.373,-23.0904"/>
<polygon fill="black" stroke="black" points="212.58,-26.377 220.929,-19.8554 210.335,-19.7466 212.58,-26.377"/>
</g>
<!-- proc~save_time_serie&#45;&gt;str -->
<g id="edge2" class="edge"><title>proc~save_time_serie&#45;&gt;str</title>
<path fill="none" stroke="black" d="M293.836,-101C307.581,-101 322.486,-101 335.616,-101"/>
<polygon fill="black" stroke="black" points="335.711,-104.5 345.711,-101 335.711,-97.5001 335.711,-104.5"/>
</g>
<!-- proc~save_results~2&#45;&gt;str -->
<g id="edge4" class="edge"><title>proc~save_results~2&#45;&gt;str</title>
<path fill="none" stroke="black" d="M284.828,-69.9635C301.05,-75.6734 320.064,-82.3664 336.273,-88.0722"/>
<polygon fill="black" stroke="black" points="335.359,-91.4608 345.954,-91.4798 337.683,-84.8579 335.359,-91.4608"/>
</g>
</g>
</svg>
