<?xml version="1.0" encoding="UTF-8" standalone="no"?>
<!DOCTYPE svg PUBLIC "-//W3C//DTD SVG 1.1//EN"
 "http://www.w3.org/Graphics/SVG/1.1/DTD/svg11.dtd">
<!-- Generated by graphviz version 2.26.3 (20100126.1600)
 -->
<!-- Title: program~~integrate_burgers~~UsesGraph Pages: 1 -->
<svg width="641pt" height="259pt"
 viewBox="0.00 0.00 641.00 259.10" xmlns="http://www.w3.org/2000/svg" xmlns:xlink="http://www.w3.org/1999/xlink">
<g id="graph1" class="graph" transform="scale(0.701313 0.701313) rotate(0) translate(4 365.454)">
<title>program~~integrate_burgers~~UsesGraph</title>
<polygon fill="white" stroke="white" points="-4,5 -4,-365.454 911,-365.454 911,5 -4,5"/>
<!-- program~integrate_burgers -->
<g id="node1" class="node"><title>program~integrate_burgers</title>
<polygon fill="none" stroke="black" points="905,-106.454 809,-106.454 809,-80.4542 905,-80.4542 905,-106.454"/>
<text text-anchor="middle" x="857" y="-91.0042" font-family="Helvetica,sans-Serif" font-size="10.50">integrate_burgers</text>
</g>
<!-- module~foodie -->
<g id="node2" class="node"><title>module~foodie</title>
<a xlink:href="../module/foodie.html" xlink:title="foodie">
<polygon fill="#337ab7" stroke="#337ab7" points="540,-235.454 486,-235.454 486,-209.454 540,-209.454 540,-235.454"/>
<text text-anchor="middle" x="513" y="-220.004" font-family="Helvetica,sans-Serif" font-size="10.50" fill="white">foodie</text>
</a>
</g>
<!-- module~foodie&#45;&gt;program~integrate_burgers -->
<g id="edge34" class="edge"><title>module~foodie&#45;&gt;program~integrate_burgers</title>
<path fill="none" stroke="black" stroke-dasharray="5,2" d="M540.361,-219.622C589.046,-213.768 693.014,-197.552 772,-159.454 796.295,-147.736 820.222,-128.243 836.469,-113.472"/>
<polygon fill="black" stroke="black" points="838.858,-116.029 843.795,-106.655 834.09,-110.905 838.858,-116.029"/>
</g>
<!-- module~type_burgers -->
<g id="node6" class="node"><title>module~type_burgers</title>
<a xlink:href="../module/type_burgers.html" xlink:title="type_burgers">
<polygon fill="#337ab7" stroke="#337ab7" points="712,-150.454 636,-150.454 636,-124.454 712,-124.454 712,-150.454"/>
<text text-anchor="middle" x="674" y="-135.004" font-family="Helvetica,sans-Serif" font-size="10.50" fill="white">type_burgers</text>
</a>
</g>
<!-- module~foodie&#45;&gt;module~type_burgers -->
<g id="edge32" class="edge"><title>module~foodie&#45;&gt;module~type_burgers</title>
<path fill="none" stroke="black" stroke-dasharray="5,2" d="M535.283,-209.32C547.262,-202.362 562.339,-193.765 576,-186.454 596.23,-175.628 619.153,-164.125 637.74,-154.987"/>
<polygon fill="black" stroke="black" points="639.313,-158.114 646.755,-150.573 636.235,-151.827 639.313,-158.114"/>
</g>
<!-- IR_Precision -->
<g id="node3" class="node"><title>IR_Precision</title>
<polygon fill="#337ab7" stroke="#337ab7" points="73,-276.454 1,-276.454 1,-250.454 73,-250.454 73,-276.454"/>
<text text-anchor="middle" x="37" y="-261.004" font-family="Helvetica,sans-Serif" font-size="10.50" fill="white">IR_Precision</text>
</g>
<!-- IR_Precision&#45;&gt;program~integrate_burgers -->
<g id="edge36" class="edge"><title>IR_Precision&#45;&gt;program~integrate_burgers</title>
<path fill="none" stroke="black" stroke-dasharray="5,2" d="M48.8681,-250.43C68.164,-230.341 108.574,-192.633 152,-178.454"/>
<path fill="none" stroke="black" stroke-dasharray="5,2" d="M152,-178.454C186.24,-167.274 194.506,-162.583 230,-156.454 354.223,-135.006 389.22,-161.326 513,-137.454"/>
<path fill="none" stroke="black" stroke-dasharray="5,2" d="M513,-137.454C567.844,-124.561 527.258,-55.7086 576,-27.4542 651.365,16.2324 689.592,0.782974 772,-27.4542 798.277,-36.458 822.701,-57.2637 838.562,-73.1267"/>
<polygon fill="black" stroke="black" points="836.166,-75.6836 845.631,-80.4436 841.2,-70.8198 836.166,-75.6836"/>
</g>
<!-- IR_Precision&#45;&gt;module~type_burgers -->
<g id="edge30" class="edge"><title>IR_Precision&#45;&gt;module~type_burgers</title>
<path fill="none" stroke="black" stroke-dasharray="5,2" d="M513,-137.454C550.396,-130.242 593.593,-130.707 625.822,-132.72"/>
<polygon fill="black" stroke="black" points="625.66,-136.217 635.879,-133.42 626.147,-129.234 625.66,-136.217"/>
</g>
<!-- module~foodie_integrator_low_storage_runge_kutta -->
<g id="node7" class="node"><title>module~foodie_integrator_low_storage_runge_kutta</title>
<a xlink:href="../module/foodie_integrator_low_storage_runge_kutta.html" xlink:title="foodie_integrator_low_storage_runge_kutta">
<polygon fill="#337ab7" stroke="#337ab7" points="450,-235.454 230,-235.454 230,-209.454 450,-209.454 450,-235.454"/>
<text text-anchor="middle" x="340" y="-220.004" font-family="Helvetica,sans-Serif" font-size="10.50" fill="white">foodie_integrator_low_storage_runge_kutta</text>
</a>
</g>
<!-- IR_Precision&#45;&gt;module~foodie_integrator_low_storage_runge_kutta -->
<g id="edge2" class="edge"><title>IR_Precision&#45;&gt;module~foodie_integrator_low_storage_runge_kutta</title>
<path fill="none" stroke="black" stroke-dasharray="5,2" d="M152,-178.454C186.24,-167.274 194.981,-192.027 230,-200.454 239.901,-202.837 250.346,-205.164 260.701,-207.359"/>
<polygon fill="black" stroke="black" points="260.076,-210.804 270.58,-209.42 261.506,-203.951 260.076,-210.804"/>
</g>
<!-- module~foodie_integrator_tvd_runge_kutta -->
<g id="node8" class="node"><title>module~foodie_integrator_tvd_runge_kutta</title>
<a xlink:href="../module/foodie_integrator_tvd_runge_kutta.html" xlink:title="foodie_integrator_tvd_runge_kutta">
<polygon fill="#337ab7" stroke="#337ab7" points="428,-191.454 252,-191.454 252,-165.454 428,-165.454 428,-191.454"/>
<text text-anchor="middle" x="340" y="-176.004" font-family="Helvetica,sans-Serif" font-size="10.50" fill="white">foodie_integrator_tvd_runge_kutta</text>
</a>
</g>
<!-- IR_Precision&#45;&gt;module~foodie_integrator_tvd_runge_kutta -->
<g id="edge6" class="edge"><title>IR_Precision&#45;&gt;module~foodie_integrator_tvd_runge_kutta</title>
<path fill="none" stroke="black" stroke-dasharray="5,2" d="M152,-178.454C180.032,-169.301 211.694,-166.609 240.932,-166.957"/>
<polygon fill="black" stroke="black" points="241.082,-170.462 251.163,-167.201 241.249,-163.464 241.082,-170.462"/>
</g>
<!-- module~type_integrand -->
<g id="node9" class="node"><title>module~type_integrand</title>
<a xlink:href="../module/type_integrand.html" xlink:title="type_integrand">
<polygon fill="#337ab7" stroke="#337ab7" points="194,-276.454 110,-276.454 110,-250.454 194,-250.454 194,-276.454"/>
<text text-anchor="middle" x="152" y="-261.004" font-family="Helvetica,sans-Serif" font-size="10.50" fill="white">type_integrand</text>
</a>
</g>
<!-- IR_Precision&#45;&gt;module~type_integrand -->
<g id="edge10" class="edge"><title>IR_Precision&#45;&gt;module~type_integrand</title>
<path fill="none" stroke="black" stroke-dasharray="5,2" d="M73.7029,-263.454C81.9237,-263.454 90.8,-263.454 99.521,-263.454"/>
<polygon fill="black" stroke="black" points="99.6389,-266.954 109.639,-263.454 99.6388,-259.954 99.6389,-266.954"/>
</g>
<!-- module~foodie_integrator_euler_explicit -->
<g id="node10" class="node"><title>module~foodie_integrator_euler_explicit</title>
<a xlink:href="../module/foodie_integrator_euler_explicit.html" xlink:title="foodie_integrator_euler_explicit">
<polygon fill="#337ab7" stroke="#337ab7" points="421,-361.454 259,-361.454 259,-335.454 421,-335.454 421,-361.454"/>
<text text-anchor="middle" x="340" y="-346.004" font-family="Helvetica,sans-Serif" font-size="10.50" fill="white">foodie_integrator_euler_explicit</text>
</a>
</g>
<!-- IR_Precision&#45;&gt;module~foodie_integrator_euler_explicit -->
<g id="edge12" class="edge"><title>IR_Precision&#45;&gt;module~foodie_integrator_euler_explicit</title>
<path fill="none" stroke="black" stroke-dasharray="5,2" d="M152,-326.454C182.89,-334.361 217.372,-339.435 248.286,-342.687"/>
<polygon fill="black" stroke="black" points="248.324,-346.208 258.622,-343.721 249.021,-339.243 248.324,-346.208"/>
</g>
<!-- module~foodie_integrator_adams_bashforth -->
<g id="node11" class="node"><title>module~foodie_integrator_adams_bashforth</title>
<a xlink:href="../module/foodie_integrator_adams_bashforth.html" xlink:title="foodie_integrator_adams_bashforth">
<polygon fill="#337ab7" stroke="#337ab7" points="431,-317.454 249,-317.454 249,-291.454 431,-291.454 431,-317.454"/>
<text text-anchor="middle" x="340" y="-302.004" font-family="Helvetica,sans-Serif" font-size="10.50" fill="white">foodie_integrator_adams_bashforth</text>
</a>
</g>
<!-- IR_Precision&#45;&gt;module~foodie_integrator_adams_bashforth -->
<g id="edge16" class="edge"><title>IR_Precision&#45;&gt;module~foodie_integrator_adams_bashforth</title>
<path fill="none" stroke="black" stroke-dasharray="5,2" d="M54.1427,-276.486C75.6458,-291.934 114.288,-316.801 152,-326.454"/>
<path fill="none" stroke="black" stroke-dasharray="5,2" d="M152,-326.454C172.557,-331.716 220.219,-326.07 262.406,-319.182"/>
<polygon fill="black" stroke="black" points="263.144,-322.608 272.43,-317.507 261.989,-315.704 263.144,-322.608"/>
</g>
<!-- pyplot_module -->
<g id="node4" class="node"><title>pyplot_module</title>
<polygon fill="#337ab7" stroke="#337ab7" points="715,-106.454 633,-106.454 633,-80.4542 715,-80.4542 715,-106.454"/>
<text text-anchor="middle" x="674" y="-91.0042" font-family="Helvetica,sans-Serif" font-size="10.50" fill="white">pyplot_module</text>
</g>
<!-- pyplot_module&#45;&gt;program~integrate_burgers -->
<g id="edge38" class="edge"><title>pyplot_module&#45;&gt;program~integrate_burgers</title>
<path fill="none" stroke="black" stroke-dasharray="5,2" d="M715.069,-93.4542C739.551,-93.4542 771.037,-93.4542 798.131,-93.4542"/>
<polygon fill="black" stroke="black" points="798.277,-96.9543 808.277,-93.4542 798.277,-89.9543 798.277,-96.9543"/>
</g>
<!-- Data_Type_Command_Line_Interface -->
<g id="node5" class="node"><title>Data_Type_Command_Line_Interface</title>
<polygon fill="#337ab7" stroke="#337ab7" points="771,-62.4542 577,-62.4542 577,-36.4542 771,-36.4542 771,-62.4542"/>
<text text-anchor="middle" x="674" y="-47.0042" font-family="Helvetica,sans-Serif" font-size="10.50" fill="white">Data_Type_Command_Line_Interface</text>
</g>
<!-- Data_Type_Command_Line_Interface&#45;&gt;program~integrate_burgers -->
<g id="edge40" class="edge"><title>Data_Type_Command_Line_Interface&#45;&gt;program~integrate_burgers</title>
<path fill="none" stroke="black" stroke-dasharray="5,2" d="M733.41,-62.4663C746.159,-65.3495 759.542,-68.4444 772,-71.4542 780.505,-73.5088 789.469,-75.7481 798.259,-77.9859"/>
<polygon fill="black" stroke="black" points="797.519,-81.4094 808.075,-80.5019 799.257,-74.6286 797.519,-81.4094"/>
</g>
<!-- module~type_burgers&#45;&gt;program~integrate_burgers -->
<g id="edge42" class="edge"><title>module~type_burgers&#45;&gt;program~integrate_burgers</title>
<path fill="none" stroke="black" stroke-dasharray="5,2" d="M712.23,-129.174C730.373,-125.167 752.338,-120.204 772,-115.454 780.505,-113.4 789.469,-111.16 798.259,-108.922"/>
<polygon fill="black" stroke="black" points="799.257,-112.28 808.075,-106.406 797.519,-105.499 799.257,-112.28"/>
</g>
<!-- module~foodie_integrator_low_storage_runge_kutta&#45;&gt;module~foodie -->
<g id="edge20" class="edge"><title>module~foodie_integrator_low_storage_runge_kutta&#45;&gt;module~foodie</title>
<path fill="none" stroke="black" stroke-dasharray="5,2" d="M450.054,-222.454C459.125,-222.454 467.822,-222.454 475.703,-222.454"/>
<polygon fill="black" stroke="black" points="475.902,-225.954 485.902,-222.454 475.902,-218.954 475.902,-225.954"/>
</g>
<!-- module~foodie_integrator_tvd_runge_kutta&#45;&gt;module~foodie -->
<g id="edge22" class="edge"><title>module~foodie_integrator_tvd_runge_kutta&#45;&gt;module~foodie</title>
<path fill="none" stroke="black" stroke-dasharray="5,2" d="M412.523,-191.474C425.089,-194.152 437.976,-197.169 450,-200.454 458.688,-202.828 467.91,-205.789 476.539,-208.761"/>
<polygon fill="black" stroke="black" points="475.375,-212.062 485.97,-212.091 477.706,-205.461 475.375,-212.062"/>
</g>
<!-- module~type_integrand&#45;&gt;module~foodie -->
<g id="edge24" class="edge"><title>module~type_integrand&#45;&gt;module~foodie</title>
<path fill="none" stroke="black" stroke-dasharray="5,2" d="M194.421,-264.35C252.648,-264.766 360.321,-262.616 450,-244.454 458.651,-242.702 467.733,-240.044 476.222,-237.175"/>
<polygon fill="black" stroke="black" points="477.605,-240.398 485.856,-233.752 475.261,-233.803 477.605,-240.398"/>
</g>
<!-- module~type_integrand&#45;&gt;module~foodie_integrator_low_storage_runge_kutta -->
<g id="edge4" class="edge"><title>module~type_integrand&#45;&gt;module~foodie_integrator_low_storage_runge_kutta</title>
<path fill="none" stroke="black" stroke-dasharray="5,2" d="M194.191,-254.253C216.555,-249.376 244.609,-243.258 270.12,-237.694"/>
<polygon fill="black" stroke="black" points="271.101,-241.062 280.126,-235.512 269.61,-234.223 271.101,-241.062"/>
</g>
<!-- module~type_integrand&#45;&gt;module~foodie_integrator_tvd_runge_kutta -->
<g id="edge8" class="edge"><title>module~type_integrand&#45;&gt;module~foodie_integrator_tvd_runge_kutta</title>
<path fill="none" stroke="black" stroke-dasharray="5,2" d="M164.184,-250.38C178.506,-235.844 203.679,-212.794 230,-200.454 234.567,-198.313 239.335,-196.38 244.218,-194.635"/>
<polygon fill="black" stroke="black" points="245.322,-197.956 253.726,-191.505 243.133,-191.307 245.322,-197.956"/>
</g>
<!-- module~type_integrand&#45;&gt;module~foodie_integrator_euler_explicit -->
<g id="edge14" class="edge"><title>module~type_integrand&#45;&gt;module~foodie_integrator_euler_explicit</title>
<path fill="none" stroke="black" stroke-dasharray="5,2" d="M164.184,-276.529C178.506,-291.064 203.679,-314.114 230,-326.454 236.102,-329.315 242.563,-331.804 249.176,-333.97"/>
<polygon fill="black" stroke="black" points="248.364,-337.381 258.949,-336.918 250.386,-330.679 248.364,-337.381"/>
</g>
<!-- module~type_integrand&#45;&gt;module~foodie_integrator_adams_bashforth -->
<g id="edge18" class="edge"><title>module~type_integrand&#45;&gt;module~foodie_integrator_adams_bashforth</title>
<path fill="none" stroke="black" stroke-dasharray="5,2" d="M194.191,-272.655C216.555,-277.533 244.609,-283.651 270.12,-289.214"/>
<polygon fill="black" stroke="black" points="269.61,-292.685 280.126,-291.397 271.101,-285.846 269.61,-292.685"/>
</g>
<!-- module~foodie_integrator_euler_explicit&#45;&gt;module~foodie -->
<g id="edge26" class="edge"><title>module~foodie_integrator_euler_explicit&#45;&gt;module~foodie</title>
<path fill="none" stroke="black" stroke-dasharray="5,2" d="M421.017,-340.351C431.336,-337.048 441.311,-332.55 450,-326.454 478.428,-306.51 496.335,-269.255 505.503,-245.171"/>
<polygon fill="black" stroke="black" points="508.803,-246.339 508.903,-235.745 502.218,-243.964 508.803,-246.339"/>
</g>
<!-- module~foodie_integrator_adams_bashforth&#45;&gt;module~foodie -->
<g id="edge28" class="edge"><title>module~foodie_integrator_adams_bashforth&#45;&gt;module~foodie</title>
<path fill="none" stroke="black" stroke-dasharray="5,2" d="M414.258,-291.38C426.568,-287.774 438.92,-283.211 450,-277.454 466.699,-268.778 482.637,-254.789 494.305,-243.091"/>
<polygon fill="black" stroke="black" points="496.9,-245.442 501.321,-235.813 491.861,-240.583 496.9,-245.442"/>
</g>
</g>
</svg>
