<?xml version="1.0" encoding="UTF-8" standalone="no"?>
<!DOCTYPE svg PUBLIC "-//W3C//DTD SVG 1.1//EN"
 "http://www.w3.org/Graphics/SVG/1.1/DTD/svg11.dtd">
<!-- Generated by graphviz version 2.26.3 (20100126.1600)
 -->
<!-- Title: program~~integrate_euler_1d~~CallsGraph Pages: 1 -->
<svg width="432pt" height="210pt"
 viewBox="0.00 0.00 432.00 210.00" xmlns="http://www.w3.org/2000/svg" xmlns:xlink="http://www.w3.org/1999/xlink">
<g id="graph1" class="graph" transform="scale(1 1) rotate(0) translate(4 206)">
<title>program~~integrate_euler_1d~~CallsGraph</title>
<polygon fill="white" stroke="white" points="-4,5 -4,-206 429,-206 429,5 -4,5"/>
<!-- program~integrate_euler_1d -->
<g id="node1" class="node"><title>program~integrate_euler_1d</title>
<polygon fill="none" stroke="black" points="104,-114 3.55271e-14,-114 0,-88 104,-88 104,-114"/>
<text text-anchor="middle" x="52" y="-98.55" font-family="Helvetica,sans-Serif" font-size="10.50">integrate_euler_1D</text>
</g>
<!-- proc~init~6 -->
<g id="node2" class="node"><title>proc~init~6</title>
<a xlink:href="../proc/init%7E6.html" xlink:title="init">
<polygon fill="#d9534f" stroke="#d9534f" points="200,-202 146,-202 146,-176 200,-176 200,-202"/>
<text text-anchor="middle" x="173" y="-186.55" font-family="Helvetica,sans-Serif" font-size="10.50" fill="white">init</text>
</a>
</g>
<!-- program~integrate_euler_1d&#45;&gt;proc~init~6 -->
<g id="edge30" class="edge"><title>program~integrate_euler_1d&#45;&gt;proc~init~6</title>
<path fill="none" stroke="black" d="M68.9919,-114.184C86.5654,-127.715 114.9,-149.242 140,-167 141.43,-168.012 142.901,-169.039 144.392,-170.07"/>
<polygon fill="black" stroke="black" points="142.748,-173.185 152.985,-175.914 146.685,-167.397 142.748,-173.185"/>
</g>
<!-- proc~test_ls_rk~2 -->
<g id="node3" class="node"><title>proc~test_ls_rk~2</title>
<a xlink:href="../proc/test_ls_rk%7E2.html" xlink:title="test_ls_rk">
<polygon fill="#d9534f" stroke="#d9534f" points="202,-158 144,-158 144,-132 202,-132 202,-158"/>
<text text-anchor="middle" x="173" y="-142.55" font-family="Helvetica,sans-Serif" font-size="10.50" fill="white">test_ls_rk</text>
</a>
</g>
<!-- program~integrate_euler_1d&#45;&gt;proc~test_ls_rk~2 -->
<g id="edge32" class="edge"><title>program~integrate_euler_1d&#45;&gt;proc~test_ls_rk~2</title>
<path fill="none" stroke="black" d="M87.9764,-114.082C102.606,-119.402 119.538,-125.559 134.422,-130.972"/>
<polygon fill="black" stroke="black" points="133.269,-134.277 143.864,-134.405 135.662,-127.698 133.269,-134.277"/>
</g>
<!-- proc~test_euler~2 -->
<g id="node4" class="node"><title>proc~test_euler~2</title>
<a xlink:href="../proc/test_euler%7E2.html" xlink:title="test_euler">
<polygon fill="#d9534f" stroke="#d9534f" points="203,-114 143,-114 143,-88 203,-88 203,-114"/>
<text text-anchor="middle" x="173" y="-98.55" font-family="Helvetica,sans-Serif" font-size="10.50" fill="white">test_euler</text>
</a>
</g>
<!-- program~integrate_euler_1d&#45;&gt;proc~test_euler~2 -->
<g id="edge34" class="edge"><title>program~integrate_euler_1d&#45;&gt;proc~test_euler~2</title>
<path fill="none" stroke="black" d="M104.017,-101C113.604,-101 123.481,-101 132.659,-101"/>
<polygon fill="black" stroke="black" points="132.672,-104.5 142.672,-101 132.671,-97.5001 132.672,-104.5"/>
</g>
<!-- proc~test_ab~2 -->
<g id="node5" class="node"><title>proc~test_ab~2</title>
<a xlink:href="../proc/test_ab%7E2.html" xlink:title="test_ab">
<polygon fill="#d9534f" stroke="#d9534f" points="200,-70 146,-70 146,-44 200,-44 200,-70"/>
<text text-anchor="middle" x="173" y="-54.55" font-family="Helvetica,sans-Serif" font-size="10.50" fill="white">test_ab</text>
</a>
</g>
<!-- program~integrate_euler_1d&#45;&gt;proc~test_ab~2 -->
<g id="edge36" class="edge"><title>program~integrate_euler_1d&#45;&gt;proc~test_ab~2</title>
<path fill="none" stroke="black" d="M87.9764,-87.9177C103.177,-82.3902 120.864,-75.9585 136.157,-70.3974"/>
<polygon fill="black" stroke="black" points="137.609,-73.5937 145.811,-66.8869 135.217,-67.0151 137.609,-73.5937"/>
</g>
<!-- proc~test_tvd_rk~2 -->
<g id="node6" class="node"><title>proc~test_tvd_rk~2</title>
<a xlink:href="../proc/test_tvd_rk%7E2.html" xlink:title="test_tvd_rk">
<polygon fill="#d9534f" stroke="#d9534f" points="205,-26 141,-26 141,-1.24345e-14 205,-3.55271e-15 205,-26"/>
<text text-anchor="middle" x="173" y="-10.55" font-family="Helvetica,sans-Serif" font-size="10.50" fill="white">test_tvd_rk</text>
</a>
</g>
<!-- program~integrate_euler_1d&#45;&gt;proc~test_tvd_rk~2 -->
<g id="edge38" class="edge"><title>program~integrate_euler_1d&#45;&gt;proc~test_tvd_rk~2</title>
<path fill="none" stroke="black" d="M68.9919,-87.8155C86.5654,-74.2845 114.9,-52.7583 140,-35 141.43,-33.9884 142.901,-32.9606 144.392,-31.9298"/>
<polygon fill="black" stroke="black" points="146.685,-34.6035 152.985,-26.0856 142.748,-28.8153 146.685,-34.6035"/>
</g>
<!-- str -->
<g id="node7" class="node"><title>str</title>
<polygon fill="#777777" stroke="#777777" points="424,-92 370,-92 370,-66 424,-66 424,-92"/>
<text text-anchor="middle" x="397" y="-76.55" font-family="Helvetica,sans-Serif" font-size="10.50" fill="white">str</text>
</g>
<!-- proc~test_ls_rk~2&#45;&gt;str -->
<g id="edge6" class="edge"><title>proc~test_ls_rk~2&#45;&gt;str</title>
<path fill="none" stroke="black" d="M202.252,-150.204C235.579,-154.778 290.988,-158.193 334,-140 353.508,-131.749 370.419,-114.45 381.794,-100.374"/>
<polygon fill="black" stroke="black" points="384.809,-102.196 388.136,-92.1364 379.262,-97.9257 384.809,-102.196"/>
</g>
<!-- proc~save_time_serie -->
<g id="node8" class="node"><title>proc~save_time_serie</title>
<a xlink:href="../proc/save_time_serie.html" xlink:title="save_time_serie">
<polygon fill="#d9534f" stroke="#d9534f" points="333,-114 243,-114 243,-88 333,-88 333,-114"/>
<text text-anchor="middle" x="288" y="-98.55" font-family="Helvetica,sans-Serif" font-size="10.50" fill="white">save_time_serie</text>
</a>
</g>
<!-- proc~test_ls_rk~2&#45;&gt;proc~save_time_serie -->
<g id="edge8" class="edge"><title>proc~test_ls_rk~2&#45;&gt;proc~save_time_serie</title>
<path fill="none" stroke="black" d="M202.019,-133.897C214.778,-129.015 230.04,-123.176 244.14,-117.781"/>
<polygon fill="black" stroke="black" points="245.582,-120.977 253.671,-114.134 243.081,-114.439 245.582,-120.977"/>
</g>
<!-- proc~save_results~2 -->
<g id="node9" class="node"><title>proc~save_results~2</title>
<a xlink:href="../proc/save_results%7E2.html" xlink:title="save_results">
<polygon fill="#d9534f" stroke="#d9534f" points="324,-70 252,-70 252,-44 324,-44 324,-70"/>
<text text-anchor="middle" x="288" y="-54.55" font-family="Helvetica,sans-Serif" font-size="10.50" fill="white">save_results</text>
</a>
</g>
<!-- proc~test_ls_rk~2&#45;&gt;proc~save_results~2 -->
<g id="edge10" class="edge"><title>proc~test_ls_rk~2&#45;&gt;proc~save_results~2</title>
<path fill="none" stroke="black" d="M194.64,-131.921C198.577,-129.172 202.531,-126.145 206,-123 224.718,-106.028 222.126,-94.6029 242,-79 243.567,-77.77 245.213,-76.5863 246.914,-75.4502"/>
<polygon fill="black" stroke="black" points="248.955,-78.3078 255.743,-70.1731 245.364,-72.2992 248.955,-78.3078"/>
</g>
<!-- proc~test_euler~2&#45;&gt;str -->
<g id="edge12" class="edge"><title>proc~test_euler~2&#45;&gt;str</title>
<path fill="none" stroke="black" d="M203.035,-112.76C235.877,-123.873 289.732,-136.928 334,-123 349.361,-118.167 364.242,-108.11 375.681,-98.8294"/>
<polygon fill="black" stroke="black" points="378.012,-101.441 383.359,-92.2948 373.475,-96.1103 378.012,-101.441"/>
</g>
<!-- proc~test_euler~2&#45;&gt;proc~save_time_serie -->
<g id="edge14" class="edge"><title>proc~test_euler~2&#45;&gt;proc~save_time_serie</title>
<path fill="none" stroke="black" d="M203.215,-101C212.105,-101 222.129,-101 232.088,-101"/>
<polygon fill="black" stroke="black" points="232.394,-104.5 242.394,-101 232.394,-97.5001 232.394,-104.5"/>
</g>
<!-- proc~test_euler~2&#45;&gt;proc~save_results~2 -->
<g id="edge16" class="edge"><title>proc~test_euler~2&#45;&gt;proc~save_results~2</title>
<path fill="none" stroke="black" d="M203.215,-89.4395C215.746,-84.6451 230.527,-78.9897 244.209,-73.7549"/>
<polygon fill="black" stroke="black" points="245.84,-76.8783 253.929,-70.0359 243.339,-70.3405 245.84,-76.8783"/>
</g>
<!-- proc~test_ab~2&#45;&gt;str -->
<g id="edge18" class="edge"><title>proc~test_ab~2&#45;&gt;str</title>
<path fill="none" stroke="black" d="M200.099,-46.2466C232.595,-34.946 288.387,-20.6484 334,-35 349.361,-39.833 364.242,-49.8901 375.681,-59.1706"/>
<polygon fill="black" stroke="black" points="373.475,-61.8897 383.359,-65.7052 378.012,-56.5588 373.475,-61.8897"/>
</g>
<!-- proc~test_ab~2&#45;&gt;proc~save_time_serie -->
<g id="edge20" class="edge"><title>proc~test_ab~2&#45;&gt;proc~save_time_serie</title>
<path fill="none" stroke="black" d="M200.253,-67.4274C213.439,-72.4722 229.591,-78.6521 244.426,-84.3284"/>
<polygon fill="black" stroke="black" points="243.351,-87.6642 253.941,-87.9688 245.852,-81.1264 243.351,-87.6642"/>
</g>
<!-- proc~test_ab~2&#45;&gt;proc~save_results~2 -->
<g id="edge22" class="edge"><title>proc~test_ab~2&#45;&gt;proc~save_results~2</title>
<path fill="none" stroke="black" d="M200.253,-57C212.427,-57 227.129,-57 240.99,-57"/>
<polygon fill="black" stroke="black" points="241.369,-60.5001 251.369,-57 241.369,-53.5001 241.369,-60.5001"/>
</g>
<!-- proc~test_tvd_rk~2&#45;&gt;str -->
<g id="edge24" class="edge"><title>proc~test_tvd_rk~2&#45;&gt;str</title>
<path fill="none" stroke="black" d="M205.532,-9.3073C239.066,-6.83063 292.202,-6.67388 334,-24 351.824,-31.3884 368.119,-45.9269 379.67,-58.2012"/>
<polygon fill="black" stroke="black" points="377.254,-60.7487 386.544,-65.8424 382.458,-56.0671 377.254,-60.7487"/>
</g>
<!-- proc~test_tvd_rk~2&#45;&gt;proc~save_time_serie -->
<g id="edge26" class="edge"><title>proc~test_tvd_rk~2&#45;&gt;proc~save_time_serie</title>
<path fill="none" stroke="black" d="M194.64,-26.0793C198.577,-28.8283 202.531,-31.8548 206,-35 224.718,-51.9725 222.126,-63.3971 242,-79 243.567,-80.23 245.213,-81.4137 246.914,-82.5498"/>
<polygon fill="black" stroke="black" points="245.364,-85.7008 255.743,-87.8269 248.955,-79.6922 245.364,-85.7008"/>
</g>
<!-- proc~test_tvd_rk~2&#45;&gt;proc~save_results~2 -->
<g id="edge28" class="edge"><title>proc~test_tvd_rk~2&#45;&gt;proc~save_results~2</title>
<path fill="none" stroke="black" d="M205.647,-25.4909C217.606,-30.0666 231.341,-35.3217 244.123,-40.2123"/>
<polygon fill="black" stroke="black" points="243.076,-43.5591 253.667,-43.8637 245.578,-37.0213 243.076,-43.5591"/>
</g>
<!-- proc~save_time_serie&#45;&gt;str -->
<g id="edge2" class="edge"><title>proc~save_time_serie&#45;&gt;str</title>
<path fill="none" stroke="black" d="M333.594,-91.7975C342.387,-90.0228 351.497,-88.184 359.976,-86.4726"/>
<polygon fill="black" stroke="black" points="360.833,-89.8705 369.942,-84.4612 359.448,-83.0089 360.833,-89.8705"/>
</g>
<!-- proc~save_results~2&#45;&gt;str -->
<g id="edge4" class="edge"><title>proc~save_results~2&#45;&gt;str</title>
<path fill="none" stroke="black" d="M324.599,-64.3869C335.963,-66.6806 348.496,-69.2101 359.894,-71.5108"/>
<polygon fill="black" stroke="black" points="359.483,-74.9982 369.977,-73.5459 360.868,-68.1366 359.483,-74.9982"/>
</g>
</g>
</svg>
