<?xml version="1.0" encoding="UTF-8" standalone="no"?>
<!DOCTYPE svg PUBLIC "-//W3C//DTD SVG 1.1//EN"
 "http://www.w3.org/Graphics/SVG/1.1/DTD/svg11.dtd">
<!-- Generated by graphviz version 2.26.3 (20100126.1600)
 -->
<!-- Title: program~~integrate_lorenz~~CallsGraph Pages: 1 -->
<svg width="320pt" height="210pt"
 viewBox="0.00 0.00 320.00 210.00" xmlns="http://www.w3.org/2000/svg" xmlns:xlink="http://www.w3.org/1999/xlink">
<g id="graph1" class="graph" transform="scale(1 1) rotate(0) translate(4 206)">
<title>program~~integrate_lorenz~~CallsGraph</title>
<polygon fill="white" stroke="white" points="-4,5 -4,-206 317,-206 317,5 -4,5"/>
<!-- program~integrate_lorenz -->
<g id="node1" class="node"><title>program~integrate_lorenz</title>
<polygon fill="none" stroke="black" points="90,-114 4.26326e-14,-114 0,-88 90,-88 90,-114"/>
<text text-anchor="middle" x="45" y="-98.55" font-family="Helvetica,sans-Serif" font-size="10.50">integrate_lorenz</text>
</g>
<!-- proc~test_ls_rk~3 -->
<g id="node2" class="node"><title>proc~test_ls_rk~3</title>
<a xlink:href="../proc/test_ls_rk%7E3.html" xlink:title="test_ls_rk">
<polygon fill="#d9534f" stroke="#d9534f" points="193,-114 135,-114 135,-88 193,-88 193,-114"/>
<text text-anchor="middle" x="164" y="-98.55" font-family="Helvetica,sans-Serif" font-size="10.50" fill="white">test_ls_rk</text>
</a>
</g>
<!-- program~integrate_lorenz&#45;&gt;proc~test_ls_rk~3 -->
<g id="edge18" class="edge"><title>program~integrate_lorenz&#45;&gt;proc~test_ls_rk~3</title>
<path fill="none" stroke="black" d="M90.3283,-101C101.677,-101 113.756,-101 124.78,-101"/>
<polygon fill="black" stroke="black" points="124.968,-104.5 134.968,-101 124.968,-97.5001 124.968,-104.5"/>
</g>
<!-- proc~test_tvd_rk~3 -->
<g id="node3" class="node"><title>proc~test_tvd_rk~3</title>
<a xlink:href="../proc/test_tvd_rk%7E3.html" xlink:title="test_tvd_rk">
<polygon fill="#d9534f" stroke="#d9534f" points="196,-70 132,-70 132,-44 196,-44 196,-70"/>
<text text-anchor="middle" x="164" y="-54.55" font-family="Helvetica,sans-Serif" font-size="10.50" fill="white">test_tvd_rk</text>
</a>
</g>
<!-- program~integrate_lorenz&#45;&gt;proc~test_tvd_rk~3 -->
<g id="edge20" class="edge"><title>program~integrate_lorenz&#45;&gt;proc~test_tvd_rk~3</title>
<path fill="none" stroke="black" d="M80.3817,-87.9177C93.3925,-83.107 108.255,-77.6115 121.806,-72.601"/>
<polygon fill="black" stroke="black" points="123.231,-75.8059 131.397,-69.055 120.803,-69.2403 123.231,-75.8059"/>
</g>
<!-- proc~test_leapfrog~3 -->
<g id="node4" class="node"><title>proc~test_leapfrog~3</title>
<a xlink:href="../proc/test_leapfrog%7E3.html" xlink:title="test_leapfrog">
<polygon fill="#d9534f" stroke="#d9534f" points="201,-158 127,-158 127,-132 201,-132 201,-158"/>
<text text-anchor="middle" x="164" y="-142.55" font-family="Helvetica,sans-Serif" font-size="10.50" fill="white">test_leapfrog</text>
</a>
</g>
<!-- program~integrate_lorenz&#45;&gt;proc~test_leapfrog~3 -->
<g id="edge22" class="edge"><title>program~integrate_lorenz&#45;&gt;proc~test_leapfrog~3</title>
<path fill="none" stroke="black" d="M80.3817,-114.082C92.5019,-118.564 106.229,-123.639 119.006,-128.364"/>
<polygon fill="black" stroke="black" points="117.956,-131.707 128.549,-131.892 120.384,-125.141 117.956,-131.707"/>
</g>
<!-- proc~test_ab~3 -->
<g id="node5" class="node"><title>proc~test_ab~3</title>
<a xlink:href="../proc/test_ab%7E3.html" xlink:title="test_ab">
<polygon fill="#d9534f" stroke="#d9534f" points="191,-26 137,-26 137,-1.24345e-14 191,-3.55271e-15 191,-26"/>
<text text-anchor="middle" x="164" y="-10.55" font-family="Helvetica,sans-Serif" font-size="10.50" fill="white">test_ab</text>
</a>
</g>
<!-- program~integrate_lorenz&#45;&gt;proc~test_ab~3 -->
<g id="edge24" class="edge"><title>program~integrate_lorenz&#45;&gt;proc~test_ab~3</title>
<path fill="none" stroke="black" d="M59.6691,-87.8488C75.483,-73.9625 101.668,-51.7988 126,-35 127.647,-33.8631 129.355,-32.728 131.096,-31.6064"/>
<polygon fill="black" stroke="black" points="133.249,-34.3909 139.924,-26.1636 129.575,-28.4322 133.249,-34.3909"/>
</g>
<!-- proc~test_euler~3 -->
<g id="node6" class="node"><title>proc~test_euler~3</title>
<a xlink:href="../proc/test_euler%7E3.html" xlink:title="test_euler">
<polygon fill="#d9534f" stroke="#d9534f" points="194,-202 134,-202 134,-176 194,-176 194,-202"/>
<text text-anchor="middle" x="164" y="-186.55" font-family="Helvetica,sans-Serif" font-size="10.50" fill="white">test_euler</text>
</a>
</g>
<!-- program~integrate_lorenz&#45;&gt;proc~test_euler~3 -->
<g id="edge26" class="edge"><title>program~integrate_lorenz&#45;&gt;proc~test_euler~3</title>
<path fill="none" stroke="black" d="M59.6691,-114.151C75.483,-128.038 101.668,-150.201 126,-167 127.647,-168.137 129.355,-169.272 131.096,-170.394"/>
<polygon fill="black" stroke="black" points="129.575,-173.568 139.924,-175.836 133.249,-167.609 129.575,-173.568"/>
</g>
<!-- proc~save_results~4 -->
<g id="node7" class="node"><title>proc~save_results~4</title>
<a xlink:href="../proc/save_results%7E4.html" xlink:title="save_results">
<polygon fill="#d9534f" stroke="#d9534f" points="311,-114 239,-114 239,-88 311,-88 311,-114"/>
<text text-anchor="middle" x="275" y="-98.55" font-family="Helvetica,sans-Serif" font-size="10.50" fill="white">save_results</text>
</a>
</g>
<!-- proc~test_ls_rk~3&#45;&gt;proc~save_results~4 -->
<g id="edge2" class="edge"><title>proc~test_ls_rk~3&#45;&gt;proc~save_results~4</title>
<path fill="none" stroke="black" d="M193.164,-101C203.895,-101 216.336,-101 228.228,-101"/>
<polygon fill="black" stroke="black" points="228.482,-104.5 238.481,-101 228.481,-97.5001 228.482,-104.5"/>
</g>
<!-- str -->
<g id="node8" class="node"><title>str</title>
<polygon fill="#777777" stroke="#777777" points="302,-70 248,-70 248,-44 302,-44 302,-70"/>
<text text-anchor="middle" x="275" y="-54.55" font-family="Helvetica,sans-Serif" font-size="10.50" fill="white">str</text>
</g>
<!-- proc~test_ls_rk~3&#45;&gt;str -->
<g id="edge4" class="edge"><title>proc~test_ls_rk~3&#45;&gt;str</title>
<path fill="none" stroke="black" d="M193.164,-89.4395C207.074,-83.9254 223.858,-77.2723 238.596,-71.4303"/>
<polygon fill="black" stroke="black" points="239.929,-74.6672 247.935,-67.7284 237.349,-68.1598 239.929,-74.6672"/>
</g>
<!-- proc~test_tvd_rk~3&#45;&gt;proc~save_results~4 -->
<g id="edge6" class="edge"><title>proc~test_tvd_rk~3&#45;&gt;proc~save_results~4</title>
<path fill="none" stroke="black" d="M196.703,-69.9635C208.006,-74.444 220.836,-79.5297 232.792,-84.2689"/>
<polygon fill="black" stroke="black" points="231.561,-87.5458 242.147,-87.9771 234.14,-81.0384 231.561,-87.5458"/>
</g>
<!-- proc~test_tvd_rk~3&#45;&gt;str -->
<g id="edge8" class="edge"><title>proc~test_tvd_rk~3&#45;&gt;str</title>
<path fill="none" stroke="black" d="M196.703,-57C209.52,-57 224.3,-57 237.543,-57"/>
<polygon fill="black" stroke="black" points="237.766,-60.5001 247.766,-57 237.766,-53.5001 237.766,-60.5001"/>
</g>
<!-- proc~test_leapfrog~3&#45;&gt;proc~save_results~4 -->
<g id="edge10" class="edge"><title>proc~test_leapfrog~3&#45;&gt;proc~save_results~4</title>
<path fill="none" stroke="black" d="M197.003,-131.918C208.087,-127.524 220.611,-122.559 232.329,-117.915"/>
<polygon fill="black" stroke="black" points="233.926,-121.047 241.932,-114.108 231.346,-114.539 233.926,-121.047"/>
</g>
<!-- proc~test_ab~3&#45;&gt;proc~save_results~4 -->
<g id="edge12" class="edge"><title>proc~test_ab~3&#45;&gt;proc~save_results~4</title>
<path fill="none" stroke="black" d="M189.792,-26.2277C194.051,-28.883 198.284,-31.8386 202,-35 221.245,-51.3725 218.851,-62.5157 238,-79 239.285,-80.1062 240.633,-81.189 242.022,-82.2441"/>
<polygon fill="black" stroke="black" points="240.069,-85.149 250.287,-87.9506 244.047,-79.3886 240.069,-85.149"/>
</g>
<!-- proc~test_ab~3&#45;&gt;str -->
<g id="edge14" class="edge"><title>proc~test_ab~3&#45;&gt;str</title>
<path fill="none" stroke="black" d="M191.154,-23.7636C205.264,-29.3568 222.715,-36.2745 238.037,-42.3481"/>
<polygon fill="black" stroke="black" points="237.156,-45.7636 247.742,-46.195 239.735,-39.2562 237.156,-45.7636"/>
</g>
<!-- proc~test_euler~3&#45;&gt;proc~save_results~4 -->
<g id="edge16" class="edge"><title>proc~test_euler~3&#45;&gt;proc~save_results~4</title>
<path fill="none" stroke="black" d="M188.604,-175.773C193.167,-173.037 197.811,-170.054 202,-167 221.104,-153.073 240.884,-134.918 255.028,-121.176"/>
<polygon fill="black" stroke="black" points="257.595,-123.56 262.265,-114.05 252.684,-118.572 257.595,-123.56"/>
</g>
</g>
</svg>
