<?xml version="1.0" encoding="UTF-8" standalone="no"?>
<!DOCTYPE svg PUBLIC "-//W3C//DTD SVG 1.1//EN"
 "http://www.w3.org/Graphics/SVG/1.1/DTD/svg11.dtd">
<!-- Generated by graphviz version 2.26.3 (20100126.1600)
 -->
<!-- Title: program~~integrate_oscillation~~CallsGraph Pages: 1 -->
<svg width="480pt" height="122pt"
 viewBox="0.00 0.00 480.00 122.00" xmlns="http://www.w3.org/2000/svg" xmlns:xlink="http://www.w3.org/1999/xlink">
<g id="graph1" class="graph" transform="scale(1 1) rotate(0) translate(4 118)">
<title>program~~integrate_oscillation~~CallsGraph</title>
<polygon fill="white" stroke="white" points="-4,5 -4,-118 477,-118 477,5 -4,5"/>
<!-- program~integrate_oscillation -->
<g id="node1" class="node"><title>program~integrate_oscillation</title>
<polygon fill="none" stroke="black" points="107,-70 1,-70 1,-44 107,-44 107,-70"/>
<text text-anchor="middle" x="54" y="-54.55" font-family="Helvetica,sans-Serif" font-size="10.50">integrate_oscillation</text>
</g>
<!-- proc~test_euler~4 -->
<g id="node2" class="node"><title>proc~test_euler~4</title>
<a xlink:href="../proc/test_euler%7E4.html" xlink:title="test_euler">
<polygon fill="#d9534f" stroke="#d9534f" points="204,-114 144,-114 144,-88 204,-88 204,-114"/>
<text text-anchor="middle" x="174" y="-98.55" font-family="Helvetica,sans-Serif" font-size="10.50" fill="white">test_euler</text>
</a>
</g>
<!-- program~integrate_oscillation&#45;&gt;proc~test_euler~4 -->
<g id="edge18" class="edge"><title>program~integrate_oscillation&#45;&gt;proc~test_euler~4</title>
<path fill="none" stroke="black" d="M89.6791,-70.0823C103.712,-75.2279 119.882,-81.1569 134.285,-86.4379"/>
<polygon fill="black" stroke="black" points="133.332,-89.8163 143.926,-89.9728 135.742,-83.2441 133.332,-89.8163"/>
</g>
<!-- proc~test_ab~4 -->
<g id="node3" class="node"><title>proc~test_ab~4</title>
<a xlink:href="../proc/test_ab%7E4.html" xlink:title="test_ab">
<polygon fill="#d9534f" stroke="#d9534f" points="201,-26 147,-26 147,-1.24345e-14 201,-3.55271e-15 201,-26"/>
<text text-anchor="middle" x="174" y="-10.55" font-family="Helvetica,sans-Serif" font-size="10.50" fill="white">test_ab</text>
</a>
</g>
<!-- program~integrate_oscillation&#45;&gt;proc~test_ab~4 -->
<g id="edge20" class="edge"><title>program~integrate_oscillation&#45;&gt;proc~test_ab~4</title>
<path fill="none" stroke="black" d="M89.6791,-43.9177C104.641,-38.4317 122.031,-32.0552 137.119,-26.523"/>
<polygon fill="black" stroke="black" points="138.469,-29.756 146.653,-23.0273 136.059,-23.1838 138.469,-29.756"/>
</g>
<!-- proc~test_rk~4 -->
<g id="node4" class="node"><title>proc~test_rk~4</title>
<a xlink:href="../proc/test_rk%7E4.html" xlink:title="test_rk">
<polygon fill="#d9534f" stroke="#d9534f" points="201,-70 147,-70 147,-44 201,-44 201,-70"/>
<text text-anchor="middle" x="174" y="-54.55" font-family="Helvetica,sans-Serif" font-size="10.50" fill="white">test_rk</text>
</a>
</g>
<!-- program~integrate_oscillation&#45;&gt;proc~test_rk~4 -->
<g id="edge22" class="edge"><title>program~integrate_oscillation&#45;&gt;proc~test_rk~4</title>
<path fill="none" stroke="black" d="M107.682,-57C117.566,-57 127.682,-57 136.939,-57"/>
<polygon fill="black" stroke="black" points="136.969,-60.5001 146.969,-57 136.969,-53.5001 136.969,-60.5001"/>
</g>
<!-- proc~save_results~4 -->
<g id="node5" class="node"><title>proc~save_results~4</title>
<a xlink:href="../proc/save_results%7E4.html" xlink:title="save_results">
<polygon fill="#d9534f" stroke="#d9534f" points="347,-114 275,-114 275,-88 347,-88 347,-114"/>
<text text-anchor="middle" x="311" y="-98.55" font-family="Helvetica,sans-Serif" font-size="10.50" fill="white">save_results</text>
</a>
</g>
<!-- proc~test_euler~4&#45;&gt;proc~save_results~4 -->
<g id="edge2" class="edge"><title>proc~test_euler~4&#45;&gt;proc~save_results~4</title>
<path fill="none" stroke="black" d="M204.065,-101C221.706,-101 244.374,-101 264.297,-101"/>
<polygon fill="black" stroke="black" points="264.424,-104.5 274.424,-101 264.424,-97.5001 264.424,-104.5"/>
</g>
<!-- proc~test_ab~4&#45;&gt;proc~save_results~4 -->
<g id="edge6" class="edge"><title>proc~test_ab~4&#45;&gt;proc~save_results~4</title>
<path fill="none" stroke="black" d="M193.302,-26.0379C196.99,-28.8343 200.72,-31.8889 204,-35 222.333,-52.3869 219.044,-64.8843 240,-79 247.388,-83.9761 255.953,-87.8682 264.524,-90.8991"/>
<polygon fill="black" stroke="black" points="263.55,-94.2621 274.14,-93.967 265.677,-87.5932 263.55,-94.2621"/>
</g>
<!-- str -->
<g id="node7" class="node"><title>str</title>
<polygon fill="#777777" stroke="#777777" points="338,-26 284,-26 284,-1.24345e-14 338,-3.55271e-15 338,-26"/>
<text text-anchor="middle" x="311" y="-10.55" font-family="Helvetica,sans-Serif" font-size="10.50" fill="white">str</text>
</g>
<!-- proc~test_ab~4&#45;&gt;str -->
<g id="edge8" class="edge"><title>proc~test_ab~4&#45;&gt;str</title>
<path fill="none" stroke="black" d="M201.067,-13C221.895,-13 250.909,-13 273.901,-13"/>
<polygon fill="black" stroke="black" points="273.989,-16.5001 283.989,-13 273.989,-9.5001 273.989,-16.5001"/>
</g>
<!-- interface~tvd_runge_kutta_integrator -->
<g id="node8" class="node"><title>interface~tvd_runge_kutta_integrator</title>
<a xlink:href="../interface/tvd_runge_kutta_integrator.html" xlink:title="tvd_runge_kutta_integrator">
<polygon fill="#a7506f" stroke="#a7506f" points="382,-70 240,-70 240,-44 382,-44 382,-70"/>
<text text-anchor="middle" x="311" y="-54.55" font-family="Helvetica,sans-Serif" font-size="10.50" fill="white">tvd_runge_kutta_integrator</text>
</a>
</g>
<!-- proc~test_ab~4&#45;&gt;interface~tvd_runge_kutta_integrator -->
<g id="edge10" class="edge"><title>proc~test_ab~4&#45;&gt;interface~tvd_runge_kutta_integrator</title>
<path fill="none" stroke="black" d="M201.252,-22.2286C213.134,-26.2148 227.237,-30.8959 240,-35 245.966,-36.9184 252.223,-38.9006 258.447,-40.8534"/>
<polygon fill="black" stroke="black" points="257.564,-44.2442 268.152,-43.8845 259.651,-37.5625 257.564,-44.2442"/>
</g>
<!-- proc~test_rk~4&#45;&gt;proc~save_results~4 -->
<g id="edge12" class="edge"><title>proc~test_rk~4&#45;&gt;proc~save_results~4</title>
<path fill="none" stroke="black" d="M201.252,-66.2286C213.134,-70.2148 227.237,-74.8959 240,-79 248.035,-81.5838 256.599,-84.2834 264.897,-86.8709"/>
<polygon fill="black" stroke="black" points="263.88,-90.22 274.469,-89.8434 265.957,-83.5349 263.88,-90.22"/>
</g>
<!-- proc~test_rk~4&#45;&gt;str -->
<g id="edge14" class="edge"><title>proc~test_rk~4&#45;&gt;str</title>
<path fill="none" stroke="black" d="M201.252,-47.7714C213.134,-43.7852 227.237,-39.1041 240,-35 251.099,-31.4311 263.206,-27.6413 274.229,-24.2309"/>
<polygon fill="black" stroke="black" points="275.461,-27.5136 283.986,-21.2228 273.398,-20.8243 275.461,-27.5136"/>
</g>
<!-- proc~test_rk~4&#45;&gt;interface~tvd_runge_kutta_integrator -->
<g id="edge16" class="edge"><title>proc~test_rk~4&#45;&gt;interface~tvd_runge_kutta_integrator</title>
<path fill="none" stroke="black" d="M201.067,-57C209.636,-57 219.59,-57 229.94,-57"/>
<polygon fill="black" stroke="black" points="229.953,-60.5001 239.953,-57 229.953,-53.5001 229.953,-60.5001"/>
</g>
<!-- proc~create -->
<g id="node9" class="node"><title>proc~create</title>
<a xlink:href="../proc/create.html" xlink:title="create">
<polygon fill="#d94e8f" stroke="#d94e8f" points="472,-70 418,-70 418,-44 472,-44 472,-70"/>
<text text-anchor="middle" x="445" y="-54.55" font-family="Helvetica,sans-Serif" font-size="10.50" fill="white">create</text>
</a>
</g>
<!-- interface~tvd_runge_kutta_integrator&#45;&gt;proc~create -->
<g id="edge4" class="edge"><title>interface~tvd_runge_kutta_integrator&#45;&gt;proc~create</title>
<path fill="none" stroke="black" stroke-dasharray="5,2" d="M382.316,-57C391.094,-57 399.774,-57 407.748,-57"/>
<polygon fill="black" stroke="black" points="407.773,-60.5001 417.773,-57 407.773,-53.5001 407.773,-60.5001"/>
</g>
</g>
</svg>
