<?xml version="1.0" encoding="UTF-8" standalone="no"?>
<!DOCTYPE svg PUBLIC "-//W3C//DTD SVG 1.1//EN"
 "http://www.w3.org/Graphics/SVG/1.1/DTD/svg11.dtd">
<!-- Generated by graphviz version 2.26.3 (20100126.1600)
 -->
<!-- Title: program~~integrate_burgers~~CallsGraph Pages: 1 -->
<svg width="328pt" height="254pt"
 viewBox="0.00 0.00 328.00 254.00" xmlns="http://www.w3.org/2000/svg" xmlns:xlink="http://www.w3.org/1999/xlink">
<g id="graph1" class="graph" transform="scale(1 1) rotate(0) translate(4 250)">
<title>program~~integrate_burgers~~CallsGraph</title>
<polygon fill="white" stroke="white" points="-4,5 -4,-250 325,-250 325,5 -4,5"/>
<!-- program~integrate_burgers -->
<g id="node1" class="node"><title>program~integrate_burgers</title>
<polygon fill="none" stroke="black" points="97,-136 1,-136 1,-110 97,-110 97,-136"/>
<text text-anchor="middle" x="49" y="-120.55" font-family="Helvetica,sans-Serif" font-size="10.50">integrate_burgers</text>
</g>
<!-- proc~test_ls_rk -->
<g id="node2" class="node"><title>proc~test_ls_rk</title>
<a xlink:href="../proc/test_ls_rk.html" xlink:title="test_ls_rk">
<polygon fill="#d9534f" stroke="#d9534f" points="201,-70 143,-70 143,-44 201,-44 201,-70"/>
<text text-anchor="middle" x="172" y="-54.55" font-family="Helvetica,sans-Serif" font-size="10.50" fill="white">test_ls_rk</text>
</a>
</g>
<!-- program~integrate_burgers&#45;&gt;proc~test_ls_rk -->
<g id="edge22" class="edge"><title>program~integrate_burgers&#45;&gt;proc~test_ls_rk</title>
<path fill="none" stroke="black" d="M73.3008,-109.961C92.0005,-99.9266 118.05,-85.9489 138.692,-74.8727"/>
<polygon fill="black" stroke="black" points="140.593,-77.8247 147.75,-70.0124 137.283,-71.6566 140.593,-77.8247"/>
</g>
<!-- proc~test_tvd_rk -->
<g id="node3" class="node"><title>proc~test_tvd_rk</title>
<a xlink:href="../proc/test_tvd_rk.html" xlink:title="test_tvd_rk">
<polygon fill="#d9534f" stroke="#d9534f" points="204,-246 140,-246 140,-220 204,-220 204,-246"/>
<text text-anchor="middle" x="172" y="-230.55" font-family="Helvetica,sans-Serif" font-size="10.50" fill="white">test_tvd_rk</text>
</a>
</g>
<!-- program~integrate_burgers&#45;&gt;proc~test_tvd_rk -->
<g id="edge24" class="edge"><title>program~integrate_burgers&#45;&gt;proc~test_tvd_rk</title>
<path fill="none" stroke="black" d="M59.5701,-136.043C74.758,-154.261 104.219,-187.706 134,-211 135.531,-212.198 137.134,-213.375 138.78,-214.524"/>
<polygon fill="black" stroke="black" points="136.93,-217.496 147.225,-219.999 140.738,-211.622 136.93,-217.496"/>
</g>
<!-- proc~test_ab -->
<g id="node4" class="node"><title>proc~test_ab</title>
<a xlink:href="../proc/test_ab.html" xlink:title="test_ab">
<polygon fill="#d9534f" stroke="#d9534f" points="199,-202 145,-202 145,-176 199,-176 199,-202"/>
<text text-anchor="middle" x="172" y="-186.55" font-family="Helvetica,sans-Serif" font-size="10.50" fill="white">test_ab</text>
</a>
</g>
<!-- program~integrate_burgers&#45;&gt;proc~test_ab -->
<g id="edge26" class="edge"><title>program~integrate_burgers&#45;&gt;proc~test_ab</title>
<path fill="none" stroke="black" d="M73.3008,-136.039C92.0005,-146.073 118.05,-160.051 138.692,-171.127"/>
<polygon fill="black" stroke="black" points="137.283,-174.343 147.75,-175.988 140.593,-168.175 137.283,-174.343"/>
</g>
<!-- proc~test_euler -->
<g id="node5" class="node"><title>proc~test_euler</title>
<a xlink:href="../proc/test_euler.html" xlink:title="test_euler">
<polygon fill="#d9534f" stroke="#d9534f" points="202,-158 142,-158 142,-132 202,-132 202,-158"/>
<text text-anchor="middle" x="172" y="-142.55" font-family="Helvetica,sans-Serif" font-size="10.50" fill="white">test_euler</text>
</a>
</g>
<!-- program~integrate_burgers&#45;&gt;proc~test_euler -->
<g id="edge28" class="edge"><title>program~integrate_burgers&#45;&gt;proc~test_euler</title>
<path fill="none" stroke="black" d="M97.6129,-131.695C108.91,-133.716 120.814,-135.845 131.707,-137.793"/>
<polygon fill="black" stroke="black" points="131.328,-141.281 141.788,-139.596 132.56,-134.39 131.328,-141.281"/>
</g>
<!-- proc~init~5 -->
<g id="node6" class="node"><title>proc~init~5</title>
<a xlink:href="../proc/init%7E5.html" xlink:title="init">
<polygon fill="#d9534f" stroke="#d9534f" points="199,-26 145,-26 145,-1.24345e-14 199,-3.55271e-15 199,-26"/>
<text text-anchor="middle" x="172" y="-10.55" font-family="Helvetica,sans-Serif" font-size="10.50" fill="white">init</text>
</a>
</g>
<!-- program~integrate_burgers&#45;&gt;proc~init~5 -->
<g id="edge30" class="edge"><title>program~integrate_burgers&#45;&gt;proc~init~5</title>
<path fill="none" stroke="black" d="M59.5701,-109.957C74.758,-91.739 104.219,-58.2936 134,-35 135.531,-33.8024 137.134,-32.6251 138.78,-31.4759"/>
<polygon fill="black" stroke="black" points="140.738,-34.3776 147.225,-26.0009 136.93,-28.5039 140.738,-34.3776"/>
</g>
<!-- proc~test_leapfrog -->
<g id="node7" class="node"><title>proc~test_leapfrog</title>
<a xlink:href="../proc/test_leapfrog.html" xlink:title="test_leapfrog">
<polygon fill="#d9534f" stroke="#d9534f" points="209,-114 135,-114 135,-88 209,-88 209,-114"/>
<text text-anchor="middle" x="172" y="-98.55" font-family="Helvetica,sans-Serif" font-size="10.50" fill="white">test_leapfrog</text>
</a>
</g>
<!-- program~integrate_burgers&#45;&gt;proc~test_leapfrog -->
<g id="edge32" class="edge"><title>program~integrate_burgers&#45;&gt;proc~test_leapfrog</title>
<path fill="none" stroke="black" d="M97.6129,-114.305C106.397,-112.734 115.548,-111.097 124.306,-109.531"/>
<polygon fill="black" stroke="black" points="125.132,-112.939 134.36,-107.732 123.9,-106.048 125.132,-112.939"/>
</g>
<!-- str -->
<g id="node8" class="node"><title>str</title>
<polygon fill="#777777" stroke="#777777" points="310,-180 256,-180 256,-154 310,-154 310,-180"/>
<text text-anchor="middle" x="283" y="-164.55" font-family="Helvetica,sans-Serif" font-size="10.50" fill="white">str</text>
</g>
<!-- proc~test_ls_rk&#45;&gt;str -->
<g id="edge2" class="edge"><title>proc~test_ls_rk&#45;&gt;str</title>
<path fill="none" stroke="black" d="M199.102,-70.1816C203.024,-72.7765 206.807,-75.7249 210,-79 233.324,-102.925 222.815,-120.939 246,-145 246.904,-145.938 247.857,-146.851 248.847,-147.737"/>
<polygon fill="black" stroke="black" points="246.935,-150.681 256.998,-153.995 251.198,-145.129 246.935,-150.681"/>
</g>
<!-- proc~save_results -->
<g id="node9" class="node"><title>proc~save_results</title>
<a xlink:href="../proc/save_results.html" xlink:title="save_results">
<polygon fill="#d9534f" stroke="#d9534f" points="319,-136 247,-136 247,-110 319,-110 319,-136"/>
<text text-anchor="middle" x="283" y="-120.55" font-family="Helvetica,sans-Serif" font-size="10.50" fill="white">save_results</text>
</a>
</g>
<!-- proc~test_ls_rk&#45;&gt;proc~save_results -->
<g id="edge4" class="edge"><title>proc~test_ls_rk&#45;&gt;proc~save_results</title>
<path fill="none" stroke="black" d="M194.946,-70.1972C199.919,-73.0819 205.143,-76.1307 210,-79 224.078,-87.3172 239.604,-96.6521 252.704,-104.577"/>
<polygon fill="black" stroke="black" points="250.973,-107.619 261.339,-109.808 254.6,-101.632 250.973,-107.619"/>
</g>
<!-- proc~test_tvd_rk&#45;&gt;str -->
<g id="edge6" class="edge"><title>proc~test_tvd_rk&#45;&gt;str</title>
<path fill="none" stroke="black" d="M194.946,-219.803C199.919,-216.918 205.143,-213.869 210,-211 224.078,-202.683 239.604,-193.348 252.704,-185.423"/>
<polygon fill="black" stroke="black" points="254.6,-188.368 261.339,-180.192 250.973,-182.381 254.6,-188.368"/>
</g>
<!-- proc~test_tvd_rk&#45;&gt;proc~save_results -->
<g id="edge8" class="edge"><title>proc~test_tvd_rk&#45;&gt;proc~save_results</title>
<path fill="none" stroke="black" d="M199.102,-219.818C203.024,-217.223 206.807,-214.275 210,-211 233.324,-187.075 222.815,-169.061 246,-145 246.904,-144.062 247.857,-143.149 248.847,-142.263"/>
<polygon fill="black" stroke="black" points="251.198,-144.871 256.998,-136.005 246.935,-139.319 251.198,-144.871"/>
</g>
<!-- proc~test_ab&#45;&gt;str -->
<g id="edge10" class="edge"><title>proc~test_ab&#45;&gt;str</title>
<path fill="none" stroke="black" d="M199.154,-183.618C213.129,-180.848 230.383,-177.429 245.599,-174.413"/>
<polygon fill="black" stroke="black" points="246.613,-177.78 255.742,-172.402 245.252,-170.914 246.613,-177.78"/>
</g>
<!-- proc~test_ab&#45;&gt;proc~save_results -->
<g id="edge12" class="edge"><title>proc~test_ab&#45;&gt;proc~save_results</title>
<path fill="none" stroke="black" d="M194.959,-175.825C199.932,-172.939 205.152,-169.884 210,-167 226.115,-157.413 229.941,-154.681 246,-145 247.924,-143.84 249.907,-142.649 251.907,-141.451"/>
<polygon fill="black" stroke="black" points="253.878,-144.351 260.669,-136.219 250.289,-138.34 253.878,-144.351"/>
</g>
<!-- proc~test_euler&#45;&gt;str -->
<g id="edge16" class="edge"><title>proc~test_euler&#45;&gt;str</title>
<path fill="none" stroke="black" d="M202.038,-150.954C215.574,-153.636 231.691,-156.831 245.967,-159.66"/>
<polygon fill="black" stroke="black" points="245.484,-163.132 255.974,-161.643 246.845,-156.266 245.484,-163.132"/>
</g>
<!-- proc~test_euler&#45;&gt;proc~save_results -->
<g id="edge14" class="edge"><title>proc~test_euler&#45;&gt;proc~save_results</title>
<path fill="none" stroke="black" d="M202.038,-139.046C212.566,-136.96 224.654,-134.564 236.224,-132.271"/>
<polygon fill="black" stroke="black" points="237.076,-135.67 246.205,-130.293 235.715,-128.804 237.076,-135.67"/>
</g>
<!-- proc~test_leapfrog&#45;&gt;str -->
<g id="edge20" class="edge"><title>proc~test_leapfrog&#45;&gt;str</title>
<path fill="none" stroke="black" d="M194.959,-114.175C199.932,-117.061 205.152,-120.116 210,-123 226.115,-132.587 229.941,-135.319 246,-145 247.924,-146.16 249.907,-147.351 251.907,-148.549"/>
<polygon fill="black" stroke="black" points="250.289,-151.66 260.669,-153.781 253.878,-145.649 250.289,-151.66"/>
</g>
<!-- proc~test_leapfrog&#45;&gt;proc~save_results -->
<g id="edge18" class="edge"><title>proc~test_leapfrog&#45;&gt;proc~save_results</title>
<path fill="none" stroke="black" d="M209.58,-108.448C218.171,-110.151 227.403,-111.981 236.324,-113.749"/>
<polygon fill="black" stroke="black" points="235.722,-117.198 246.212,-115.709 237.083,-110.331 235.722,-117.198"/>
</g>
</g>
</svg>
