<?xml version="1.0" encoding="UTF-8" standalone="no"?>
<!DOCTYPE svg PUBLIC "-//W3C//DTD SVG 1.1//EN"
 "http://www.w3.org/Graphics/SVG/1.1/DTD/svg11.dtd">
<!-- Generated by graphviz version 2.38.0 (20140413.2041)
 -->
<!-- Title: program~~integrate_burgers~~UsesGraph Pages: 1 -->
<svg width="641pt" height="167pt"
 viewBox="0.00 0.00 641.00 167.22" xmlns="http://www.w3.org/2000/svg" xmlns:xlink="http://www.w3.org/1999/xlink">
<g id="graph0" class="graph" transform="scale(0.73341 0.73341) rotate(0) translate(4 224.008)">
<title>program~~integrate_burgers~~UsesGraph</title>
<polygon fill="white" stroke="none" points="-4,4 -4,-224.008 870,-224.008 870,4 -4,4"/>
<!-- program~integrate_burgers -->
<g id="node1" class="node"><title>program~integrate_burgers</title>
<polygon fill="none" stroke="black" points="866,-142.008 769,-142.008 769,-118.008 866,-118.008 866,-142.008"/>
<text text-anchor="middle" x="817.5" y="-127.608" font-family="Helvetica,sans-Serif" font-size="10.50">integrate_burgers</text>
</g>
<!-- IR_Precision -->
<g id="node2" class="node"><title>IR_Precision</title>
<polygon fill="#337ab7" stroke="#337ab7" points="73,-103.008 0,-103.008 0,-79.0079 73,-79.0079 73,-103.008"/>
<text text-anchor="middle" x="36.5" y="-88.6079" font-family="Helvetica,sans-Serif" font-size="10.50" fill="white">IR_Precision</text>
</g>
<!-- IR_Precision&#45;&gt;program~integrate_burgers -->
<g id="edge14" class="edge"><title>IR_Precision&#45;&gt;program~integrate_burgers</title>
<path fill="none" stroke="black" stroke-dasharray="5,2" d="M152,-191.008C356.852,-254.427 420.068,-193.302 634.5,-191.008"/>
</g>
<!-- module~type_burgers -->
<g id="node6" class="node"><title>module~type_burgers</title>
<g id="a_node6"><a xlink:href="../module/type_burgers.html" xlink:title="type_burgers">
<polygon fill="#337ab7" stroke="#337ab7" points="673.5,-79.0079 597.5,-79.0079 597.5,-55.0079 673.5,-55.0079 673.5,-79.0079"/>
<text text-anchor="middle" x="635.5" y="-64.6079" font-family="Helvetica,sans-Serif" font-size="10.50" fill="white">type_burgers</text>
</a>
</g>
</g>
<!-- IR_Precision&#45;&gt;module~type_burgers -->
<g id="edge12" class="edge"><title>IR_Precision&#45;&gt;module~type_burgers</title>
<path fill="none" stroke="black" stroke-dasharray="5,2" d="M53.1494,-78.9101C73.9187,-63.7083 112.366,-38.4642 150,-29.0079"/>
<path fill="none" stroke="black" stroke-dasharray="5,2" d="M152,-29.0079C186.403,-20.3635 193.842,-12.7162 229,-8.00791 309.614,2.78771 331.349,2.50353 412,-8.00791 475.368,-16.2668 546.385,-37.228 590.771,-51.8006"/>
<polygon fill="black" stroke="black" points="589.776,-55.1582 600.37,-54.9891 591.983,-48.5151 589.776,-55.1582"/>
</g>
<!-- module~foodie_integrator_adams_bashforth -->
<g id="node7" class="node"><title>module~foodie_integrator_adams_bashforth</title>
<g id="a_node7"><a xlink:href="../module/foodie_integrator_adams_bashforth.html" xlink:title="foodie_integrator_adams_bashforth">
<polygon fill="#337ab7" stroke="#337ab7" points="412,-83.0079 229,-83.0079 229,-59.0079 412,-59.0079 412,-83.0079"/>
<text text-anchor="middle" x="320.5" y="-68.6079" font-family="Helvetica,sans-Serif" font-size="10.50" fill="white">foodie_integrator_adams_bashforth</text>
</a>
</g>
</g>
<!-- IR_Precision&#45;&gt;module~foodie_integrator_adams_bashforth -->
<g id="edge1" class="edge"><title>IR_Precision&#45;&gt;module~foodie_integrator_adams_bashforth</title>
<path fill="none" stroke="black" stroke-dasharray="5,2" d="M152,-29.0079C186.403,-20.3635 194.606,-41.3306 229,-50.0079 237.729,-52.21 246.953,-54.4501 256.042,-56.607"/>
<polygon fill="black" stroke="black" points="255.285,-60.0245 265.821,-58.9089 256.889,-53.2107 255.285,-60.0245"/>
</g>
<!-- module~foodie_integrator_tvd_runge_kutta -->
<g id="node8" class="node"><title>module~foodie_integrator_tvd_runge_kutta</title>
<g id="a_node8"><a xlink:href="../module/foodie_integrator_tvd_runge_kutta.html" xlink:title="foodie_integrator_tvd_runge_kutta">
<polygon fill="#337ab7" stroke="#337ab7" points="409,-41.0079 232,-41.0079 232,-17.0079 409,-17.0079 409,-41.0079"/>
<text text-anchor="middle" x="320.5" y="-26.6079" font-family="Helvetica,sans-Serif" font-size="10.50" fill="white">foodie_integrator_tvd_runge_kutta</text>
</a>
</g>
</g>
<!-- IR_Precision&#45;&gt;module~foodie_integrator_tvd_runge_kutta -->
<g id="edge3" class="edge"><title>IR_Precision&#45;&gt;module~foodie_integrator_tvd_runge_kutta</title>
<path fill="none" stroke="black" stroke-dasharray="5,2" d="M152,-29.0079C174.111,-23.4521 198.388,-21.2992 221.431,-20.9859"/>
<polygon fill="black" stroke="black" points="221.577,-24.4857 231.569,-20.9627 221.561,-17.4857 221.577,-24.4857"/>
</g>
<!-- module~type_integrand -->
<g id="node9" class="node"><title>module~type_integrand</title>
<g id="a_node9"><a xlink:href="../module/type_integrand.html" xlink:title="type_integrand">
<polygon fill="#337ab7" stroke="#337ab7" points="193,-103.008 109,-103.008 109,-79.0079 193,-79.0079 193,-103.008"/>
<text text-anchor="middle" x="151" y="-88.6079" font-family="Helvetica,sans-Serif" font-size="10.50" fill="white">type_integrand</text>
</a>
</g>
</g>
<!-- IR_Precision&#45;&gt;module~type_integrand -->
<g id="edge5" class="edge"><title>IR_Precision&#45;&gt;module~type_integrand</title>
<path fill="none" stroke="black" stroke-dasharray="5,2" d="M73.0957,-91.0079C81.2389,-91.0079 90.0527,-91.0079 98.7087,-91.0079"/>
<polygon fill="black" stroke="black" points="98.748,-94.508 108.748,-91.0079 98.7479,-87.508 98.748,-94.508"/>
</g>
<!-- module~foodie_integrator_euler_explicit -->
<g id="node10" class="node"><title>module~foodie_integrator_euler_explicit</title>
<g id="a_node10"><a xlink:href="../module/foodie_integrator_euler_explicit.html" xlink:title="foodie_integrator_euler_explicit">
<polygon fill="#337ab7" stroke="#337ab7" points="401.5,-163.008 239.5,-163.008 239.5,-139.008 401.5,-139.008 401.5,-163.008"/>
<text text-anchor="middle" x="320.5" y="-148.608" font-family="Helvetica,sans-Serif" font-size="10.50" fill="white">foodie_integrator_euler_explicit</text>
</a>
</g>
</g>
<!-- IR_Precision&#45;&gt;module~foodie_integrator_euler_explicit -->
<g id="edge6" class="edge"><title>IR_Precision&#45;&gt;module~foodie_integrator_euler_explicit</title>
<path fill="none" stroke="black" stroke-dasharray="5,2" d="M45.5781,-103.125C61.9361,-126.318 101.572,-176.015 150,-191.008"/>
<path fill="none" stroke="black" stroke-dasharray="5,2" d="M152,-191.008C163.242,-194.488 224.014,-178.557 269.139,-165.775"/>
<polygon fill="black" stroke="black" points="270.138,-169.13 278.794,-163.022 268.217,-162.399 270.138,-169.13"/>
</g>
<!-- module~foodie -->
<g id="node3" class="node"><title>module~foodie</title>
<g id="a_node3"><a xlink:href="../module/foodie.html" xlink:title="foodie">
<polygon fill="#337ab7" stroke="#337ab7" points="502,-103.008 448,-103.008 448,-79.0079 502,-79.0079 502,-103.008"/>
<text text-anchor="middle" x="475" y="-88.6079" font-family="Helvetica,sans-Serif" font-size="10.50" fill="white">foodie</text>
</a>
</g>
</g>
<!-- module~foodie&#45;&gt;program~integrate_burgers -->
<g id="edge15" class="edge"><title>module~foodie&#45;&gt;program~integrate_burgers</title>
<path fill="none" stroke="black" stroke-dasharray="5,2" d="M481.684,-103.136C490.836,-121.234 510.623,-154.998 538,-172.008 575.129,-195.077 590.79,-191.476 634.5,-191.008"/>
<path fill="none" stroke="black" stroke-dasharray="5,2" d="M636.5,-191.008C680.21,-190.54 691.649,-186.182 733,-172.008 751.687,-165.603 771.483,-155.792 787.108,-147.263"/>
<polygon fill="black" stroke="black" points="789.224,-150.09 796.25,-142.16 785.812,-143.978 789.224,-150.09"/>
</g>
<!-- module~foodie&#45;&gt;module~type_burgers -->
<g id="edge13" class="edge"><title>module~foodie&#45;&gt;module~type_burgers</title>
<path fill="none" stroke="black" stroke-dasharray="5,2" d="M502.173,-87.0448C525.274,-83.5468 559.512,-78.3626 587.373,-74.1438"/>
<polygon fill="black" stroke="black" points="587.954,-77.5959 597.317,-72.6382 586.906,-70.6748 587.954,-77.5959"/>
</g>
<!-- Data_Type_Command_Line_Interface -->
<g id="node4" class="node"><title>Data_Type_Command_Line_Interface</title>
<polygon fill="#337ab7" stroke="#337ab7" points="733,-163.008 538,-163.008 538,-139.008 733,-139.008 733,-163.008"/>
<text text-anchor="middle" x="635.5" y="-148.608" font-family="Helvetica,sans-Serif" font-size="10.50" fill="white">Data_Type_Command_Line_Interface</text>
</g>
<!-- Data_Type_Command_Line_Interface&#45;&gt;program~integrate_burgers -->
<g id="edge16" class="edge"><title>Data_Type_Command_Line_Interface&#45;&gt;program~integrate_burgers</title>
<path fill="none" stroke="black" stroke-dasharray="5,2" d="M733.087,-139.739C741.765,-138.727 750.362,-137.724 758.551,-136.769"/>
<polygon fill="black" stroke="black" points="759.155,-140.222 768.682,-135.587 758.344,-133.269 759.155,-140.222"/>
</g>
<!-- pyplot_module -->
<g id="node5" class="node"><title>pyplot_module</title>
<polygon fill="#337ab7" stroke="#337ab7" points="676.5,-121.008 594.5,-121.008 594.5,-97.0079 676.5,-97.0079 676.5,-121.008"/>
<text text-anchor="middle" x="635.5" y="-106.608" font-family="Helvetica,sans-Serif" font-size="10.50" fill="white">pyplot_module</text>
</g>
<!-- pyplot_module&#45;&gt;program~integrate_burgers -->
<g id="edge17" class="edge"><title>pyplot_module&#45;&gt;program~integrate_burgers</title>
<path fill="none" stroke="black" stroke-dasharray="5,2" d="M676.896,-113.721C701.068,-116.541 732.183,-120.171 758.901,-123.288"/>
<polygon fill="black" stroke="black" points="758.564,-126.772 768.903,-124.455 759.376,-119.82 758.564,-126.772"/>
</g>
<!-- module~type_burgers&#45;&gt;program~integrate_burgers -->
<g id="edge18" class="edge"><title>module~type_burgers&#45;&gt;program~integrate_burgers</title>
<path fill="none" stroke="black" stroke-dasharray="5,2" d="M673.766,-72.8514C691.935,-76.2688 713.927,-81.2579 733,-88.0079 751.622,-94.5985 771.415,-104.418 787.054,-112.906"/>
<polygon fill="black" stroke="black" points="785.764,-116.192 796.208,-117.978 789.157,-110.07 785.764,-116.192"/>
</g>
<!-- module~foodie_integrator_adams_bashforth&#45;&gt;module~foodie -->
<g id="edge8" class="edge"><title>module~foodie_integrator_adams_bashforth&#45;&gt;module~foodie</title>
<path fill="none" stroke="black" stroke-dasharray="5,2" d="M412.412,-82.9308C421.27,-84.0925 429.854,-85.2183 437.661,-86.2421"/>
<polygon fill="black" stroke="black" points="437.407,-89.7388 447.778,-87.5689 438.318,-82.7982 437.407,-89.7388"/>
</g>
<!-- module~foodie_integrator_tvd_runge_kutta&#45;&gt;module~foodie -->
<g id="edge9" class="edge"><title>module~foodie_integrator_tvd_runge_kutta&#45;&gt;module~foodie</title>
<path fill="none" stroke="black" stroke-dasharray="5,2" d="M386.191,-41.0349C395.026,-43.5352 403.851,-46.5032 412,-50.0079 425.657,-55.8812 439.578,-64.7713 450.76,-72.7736"/>
<polygon fill="black" stroke="black" points="448.961,-75.7962 459.083,-78.9264 453.122,-70.1673 448.961,-75.7962"/>
</g>
<!-- module~type_integrand&#45;&gt;module~foodie -->
<g id="edge10" class="edge"><title>module~type_integrand&#45;&gt;module~foodie</title>
<path fill="none" stroke="black" stroke-dasharray="5,2" d="M193.159,-91.6412C204.75,-91.7927 217.369,-91.9324 229,-92.0079 310.332,-92.536 330.669,-92.6638 412,-92.0079 420.25,-91.9414 429.118,-91.8251 437.493,-91.6947"/>
<polygon fill="black" stroke="black" points="437.815,-95.19 447.755,-91.5248 437.699,-88.1909 437.815,-95.19"/>
</g>
<!-- module~type_integrand&#45;&gt;module~foodie_integrator_adams_bashforth -->
<g id="edge2" class="edge"><title>module~type_integrand&#45;&gt;module~foodie_integrator_adams_bashforth</title>
<path fill="none" stroke="black" stroke-dasharray="5,2" d="M193.405,-86.0641C201.288,-85.1228 209.851,-84.1004 218.678,-83.0464"/>
<polygon fill="black" stroke="black" points="219.219,-86.5067 228.734,-81.8457 218.389,-79.556 219.219,-86.5067"/>
</g>
<!-- module~type_integrand&#45;&gt;module~foodie_integrator_tvd_runge_kutta -->
<g id="edge4" class="edge"><title>module~type_integrand&#45;&gt;module~foodie_integrator_tvd_runge_kutta</title>
<path fill="none" stroke="black" stroke-dasharray="5,2" d="M171.277,-78.9154C186.465,-69.8458 208.437,-57.7161 229,-50.0079 234.947,-47.7787 241.205,-45.7384 247.539,-43.8817"/>
<polygon fill="black" stroke="black" points="248.818,-47.1592 257.519,-41.1144 246.948,-40.4137 248.818,-47.1592"/>
</g>
<!-- module~type_integrand&#45;&gt;module~foodie_integrator_euler_explicit -->
<g id="edge7" class="edge"><title>module~type_integrand&#45;&gt;module~foodie_integrator_euler_explicit</title>
<path fill="none" stroke="black" stroke-dasharray="5,2" d="M176.964,-103.065C191.864,-110 211.277,-118.583 229,-125.008 239.936,-128.972 251.784,-132.742 263.193,-136.118"/>
<polygon fill="black" stroke="black" points="262.493,-139.559 273.072,-138.979 264.44,-132.835 262.493,-139.559"/>
</g>
<!-- module~foodie_integrator_euler_explicit&#45;&gt;module~foodie -->
<g id="edge11" class="edge"><title>module~foodie_integrator_euler_explicit&#45;&gt;module~foodie</title>
<path fill="none" stroke="black" stroke-dasharray="5,2" d="M371.025,-138.922C384.522,-135.053 399.001,-130.362 412,-125.008 423.501,-120.271 435.61,-113.958 446.044,-108.058"/>
<polygon fill="black" stroke="black" points="447.827,-111.071 454.726,-103.03 444.318,-105.014 447.827,-111.071"/>
</g>
</g>
</svg>
