<?xml version="1.0" encoding="UTF-8" standalone="no"?>
<!DOCTYPE svg PUBLIC "-//W3C//DTD SVG 1.1//EN"
 "http://www.w3.org/Graphics/SVG/1.1/DTD/svg11.dtd">
<!-- Generated by graphviz version 2.26.3 (20100126.1600)
 -->
<!-- Title: program~~integrate_lorenz~~UsesGraph Pages: 1 -->
<svg width="641pt" height="188pt"
 viewBox="0.00 0.00 641.00 188.24" xmlns="http://www.w3.org/2000/svg" xmlns:xlink="http://www.w3.org/1999/xlink">
<g id="graph1" class="graph" transform="scale(0.736782 0.736782) rotate(0) translate(4 251.486)">
<title>program~~integrate_lorenz~~UsesGraph</title>
<polygon fill="white" stroke="white" points="-4,5 -4,-251.486 867,-251.486 867,5 -4,5"/>
<!-- program~integrate_lorenz -->
<g id="node1" class="node"><title>program~integrate_lorenz</title>
<polygon fill="none" stroke="black" points="862,-118.26 772,-118.26 772,-92.2604 862,-92.2604 862,-118.26"/>
<text text-anchor="middle" x="817" y="-102.81" font-family="Helvetica,sans-Serif" font-size="10.50">integrate_lorenz</text>
</g>
<!-- IR_Precision -->
<g id="node2" class="node"><title>IR_Precision</title>
<polygon fill="#337ab7" stroke="#337ab7" points="73,-107.26 1,-107.26 1,-81.2604 73,-81.2604 73,-107.26"/>
<text text-anchor="middle" x="37" y="-91.8104" font-family="Helvetica,sans-Serif" font-size="10.50" fill="white">IR_Precision</text>
</g>
<!-- IR_Precision&#45;&gt;program~integrate_lorenz -->
<g id="edge28" class="edge"><title>IR_Precision&#45;&gt;program~integrate_lorenz</title>
<path fill="none" stroke="black" stroke-dasharray="5,2" d="M152,-197.26C399.866,-275.349 492.359,-258.671 736,-168.26 760.037,-159.341 782.647,-140.54 797.838,-125.786"/>
<polygon fill="black" stroke="black" points="800.501,-128.072 805.074,-118.514 795.539,-123.134 800.501,-128.072"/>
</g>
<!-- module~type_lorenz -->
<g id="node5" class="node"><title>module~type_lorenz</title>
<a xlink:href="../module/type_lorenz.html" xlink:title="type_lorenz">
<polygon fill="#337ab7" stroke="#337ab7" points="672,-77.2604 604,-77.2604 604,-51.2604 672,-51.2604 672,-77.2604"/>
<text text-anchor="middle" x="638" y="-61.8104" font-family="Helvetica,sans-Serif" font-size="10.50" fill="white">type_lorenz</text>
</a>
</g>
<!-- IR_Precision&#45;&gt;module~type_lorenz -->
<g id="edge24" class="edge"><title>IR_Precision&#45;&gt;module~type_lorenz</title>
<path fill="none" stroke="black" stroke-dasharray="5,2" d="M54.0979,-80.988C75.556,-65.2597 114.153,-39.9638 152,-30.2604"/>
<path fill="none" stroke="black" stroke-dasharray="5,2" d="M152,-30.2604C186.891,-21.315 194.321,-13.1958 230,-8.26038 311.006,2.94501 332.931,2.48529 414,-8.26038 471.5,-15.882 483.69,-28.3492 540,-42.2604 557.524,-46.5895 576.899,-51.0147 593.764,-54.7505"/>
<polygon fill="black" stroke="black" points="593.382,-58.2502 603.901,-56.9804 594.886,-51.4136 593.382,-58.2502"/>
</g>
<!-- module~foodie_integrator_tvd_runge_kutta -->
<g id="node7" class="node"><title>module~foodie_integrator_tvd_runge_kutta</title>
<a xlink:href="../module/foodie_integrator_tvd_runge_kutta.html" xlink:title="foodie_integrator_tvd_runge_kutta">
<polygon fill="#337ab7" stroke="#337ab7" points="410,-87.2604 234,-87.2604 234,-61.2604 410,-61.2604 410,-87.2604"/>
<text text-anchor="middle" x="322" y="-71.8104" font-family="Helvetica,sans-Serif" font-size="10.50" fill="white">foodie_integrator_tvd_runge_kutta</text>
</a>
</g>
<!-- IR_Precision&#45;&gt;module~foodie_integrator_tvd_runge_kutta -->
<g id="edge2" class="edge"><title>IR_Precision&#45;&gt;module~foodie_integrator_tvd_runge_kutta</title>
<path fill="none" stroke="black" stroke-dasharray="5,2" d="M152,-30.2604C186.891,-21.315 195.144,-43.1811 230,-52.2604 238.429,-54.456 247.315,-56.6861 256.105,-58.8423"/>
<polygon fill="black" stroke="black" points="255.417,-62.2769 265.961,-61.2395 257.072,-55.4752 255.417,-62.2769"/>
</g>
<!-- module~foodie_integrator_adams_bashforth -->
<g id="node8" class="node"><title>module~foodie_integrator_adams_bashforth</title>
<a xlink:href="../module/foodie_integrator_adams_bashforth.html" xlink:title="foodie_integrator_adams_bashforth">
<polygon fill="#337ab7" stroke="#337ab7" points="413,-43.2604 231,-43.2604 231,-17.2604 413,-17.2604 413,-43.2604"/>
<text text-anchor="middle" x="322" y="-27.8104" font-family="Helvetica,sans-Serif" font-size="10.50" fill="white">foodie_integrator_adams_bashforth</text>
</a>
</g>
<!-- IR_Precision&#45;&gt;module~foodie_integrator_adams_bashforth -->
<g id="edge6" class="edge"><title>IR_Precision&#45;&gt;module~foodie_integrator_adams_bashforth</title>
<path fill="none" stroke="black" stroke-dasharray="5,2" d="M152,-30.2604C173.569,-24.7304 197.19,-22.4599 219.78,-22.0079"/>
<polygon fill="black" stroke="black" points="220.105,-25.5055 230.076,-21.9231 220.047,-18.5057 220.105,-25.5055"/>
</g>
<!-- module~type_integrand -->
<g id="node9" class="node"><title>module~type_integrand</title>
<a xlink:href="../module/type_integrand.html" xlink:title="type_integrand">
<polygon fill="#337ab7" stroke="#337ab7" points="194,-107.26 110,-107.26 110,-81.2604 194,-81.2604 194,-107.26"/>
<text text-anchor="middle" x="152" y="-91.8104" font-family="Helvetica,sans-Serif" font-size="10.50" fill="white">type_integrand</text>
</a>
</g>
<!-- IR_Precision&#45;&gt;module~type_integrand -->
<g id="edge10" class="edge"><title>IR_Precision&#45;&gt;module~type_integrand</title>
<path fill="none" stroke="black" stroke-dasharray="5,2" d="M73.7029,-94.2604C81.9237,-94.2604 90.8,-94.2604 99.521,-94.2604"/>
<polygon fill="black" stroke="black" points="99.6389,-97.7605 109.639,-94.2604 99.6388,-90.7605 99.6389,-97.7605"/>
</g>
<!-- module~foodie_integrator_euler_explicit -->
<g id="node10" class="node"><title>module~foodie_integrator_euler_explicit</title>
<a xlink:href="../module/foodie_integrator_euler_explicit.html" xlink:title="foodie_integrator_euler_explicit">
<polygon fill="#337ab7" stroke="#337ab7" points="403,-169.26 241,-169.26 241,-143.26 403,-143.26 403,-169.26"/>
<text text-anchor="middle" x="322" y="-153.81" font-family="Helvetica,sans-Serif" font-size="10.50" fill="white">foodie_integrator_euler_explicit</text>
</a>
</g>
<!-- IR_Precision&#45;&gt;module~foodie_integrator_euler_explicit -->
<g id="edge12" class="edge"><title>IR_Precision&#45;&gt;module~foodie_integrator_euler_explicit</title>
<path fill="none" stroke="black" stroke-dasharray="5,2" d="M45.7657,-107.455C62.7711,-131.591 102.917,-181.797 152,-197.26"/>
<path fill="none" stroke="black" stroke-dasharray="5,2" d="M152,-197.26C163.196,-200.788 222.906,-185.09 268.429,-172.109"/>
<polygon fill="black" stroke="black" points="269.55,-175.428 278.195,-169.303 267.618,-168.7 269.55,-175.428"/>
</g>
<!-- pyplot_module -->
<g id="node3" class="node"><title>pyplot_module</title>
<polygon fill="#337ab7" stroke="#337ab7" points="679,-159.26 597,-159.26 597,-133.26 679,-133.26 679,-159.26"/>
<text text-anchor="middle" x="638" y="-143.81" font-family="Helvetica,sans-Serif" font-size="10.50" fill="white">pyplot_module</text>
</g>
<!-- pyplot_module&#45;&gt;program~integrate_lorenz -->
<g id="edge30" class="edge"><title>pyplot_module&#45;&gt;program~integrate_lorenz</title>
<path fill="none" stroke="black" stroke-dasharray="5,2" d="M679.066,-136.854C703.595,-131.236 735.069,-124.027 761.756,-117.914"/>
<polygon fill="black" stroke="black" points="762.76,-121.275 771.726,-115.63 761.197,-114.452 762.76,-121.275"/>
</g>
<!-- module~foodie -->
<g id="node4" class="node"><title>module~foodie</title>
<a xlink:href="../module/foodie.html" xlink:title="foodie">
<polygon fill="#337ab7" stroke="#337ab7" points="504,-97.2604 450,-97.2604 450,-71.2604 504,-71.2604 504,-97.2604"/>
<text text-anchor="middle" x="477" y="-81.8104" font-family="Helvetica,sans-Serif" font-size="10.50" fill="white">foodie</text>
</a>
</g>
<!-- module~foodie&#45;&gt;program~integrate_lorenz -->
<g id="edge32" class="edge"><title>module~foodie&#45;&gt;program~integrate_lorenz</title>
<path fill="none" stroke="black" stroke-dasharray="5,2" d="M504.249,-85.9434C560.009,-89.3874 688.082,-97.2978 761.879,-101.856"/>
<polygon fill="black" stroke="black" points="761.722,-105.353 771.919,-102.476 762.153,-98.366 761.722,-105.353"/>
</g>
<!-- module~foodie&#45;&gt;module~type_lorenz -->
<g id="edge26" class="edge"><title>module~foodie&#45;&gt;module~type_lorenz</title>
<path fill="none" stroke="black" stroke-dasharray="5,2" d="M504.311,-80.8677C528.762,-77.8304 565.061,-73.3212 593.667,-69.7676"/>
<polygon fill="black" stroke="black" points="594.33,-73.2122 603.822,-68.5061 593.467,-66.2656 594.33,-73.2122"/>
</g>
<!-- module~type_lorenz&#45;&gt;program~integrate_lorenz -->
<g id="edge34" class="edge"><title>module~type_lorenz&#45;&gt;program~integrate_lorenz</title>
<path fill="none" stroke="black" stroke-dasharray="5,2" d="M672.09,-72.0687C697.406,-77.8673 732.473,-85.8994 761.769,-92.6098"/>
<polygon fill="black" stroke="black" points="761.337,-96.1013 771.866,-94.9224 762.9,-89.278 761.337,-96.1013"/>
</g>
<!-- Data_Type_Command_Line_Interface -->
<g id="node6" class="node"><title>Data_Type_Command_Line_Interface</title>
<polygon fill="#337ab7" stroke="#337ab7" points="735,-33.2604 541,-33.2604 541,-7.26038 735,-7.26038 735,-33.2604"/>
<text text-anchor="middle" x="638" y="-17.8104" font-family="Helvetica,sans-Serif" font-size="10.50" fill="white">Data_Type_Command_Line_Interface</text>
</g>
<!-- Data_Type_Command_Line_Interface&#45;&gt;program~integrate_lorenz -->
<g id="edge36" class="edge"><title>Data_Type_Command_Line_Interface&#45;&gt;program~integrate_lorenz</title>
<path fill="none" stroke="black" stroke-dasharray="5,2" d="M712.483,-33.3141C720.595,-35.8077 728.588,-38.7626 736,-42.2604 758.775,-53.0084 781.095,-71.0958 796.519,-85.1401"/>
<polygon fill="black" stroke="black" points="794.225,-87.7867 803.922,-92.0555 799.004,-82.6714 794.225,-87.7867"/>
</g>
<!-- module~foodie_integrator_tvd_runge_kutta&#45;&gt;module~foodie -->
<g id="edge16" class="edge"><title>module~foodie_integrator_tvd_runge_kutta&#45;&gt;module~foodie</title>
<path fill="none" stroke="black" stroke-dasharray="5,2" d="M410.816,-79.9905C421.026,-80.6492 430.968,-81.2906 439.913,-81.8676"/>
<polygon fill="black" stroke="black" points="439.706,-85.3615 449.911,-82.5127 440.157,-78.3761 439.706,-85.3615"/>
</g>
<!-- module~foodie_integrator_adams_bashforth&#45;&gt;module~foodie -->
<g id="edge18" class="edge"><title>module~foodie_integrator_adams_bashforth&#45;&gt;module~foodie</title>
<path fill="none" stroke="black" stroke-dasharray="5,2" d="M385.437,-43.353C395.117,-45.9455 404.906,-48.9166 414,-52.2604 424.558,-56.1424 435.635,-61.3489 445.505,-66.4331"/>
<polygon fill="black" stroke="black" points="444.067,-69.6321 454.542,-71.2229 447.345,-63.4472 444.067,-69.6321"/>
</g>
<!-- module~type_integrand&#45;&gt;module~foodie -->
<g id="edge20" class="edge"><title>module~type_integrand&#45;&gt;module~foodie</title>
<path fill="none" stroke="black" stroke-dasharray="5,2" d="M194.315,-97.2195C246.207,-100.241 336.787,-103.548 414,-96.2604 422.432,-95.4645 431.416,-94.082 439.879,-92.5318"/>
<polygon fill="black" stroke="black" points="440.725,-95.9329 449.872,-90.5859 439.387,-89.062 440.725,-95.9329"/>
</g>
<!-- module~type_integrand&#45;&gt;module~foodie_integrator_tvd_runge_kutta -->
<g id="edge4" class="edge"><title>module~type_integrand&#45;&gt;module~foodie_integrator_tvd_runge_kutta</title>
<path fill="none" stroke="black" stroke-dasharray="5,2" d="M194.022,-89.3166C203.019,-88.2581 212.887,-87.0972 223.029,-85.9041"/>
<polygon fill="black" stroke="black" points="223.716,-89.3474 233.239,-84.7029 222.898,-82.3954 223.716,-89.3474"/>
</g>
<!-- module~type_integrand&#45;&gt;module~foodie_integrator_adams_bashforth -->
<g id="edge8" class="edge"><title>module~type_integrand&#45;&gt;module~foodie_integrator_adams_bashforth</title>
<path fill="none" stroke="black" stroke-dasharray="5,2" d="M172.812,-81.1266C188.133,-71.9439 209.738,-59.9876 230,-52.2604 235.841,-50.0331 241.978,-47.9817 248.195,-46.1033"/>
<polygon fill="black" stroke="black" points="249.351,-49.4131 257.999,-43.2933 247.422,-42.684 249.351,-49.4131"/>
</g>
<!-- module~type_integrand&#45;&gt;module~foodie_integrator_euler_explicit -->
<g id="edge14" class="edge"><title>module~type_integrand&#45;&gt;module~foodie_integrator_euler_explicit</title>
<path fill="none" stroke="black" stroke-dasharray="5,2" d="M178.698,-107.328C193.59,-114.34 212.595,-122.835 230,-129.26 240.629,-133.184 252.109,-136.93 263.236,-140.315"/>
<polygon fill="black" stroke="black" points="262.311,-143.691 272.894,-143.192 264.31,-136.982 262.311,-143.691"/>
</g>
<!-- module~foodie_integrator_euler_explicit&#45;&gt;module~foodie -->
<g id="edge22" class="edge"><title>module~foodie_integrator_euler_explicit&#45;&gt;module~foodie</title>
<path fill="none" stroke="black" stroke-dasharray="5,2" d="M377.617,-143.196C389.895,-139.424 402.624,-134.796 414,-129.26 428.062,-122.418 442.354,-112.501 453.764,-103.717"/>
<polygon fill="black" stroke="black" points="456.21,-106.243 461.875,-97.2897 451.863,-100.757 456.21,-106.243"/>
</g>
</g>
</svg>
