<?xml version="1.0" encoding="UTF-8" standalone="no"?>
<!DOCTYPE svg PUBLIC "-//W3C//DTD SVG 1.1//EN"
 "http://www.w3.org/Graphics/SVG/1.1/DTD/svg11.dtd">
<!-- Generated by graphviz version 2.26.3 (20100126.1600)
 -->
<!-- Title: program~~integrate_burgers~~CallsGraph Pages: 1 -->
<svg width="328pt" height="254pt"
 viewBox="0.00 0.00 328.00 254.00" xmlns="http://www.w3.org/2000/svg" xmlns:xlink="http://www.w3.org/1999/xlink">
<g id="graph1" class="graph" transform="scale(1 1) rotate(0) translate(4 250)">
<title>program~~integrate_burgers~~CallsGraph</title>
<polygon fill="white" stroke="white" points="-4,5 -4,-250 325,-250 325,5 -4,5"/>
<!-- program~integrate_burgers -->
<g id="node1" class="node"><title>program~integrate_burgers</title>
<polygon fill="none" stroke="black" points="97,-136 1,-136 1,-110 97,-110 97,-136"/>
<text text-anchor="middle" x="49" y="-120.55" font-family="Helvetica,sans-Serif" font-size="10.50">integrate_burgers</text>
</g>
<!-- proc~init~5 -->
<g id="node2" class="node"><title>proc~init~5</title>
<a xlink:href="../proc/init%7E5.html" xlink:title="init">
<polygon fill="#d9534f" stroke="#d9534f" points="199,-246 145,-246 145,-220 199,-220 199,-246"/>
<text text-anchor="middle" x="172" y="-230.55" font-family="Helvetica,sans-Serif" font-size="10.50" fill="white">init</text>
</a>
</g>
<!-- program~integrate_burgers&#45;&gt;proc~init~5 -->
<g id="edge22" class="edge"><title>program~integrate_burgers&#45;&gt;proc~init~5</title>
<path fill="none" stroke="black" d="M59.5701,-136.043C74.758,-154.261 104.219,-187.706 134,-211 135.531,-212.198 137.134,-213.375 138.78,-214.524"/>
<polygon fill="black" stroke="black" points="136.93,-217.496 147.225,-219.999 140.738,-211.622 136.93,-217.496"/>
</g>
<!-- proc~test_tvd_rk -->
<g id="node3" class="node"><title>proc~test_tvd_rk</title>
<a xlink:href="../proc/test_tvd_rk.html" xlink:title="test_tvd_rk">
<polygon fill="#d9534f" stroke="#d9534f" points="204,-26 140,-26 140,-1.24345e-14 204,-3.55271e-15 204,-26"/>
<text text-anchor="middle" x="172" y="-10.55" font-family="Helvetica,sans-Serif" font-size="10.50" fill="white">test_tvd_rk</text>
</a>
</g>
<!-- program~integrate_burgers&#45;&gt;proc~test_tvd_rk -->
<g id="edge24" class="edge"><title>program~integrate_burgers&#45;&gt;proc~test_tvd_rk</title>
<path fill="none" stroke="black" d="M59.5701,-109.957C74.758,-91.739 104.219,-58.2936 134,-35 135.531,-33.8024 137.134,-32.6251 138.78,-31.4759"/>
<polygon fill="black" stroke="black" points="140.738,-34.3776 147.225,-26.0009 136.93,-28.5039 140.738,-34.3776"/>
</g>
<!-- proc~test_leapfrog -->
<g id="node4" class="node"><title>proc~test_leapfrog</title>
<a xlink:href="../proc/test_leapfrog.html" xlink:title="test_leapfrog">
<polygon fill="#d9534f" stroke="#d9534f" points="209,-202 135,-202 135,-176 209,-176 209,-202"/>
<text text-anchor="middle" x="172" y="-186.55" font-family="Helvetica,sans-Serif" font-size="10.50" fill="white">test_leapfrog</text>
</a>
</g>
<!-- program~integrate_burgers&#45;&gt;proc~test_leapfrog -->
<g id="edge26" class="edge"><title>program~integrate_burgers&#45;&gt;proc~test_leapfrog</title>
<path fill="none" stroke="black" d="M73.3008,-136.039C92.0005,-146.073 118.05,-160.051 138.692,-171.127"/>
<polygon fill="black" stroke="black" points="137.283,-174.343 147.75,-175.988 140.593,-168.175 137.283,-174.343"/>
</g>
<!-- proc~test_ls_rk -->
<g id="node5" class="node"><title>proc~test_ls_rk</title>
<a xlink:href="../proc/test_ls_rk.html" xlink:title="test_ls_rk">
<polygon fill="#d9534f" stroke="#d9534f" points="201,-158 143,-158 143,-132 201,-132 201,-158"/>
<text text-anchor="middle" x="172" y="-142.55" font-family="Helvetica,sans-Serif" font-size="10.50" fill="white">test_ls_rk</text>
</a>
</g>
<!-- program~integrate_burgers&#45;&gt;proc~test_ls_rk -->
<g id="edge28" class="edge"><title>program~integrate_burgers&#45;&gt;proc~test_ls_rk</title>
<path fill="none" stroke="black" d="M97.6129,-131.695C109.335,-133.792 121.71,-136.005 132.932,-138.012"/>
<polygon fill="black" stroke="black" points="132.4,-141.473 142.86,-139.788 133.633,-134.582 132.4,-141.473"/>
</g>
<!-- proc~test_ab -->
<g id="node6" class="node"><title>proc~test_ab</title>
<a xlink:href="../proc/test_ab.html" xlink:title="test_ab">
<polygon fill="#d9534f" stroke="#d9534f" points="199,-114 145,-114 145,-88 199,-88 199,-114"/>
<text text-anchor="middle" x="172" y="-98.55" font-family="Helvetica,sans-Serif" font-size="10.50" fill="white">test_ab</text>
</a>
</g>
<!-- program~integrate_burgers&#45;&gt;proc~test_ab -->
<g id="edge30" class="edge"><title>program~integrate_burgers&#45;&gt;proc~test_ab</title>
<path fill="none" stroke="black" d="M97.6129,-114.305C110.078,-112.076 123.282,-109.714 135.051,-107.609"/>
<polygon fill="black" stroke="black" points="135.742,-111.041 144.969,-105.835 134.509,-104.15 135.742,-111.041"/>
</g>
<!-- proc~test_euler -->
<g id="node7" class="node"><title>proc~test_euler</title>
<a xlink:href="../proc/test_euler.html" xlink:title="test_euler">
<polygon fill="#d9534f" stroke="#d9534f" points="202,-70 142,-70 142,-44 202,-44 202,-70"/>
<text text-anchor="middle" x="172" y="-54.55" font-family="Helvetica,sans-Serif" font-size="10.50" fill="white">test_euler</text>
</a>
</g>
<!-- program~integrate_burgers&#45;&gt;proc~test_euler -->
<g id="edge32" class="edge"><title>program~integrate_burgers&#45;&gt;proc~test_euler</title>
<path fill="none" stroke="black" d="M73.3008,-109.961C92.0005,-99.9266 118.05,-85.9489 138.692,-74.8727"/>
<polygon fill="black" stroke="black" points="140.593,-77.8247 147.75,-70.0124 137.283,-71.6566 140.593,-77.8247"/>
</g>
<!-- str -->
<g id="node8" class="node"><title>str</title>
<polygon fill="#777777" stroke="#777777" points="310,-136 256,-136 256,-110 310,-110 310,-136"/>
<text text-anchor="middle" x="283" y="-120.55" font-family="Helvetica,sans-Serif" font-size="10.50" fill="white">str</text>
</g>
<!-- proc~test_tvd_rk&#45;&gt;str -->
<g id="edge2" class="edge"><title>proc~test_tvd_rk&#45;&gt;str</title>
<path fill="none" stroke="black" d="M199.102,-26.1816C203.024,-28.7765 206.807,-31.7249 210,-35 233.324,-58.9254 222.815,-76.9392 246,-101 246.904,-101.938 247.857,-102.851 248.847,-103.737"/>
<polygon fill="black" stroke="black" points="246.935,-106.681 256.998,-109.995 251.198,-101.129 246.935,-106.681"/>
</g>
<!-- proc~save_results -->
<g id="node9" class="node"><title>proc~save_results</title>
<a xlink:href="../proc/save_results.html" xlink:title="save_results">
<polygon fill="#d9534f" stroke="#d9534f" points="319,-92 247,-92 247,-66 319,-66 319,-92"/>
<text text-anchor="middle" x="283" y="-76.55" font-family="Helvetica,sans-Serif" font-size="10.50" fill="white">save_results</text>
</a>
</g>
<!-- proc~test_tvd_rk&#45;&gt;proc~save_results -->
<g id="edge4" class="edge"><title>proc~test_tvd_rk&#45;&gt;proc~save_results</title>
<path fill="none" stroke="black" d="M194.946,-26.1972C199.919,-29.0819 205.143,-32.1307 210,-35 224.078,-43.3172 239.604,-52.6521 252.704,-60.5765"/>
<polygon fill="black" stroke="black" points="250.973,-63.6195 261.339,-65.8075 254.6,-57.6324 250.973,-63.6195"/>
</g>
<!-- proc~test_leapfrog&#45;&gt;str -->
<g id="edge8" class="edge"><title>proc~test_leapfrog&#45;&gt;str</title>
<path fill="none" stroke="black" d="M194.946,-175.803C199.919,-172.918 205.143,-169.869 210,-167 224.078,-158.683 239.604,-149.348 252.704,-141.423"/>
<polygon fill="black" stroke="black" points="254.6,-144.368 261.339,-136.192 250.973,-138.381 254.6,-144.368"/>
</g>
<!-- proc~test_leapfrog&#45;&gt;proc~save_results -->
<g id="edge6" class="edge"><title>proc~test_leapfrog&#45;&gt;proc~save_results</title>
<path fill="none" stroke="black" d="M199.102,-175.818C203.024,-173.223 206.807,-170.275 210,-167 233.324,-143.075 222.815,-125.061 246,-101 246.904,-100.062 247.857,-99.149 248.847,-98.2629"/>
<polygon fill="black" stroke="black" points="251.198,-100.871 256.998,-92.0055 246.935,-95.3186 251.198,-100.871"/>
</g>
<!-- proc~test_ls_rk&#45;&gt;str -->
<g id="edge10" class="edge"><title>proc~test_ls_rk&#45;&gt;str</title>
<path fill="none" stroke="black" d="M201.164,-139.22C214.809,-136.515 231.22,-133.263 245.752,-130.382"/>
<polygon fill="black" stroke="black" points="246.806,-133.742 255.935,-128.364 245.445,-126.875 246.806,-133.742"/>
</g>
<!-- proc~test_ls_rk&#45;&gt;proc~save_results -->
<g id="edge12" class="edge"><title>proc~test_ls_rk&#45;&gt;proc~save_results</title>
<path fill="none" stroke="black" d="M194.959,-131.825C199.932,-128.939 205.152,-125.884 210,-123 226.115,-113.413 229.941,-110.681 246,-101 247.924,-99.8401 249.907,-98.6492 251.907,-97.4507"/>
<polygon fill="black" stroke="black" points="253.878,-100.351 260.669,-92.2188 250.289,-94.3405 253.878,-100.351"/>
</g>
<!-- proc~test_ab&#45;&gt;str -->
<g id="edge14" class="edge"><title>proc~test_ab&#45;&gt;str</title>
<path fill="none" stroke="black" d="M199.154,-106.382C213.129,-109.152 230.383,-112.571 245.599,-115.587"/>
<polygon fill="black" stroke="black" points="245.252,-119.086 255.742,-117.598 246.613,-112.22 245.252,-119.086"/>
</g>
<!-- proc~test_ab&#45;&gt;proc~save_results -->
<g id="edge16" class="edge"><title>proc~test_ab&#45;&gt;proc~save_results</title>
<path fill="none" stroke="black" d="M199.154,-95.6182C210.397,-93.3899 223.761,-90.7411 236.479,-88.2203"/>
<polygon fill="black" stroke="black" points="237.359,-91.6142 246.487,-86.2367 235.998,-84.7477 237.359,-91.6142"/>
</g>
<!-- proc~test_euler&#45;&gt;str -->
<g id="edge20" class="edge"><title>proc~test_euler&#45;&gt;str</title>
<path fill="none" stroke="black" d="M194.959,-70.1747C199.932,-73.0608 205.152,-76.1158 210,-79 226.115,-88.5871 229.941,-91.3193 246,-101 247.924,-102.16 249.907,-103.351 251.907,-104.549"/>
<polygon fill="black" stroke="black" points="250.289,-107.66 260.669,-109.781 253.878,-101.649 250.289,-107.66"/>
</g>
<!-- proc~test_euler&#45;&gt;proc~save_results -->
<g id="edge18" class="edge"><title>proc~test_euler&#45;&gt;proc~save_results</title>
<path fill="none" stroke="black" d="M202.038,-62.9535C212.566,-65.0401 224.654,-67.4359 236.224,-69.729"/>
<polygon fill="black" stroke="black" points="235.715,-73.1962 246.205,-71.7073 237.076,-66.3298 235.715,-73.1962"/>
</g>
</g>
</svg>
