<?xml version="1.0" encoding="UTF-8" standalone="no"?>
<!DOCTYPE svg PUBLIC "-//W3C//DTD SVG 1.1//EN"
 "http://www.w3.org/Graphics/SVG/1.1/DTD/svg11.dtd">
<!-- Generated by graphviz version 2.26.3 (20100126.1600)
 -->
<!-- Title: program~~integrate_euler_1d_openmp~~UsesGraph Pages: 1 -->
<svg width="641pt" height="243pt"
 viewBox="0.00 0.00 641.00 243.45" xmlns="http://www.w3.org/2000/svg" xmlns:xlink="http://www.w3.org/1999/xlink">
<g id="graph1" class="graph" transform="scale(0.663561 0.663561) rotate(0) translate(4 362.883)">
<title>program~~integrate_euler_1d_openmp~~UsesGraph</title>
<polygon fill="white" stroke="white" points="-4,5 -4,-362.883 963,-362.883 963,5 -4,5"/>
<!-- program~integrate_euler_1d_openmp -->
<g id="node1" class="node"><title>program~integrate_euler_1d_openmp</title>
<polygon fill="none" stroke="black" points="957,-172 809,-172 809,-146 957,-146 957,-172"/>
<text text-anchor="middle" x="883" y="-156.55" font-family="Helvetica,sans-Serif" font-size="10.50">integrate_euler_1D_openmp</text>
</g>
<!-- IR_Precision -->
<g id="node2" class="node"><title>IR_Precision</title>
<polygon fill="#337ab7" stroke="#337ab7" points="73,-213 1,-213 1,-187 73,-187 73,-213"/>
<text text-anchor="middle" x="37" y="-197.55" font-family="Helvetica,sans-Serif" font-size="10.50" fill="white">IR_Precision</text>
</g>
<!-- IR_Precision&#45;&gt;program~integrate_euler_1d_openmp -->
<g id="edge42" class="edge"><title>IR_Precision&#45;&gt;program~integrate_euler_1d_openmp</title>
<path fill="none" stroke="black" stroke-dasharray="5,2" d="M152,-309C415.124,-395.933 523.361,-365.351 772,-243 806.417,-226.064 840.826,-197.838 862.007,-178.833"/>
<polygon fill="black" stroke="black" points="864.42,-181.368 869.449,-172.043 859.703,-176.197 864.42,-181.368"/>
</g>
<!-- module~type_euler_1d_openmp -->
<g id="node6" class="node"><title>module~type_euler_1d_openmp</title>
<a xlink:href="../module/type_euler_1d_openmp.html" xlink:title="type_euler_1D_openmp">
<polygon fill="#337ab7" stroke="#337ab7" points="737,-108 611,-108 611,-82 737,-82 737,-108"/>
<text text-anchor="middle" x="674" y="-92.55" font-family="Helvetica,sans-Serif" font-size="10.50" fill="white">type_euler_1D_openmp</text>
</a>
</g>
<!-- IR_Precision&#45;&gt;module~type_euler_1d_openmp -->
<g id="edge38" class="edge"><title>IR_Precision&#45;&gt;module~type_euler_1d_openmp</title>
<path fill="none" stroke="black" stroke-dasharray="5,2" d="M46.156,-186.716C63.5116,-162.866 103.807,-113.544 152,-95"/>
<path fill="none" stroke="black" stroke-dasharray="5,2" d="M152,-95C305.68,-35.865 504.172,-60.6737 606.446,-80.0559"/>
<polygon fill="black" stroke="black" points="605.855,-83.5063 616.338,-81.9708 607.185,-76.6339 605.855,-83.5063"/>
</g>
<!-- module~foodie_integrator_adams_bashforth -->
<g id="node8" class="node"><title>module~foodie_integrator_adams_bashforth</title>
<a xlink:href="../module/foodie_integrator_adams_bashforth.html" xlink:title="foodie_integrator_adams_bashforth">
<polygon fill="#337ab7" stroke="#337ab7" points="431,-278 249,-278 249,-252 431,-252 431,-278"/>
<text text-anchor="middle" x="340" y="-262.55" font-family="Helvetica,sans-Serif" font-size="10.50" fill="white">foodie_integrator_adams_bashforth</text>
</a>
</g>
<!-- IR_Precision&#45;&gt;module~foodie_integrator_adams_bashforth -->
<g id="edge4" class="edge"><title>IR_Precision&#45;&gt;module~foodie_integrator_adams_bashforth</title>
<path fill="none" stroke="black" stroke-dasharray="5,2" d="M152,-309C186.201,-320.3 194.981,-295.427 230,-287 239.901,-284.617 250.346,-282.29 260.701,-280.095"/>
<polygon fill="black" stroke="black" points="261.506,-283.503 270.58,-278.034 260.076,-276.651 261.506,-283.503"/>
</g>
<!-- module~foodie_integrator_euler_explicit -->
<g id="node9" class="node"><title>module~foodie_integrator_euler_explicit</title>
<a xlink:href="../module/foodie_integrator_euler_explicit.html" xlink:title="foodie_integrator_euler_explicit">
<polygon fill="#337ab7" stroke="#337ab7" points="421,-234 259,-234 259,-208 421,-208 421,-234"/>
<text text-anchor="middle" x="340" y="-218.55" font-family="Helvetica,sans-Serif" font-size="10.50" fill="white">foodie_integrator_euler_explicit</text>
</a>
</g>
<!-- IR_Precision&#45;&gt;module~foodie_integrator_euler_explicit -->
<g id="edge8" class="edge"><title>IR_Precision&#45;&gt;module~foodie_integrator_euler_explicit</title>
<path fill="none" stroke="black" stroke-dasharray="5,2" d="M45.0521,-213.137C61.4134,-238.294 101.328,-292.258 152,-309"/>
<path fill="none" stroke="black" stroke-dasharray="5,2" d="M152,-309C195.119,-323.246 189.106,-262.745 230,-243 236.068,-240.07 242.506,-237.53 249.102,-235.328"/>
<polygon fill="black" stroke="black" points="250.32,-238.616 258.855,-232.338 248.268,-231.923 250.32,-238.616"/>
</g>
<!-- module~foodie_integrator_leapfrog -->
<g id="node10" class="node"><title>module~foodie_integrator_leapfrog</title>
<a xlink:href="../module/foodie_integrator_leapfrog.html" xlink:title="foodie_integrator_leapfrog">
<polygon fill="#337ab7" stroke="#337ab7" points="409,-152 271,-152 271,-126 409,-126 409,-152"/>
<text text-anchor="middle" x="340" y="-136.55" font-family="Helvetica,sans-Serif" font-size="10.50" fill="white">foodie_integrator_leapfrog</text>
</a>
</g>
<!-- IR_Precision&#45;&gt;module~foodie_integrator_leapfrog -->
<g id="edge12" class="edge"><title>IR_Precision&#45;&gt;module~foodie_integrator_leapfrog</title>
<path fill="none" stroke="black" stroke-dasharray="5,2" d="M152,-95C185.616,-82.0647 194.981,-108.573 230,-117 239.901,-119.383 250.346,-121.71 260.701,-123.905"/>
<polygon fill="black" stroke="black" points="260.076,-127.349 270.58,-125.966 261.506,-120.497 260.076,-127.349"/>
</g>
<!-- module~foodie_integrator_low_storage_runge_kutta -->
<g id="node11" class="node"><title>module~foodie_integrator_low_storage_runge_kutta</title>
<a xlink:href="../module/foodie_integrator_low_storage_runge_kutta.html" xlink:title="foodie_integrator_low_storage_runge_kutta">
<polygon fill="#337ab7" stroke="#337ab7" points="450,-108 230,-108 230,-82 450,-82 450,-108"/>
<text text-anchor="middle" x="340" y="-92.55" font-family="Helvetica,sans-Serif" font-size="10.50" fill="white">foodie_integrator_low_storage_runge_kutta</text>
</a>
</g>
<!-- IR_Precision&#45;&gt;module~foodie_integrator_low_storage_runge_kutta -->
<g id="edge16" class="edge"><title>IR_Precision&#45;&gt;module~foodie_integrator_low_storage_runge_kutta</title>
<path fill="none" stroke="black" stroke-dasharray="5,2" d="M152,-95C179.521,-84.41 211.033,-81.2949 240.29,-81.6975"/>
<polygon fill="black" stroke="black" points="240.442,-85.203 250.535,-81.9802 240.635,-78.2056 240.442,-85.203"/>
</g>
<!-- module~foodie_integrator_tvd_runge_kutta -->
<g id="node12" class="node"><title>module~foodie_integrator_tvd_runge_kutta</title>
<a xlink:href="../module/foodie_integrator_tvd_runge_kutta.html" xlink:title="foodie_integrator_tvd_runge_kutta">
<polygon fill="#337ab7" stroke="#337ab7" points="428,-322 252,-322 252,-296 428,-296 428,-322"/>
<text text-anchor="middle" x="340" y="-306.55" font-family="Helvetica,sans-Serif" font-size="10.50" fill="white">foodie_integrator_tvd_runge_kutta</text>
</a>
</g>
<!-- IR_Precision&#45;&gt;module~foodie_integrator_tvd_runge_kutta -->
<g id="edge20" class="edge"><title>IR_Precision&#45;&gt;module~foodie_integrator_tvd_runge_kutta</title>
<path fill="none" stroke="black" stroke-dasharray="5,2" d="M152,-309C180,-318.251 211.652,-320.972 240.892,-320.62"/>
<polygon fill="black" stroke="black" points="241.211,-324.114 251.123,-320.373 241.042,-317.116 241.211,-324.114"/>
</g>
<!-- module~type_integrand -->
<g id="node13" class="node"><title>module~type_integrand</title>
<a xlink:href="../module/type_integrand.html" xlink:title="type_integrand">
<polygon fill="#337ab7" stroke="#337ab7" points="194,-213 110,-213 110,-187 194,-187 194,-213"/>
<text text-anchor="middle" x="152" y="-197.55" font-family="Helvetica,sans-Serif" font-size="10.50" fill="white">type_integrand</text>
</a>
</g>
<!-- IR_Precision&#45;&gt;module~type_integrand -->
<g id="edge22" class="edge"><title>IR_Precision&#45;&gt;module~type_integrand</title>
<path fill="none" stroke="black" stroke-dasharray="5,2" d="M73.7029,-200C81.9237,-200 90.8,-200 99.521,-200"/>
<polygon fill="black" stroke="black" points="99.6389,-203.5 109.639,-200 99.6388,-196.5 99.6389,-203.5"/>
</g>
<!-- Data_Type_Command_Line_Interface -->
<g id="node3" class="node"><title>Data_Type_Command_Line_Interface</title>
<polygon fill="#337ab7" stroke="#337ab7" points="771,-234 577,-234 577,-208 771,-208 771,-234"/>
<text text-anchor="middle" x="674" y="-218.55" font-family="Helvetica,sans-Serif" font-size="10.50" fill="white">Data_Type_Command_Line_Interface</text>
</g>
<!-- Data_Type_Command_Line_Interface&#45;&gt;program~integrate_euler_1d_openmp -->
<g id="edge44" class="edge"><title>Data_Type_Command_Line_Interface&#45;&gt;program~integrate_euler_1d_openmp</title>
<path fill="none" stroke="black" stroke-dasharray="5,2" d="M722.701,-207.96C738.466,-203.639 756.006,-198.723 772,-194 792.05,-188.079 814.025,-181.227 833.093,-175.164"/>
<polygon fill="black" stroke="black" points="834.312,-178.449 842.774,-172.074 832.183,-171.78 834.312,-178.449"/>
</g>
<!-- module~foodie -->
<g id="node4" class="node"><title>module~foodie</title>
<a xlink:href="../module/foodie.html" xlink:title="foodie">
<polygon fill="#337ab7" stroke="#337ab7" points="540,-193 486,-193 486,-167 540,-167 540,-193"/>
<text text-anchor="middle" x="513" y="-177.55" font-family="Helvetica,sans-Serif" font-size="10.50" fill="white">foodie</text>
</a>
</g>
<!-- module~foodie&#45;&gt;program~integrate_euler_1d_openmp -->
<g id="edge46" class="edge"><title>module~foodie&#45;&gt;program~integrate_euler_1d_openmp</title>
<path fill="none" stroke="black" stroke-dasharray="5,2" d="M540.207,-178.456C593.876,-175.41 715.361,-168.515 798.299,-163.807"/>
<polygon fill="black" stroke="black" points="798.682,-167.291 808.468,-163.23 798.285,-160.303 798.682,-167.291"/>
</g>
<!-- module~foodie&#45;&gt;module~type_euler_1d_openmp -->
<g id="edge40" class="edge"><title>module~foodie&#45;&gt;module~type_euler_1d_openmp</title>
<path fill="none" stroke="black" stroke-dasharray="5,2" d="M522.343,-166.967C533.455,-152.47 553.369,-129.455 576,-117 583.659,-112.785 592.076,-109.377 600.661,-106.622"/>
<polygon fill="black" stroke="black" points="601.775,-109.943 610.394,-103.781 599.814,-103.224 601.775,-109.943"/>
</g>
<!-- pyplot_module -->
<g id="node5" class="node"><title>pyplot_module</title>
<polygon fill="#337ab7" stroke="#337ab7" points="715,-152 633,-152 633,-126 715,-126 715,-152"/>
<text text-anchor="middle" x="674" y="-136.55" font-family="Helvetica,sans-Serif" font-size="10.50" fill="white">pyplot_module</text>
</g>
<!-- pyplot_module&#45;&gt;program~integrate_euler_1d_openmp -->
<g id="edge48" class="edge"><title>pyplot_module&#45;&gt;program~integrate_euler_1d_openmp</title>
<path fill="none" stroke="black" stroke-dasharray="5,2" d="M715.292,-142.951C739.022,-145.222 769.719,-148.16 798.352,-150.9"/>
<polygon fill="black" stroke="black" points="798.09,-154.391 808.378,-151.859 798.757,-147.422 798.09,-154.391"/>
</g>
<!-- module~type_euler_1d_openmp&#45;&gt;program~integrate_euler_1d_openmp -->
<g id="edge50" class="edge"><title>module~type_euler_1d_openmp&#45;&gt;program~integrate_euler_1d_openmp</title>
<path fill="none" stroke="black" stroke-dasharray="5,2" d="M737.6,-107.906C749.123,-110.632 760.976,-113.695 772,-117 795.683,-124.1 821.552,-133.772 842.354,-142.045"/>
<polygon fill="black" stroke="black" points="841.244,-145.371 851.827,-145.854 843.855,-138.876 841.244,-145.371"/>
</g>
<!-- omp_lib -->
<g id="node7" class="node"><title>omp_lib</title>
<a xlink:href="https://gcc.gnu.org/onlinedocs/gcc-4.4.3/libgomp/Runtime-Library-Routines.html" xlink:title="omp_lib">
<polygon fill="#337ab7" stroke="#337ab7" points="701,-64 647,-64 647,-38 701,-38 701,-64"/>
<text text-anchor="middle" x="674" y="-48.55" font-family="Helvetica,sans-Serif" font-size="10.50" fill="white">omp_lib</text>
</a>
</g>
<!-- omp_lib&#45;&gt;program~integrate_euler_1d_openmp -->
<g id="edge52" class="edge"><title>omp_lib&#45;&gt;program~integrate_euler_1d_openmp</title>
<path fill="none" stroke="black" stroke-dasharray="5,2" d="M701.239,-53.8671C721.505,-56.7591 749.44,-62.3791 772,-73 807.204,-89.5731 841.658,-118.91 862.613,-138.653"/>
<polygon fill="black" stroke="black" points="860.319,-141.303 869.957,-145.703 865.167,-136.253 860.319,-141.303"/>
</g>
<!-- module~foodie_integrator_adams_bashforth&#45;&gt;module~foodie -->
<g id="edge24" class="edge"><title>module~foodie_integrator_adams_bashforth&#45;&gt;module~foodie</title>
<path fill="none" stroke="black" stroke-dasharray="5,2" d="M429.253,-251.907C436.463,-249.432 443.475,-246.492 450,-243 468.861,-232.906 485.729,-215.332 497.254,-201.306"/>
<polygon fill="black" stroke="black" points="500.26,-203.147 503.709,-193.129 494.765,-198.809 500.26,-203.147"/>
</g>
<!-- module~foodie_integrator_euler_explicit&#45;&gt;module~foodie -->
<g id="edge26" class="edge"><title>module~foodie_integrator_euler_explicit&#45;&gt;module~foodie</title>
<path fill="none" stroke="black" stroke-dasharray="5,2" d="M395.214,-207.915C421.572,-201.668 452.41,-194.359 475.919,-188.788"/>
<polygon fill="black" stroke="black" points="476.913,-192.149 485.836,-186.438 475.299,-185.338 476.913,-192.149"/>
</g>
<!-- module~foodie_integrator_leapfrog&#45;&gt;module~foodie -->
<g id="edge28" class="edge"><title>module~foodie_integrator_leapfrog&#45;&gt;module~foodie</title>
<path fill="none" stroke="black" stroke-dasharray="5,2" d="M395.214,-152.085C421.572,-158.332 452.41,-165.641 475.919,-171.212"/>
<polygon fill="black" stroke="black" points="475.299,-174.662 485.836,-173.562 476.913,-167.851 475.299,-174.662"/>
</g>
<!-- module~foodie_integrator_low_storage_runge_kutta&#45;&gt;module~foodie -->
<g id="edge30" class="edge"><title>module~foodie_integrator_low_storage_runge_kutta&#45;&gt;module~foodie</title>
<path fill="none" stroke="black" stroke-dasharray="5,2" d="M429.253,-108.093C436.463,-110.568 443.475,-113.508 450,-117 468.861,-127.094 485.729,-144.668 497.254,-158.694"/>
<polygon fill="black" stroke="black" points="494.765,-161.191 503.709,-166.871 500.26,-156.853 494.765,-161.191"/>
</g>
<!-- module~foodie_integrator_tvd_runge_kutta&#45;&gt;module~foodie -->
<g id="edge32" class="edge"><title>module~foodie_integrator_tvd_runge_kutta&#45;&gt;module~foodie</title>
<path fill="none" stroke="black" stroke-dasharray="5,2" d="M428.668,-298.302C436.247,-295.336 443.492,-291.627 450,-287 479.056,-266.343 496.862,-227.723 505.828,-202.968"/>
<polygon fill="black" stroke="black" points="509.21,-203.895 509.137,-193.3 502.587,-201.628 509.21,-203.895"/>
</g>
<!-- module~type_integrand&#45;&gt;module~foodie -->
<g id="edge34" class="edge"><title>module~type_integrand&#45;&gt;module~foodie</title>
<path fill="none" stroke="black" stroke-dasharray="5,2" d="M194.118,-197.667C265.266,-193.725 408.104,-185.811 475.792,-182.061"/>
<polygon fill="black" stroke="black" points="476.196,-185.544 485.987,-181.497 475.809,-178.555 476.196,-185.544"/>
</g>
<!-- module~type_integrand&#45;&gt;module~foodie_integrator_adams_bashforth -->
<g id="edge2" class="edge"><title>module~type_integrand&#45;&gt;module~foodie_integrator_adams_bashforth</title>
<path fill="none" stroke="black" stroke-dasharray="5,2" d="M171.717,-213.098C187.022,-222.702 209.088,-235.352 230,-243 236.39,-245.337 243.085,-247.446 249.882,-249.345"/>
<polygon fill="black" stroke="black" points="249.329,-252.819 259.891,-251.981 251.112,-246.05 249.329,-252.819"/>
</g>
<!-- module~type_integrand&#45;&gt;module~foodie_integrator_euler_explicit -->
<g id="edge6" class="edge"><title>module~type_integrand&#45;&gt;module~foodie_integrator_euler_explicit</title>
<path fill="none" stroke="black" stroke-dasharray="5,2" d="M194.191,-204.713C210.416,-206.525 229.636,-208.672 248.708,-210.802"/>
<polygon fill="black" stroke="black" points="248.324,-214.281 258.651,-211.913 249.101,-207.325 248.324,-214.281"/>
</g>
<!-- module~type_integrand&#45;&gt;module~foodie_integrator_leapfrog -->
<g id="edge10" class="edge"><title>module~type_integrand&#45;&gt;module~foodie_integrator_leapfrog</title>
<path fill="none" stroke="black" stroke-dasharray="5,2" d="M178.986,-186.881C193.804,-180.025 212.646,-171.864 230,-166 242.47,-161.786 255.939,-157.93 269.033,-154.532"/>
<polygon fill="black" stroke="black" points="270.112,-157.87 278.95,-152.025 268.397,-151.083 270.112,-157.87"/>
</g>
<!-- module~type_integrand&#45;&gt;module~foodie_integrator_low_storage_runge_kutta -->
<g id="edge14" class="edge"><title>module~type_integrand&#45;&gt;module~foodie_integrator_low_storage_runge_kutta</title>
<path fill="none" stroke="black" stroke-dasharray="5,2" d="M160.314,-186.967C172.962,-168.294 198.883,-134.28 230,-117 233.445,-115.087 237.033,-113.339 240.719,-111.741"/>
<polygon fill="black" stroke="black" points="242.031,-114.986 250.06,-108.074 239.473,-108.471 242.031,-114.986"/>
</g>
<!-- module~type_integrand&#45;&gt;module~foodie_integrator_tvd_runge_kutta -->
<g id="edge18" class="edge"><title>module~type_integrand&#45;&gt;module~foodie_integrator_tvd_runge_kutta</title>
<path fill="none" stroke="black" stroke-dasharray="5,2" d="M159.747,-213.018C172.039,-232.447 197.935,-268.699 230,-287 233.758,-289.145 237.693,-291.083 241.744,-292.835"/>
<polygon fill="black" stroke="black" points="240.795,-296.221 251.384,-296.592 243.337,-289.699 240.795,-296.221"/>
</g>
<!-- wenoof -->
<g id="node31" class="node"><title>wenoof</title>
<polygon fill="#337ab7" stroke="#337ab7" points="540,-26 486,-26 486,-1.24345e-14 540,-3.55271e-15 540,-26"/>
<text text-anchor="middle" x="513" y="-10.55" font-family="Helvetica,sans-Serif" font-size="10.50" fill="white">wenoof</text>
</g>
<!-- wenoof&#45;&gt;module~type_euler_1d_openmp -->
<g id="edge36" class="edge"><title>wenoof&#45;&gt;module~type_euler_1d_openmp</title>
<path fill="none" stroke="black" stroke-dasharray="5,2" d="M526.18,-26.2835C542.872,-42.9906 570.172,-69.8847 576,-73 583.654,-77.0914 592.035,-80.4234 600.573,-83.1368"/>
<polygon fill="black" stroke="black" points="599.668,-86.5186 610.247,-85.9448 601.619,-79.796 599.668,-86.5186"/>
</g>
</g>
</svg>
