<?xml version="1.0" encoding="UTF-8" standalone="no"?>
<!DOCTYPE svg PUBLIC "-//W3C//DTD SVG 1.1//EN"
 "http://www.w3.org/Graphics/SVG/1.1/DTD/svg11.dtd">
<!-- Generated by graphviz version 2.26.3 (20100126.1600)
 -->
<!-- Title: program~~integrate_euler_1d~~UsesGraph Pages: 1 -->
<svg width="641pt" height="197pt"
 viewBox="0.00 0.00 641.00 197.10" xmlns="http://www.w3.org/2000/svg" xmlns:xlink="http://www.w3.org/1999/xlink">
<g id="graph1" class="graph" transform="scale(0.696739 0.696739) rotate(0) translate(4 278.884)">
<title>program~~integrate_euler_1d~~UsesGraph</title>
<polygon fill="white" stroke="white" points="-4,5 -4,-278.884 917,-278.884 917,5 -4,5"/>
<!-- program~integrate_euler_1d -->
<g id="node1" class="node"><title>program~integrate_euler_1d</title>
<polygon fill="none" stroke="black" points="912,-188 808,-188 808,-162 912,-162 912,-188"/>
<text text-anchor="middle" x="860" y="-172.55" font-family="Helvetica,sans-Serif" font-size="10.50">integrate_euler_1D</text>
</g>
<!-- module~foodie -->
<g id="node2" class="node"><title>module~foodie</title>
<a xlink:href="../module/foodie.html" xlink:title="foodie">
<polygon fill="#337ab7" stroke="#337ab7" points="540,-163 486,-163 486,-137 540,-137 540,-163"/>
<text text-anchor="middle" x="513" y="-147.55" font-family="Helvetica,sans-Serif" font-size="10.50" fill="white">foodie</text>
</a>
</g>
<!-- module~foodie&#45;&gt;program~integrate_euler_1d -->
<g id="edge42" class="edge"><title>module~foodie&#45;&gt;program~integrate_euler_1d</title>
<path fill="none" stroke="black" stroke-dasharray="5,2" d="M540.274,-152.766C551.354,-153.846 564.282,-155.05 576,-156 652.318,-162.186 740.292,-167.844 797.854,-171.347"/>
<polygon fill="black" stroke="black" points="797.691,-174.844 807.884,-171.955 798.114,-167.856 797.691,-174.844"/>
</g>
<!-- module~type_euler_1d -->
<g id="node6" class="node"><title>module~type_euler_1d</title>
<a xlink:href="../module/type_euler_1d.html" xlink:title="type_euler_1D">
<polygon fill="#337ab7" stroke="#337ab7" points="715,-229 633,-229 633,-203 715,-203 715,-229"/>
<text text-anchor="middle" x="674" y="-213.55" font-family="Helvetica,sans-Serif" font-size="10.50" fill="white">type_euler_1D</text>
</a>
</g>
<!-- module~foodie&#45;&gt;module~type_euler_1d -->
<g id="edge40" class="edge"><title>module~foodie&#45;&gt;module~type_euler_1d</title>
<path fill="none" stroke="black" stroke-dasharray="5,2" d="M530.982,-163.061C543.188,-171.432 559.966,-182.001 576,-189 590.727,-195.429 607.376,-200.7 622.716,-204.824"/>
<polygon fill="black" stroke="black" points="622.017,-208.258 632.575,-207.369 623.767,-201.48 622.017,-208.258"/>
</g>
<!-- pyplot_module -->
<g id="node3" class="node"><title>pyplot_module</title>
<polygon fill="#337ab7" stroke="#337ab7" points="715,-147 633,-147 633,-121 715,-121 715,-147"/>
<text text-anchor="middle" x="674" y="-131.55" font-family="Helvetica,sans-Serif" font-size="10.50" fill="white">pyplot_module</text>
</g>
<!-- pyplot_module&#45;&gt;program~integrate_euler_1d -->
<g id="edge44" class="edge"><title>pyplot_module&#45;&gt;program~integrate_euler_1d</title>
<path fill="none" stroke="black" stroke-dasharray="5,2" d="M715.279,-143.099C739.586,-148.457 770.804,-155.338 798.019,-161.338"/>
<polygon fill="black" stroke="black" points="797.326,-164.769 807.845,-163.503 798.832,-157.933 797.326,-164.769"/>
</g>
<!-- Data_Type_Command_Line_Interface -->
<g id="node4" class="node"><title>Data_Type_Command_Line_Interface</title>
<polygon fill="#337ab7" stroke="#337ab7" points="771,-103 577,-103 577,-77 771,-77 771,-103"/>
<text text-anchor="middle" x="674" y="-87.55" font-family="Helvetica,sans-Serif" font-size="10.50" fill="white">Data_Type_Command_Line_Interface</text>
</g>
<!-- Data_Type_Command_Line_Interface&#45;&gt;program~integrate_euler_1d -->
<g id="edge46" class="edge"><title>Data_Type_Command_Line_Interface&#45;&gt;program~integrate_euler_1d</title>
<path fill="none" stroke="black" stroke-dasharray="5,2" d="M747.308,-103.04C755.799,-105.546 764.202,-108.508 772,-112 796.463,-122.956 820.988,-141.265 837.91,-155.33"/>
<polygon fill="black" stroke="black" points="835.687,-158.033 845.573,-161.842 840.22,-152.699 835.687,-158.033"/>
</g>
<!-- IR_Precision -->
<g id="node5" class="node"><title>IR_Precision</title>
<polygon fill="#337ab7" stroke="#337ab7" points="73,-131 1,-131 1,-105 73,-105 73,-131"/>
<text text-anchor="middle" x="37" y="-115.55" font-family="Helvetica,sans-Serif" font-size="10.50" fill="white">IR_Precision</text>
</g>
<!-- IR_Precision&#45;&gt;program~integrate_euler_1d -->
<g id="edge48" class="edge"><title>IR_Precision&#45;&gt;program~integrate_euler_1d</title>
<path fill="none" stroke="black" stroke-dasharray="5,2" d="M513,-268C628.631,-260.403 663.891,-279.723 772,-238 797.308,-228.233 822.059,-209.445 838.832,-194.917"/>
<polygon fill="black" stroke="black" points="841.251,-197.45 846.393,-188.186 836.597,-192.222 841.251,-197.45"/>
</g>
<!-- IR_Precision&#45;&gt;module~type_euler_1d -->
<g id="edge38" class="edge"><title>IR_Precision&#45;&gt;module~type_euler_1d</title>
<path fill="none" stroke="black" stroke-dasharray="5,2" d="M152,-227C305.324,-277.656 352.041,-280.913 513,-268"/>
<path fill="none" stroke="black" stroke-dasharray="5,2" d="M513,-268C535.967,-266.491 591.152,-247.342 630.5,-232.716"/>
<polygon fill="black" stroke="black" points="631.996,-235.893 640.134,-229.108 629.542,-229.337 631.996,-235.893"/>
</g>
<!-- module~foodie_integrator_low_storage_runge_kutta -->
<g id="node7" class="node"><title>module~foodie_integrator_low_storage_runge_kutta</title>
<a xlink:href="../module/foodie_integrator_low_storage_runge_kutta.html" xlink:title="foodie_integrator_low_storage_runge_kutta">
<polygon fill="#337ab7" stroke="#337ab7" points="450,-196 230,-196 230,-170 450,-170 450,-196"/>
<text text-anchor="middle" x="340" y="-180.55" font-family="Helvetica,sans-Serif" font-size="10.50" fill="white">foodie_integrator_low_storage_runge_kutta</text>
</a>
</g>
<!-- IR_Precision&#45;&gt;module~foodie_integrator_low_storage_runge_kutta -->
<g id="edge4" class="edge"><title>IR_Precision&#45;&gt;module~foodie_integrator_low_storage_runge_kutta</title>
<path fill="none" stroke="black" stroke-dasharray="5,2" d="M152,-227C186.201,-238.3 194.981,-213.427 230,-205 239.901,-202.617 250.346,-200.29 260.701,-198.095"/>
<polygon fill="black" stroke="black" points="261.506,-201.503 270.58,-196.034 260.076,-194.651 261.506,-201.503"/>
</g>
<!-- module~foodie_integrator_tvd_runge_kutta -->
<g id="node8" class="node"><title>module~foodie_integrator_tvd_runge_kutta</title>
<a xlink:href="../module/foodie_integrator_tvd_runge_kutta.html" xlink:title="foodie_integrator_tvd_runge_kutta">
<polygon fill="#337ab7" stroke="#337ab7" points="428,-152 252,-152 252,-126 428,-126 428,-152"/>
<text text-anchor="middle" x="340" y="-136.55" font-family="Helvetica,sans-Serif" font-size="10.50" fill="white">foodie_integrator_tvd_runge_kutta</text>
</a>
</g>
<!-- IR_Precision&#45;&gt;module~foodie_integrator_tvd_runge_kutta -->
<g id="edge8" class="edge"><title>IR_Precision&#45;&gt;module~foodie_integrator_tvd_runge_kutta</title>
<path fill="none" stroke="black" stroke-dasharray="5,2" d="M45.0521,-131.137C61.4134,-156.294 101.328,-210.258 152,-227"/>
<path fill="none" stroke="black" stroke-dasharray="5,2" d="M152,-227C195.119,-241.246 189.106,-180.745 230,-161 234.321,-158.913 238.83,-157.025 243.45,-155.315"/>
<polygon fill="black" stroke="black" points="244.72,-158.58 253.064,-152.051 242.47,-151.952 244.72,-158.58"/>
</g>
<!-- module~type_integrand -->
<g id="node9" class="node"><title>module~type_integrand</title>
<a xlink:href="../module/type_integrand.html" xlink:title="type_integrand">
<polygon fill="#337ab7" stroke="#337ab7" points="194,-131 110,-131 110,-105 194,-105 194,-131"/>
<text text-anchor="middle" x="152" y="-115.55" font-family="Helvetica,sans-Serif" font-size="10.50" fill="white">type_integrand</text>
</a>
</g>
<!-- IR_Precision&#45;&gt;module~type_integrand -->
<g id="edge10" class="edge"><title>IR_Precision&#45;&gt;module~type_integrand</title>
<path fill="none" stroke="black" stroke-dasharray="5,2" d="M73.7029,-118C81.9237,-118 90.8,-118 99.521,-118"/>
<polygon fill="black" stroke="black" points="99.6389,-121.5 109.639,-118 99.6388,-114.5 99.6389,-121.5"/>
</g>
<!-- module~foodie_integrator_adams_bashforth -->
<g id="node10" class="node"><title>module~foodie_integrator_adams_bashforth</title>
<a xlink:href="../module/foodie_integrator_adams_bashforth.html" xlink:title="foodie_integrator_adams_bashforth">
<polygon fill="#337ab7" stroke="#337ab7" points="431,-70 249,-70 249,-44 431,-44 431,-70"/>
<text text-anchor="middle" x="340" y="-54.55" font-family="Helvetica,sans-Serif" font-size="10.50" fill="white">foodie_integrator_adams_bashforth</text>
</a>
</g>
<!-- IR_Precision&#45;&gt;module~foodie_integrator_adams_bashforth -->
<g id="edge14" class="edge"><title>IR_Precision&#45;&gt;module~foodie_integrator_adams_bashforth</title>
<path fill="none" stroke="black" stroke-dasharray="5,2" d="M152,-57C179.198,-48.5243 209.703,-45.8281 238.099,-45.9556"/>
<polygon fill="black" stroke="black" points="238.4,-49.4609 248.455,-46.1249 238.514,-42.4618 238.4,-49.4609"/>
</g>
<!-- module~foodie_integrator_euler_explicit -->
<g id="node11" class="node"><title>module~foodie_integrator_euler_explicit</title>
<a xlink:href="../module/foodie_integrator_euler_explicit.html" xlink:title="foodie_integrator_euler_explicit">
<polygon fill="#337ab7" stroke="#337ab7" points="421,-26 259,-26 259,-1.24345e-14 421,-3.55271e-15 421,-26"/>
<text text-anchor="middle" x="340" y="-10.55" font-family="Helvetica,sans-Serif" font-size="10.50" fill="white">foodie_integrator_euler_explicit</text>
</a>
</g>
<!-- IR_Precision&#45;&gt;module~foodie_integrator_euler_explicit -->
<g id="edge18" class="edge"><title>IR_Precision&#45;&gt;module~foodie_integrator_euler_explicit</title>
<path fill="none" stroke="black" stroke-dasharray="5,2" d="M56.3661,-104.822C78.4618,-90.4969 116.183,-68.1619 152,-57"/>
<path fill="none" stroke="black" stroke-dasharray="5,2" d="M152,-57C186.388,-46.2835 194.981,-43.4272 230,-35 239.901,-32.6174 250.346,-30.2903 260.701,-28.0954"/>
<polygon fill="black" stroke="black" points="261.506,-31.503 270.58,-26.034 260.076,-24.6506 261.506,-31.503"/>
</g>
<!-- module~foodie_integrator_leapfrog -->
<g id="node12" class="node"><title>module~foodie_integrator_leapfrog</title>
<a xlink:href="../module/foodie_integrator_leapfrog.html" xlink:title="foodie_integrator_leapfrog">
<polygon fill="#337ab7" stroke="#337ab7" points="409,-240 271,-240 271,-214 409,-214 409,-240"/>
<text text-anchor="middle" x="340" y="-224.55" font-family="Helvetica,sans-Serif" font-size="10.50" fill="white">foodie_integrator_leapfrog</text>
</a>
</g>
<!-- IR_Precision&#45;&gt;module~foodie_integrator_leapfrog -->
<g id="edge22" class="edge"><title>IR_Precision&#45;&gt;module~foodie_integrator_leapfrog</title>
<path fill="none" stroke="black" stroke-dasharray="5,2" d="M152,-227C186.265,-238.321 225.999,-239.863 260.088,-237.961"/>
<polygon fill="black" stroke="black" points="260.729,-241.426 270.473,-237.268 260.262,-234.442 260.729,-241.426"/>
</g>
<!-- module~type_euler_1d&#45;&gt;program~integrate_euler_1d -->
<g id="edge50" class="edge"><title>module~type_euler_1d&#45;&gt;program~integrate_euler_1d</title>
<path fill="none" stroke="black" stroke-dasharray="5,2" d="M715.279,-206.901C739.586,-201.543 770.804,-194.662 798.019,-188.662"/>
<polygon fill="black" stroke="black" points="798.832,-192.067 807.845,-186.497 797.326,-185.231 798.832,-192.067"/>
</g>
<!-- module~foodie_integrator_low_storage_runge_kutta&#45;&gt;module~foodie -->
<g id="edge24" class="edge"><title>module~foodie_integrator_low_storage_runge_kutta&#45;&gt;module~foodie</title>
<path fill="none" stroke="black" stroke-dasharray="5,2" d="M408.374,-169.958C431.271,-165.59 455.941,-160.884 475.573,-157.139"/>
<polygon fill="black" stroke="black" points="476.462,-160.533 485.629,-155.221 475.151,-153.657 476.462,-160.533"/>
</g>
<!-- module~foodie_integrator_tvd_runge_kutta&#45;&gt;module~foodie -->
<g id="edge26" class="edge"><title>module~foodie_integrator_tvd_runge_kutta&#45;&gt;module~foodie</title>
<path fill="none" stroke="black" stroke-dasharray="5,2" d="M428.527,-144.629C445.221,-145.69 461.815,-146.745 475.818,-147.636"/>
<polygon fill="black" stroke="black" points="475.779,-151.14 485.981,-148.282 476.223,-144.154 475.779,-151.14"/>
</g>
<!-- module~type_integrand&#45;&gt;module~foodie -->
<g id="edge28" class="edge"><title>module~type_integrand&#45;&gt;module~foodie</title>
<path fill="none" stroke="black" stroke-dasharray="5,2" d="M194.217,-111.522C252.662,-103.975 361.079,-95.121 450,-117 462.148,-119.989 474.548,-125.781 485.099,-131.69"/>
<polygon fill="black" stroke="black" points="483.449,-134.78 493.841,-136.844 487.005,-128.75 483.449,-134.78"/>
</g>
<!-- module~type_integrand&#45;&gt;module~foodie_integrator_low_storage_runge_kutta -->
<g id="edge2" class="edge"><title>module~type_integrand&#45;&gt;module~foodie_integrator_low_storage_runge_kutta</title>
<path fill="none" stroke="black" stroke-dasharray="5,2" d="M171.717,-131.098C187.022,-140.702 209.088,-153.352 230,-161 236.39,-163.337 243.085,-165.446 249.882,-167.345"/>
<polygon fill="black" stroke="black" points="249.329,-170.819 259.891,-169.981 251.112,-164.05 249.329,-170.819"/>
</g>
<!-- module~type_integrand&#45;&gt;module~foodie_integrator_tvd_runge_kutta -->
<g id="edge6" class="edge"><title>module~type_integrand&#45;&gt;module~foodie_integrator_tvd_runge_kutta</title>
<path fill="none" stroke="black" stroke-dasharray="5,2" d="M194.191,-122.713C208.266,-124.285 224.595,-126.109 241.126,-127.956"/>
<polygon fill="black" stroke="black" points="241.1,-131.474 251.427,-129.106 241.877,-124.518 241.1,-131.474"/>
</g>
<!-- module~type_integrand&#45;&gt;module~foodie_integrator_adams_bashforth -->
<g id="edge12" class="edge"><title>module~type_integrand&#45;&gt;module~foodie_integrator_adams_bashforth</title>
<path fill="none" stroke="black" stroke-dasharray="5,2" d="M178.986,-104.881C193.804,-98.0246 212.646,-89.8642 230,-84 242.47,-79.7861 255.939,-75.9299 269.033,-72.5324"/>
<polygon fill="black" stroke="black" points="270.112,-75.8696 278.95,-70.0254 268.397,-69.0831 270.112,-75.8696"/>
</g>
<!-- module~type_integrand&#45;&gt;module~foodie_integrator_euler_explicit -->
<g id="edge16" class="edge"><title>module~type_integrand&#45;&gt;module~foodie_integrator_euler_explicit</title>
<path fill="none" stroke="black" stroke-dasharray="5,2" d="M164.061,-104.749C184.917,-81.8955 225.894,-37.28 230,-35 236.006,-31.6649 242.445,-28.8311 249.084,-26.424"/>
<polygon fill="black" stroke="black" points="250.517,-29.6375 258.927,-23.1936 248.334,-22.9865 250.517,-29.6375"/>
</g>
<!-- module~type_integrand&#45;&gt;module~foodie_integrator_leapfrog -->
<g id="edge20" class="edge"><title>module~type_integrand&#45;&gt;module~foodie_integrator_leapfrog</title>
<path fill="none" stroke="black" stroke-dasharray="5,2" d="M159.747,-131.018C172.039,-150.447 197.935,-186.699 230,-205 239.389,-210.359 249.878,-214.428 260.548,-217.515"/>
<polygon fill="black" stroke="black" points="259.812,-220.94 270.372,-220.082 261.582,-214.168 259.812,-220.94"/>
</g>
<!-- module~foodie_integrator_adams_bashforth&#45;&gt;module~foodie -->
<g id="edge30" class="edge"><title>module~foodie_integrator_adams_bashforth&#45;&gt;module~foodie</title>
<path fill="none" stroke="black" stroke-dasharray="5,2" d="M417.326,-70.034C428.703,-73.6213 439.959,-78.1883 450,-84 469.368,-95.21 486.546,-114.147 498.052,-128.869"/>
<polygon fill="black" stroke="black" points="495.333,-131.077 504.145,-136.96 500.925,-126.866 495.333,-131.077"/>
</g>
<!-- module~foodie_integrator_euler_explicit&#45;&gt;module~foodie -->
<g id="edge32" class="edge"><title>module~foodie_integrator_euler_explicit&#45;&gt;module~foodie</title>
<path fill="none" stroke="black" stroke-dasharray="5,2" d="M421.267,-20.755C431.548,-24.1116 441.446,-28.7167 450,-35 480.961,-57.7413 498.479,-100.471 506.824,-126.956"/>
<polygon fill="black" stroke="black" points="503.567,-128.287 509.761,-136.883 510.28,-126.301 503.567,-128.287"/>
</g>
<!-- module~foodie_integrator_leapfrog&#45;&gt;module~foodie -->
<g id="edge34" class="edge"><title>module~foodie_integrator_leapfrog&#45;&gt;module~foodie</title>
<path fill="none" stroke="black" stroke-dasharray="5,2" d="M409.585,-218.775C423.412,-215.583 437.507,-211.151 450,-205 467.096,-196.582 483.222,-182.338 494.879,-170.456"/>
<polygon fill="black" stroke="black" points="497.532,-172.744 501.859,-163.073 492.445,-167.935 497.532,-172.744"/>
</g>
<!-- wenoof -->
<g id="node30" class="node"><title>wenoof</title>
<polygon fill="#337ab7" stroke="#337ab7" points="540,-229 486,-229 486,-203 540,-203 540,-229"/>
<text text-anchor="middle" x="513" y="-213.55" font-family="Helvetica,sans-Serif" font-size="10.50" fill="white">wenoof</text>
</g>
<!-- wenoof&#45;&gt;module~type_euler_1d -->
<g id="edge36" class="edge"><title>wenoof&#45;&gt;module~type_euler_1d</title>
<path fill="none" stroke="black" stroke-dasharray="5,2" d="M540.311,-216C562.825,-216 595.384,-216 622.733,-216"/>
<polygon fill="black" stroke="black" points="622.929,-219.5 632.929,-216 622.929,-212.5 622.929,-219.5"/>
</g>
</g>
</svg>
