<?xml version="1.0" encoding="UTF-8" standalone="no"?>
<!DOCTYPE svg PUBLIC "-//W3C//DTD SVG 1.1//EN"
 "http://www.w3.org/Graphics/SVG/1.1/DTD/svg11.dtd">
<!-- Generated by graphviz version 2.26.3 (20100126.1600)
 -->
<!-- Title: program~~integrate_burgers~~UsesGraph Pages: 1 -->
<svg width="641pt" height="235pt"
 viewBox="0.00 0.00 641.00 235.20" xmlns="http://www.w3.org/2000/svg" xmlns:xlink="http://www.w3.org/1999/xlink">
<g id="graph1" class="graph" transform="scale(0.701313 0.701313) rotate(0) translate(4 331.368)">
<title>program~~integrate_burgers~~UsesGraph</title>
<polygon fill="white" stroke="white" points="-4,5 -4,-331.368 911,-331.368 911,5 -4,5"/>
<!-- program~integrate_burgers -->
<g id="node1" class="node"><title>program~integrate_burgers</title>
<polygon fill="none" stroke="black" points="905,-167.119 809,-167.119 809,-141.119 905,-141.119 905,-167.119"/>
<text text-anchor="middle" x="857" y="-151.669" font-family="Helvetica,sans-Serif" font-size="10.50">integrate_burgers</text>
</g>
<!-- IR_Precision -->
<g id="node2" class="node"><title>IR_Precision</title>
<polygon fill="#337ab7" stroke="#337ab7" points="73,-168.119 1,-168.119 1,-142.119 73,-142.119 73,-168.119"/>
<text text-anchor="middle" x="37" y="-152.669" font-family="Helvetica,sans-Serif" font-size="10.50" fill="white">IR_Precision</text>
</g>
<!-- IR_Precision&#45;&gt;program~integrate_burgers -->
<g id="edge40" class="edge"><title>IR_Precision&#45;&gt;program~integrate_burgers</title>
<path fill="none" stroke="black" stroke-dasharray="5,2" d="M152,-264.119C372.967,-337.124 444.055,-340.912 674,-305.119"/>
</g>
<!-- module~type_burgers -->
<g id="node4" class="node"><title>module~type_burgers</title>
<a xlink:href="../module/type_burgers.html" xlink:title="type_burgers">
<polygon fill="#337ab7" stroke="#337ab7" points="712,-189.119 636,-189.119 636,-163.119 712,-163.119 712,-189.119"/>
<text text-anchor="middle" x="674" y="-173.669" font-family="Helvetica,sans-Serif" font-size="10.50" fill="white">type_burgers</text>
</a>
</g>
<!-- IR_Precision&#45;&gt;module~type_burgers -->
<g id="edge36" class="edge"><title>IR_Precision&#45;&gt;module~type_burgers</title>
<path fill="none" stroke="black" stroke-dasharray="5,2" d="M46.156,-141.836C63.5116,-117.985 103.807,-68.6635 152,-50.1192"/>
<path fill="none" stroke="black" stroke-dasharray="5,2" d="M152,-50.1192C275.946,-2.42595 327.304,22.703 450,-28.1192 523.168,-58.4262 506.618,-115.934 576,-154.119 591.181,-162.474 609.343,-167.658 625.885,-170.873"/>
<polygon fill="black" stroke="black" points="625.48,-174.355 635.933,-172.631 626.686,-167.46 625.48,-174.355"/>
</g>
<!-- module~foodie_integrator_tvd_runge_kutta -->
<g id="node7" class="node"><title>module~foodie_integrator_tvd_runge_kutta</title>
<a xlink:href="../module/foodie_integrator_tvd_runge_kutta.html" xlink:title="foodie_integrator_tvd_runge_kutta">
<polygon fill="#337ab7" stroke="#337ab7" points="428,-233.119 252,-233.119 252,-207.119 428,-207.119 428,-233.119"/>
<text text-anchor="middle" x="340" y="-217.669" font-family="Helvetica,sans-Serif" font-size="10.50" fill="white">foodie_integrator_tvd_runge_kutta</text>
</a>
</g>
<!-- IR_Precision&#45;&gt;module~foodie_integrator_tvd_runge_kutta -->
<g id="edge2" class="edge"><title>IR_Precision&#45;&gt;module~foodie_integrator_tvd_runge_kutta</title>
<path fill="none" stroke="black" stroke-dasharray="5,2" d="M152,-264.119C186.201,-275.419 194.981,-250.546 230,-242.119 239.901,-239.737 250.346,-237.41 260.701,-235.215"/>
<polygon fill="black" stroke="black" points="261.506,-238.622 270.58,-233.153 260.076,-231.77 261.506,-238.622"/>
</g>
<!-- module~type_integrand -->
<g id="node8" class="node"><title>module~type_integrand</title>
<a xlink:href="../module/type_integrand.html" xlink:title="type_integrand">
<polygon fill="#337ab7" stroke="#337ab7" points="194,-168.119 110,-168.119 110,-142.119 194,-142.119 194,-168.119"/>
<text text-anchor="middle" x="152" y="-152.669" font-family="Helvetica,sans-Serif" font-size="10.50" fill="white">type_integrand</text>
</a>
</g>
<!-- IR_Precision&#45;&gt;module~type_integrand -->
<g id="edge6" class="edge"><title>IR_Precision&#45;&gt;module~type_integrand</title>
<path fill="none" stroke="black" stroke-dasharray="5,2" d="M73.7029,-155.119C81.9237,-155.119 90.8,-155.119 99.521,-155.119"/>
<polygon fill="black" stroke="black" points="99.6389,-158.619 109.639,-155.119 99.6388,-151.619 99.6389,-158.619"/>
</g>
<!-- module~foodie_integrator_adams_bashforth -->
<g id="node9" class="node"><title>module~foodie_integrator_adams_bashforth</title>
<a xlink:href="../module/foodie_integrator_adams_bashforth.html" xlink:title="foodie_integrator_adams_bashforth">
<polygon fill="#337ab7" stroke="#337ab7" points="431,-189.119 249,-189.119 249,-163.119 431,-163.119 431,-189.119"/>
<text text-anchor="middle" x="340" y="-173.669" font-family="Helvetica,sans-Serif" font-size="10.50" fill="white">foodie_integrator_adams_bashforth</text>
</a>
</g>
<!-- IR_Precision&#45;&gt;module~foodie_integrator_adams_bashforth -->
<g id="edge8" class="edge"><title>IR_Precision&#45;&gt;module~foodie_integrator_adams_bashforth</title>
<path fill="none" stroke="black" stroke-dasharray="5,2" d="M45.0521,-168.257C61.4134,-193.414 101.328,-247.378 152,-264.119"/>
<path fill="none" stroke="black" stroke-dasharray="5,2" d="M152,-264.119C195.119,-278.365 189.106,-217.865 230,-198.119 234.321,-196.033 238.83,-194.144 243.45,-192.434"/>
<polygon fill="black" stroke="black" points="244.72,-195.699 253.064,-189.171 242.47,-189.071 244.72,-195.699"/>
</g>
<!-- module~foodie_integrator_euler_explicit -->
<g id="node10" class="node"><title>module~foodie_integrator_euler_explicit</title>
<a xlink:href="../module/foodie_integrator_euler_explicit.html" xlink:title="foodie_integrator_euler_explicit">
<polygon fill="#337ab7" stroke="#337ab7" points="421,-107.119 259,-107.119 259,-81.1192 421,-81.1192 421,-107.119"/>
<text text-anchor="middle" x="340" y="-91.6692" font-family="Helvetica,sans-Serif" font-size="10.50" fill="white">foodie_integrator_euler_explicit</text>
</a>
</g>
<!-- IR_Precision&#45;&gt;module~foodie_integrator_euler_explicit -->
<g id="edge12" class="edge"><title>IR_Precision&#45;&gt;module~foodie_integrator_euler_explicit</title>
<path fill="none" stroke="black" stroke-dasharray="5,2" d="M152,-50.1192C185.616,-37.1839 194.981,-63.692 230,-72.1192 239.901,-74.5018 250.346,-76.8289 260.701,-79.0238"/>
<polygon fill="black" stroke="black" points="260.076,-82.4687 270.58,-81.0852 261.506,-75.6162 260.076,-82.4687"/>
</g>
<!-- module~foodie_integrator_leapfrog -->
<g id="node11" class="node"><title>module~foodie_integrator_leapfrog</title>
<a xlink:href="../module/foodie_integrator_leapfrog.html" xlink:title="foodie_integrator_leapfrog">
<polygon fill="#337ab7" stroke="#337ab7" points="409,-63.1192 271,-63.1192 271,-37.1192 409,-37.1192 409,-63.1192"/>
<text text-anchor="middle" x="340" y="-47.6692" font-family="Helvetica,sans-Serif" font-size="10.50" fill="white">foodie_integrator_leapfrog</text>
</a>
</g>
<!-- IR_Precision&#45;&gt;module~foodie_integrator_leapfrog -->
<g id="edge16" class="edge"><title>IR_Precision&#45;&gt;module~foodie_integrator_leapfrog</title>
<path fill="none" stroke="black" stroke-dasharray="5,2" d="M152,-50.1192C185.963,-37.0506 226.002,-35.3653 260.384,-37.6269"/>
<polygon fill="black" stroke="black" points="260.147,-41.119 270.388,-38.4049 260.69,-34.1401 260.147,-41.119"/>
</g>
<!-- module~foodie_integrator_low_storage_runge_kutta -->
<g id="node12" class="node"><title>module~foodie_integrator_low_storage_runge_kutta</title>
<a xlink:href="../module/foodie_integrator_low_storage_runge_kutta.html" xlink:title="foodie_integrator_low_storage_runge_kutta">
<polygon fill="#337ab7" stroke="#337ab7" points="450,-277.119 230,-277.119 230,-251.119 450,-251.119 450,-277.119"/>
<text text-anchor="middle" x="340" y="-261.669" font-family="Helvetica,sans-Serif" font-size="10.50" fill="white">foodie_integrator_low_storage_runge_kutta</text>
</a>
</g>
<!-- IR_Precision&#45;&gt;module~foodie_integrator_low_storage_runge_kutta -->
<g id="edge20" class="edge"><title>IR_Precision&#45;&gt;module~foodie_integrator_low_storage_runge_kutta</title>
<path fill="none" stroke="black" stroke-dasharray="5,2" d="M152,-264.119C173.327,-271.165 196.773,-274.423 219.658,-275.421"/>
<polygon fill="black" stroke="black" points="219.673,-278.922 229.772,-275.72 219.88,-271.926 219.673,-278.922"/>
</g>
<!-- module~foodie -->
<g id="node3" class="node"><title>module~foodie</title>
<a xlink:href="../module/foodie.html" xlink:title="foodie">
<polygon fill="#337ab7" stroke="#337ab7" points="540,-189.119 486,-189.119 486,-163.119 540,-163.119 540,-189.119"/>
<text text-anchor="middle" x="513" y="-173.669" font-family="Helvetica,sans-Serif" font-size="10.50" fill="white">foodie</text>
</a>
</g>
<!-- module~foodie&#45;&gt;program~integrate_burgers -->
<g id="edge42" class="edge"><title>module~foodie&#45;&gt;program~integrate_burgers</title>
<path fill="none" stroke="black" stroke-dasharray="5,2" d="M520.094,-189.233C540.11,-224.256 600.387,-316.578 674,-305.119"/>
<path fill="none" stroke="black" stroke-dasharray="5,2" d="M674,-305.119C751.996,-292.978 815.768,-214.398 842.904,-175.652"/>
<polygon fill="black" stroke="black" points="845.958,-177.387 848.713,-167.156 840.18,-173.436 845.958,-177.387"/>
</g>
<!-- module~foodie&#45;&gt;module~type_burgers -->
<g id="edge38" class="edge"><title>module~foodie&#45;&gt;module~type_burgers</title>
<path fill="none" stroke="black" stroke-dasharray="5,2" d="M540.311,-176.119C563.62,-176.119 597.697,-176.119 625.613,-176.119"/>
<polygon fill="black" stroke="black" points="625.974,-179.619 635.974,-176.119 625.974,-172.619 625.974,-179.619"/>
</g>
<!-- module~type_burgers&#45;&gt;program~integrate_burgers -->
<g id="edge44" class="edge"><title>module~type_burgers&#45;&gt;program~integrate_burgers</title>
<path fill="none" stroke="black" stroke-dasharray="5,2" d="M712.363,-171.507C737.192,-168.522 770.011,-164.577 798.109,-161.199"/>
<polygon fill="black" stroke="black" points="798.713,-164.652 808.224,-159.983 797.878,-157.702 798.713,-164.652"/>
</g>
<!-- pyplot_module -->
<g id="node5" class="node"><title>pyplot_module</title>
<polygon fill="#337ab7" stroke="#337ab7" points="715,-145.119 633,-145.119 633,-119.119 715,-119.119 715,-145.119"/>
<text text-anchor="middle" x="674" y="-129.669" font-family="Helvetica,sans-Serif" font-size="10.50" fill="white">pyplot_module</text>
</g>
<!-- pyplot_module&#45;&gt;program~integrate_burgers -->
<g id="edge46" class="edge"><title>pyplot_module&#45;&gt;program~integrate_burgers</title>
<path fill="none" stroke="black" stroke-dasharray="5,2" d="M715.069,-137.056C739.551,-140 771.037,-143.785 798.131,-147.042"/>
<polygon fill="black" stroke="black" points="797.93,-150.543 808.277,-148.262 798.766,-143.593 797.93,-150.543"/>
</g>
<!-- Data_Type_Command_Line_Interface -->
<g id="node6" class="node"><title>Data_Type_Command_Line_Interface</title>
<polygon fill="#337ab7" stroke="#337ab7" points="771,-101.119 577,-101.119 577,-75.1192 771,-75.1192 771,-101.119"/>
<text text-anchor="middle" x="674" y="-85.6692" font-family="Helvetica,sans-Serif" font-size="10.50" fill="white">Data_Type_Command_Line_Interface</text>
</g>
<!-- Data_Type_Command_Line_Interface&#45;&gt;program~integrate_burgers -->
<g id="edge48" class="edge"><title>Data_Type_Command_Line_Interface&#45;&gt;program~integrate_burgers</title>
<path fill="none" stroke="black" stroke-dasharray="5,2" d="M742.658,-101.167C752.622,-103.741 762.661,-106.718 772,-110.119 790.795,-116.964 810.708,-127.1 826.533,-135.919"/>
<polygon fill="black" stroke="black" points="824.915,-139.025 835.338,-140.924 828.374,-132.94 824.915,-139.025"/>
</g>
<!-- module~foodie_integrator_tvd_runge_kutta&#45;&gt;module~foodie -->
<g id="edge24" class="edge"><title>module~foodie_integrator_tvd_runge_kutta&#45;&gt;module~foodie</title>
<path fill="none" stroke="black" stroke-dasharray="5,2" d="M412.523,-207.1C425.089,-204.421 437.976,-201.404 450,-198.119 458.688,-195.746 467.91,-192.785 476.539,-189.812"/>
<polygon fill="black" stroke="black" points="477.706,-193.112 485.97,-186.482 475.375,-186.511 477.706,-193.112"/>
</g>
<!-- module~type_integrand&#45;&gt;module~foodie -->
<g id="edge26" class="edge"><title>module~type_integrand&#45;&gt;module~foodie</title>
<path fill="none" stroke="black" stroke-dasharray="5,2" d="M194.32,-150.473C252.43,-145.112 359.971,-138.852 450,-154.119 458.702,-155.595 467.805,-158.141 476.298,-160.989"/>
<polygon fill="black" stroke="black" points="475.335,-164.361 485.929,-164.426 477.687,-157.769 475.335,-164.361"/>
</g>
<!-- module~type_integrand&#45;&gt;module~foodie_integrator_tvd_runge_kutta -->
<g id="edge4" class="edge"><title>module~type_integrand&#45;&gt;module~foodie_integrator_tvd_runge_kutta</title>
<path fill="none" stroke="black" stroke-dasharray="5,2" d="M171.717,-168.217C187.022,-177.822 209.088,-190.471 230,-198.119 236.39,-200.456 243.085,-202.565 249.882,-204.465"/>
<polygon fill="black" stroke="black" points="249.329,-207.938 259.891,-207.1 251.112,-201.169 249.329,-207.938"/>
</g>
<!-- module~type_integrand&#45;&gt;module~foodie_integrator_adams_bashforth -->
<g id="edge10" class="edge"><title>module~type_integrand&#45;&gt;module~foodie_integrator_adams_bashforth</title>
<path fill="none" stroke="black" stroke-dasharray="5,2" d="M194.191,-159.832C207.423,-161.31 222.647,-163.011 238.158,-164.743"/>
<polygon fill="black" stroke="black" points="238.047,-168.253 248.374,-165.884 238.824,-161.296 238.047,-168.253"/>
</g>
<!-- module~type_integrand&#45;&gt;module~foodie_integrator_euler_explicit -->
<g id="edge14" class="edge"><title>module~type_integrand&#45;&gt;module~foodie_integrator_euler_explicit</title>
<path fill="none" stroke="black" stroke-dasharray="5,2" d="M178.986,-142C193.804,-135.144 212.646,-126.983 230,-121.119 242.47,-116.905 255.939,-113.049 269.033,-109.652"/>
<polygon fill="black" stroke="black" points="270.112,-112.989 278.95,-107.145 268.397,-106.202 270.112,-112.989"/>
</g>
<!-- module~type_integrand&#45;&gt;module~foodie_integrator_leapfrog -->
<g id="edge18" class="edge"><title>module~type_integrand&#45;&gt;module~foodie_integrator_leapfrog</title>
<path fill="none" stroke="black" stroke-dasharray="5,2" d="M160.314,-142.086C172.962,-123.413 198.883,-89.3994 230,-72.1192 239.451,-66.8709 249.975,-62.8643 260.662,-59.8075"/>
<polygon fill="black" stroke="black" points="261.695,-63.1557 270.497,-57.259 259.939,-56.3795 261.695,-63.1557"/>
</g>
<!-- module~type_integrand&#45;&gt;module~foodie_integrator_low_storage_runge_kutta -->
<g id="edge22" class="edge"><title>module~type_integrand&#45;&gt;module~foodie_integrator_low_storage_runge_kutta</title>
<path fill="none" stroke="black" stroke-dasharray="5,2" d="M159.747,-168.137C172.039,-187.566 197.935,-223.818 230,-242.119 233.28,-243.991 236.694,-245.706 240.203,-247.276"/>
<polygon fill="black" stroke="black" points="239.104,-250.607 249.687,-251.105 241.724,-244.116 239.104,-250.607"/>
</g>
<!-- module~foodie_integrator_adams_bashforth&#45;&gt;module~foodie -->
<g id="edge28" class="edge"><title>module~foodie_integrator_adams_bashforth&#45;&gt;module~foodie</title>
<path fill="none" stroke="black" stroke-dasharray="5,2" d="M431.566,-176.119C447.17,-176.119 462.554,-176.119 475.677,-176.119"/>
<polygon fill="black" stroke="black" points="475.677,-179.619 485.677,-176.119 475.677,-172.619 475.677,-179.619"/>
</g>
<!-- module~foodie_integrator_euler_explicit&#45;&gt;module~foodie -->
<g id="edge30" class="edge"><title>module~foodie_integrator_euler_explicit&#45;&gt;module~foodie</title>
<path fill="none" stroke="black" stroke-dasharray="5,2" d="M414.258,-107.194C426.568,-110.8 438.92,-115.362 450,-121.119 466.699,-129.796 482.637,-143.785 494.305,-155.483"/>
<polygon fill="black" stroke="black" points="491.861,-157.99 501.321,-162.76 496.9,-153.132 491.861,-157.99"/>
</g>
<!-- module~foodie_integrator_leapfrog&#45;&gt;module~foodie -->
<g id="edge32" class="edge"><title>module~foodie_integrator_leapfrog&#45;&gt;module~foodie</title>
<path fill="none" stroke="black" stroke-dasharray="5,2" d="M409.563,-55.0483C423.842,-58.4403 438.122,-63.7863 450,-72.1192 478.428,-92.0629 496.335,-129.318 505.503,-153.402"/>
<polygon fill="black" stroke="black" points="502.218,-154.609 508.903,-162.828 508.803,-152.234 502.218,-154.609"/>
</g>
<!-- module~foodie_integrator_low_storage_runge_kutta&#45;&gt;module~foodie -->
<g id="edge34" class="edge"><title>module~foodie_integrator_low_storage_runge_kutta&#45;&gt;module~foodie</title>
<path fill="none" stroke="black" stroke-dasharray="5,2" d="M429.627,-251.092C436.717,-248.601 443.601,-245.64 450,-242.119 469.606,-231.331 486.759,-212.35 498.195,-197.505"/>
<polygon fill="black" stroke="black" points="501.107,-199.454 504.244,-189.335 495.481,-195.289 501.107,-199.454"/>
</g>
</g>
</svg>
