<?xml version="1.0" encoding="UTF-8" standalone="no"?>
<!DOCTYPE svg PUBLIC "-//W3C//DTD SVG 1.1//EN"
 "http://www.w3.org/Graphics/SVG/1.1/DTD/svg11.dtd">
<!-- Generated by graphviz version 2.26.3 (20100126.1600)
 -->
<!-- Title: program~~integrate_lorenz~~UsesGraph Pages: 1 -->
<svg width="641pt" height="223pt"
 viewBox="0.00 0.00 641.00 223.10" xmlns="http://www.w3.org/2000/svg" xmlns:xlink="http://www.w3.org/1999/xlink">
<g id="graph1" class="graph" transform="scale(0.707506 0.707506) rotate(0) translate(4 311.328)">
<title>program~~integrate_lorenz~~UsesGraph</title>
<polygon fill="white" stroke="white" points="-4,5 -4,-311.328 903,-311.328 903,5 -4,5"/>
<!-- program~integrate_lorenz -->
<g id="node1" class="node"><title>program~integrate_lorenz</title>
<polygon fill="none" stroke="black" points="898,-96.3276 808,-96.3276 808,-70.3276 898,-70.3276 898,-96.3276"/>
<text text-anchor="middle" x="853" y="-80.8776" font-family="Helvetica,sans-Serif" font-size="10.50">integrate_lorenz</text>
</g>
<!-- module~foodie -->
<g id="node2" class="node"><title>module~foodie</title>
<a xlink:href="../module/foodie.html" xlink:title="foodie">
<polygon fill="#337ab7" stroke="#337ab7" points="540,-179.328 486,-179.328 486,-153.328 540,-153.328 540,-179.328"/>
<text text-anchor="middle" x="513" y="-163.878" font-family="Helvetica,sans-Serif" font-size="10.50" fill="white">foodie</text>
</a>
</g>
<!-- module~foodie&#45;&gt;program~integrate_lorenz -->
<g id="edge40" class="edge"><title>module~foodie&#45;&gt;program~integrate_lorenz</title>
<path fill="none" stroke="black" stroke-dasharray="5,2" d="M540.263,-169.808C588.795,-174.877 692.53,-180.575 772,-149.328 796.582,-139.662 819.407,-119.638 834.52,-104.167"/>
<polygon fill="black" stroke="black" points="837.37,-106.245 841.688,-96.5702 832.279,-101.441 837.37,-106.245"/>
</g>
<!-- module~type_lorenz -->
<g id="node6" class="node"><title>module~type_lorenz</title>
<a xlink:href="../module/type_lorenz.html" xlink:title="type_lorenz">
<polygon fill="#337ab7" stroke="#337ab7" points="708,-52.3276 640,-52.3276 640,-26.3276 708,-26.3276 708,-52.3276"/>
<text text-anchor="middle" x="674" y="-36.8776" font-family="Helvetica,sans-Serif" font-size="10.50" fill="white">type_lorenz</text>
</a>
</g>
<!-- module~foodie&#45;&gt;module~type_lorenz -->
<g id="edge38" class="edge"><title>module~foodie&#45;&gt;module~type_lorenz</title>
<path fill="none" stroke="black" stroke-dasharray="5,2" d="M517.116,-152.992C524.813,-130.388 543.603,-84.7313 576,-61.3276 591.551,-50.0934 611.836,-44.452 629.913,-41.6711"/>
<polygon fill="black" stroke="black" points="630.497,-45.1249 639.967,-40.3733 629.601,-38.1825 630.497,-45.1249"/>
</g>
<!-- pyplot_module -->
<g id="node3" class="node"><title>pyplot_module</title>
<polygon fill="#337ab7" stroke="#337ab7" points="715,-140.328 633,-140.328 633,-114.328 715,-114.328 715,-140.328"/>
<text text-anchor="middle" x="674" y="-124.878" font-family="Helvetica,sans-Serif" font-size="10.50" fill="white">pyplot_module</text>
</g>
<!-- pyplot_module&#45;&gt;program~integrate_lorenz -->
<g id="edge42" class="edge"><title>pyplot_module&#45;&gt;program~integrate_lorenz</title>
<path fill="none" stroke="black" stroke-dasharray="5,2" d="M715.101,-118.526C732.671,-114.654 753.383,-109.943 772,-105.328 780.427,-103.238 789.318,-100.93 798.002,-98.6179"/>
<polygon fill="black" stroke="black" points="798.932,-101.992 807.682,-96.017 797.116,-95.2318 798.932,-101.992"/>
</g>
<!-- Data_Type_Command_Line_Interface -->
<g id="node4" class="node"><title>Data_Type_Command_Line_Interface</title>
<polygon fill="#337ab7" stroke="#337ab7" points="771,-96.3276 577,-96.3276 577,-70.3276 771,-70.3276 771,-96.3276"/>
<text text-anchor="middle" x="674" y="-80.8776" font-family="Helvetica,sans-Serif" font-size="10.50" fill="white">Data_Type_Command_Line_Interface</text>
</g>
<!-- Data_Type_Command_Line_Interface&#45;&gt;program~integrate_lorenz -->
<g id="edge44" class="edge"><title>Data_Type_Command_Line_Interface&#45;&gt;program~integrate_lorenz</title>
<path fill="none" stroke="black" stroke-dasharray="5,2" d="M771.618,-83.3276C780.477,-83.3276 789.228,-83.3276 797.522,-83.3276"/>
<polygon fill="black" stroke="black" points="797.756,-86.8277 807.756,-83.3276 797.756,-79.8277 797.756,-86.8277"/>
</g>
<!-- IR_Precision -->
<g id="node5" class="node"><title>IR_Precision</title>
<polygon fill="#337ab7" stroke="#337ab7" points="73,-198.328 1,-198.328 1,-172.328 73,-172.328 73,-198.328"/>
<text text-anchor="middle" x="37" y="-182.878" font-family="Helvetica,sans-Serif" font-size="10.50" fill="white">IR_Precision</text>
</g>
<!-- IR_Precision&#45;&gt;program~integrate_lorenz -->
<g id="edge46" class="edge"><title>IR_Precision&#45;&gt;program~integrate_lorenz</title>
<path fill="none" stroke="black" stroke-dasharray="5,2" d="M46.156,-172.044C63.5116,-148.193 103.807,-98.8719 152,-80.3276"/>
<path fill="none" stroke="black" stroke-dasharray="5,2" d="M152,-80.3276C302.704,-22.3379 351.848,-49.546 513,-39.3276"/>
<path fill="none" stroke="black" stroke-dasharray="5,2" d="M513,-39.3276C542.54,-36.6823 546.759,-22.2863 576,-17.3276 661.885,-2.76306 689.93,11.8751 772,-17.3276 797.032,-26.2344 819.935,-46.5543 834.952,-62.3117"/>
<polygon fill="black" stroke="black" points="832.714,-65.0505 842.055,-70.0514 837.872,-60.3173 832.714,-65.0505"/>
</g>
<!-- IR_Precision&#45;&gt;module~type_lorenz -->
<g id="edge36" class="edge"><title>IR_Precision&#45;&gt;module~type_lorenz</title>
<path fill="none" stroke="black" stroke-dasharray="5,2" d="M513,-39.3276C552.393,-36.8297 597.317,-37.0877 629.682,-37.8211"/>
<polygon fill="black" stroke="black" points="629.642,-41.3211 639.726,-38.0731 629.817,-34.3233 629.642,-41.3211"/>
</g>
<!-- module~foodie_integrator_low_storage_runge_kutta -->
<g id="node7" class="node"><title>module~foodie_integrator_low_storage_runge_kutta</title>
<a xlink:href="../module/foodie_integrator_low_storage_runge_kutta.html" xlink:title="foodie_integrator_low_storage_runge_kutta">
<polygon fill="#337ab7" stroke="#337ab7" points="450,-263.328 230,-263.328 230,-237.328 450,-237.328 450,-263.328"/>
<text text-anchor="middle" x="340" y="-247.878" font-family="Helvetica,sans-Serif" font-size="10.50" fill="white">foodie_integrator_low_storage_runge_kutta</text>
</a>
</g>
<!-- IR_Precision&#45;&gt;module~foodie_integrator_low_storage_runge_kutta -->
<g id="edge4" class="edge"><title>IR_Precision&#45;&gt;module~foodie_integrator_low_storage_runge_kutta</title>
<path fill="none" stroke="black" stroke-dasharray="5,2" d="M152,-250.328C173.584,-256.005 197.052,-258.65 219.856,-259.477"/>
<polygon fill="black" stroke="black" points="219.843,-262.977 229.928,-259.728 220.018,-255.98 219.843,-262.977"/>
</g>
<!-- module~foodie_integrator_tvd_runge_kutta -->
<g id="node8" class="node"><title>module~foodie_integrator_tvd_runge_kutta</title>
<a xlink:href="../module/foodie_integrator_tvd_runge_kutta.html" xlink:title="foodie_integrator_tvd_runge_kutta">
<polygon fill="#337ab7" stroke="#337ab7" points="428,-219.328 252,-219.328 252,-193.328 428,-193.328 428,-219.328"/>
<text text-anchor="middle" x="340" y="-203.878" font-family="Helvetica,sans-Serif" font-size="10.50" fill="white">foodie_integrator_tvd_runge_kutta</text>
</a>
</g>
<!-- IR_Precision&#45;&gt;module~foodie_integrator_tvd_runge_kutta -->
<g id="edge8" class="edge"><title>IR_Precision&#45;&gt;module~foodie_integrator_tvd_runge_kutta</title>
<path fill="none" stroke="black" stroke-dasharray="5,2" d="M53.6975,-198.489C75.0524,-214.4 113.852,-240.293 152,-250.328"/>
<path fill="none" stroke="black" stroke-dasharray="5,2" d="M152,-250.328C186.834,-259.491 194.981,-236.755 230,-228.328 239.901,-225.945 250.346,-223.618 260.701,-221.423"/>
<polygon fill="black" stroke="black" points="261.506,-224.831 270.58,-219.362 260.076,-217.978 261.506,-224.831"/>
</g>
<!-- module~type_integrand -->
<g id="node9" class="node"><title>module~type_integrand</title>
<a xlink:href="../module/type_integrand.html" xlink:title="type_integrand">
<polygon fill="#337ab7" stroke="#337ab7" points="194,-198.328 110,-198.328 110,-172.328 194,-172.328 194,-198.328"/>
<text text-anchor="middle" x="152" y="-182.878" font-family="Helvetica,sans-Serif" font-size="10.50" fill="white">type_integrand</text>
</a>
</g>
<!-- IR_Precision&#45;&gt;module~type_integrand -->
<g id="edge10" class="edge"><title>IR_Precision&#45;&gt;module~type_integrand</title>
<path fill="none" stroke="black" stroke-dasharray="5,2" d="M73.7029,-185.328C81.9237,-185.328 90.8,-185.328 99.521,-185.328"/>
<polygon fill="black" stroke="black" points="99.6389,-188.828 109.639,-185.328 99.6388,-181.828 99.6389,-188.828"/>
</g>
<!-- module~foodie_integrator_adams_bashforth -->
<g id="node10" class="node"><title>module~foodie_integrator_adams_bashforth</title>
<a xlink:href="../module/foodie_integrator_adams_bashforth.html" xlink:title="foodie_integrator_adams_bashforth">
<polygon fill="#337ab7" stroke="#337ab7" points="431,-137.328 249,-137.328 249,-111.328 431,-111.328 431,-137.328"/>
<text text-anchor="middle" x="340" y="-121.878" font-family="Helvetica,sans-Serif" font-size="10.50" fill="white">foodie_integrator_adams_bashforth</text>
</a>
</g>
<!-- IR_Precision&#45;&gt;module~foodie_integrator_adams_bashforth -->
<g id="edge14" class="edge"><title>IR_Precision&#45;&gt;module~foodie_integrator_adams_bashforth</title>
<path fill="none" stroke="black" stroke-dasharray="5,2" d="M152,-80.3276C185.616,-67.3923 194.981,-93.9004 230,-102.328 239.901,-104.71 250.346,-107.037 260.701,-109.232"/>
<polygon fill="black" stroke="black" points="260.076,-112.677 270.58,-111.294 261.506,-105.825 260.076,-112.677"/>
</g>
<!-- module~foodie_integrator_euler_explicit -->
<g id="node11" class="node"><title>module~foodie_integrator_euler_explicit</title>
<a xlink:href="../module/foodie_integrator_euler_explicit.html" xlink:title="foodie_integrator_euler_explicit">
<polygon fill="#337ab7" stroke="#337ab7" points="421,-93.3276 259,-93.3276 259,-67.3276 421,-67.3276 421,-93.3276"/>
<text text-anchor="middle" x="340" y="-77.8776" font-family="Helvetica,sans-Serif" font-size="10.50" fill="white">foodie_integrator_euler_explicit</text>
</a>
</g>
<!-- IR_Precision&#45;&gt;module~foodie_integrator_euler_explicit -->
<g id="edge18" class="edge"><title>IR_Precision&#45;&gt;module~foodie_integrator_euler_explicit</title>
<path fill="none" stroke="black" stroke-dasharray="5,2" d="M152,-80.3276C182.235,-68.6932 217.287,-66.0807 248.875,-67.2431"/>
<polygon fill="black" stroke="black" points="248.837,-70.7455 258.998,-67.7465 249.185,-63.7541 248.837,-70.7455"/>
</g>
<!-- module~foodie_integrator_leapfrog -->
<g id="node12" class="node"><title>module~foodie_integrator_leapfrog</title>
<a xlink:href="../module/foodie_integrator_leapfrog.html" xlink:title="foodie_integrator_leapfrog">
<polygon fill="#337ab7" stroke="#337ab7" points="409,-307.328 271,-307.328 271,-281.328 409,-281.328 409,-307.328"/>
<text text-anchor="middle" x="340" y="-291.878" font-family="Helvetica,sans-Serif" font-size="10.50" fill="white">foodie_integrator_leapfrog</text>
</a>
</g>
<!-- IR_Precision&#45;&gt;module~foodie_integrator_leapfrog -->
<g id="edge22" class="edge"><title>IR_Precision&#45;&gt;module~foodie_integrator_leapfrog</title>
<path fill="none" stroke="black" stroke-dasharray="5,2" d="M152,-250.328C186.834,-259.491 194.981,-263.9 230,-272.328 239.901,-274.71 250.346,-277.037 260.701,-279.232"/>
<polygon fill="black" stroke="black" points="260.076,-282.677 270.58,-281.294 261.506,-275.825 260.076,-282.677"/>
</g>
<!-- module~type_lorenz&#45;&gt;program~integrate_lorenz -->
<g id="edge48" class="edge"><title>module~type_lorenz&#45;&gt;program~integrate_lorenz</title>
<path fill="none" stroke="black" stroke-dasharray="5,2" d="M708.103,-46.5939C726.983,-50.7145 750.844,-56.0826 772,-61.3276 780.427,-63.4167 789.318,-65.725 798.002,-68.0373"/>
<polygon fill="black" stroke="black" points="797.116,-71.4233 807.682,-70.6382 798.932,-64.6631 797.116,-71.4233"/>
</g>
<!-- module~foodie_integrator_low_storage_runge_kutta&#45;&gt;module~foodie -->
<g id="edge24" class="edge"><title>module~foodie_integrator_low_storage_runge_kutta&#45;&gt;module~foodie</title>
<path fill="none" stroke="black" stroke-dasharray="5,2" d="M428.938,-237.275C436.255,-234.792 443.375,-231.839 450,-228.328 468.639,-218.448 485.427,-201.301 496.976,-187.54"/>
<polygon fill="black" stroke="black" points="499.904,-189.485 503.461,-179.505 494.457,-185.089 499.904,-189.485"/>
</g>
<!-- module~foodie_integrator_tvd_runge_kutta&#45;&gt;module~foodie -->
<g id="edge26" class="edge"><title>module~foodie_integrator_tvd_runge_kutta&#45;&gt;module~foodie</title>
<path fill="none" stroke="black" stroke-dasharray="5,2" d="M396.647,-193.23C422.742,-187.196 452.969,-180.208 476.073,-174.866"/>
<polygon fill="black" stroke="black" points="476.872,-178.273 485.826,-172.611 475.295,-171.453 476.872,-178.273"/>
</g>
<!-- module~type_integrand&#45;&gt;module~foodie -->
<g id="edge28" class="edge"><title>module~type_integrand&#45;&gt;module~foodie</title>
<path fill="none" stroke="black" stroke-dasharray="5,2" d="M194.118,-183.111C265.266,-179.366 408.104,-171.848 475.792,-168.286"/>
<polygon fill="black" stroke="black" points="476.185,-171.77 485.987,-167.749 475.817,-164.78 476.185,-171.77"/>
</g>
<!-- module~type_integrand&#45;&gt;module~foodie_integrator_low_storage_runge_kutta -->
<g id="edge2" class="edge"><title>module~type_integrand&#45;&gt;module~foodie_integrator_low_storage_runge_kutta</title>
<path fill="none" stroke="black" stroke-dasharray="5,2" d="M171.717,-198.426C187.022,-208.03 209.088,-220.68 230,-228.328 236.39,-230.665 243.085,-232.774 249.882,-234.673"/>
<polygon fill="black" stroke="black" points="249.329,-238.147 259.891,-237.308 251.112,-231.377 249.329,-238.147"/>
</g>
<!-- module~type_integrand&#45;&gt;module~foodie_integrator_tvd_runge_kutta -->
<g id="edge6" class="edge"><title>module~type_integrand&#45;&gt;module~foodie_integrator_tvd_runge_kutta</title>
<path fill="none" stroke="black" stroke-dasharray="5,2" d="M194.191,-190.04C208.266,-191.613 224.595,-193.437 241.126,-195.283"/>
<polygon fill="black" stroke="black" points="241.1,-198.802 251.427,-196.434 241.877,-191.845 241.1,-198.802"/>
</g>
<!-- module~type_integrand&#45;&gt;module~foodie_integrator_adams_bashforth -->
<g id="edge12" class="edge"><title>module~type_integrand&#45;&gt;module~foodie_integrator_adams_bashforth</title>
<path fill="none" stroke="black" stroke-dasharray="5,2" d="M178.986,-172.208C193.804,-165.352 212.646,-157.192 230,-151.328 242.47,-147.114 255.939,-143.257 269.033,-139.86"/>
<polygon fill="black" stroke="black" points="270.112,-143.197 278.95,-137.353 268.397,-136.411 270.112,-143.197"/>
</g>
<!-- module~type_integrand&#45;&gt;module~foodie_integrator_euler_explicit -->
<g id="edge16" class="edge"><title>module~type_integrand&#45;&gt;module~foodie_integrator_euler_explicit</title>
<path fill="none" stroke="black" stroke-dasharray="5,2" d="M160.314,-172.294C172.962,-153.622 198.883,-119.608 230,-102.328 236.006,-98.9925 242.445,-96.1587 249.084,-93.7516"/>
<polygon fill="black" stroke="black" points="250.517,-96.9651 258.927,-90.5212 248.334,-90.3141 250.517,-96.9651"/>
</g>
<!-- module~type_integrand&#45;&gt;module~foodie_integrator_leapfrog -->
<g id="edge20" class="edge"><title>module~type_integrand&#45;&gt;module~foodie_integrator_leapfrog</title>
<path fill="none" stroke="black" stroke-dasharray="5,2" d="M162.905,-198.377C182.309,-221.46 221.587,-267.526 230,-272.328 239.389,-277.686 249.878,-281.756 260.548,-284.842"/>
<polygon fill="black" stroke="black" points="259.812,-288.268 270.372,-287.41 261.582,-281.495 259.812,-288.268"/>
</g>
<!-- module~foodie_integrator_adams_bashforth&#45;&gt;module~foodie -->
<g id="edge30" class="edge"><title>module~foodie_integrator_adams_bashforth&#45;&gt;module~foodie</title>
<path fill="none" stroke="black" stroke-dasharray="5,2" d="M393.79,-137.386C420.521,-143.876 452.14,-151.552 476.095,-157.368"/>
<polygon fill="black" stroke="black" points="475.312,-160.78 485.856,-159.738 476.964,-153.977 475.312,-160.78"/>
</g>
<!-- module~foodie_integrator_euler_explicit&#45;&gt;module~foodie -->
<g id="edge32" class="edge"><title>module~foodie_integrator_euler_explicit&#45;&gt;module~foodie</title>
<path fill="none" stroke="black" stroke-dasharray="5,2" d="M421.254,-90.8029C431.261,-93.748 441.09,-97.5139 450,-102.328 469.084,-112.638 486.032,-130.644 497.53,-144.936"/>
<polygon fill="black" stroke="black" points="495.071,-147.479 503.954,-153.253 500.611,-143.199 495.071,-147.479"/>
</g>
<!-- module~foodie_integrator_leapfrog&#45;&gt;module~foodie -->
<g id="edge34" class="edge"><title>module~foodie_integrator_leapfrog&#45;&gt;module~foodie</title>
<path fill="none" stroke="black" stroke-dasharray="5,2" d="M409.616,-289.474C423.892,-286.077 438.157,-280.71 450,-272.328 478.896,-251.873 496.749,-213.611 505.768,-189.084"/>
<polygon fill="black" stroke="black" points="509.12,-190.1 509.099,-179.505 502.509,-187.801 509.12,-190.1"/>
</g>
</g>
</svg>
