<?xml version="1.0" encoding="UTF-8" standalone="no"?>
<!DOCTYPE svg PUBLIC "-//W3C//DTD SVG 1.1//EN"
 "http://www.w3.org/Graphics/SVG/1.1/DTD/svg11.dtd">
<!-- Generated by graphviz version 2.26.3 (20100126.1600)
 -->
<!-- Title: program~~integrate_burgers~~UsesGraph Pages: 1 -->
<svg width="641pt" height="184pt"
 viewBox="0.00 0.00 641.00 183.79" xmlns="http://www.w3.org/2000/svg" xmlns:xlink="http://www.w3.org/1999/xlink">
<g id="graph1" class="graph" transform="scale(0.730068 0.730068) rotate(0) translate(4 247.747)">
<title>program~~integrate_burgers~~UsesGraph</title>
<polygon fill="white" stroke="white" points="-4,5 -4,-247.747 875,-247.747 875,5 -4,5"/>
<!-- program~integrate_burgers -->
<g id="node1" class="node"><title>program~integrate_burgers</title>
<polygon fill="none" stroke="black" points="869,-114.691 773,-114.691 773,-88.6914 869,-88.6914 869,-114.691"/>
<text text-anchor="middle" x="821" y="-99.2414" font-family="Helvetica,sans-Serif" font-size="10.50">integrate_burgers</text>
</g>
<!-- IR_Precision -->
<g id="node2" class="node"><title>IR_Precision</title>
<polygon fill="#337ab7" stroke="#337ab7" points="73,-104.691 1,-104.691 1,-78.6914 73,-78.6914 73,-104.691"/>
<text text-anchor="middle" x="37" y="-89.2414" font-family="Helvetica,sans-Serif" font-size="10.50" fill="white">IR_Precision</text>
</g>
<!-- IR_Precision&#45;&gt;program~integrate_burgers -->
<g id="edge28" class="edge"><title>IR_Precision&#45;&gt;program~integrate_burgers</title>
<path fill="none" stroke="black" stroke-dasharray="5,2" d="M152,-194.691C399.887,-272.786 491.379,-252.485 736,-164.691 760.881,-155.762 784.65,-136.962 800.694,-122.212"/>
<polygon fill="black" stroke="black" points="803.507,-124.367 808.345,-114.941 798.685,-119.293 803.507,-124.367"/>
</g>
<!-- module~type_burgers -->
<g id="node6" class="node"><title>module~type_burgers</title>
<a xlink:href="../module/type_burgers.html" xlink:title="type_burgers">
<polygon fill="#337ab7" stroke="#337ab7" points="676,-29.6914 600,-29.6914 600,-3.69137 676,-3.69137 676,-29.6914"/>
<text text-anchor="middle" x="638" y="-14.2414" font-family="Helvetica,sans-Serif" font-size="10.50" fill="white">type_burgers</text>
</a>
</g>
<!-- IR_Precision&#45;&gt;module~type_burgers -->
<g id="edge24" class="edge"><title>IR_Precision&#45;&gt;module~type_burgers</title>
<path fill="none" stroke="black" stroke-dasharray="5,2" d="M54.0979,-78.419C75.556,-62.6907 114.153,-37.3948 152,-27.6914"/>
<path fill="none" stroke="black" stroke-dasharray="5,2" d="M152,-27.6914C186.891,-18.746 194.321,-10.6268 230,-5.69137 311.006,5.51403 332.247,-3.68524 414,-5.69137 474.667,-7.18006 544.492,-10.9334 589.837,-13.642"/>
<polygon fill="black" stroke="black" points="589.779,-17.1448 599.972,-14.2544 590.201,-10.1576 589.779,-17.1448"/>
</g>
<!-- module~foodie_integrator_tvd_runge_kutta -->
<g id="node7" class="node"><title>module~foodie_integrator_tvd_runge_kutta</title>
<a xlink:href="../module/foodie_integrator_tvd_runge_kutta.html" xlink:title="foodie_integrator_tvd_runge_kutta">
<polygon fill="#337ab7" stroke="#337ab7" points="410,-84.6914 234,-84.6914 234,-58.6914 410,-58.6914 410,-84.6914"/>
<text text-anchor="middle" x="322" y="-69.2414" font-family="Helvetica,sans-Serif" font-size="10.50" fill="white">foodie_integrator_tvd_runge_kutta</text>
</a>
</g>
<!-- IR_Precision&#45;&gt;module~foodie_integrator_tvd_runge_kutta -->
<g id="edge2" class="edge"><title>IR_Precision&#45;&gt;module~foodie_integrator_tvd_runge_kutta</title>
<path fill="none" stroke="black" stroke-dasharray="5,2" d="M152,-27.6914C186.891,-18.746 195.144,-40.6121 230,-49.6914 238.429,-51.887 247.315,-54.1171 256.105,-56.2733"/>
<polygon fill="black" stroke="black" points="255.417,-59.7079 265.961,-58.6705 257.072,-52.9062 255.417,-59.7079"/>
</g>
<!-- module~foodie_integrator_adams_bashforth -->
<g id="node8" class="node"><title>module~foodie_integrator_adams_bashforth</title>
<a xlink:href="../module/foodie_integrator_adams_bashforth.html" xlink:title="foodie_integrator_adams_bashforth">
<polygon fill="#337ab7" stroke="#337ab7" points="413,-40.6914 231,-40.6914 231,-14.6914 413,-14.6914 413,-40.6914"/>
<text text-anchor="middle" x="322" y="-25.2414" font-family="Helvetica,sans-Serif" font-size="10.50" fill="white">foodie_integrator_adams_bashforth</text>
</a>
</g>
<!-- IR_Precision&#45;&gt;module~foodie_integrator_adams_bashforth -->
<g id="edge6" class="edge"><title>IR_Precision&#45;&gt;module~foodie_integrator_adams_bashforth</title>
<path fill="none" stroke="black" stroke-dasharray="5,2" d="M152,-27.6914C173.569,-22.1614 197.19,-19.8909 219.78,-19.4389"/>
<polygon fill="black" stroke="black" points="220.105,-22.9365 230.076,-19.3541 220.047,-15.9367 220.105,-22.9365"/>
</g>
<!-- module~type_integrand -->
<g id="node9" class="node"><title>module~type_integrand</title>
<a xlink:href="../module/type_integrand.html" xlink:title="type_integrand">
<polygon fill="#337ab7" stroke="#337ab7" points="194,-104.691 110,-104.691 110,-78.6914 194,-78.6914 194,-104.691"/>
<text text-anchor="middle" x="152" y="-89.2414" font-family="Helvetica,sans-Serif" font-size="10.50" fill="white">type_integrand</text>
</a>
</g>
<!-- IR_Precision&#45;&gt;module~type_integrand -->
<g id="edge10" class="edge"><title>IR_Precision&#45;&gt;module~type_integrand</title>
<path fill="none" stroke="black" stroke-dasharray="5,2" d="M73.7029,-91.6914C81.9237,-91.6914 90.8,-91.6914 99.521,-91.6914"/>
<polygon fill="black" stroke="black" points="99.6389,-95.1915 109.639,-91.6914 99.6388,-88.1915 99.6389,-95.1915"/>
</g>
<!-- module~foodie_integrator_euler_explicit -->
<g id="node10" class="node"><title>module~foodie_integrator_euler_explicit</title>
<a xlink:href="../module/foodie_integrator_euler_explicit.html" xlink:title="foodie_integrator_euler_explicit">
<polygon fill="#337ab7" stroke="#337ab7" points="403,-166.691 241,-166.691 241,-140.691 403,-140.691 403,-166.691"/>
<text text-anchor="middle" x="322" y="-151.241" font-family="Helvetica,sans-Serif" font-size="10.50" fill="white">foodie_integrator_euler_explicit</text>
</a>
</g>
<!-- IR_Precision&#45;&gt;module~foodie_integrator_euler_explicit -->
<g id="edge12" class="edge"><title>IR_Precision&#45;&gt;module~foodie_integrator_euler_explicit</title>
<path fill="none" stroke="black" stroke-dasharray="5,2" d="M45.7657,-104.886C62.7711,-129.022 102.917,-179.228 152,-194.691"/>
<path fill="none" stroke="black" stroke-dasharray="5,2" d="M152,-194.691C163.196,-198.218 222.906,-182.521 268.429,-169.539"/>
<polygon fill="black" stroke="black" points="269.55,-172.859 278.195,-166.734 267.618,-166.131 269.55,-172.859"/>
</g>
<!-- pyplot_module -->
<g id="node3" class="node"><title>pyplot_module</title>
<polygon fill="#337ab7" stroke="#337ab7" points="679,-155.691 597,-155.691 597,-129.691 679,-129.691 679,-155.691"/>
<text text-anchor="middle" x="638" y="-140.241" font-family="Helvetica,sans-Serif" font-size="10.50" fill="white">pyplot_module</text>
</g>
<!-- pyplot_module&#45;&gt;program~integrate_burgers -->
<g id="edge30" class="edge"><title>pyplot_module&#45;&gt;program~integrate_burgers</title>
<path fill="none" stroke="black" stroke-dasharray="5,2" d="M679.069,-133.49C703.659,-127.981 735.315,-120.889 762.489,-114.8"/>
<polygon fill="black" stroke="black" points="763.284,-118.209 772.277,-112.608 761.753,-111.379 763.284,-118.209"/>
</g>
<!-- module~foodie -->
<g id="node4" class="node"><title>module~foodie</title>
<a xlink:href="../module/foodie.html" xlink:title="foodie">
<polygon fill="#337ab7" stroke="#337ab7" points="504,-104.691 450,-104.691 450,-78.6914 504,-78.6914 504,-104.691"/>
<text text-anchor="middle" x="477" y="-89.2414" font-family="Helvetica,sans-Serif" font-size="10.50" fill="white">foodie</text>
</a>
</g>
<!-- module~foodie&#45;&gt;program~integrate_burgers -->
<g id="edge32" class="edge"><title>module~foodie&#45;&gt;program~integrate_burgers</title>
<path fill="none" stroke="black" stroke-dasharray="5,2" d="M504.281,-92.4844C559.754,-94.097 686.811,-97.7905 762.053,-99.9778"/>
<polygon fill="black" stroke="black" points="762.216,-103.484 772.314,-100.276 762.42,-96.4869 762.216,-103.484"/>
</g>
<!-- module~foodie&#45;&gt;module~type_burgers -->
<g id="edge26" class="edge"><title>module~foodie&#45;&gt;module~type_burgers</title>
<path fill="none" stroke="black" stroke-dasharray="5,2" d="M489.184,-78.2804C500.998,-66.1076 520.022,-48.5926 540,-38.6914 555.397,-31.0608 573.462,-26.0449 589.859,-22.7614"/>
<polygon fill="black" stroke="black" points="590.611,-26.1819 599.815,-20.9329 589.347,-19.297 590.611,-26.1819"/>
</g>
<!-- Data_Type_Command_Line_Interface -->
<g id="node5" class="node"><title>Data_Type_Command_Line_Interface</title>
<polygon fill="#337ab7" stroke="#337ab7" points="735,-73.6914 541,-73.6914 541,-47.6914 735,-47.6914 735,-73.6914"/>
<text text-anchor="middle" x="638" y="-58.2414" font-family="Helvetica,sans-Serif" font-size="10.50" fill="white">Data_Type_Command_Line_Interface</text>
</g>
<!-- Data_Type_Command_Line_Interface&#45;&gt;program~integrate_burgers -->
<g id="edge34" class="edge"><title>Data_Type_Command_Line_Interface&#45;&gt;program~integrate_burgers</title>
<path fill="none" stroke="black" stroke-dasharray="5,2" d="M696.154,-73.7204C717.296,-78.457 741.189,-83.8102 762.372,-88.556"/>
<polygon fill="black" stroke="black" points="761.687,-91.9893 772.21,-90.7603 763.217,-85.1586 761.687,-91.9893"/>
</g>
<!-- module~type_burgers&#45;&gt;program~integrate_burgers -->
<g id="edge36" class="edge"><title>module~type_burgers&#45;&gt;program~integrate_burgers</title>
<path fill="none" stroke="black" stroke-dasharray="5,2" d="M676.421,-21.5111C695.008,-24.783 717.291,-30.1264 736,-38.6914 759.609,-49.4998 783.062,-67.5809 799.333,-81.6074"/>
<polygon fill="black" stroke="black" points="797.338,-84.5152 807.15,-88.5128 801.972,-79.269 797.338,-84.5152"/>
</g>
<!-- module~foodie_integrator_tvd_runge_kutta&#45;&gt;module~foodie -->
<g id="edge16" class="edge"><title>module~foodie_integrator_tvd_runge_kutta&#45;&gt;module~foodie</title>
<path fill="none" stroke="black" stroke-dasharray="5,2" d="M410.816,-83.1516C421.026,-84.4689 430.968,-85.7517 439.913,-86.9059"/>
<polygon fill="black" stroke="black" points="439.545,-90.3874 449.911,-88.196 440.441,-83.445 439.545,-90.3874"/>
</g>
<!-- module~foodie_integrator_adams_bashforth&#45;&gt;module~foodie -->
<g id="edge18" class="edge"><title>module~foodie_integrator_adams_bashforth&#45;&gt;module~foodie</title>
<path fill="none" stroke="black" stroke-dasharray="5,2" d="M389.243,-40.8319C397.729,-43.3415 406.173,-46.2767 414,-49.6914 427.634,-55.6391 441.524,-64.5348 452.78,-72.6102"/>
<polygon fill="black" stroke="black" points="450.705,-75.4291 460.826,-78.5633 454.868,-69.8019 450.705,-75.4291"/>
</g>
<!-- module~type_integrand&#45;&gt;module~foodie -->
<g id="edge20" class="edge"><title>module~type_integrand&#45;&gt;module~foodie</title>
<path fill="none" stroke="black" stroke-dasharray="5,2" d="M194.096,-92.9684C205.726,-93.2673 218.351,-93.5421 230,-93.6914 311.771,-94.7395 332.233,-94.9889 414,-93.6914 422.323,-93.5593 431.263,-93.3291 439.718,-93.0708"/>
<polygon fill="black" stroke="black" points="439.835,-96.5689 449.716,-92.7464 439.608,-89.5726 439.835,-96.5689"/>
</g>
<!-- module~type_integrand&#45;&gt;module~foodie_integrator_tvd_runge_kutta -->
<g id="edge4" class="edge"><title>module~type_integrand&#45;&gt;module~foodie_integrator_tvd_runge_kutta</title>
<path fill="none" stroke="black" stroke-dasharray="5,2" d="M194.022,-86.7475C203.019,-85.6891 212.887,-84.5281 223.029,-83.3351"/>
<polygon fill="black" stroke="black" points="223.716,-86.7784 233.239,-82.1339 222.898,-79.8264 223.716,-86.7784"/>
</g>
<!-- module~type_integrand&#45;&gt;module~foodie_integrator_adams_bashforth -->
<g id="edge8" class="edge"><title>module~type_integrand&#45;&gt;module~foodie_integrator_adams_bashforth</title>
<path fill="none" stroke="black" stroke-dasharray="5,2" d="M172.812,-78.5576C188.133,-69.3749 209.738,-57.4186 230,-49.6914 235.841,-47.464 241.978,-45.4127 248.195,-43.5343"/>
<polygon fill="black" stroke="black" points="249.351,-46.8441 257.999,-40.7243 247.422,-40.115 249.351,-46.8441"/>
</g>
<!-- module~type_integrand&#45;&gt;module~foodie_integrator_euler_explicit -->
<g id="edge14" class="edge"><title>module~type_integrand&#45;&gt;module~foodie_integrator_euler_explicit</title>
<path fill="none" stroke="black" stroke-dasharray="5,2" d="M178.698,-104.759C193.59,-111.771 212.595,-120.266 230,-126.691 240.629,-130.615 252.109,-134.361 263.236,-137.746"/>
<polygon fill="black" stroke="black" points="262.311,-141.122 272.894,-140.623 264.31,-134.413 262.311,-141.122"/>
</g>
<!-- module~foodie_integrator_euler_explicit&#45;&gt;module~foodie -->
<g id="edge22" class="edge"><title>module~foodie_integrator_euler_explicit&#45;&gt;module~foodie</title>
<path fill="none" stroke="black" stroke-dasharray="5,2" d="M373.797,-140.672C387.103,-136.737 401.255,-132.024 414,-126.691 425.338,-121.947 437.25,-115.691 447.627,-109.782"/>
<polygon fill="black" stroke="black" points="449.423,-112.786 456.297,-104.724 445.896,-106.739 449.423,-112.786"/>
</g>
</g>
</svg>
