<?xml version="1.0" encoding="UTF-8" standalone="no"?>
<!DOCTYPE svg PUBLIC "-//W3C//DTD SVG 1.1//EN"
 "http://www.w3.org/Graphics/SVG/1.1/DTD/svg11.dtd">
<!-- Generated by graphviz version 2.26.3 (20100126.1600)
 -->
<!-- Title: program~~integrate_oscillation~~CallsGraph Pages: 1 -->
<svg width="328pt" height="166pt"
 viewBox="0.00 0.00 328.00 166.00" xmlns="http://www.w3.org/2000/svg" xmlns:xlink="http://www.w3.org/1999/xlink">
<g id="graph1" class="graph" transform="scale(1 1) rotate(0) translate(4 162)">
<title>program~~integrate_oscillation~~CallsGraph</title>
<polygon fill="white" stroke="white" points="-4,5 -4,-162 325,-162 325,5 -4,5"/>
<!-- program~integrate_oscillation -->
<g id="node1" class="node"><title>program~integrate_oscillation</title>
<polygon fill="none" stroke="black" points="107,-92 1,-92 1,-66 107,-66 107,-92"/>
<text text-anchor="middle" x="54" y="-76.55" font-family="Helvetica,sans-Serif" font-size="10.50">integrate_oscillation</text>
</g>
<!-- proc~test_euler~4 -->
<g id="node2" class="node"><title>proc~test_euler~4</title>
<a xlink:href="../proc/test_euler%7E4.html" xlink:title="test_euler">
<polygon fill="#d9534f" stroke="#d9534f" points="207,-158 147,-158 147,-132 207,-132 207,-158"/>
<text text-anchor="middle" x="177" y="-142.55" font-family="Helvetica,sans-Serif" font-size="10.50" fill="white">test_euler</text>
</a>
</g>
<!-- program~integrate_oscillation&#45;&gt;proc~test_euler~4 -->
<g id="edge16" class="edge"><title>program~integrate_oscillation&#45;&gt;proc~test_euler~4</title>
<path fill="none" stroke="black" d="M78.3008,-92.0395C97.0005,-102.073 123.05,-116.051 143.692,-127.127"/>
<polygon fill="black" stroke="black" points="142.283,-130.343 152.75,-131.988 145.593,-124.175 142.283,-130.343"/>
</g>
<!-- proc~test_ab~4 -->
<g id="node3" class="node"><title>proc~test_ab~4</title>
<a xlink:href="../proc/test_ab%7E4.html" xlink:title="test_ab">
<polygon fill="#d9534f" stroke="#d9534f" points="204,-114 150,-114 150,-88 204,-88 204,-114"/>
<text text-anchor="middle" x="177" y="-98.55" font-family="Helvetica,sans-Serif" font-size="10.50" fill="white">test_ab</text>
</a>
</g>
<!-- program~integrate_oscillation&#45;&gt;proc~test_ab~4 -->
<g id="edge18" class="edge"><title>program~integrate_oscillation&#45;&gt;proc~test_ab~4</title>
<path fill="none" stroke="black" d="M107.592,-88.5855C118.451,-90.5278 129.644,-92.5298 139.787,-94.344"/>
<polygon fill="black" stroke="black" points="139.459,-97.8408 149.919,-96.1563 140.692,-90.9502 139.459,-97.8408"/>
</g>
<!-- proc~test_ls_rk~4 -->
<g id="node4" class="node"><title>proc~test_ls_rk~4</title>
<a xlink:href="../proc/test_ls_rk%7E4.html" xlink:title="test_ls_rk">
<polygon fill="#d9534f" stroke="#d9534f" points="206,-70 148,-70 148,-44 206,-44 206,-70"/>
<text text-anchor="middle" x="177" y="-54.55" font-family="Helvetica,sans-Serif" font-size="10.50" fill="white">test_ls_rk</text>
</a>
</g>
<!-- program~integrate_oscillation&#45;&gt;proc~test_ls_rk~4 -->
<g id="edge20" class="edge"><title>program~integrate_oscillation&#45;&gt;proc~test_ls_rk~4</title>
<path fill="none" stroke="black" d="M107.592,-69.4145C117.766,-67.5947 128.233,-65.7225 137.856,-64.0014"/>
<polygon fill="black" stroke="black" points="138.684,-67.4089 147.912,-62.2028 137.452,-60.5182 138.684,-67.4089"/>
</g>
<!-- proc~test_tvd_rk~4 -->
<g id="node5" class="node"><title>proc~test_tvd_rk~4</title>
<a xlink:href="../proc/test_tvd_rk%7E4.html" xlink:title="test_tvd_rk">
<polygon fill="#d9534f" stroke="#d9534f" points="209,-26 145,-26 145,-1.24345e-14 209,-3.55271e-15 209,-26"/>
<text text-anchor="middle" x="177" y="-10.55" font-family="Helvetica,sans-Serif" font-size="10.50" fill="white">test_tvd_rk</text>
</a>
</g>
<!-- program~integrate_oscillation&#45;&gt;proc~test_tvd_rk~4 -->
<g id="edge22" class="edge"><title>program~integrate_oscillation&#45;&gt;proc~test_tvd_rk~4</title>
<path fill="none" stroke="black" d="M78.3008,-65.9605C97.0005,-55.9266 123.05,-41.9489 143.692,-30.8727"/>
<polygon fill="black" stroke="black" points="145.593,-33.8247 152.75,-26.0124 142.283,-27.6566 145.593,-33.8247"/>
</g>
<!-- proc~save_results~4 -->
<g id="node6" class="node"><title>proc~save_results~4</title>
<a xlink:href="../proc/save_results%7E4.html" xlink:title="save_results">
<polygon fill="#d9534f" stroke="#d9534f" points="319,-114 247,-114 247,-88 319,-88 319,-114"/>
<text text-anchor="middle" x="283" y="-98.55" font-family="Helvetica,sans-Serif" font-size="10.50" fill="white">save_results</text>
</a>
</g>
<!-- proc~test_euler~4&#45;&gt;proc~save_results~4 -->
<g id="edge2" class="edge"><title>proc~test_euler~4&#45;&gt;proc~save_results~4</title>
<path fill="none" stroke="black" d="M207.092,-132.509C217.899,-128.023 230.279,-122.884 241.863,-118.076"/>
<polygon fill="black" stroke="black" points="243.459,-121.203 251.354,-114.136 240.776,-114.738 243.459,-121.203"/>
</g>
<!-- proc~test_ab~4&#45;&gt;proc~save_results~4 -->
<g id="edge6" class="edge"><title>proc~test_ab~4&#45;&gt;proc~save_results~4</title>
<path fill="none" stroke="black" d="M204.023,-101C213.885,-101 225.341,-101 236.418,-101"/>
<polygon fill="black" stroke="black" points="236.427,-104.5 246.427,-101 236.427,-97.5001 236.427,-104.5"/>
</g>
<!-- str -->
<g id="node8" class="node"><title>str</title>
<polygon fill="#777777" stroke="#777777" points="310,-70 256,-70 256,-44 310,-44 310,-70"/>
<text text-anchor="middle" x="283" y="-54.55" font-family="Helvetica,sans-Serif" font-size="10.50" fill="white">str</text>
</g>
<!-- proc~test_ab~4&#45;&gt;str -->
<g id="edge4" class="edge"><title>proc~test_ab~4&#45;&gt;str</title>
<path fill="none" stroke="black" d="M204.023,-89.7831C216.881,-84.4458 232.449,-77.9836 246.352,-72.2123"/>
<polygon fill="black" stroke="black" points="247.764,-75.4158 255.658,-68.3494 245.08,-68.9507 247.764,-75.4158"/>
</g>
<!-- proc~test_ls_rk~4&#45;&gt;proc~save_results~4 -->
<g id="edge10" class="edge"><title>proc~test_ls_rk~4&#45;&gt;proc~save_results~4</title>
<path fill="none" stroke="black" d="M206.246,-69.1397C217.367,-73.7561 230.248,-79.1028 242.243,-84.0822"/>
<polygon fill="black" stroke="black" points="241.046,-87.3745 251.623,-87.9757 243.729,-80.9093 241.046,-87.3745"/>
</g>
<!-- proc~test_ls_rk~4&#45;&gt;str -->
<g id="edge8" class="edge"><title>proc~test_ls_rk~4&#45;&gt;str</title>
<path fill="none" stroke="black" d="M206.246,-57C218.431,-57 232.728,-57 245.659,-57"/>
<polygon fill="black" stroke="black" points="245.67,-60.5001 255.67,-57 245.67,-53.5001 245.67,-60.5001"/>
</g>
<!-- proc~test_tvd_rk~4&#45;&gt;proc~save_results~4 -->
<g id="edge14" class="edge"><title>proc~test_tvd_rk~4&#45;&gt;proc~save_results~4</title>
<path fill="none" stroke="black" d="M198.64,-26.0793C202.577,-28.8283 206.531,-31.8548 210,-35 228.718,-51.9725 226.851,-62.5157 246,-79 247.285,-80.1062 248.633,-81.189 250.022,-82.2441"/>
<polygon fill="black" stroke="black" points="248.069,-85.149 258.287,-87.9506 252.047,-79.3886 248.069,-85.149"/>
</g>
<!-- proc~test_tvd_rk~4&#45;&gt;str -->
<g id="edge12" class="edge"><title>proc~test_tvd_rk~4&#45;&gt;str</title>
<path fill="none" stroke="black" d="M208.517,-26.0823C220.362,-30.9995 233.932,-36.6321 246.216,-41.731"/>
<polygon fill="black" stroke="black" points="245.156,-45.0806 255.734,-45.6819 247.839,-38.6154 245.156,-45.0806"/>
</g>
</g>
</svg>
