<?xml version="1.0" encoding="UTF-8" standalone="no"?>
<!DOCTYPE svg PUBLIC "-//W3C//DTD SVG 1.1//EN"
 "http://www.w3.org/Graphics/SVG/1.1/DTD/svg11.dtd">
<!-- Generated by graphviz version 2.26.3 (20100126.1600)
 -->
<!-- Title: program~~integrate_lorenz~~UsesGraph Pages: 1 -->
<svg width="641pt" height="221pt"
 viewBox="0.00 0.00 641.00 221.43" xmlns="http://www.w3.org/2000/svg" xmlns:xlink="http://www.w3.org/1999/xlink">
<g id="graph1" class="graph" transform="scale(0.707506 0.707506) rotate(0) translate(4 308.974)">
<title>program~~integrate_lorenz~~UsesGraph</title>
<polygon fill="white" stroke="white" points="-4,5 -4,-308.974 903,-308.974 903,5 -4,5"/>
<!-- program~integrate_lorenz -->
<g id="node1" class="node"><title>program~integrate_lorenz</title>
<polygon fill="none" stroke="black" points="898,-249.705 808,-249.705 808,-223.705 898,-223.705 898,-249.705"/>
<text text-anchor="middle" x="853" y="-234.255" font-family="Helvetica,sans-Serif" font-size="10.50">integrate_lorenz</text>
</g>
<!-- IR_Precision -->
<g id="node2" class="node"><title>IR_Precision</title>
<polygon fill="#337ab7" stroke="#337ab7" points="73,-162.705 1,-162.705 1,-136.705 73,-136.705 73,-162.705"/>
<text text-anchor="middle" x="37" y="-147.255" font-family="Helvetica,sans-Serif" font-size="10.50" fill="white">IR_Precision</text>
</g>
<!-- IR_Precision&#45;&gt;program~integrate_lorenz -->
<g id="edge40" class="edge"><title>IR_Precision&#45;&gt;program~integrate_lorenz</title>
<path fill="none" stroke="black" stroke-dasharray="5,2" d="M152,-258.705C372.967,-331.71 441.338,-294.746 674,-299.705"/>
</g>
<!-- module~type_lorenz -->
<g id="node6" class="node"><title>module~type_lorenz</title>
<a xlink:href="../module/type_lorenz.html" xlink:title="type_lorenz">
<polygon fill="#337ab7" stroke="#337ab7" points="708,-183.705 640,-183.705 640,-157.705 708,-157.705 708,-183.705"/>
<text text-anchor="middle" x="674" y="-168.255" font-family="Helvetica,sans-Serif" font-size="10.50" fill="white">type_lorenz</text>
</a>
</g>
<!-- IR_Precision&#45;&gt;module~type_lorenz -->
<g id="edge36" class="edge"><title>IR_Precision&#45;&gt;module~type_lorenz</title>
<path fill="none" stroke="black" stroke-dasharray="5,2" d="M46.156,-136.422C63.5116,-112.571 103.807,-63.2494 152,-44.7051"/>
<path fill="none" stroke="black" stroke-dasharray="5,2" d="M152,-44.7051C275.946,2.98819 322.814,15.517 450,-22.7051 533.83,-47.8977 615.211,-115.774 652.624,-150.152"/>
<polygon fill="black" stroke="black" points="650.639,-153.087 660.341,-157.345 655.412,-147.966 650.639,-153.087"/>
</g>
<!-- module~foodie_integrator_leapfrog -->
<g id="node7" class="node"><title>module~foodie_integrator_leapfrog</title>
<a xlink:href="../module/foodie_integrator_leapfrog.html" xlink:title="foodie_integrator_leapfrog">
<polygon fill="#337ab7" stroke="#337ab7" points="409,-227.705 271,-227.705 271,-201.705 409,-201.705 409,-227.705"/>
<text text-anchor="middle" x="340" y="-212.255" font-family="Helvetica,sans-Serif" font-size="10.50" fill="white">foodie_integrator_leapfrog</text>
</a>
</g>
<!-- IR_Precision&#45;&gt;module~foodie_integrator_leapfrog -->
<g id="edge2" class="edge"><title>IR_Precision&#45;&gt;module~foodie_integrator_leapfrog</title>
<path fill="none" stroke="black" stroke-dasharray="5,2" d="M152,-258.705C186.201,-270.005 194.981,-245.132 230,-236.705 239.901,-234.323 250.346,-231.995 260.701,-229.8"/>
<polygon fill="black" stroke="black" points="261.506,-233.208 270.58,-227.739 260.076,-226.356 261.506,-233.208"/>
</g>
<!-- module~foodie_integrator_low_storage_runge_kutta -->
<g id="node8" class="node"><title>module~foodie_integrator_low_storage_runge_kutta</title>
<a xlink:href="../module/foodie_integrator_low_storage_runge_kutta.html" xlink:title="foodie_integrator_low_storage_runge_kutta">
<polygon fill="#337ab7" stroke="#337ab7" points="450,-183.705 230,-183.705 230,-157.705 450,-157.705 450,-183.705"/>
<text text-anchor="middle" x="340" y="-168.255" font-family="Helvetica,sans-Serif" font-size="10.50" fill="white">foodie_integrator_low_storage_runge_kutta</text>
</a>
</g>
<!-- IR_Precision&#45;&gt;module~foodie_integrator_low_storage_runge_kutta -->
<g id="edge6" class="edge"><title>IR_Precision&#45;&gt;module~foodie_integrator_low_storage_runge_kutta</title>
<path fill="none" stroke="black" stroke-dasharray="5,2" d="M45.0521,-162.842C61.4134,-187.999 101.328,-241.964 152,-258.705"/>
<path fill="none" stroke="black" stroke-dasharray="5,2" d="M152,-258.705C195.119,-272.951 189.106,-212.45 230,-192.705 234.321,-190.618 238.83,-188.73 243.45,-187.02"/>
<polygon fill="black" stroke="black" points="244.72,-190.285 253.064,-183.756 242.47,-183.657 244.72,-190.285"/>
</g>
<!-- module~foodie_integrator_tvd_runge_kutta -->
<g id="node9" class="node"><title>module~foodie_integrator_tvd_runge_kutta</title>
<a xlink:href="../module/foodie_integrator_tvd_runge_kutta.html" xlink:title="foodie_integrator_tvd_runge_kutta">
<polygon fill="#337ab7" stroke="#337ab7" points="428,-101.705 252,-101.705 252,-75.7051 428,-75.7051 428,-101.705"/>
<text text-anchor="middle" x="340" y="-86.2551" font-family="Helvetica,sans-Serif" font-size="10.50" fill="white">foodie_integrator_tvd_runge_kutta</text>
</a>
</g>
<!-- IR_Precision&#45;&gt;module~foodie_integrator_tvd_runge_kutta -->
<g id="edge10" class="edge"><title>IR_Precision&#45;&gt;module~foodie_integrator_tvd_runge_kutta</title>
<path fill="none" stroke="black" stroke-dasharray="5,2" d="M152,-44.7051C185.616,-31.7698 194.981,-58.2779 230,-66.7051 239.901,-69.0877 250.346,-71.4148 260.701,-73.6097"/>
<polygon fill="black" stroke="black" points="260.076,-77.0545 270.58,-75.671 261.506,-70.2021 260.076,-77.0545"/>
</g>
<!-- module~type_integrand -->
<g id="node10" class="node"><title>module~type_integrand</title>
<a xlink:href="../module/type_integrand.html" xlink:title="type_integrand">
<polygon fill="#337ab7" stroke="#337ab7" points="194,-162.705 110,-162.705 110,-136.705 194,-136.705 194,-162.705"/>
<text text-anchor="middle" x="152" y="-147.255" font-family="Helvetica,sans-Serif" font-size="10.50" fill="white">type_integrand</text>
</a>
</g>
<!-- IR_Precision&#45;&gt;module~type_integrand -->
<g id="edge14" class="edge"><title>IR_Precision&#45;&gt;module~type_integrand</title>
<path fill="none" stroke="black" stroke-dasharray="5,2" d="M73.7029,-149.705C81.9237,-149.705 90.8,-149.705 99.521,-149.705"/>
<polygon fill="black" stroke="black" points="99.6389,-153.205 109.639,-149.705 99.6388,-146.205 99.6389,-153.205"/>
</g>
<!-- module~foodie_integrator_adams_bashforth -->
<g id="node11" class="node"><title>module~foodie_integrator_adams_bashforth</title>
<a xlink:href="../module/foodie_integrator_adams_bashforth.html" xlink:title="foodie_integrator_adams_bashforth">
<polygon fill="#337ab7" stroke="#337ab7" points="431,-57.7051 249,-57.7051 249,-31.7051 431,-31.7051 431,-57.7051"/>
<text text-anchor="middle" x="340" y="-42.2551" font-family="Helvetica,sans-Serif" font-size="10.50" fill="white">foodie_integrator_adams_bashforth</text>
</a>
</g>
<!-- IR_Precision&#45;&gt;module~foodie_integrator_adams_bashforth -->
<g id="edge16" class="edge"><title>IR_Precision&#45;&gt;module~foodie_integrator_adams_bashforth</title>
<path fill="none" stroke="black" stroke-dasharray="5,2" d="M152,-44.7051C179.521,-34.1151 211.033,-31 240.29,-31.4026"/>
<polygon fill="black" stroke="black" points="240.442,-34.908 250.535,-31.6853 240.635,-27.9107 240.442,-34.908"/>
</g>
<!-- module~foodie_integrator_euler_explicit -->
<g id="node12" class="node"><title>module~foodie_integrator_euler_explicit</title>
<a xlink:href="../module/foodie_integrator_euler_explicit.html" xlink:title="foodie_integrator_euler_explicit">
<polygon fill="#337ab7" stroke="#337ab7" points="421,-271.705 259,-271.705 259,-245.705 421,-245.705 421,-271.705"/>
<text text-anchor="middle" x="340" y="-256.255" font-family="Helvetica,sans-Serif" font-size="10.50" fill="white">foodie_integrator_euler_explicit</text>
</a>
</g>
<!-- IR_Precision&#45;&gt;module~foodie_integrator_euler_explicit -->
<g id="edge20" class="edge"><title>IR_Precision&#45;&gt;module~foodie_integrator_euler_explicit</title>
<path fill="none" stroke="black" stroke-dasharray="5,2" d="M152,-258.705C182.482,-268.776 217.292,-271.108 248.605,-270.162"/>
<polygon fill="black" stroke="black" points="248.793,-273.657 258.639,-269.745 248.502,-266.663 248.793,-273.657"/>
</g>
<!-- module~foodie -->
<g id="node3" class="node"><title>module~foodie</title>
<a xlink:href="../module/foodie.html" xlink:title="foodie">
<polygon fill="#337ab7" stroke="#337ab7" points="540,-183.705 486,-183.705 486,-157.705 540,-157.705 540,-183.705"/>
<text text-anchor="middle" x="513" y="-168.255" font-family="Helvetica,sans-Serif" font-size="10.50" fill="white">foodie</text>
</a>
</g>
<!-- module~foodie&#45;&gt;program~integrate_lorenz -->
<g id="edge42" class="edge"><title>module~foodie&#45;&gt;program~integrate_lorenz</title>
<path fill="none" stroke="black" stroke-dasharray="5,2" d="M516.622,-184.017C523.763,-207.566 541.995,-256.372 576,-280.705 612.081,-306.523 629.643,-298.76 674,-299.705"/>
<path fill="none" stroke="black" stroke-dasharray="5,2" d="M674,-299.705C718.357,-300.651 730.241,-295.691 772,-280.705 790.212,-274.169 809.289,-263.993 824.351,-255.072"/>
<polygon fill="black" stroke="black" points="826.433,-257.903 833.168,-249.724 822.803,-251.918 826.433,-257.903"/>
</g>
<!-- module~foodie&#45;&gt;module~type_lorenz -->
<g id="edge38" class="edge"><title>module~foodie&#45;&gt;module~type_lorenz</title>
<path fill="none" stroke="black" stroke-dasharray="5,2" d="M540.311,-170.705C564.762,-170.705 601.061,-170.705 629.667,-170.705"/>
<polygon fill="black" stroke="black" points="629.822,-174.205 639.822,-170.705 629.822,-167.205 629.822,-174.205"/>
</g>
<!-- Data_Type_Command_Line_Interface -->
<g id="node4" class="node"><title>Data_Type_Command_Line_Interface</title>
<polygon fill="#337ab7" stroke="#337ab7" points="771,-271.705 577,-271.705 577,-245.705 771,-245.705 771,-271.705"/>
<text text-anchor="middle" x="674" y="-256.255" font-family="Helvetica,sans-Serif" font-size="10.50" fill="white">Data_Type_Command_Line_Interface</text>
</g>
<!-- Data_Type_Command_Line_Interface&#45;&gt;program~integrate_lorenz -->
<g id="edge44" class="edge"><title>Data_Type_Command_Line_Interface&#45;&gt;program~integrate_lorenz</title>
<path fill="none" stroke="black" stroke-dasharray="5,2" d="M771.618,-246.707C780.575,-245.606 789.423,-244.519 797.798,-243.49"/>
<polygon fill="black" stroke="black" points="798.257,-246.96 807.756,-242.266 797.403,-240.012 798.257,-246.96"/>
</g>
<!-- pyplot_module -->
<g id="node5" class="node"><title>pyplot_module</title>
<polygon fill="#337ab7" stroke="#337ab7" points="715,-227.705 633,-227.705 633,-201.705 715,-201.705 715,-227.705"/>
<text text-anchor="middle" x="674" y="-212.255" font-family="Helvetica,sans-Serif" font-size="10.50" fill="white">pyplot_module</text>
</g>
<!-- pyplot_module&#45;&gt;program~integrate_lorenz -->
<g id="edge46" class="edge"><title>pyplot_module&#45;&gt;program~integrate_lorenz</title>
<path fill="none" stroke="black" stroke-dasharray="5,2" d="M715.066,-219.752C739.595,-222.767 771.069,-226.635 797.756,-229.915"/>
<polygon fill="black" stroke="black" points="797.374,-233.395 807.726,-231.141 798.228,-226.447 797.374,-233.395"/>
</g>
<!-- module~type_lorenz&#45;&gt;program~integrate_lorenz -->
<g id="edge48" class="edge"><title>module~type_lorenz&#45;&gt;program~integrate_lorenz</title>
<path fill="none" stroke="black" stroke-dasharray="5,2" d="M708.236,-175.988C727.37,-179.531 751.431,-184.981 772,-192.705 789.99,-199.461 808.924,-209.559 823.959,-218.378"/>
<polygon fill="black" stroke="black" points="822.397,-221.523 832.773,-223.663 825.996,-215.519 822.397,-221.523"/>
</g>
<!-- module~foodie_integrator_leapfrog&#45;&gt;module~foodie -->
<g id="edge24" class="edge"><title>module~foodie_integrator_leapfrog&#45;&gt;module~foodie</title>
<path fill="none" stroke="black" stroke-dasharray="5,2" d="M409.584,-202.307C423.071,-199.477 437.037,-196.246 450,-192.705 458.688,-190.332 467.91,-187.371 476.539,-184.398"/>
<polygon fill="black" stroke="black" points="477.706,-187.698 485.97,-181.068 475.375,-181.097 477.706,-187.698"/>
</g>
<!-- module~foodie_integrator_low_storage_runge_kutta&#45;&gt;module~foodie -->
<g id="edge26" class="edge"><title>module~foodie_integrator_low_storage_runge_kutta&#45;&gt;module~foodie</title>
<path fill="none" stroke="black" stroke-dasharray="5,2" d="M450.054,-170.705C459.125,-170.705 467.822,-170.705 475.703,-170.705"/>
<polygon fill="black" stroke="black" points="475.902,-174.205 485.902,-170.705 475.902,-167.205 475.902,-174.205"/>
</g>
<!-- module~foodie_integrator_tvd_runge_kutta&#45;&gt;module~foodie -->
<g id="edge28" class="edge"><title>module~foodie_integrator_tvd_runge_kutta&#45;&gt;module~foodie</title>
<path fill="none" stroke="black" stroke-dasharray="5,2" d="M414.258,-101.779C426.568,-105.385 438.92,-109.948 450,-115.705 466.699,-124.382 482.637,-138.37 494.305,-150.068"/>
<polygon fill="black" stroke="black" points="491.861,-152.576 501.321,-157.346 496.9,-147.718 491.861,-152.576"/>
</g>
<!-- module~type_integrand&#45;&gt;module~foodie -->
<g id="edge30" class="edge"><title>module~type_integrand&#45;&gt;module~foodie</title>
<path fill="none" stroke="black" stroke-dasharray="5,2" d="M194.32,-145.059C252.43,-139.698 359.971,-133.438 450,-148.705 458.702,-150.181 467.805,-152.727 476.298,-155.575"/>
<polygon fill="black" stroke="black" points="475.335,-158.947 485.929,-159.012 477.687,-152.354 475.335,-158.947"/>
</g>
<!-- module~type_integrand&#45;&gt;module~foodie_integrator_leapfrog -->
<g id="edge4" class="edge"><title>module~type_integrand&#45;&gt;module~foodie_integrator_leapfrog</title>
<path fill="none" stroke="black" stroke-dasharray="5,2" d="M171.717,-162.803C187.022,-172.408 209.088,-185.057 230,-192.705 239.703,-196.254 250.107,-199.276 260.507,-201.838"/>
<polygon fill="black" stroke="black" points="259.919,-205.295 270.452,-204.156 261.507,-198.478 259.919,-205.295"/>
</g>
<!-- module~type_integrand&#45;&gt;module~foodie_integrator_low_storage_runge_kutta -->
<g id="edge8" class="edge"><title>module~type_integrand&#45;&gt;module~foodie_integrator_low_storage_runge_kutta</title>
<path fill="none" stroke="black" stroke-dasharray="5,2" d="M194.191,-154.418C202.057,-155.297 210.626,-156.254 219.541,-157.25"/>
<polygon fill="black" stroke="black" points="219.408,-160.756 229.735,-158.388 220.185,-153.8 219.408,-160.756"/>
</g>
<!-- module~type_integrand&#45;&gt;module~foodie_integrator_tvd_runge_kutta -->
<g id="edge12" class="edge"><title>module~type_integrand&#45;&gt;module~foodie_integrator_tvd_runge_kutta</title>
<path fill="none" stroke="black" stroke-dasharray="5,2" d="M178.986,-136.586C193.804,-129.73 212.646,-121.569 230,-115.705 242.47,-111.491 255.939,-107.635 269.033,-104.237"/>
<polygon fill="black" stroke="black" points="270.112,-107.575 278.95,-101.73 268.397,-100.788 270.112,-107.575"/>
</g>
<!-- module~type_integrand&#45;&gt;module~foodie_integrator_adams_bashforth -->
<g id="edge18" class="edge"><title>module~type_integrand&#45;&gt;module~foodie_integrator_adams_bashforth</title>
<path fill="none" stroke="black" stroke-dasharray="5,2" d="M160.314,-136.672C172.962,-117.999 198.883,-83.9852 230,-66.7051 233.445,-64.7919 237.033,-63.0437 240.719,-61.4464"/>
<polygon fill="black" stroke="black" points="242.031,-64.6915 250.06,-57.7786 239.473,-58.1757 242.031,-64.6915"/>
</g>
<!-- module~type_integrand&#45;&gt;module~foodie_integrator_euler_explicit -->
<g id="edge22" class="edge"><title>module~type_integrand&#45;&gt;module~foodie_integrator_euler_explicit</title>
<path fill="none" stroke="black" stroke-dasharray="5,2" d="M159.747,-162.723C172.039,-182.152 197.935,-218.404 230,-236.705 235.966,-240.11 242.377,-242.995 248.996,-245.438"/>
<polygon fill="black" stroke="black" points="248.222,-248.869 258.815,-248.709 250.434,-242.228 248.222,-248.869"/>
</g>
<!-- module~foodie_integrator_adams_bashforth&#45;&gt;module~foodie -->
<g id="edge32" class="edge"><title>module~foodie_integrator_adams_bashforth&#45;&gt;module~foodie</title>
<path fill="none" stroke="black" stroke-dasharray="5,2" d="M431.644,-56.7158C438.135,-59.4419 444.34,-62.7344 450,-66.7051 478.428,-86.6488 496.335,-123.904 505.503,-147.988"/>
<polygon fill="black" stroke="black" points="502.218,-149.195 508.903,-157.414 508.803,-146.82 502.218,-149.195"/>
</g>
<!-- module~foodie_integrator_euler_explicit&#45;&gt;module~foodie -->
<g id="edge34" class="edge"><title>module~foodie_integrator_euler_explicit&#45;&gt;module~foodie</title>
<path fill="none" stroke="black" stroke-dasharray="5,2" d="M421.037,-248.445C431.132,-245.467 441.042,-241.634 450,-236.705 469.606,-225.917 486.759,-206.936 498.195,-192.09"/>
<polygon fill="black" stroke="black" points="501.107,-194.04 504.244,-183.92 495.481,-189.875 501.107,-194.04"/>
</g>
</g>
</svg>
