<?xml version="1.0" encoding="UTF-8" standalone="no"?>
<!DOCTYPE svg PUBLIC "-//W3C//DTD SVG 1.1//EN"
 "http://www.w3.org/Graphics/SVG/1.1/DTD/svg11.dtd">
<!-- Generated by graphviz version 2.26.3 (20100126.1600)
 -->
<!-- Title: program~~integrate_euler_1d_openmp~~UsesGraph Pages: 1 -->
<svg width="641pt" height="190pt"
 viewBox="0.00 0.00 641.00 189.81" xmlns="http://www.w3.org/2000/svg" xmlns:xlink="http://www.w3.org/1999/xlink">
<g id="graph1" class="graph" transform="scale(0.663561 0.663561) rotate(0) translate(4 282.043)">
<title>program~~integrate_euler_1d_openmp~~UsesGraph</title>
<polygon fill="white" stroke="white" points="-4,5 -4,-282.043 963,-282.043 963,5 -4,5"/>
<!-- program~integrate_euler_1d_openmp -->
<g id="node1" class="node"><title>program~integrate_euler_1d_openmp</title>
<polygon fill="none" stroke="black" points="957,-175 809,-175 809,-149 957,-149 957,-175"/>
<text text-anchor="middle" x="883" y="-159.55" font-family="Helvetica,sans-Serif" font-size="10.50">integrate_euler_1D_openmp</text>
</g>
<!-- IR_Precision -->
<g id="node2" class="node"><title>IR_Precision</title>
<polygon fill="#337ab7" stroke="#337ab7" points="73,-131 1,-131 1,-105 73,-105 73,-131"/>
<text text-anchor="middle" x="37" y="-115.55" font-family="Helvetica,sans-Serif" font-size="10.50" fill="white">IR_Precision</text>
</g>
<!-- IR_Precision&#45;&gt;program~integrate_euler_1d_openmp -->
<g id="edge42" class="edge"><title>IR_Precision&#45;&gt;program~integrate_euler_1d_openmp</title>
<path fill="none" stroke="black" stroke-dasharray="5,2" d="M513,-268C627.585,-254.14 664.349,-290.63 772,-249 809.057,-234.67 843.734,-203.551 864.159,-182.685"/>
<polygon fill="black" stroke="black" points="866.888,-184.895 871.265,-175.246 861.826,-180.06 866.888,-184.895"/>
</g>
<!-- module~type_euler_1d_openmp -->
<g id="node4" class="node"><title>module~type_euler_1d_openmp</title>
<a xlink:href="../module/type_euler_1d_openmp.html" xlink:title="type_euler_1D_openmp">
<polygon fill="#337ab7" stroke="#337ab7" points="737,-196 611,-196 611,-170 737,-170 737,-196"/>
<text text-anchor="middle" x="674" y="-180.55" font-family="Helvetica,sans-Serif" font-size="10.50" fill="white">type_euler_1D_openmp</text>
</a>
</g>
<!-- IR_Precision&#45;&gt;module~type_euler_1d_openmp -->
<g id="edge4" class="edge"><title>IR_Precision&#45;&gt;module~type_euler_1d_openmp</title>
<path fill="none" stroke="black" stroke-dasharray="5,2" d="M152,-227C305.324,-277.656 352.867,-288.78 513,-268"/>
<path fill="none" stroke="black" stroke-dasharray="5,2" d="M513,-268C552.311,-263.245 541.309,-224.092 576,-205 583.659,-200.785 592.076,-197.377 600.661,-194.622"/>
<polygon fill="black" stroke="black" points="601.775,-197.943 610.394,-191.781 599.814,-191.224 601.775,-197.943"/>
</g>
<!-- module~foodie_integrator_adams_bashforth -->
<g id="node12" class="node"><title>module~foodie_integrator_adams_bashforth</title>
<a xlink:href="../module/foodie_integrator_adams_bashforth.html" xlink:title="foodie_integrator_adams_bashforth">
<polygon fill="#337ab7" stroke="#337ab7" points="431,-196 249,-196 249,-170 431,-170 431,-196"/>
<text text-anchor="middle" x="340" y="-180.55" font-family="Helvetica,sans-Serif" font-size="10.50" fill="white">foodie_integrator_adams_bashforth</text>
</a>
</g>
<!-- IR_Precision&#45;&gt;module~foodie_integrator_adams_bashforth -->
<g id="edge10" class="edge"><title>IR_Precision&#45;&gt;module~foodie_integrator_adams_bashforth</title>
<path fill="none" stroke="black" stroke-dasharray="5,2" d="M152,-227C186.201,-238.3 194.981,-213.427 230,-205 239.901,-202.617 250.346,-200.29 260.701,-198.095"/>
<polygon fill="black" stroke="black" points="261.506,-201.503 270.58,-196.034 260.076,-194.651 261.506,-201.503"/>
</g>
<!-- module~foodie_integrator_euler_explicit -->
<g id="node13" class="node"><title>module~foodie_integrator_euler_explicit</title>
<a xlink:href="../module/foodie_integrator_euler_explicit.html" xlink:title="foodie_integrator_euler_explicit">
<polygon fill="#337ab7" stroke="#337ab7" points="421,-152 259,-152 259,-126 421,-126 421,-152"/>
<text text-anchor="middle" x="340" y="-136.55" font-family="Helvetica,sans-Serif" font-size="10.50" fill="white">foodie_integrator_euler_explicit</text>
</a>
</g>
<!-- IR_Precision&#45;&gt;module~foodie_integrator_euler_explicit -->
<g id="edge14" class="edge"><title>IR_Precision&#45;&gt;module~foodie_integrator_euler_explicit</title>
<path fill="none" stroke="black" stroke-dasharray="5,2" d="M45.0521,-131.137C61.4134,-156.294 101.328,-210.258 152,-227"/>
<path fill="none" stroke="black" stroke-dasharray="5,2" d="M152,-227C195.119,-241.246 189.106,-180.745 230,-161 236.068,-158.07 242.506,-155.53 249.102,-153.328"/>
<polygon fill="black" stroke="black" points="250.32,-156.616 258.855,-150.338 248.268,-149.923 250.32,-156.616"/>
</g>
<!-- module~foodie_integrator_leapfrog -->
<g id="node14" class="node"><title>module~foodie_integrator_leapfrog</title>
<a xlink:href="../module/foodie_integrator_leapfrog.html" xlink:title="foodie_integrator_leapfrog">
<polygon fill="#337ab7" stroke="#337ab7" points="409,-70 271,-70 271,-44 409,-44 409,-70"/>
<text text-anchor="middle" x="340" y="-54.55" font-family="Helvetica,sans-Serif" font-size="10.50" fill="white">foodie_integrator_leapfrog</text>
</a>
</g>
<!-- IR_Precision&#45;&gt;module~foodie_integrator_leapfrog -->
<g id="edge18" class="edge"><title>IR_Precision&#45;&gt;module~foodie_integrator_leapfrog</title>
<path fill="none" stroke="black" stroke-dasharray="5,2" d="M152,-57C186.311,-46.3076 225.886,-44.8131 259.85,-46.5823"/>
<polygon fill="black" stroke="black" points="259.999,-50.0984 270.198,-47.2295 260.436,-43.112 259.999,-50.0984"/>
</g>
<!-- module~foodie_integrator_low_storage_runge_kutta -->
<g id="node15" class="node"><title>module~foodie_integrator_low_storage_runge_kutta</title>
<a xlink:href="../module/foodie_integrator_low_storage_runge_kutta.html" xlink:title="foodie_integrator_low_storage_runge_kutta">
<polygon fill="#337ab7" stroke="#337ab7" points="450,-26 230,-26 230,-1.24345e-14 450,-3.55271e-15 450,-26"/>
<text text-anchor="middle" x="340" y="-10.55" font-family="Helvetica,sans-Serif" font-size="10.50" fill="white">foodie_integrator_low_storage_runge_kutta</text>
</a>
</g>
<!-- IR_Precision&#45;&gt;module~foodie_integrator_low_storage_runge_kutta -->
<g id="edge22" class="edge"><title>IR_Precision&#45;&gt;module~foodie_integrator_low_storage_runge_kutta</title>
<path fill="none" stroke="black" stroke-dasharray="5,2" d="M56.3661,-104.822C78.4618,-90.4969 116.183,-68.1619 152,-57"/>
<path fill="none" stroke="black" stroke-dasharray="5,2" d="M152,-57C186.388,-46.2835 194.981,-43.4272 230,-35 239.901,-32.6174 250.346,-30.2903 260.701,-28.0954"/>
<polygon fill="black" stroke="black" points="261.506,-31.503 270.58,-26.034 260.076,-24.6506 261.506,-31.503"/>
</g>
<!-- module~foodie_integrator_tvd_runge_kutta -->
<g id="node16" class="node"><title>module~foodie_integrator_tvd_runge_kutta</title>
<a xlink:href="../module/foodie_integrator_tvd_runge_kutta.html" xlink:title="foodie_integrator_tvd_runge_kutta">
<polygon fill="#337ab7" stroke="#337ab7" points="428,-240 252,-240 252,-214 428,-214 428,-240"/>
<text text-anchor="middle" x="340" y="-224.55" font-family="Helvetica,sans-Serif" font-size="10.50" fill="white">foodie_integrator_tvd_runge_kutta</text>
</a>
</g>
<!-- IR_Precision&#45;&gt;module~foodie_integrator_tvd_runge_kutta -->
<g id="edge26" class="edge"><title>IR_Precision&#45;&gt;module~foodie_integrator_tvd_runge_kutta</title>
<path fill="none" stroke="black" stroke-dasharray="5,2" d="M152,-227C180,-236.251 211.652,-238.972 240.892,-238.62"/>
<polygon fill="black" stroke="black" points="241.211,-242.114 251.123,-238.373 241.042,-235.116 241.211,-242.114"/>
</g>
<!-- module~type_integrand -->
<g id="node17" class="node"><title>module~type_integrand</title>
<a xlink:href="../module/type_integrand.html" xlink:title="type_integrand">
<polygon fill="#337ab7" stroke="#337ab7" points="194,-131 110,-131 110,-105 194,-105 194,-131"/>
<text text-anchor="middle" x="152" y="-115.55" font-family="Helvetica,sans-Serif" font-size="10.50" fill="white">type_integrand</text>
</a>
</g>
<!-- IR_Precision&#45;&gt;module~type_integrand -->
<g id="edge28" class="edge"><title>IR_Precision&#45;&gt;module~type_integrand</title>
<path fill="none" stroke="black" stroke-dasharray="5,2" d="M73.7029,-118C81.9237,-118 90.8,-118 99.521,-118"/>
<polygon fill="black" stroke="black" points="99.6389,-121.5 109.639,-118 99.6388,-114.5 99.6389,-121.5"/>
</g>
<!-- Data_Type_Command_Line_Interface -->
<g id="node3" class="node"><title>Data_Type_Command_Line_Interface</title>
<polygon fill="#337ab7" stroke="#337ab7" points="771,-240 577,-240 577,-214 771,-214 771,-240"/>
<text text-anchor="middle" x="674" y="-224.55" font-family="Helvetica,sans-Serif" font-size="10.50" fill="white">Data_Type_Command_Line_Interface</text>
</g>
<!-- Data_Type_Command_Line_Interface&#45;&gt;program~integrate_euler_1d_openmp -->
<g id="edge44" class="edge"><title>Data_Type_Command_Line_Interface&#45;&gt;program~integrate_euler_1d_openmp</title>
<path fill="none" stroke="black" stroke-dasharray="5,2" d="M738.408,-213.979C749.68,-211.292 761.239,-208.272 772,-205 796.067,-197.681 822.343,-187.601 843.285,-179.04"/>
<polygon fill="black" stroke="black" points="844.9,-182.159 852.804,-175.103 842.225,-175.691 844.9,-182.159"/>
</g>
<!-- module~type_euler_1d_openmp&#45;&gt;program~integrate_euler_1d_openmp -->
<g id="edge46" class="edge"><title>module~type_euler_1d_openmp&#45;&gt;program~integrate_euler_1d_openmp</title>
<path fill="none" stroke="black" stroke-dasharray="5,2" d="M737.558,-176.614C756.667,-174.694 777.946,-172.556 798.201,-170.521"/>
<polygon fill="black" stroke="black" points="798.763,-173.982 808.363,-169.499 798.064,-167.017 798.763,-173.982"/>
</g>
<!-- module~foodie -->
<g id="node5" class="node"><title>module~foodie</title>
<a xlink:href="../module/foodie.html" xlink:title="foodie">
<polygon fill="#337ab7" stroke="#337ab7" points="540,-152 486,-152 486,-126 540,-126 540,-152"/>
<text text-anchor="middle" x="513" y="-136.55" font-family="Helvetica,sans-Serif" font-size="10.50" fill="white">foodie</text>
</a>
</g>
<!-- module~foodie&#45;&gt;program~integrate_euler_1d_openmp -->
<g id="edge48" class="edge"><title>module~foodie&#45;&gt;program~integrate_euler_1d_openmp</title>
<path fill="none" stroke="black" stroke-dasharray="5,2" d="M540.207,-140.691C593.876,-144.027 715.361,-151.579 798.299,-156.735"/>
<polygon fill="black" stroke="black" points="798.27,-160.24 808.468,-157.367 798.704,-153.253 798.27,-160.24"/>
</g>
<!-- module~foodie&#45;&gt;module~type_euler_1d_openmp -->
<g id="edge6" class="edge"><title>module~foodie&#45;&gt;module~type_euler_1d_openmp</title>
<path fill="none" stroke="black" stroke-dasharray="5,2" d="M540.311,-146.464C561.154,-152.16 590.607,-160.209 616.565,-167.304"/>
<polygon fill="black" stroke="black" points="615.749,-170.709 626.318,-169.969 617.594,-163.956 615.749,-170.709"/>
</g>
<!-- pyplot_module -->
<g id="node6" class="node"><title>pyplot_module</title>
<polygon fill="#337ab7" stroke="#337ab7" points="715,-114 633,-114 633,-88 715,-88 715,-114"/>
<text text-anchor="middle" x="674" y="-98.55" font-family="Helvetica,sans-Serif" font-size="10.50" fill="white">pyplot_module</text>
</g>
<!-- pyplot_module&#45;&gt;program~integrate_euler_1d_openmp -->
<g id="edge50" class="edge"><title>pyplot_module&#45;&gt;program~integrate_euler_1d_openmp</title>
<path fill="none" stroke="black" stroke-dasharray="5,2" d="M715.079,-112.039C732.645,-116.831 753.36,-122.579 772,-128 791.611,-133.704 813.089,-140.22 831.883,-146.011"/>
<polygon fill="black" stroke="black" points="830.855,-149.356 841.443,-148.965 832.922,-142.668 830.855,-149.356"/>
</g>
<!-- omp_lib -->
<g id="node7" class="node"><title>omp_lib</title>
<a xlink:href="https://gcc.gnu.org/onlinedocs/gcc-4.4.3/libgomp/Runtime-Library-Routines.html" xlink:title="omp_lib">
<polygon fill="#337ab7" stroke="#337ab7" points="701,-70 647,-70 647,-44 701,-44 701,-70"/>
<text text-anchor="middle" x="674" y="-54.55" font-family="Helvetica,sans-Serif" font-size="10.50" fill="white">omp_lib</text>
</a>
</g>
<!-- omp_lib&#45;&gt;program~integrate_euler_1d_openmp -->
<g id="edge52" class="edge"><title>omp_lib&#45;&gt;program~integrate_euler_1d_openmp</title>
<path fill="none" stroke="black" stroke-dasharray="5,2" d="M701.187,-59.9802C721.425,-62.9298 749.35,-68.5725 772,-79 806.693,-94.9715 841.036,-123.044 862.126,-142.073"/>
<polygon fill="black" stroke="black" points="859.802,-144.69 869.533,-148.879 864.538,-139.536 859.802,-144.69"/>
</g>
<!-- wenoof -->
<g id="node8" class="node"><title>wenoof</title>
<polygon fill="#337ab7" stroke="#337ab7" points="540,-196 486,-196 486,-170 540,-170 540,-196"/>
<text text-anchor="middle" x="513" y="-180.55" font-family="Helvetica,sans-Serif" font-size="10.50" fill="white">wenoof</text>
</g>
<!-- wenoof&#45;&gt;module~type_euler_1d_openmp -->
<g id="edge2" class="edge"><title>wenoof&#45;&gt;module~type_euler_1d_openmp</title>
<path fill="none" stroke="black" stroke-dasharray="5,2" d="M540.311,-183C556.886,-183 578.904,-183 600.281,-183"/>
<polygon fill="black" stroke="black" points="600.365,-186.5 610.365,-183 600.365,-179.5 600.365,-186.5"/>
</g>
<!-- module~foodie_integrator_adams_bashforth&#45;&gt;module~foodie -->
<g id="edge30" class="edge"><title>module~foodie_integrator_adams_bashforth&#45;&gt;module~foodie</title>
<path fill="none" stroke="black" stroke-dasharray="5,2" d="M412.523,-169.98C425.089,-167.302 437.976,-164.285 450,-161 458.688,-158.626 467.91,-155.666 476.539,-152.693"/>
<polygon fill="black" stroke="black" points="477.706,-155.993 485.97,-149.363 475.375,-149.392 477.706,-155.993"/>
</g>
<!-- module~foodie_integrator_euler_explicit&#45;&gt;module~foodie -->
<g id="edge32" class="edge"><title>module~foodie_integrator_euler_explicit&#45;&gt;module~foodie</title>
<path fill="none" stroke="black" stroke-dasharray="5,2" d="M421.181,-139C440.337,-139 459.842,-139 475.92,-139"/>
<polygon fill="black" stroke="black" points="475.952,-142.5 485.952,-139 475.952,-135.5 475.952,-142.5"/>
</g>
<!-- module~foodie_integrator_leapfrog&#45;&gt;module~foodie -->
<g id="edge34" class="edge"><title>module~foodie_integrator_leapfrog&#45;&gt;module~foodie</title>
<path fill="none" stroke="black" stroke-dasharray="5,2" d="M409.61,-68.7566C423.436,-72.5498 437.524,-77.5174 450,-84 466.699,-92.6765 482.637,-106.665 494.305,-118.363"/>
<polygon fill="black" stroke="black" points="491.861,-120.871 501.321,-125.641 496.9,-116.012 491.861,-120.871"/>
</g>
<!-- module~foodie_integrator_low_storage_runge_kutta&#45;&gt;module~foodie -->
<g id="edge36" class="edge"><title>module~foodie_integrator_low_storage_runge_kutta&#45;&gt;module~foodie</title>
<path fill="none" stroke="black" stroke-dasharray="5,2" d="M434.098,-26.0749C439.699,-28.5824 445.058,-31.5326 450,-35 478.428,-54.9437 496.335,-92.1989 505.503,-116.283"/>
<polygon fill="black" stroke="black" points="502.218,-117.49 508.903,-125.709 508.803,-115.115 502.218,-117.49"/>
</g>
<!-- module~foodie_integrator_tvd_runge_kutta&#45;&gt;module~foodie -->
<g id="edge38" class="edge"><title>module~foodie_integrator_tvd_runge_kutta&#45;&gt;module~foodie</title>
<path fill="none" stroke="black" stroke-dasharray="5,2" d="M428.523,-215.015C436.047,-212.31 443.323,-209.013 450,-205 471.656,-191.983 468.116,-178.848 486,-161 486.655,-160.346 487.329,-159.691 488.016,-159.039"/>
<polygon fill="black" stroke="black" points="490.536,-161.483 495.697,-152.23 485.892,-156.245 490.536,-161.483"/>
</g>
<!-- module~type_integrand&#45;&gt;module~foodie -->
<g id="edge40" class="edge"><title>module~type_integrand&#45;&gt;module~foodie</title>
<path fill="none" stroke="black" stroke-dasharray="5,2" d="M194.32,-113.353C252.43,-107.993 359.971,-101.733 450,-117 458.702,-118.476 467.805,-121.022 476.298,-123.87"/>
<polygon fill="black" stroke="black" points="475.335,-127.242 485.929,-127.307 477.687,-120.649 475.335,-127.242"/>
</g>
<!-- module~type_integrand&#45;&gt;module~foodie_integrator_adams_bashforth -->
<g id="edge8" class="edge"><title>module~type_integrand&#45;&gt;module~foodie_integrator_adams_bashforth</title>
<path fill="none" stroke="black" stroke-dasharray="5,2" d="M171.717,-131.098C187.022,-140.702 209.088,-153.352 230,-161 236.39,-163.337 243.085,-165.446 249.882,-167.345"/>
<polygon fill="black" stroke="black" points="249.329,-170.819 259.891,-169.981 251.112,-164.05 249.329,-170.819"/>
</g>
<!-- module~type_integrand&#45;&gt;module~foodie_integrator_euler_explicit -->
<g id="edge12" class="edge"><title>module~type_integrand&#45;&gt;module~foodie_integrator_euler_explicit</title>
<path fill="none" stroke="black" stroke-dasharray="5,2" d="M194.191,-122.713C210.416,-124.525 229.636,-126.672 248.708,-128.802"/>
<polygon fill="black" stroke="black" points="248.324,-132.281 258.651,-129.913 249.101,-125.325 248.324,-132.281"/>
</g>
<!-- module~type_integrand&#45;&gt;module~foodie_integrator_leapfrog -->
<g id="edge16" class="edge"><title>module~type_integrand&#45;&gt;module~foodie_integrator_leapfrog</title>
<path fill="none" stroke="black" stroke-dasharray="5,2" d="M178.986,-104.881C193.804,-98.0246 212.646,-89.8642 230,-84 242.47,-79.7861 255.939,-75.9299 269.033,-72.5324"/>
<polygon fill="black" stroke="black" points="270.112,-75.8696 278.95,-70.0254 268.397,-69.0831 270.112,-75.8696"/>
</g>
<!-- module~type_integrand&#45;&gt;module~foodie_integrator_low_storage_runge_kutta -->
<g id="edge20" class="edge"><title>module~type_integrand&#45;&gt;module~foodie_integrator_low_storage_runge_kutta</title>
<path fill="none" stroke="black" stroke-dasharray="5,2" d="M164.061,-104.749C184.917,-81.8955 225.894,-37.28 230,-35 233.445,-33.0868 237.033,-31.3386 240.719,-29.7413"/>
<polygon fill="black" stroke="black" points="242.031,-32.9864 250.06,-26.0735 239.473,-26.4707 242.031,-32.9864"/>
</g>
<!-- module~type_integrand&#45;&gt;module~foodie_integrator_tvd_runge_kutta -->
<g id="edge24" class="edge"><title>module~type_integrand&#45;&gt;module~foodie_integrator_tvd_runge_kutta</title>
<path fill="none" stroke="black" stroke-dasharray="5,2" d="M159.747,-131.018C172.039,-150.447 197.935,-186.699 230,-205 233.758,-207.145 237.693,-209.083 241.744,-210.835"/>
<polygon fill="black" stroke="black" points="240.795,-214.221 251.384,-214.592 243.337,-207.699 240.795,-214.221"/>
</g>
</g>
</svg>
