<?xml version="1.0" encoding="UTF-8" standalone="no"?>
<!DOCTYPE svg PUBLIC "-//W3C//DTD SVG 1.1//EN"
 "http://www.w3.org/Graphics/SVG/1.1/DTD/svg11.dtd">
<!-- Generated by graphviz version 2.26.3 (20100126.1600)
 -->
<!-- Title: program~~integrate_lorenz~~CallsGraph Pages: 1 -->
<svg width="310pt" height="166pt"
 viewBox="0.00 0.00 310.00 166.00" xmlns="http://www.w3.org/2000/svg" xmlns:xlink="http://www.w3.org/1999/xlink">
<g id="graph1" class="graph" transform="scale(1 1) rotate(0) translate(4 162)">
<title>program~~integrate_lorenz~~CallsGraph</title>
<polygon fill="white" stroke="white" points="-4,5 -4,-162 307,-162 307,5 -4,5"/>
<!-- program~integrate_lorenz -->
<g id="node1" class="node"><title>program~integrate_lorenz</title>
<polygon fill="none" stroke="black" points="90,-92 4.26326e-14,-92 0,-66 90,-66 90,-92"/>
<text text-anchor="middle" x="45" y="-76.55" font-family="Helvetica,sans-Serif" font-size="10.50">integrate_lorenz</text>
</g>
<!-- proc~test_euler~3 -->
<g id="node2" class="node"><title>proc~test_euler~3</title>
<a xlink:href="../proc/test_euler%7E3.html" xlink:title="test_euler">
<polygon fill="#d9534f" stroke="#d9534f" points="189,-158 129,-158 129,-132 189,-132 189,-158"/>
<text text-anchor="middle" x="159" y="-142.55" font-family="Helvetica,sans-Serif" font-size="10.50" fill="white">test_euler</text>
</a>
</g>
<!-- program~integrate_lorenz&#45;&gt;proc~test_euler~3 -->
<g id="edge16" class="edge"><title>program~integrate_lorenz&#45;&gt;proc~test_euler~3</title>
<path fill="none" stroke="black" d="M67.5227,-92.0395C84.698,-101.983 108.563,-115.8 127.611,-126.827"/>
<polygon fill="black" stroke="black" points="126.116,-130.006 136.524,-131.988 129.623,-123.948 126.116,-130.006"/>
</g>
<!-- proc~test_ls_rk~3 -->
<g id="node3" class="node"><title>proc~test_ls_rk~3</title>
<a xlink:href="../proc/test_ls_rk%7E3.html" xlink:title="test_ls_rk">
<polygon fill="#d9534f" stroke="#d9534f" points="188,-114 130,-114 130,-88 188,-88 188,-114"/>
<text text-anchor="middle" x="159" y="-98.55" font-family="Helvetica,sans-Serif" font-size="10.50" fill="white">test_ls_rk</text>
</a>
</g>
<!-- program~integrate_lorenz&#45;&gt;proc~test_ls_rk~3 -->
<g id="edge18" class="edge"><title>program~integrate_lorenz&#45;&gt;proc~test_ls_rk~3</title>
<path fill="none" stroke="black" d="M90.0558,-87.695C99.928,-89.6001 110.301,-91.6019 119.916,-93.4575"/>
<polygon fill="black" stroke="black" points="119.511,-96.9439 129.993,-95.4022 120.838,-90.0707 119.511,-96.9439"/>
</g>
<!-- proc~test_ab~3 -->
<g id="node4" class="node"><title>proc~test_ab~3</title>
<a xlink:href="../proc/test_ab%7E3.html" xlink:title="test_ab">
<polygon fill="#d9534f" stroke="#d9534f" points="186,-70 132,-70 132,-44 186,-44 186,-70"/>
<text text-anchor="middle" x="159" y="-54.55" font-family="Helvetica,sans-Serif" font-size="10.50" fill="white">test_ab</text>
</a>
</g>
<!-- program~integrate_lorenz&#45;&gt;proc~test_ab~3 -->
<g id="edge20" class="edge"><title>program~integrate_lorenz&#45;&gt;proc~test_ab~3</title>
<path fill="none" stroke="black" d="M90.0558,-70.305C100.698,-68.2512 111.922,-66.0852 122.152,-64.111"/>
<polygon fill="black" stroke="black" points="122.837,-67.5435 131.993,-62.212 121.511,-60.6703 122.837,-67.5435"/>
</g>
<!-- proc~test_tvd_rk~3 -->
<g id="node5" class="node"><title>proc~test_tvd_rk~3</title>
<a xlink:href="../proc/test_tvd_rk%7E3.html" xlink:title="test_tvd_rk">
<polygon fill="#d9534f" stroke="#d9534f" points="191,-26 127,-26 127,-1.24345e-14 191,-3.55271e-15 191,-26"/>
<text text-anchor="middle" x="159" y="-10.55" font-family="Helvetica,sans-Serif" font-size="10.50" fill="white">test_tvd_rk</text>
</a>
</g>
<!-- program~integrate_lorenz&#45;&gt;proc~test_tvd_rk~3 -->
<g id="edge22" class="edge"><title>program~integrate_lorenz&#45;&gt;proc~test_tvd_rk~3</title>
<path fill="none" stroke="black" d="M67.5227,-65.9605C84.698,-56.0169 108.563,-42.2004 127.611,-31.1727"/>
<polygon fill="black" stroke="black" points="129.623,-34.0518 136.524,-26.0124 126.116,-27.9938 129.623,-34.0518"/>
</g>
<!-- proc~save_results~3 -->
<g id="node6" class="node"><title>proc~save_results~3</title>
<a xlink:href="../proc/save_results%7E3.html" xlink:title="save_results">
<polygon fill="#d9534f" stroke="#d9534f" points="301,-114 229,-114 229,-88 301,-88 301,-114"/>
<text text-anchor="middle" x="265" y="-98.55" font-family="Helvetica,sans-Serif" font-size="10.50" fill="white">save_results</text>
</a>
</g>
<!-- proc~test_euler~3&#45;&gt;proc~save_results~3 -->
<g id="edge2" class="edge"><title>proc~test_euler~3&#45;&gt;proc~save_results~3</title>
<path fill="none" stroke="black" d="M189.092,-132.509C199.899,-128.023 212.279,-122.884 223.863,-118.076"/>
<polygon fill="black" stroke="black" points="225.459,-121.203 233.354,-114.136 222.776,-114.738 225.459,-121.203"/>
</g>
<!-- proc~test_ls_rk~3&#45;&gt;proc~save_results~3 -->
<g id="edge6" class="edge"><title>proc~test_ls_rk~3&#45;&gt;proc~save_results~3</title>
<path fill="none" stroke="black" d="M188.246,-101C197.529,-101 208.04,-101 218.237,-101"/>
<polygon fill="black" stroke="black" points="218.274,-104.5 228.274,-101 218.274,-97.5001 218.274,-104.5"/>
</g>
<!-- str -->
<g id="node8" class="node"><title>str</title>
<polygon fill="#777777" stroke="#777777" points="292,-70 238,-70 238,-44 292,-44 292,-70"/>
<text text-anchor="middle" x="265" y="-54.55" font-family="Helvetica,sans-Serif" font-size="10.50" fill="white">str</text>
</g>
<!-- proc~test_ls_rk~3&#45;&gt;str -->
<g id="edge4" class="edge"><title>proc~test_ls_rk~3&#45;&gt;str</title>
<path fill="none" stroke="black" d="M188.246,-88.8603C200.672,-83.7022 215.295,-77.6322 228.426,-72.1818"/>
<polygon fill="black" stroke="black" points="229.776,-75.4109 237.67,-68.3445 227.092,-68.9458 229.776,-75.4109"/>
</g>
<!-- proc~test_ab~3&#45;&gt;proc~save_results~3 -->
<g id="edge10" class="edge"><title>proc~test_ab~3&#45;&gt;proc~save_results~3</title>
<path fill="none" stroke="black" d="M186.023,-68.2169C197.558,-73.0052 211.275,-78.6989 224.014,-83.9868"/>
<polygon fill="black" stroke="black" points="222.935,-87.3285 233.513,-87.9298 225.619,-80.8634 222.935,-87.3285"/>
</g>
<!-- proc~test_ab~3&#45;&gt;str -->
<g id="edge8" class="edge"><title>proc~test_ab~3&#45;&gt;str</title>
<path fill="none" stroke="black" d="M186.023,-57C198.633,-57 213.851,-57 227.548,-57"/>
<polygon fill="black" stroke="black" points="227.658,-60.5001 237.658,-57 227.658,-53.5001 227.658,-60.5001"/>
</g>
<!-- proc~test_tvd_rk~3&#45;&gt;proc~save_results~3 -->
<g id="edge14" class="edge"><title>proc~test_tvd_rk~3&#45;&gt;proc~save_results~3</title>
<path fill="none" stroke="black" d="M180.64,-26.0793C184.577,-28.8283 188.531,-31.8548 192,-35 210.718,-51.9725 208.851,-62.5157 228,-79 229.285,-80.1062 230.633,-81.189 232.022,-82.2441"/>
<polygon fill="black" stroke="black" points="230.069,-85.149 240.287,-87.9506 234.047,-79.3886 230.069,-85.149"/>
</g>
<!-- proc~test_tvd_rk~3&#45;&gt;str -->
<g id="edge12" class="edge"><title>proc~test_tvd_rk~3&#45;&gt;str</title>
<path fill="none" stroke="black" d="M190.517,-26.0823C202.362,-30.9995 215.932,-36.6321 228.216,-41.731"/>
<polygon fill="black" stroke="black" points="227.156,-45.0806 237.734,-45.6819 229.839,-38.6154 227.156,-45.0806"/>
</g>
</g>
</svg>
