<?xml version="1.0" encoding="UTF-8" standalone="no"?>
<!DOCTYPE svg PUBLIC "-//W3C//DTD SVG 1.1//EN"
 "http://www.w3.org/Graphics/SVG/1.1/DTD/svg11.dtd">
<!-- Generated by graphviz version 2.26.3 (20100126.1600)
 -->
<!-- Title: program~~integrate_burgers~~UsesGraph Pages: 1 -->
<svg width="641pt" height="221pt"
 viewBox="0.00 0.00 641.00 220.85" xmlns="http://www.w3.org/2000/svg" xmlns:xlink="http://www.w3.org/1999/xlink">
<g id="graph1" class="graph" transform="scale(0.701313 0.701313) rotate(0) translate(4 310.905)">
<title>program~~integrate_burgers~~UsesGraph</title>
<polygon fill="white" stroke="white" points="-4,5 -4,-310.905 911,-310.905 911,5 -4,5"/>
<!-- program~integrate_burgers -->
<g id="node1" class="node"><title>program~integrate_burgers</title>
<polygon fill="none" stroke="black" points="905,-95.9052 809,-95.9052 809,-69.9052 905,-69.9052 905,-95.9052"/>
<text text-anchor="middle" x="857" y="-80.4552" font-family="Helvetica,sans-Serif" font-size="10.50">integrate_burgers</text>
</g>
<!-- module~foodie -->
<g id="node2" class="node"><title>module~foodie</title>
<a xlink:href="../module/foodie.html" xlink:title="foodie">
<polygon fill="#337ab7" stroke="#337ab7" points="540,-178.905 486,-178.905 486,-152.905 540,-152.905 540,-178.905"/>
<text text-anchor="middle" x="513" y="-163.455" font-family="Helvetica,sans-Serif" font-size="10.50" fill="white">foodie</text>
</a>
</g>
<!-- module~foodie&#45;&gt;program~integrate_burgers -->
<g id="edge40" class="edge"><title>module~foodie&#45;&gt;program~integrate_burgers</title>
<path fill="none" stroke="black" stroke-dasharray="5,2" d="M540.19,-169.196C588.607,-173.968 692.169,-179.217 772,-148.905 797.668,-139.159 821.876,-118.854 837.842,-103.324"/>
<polygon fill="black" stroke="black" points="840.41,-105.706 844.989,-96.151 835.451,-100.765 840.41,-105.706"/>
</g>
<!-- module~type_burgers -->
<g id="node6" class="node"><title>module~type_burgers</title>
<a xlink:href="../module/type_burgers.html" xlink:title="type_burgers">
<polygon fill="#337ab7" stroke="#337ab7" points="712,-51.9052 636,-51.9052 636,-25.9052 712,-25.9052 712,-51.9052"/>
<text text-anchor="middle" x="674" y="-36.4552" font-family="Helvetica,sans-Serif" font-size="10.50" fill="white">type_burgers</text>
</a>
</g>
<!-- module~foodie&#45;&gt;module~type_burgers -->
<g id="edge38" class="edge"><title>module~foodie&#45;&gt;module~type_burgers</title>
<path fill="none" stroke="black" stroke-dasharray="5,2" d="M517.116,-152.569C524.813,-129.966 543.603,-84.3089 576,-60.9052 590.281,-50.5888 608.553,-44.9887 625.442,-41.989"/>
<polygon fill="black" stroke="black" points="626.365,-45.3896 635.732,-40.4385 625.322,-38.4678 626.365,-45.3896"/>
</g>
<!-- pyplot_module -->
<g id="node3" class="node"><title>pyplot_module</title>
<polygon fill="#337ab7" stroke="#337ab7" points="715,-139.905 633,-139.905 633,-113.905 715,-113.905 715,-139.905"/>
<text text-anchor="middle" x="674" y="-124.455" font-family="Helvetica,sans-Serif" font-size="10.50" fill="white">pyplot_module</text>
</g>
<!-- pyplot_module&#45;&gt;program~integrate_burgers -->
<g id="edge42" class="edge"><title>pyplot_module&#45;&gt;program~integrate_burgers</title>
<path fill="none" stroke="black" stroke-dasharray="5,2" d="M715.075,-117.995C732.64,-114.105 753.355,-109.41 772,-104.905 780.505,-102.851 789.469,-100.611 798.259,-98.3735"/>
<polygon fill="black" stroke="black" points="799.257,-101.731 808.075,-95.8575 797.519,-94.95 799.257,-101.731"/>
</g>
<!-- Data_Type_Command_Line_Interface -->
<g id="node4" class="node"><title>Data_Type_Command_Line_Interface</title>
<polygon fill="#337ab7" stroke="#337ab7" points="771,-95.9052 577,-95.9052 577,-69.9052 771,-69.9052 771,-95.9052"/>
<text text-anchor="middle" x="674" y="-80.4552" font-family="Helvetica,sans-Serif" font-size="10.50" fill="white">Data_Type_Command_Line_Interface</text>
</g>
<!-- Data_Type_Command_Line_Interface&#45;&gt;program~integrate_burgers -->
<g id="edge44" class="edge"><title>Data_Type_Command_Line_Interface&#45;&gt;program~integrate_burgers</title>
<path fill="none" stroke="black" stroke-dasharray="5,2" d="M771.661,-82.9052C780.623,-82.9052 789.505,-82.9052 797.962,-82.9052"/>
<polygon fill="black" stroke="black" points="798.044,-86.4053 808.044,-82.9052 798.044,-79.4053 798.044,-86.4053"/>
</g>
<!-- IR_Precision -->
<g id="node5" class="node"><title>IR_Precision</title>
<polygon fill="#337ab7" stroke="#337ab7" points="73,-197.905 1,-197.905 1,-171.905 73,-171.905 73,-197.905"/>
<text text-anchor="middle" x="37" y="-182.455" font-family="Helvetica,sans-Serif" font-size="10.50" fill="white">IR_Precision</text>
</g>
<!-- IR_Precision&#45;&gt;program~integrate_burgers -->
<g id="edge46" class="edge"><title>IR_Precision&#45;&gt;program~integrate_burgers</title>
<path fill="none" stroke="black" stroke-dasharray="5,2" d="M46.156,-171.622C63.5116,-147.771 103.807,-98.4494 152,-79.9052"/>
<path fill="none" stroke="black" stroke-dasharray="5,2" d="M152,-79.9052C302.704,-21.9155 351.848,-49.1236 513,-38.9052"/>
<path fill="none" stroke="black" stroke-dasharray="5,2" d="M513,-38.9052C542.54,-36.2599 546.759,-21.8639 576,-16.9052 661.885,-2.34064 689.592,11.332 772,-16.9052 798.277,-25.909 822.701,-46.7147 838.562,-62.5777"/>
<polygon fill="black" stroke="black" points="836.166,-65.1346 845.631,-69.8946 841.2,-60.2708 836.166,-65.1346"/>
</g>
<!-- IR_Precision&#45;&gt;module~type_burgers -->
<g id="edge36" class="edge"><title>IR_Precision&#45;&gt;module~type_burgers</title>
<path fill="none" stroke="black" stroke-dasharray="5,2" d="M513,-38.9052C550.719,-36.5135 593.508,-36.6483 625.489,-37.3079"/>
<polygon fill="black" stroke="black" points="625.819,-40.8164 635.897,-37.5488 625.981,-33.8183 625.819,-40.8164"/>
</g>
<!-- module~foodie_integrator_low_storage_runge_kutta -->
<g id="node7" class="node"><title>module~foodie_integrator_low_storage_runge_kutta</title>
<a xlink:href="../module/foodie_integrator_low_storage_runge_kutta.html" xlink:title="foodie_integrator_low_storage_runge_kutta">
<polygon fill="#337ab7" stroke="#337ab7" points="450,-262.905 230,-262.905 230,-236.905 450,-236.905 450,-262.905"/>
<text text-anchor="middle" x="340" y="-247.455" font-family="Helvetica,sans-Serif" font-size="10.50" fill="white">foodie_integrator_low_storage_runge_kutta</text>
</a>
</g>
<!-- IR_Precision&#45;&gt;module~foodie_integrator_low_storage_runge_kutta -->
<g id="edge4" class="edge"><title>IR_Precision&#45;&gt;module~foodie_integrator_low_storage_runge_kutta</title>
<path fill="none" stroke="black" stroke-dasharray="5,2" d="M152,-249.905C173.584,-255.583 197.052,-258.228 219.856,-259.054"/>
<polygon fill="black" stroke="black" points="219.843,-262.555 229.928,-259.306 220.018,-255.557 219.843,-262.555"/>
</g>
<!-- module~foodie_integrator_tvd_runge_kutta -->
<g id="node8" class="node"><title>module~foodie_integrator_tvd_runge_kutta</title>
<a xlink:href="../module/foodie_integrator_tvd_runge_kutta.html" xlink:title="foodie_integrator_tvd_runge_kutta">
<polygon fill="#337ab7" stroke="#337ab7" points="428,-218.905 252,-218.905 252,-192.905 428,-192.905 428,-218.905"/>
<text text-anchor="middle" x="340" y="-203.455" font-family="Helvetica,sans-Serif" font-size="10.50" fill="white">foodie_integrator_tvd_runge_kutta</text>
</a>
</g>
<!-- IR_Precision&#45;&gt;module~foodie_integrator_tvd_runge_kutta -->
<g id="edge8" class="edge"><title>IR_Precision&#45;&gt;module~foodie_integrator_tvd_runge_kutta</title>
<path fill="none" stroke="black" stroke-dasharray="5,2" d="M53.6975,-198.066C75.0524,-213.978 113.852,-239.87 152,-249.905"/>
<path fill="none" stroke="black" stroke-dasharray="5,2" d="M152,-249.905C186.834,-259.068 194.981,-236.332 230,-227.905 239.901,-225.523 250.346,-223.195 260.701,-221.001"/>
<polygon fill="black" stroke="black" points="261.506,-224.408 270.58,-218.939 260.076,-217.556 261.506,-224.408"/>
</g>
<!-- module~type_integrand -->
<g id="node9" class="node"><title>module~type_integrand</title>
<a xlink:href="../module/type_integrand.html" xlink:title="type_integrand">
<polygon fill="#337ab7" stroke="#337ab7" points="194,-197.905 110,-197.905 110,-171.905 194,-171.905 194,-197.905"/>
<text text-anchor="middle" x="152" y="-182.455" font-family="Helvetica,sans-Serif" font-size="10.50" fill="white">type_integrand</text>
</a>
</g>
<!-- IR_Precision&#45;&gt;module~type_integrand -->
<g id="edge10" class="edge"><title>IR_Precision&#45;&gt;module~type_integrand</title>
<path fill="none" stroke="black" stroke-dasharray="5,2" d="M73.7029,-184.905C81.9237,-184.905 90.8,-184.905 99.521,-184.905"/>
<polygon fill="black" stroke="black" points="99.6389,-188.405 109.639,-184.905 99.6388,-181.405 99.6389,-188.405"/>
</g>
<!-- module~foodie_integrator_adams_bashforth -->
<g id="node10" class="node"><title>module~foodie_integrator_adams_bashforth</title>
<a xlink:href="../module/foodie_integrator_adams_bashforth.html" xlink:title="foodie_integrator_adams_bashforth">
<polygon fill="#337ab7" stroke="#337ab7" points="431,-136.905 249,-136.905 249,-110.905 431,-110.905 431,-136.905"/>
<text text-anchor="middle" x="340" y="-121.455" font-family="Helvetica,sans-Serif" font-size="10.50" fill="white">foodie_integrator_adams_bashforth</text>
</a>
</g>
<!-- IR_Precision&#45;&gt;module~foodie_integrator_adams_bashforth -->
<g id="edge14" class="edge"><title>IR_Precision&#45;&gt;module~foodie_integrator_adams_bashforth</title>
<path fill="none" stroke="black" stroke-dasharray="5,2" d="M152,-79.9052C185.616,-66.9699 194.981,-93.478 230,-101.905 239.901,-104.288 250.346,-106.615 260.701,-108.81"/>
<polygon fill="black" stroke="black" points="260.076,-112.255 270.58,-110.871 261.506,-105.402 260.076,-112.255"/>
</g>
<!-- module~foodie_integrator_euler_explicit -->
<g id="node11" class="node"><title>module~foodie_integrator_euler_explicit</title>
<a xlink:href="../module/foodie_integrator_euler_explicit.html" xlink:title="foodie_integrator_euler_explicit">
<polygon fill="#337ab7" stroke="#337ab7" points="421,-92.9052 259,-92.9052 259,-66.9052 421,-66.9052 421,-92.9052"/>
<text text-anchor="middle" x="340" y="-77.4552" font-family="Helvetica,sans-Serif" font-size="10.50" fill="white">foodie_integrator_euler_explicit</text>
</a>
</g>
<!-- IR_Precision&#45;&gt;module~foodie_integrator_euler_explicit -->
<g id="edge18" class="edge"><title>IR_Precision&#45;&gt;module~foodie_integrator_euler_explicit</title>
<path fill="none" stroke="black" stroke-dasharray="5,2" d="M152,-79.9052C182.235,-68.2708 217.287,-65.6583 248.875,-66.8207"/>
<polygon fill="black" stroke="black" points="248.837,-70.323 258.998,-67.3241 249.185,-63.3317 248.837,-70.323"/>
</g>
<!-- module~foodie_integrator_leapfrog -->
<g id="node12" class="node"><title>module~foodie_integrator_leapfrog</title>
<a xlink:href="../module/foodie_integrator_leapfrog.html" xlink:title="foodie_integrator_leapfrog">
<polygon fill="#337ab7" stroke="#337ab7" points="409,-306.905 271,-306.905 271,-280.905 409,-280.905 409,-306.905"/>
<text text-anchor="middle" x="340" y="-291.455" font-family="Helvetica,sans-Serif" font-size="10.50" fill="white">foodie_integrator_leapfrog</text>
</a>
</g>
<!-- IR_Precision&#45;&gt;module~foodie_integrator_leapfrog -->
<g id="edge22" class="edge"><title>IR_Precision&#45;&gt;module~foodie_integrator_leapfrog</title>
<path fill="none" stroke="black" stroke-dasharray="5,2" d="M152,-249.905C186.834,-259.068 194.981,-263.478 230,-271.905 239.901,-274.288 250.346,-276.615 260.701,-278.81"/>
<polygon fill="black" stroke="black" points="260.076,-282.255 270.58,-280.871 261.506,-275.402 260.076,-282.255"/>
</g>
<!-- module~type_burgers&#45;&gt;program~integrate_burgers -->
<g id="edge48" class="edge"><title>module~type_burgers&#45;&gt;program~integrate_burgers</title>
<path fill="none" stroke="black" stroke-dasharray="5,2" d="M712.23,-47.1857C730.373,-51.1927 752.338,-56.1551 772,-60.9052 780.505,-62.9598 789.469,-65.1991 798.259,-67.4369"/>
<polygon fill="black" stroke="black" points="797.519,-70.8604 808.075,-69.9529 799.257,-64.0796 797.519,-70.8604"/>
</g>
<!-- module~foodie_integrator_low_storage_runge_kutta&#45;&gt;module~foodie -->
<g id="edge24" class="edge"><title>module~foodie_integrator_low_storage_runge_kutta&#45;&gt;module~foodie</title>
<path fill="none" stroke="black" stroke-dasharray="5,2" d="M428.938,-236.853C436.255,-234.37 443.375,-231.417 450,-227.905 468.639,-218.026 485.427,-200.878 496.976,-187.118"/>
<polygon fill="black" stroke="black" points="499.904,-189.063 503.461,-179.082 494.457,-184.667 499.904,-189.063"/>
</g>
<!-- module~foodie_integrator_tvd_runge_kutta&#45;&gt;module~foodie -->
<g id="edge26" class="edge"><title>module~foodie_integrator_tvd_runge_kutta&#45;&gt;module~foodie</title>
<path fill="none" stroke="black" stroke-dasharray="5,2" d="M396.647,-192.808C422.742,-186.774 452.969,-179.785 476.073,-174.443"/>
<polygon fill="black" stroke="black" points="476.872,-177.851 485.826,-172.188 475.295,-171.031 476.872,-177.851"/>
</g>
<!-- module~type_integrand&#45;&gt;module~foodie -->
<g id="edge28" class="edge"><title>module~type_integrand&#45;&gt;module~foodie</title>
<path fill="none" stroke="black" stroke-dasharray="5,2" d="M194.118,-182.688C265.266,-178.944 408.104,-171.426 475.792,-167.863"/>
<polygon fill="black" stroke="black" points="476.185,-171.348 485.987,-167.327 475.817,-164.357 476.185,-171.348"/>
</g>
<!-- module~type_integrand&#45;&gt;module~foodie_integrator_low_storage_runge_kutta -->
<g id="edge2" class="edge"><title>module~type_integrand&#45;&gt;module~foodie_integrator_low_storage_runge_kutta</title>
<path fill="none" stroke="black" stroke-dasharray="5,2" d="M171.717,-198.003C187.022,-207.608 209.088,-220.257 230,-227.905 236.39,-230.242 243.085,-232.351 249.882,-234.251"/>
<polygon fill="black" stroke="black" points="249.329,-237.724 259.891,-236.886 251.112,-230.955 249.329,-237.724"/>
</g>
<!-- module~type_integrand&#45;&gt;module~foodie_integrator_tvd_runge_kutta -->
<g id="edge6" class="edge"><title>module~type_integrand&#45;&gt;module~foodie_integrator_tvd_runge_kutta</title>
<path fill="none" stroke="black" stroke-dasharray="5,2" d="M194.191,-189.618C208.266,-191.19 224.595,-193.014 241.126,-194.861"/>
<polygon fill="black" stroke="black" points="241.1,-198.379 251.427,-196.011 241.877,-191.423 241.1,-198.379"/>
</g>
<!-- module~type_integrand&#45;&gt;module~foodie_integrator_adams_bashforth -->
<g id="edge12" class="edge"><title>module~type_integrand&#45;&gt;module~foodie_integrator_adams_bashforth</title>
<path fill="none" stroke="black" stroke-dasharray="5,2" d="M178.986,-171.786C193.804,-164.93 212.646,-156.769 230,-150.905 242.47,-146.691 255.939,-142.835 269.033,-139.438"/>
<polygon fill="black" stroke="black" points="270.112,-142.775 278.95,-136.931 268.397,-135.988 270.112,-142.775"/>
</g>
<!-- module~type_integrand&#45;&gt;module~foodie_integrator_euler_explicit -->
<g id="edge16" class="edge"><title>module~type_integrand&#45;&gt;module~foodie_integrator_euler_explicit</title>
<path fill="none" stroke="black" stroke-dasharray="5,2" d="M160.314,-171.872C172.962,-153.199 198.883,-119.185 230,-101.905 236.006,-98.57 242.445,-95.7363 249.084,-93.3291"/>
<polygon fill="black" stroke="black" points="250.517,-96.5427 258.927,-90.0988 248.334,-89.8917 250.517,-96.5427"/>
</g>
<!-- module~type_integrand&#45;&gt;module~foodie_integrator_leapfrog -->
<g id="edge20" class="edge"><title>module~type_integrand&#45;&gt;module~foodie_integrator_leapfrog</title>
<path fill="none" stroke="black" stroke-dasharray="5,2" d="M162.905,-197.955C182.309,-221.038 221.587,-267.104 230,-271.905 239.389,-277.264 249.878,-281.333 260.548,-284.42"/>
<polygon fill="black" stroke="black" points="259.812,-287.845 270.372,-286.988 261.582,-281.073 259.812,-287.845"/>
</g>
<!-- module~foodie_integrator_adams_bashforth&#45;&gt;module~foodie -->
<g id="edge30" class="edge"><title>module~foodie_integrator_adams_bashforth&#45;&gt;module~foodie</title>
<path fill="none" stroke="black" stroke-dasharray="5,2" d="M393.79,-136.964C420.521,-143.454 452.14,-151.13 476.095,-156.946"/>
<polygon fill="black" stroke="black" points="475.312,-160.357 485.856,-159.315 476.964,-153.555 475.312,-160.357"/>
</g>
<!-- module~foodie_integrator_euler_explicit&#45;&gt;module~foodie -->
<g id="edge32" class="edge"><title>module~foodie_integrator_euler_explicit&#45;&gt;module~foodie</title>
<path fill="none" stroke="black" stroke-dasharray="5,2" d="M421.254,-90.3805C431.261,-93.3256 441.09,-97.0914 450,-101.905 469.084,-112.216 486.032,-130.222 497.53,-144.514"/>
<polygon fill="black" stroke="black" points="495.071,-147.056 503.954,-152.83 500.611,-142.777 495.071,-147.056"/>
</g>
<!-- module~foodie_integrator_leapfrog&#45;&gt;module~foodie -->
<g id="edge34" class="edge"><title>module~foodie_integrator_leapfrog&#45;&gt;module~foodie</title>
<path fill="none" stroke="black" stroke-dasharray="5,2" d="M409.616,-289.051C423.892,-285.655 438.157,-280.288 450,-271.905 478.896,-251.451 496.749,-213.188 505.768,-188.662"/>
<polygon fill="black" stroke="black" points="509.12,-189.678 509.099,-179.083 502.509,-187.379 509.12,-189.678"/>
</g>
</g>
</svg>
