<?xml version="1.0" encoding="UTF-8" standalone="no"?>
<!DOCTYPE svg PUBLIC "-//W3C//DTD SVG 1.1//EN"
 "http://www.w3.org/Graphics/SVG/1.1/DTD/svg11.dtd">
<!-- Generated by graphviz version 2.38.0 (20140413.2041)
 -->
<!-- Title: program~~integrate_burgers~~CallsGraph Pages: 1 -->
<svg width="469pt" height="158pt"
 viewBox="0.00 0.00 469.00 158.00" xmlns="http://www.w3.org/2000/svg" xmlns:xlink="http://www.w3.org/1999/xlink">
<g id="graph0" class="graph" transform="scale(1 1) rotate(0) translate(4 154)">
<title>program~~integrate_burgers~~CallsGraph</title>
<polygon fill="white" stroke="none" points="-4,4 -4,-154 465,-154 465,4 -4,4"/>
<!-- program~integrate_burgers -->
<g id="node1" class="node"><title>program~integrate_burgers</title>
<polygon fill="none" stroke="black" points="97,-87 7.10543e-15,-87 7.10543e-15,-63 97,-63 97,-87"/>
<text text-anchor="middle" x="48.5" y="-72.6" font-family="Helvetica,sans-Serif" font-size="10.50">integrate_burgers</text>
</g>
<!-- proc~test_ab~3 -->
<g id="node2" class="node"><title>proc~test_ab~3</title>
<g id="a_node2"><a xlink:href="../proc/test_ab%7E3.html" xlink:title="test_ab">
<polygon fill="#d9534f" stroke="#d9534f" points="190,-150 136,-150 136,-126 190,-126 190,-150"/>
<text text-anchor="middle" x="163" y="-135.6" font-family="Helvetica,sans-Serif" font-size="10.50" fill="white">test_ab</text>
</a>
</g>
</g>
<!-- program~integrate_burgers&#45;&gt;proc~test_ab~3 -->
<g id="edge9" class="edge"><title>program~integrate_burgers&#45;&gt;proc~test_ab~3</title>
<path fill="none" stroke="black" d="M71.1911,-87.147C88.3109,-96.7341 112.404,-110.226 131.471,-120.904"/>
<polygon fill="black" stroke="black" points="129.94,-124.058 140.375,-125.89 133.361,-117.95 129.94,-124.058"/>
</g>
<!-- proc~test_euler~3 -->
<g id="node3" class="node"><title>proc~test_euler~3</title>
<g id="a_node3"><a xlink:href="../proc/test_euler%7E3.html" xlink:title="test_euler">
<polygon fill="#d9534f" stroke="#d9534f" points="193,-66 133,-66 133,-42 193,-42 193,-66"/>
<text text-anchor="middle" x="163" y="-51.6" font-family="Helvetica,sans-Serif" font-size="10.50" fill="white">test_euler</text>
</a>
</g>
</g>
<!-- program~integrate_burgers&#45;&gt;proc~test_euler~3 -->
<g id="edge10" class="edge"><title>program~integrate_burgers&#45;&gt;proc~test_euler~3</title>
<path fill="none" stroke="black" d="M97.2101,-66.0941C105.716,-64.5064 114.488,-62.8688 122.725,-61.3313"/>
<polygon fill="black" stroke="black" points="123.623,-64.7242 132.811,-59.4486 122.339,-57.8431 123.623,-64.7242"/>
</g>
<!-- proc~init~5 -->
<g id="node4" class="node"><title>proc~init~5</title>
<g id="a_node4"><a xlink:href="../proc/init%7E5.html" xlink:title="init">
<polygon fill="#d9534f" stroke="#d9534f" points="190,-24 136,-24 136,-0 190,-0 190,-24"/>
<text text-anchor="middle" x="163" y="-9.6" font-family="Helvetica,sans-Serif" font-size="10.50" fill="white">init</text>
</a>
</g>
</g>
<!-- program~integrate_burgers&#45;&gt;proc~init~5 -->
<g id="edge11" class="edge"><title>program~integrate_burgers&#45;&gt;proc~init~5</title>
<path fill="none" stroke="black" d="M71.1911,-62.853C88.3109,-53.2659 112.404,-39.7739 131.471,-29.0961"/>
<polygon fill="black" stroke="black" points="133.361,-32.0496 140.375,-24.1097 129.94,-25.9421 133.361,-32.0496"/>
</g>
<!-- proc~test_rk~3 -->
<g id="node5" class="node"><title>proc~test_rk~3</title>
<g id="a_node5"><a xlink:href="../proc/test_rk%7E3.html" xlink:title="test_rk">
<polygon fill="#d9534f" stroke="#d9534f" points="190,-108 136,-108 136,-84 190,-84 190,-108"/>
<text text-anchor="middle" x="163" y="-93.6" font-family="Helvetica,sans-Serif" font-size="10.50" fill="white">test_rk</text>
</a>
</g>
</g>
<!-- program~integrate_burgers&#45;&gt;proc~test_rk~3 -->
<g id="edge12" class="edge"><title>program~integrate_burgers&#45;&gt;proc~test_rk~3</title>
<path fill="none" stroke="black" d="M97.2101,-83.9059C106.87,-85.709 116.873,-87.5763 126.045,-89.2884"/>
<polygon fill="black" stroke="black" points="125.512,-92.7494 135.985,-91.1438 126.797,-85.8682 125.512,-92.7494"/>
</g>
<!-- str -->
<g id="node6" class="node"><title>str</title>
<polygon fill="#777777" stroke="#777777" points="327,-108 273,-108 273,-84 327,-84 327,-108"/>
<text text-anchor="middle" x="300" y="-93.6" font-family="Helvetica,sans-Serif" font-size="10.50" fill="white">str</text>
</g>
<!-- proc~test_ab~3&#45;&gt;str -->
<g id="edge2" class="edge"><title>proc~test_ab~3&#45;&gt;str</title>
<path fill="none" stroke="black" d="M190.21,-129.393C202.042,-125.544 216.206,-120.985 229,-117 240.037,-113.562 252.084,-109.911 263.025,-106.635"/>
<polygon fill="black" stroke="black" points="264.118,-109.961 272.7,-103.748 262.117,-103.253 264.118,-109.961"/>
</g>
<!-- proc~save_plots~3 -->
<g id="node7" class="node"><title>proc~save_plots~3</title>
<g id="a_node7"><a xlink:href="../proc/save_plots%7E3.html" xlink:title="save_plots">
<polygon fill="#d9534f" stroke="#d9534f" points="332,-66 268,-66 268,-42 332,-42 332,-66"/>
<text text-anchor="middle" x="300" y="-51.6" font-family="Helvetica,sans-Serif" font-size="10.50" fill="white">save_plots</text>
</a>
</g>
</g>
<!-- proc~test_ab~3&#45;&gt;proc~save_plots~3 -->
<g id="edge3" class="edge"><title>proc~test_ab~3&#45;&gt;proc~save_plots~3</title>
<path fill="none" stroke="black" d="M182.002,-125.976C185.767,-123.186 189.617,-120.117 193,-117 211.082,-100.342 208.392,-88.4078 229,-75 237.694,-69.3434 247.974,-65.158 257.94,-62.0811"/>
<polygon fill="black" stroke="black" points="259.033,-65.4099 267.731,-59.3602 257.159,-58.6655 259.033,-65.4099"/>
</g>
<!-- interface~tvd_runge_kutta_integrator -->
<g id="node8" class="node"><title>interface~tvd_runge_kutta_integrator</title>
<g id="a_node8"><a xlink:href="../interface/tvd_runge_kutta_integrator.html" xlink:title="tvd_runge_kutta_integrator">
<polygon fill="#a7506f" stroke="#a7506f" points="371,-150 229,-150 229,-126 371,-126 371,-150"/>
<text text-anchor="middle" x="300" y="-135.6" font-family="Helvetica,sans-Serif" font-size="10.50" fill="white">tvd_runge_kutta_integrator</text>
</a>
</g>
</g>
<!-- proc~test_ab~3&#45;&gt;interface~tvd_runge_kutta_integrator -->
<g id="edge4" class="edge"><title>proc~test_ab~3&#45;&gt;interface~tvd_runge_kutta_integrator</title>
<path fill="none" stroke="black" d="M190.029,-138C198.565,-138 208.544,-138 218.936,-138"/>
<polygon fill="black" stroke="black" points="218.992,-141.5 228.992,-138 218.991,-134.5 218.992,-141.5"/>
</g>
<!-- proc~test_euler~3&#45;&gt;proc~save_plots~3 -->
<g id="edge5" class="edge"><title>proc~test_euler~3&#45;&gt;proc~save_plots~3</title>
<path fill="none" stroke="black" d="M193.293,-54C212.134,-54 236.895,-54 257.717,-54"/>
<polygon fill="black" stroke="black" points="257.885,-57.5001 267.885,-54 257.885,-50.5001 257.885,-57.5001"/>
</g>
<!-- proc~test_rk~3&#45;&gt;str -->
<g id="edge6" class="edge"><title>proc~test_rk~3&#45;&gt;str</title>
<path fill="none" stroke="black" d="M190.029,-96C210.627,-96 239.636,-96 262.545,-96"/>
<polygon fill="black" stroke="black" points="262.59,-99.5001 272.59,-96 262.59,-92.5001 262.59,-99.5001"/>
</g>
<!-- proc~test_rk~3&#45;&gt;proc~save_plots~3 -->
<g id="edge7" class="edge"><title>proc~test_rk~3&#45;&gt;proc~save_plots~3</title>
<path fill="none" stroke="black" d="M190.21,-87.3935C202.042,-83.5441 216.206,-78.9855 229,-75 238.44,-72.0594 248.62,-68.9631 258.214,-66.0783"/>
<polygon fill="black" stroke="black" points="259.368,-69.3861 267.944,-63.1642 257.36,-62.6804 259.368,-69.3861"/>
</g>
<!-- proc~test_rk~3&#45;&gt;interface~tvd_runge_kutta_integrator -->
<g id="edge8" class="edge"><title>proc~test_rk~3&#45;&gt;interface~tvd_runge_kutta_integrator</title>
<path fill="none" stroke="black" d="M190.21,-104.607C202.042,-108.456 216.206,-113.015 229,-117 235.348,-118.978 242.031,-121.025 248.645,-123.032"/>
<polygon fill="black" stroke="black" points="247.655,-126.389 258.24,-125.929 249.678,-119.688 247.655,-126.389"/>
</g>
<!-- proc~create -->
<g id="node9" class="node"><title>proc~create</title>
<g id="a_node9"><a xlink:href="../proc/create.html" xlink:title="create">
<polygon fill="#d94e8f" stroke="#d94e8f" points="461,-150 407,-150 407,-126 461,-126 461,-150"/>
<text text-anchor="middle" x="434" y="-135.6" font-family="Helvetica,sans-Serif" font-size="10.50" fill="white">create</text>
</a>
</g>
</g>
<!-- interface~tvd_runge_kutta_integrator&#45;&gt;proc~create -->
<g id="edge1" class="edge"><title>interface~tvd_runge_kutta_integrator&#45;&gt;proc~create</title>
<path fill="none" stroke="black" stroke-dasharray="5,2" d="M371.251,-138C380.07,-138 388.787,-138 396.77,-138"/>
<polygon fill="black" stroke="black" points="396.787,-141.5 406.787,-138 396.787,-134.5 396.787,-141.5"/>
</g>
</g>
</svg>
