<?xml version="1.0" encoding="UTF-8" standalone="no"?>
<!DOCTYPE svg PUBLIC "-//W3C//DTD SVG 1.1//EN"
 "http://www.w3.org/Graphics/SVG/1.1/DTD/svg11.dtd">
<!-- Generated by graphviz version 2.26.3 (20100126.1600)
 -->
<!-- Title: type~~burgers~~InheritsGraph Pages: 1 -->
<svg width="156pt" height="34pt"
 viewBox="0.00 0.00 156.00 34.00" xmlns="http://www.w3.org/2000/svg" xmlns:xlink="http://www.w3.org/1999/xlink">
<g id="graph1" class="graph" transform="scale(1 1) rotate(0) translate(4 30)">
<title>type~~burgers~~InheritsGraph</title>
<polygon fill="white" stroke="white" points="-4,5 -4,-30 153,-30 153,5 -4,5"/>
<!-- type~burgers -->
<g id="node1" class="node"><title>type~burgers</title>
<polygon fill="none" stroke="black" points="148,-26 94,-26 94,-1.24345e-14 148,-3.55271e-15 148,-26"/>
<text text-anchor="middle" x="121" y="-10.55" font-family="Helvetica,sans-Serif" font-size="10.50">burgers</text>
</g>
<!-- integrand -->
<g id="node2" class="node"><title>integrand</title>
<polygon fill="#5cb85c" stroke="#5cb85c" points="58,-26 2.4869e-14,-26 0,-1.24345e-14 58,-3.55271e-15 58,-26"/>
<text text-anchor="middle" x="29" y="-10.55" font-family="Helvetica,sans-Serif" font-size="10.50" fill="white">integrand</text>
</g>
<!-- integrand&#45;&gt;type~burgers -->
<g id="edge2" class="edge"><title>integrand&#45;&gt;type~burgers</title>
<path fill="none" stroke="black" d="M58.1094,-13C66.2682,-13 75.2502,-13 83.8095,-13"/>
<polygon fill="black" stroke="black" points="83.9566,-16.5001 93.9566,-13 83.9566,-9.5001 83.9566,-16.5001"/>
</g>
</g>
</svg>
