<?xml version="1.0" encoding="UTF-8" standalone="no"?>
<!DOCTYPE svg PUBLIC "-//W3C//DTD SVG 1.1//EN"
 "http://www.w3.org/Graphics/SVG/1.1/DTD/svg11.dtd">
<!-- Generated by graphviz version 2.38.0 (20140413.2041)
 -->
<!-- Title: type~~graph~~TypeGraph Pages: 1 -->
<svg width="251pt" height="263pt"
 viewBox="0.00 0.00 251.00 263.00" xmlns="http://www.w3.org/2000/svg" xmlns:xlink="http://www.w3.org/1999/xlink">
<g id="graph0" class="graph" transform="scale(1 1) rotate(0) translate(4 259)">
<title>type~~graph~~TypeGraph</title>
<polygon fill="white" stroke="none" points="-4,4 -4,-259 247,-259 247,4 -4,4"/>
<!-- type~euler_1d -->
<g id="node1" class="node"><title>type~euler_1d</title>
<g id="a_node1"><a xlink:href="../type/euler_1d.html" xlink:title="euler_1D">
<polygon fill="#5cb85c" stroke="#5cb85c" points="241.5,-150 185.5,-150 185.5,-126 241.5,-126 241.5,-150"/>
<text text-anchor="middle" x="213.5" y="-135.6" font-family="Helvetica,sans-Serif" font-size="10.50" fill="white">euler_1D</text>
</a>
</g>
</g>
<!-- type~integrand -->
<g id="node2" class="node"><title>type~integrand</title>
<g id="a_node2"><a xlink:href="../type/integrand.html" xlink:title="integrand">
<polygon fill="#5cb85c" stroke="#5cb85c" points="103,-129 45,-129 45,-105 103,-105 103,-129"/>
<text text-anchor="middle" x="74" y="-114.6" font-family="Helvetica,sans-Serif" font-size="10.50" fill="white">integrand</text>
</a>
</g>
</g>
<!-- type~euler_explicit_integrator -->
<g id="node3" class="node"><title>type~euler_explicit_integrator</title>
<g id="a_node3"><a xlink:href="../type/euler_explicit_integrator.html" xlink:title="euler_explicit_integrator">
<polygon fill="#5cb85c" stroke="#5cb85c" points="137.5,-171 10.5,-171 10.5,-147 137.5,-147 137.5,-171"/>
<text text-anchor="middle" x="74" y="-156.6" font-family="Helvetica,sans-Serif" font-size="10.50" fill="white">euler_explicit_integrator</text>
</a>
</g>
</g>
<!-- type~oscillation -->
<g id="node4" class="node"><title>type~oscillation</title>
<g id="a_node4"><a xlink:href="../type/oscillation.html" xlink:title="oscillation">
<polygon fill="#5cb85c" stroke="#5cb85c" points="243,-108 184,-108 184,-84 243,-84 243,-108"/>
<text text-anchor="middle" x="213.5" y="-93.6" font-family="Helvetica,sans-Serif" font-size="10.50" fill="white">oscillation</text>
</a>
</g>
</g>
<!-- type~burgers -->
<g id="node5" class="node"><title>type~burgers</title>
<g id="a_node5"><a xlink:href="../type/burgers.html" xlink:title="burgers">
<polygon fill="#5cb85c" stroke="#5cb85c" points="240.5,-66 186.5,-66 186.5,-42 240.5,-42 240.5,-66"/>
<text text-anchor="middle" x="213.5" y="-51.6" font-family="Helvetica,sans-Serif" font-size="10.50" fill="white">burgers</text>
</a>
</g>
</g>
<!-- type~lorenz -->
<g id="node6" class="node"><title>type~lorenz</title>
<g id="a_node6"><a xlink:href="../type/lorenz.html" xlink:title="lorenz">
<polygon fill="#5cb85c" stroke="#5cb85c" points="240.5,-24 186.5,-24 186.5,-0 240.5,-0 240.5,-24"/>
<text text-anchor="middle" x="213.5" y="-9.6" font-family="Helvetica,sans-Serif" font-size="10.50" fill="white">lorenz</text>
</a>
</g>
</g>
<!-- type~adams_bashforth_integrator -->
<g id="node7" class="node"><title>type~adams_bashforth_integrator</title>
<g id="a_node7"><a xlink:href="../type/adams_bashforth_integrator.html" xlink:title="adams_bashforth_integrator">
<polygon fill="#5cb85c" stroke="#5cb85c" points="148,-213 0,-213 0,-189 148,-189 148,-213"/>
<text text-anchor="middle" x="74" y="-198.6" font-family="Helvetica,sans-Serif" font-size="10.50" fill="white">adams_bashforth_integrator</text>
</a>
</g>
</g>
<!-- type~tvd_runge_kutta_integrator -->
<g id="node8" class="node"><title>type~tvd_runge_kutta_integrator</title>
<g id="a_node8"><a xlink:href="../type/tvd_runge_kutta_integrator.html" xlink:title="tvd_runge_kutta_integrator">
<polygon fill="#5cb85c" stroke="#5cb85c" points="145,-255 3,-255 3,-231 145,-231 145,-255"/>
<text text-anchor="middle" x="74" y="-240.6" font-family="Helvetica,sans-Serif" font-size="10.50" fill="white">tvd_runge_kutta_integrator</text>
</a>
</g>
</g>
<!-- integrand -->
<g id="node9" class="node"><title>integrand</title>
<polygon fill="#5cb85c" stroke="#5cb85c" points="103,-87 45,-87 45,-63 103,-63 103,-87"/>
<text text-anchor="middle" x="74" y="-72.6" font-family="Helvetica,sans-Serif" font-size="10.50" fill="white">integrand</text>
</g>
<!-- integrand&#45;&gt;type~euler_1d -->
<g id="edge1" class="edge"><title>integrand&#45;&gt;type~euler_1d</title>
<path fill="none" stroke="black" d="M103.08,-81.0014C116.949,-84.4809 133.727,-89.4772 148,-96 155.901,-99.6106 172.413,-110.387 186.752,-120.119"/>
<polygon fill="black" stroke="black" points="185.074,-123.212 195.303,-125.971 189.027,-117.435 185.074,-123.212"/>
</g>
<!-- integrand&#45;&gt;type~oscillation -->
<g id="edge2" class="edge"><title>integrand&#45;&gt;type~oscillation</title>
<path fill="none" stroke="black" d="M103.157,-79.3003C123.597,-82.4221 151.496,-86.683 173.996,-90.1194"/>
<polygon fill="black" stroke="black" points="173.494,-93.5833 183.908,-91.6332 174.551,-86.6635 173.494,-93.5833"/>
</g>
<!-- integrand&#45;&gt;type~burgers -->
<g id="edge3" class="edge"><title>integrand&#45;&gt;type~burgers</title>
<path fill="none" stroke="black" d="M103.157,-70.6997C124.279,-67.4738 153.364,-63.0317 176.228,-59.5398"/>
<polygon fill="black" stroke="black" points="176.887,-62.9797 186.244,-58.01 175.83,-56.06 176.887,-62.9797"/>
</g>
<!-- integrand&#45;&gt;type~lorenz -->
<g id="edge4" class="edge"><title>integrand&#45;&gt;type~lorenz</title>
<path fill="none" stroke="black" d="M101.511,-62.853C122.911,-53.048 153.225,-39.1586 176.766,-28.3725"/>
<polygon fill="black" stroke="black" points="178.437,-31.4571 186.07,-24.1097 175.521,-25.0933 178.437,-31.4571"/>
</g>
</g>
</svg>
