<?xml version="1.0" encoding="UTF-8" standalone="no"?>
<!DOCTYPE svg PUBLIC "-//W3C//DTD SVG 1.1//EN"
 "http://www.w3.org/Graphics/SVG/1.1/DTD/svg11.dtd">
<!-- Generated by graphviz version 2.26.3 (20100126.1600)
 -->
<!-- Title: type~~graph~~TypeGraph Pages: 1 -->
<svg width="276pt" height="342pt"
 viewBox="0.00 0.00 276.00 342.00" xmlns="http://www.w3.org/2000/svg" xmlns:xlink="http://www.w3.org/1999/xlink">
<g id="graph1" class="graph" transform="scale(1 1) rotate(0) translate(4 338)">
<title>type~~graph~~TypeGraph</title>
<polygon fill="white" stroke="white" points="-4,5 -4,-338 273,-338 273,5 -4,5"/>
<!-- type~euler_explicit_integrator -->
<g id="node1" class="node"><title>type~euler_explicit_integrator</title>
<a xlink:href="../type/euler_explicit_integrator.html" xlink:title="euler_explicit_integrator">
<polygon fill="#5cb85c" stroke="#5cb85c" points="137,-26 11,-26 11,-1.24345e-14 137,-3.55271e-15 137,-26"/>
<text text-anchor="middle" x="74" y="-10.55" font-family="Helvetica,sans-Serif" font-size="10.50" fill="white">euler_explicit_integrator</text>
</a>
</g>
<!-- type~oscillation -->
<g id="node2" class="node"><title>type~oscillation</title>
<a xlink:href="../type/oscillation.html" xlink:title="oscillation">
<polygon fill="#5cb85c" stroke="#5cb85c" points="267,-158 209,-158 209,-132 267,-132 267,-158"/>
<text text-anchor="middle" x="238" y="-142.55" font-family="Helvetica,sans-Serif" font-size="10.50" fill="white">oscillation</text>
</a>
</g>
<!-- type~euler_1d -->
<g id="node3" class="node"><title>type~euler_1d</title>
<a xlink:href="../type/euler_1d.html" xlink:title="euler_1D">
<polygon fill="#5cb85c" stroke="#5cb85c" points="266,-70 210,-70 210,-44 266,-44 266,-70"/>
<text text-anchor="middle" x="238" y="-54.55" font-family="Helvetica,sans-Serif" font-size="10.50" fill="white">euler_1D</text>
</a>
</g>
<!-- type~burgers -->
<g id="node4" class="node"><title>type~burgers</title>
<a xlink:href="../type/burgers.html" xlink:title="burgers">
<polygon fill="#5cb85c" stroke="#5cb85c" points="265,-114 211,-114 211,-88 265,-88 265,-114"/>
<text text-anchor="middle" x="238" y="-98.55" font-family="Helvetica,sans-Serif" font-size="10.50" fill="white">burgers</text>
</a>
</g>
<!-- type~adams_bashforth_integrator -->
<g id="node5" class="node"><title>type~adams_bashforth_integrator</title>
<a xlink:href="../type/adams_bashforth_integrator.html" xlink:title="adams_bashforth_integrator">
<polygon fill="#5cb85c" stroke="#5cb85c" points="148,-202 7.10543e-14,-202 0,-176 148,-176 148,-202"/>
<text text-anchor="middle" x="74" y="-186.55" font-family="Helvetica,sans-Serif" font-size="10.50" fill="white">adams_bashforth_integrator</text>
</a>
</g>
<!-- type~tvd_runge_kutta_integrator -->
<g id="node6" class="node"><title>type~tvd_runge_kutta_integrator</title>
<a xlink:href="../type/tvd_runge_kutta_integrator.html" xlink:title="tvd_runge_kutta_integrator">
<polygon fill="#5cb85c" stroke="#5cb85c" points="145,-246 3,-246 3,-220 145,-220 145,-246"/>
<text text-anchor="middle" x="74" y="-230.55" font-family="Helvetica,sans-Serif" font-size="10.50" fill="white">tvd_runge_kutta_integrator</text>
</a>
</g>
<!-- type~integrand -->
<g id="node7" class="node"><title>type~integrand</title>
<a xlink:href="../type/integrand.html" xlink:title="integrand">
<polygon fill="#5cb85c" stroke="#5cb85c" points="103,-290 45,-290 45,-264 103,-264 103,-290"/>
<text text-anchor="middle" x="74" y="-274.55" font-family="Helvetica,sans-Serif" font-size="10.50" fill="white">integrand</text>
</a>
</g>
<!-- type~lorenz -->
<g id="node8" class="node"><title>type~lorenz</title>
<a xlink:href="../type/lorenz.html" xlink:title="lorenz">
<polygon fill="#5cb85c" stroke="#5cb85c" points="265,-202 211,-202 211,-176 265,-176 265,-202"/>
<text text-anchor="middle" x="238" y="-186.55" font-family="Helvetica,sans-Serif" font-size="10.50" fill="white">lorenz</text>
</a>
</g>
<!-- type~ls_runge_kutta_integrator -->
<g id="node9" class="node"><title>type~ls_runge_kutta_integrator</title>
<a xlink:href="../type/ls_runge_kutta_integrator.html" xlink:title="ls_runge_kutta_integrator">
<polygon fill="#5cb85c" stroke="#5cb85c" points="141,-334 7,-334 7,-308 141,-308 141,-334"/>
<text text-anchor="middle" x="74" y="-318.55" font-family="Helvetica,sans-Serif" font-size="10.50" fill="white">ls_runge_kutta_integrator</text>
</a>
</g>
<!-- integrand -->
<g id="node10" class="node"><title>integrand</title>
<polygon fill="#5cb85c" stroke="#5cb85c" points="103,-158 45,-158 45,-132 103,-132 103,-158"/>
<text text-anchor="middle" x="74" y="-142.55" font-family="Helvetica,sans-Serif" font-size="10.50" fill="white">integrand</text>
</g>
<!-- integrand&#45;&gt;type~oscillation -->
<g id="edge2" class="edge"><title>integrand&#45;&gt;type~oscillation</title>
<path fill="none" stroke="black" d="M178,-145C184.394,-143.865 191.232,-143.282 197.919,-143.051"/>
<polygon fill="black" stroke="black" points="198.253,-146.548 208.217,-142.947 198.182,-139.548 198.253,-146.548"/>
</g>
<!-- integrand&#45;&gt;type~euler_1d -->
<g id="edge6" class="edge"><title>integrand&#45;&gt;type~euler_1d</title>
<path fill="none" stroke="black" d="M103.378,-147.722C124.341,-149.005 153.111,-149.419 178,-145"/>
<path fill="none" stroke="black" d="M178,-145C209.725,-139.367 187.681,-104.007 208,-79 208.489,-78.3985 208.998,-77.805 209.524,-77.2202"/>
<polygon fill="black" stroke="black" points="212.172,-79.5352 217.086,-70.1489 207.391,-74.4222 212.172,-79.5352"/>
</g>
<!-- integrand&#45;&gt;type~burgers -->
<g id="edge8" class="edge"><title>integrand&#45;&gt;type~burgers</title>
<path fill="none" stroke="black" d="M178,-145C178.034,-144.994 195.671,-132.059 211.811,-120.217"/>
<polygon fill="black" stroke="black" points="214.022,-122.936 220.014,-114.199 209.881,-117.292 214.022,-122.936"/>
</g>
<!-- integrand&#45;&gt;type~lorenz -->
<g id="edge10" class="edge"><title>integrand&#45;&gt;type~lorenz</title>
<path fill="none" stroke="black" d="M178,-145C178.034,-144.994 195.671,-157.93 211.811,-169.775"/>
<polygon fill="black" stroke="black" points="209.881,-172.7 220.014,-175.796 214.023,-167.057 209.881,-172.7"/>
</g>
<!-- weno_interpolator_upwind -->
<g id="node12" class="node"><title>weno_interpolator_upwind</title>
<polygon fill="#5cb85c" stroke="#5cb85c" points="143,-70 5,-70 5,-44 143,-44 143,-70"/>
<text text-anchor="middle" x="74" y="-54.55" font-family="Helvetica,sans-Serif" font-size="10.50" fill="white">weno_interpolator_upwind</text>
</g>
<!-- weno_interpolator_upwind&#45;&gt;type~euler_1d -->
<g id="edge4" class="edge"><title>weno_interpolator_upwind&#45;&gt;type~euler_1d</title>
<path fill="none" stroke="black" stroke-dasharray="5,2" d="M143.075,-57C162.504,-57 182.925,-57 199.828,-57"/>
<polygon fill="black" stroke="black" points="199.857,-60.5001 209.857,-57 199.857,-53.5001 199.857,-60.5001"/>
<text text-anchor="middle" x="178" y="-61.45" font-family="Helvetica,sans-Serif" font-size="9.50">weno</text>
</g>
</g>
</svg>
