<?xml version="1.0" encoding="UTF-8" standalone="no"?>
<!DOCTYPE svg PUBLIC "-//W3C//DTD SVG 1.1//EN"
 "http://www.w3.org/Graphics/SVG/1.1/DTD/svg11.dtd">
<!-- Generated by graphviz version 2.26.3 (20100126.1600)
 -->
<!-- Title: type~~graph~~TypeGraph Pages: 1 -->
<svg width="276pt" height="386pt"
 viewBox="0.00 0.00 276.00 386.00" xmlns="http://www.w3.org/2000/svg" xmlns:xlink="http://www.w3.org/1999/xlink">
<g id="graph1" class="graph" transform="scale(1 1) rotate(0) translate(4 382)">
<title>type~~graph~~TypeGraph</title>
<polygon fill="white" stroke="white" points="-4,5 -4,-382 273,-382 273,5 -4,5"/>
<!-- type~oscillation -->
<g id="node1" class="node"><title>type~oscillation</title>
<a xlink:href="../type/oscillation.html" xlink:title="oscillation">
<polygon fill="#5cb85c" stroke="#5cb85c" points="267,-158 209,-158 209,-132 267,-132 267,-158"/>
<text text-anchor="middle" x="238" y="-142.55" font-family="Helvetica,sans-Serif" font-size="10.50" fill="white">oscillation</text>
</a>
</g>
<!-- type~tvd_runge_kutta_integrator -->
<g id="node2" class="node"><title>type~tvd_runge_kutta_integrator</title>
<a xlink:href="../type/tvd_runge_kutta_integrator.html" xlink:title="tvd_runge_kutta_integrator">
<polygon fill="#5cb85c" stroke="#5cb85c" points="145,-158 3,-158 3,-132 145,-132 145,-158"/>
<text text-anchor="middle" x="74" y="-142.55" font-family="Helvetica,sans-Serif" font-size="10.50" fill="white">tvd_runge_kutta_integrator</text>
</a>
</g>
<!-- type~lorenz -->
<g id="node3" class="node"><title>type~lorenz</title>
<a xlink:href="../type/lorenz.html" xlink:title="lorenz">
<polygon fill="#5cb85c" stroke="#5cb85c" points="265,-114 211,-114 211,-88 265,-88 265,-114"/>
<text text-anchor="middle" x="238" y="-98.55" font-family="Helvetica,sans-Serif" font-size="10.50" fill="white">lorenz</text>
</a>
</g>
<!-- type~ls_runge_kutta_integrator -->
<g id="node4" class="node"><title>type~ls_runge_kutta_integrator</title>
<a xlink:href="../type/ls_runge_kutta_integrator.html" xlink:title="ls_runge_kutta_integrator">
<polygon fill="#5cb85c" stroke="#5cb85c" points="141,-202 7,-202 7,-176 141,-176 141,-202"/>
<text text-anchor="middle" x="74" y="-186.55" font-family="Helvetica,sans-Serif" font-size="10.50" fill="white">ls_runge_kutta_integrator</text>
</a>
</g>
<!-- type~burgers -->
<g id="node5" class="node"><title>type~burgers</title>
<a xlink:href="../type/burgers.html" xlink:title="burgers">
<polygon fill="#5cb85c" stroke="#5cb85c" points="265,-70 211,-70 211,-44 265,-44 265,-70"/>
<text text-anchor="middle" x="238" y="-54.55" font-family="Helvetica,sans-Serif" font-size="10.50" fill="white">burgers</text>
</a>
</g>
<!-- type~adams_bashforth_integrator -->
<g id="node6" class="node"><title>type~adams_bashforth_integrator</title>
<a xlink:href="../type/adams_bashforth_integrator.html" xlink:title="adams_bashforth_integrator">
<polygon fill="#5cb85c" stroke="#5cb85c" points="148,-246 7.10543e-14,-246 0,-220 148,-220 148,-246"/>
<text text-anchor="middle" x="74" y="-230.55" font-family="Helvetica,sans-Serif" font-size="10.50" fill="white">adams_bashforth_integrator</text>
</a>
</g>
<!-- type~euler_1d -->
<g id="node7" class="node"><title>type~euler_1d</title>
<a xlink:href="../type/euler_1d.html" xlink:title="euler_1D">
<polygon fill="#5cb85c" stroke="#5cb85c" points="266,-26 210,-26 210,-1.24345e-14 266,-3.55271e-15 266,-26"/>
<text text-anchor="middle" x="238" y="-10.55" font-family="Helvetica,sans-Serif" font-size="10.50" fill="white">euler_1D</text>
</a>
</g>
<!-- type~integrand -->
<g id="node8" class="node"><title>type~integrand</title>
<a xlink:href="../type/integrand.html" xlink:title="integrand">
<polygon fill="#5cb85c" stroke="#5cb85c" points="103,-290 45,-290 45,-264 103,-264 103,-290"/>
<text text-anchor="middle" x="74" y="-274.55" font-family="Helvetica,sans-Serif" font-size="10.50" fill="white">integrand</text>
</a>
</g>
<!-- type~leapfrog_integrator -->
<g id="node9" class="node"><title>type~leapfrog_integrator</title>
<a xlink:href="../type/leapfrog_integrator.html" xlink:title="leapfrog_integrator">
<polygon fill="#5cb85c" stroke="#5cb85c" points="125,-334 23,-334 23,-308 125,-308 125,-334"/>
<text text-anchor="middle" x="74" y="-318.55" font-family="Helvetica,sans-Serif" font-size="10.50" fill="white">leapfrog_integrator</text>
</a>
</g>
<!-- type~euler_explicit_integrator -->
<g id="node10" class="node"><title>type~euler_explicit_integrator</title>
<a xlink:href="../type/euler_explicit_integrator.html" xlink:title="euler_explicit_integrator">
<polygon fill="#5cb85c" stroke="#5cb85c" points="137,-378 11,-378 11,-352 137,-352 137,-378"/>
<text text-anchor="middle" x="74" y="-362.55" font-family="Helvetica,sans-Serif" font-size="10.50" fill="white">euler_explicit_integrator</text>
</a>
</g>
<!-- integrand -->
<g id="node11" class="node"><title>integrand</title>
<polygon fill="#5cb85c" stroke="#5cb85c" points="103,-114 45,-114 45,-88 103,-88 103,-114"/>
<text text-anchor="middle" x="74" y="-98.55" font-family="Helvetica,sans-Serif" font-size="10.50" fill="white">integrand</text>
</g>
<!-- integrand&#45;&gt;type~oscillation -->
<g id="edge2" class="edge"><title>integrand&#45;&gt;type~oscillation</title>
<path fill="none" stroke="black" d="M178,-101C178.034,-100.994 195.671,-113.93 211.811,-125.775"/>
<polygon fill="black" stroke="black" points="209.881,-128.7 220.014,-131.796 214.023,-123.057 209.881,-128.7"/>
</g>
<!-- integrand&#45;&gt;type~lorenz -->
<g id="edge4" class="edge"><title>integrand&#45;&gt;type~lorenz</title>
<path fill="none" stroke="black" d="M178,-101C185.333,-99.698 193.251,-99.1232 200.854,-98.9711"/>
<polygon fill="black" stroke="black" points="200.933,-102.471 210.942,-98.997 200.952,-95.4712 200.933,-102.471"/>
</g>
<!-- integrand&#45;&gt;type~burgers -->
<g id="edge6" class="edge"><title>integrand&#45;&gt;type~burgers</title>
<path fill="none" stroke="black" d="M178,-101C178.034,-100.994 195.671,-88.059 211.811,-76.2172"/>
<polygon fill="black" stroke="black" points="214.022,-78.9362 220.014,-70.1986 209.881,-73.2924 214.022,-78.9362"/>
</g>
<!-- integrand&#45;&gt;type~euler_1d -->
<g id="edge10" class="edge"><title>integrand&#45;&gt;type~euler_1d</title>
<path fill="none" stroke="black" d="M103.378,-103.722C124.341,-105.005 153.111,-105.419 178,-101"/>
<path fill="none" stroke="black" d="M178,-101C209.725,-95.3671 187.681,-60.0071 208,-35 208.489,-34.3985 208.998,-33.805 209.524,-33.2202"/>
<polygon fill="black" stroke="black" points="212.172,-35.5352 217.086,-26.1489 207.391,-30.4222 212.172,-35.5352"/>
</g>
<!-- weno_interpolator_upwind -->
<g id="node15" class="node"><title>weno_interpolator_upwind</title>
<polygon fill="#5cb85c" stroke="#5cb85c" points="143,-26 5,-26 5,-1.24345e-14 143,-3.55271e-15 143,-26"/>
<text text-anchor="middle" x="74" y="-10.55" font-family="Helvetica,sans-Serif" font-size="10.50" fill="white">weno_interpolator_upwind</text>
</g>
<!-- weno_interpolator_upwind&#45;&gt;type~euler_1d -->
<g id="edge8" class="edge"><title>weno_interpolator_upwind&#45;&gt;type~euler_1d</title>
<path fill="none" stroke="black" stroke-dasharray="5,2" d="M143.075,-13C162.504,-13 182.925,-13 199.828,-13"/>
<polygon fill="black" stroke="black" points="199.857,-16.5001 209.857,-13 199.857,-9.5001 199.857,-16.5001"/>
<text text-anchor="middle" x="178" y="-17.45" font-family="Helvetica,sans-Serif" font-size="9.50">weno</text>
</g>
</g>
</svg>
