<?xml version="1.0" encoding="UTF-8" standalone="no"?>
<!DOCTYPE svg PUBLIC "-//W3C//DTD SVG 1.1//EN"
 "http://www.w3.org/Graphics/SVG/1.1/DTD/svg11.dtd">
<!-- Generated by graphviz version 2.26.3 (20100126.1600)
 -->
<!-- Title: type~~oscillation~~InheritsGraph Pages: 1 -->
<svg width="162pt" height="34pt"
 viewBox="0.00 0.00 162.00 34.00" xmlns="http://www.w3.org/2000/svg" xmlns:xlink="http://www.w3.org/1999/xlink">
<g id="graph1" class="graph" transform="scale(1 1) rotate(0) translate(4 30)">
<title>type~~oscillation~~InheritsGraph</title>
<polygon fill="white" stroke="white" points="-4,5 -4,-30 159,-30 159,5 -4,5"/>
<!-- type~oscillation -->
<g id="node1" class="node"><title>type~oscillation</title>
<polygon fill="none" stroke="black" points="153,-26 95,-26 95,-1.24345e-14 153,-3.55271e-15 153,-26"/>
<text text-anchor="middle" x="124" y="-10.55" font-family="Helvetica,sans-Serif" font-size="10.50">oscillation</text>
</g>
<!-- integrand -->
<g id="node2" class="node"><title>integrand</title>
<polygon fill="#5cb85c" stroke="#5cb85c" points="58,-26 2.4869e-14,-26 0,-1.24345e-14 58,-3.55271e-15 58,-26"/>
<text text-anchor="middle" x="29" y="-10.55" font-family="Helvetica,sans-Serif" font-size="10.50" fill="white">integrand</text>
</g>
<!-- integrand&#45;&gt;type~oscillation -->
<g id="edge2" class="edge"><title>integrand&#45;&gt;type~oscillation</title>
<path fill="none" stroke="black" d="M58.0193,-13C66.2554,-13 75.3696,-13 84.1285,-13"/>
<polygon fill="black" stroke="black" points="84.1736,-16.5001 94.1736,-13 84.1735,-9.5001 84.1736,-16.5001"/>
</g>
</g>
</svg>
