<?xml version="1.0" encoding="UTF-8" standalone="no"?>
<!DOCTYPE svg PUBLIC "-//W3C//DTD SVG 1.1//EN"
 "http://www.w3.org/Graphics/SVG/1.1/DTD/svg11.dtd">
<!-- Generated by graphviz version 2.38.0 (20140413.2041)
 -->
<!-- Title: call~~graph~~CallGraph Pages: 1 -->
<svg width="526pt" height="2174pt"
 viewBox="0.00 0.00 526.00 2174.00" xmlns="http://www.w3.org/2000/svg" xmlns:xlink="http://www.w3.org/1999/xlink">
<g id="graph0" class="graph" transform="scale(1 1) rotate(0) translate(4 2170)">
<title>call~~graph~~CallGraph</title>
<polygon fill="white" stroke="none" points="-4,4 -4,-2170 522,-2170 522,4 -4,4"/>
<!-- proc~test_rk~3 -->
<g id="node1" class="node"><title>proc~test_rk~3</title>
<g id="a_node1"><a xlink:href="../proc/test_rk%7E3.html" xlink:title="test_rk">
<polygon fill="#d9534f" stroke="#d9534f" points="247,-108 193,-108 193,-84 247,-84 247,-108"/>
<text text-anchor="middle" x="220" y="-93.6" font-family="Helvetica,sans-Serif" font-size="10.50" fill="white">test_rk</text>
</a>
</g>
</g>
<!-- interface~tvd_runge_kutta_integrator -->
<g id="node3" class="node"><title>interface~tvd_runge_kutta_integrator</title>
<g id="a_node3"><a xlink:href="../interface/tvd_runge_kutta_integrator.html" xlink:title="tvd_runge_kutta_integrator">
<polygon fill="#a7506f" stroke="#a7506f" points="428,-234 286,-234 286,-210 428,-210 428,-234"/>
<text text-anchor="middle" x="357" y="-219.6" font-family="Helvetica,sans-Serif" font-size="10.50" fill="white">tvd_runge_kutta_integrator</text>
</a>
</g>
</g>
<!-- proc~test_rk~3&#45;&gt;interface~tvd_runge_kutta_integrator -->
<g id="edge3" class="edge"><title>proc~test_rk~3&#45;&gt;interface~tvd_runge_kutta_integrator</title>
<path fill="none" stroke="black" d="M240.678,-108.001C244.077,-110.669 247.36,-113.699 250,-117 275.365,-148.724 255.697,-173.953 286,-201 287.491,-202.331 289.063,-203.577 290.701,-204.745"/>
<polygon fill="black" stroke="black" points="288.994,-207.802 299.369,-209.949 292.597,-201.8 288.994,-207.802"/>
</g>
<!-- proc~save_plots~3 -->
<g id="node56" class="node"><title>proc~save_plots~3</title>
<g id="a_node56"><a xlink:href="../proc/save_plots%7E3.html" xlink:title="save_plots">
<polygon fill="#d9534f" stroke="#d9534f" points="389,-108 325,-108 325,-84 389,-84 389,-108"/>
<text text-anchor="middle" x="357" y="-93.6" font-family="Helvetica,sans-Serif" font-size="10.50" fill="white">save_plots</text>
</a>
</g>
</g>
<!-- proc~test_rk~3&#45;&gt;proc~save_plots~3 -->
<g id="edge2" class="edge"><title>proc~test_rk~3&#45;&gt;proc~save_plots~3</title>
<path fill="none" stroke="black" d="M247.029,-96C266.211,-96 292.688,-96 314.74,-96"/>
<polygon fill="black" stroke="black" points="314.838,-99.5001 324.838,-96 314.838,-92.5001 314.838,-99.5001"/>
</g>
<!-- str -->
<g id="node62" class="node"><title>str</title>
<polygon fill="#777777" stroke="#777777" points="384,-192 330,-192 330,-168 384,-168 384,-192"/>
<text text-anchor="middle" x="357" y="-177.6" font-family="Helvetica,sans-Serif" font-size="10.50" fill="white">str</text>
</g>
<!-- proc~test_rk~3&#45;&gt;str -->
<g id="edge1" class="edge"><title>proc~test_rk~3&#45;&gt;str</title>
<path fill="none" stroke="black" d="M240.342,-108.035C263.299,-122.319 301.763,-146.252 327.977,-162.564"/>
<polygon fill="black" stroke="black" points="326.354,-165.676 336.694,-167.987 330.052,-159.732 326.354,-165.676"/>
</g>
<!-- proc~create -->
<g id="node2" class="node"><title>proc~create</title>
<g id="a_node2"><a xlink:href="../proc/create.html" xlink:title="create">
<polygon fill="#d94e8f" stroke="#d94e8f" points="518,-234 464,-234 464,-210 518,-210 518,-234"/>
<text text-anchor="middle" x="491" y="-219.6" font-family="Helvetica,sans-Serif" font-size="10.50" fill="white">create</text>
</a>
</g>
</g>
<!-- interface~tvd_runge_kutta_integrator&#45;&gt;proc~create -->
<g id="edge4" class="edge"><title>interface~tvd_runge_kutta_integrator&#45;&gt;proc~create</title>
<path fill="none" stroke="black" stroke-dasharray="5,2" d="M428.251,-222C437.07,-222 445.787,-222 453.77,-222"/>
<polygon fill="black" stroke="black" points="453.787,-225.5 463.787,-222 453.787,-218.5 453.787,-225.5"/>
</g>
<!-- proc~compute_dt -->
<g id="node4" class="node"><title>proc~compute_dt</title>
<g id="a_node4"><a xlink:href="../proc/compute_dt.html" xlink:title="compute_dt">
<polygon fill="#d94e8f" stroke="#d94e8f" points="111.5,-402 42.5,-402 42.5,-378 111.5,-378 111.5,-402"/>
<text text-anchor="middle" x="77" y="-387.6" font-family="Helvetica,sans-Serif" font-size="10.50" fill="white">compute_dt</text>
</a>
</g>
</g>
<!-- proc~test_euler -->
<g id="node5" class="node"><title>proc~test_euler</title>
<g id="a_node5"><a xlink:href="../proc/test_euler.html" xlink:title="test_euler">
<polygon fill="#d9534f" stroke="#d9534f" points="250,-402 190,-402 190,-378 250,-378 250,-402"/>
<text text-anchor="middle" x="220" y="-387.6" font-family="Helvetica,sans-Serif" font-size="10.50" fill="white">test_euler</text>
</a>
</g>
</g>
<!-- proc~save_plots -->
<g id="node17" class="node"><title>proc~save_plots</title>
<g id="a_node17"><a xlink:href="../proc/save_plots.html" xlink:title="save_plots">
<polygon fill="#d9534f" stroke="#d9534f" points="389,-360 325,-360 325,-336 389,-336 389,-360"/>
<text text-anchor="middle" x="357" y="-345.6" font-family="Helvetica,sans-Serif" font-size="10.50" fill="white">save_plots</text>
</a>
</g>
</g>
<!-- proc~test_euler&#45;&gt;proc~save_plots -->
<g id="edge5" class="edge"><title>proc~test_euler&#45;&gt;proc~save_plots</title>
<path fill="none" stroke="black" d="M250.293,-380.887C269.306,-374.972 294.348,-367.181 315.286,-360.666"/>
<polygon fill="black" stroke="black" points="316.376,-363.993 324.885,-357.68 314.297,-357.309 316.376,-363.993"/>
</g>
<!-- proc~dburgers_dt -->
<g id="node6" class="node"><title>proc~dburgers_dt</title>
<g id="a_node6"><a xlink:href="../proc/dburgers_dt.html" xlink:title="dBurgers_dt">
<polygon fill="#d94e8f" stroke="#d94e8f" points="112.5,-444 41.5,-444 41.5,-420 112.5,-420 112.5,-444"/>
<text text-anchor="middle" x="77" y="-429.6" font-family="Helvetica,sans-Serif" font-size="10.50" fill="white">dBurgers_dt</text>
</a>
</g>
</g>
<!-- proc~lorenz_multiply_real -->
<g id="node7" class="node"><title>proc~lorenz_multiply_real</title>
<g id="a_node7"><a xlink:href="../proc/lorenz_multiply_real.html" xlink:title="lorenz_multiply_real">
<polygon fill="#d94e8f" stroke="#d94e8f" points="131,-486 23,-486 23,-462 131,-462 131,-486"/>
<text text-anchor="middle" x="77" y="-471.6" font-family="Helvetica,sans-Serif" font-size="10.50" fill="white">lorenz_multiply_real</text>
</a>
</g>
</g>
<!-- proc~oscillation_assign_real -->
<g id="node8" class="node"><title>proc~oscillation_assign_real</title>
<g id="a_node8"><a xlink:href="../proc/oscillation_assign_real.html" xlink:title="oscillation_assign_real">
<polygon fill="#d9534f" stroke="#d9534f" points="137,-528 17,-528 17,-504 137,-504 137,-528"/>
<text text-anchor="middle" x="77" y="-513.6" font-family="Helvetica,sans-Serif" font-size="10.50" fill="white">oscillation_assign_real</text>
</a>
</g>
</g>
<!-- proc~test_ab -->
<g id="node9" class="node"><title>proc~test_ab</title>
<g id="a_node9"><a xlink:href="../proc/test_ab.html" xlink:title="test_ab">
<polygon fill="#d9534f" stroke="#d9534f" points="247,-360 193,-360 193,-336 247,-336 247,-360"/>
<text text-anchor="middle" x="220" y="-345.6" font-family="Helvetica,sans-Serif" font-size="10.50" fill="white">test_ab</text>
</a>
</g>
</g>
<!-- proc~test_ab&#45;&gt;interface~tvd_runge_kutta_integrator -->
<g id="edge8" class="edge"><title>proc~test_ab&#45;&gt;interface~tvd_runge_kutta_integrator</title>
<path fill="none" stroke="black" d="M240.678,-335.999C244.077,-333.331 247.36,-330.301 250,-327 275.365,-295.276 255.697,-270.047 286,-243 287.491,-241.669 289.063,-240.423 290.701,-239.255"/>
<polygon fill="black" stroke="black" points="292.597,-242.2 299.369,-234.051 288.994,-236.198 292.597,-242.2"/>
</g>
<!-- proc~test_ab&#45;&gt;proc~save_plots -->
<g id="edge6" class="edge"><title>proc~test_ab&#45;&gt;proc~save_plots</title>
<path fill="none" stroke="black" d="M247.029,-348C266.211,-348 292.688,-348 314.74,-348"/>
<polygon fill="black" stroke="black" points="314.838,-351.5 324.838,-348 314.838,-344.5 314.838,-351.5"/>
</g>
<!-- proc~test_ab&#45;&gt;str -->
<g id="edge7" class="edge"><title>proc~test_ab&#45;&gt;str</title>
<path fill="none" stroke="black" d="M241.616,-335.779C244.763,-333.2 247.717,-330.258 250,-327 283.42,-279.302 245.089,-242.453 286,-201 294.982,-191.899 307.741,-186.709 319.911,-183.761"/>
<polygon fill="black" stroke="black" points="320.773,-187.158 329.899,-181.776 319.408,-180.293 320.773,-187.158"/>
</g>
<!-- proc~init~5 -->
<g id="node10" class="node"><title>proc~init~5</title>
<g id="a_node10"><a xlink:href="../proc/init%7E5.html" xlink:title="init">
<polygon fill="#d9534f" stroke="#d9534f" points="247,-24 193,-24 193,-0 247,-0 247,-24"/>
<text text-anchor="middle" x="220" y="-9.6" font-family="Helvetica,sans-Serif" font-size="10.50" fill="white">init</text>
</a>
</g>
</g>
<!-- proc~init~2 -->
<g id="node11" class="node"><title>proc~init~2</title>
<g id="a_node11"><a xlink:href="../proc/init%7E2.html" xlink:title="init">
<polygon fill="#d9534f" stroke="#d9534f" points="104,-570 50,-570 50,-546 104,-546 104,-570"/>
<text text-anchor="middle" x="77" y="-555.6" font-family="Helvetica,sans-Serif" font-size="10.50" fill="white">init</text>
</a>
</g>
</g>
<!-- proc~test_rk~2 -->
<g id="node12" class="node"><title>proc~test_rk~2</title>
<g id="a_node12"><a xlink:href="../proc/test_rk%7E2.html" xlink:title="test_rk">
<polygon fill="#d9534f" stroke="#d9534f" points="247,-234 193,-234 193,-210 247,-210 247,-234"/>
<text text-anchor="middle" x="220" y="-219.6" font-family="Helvetica,sans-Serif" font-size="10.50" fill="white">test_rk</text>
</a>
</g>
</g>
<!-- proc~test_rk~2&#45;&gt;interface~tvd_runge_kutta_integrator -->
<g id="edge11" class="edge"><title>proc~test_rk~2&#45;&gt;interface~tvd_runge_kutta_integrator</title>
<path fill="none" stroke="black" d="M247.029,-222C255.565,-222 265.544,-222 275.936,-222"/>
<polygon fill="black" stroke="black" points="275.992,-225.5 285.992,-222 275.991,-218.5 275.992,-225.5"/>
</g>
<!-- proc~save_plots~2 -->
<g id="node30" class="node"><title>proc~save_plots~2</title>
<g id="a_node30"><a xlink:href="../proc/save_plots%7E2.html" xlink:title="save_plots">
<polygon fill="#d9534f" stroke="#d9534f" points="389,-276 325,-276 325,-252 389,-252 389,-276"/>
<text text-anchor="middle" x="357" y="-261.6" font-family="Helvetica,sans-Serif" font-size="10.50" fill="white">save_plots</text>
</a>
</g>
</g>
<!-- proc~test_rk~2&#45;&gt;proc~save_plots~2 -->
<g id="edge9" class="edge"><title>proc~test_rk~2&#45;&gt;proc~save_plots~2</title>
<path fill="none" stroke="black" d="M247.21,-230.607C259.042,-234.456 273.206,-239.015 286,-243 295.44,-245.941 305.62,-249.037 315.214,-251.922"/>
<polygon fill="black" stroke="black" points="314.36,-255.32 324.944,-254.836 316.368,-248.614 314.36,-255.32"/>
</g>
<!-- proc~test_rk~2&#45;&gt;str -->
<g id="edge10" class="edge"><title>proc~test_rk~2&#45;&gt;str</title>
<path fill="none" stroke="black" d="M247.21,-213.393C259.042,-209.544 273.206,-204.985 286,-201 297.037,-197.562 309.084,-193.911 320.025,-190.635"/>
<polygon fill="black" stroke="black" points="321.118,-193.961 329.7,-187.748 319.117,-187.253 321.118,-193.961"/>
</g>
<!-- proc~test_euler~2 -->
<g id="node13" class="node"><title>proc~test_euler~2</title>
<g id="a_node13"><a xlink:href="../proc/test_euler%7E2.html" xlink:title="test_euler">
<polygon fill="#d9534f" stroke="#d9534f" points="250,-318 190,-318 190,-294 250,-294 250,-318"/>
<text text-anchor="middle" x="220" y="-303.6" font-family="Helvetica,sans-Serif" font-size="10.50" fill="white">test_euler</text>
</a>
</g>
</g>
<!-- proc~test_euler~2&#45;&gt;proc~save_plots~2 -->
<g id="edge12" class="edge"><title>proc~test_euler~2&#45;&gt;proc~save_plots~2</title>
<path fill="none" stroke="black" d="M250.293,-296.887C269.306,-290.972 294.348,-283.181 315.286,-276.666"/>
<polygon fill="black" stroke="black" points="316.376,-279.993 324.885,-273.68 314.297,-273.309 316.376,-279.993"/>
</g>
<!-- proc~add_oscillation -->
<g id="node14" class="node"><title>proc~add_oscillation</title>
<g id="a_node14"><a xlink:href="../proc/add_oscillation.html" xlink:title="add_oscillation">
<polygon fill="#d94e8f" stroke="#d94e8f" points="118.5,-612 35.5,-612 35.5,-588 118.5,-588 118.5,-612"/>
<text text-anchor="middle" x="77" y="-597.6" font-family="Helvetica,sans-Serif" font-size="10.50" fill="white">add_oscillation</text>
</a>
</g>
</g>
<!-- proc~burgers_multiply_burgers -->
<g id="node15" class="node"><title>proc~burgers_multiply_burgers</title>
<g id="a_node15"><a xlink:href="../proc/burgers_multiply_burgers.html" xlink:title="burgers_multiply_burgers">
<polygon fill="#d94e8f" stroke="#d94e8f" points="144,-654 10,-654 10,-630 144,-630 144,-654"/>
<text text-anchor="middle" x="77" y="-639.6" font-family="Helvetica,sans-Serif" font-size="10.50" fill="white">burgers_multiply_burgers</text>
</a>
</g>
</g>
<!-- proc~oscillation_assign_oscillation -->
<g id="node16" class="node"><title>proc~oscillation_assign_oscillation</title>
<g id="a_node16"><a xlink:href="../proc/oscillation_assign_oscillation.html" xlink:title="oscillation_assign_oscillation">
<polygon fill="#d9534f" stroke="#d9534f" points="151,-696 3,-696 3,-672 151,-672 151,-696"/>
<text text-anchor="middle" x="77" y="-681.6" font-family="Helvetica,sans-Serif" font-size="10.50" fill="white">oscillation_assign_oscillation</text>
</a>
</g>
</g>
<!-- proc~dlorenz_dt -->
<g id="node18" class="node"><title>proc~dlorenz_dt</title>
<g id="a_node18"><a xlink:href="../proc/dlorenz_dt.html" xlink:title="dLorenz_dt">
<polygon fill="#d94e8f" stroke="#d94e8f" points="110.5,-738 43.5,-738 43.5,-714 110.5,-714 110.5,-738"/>
<text text-anchor="middle" x="77" y="-723.6" font-family="Helvetica,sans-Serif" font-size="10.50" fill="white">dLorenz_dt</text>
</a>
</g>
</g>
<!-- proc~integrate~3 -->
<g id="node19" class="node"><title>proc~integrate~3</title>
<g id="a_node19"><a xlink:href="../proc/integrate%7E3.html" xlink:title="integrate">
<polygon fill="#d9534f" stroke="#d9534f" points="104.5,-780 49.5,-780 49.5,-756 104.5,-756 104.5,-780"/>
<text text-anchor="middle" x="77" y="-765.6" font-family="Helvetica,sans-Serif" font-size="10.50" fill="white">integrate</text>
</a>
</g>
</g>
<!-- proc~test_rk -->
<g id="node20" class="node"><title>proc~test_rk</title>
<g id="a_node20"><a xlink:href="../proc/test_rk.html" xlink:title="test_rk">
<polygon fill="#d9534f" stroke="#d9534f" points="247,-276 193,-276 193,-252 247,-252 247,-276"/>
<text text-anchor="middle" x="220" y="-261.6" font-family="Helvetica,sans-Serif" font-size="10.50" fill="white">test_rk</text>
</a>
</g>
</g>
<!-- proc~test_rk&#45;&gt;interface~tvd_runge_kutta_integrator -->
<g id="edge15" class="edge"><title>proc~test_rk&#45;&gt;interface~tvd_runge_kutta_integrator</title>
<path fill="none" stroke="black" d="M247.21,-255.393C259.042,-251.544 273.206,-246.985 286,-243 292.348,-241.022 299.031,-238.975 305.645,-236.968"/>
<polygon fill="black" stroke="black" points="306.678,-240.312 315.24,-234.071 304.655,-233.611 306.678,-240.312"/>
</g>
<!-- proc~test_rk&#45;&gt;proc~save_plots -->
<g id="edge13" class="edge"><title>proc~test_rk&#45;&gt;proc~save_plots</title>
<path fill="none" stroke="black" d="M240.342,-276.035C263.299,-290.319 301.763,-314.252 327.977,-330.564"/>
<polygon fill="black" stroke="black" points="326.354,-333.676 336.694,-335.987 330.052,-327.732 326.354,-333.676"/>
</g>
<!-- proc~test_rk&#45;&gt;str -->
<g id="edge14" class="edge"><title>proc~test_rk&#45;&gt;str</title>
<path fill="none" stroke="black" d="M239.002,-251.976C242.767,-249.186 246.617,-246.117 250,-243 268.082,-226.342 265.392,-214.408 286,-201 296.2,-194.364 308.582,-189.753 320.079,-186.58"/>
<polygon fill="black" stroke="black" points="321.016,-189.954 329.878,-184.149 319.33,-183.16 321.016,-189.954"/>
</g>
<!-- proc~update_previous_steps~2 -->
<g id="node21" class="node"><title>proc~update_previous_steps~2</title>
<g id="a_node21"><a xlink:href="../proc/update_previous_steps%7E2.html" xlink:title="update_previous_steps">
<polygon fill="#d9534f" stroke="#d9534f" points="139,-822 15,-822 15,-798 139,-798 139,-822"/>
<text text-anchor="middle" x="77" y="-807.6" font-family="Helvetica,sans-Serif" font-size="10.50" fill="white">update_previous_steps</text>
</a>
</g>
</g>
<!-- proc~destroy~2 -->
<g id="node22" class="node"><title>proc~destroy~2</title>
<g id="a_node22"><a xlink:href="../proc/destroy%7E2.html" xlink:title="destroy">
<polygon fill="#d9534f" stroke="#d9534f" points="104,-864 50,-864 50,-840 104,-840 104,-864"/>
<text text-anchor="middle" x="77" y="-849.6" font-family="Helvetica,sans-Serif" font-size="10.50" fill="white">destroy</text>
</a>
</g>
</g>
<!-- proc~finalize -->
<g id="node23" class="node"><title>proc~finalize</title>
<g id="a_node23"><a xlink:href="../proc/finalize.html" xlink:title="finalize">
<polygon fill="#d9534f" stroke="#d9534f" points="104,-906 50,-906 50,-882 104,-882 104,-906"/>
<text text-anchor="middle" x="77" y="-891.6" font-family="Helvetica,sans-Serif" font-size="10.50" fill="white">finalize</text>
</a>
</g>
</g>
<!-- proc~doscillation_dt -->
<g id="node24" class="node"><title>proc~doscillation_dt</title>
<g id="a_node24"><a xlink:href="../proc/doscillation_dt.html" xlink:title="dOscillation_dt">
<polygon fill="#d94e8f" stroke="#d94e8f" points="118,-948 36,-948 36,-924 118,-924 118,-948"/>
<text text-anchor="middle" x="77" y="-933.6" font-family="Helvetica,sans-Serif" font-size="10.50" fill="white">dOscillation_dt</text>
</a>
</g>
</g>
<!-- proc~lorenz_assign_lorenz -->
<g id="node25" class="node"><title>proc~lorenz_assign_lorenz</title>
<g id="a_node25"><a xlink:href="../proc/lorenz_assign_lorenz.html" xlink:title="lorenz_assign_lorenz">
<polygon fill="#d9534f" stroke="#d9534f" points="134,-990 20,-990 20,-966 134,-966 134,-990"/>
<text text-anchor="middle" x="77" y="-975.6" font-family="Helvetica,sans-Serif" font-size="10.50" fill="white">lorenz_assign_lorenz</text>
</a>
</g>
</g>
<!-- proc~integrate~2 -->
<g id="node26" class="node"><title>proc~integrate~2</title>
<g id="a_node26"><a xlink:href="../proc/integrate%7E2.html" xlink:title="integrate">
<polygon fill="#d9534f" stroke="#d9534f" points="104.5,-1032 49.5,-1032 49.5,-1008 104.5,-1008 104.5,-1032"/>
<text text-anchor="middle" x="77" y="-1017.6" font-family="Helvetica,sans-Serif" font-size="10.50" fill="white">integrate</text>
</a>
</g>
</g>
<!-- proc~real_multiply_lorenz -->
<g id="node27" class="node"><title>proc~real_multiply_lorenz</title>
<g id="a_node27"><a xlink:href="../proc/real_multiply_lorenz.html" xlink:title="real_multiply_lorenz">
<polygon fill="#d94e8f" stroke="#d94e8f" points="131,-1074 23,-1074 23,-1050 131,-1050 131,-1074"/>
<text text-anchor="middle" x="77" y="-1059.6" font-family="Helvetica,sans-Serif" font-size="10.50" fill="white">real_multiply_lorenz</text>
</a>
</g>
</g>
<!-- proc~lorenz_multiply_lorenz -->
<g id="node28" class="node"><title>proc~lorenz_multiply_lorenz</title>
<g id="a_node28"><a xlink:href="../proc/lorenz_multiply_lorenz.html" xlink:title="lorenz_multiply_lorenz">
<polygon fill="#d94e8f" stroke="#d94e8f" points="136.5,-1116 17.5,-1116 17.5,-1092 136.5,-1092 136.5,-1116"/>
<text text-anchor="middle" x="77" y="-1101.6" font-family="Helvetica,sans-Serif" font-size="10.50" fill="white">lorenz_multiply_lorenz</text>
</a>
</g>
</g>
<!-- proc~dburgers_dx -->
<g id="node29" class="node"><title>proc~dburgers_dx</title>
<g id="a_node29"><a xlink:href="../proc/dburgers_dx.html" xlink:title="dBurgers_dx">
<polygon fill="#d94e8f" stroke="#d94e8f" points="113.5,-1158 40.5,-1158 40.5,-1134 113.5,-1134 113.5,-1158"/>
<text text-anchor="middle" x="77" y="-1143.6" font-family="Helvetica,sans-Serif" font-size="10.50" fill="white">dBurgers_dx</text>
</a>
</g>
</g>
<!-- proc~add_burgers -->
<g id="node31" class="node"><title>proc~add_burgers</title>
<g id="a_node31"><a xlink:href="../proc/add_burgers.html" xlink:title="add_burgers">
<polygon fill="#d94e8f" stroke="#d94e8f" points="113.5,-1200 40.5,-1200 40.5,-1176 113.5,-1176 113.5,-1200"/>
<text text-anchor="middle" x="77" y="-1185.6" font-family="Helvetica,sans-Serif" font-size="10.50" fill="white">add_burgers</text>
</a>
</g>
</g>
<!-- proc~lorenz_assign_real -->
<g id="node32" class="node"><title>proc~lorenz_assign_real</title>
<g id="a_node32"><a xlink:href="../proc/lorenz_assign_real.html" xlink:title="lorenz_assign_real">
<polygon fill="#d9534f" stroke="#d9534f" points="128.5,-1242 25.5,-1242 25.5,-1218 128.5,-1218 128.5,-1242"/>
<text text-anchor="middle" x="77" y="-1227.6" font-family="Helvetica,sans-Serif" font-size="10.50" fill="white">lorenz_assign_real</text>
</a>
</g>
</g>
<!-- proc~test_ab~2 -->
<g id="node33" class="node"><title>proc~test_ab~2</title>
<g id="a_node33"><a xlink:href="../proc/test_ab%7E2.html" xlink:title="test_ab">
<polygon fill="#d9534f" stroke="#d9534f" points="247,-192 193,-192 193,-168 247,-168 247,-192"/>
<text text-anchor="middle" x="220" y="-177.6" font-family="Helvetica,sans-Serif" font-size="10.50" fill="white">test_ab</text>
</a>
</g>
</g>
<!-- proc~test_ab~2&#45;&gt;interface~tvd_runge_kutta_integrator -->
<g id="edge18" class="edge"><title>proc~test_ab~2&#45;&gt;interface~tvd_runge_kutta_integrator</title>
<path fill="none" stroke="black" d="M247.21,-188.607C259.042,-192.456 273.206,-197.015 286,-201 292.348,-202.978 299.031,-205.025 305.645,-207.032"/>
<polygon fill="black" stroke="black" points="304.655,-210.389 315.24,-209.929 306.678,-203.688 304.655,-210.389"/>
</g>
<!-- proc~test_ab~2&#45;&gt;proc~save_plots~2 -->
<g id="edge16" class="edge"><title>proc~test_ab~2&#45;&gt;proc~save_plots~2</title>
<path fill="none" stroke="black" d="M239.002,-192.024C242.767,-194.814 246.617,-197.883 250,-201 268.082,-217.658 265.392,-229.592 286,-243 294.694,-248.657 304.974,-252.842 314.94,-255.919"/>
<polygon fill="black" stroke="black" points="314.159,-259.334 324.731,-258.64 316.033,-252.59 314.159,-259.334"/>
</g>
<!-- proc~test_ab~2&#45;&gt;str -->
<g id="edge17" class="edge"><title>proc~test_ab~2&#45;&gt;str</title>
<path fill="none" stroke="black" d="M247.029,-180C267.627,-180 296.636,-180 319.545,-180"/>
<polygon fill="black" stroke="black" points="319.59,-183.5 329.59,-180 319.59,-176.5 319.59,-183.5"/>
</g>
<!-- proc~init~4 -->
<g id="node34" class="node"><title>proc~init~4</title>
<g id="a_node34"><a xlink:href="../proc/init%7E4.html" xlink:title="init">
<polygon fill="#d9534f" stroke="#d9534f" points="104,-1284 50,-1284 50,-1260 104,-1260 104,-1284"/>
<text text-anchor="middle" x="77" y="-1269.6" font-family="Helvetica,sans-Serif" font-size="10.50" fill="white">init</text>
</a>
</g>
</g>
<!-- proc~d2burgers_dx2 -->
<g id="node35" class="node"><title>proc~d2burgers_dx2</title>
<g id="a_node35"><a xlink:href="../proc/d2burgers_dx2.html" xlink:title="d2Burgers_dx2">
<polygon fill="#d94e8f" stroke="#d94e8f" points="119.5,-1326 34.5,-1326 34.5,-1302 119.5,-1302 119.5,-1326"/>
<text text-anchor="middle" x="77" y="-1311.6" font-family="Helvetica,sans-Serif" font-size="10.50" fill="white">d2Burgers_dx2</text>
</a>
</g>
</g>
<!-- proc~test_euler~3 -->
<g id="node36" class="node"><title>proc~test_euler~3</title>
<g id="a_node36"><a xlink:href="../proc/test_euler%7E3.html" xlink:title="test_euler">
<polygon fill="#d9534f" stroke="#d9534f" points="250,-66 190,-66 190,-42 250,-42 250,-66"/>
<text text-anchor="middle" x="220" y="-51.6" font-family="Helvetica,sans-Serif" font-size="10.50" fill="white">test_euler</text>
</a>
</g>
</g>
<!-- proc~test_euler~3&#45;&gt;proc~save_plots~3 -->
<g id="edge19" class="edge"><title>proc~test_euler~3&#45;&gt;proc~save_plots~3</title>
<path fill="none" stroke="black" d="M250.293,-63.1134C269.306,-69.0284 294.348,-76.8195 315.286,-83.3335"/>
<polygon fill="black" stroke="black" points="314.297,-86.6911 324.885,-86.3199 316.376,-80.0071 314.297,-86.6911"/>
</g>
<!-- proc~real_multiply_burgers -->
<g id="node37" class="node"><title>proc~real_multiply_burgers</title>
<g id="a_node37"><a xlink:href="../proc/real_multiply_burgers.html" xlink:title="real_multiply_burgers">
<polygon fill="#d94e8f" stroke="#d94e8f" points="134.5,-1368 19.5,-1368 19.5,-1344 134.5,-1344 134.5,-1368"/>
<text text-anchor="middle" x="77" y="-1353.6" font-family="Helvetica,sans-Serif" font-size="10.50" fill="white">real_multiply_burgers</text>
</a>
</g>
</g>
<!-- proc~output~3 -->
<g id="node38" class="node"><title>proc~output~3</title>
<g id="a_node38"><a xlink:href="../proc/output%7E3.html" xlink:title="output">
<polygon fill="#d94e8f" stroke="#d94e8f" points="104,-1410 50,-1410 50,-1386 104,-1386 104,-1410"/>
<text text-anchor="middle" x="77" y="-1395.6" font-family="Helvetica,sans-Serif" font-size="10.50" fill="white">output</text>
</a>
</g>
</g>
<!-- proc~burgers_assign_burgers -->
<g id="node39" class="node"><title>proc~burgers_assign_burgers</title>
<g id="a_node39"><a xlink:href="../proc/burgers_assign_burgers.html" xlink:title="burgers_assign_burgers">
<polygon fill="#d9534f" stroke="#d9534f" points="141.5,-1452 12.5,-1452 12.5,-1428 141.5,-1428 141.5,-1452"/>
<text text-anchor="middle" x="77" y="-1437.6" font-family="Helvetica,sans-Serif" font-size="10.50" fill="white">burgers_assign_burgers</text>
</a>
</g>
</g>
<!-- proc~update_previous_steps -->
<g id="node40" class="node"><title>proc~update_previous_steps</title>
<g id="a_node40"><a xlink:href="../proc/update_previous_steps.html" xlink:title="update_previous_steps">
<polygon fill="#d9534f" stroke="#d9534f" points="139,-1494 15,-1494 15,-1470 139,-1470 139,-1494"/>
<text text-anchor="middle" x="77" y="-1479.6" font-family="Helvetica,sans-Serif" font-size="10.50" fill="white">update_previous_steps</text>
</a>
</g>
</g>
<!-- proc~destroy -->
<g id="node41" class="node"><title>proc~destroy</title>
<g id="a_node41"><a xlink:href="../proc/destroy.html" xlink:title="destroy">
<polygon fill="#d9534f" stroke="#d9534f" points="104,-1536 50,-1536 50,-1512 104,-1512 104,-1536"/>
<text text-anchor="middle" x="77" y="-1521.6" font-family="Helvetica,sans-Serif" font-size="10.50" fill="white">destroy</text>
</a>
</g>
</g>
<!-- proc~init -->
<g id="node42" class="node"><title>proc~init</title>
<g id="a_node42"><a xlink:href="../proc/init.html" xlink:title="init">
<polygon fill="#d9534f" stroke="#d9534f" points="104,-1578 50,-1578 50,-1554 104,-1554 104,-1578"/>
<text text-anchor="middle" x="77" y="-1563.6" font-family="Helvetica,sans-Serif" font-size="10.50" fill="white">init</text>
</a>
</g>
</g>
<!-- proc~burgers_assign_real -->
<g id="node43" class="node"><title>proc~burgers_assign_real</title>
<g id="a_node43"><a xlink:href="../proc/burgers_assign_real.html" xlink:title="burgers_assign_real">
<polygon fill="#d9534f" stroke="#d9534f" points="132,-1620 22,-1620 22,-1596 132,-1596 132,-1620"/>
<text text-anchor="middle" x="77" y="-1605.6" font-family="Helvetica,sans-Serif" font-size="10.50" fill="white">burgers_assign_real</text>
</a>
</g>
</g>
<!-- proc~burgers_multiply_real -->
<g id="node44" class="node"><title>proc~burgers_multiply_real</title>
<g id="a_node44"><a xlink:href="../proc/burgers_multiply_real.html" xlink:title="burgers_multiply_real">
<polygon fill="#d94e8f" stroke="#d94e8f" points="134.5,-1662 19.5,-1662 19.5,-1638 134.5,-1638 134.5,-1662"/>
<text text-anchor="middle" x="77" y="-1647.6" font-family="Helvetica,sans-Serif" font-size="10.50" fill="white">burgers_multiply_real</text>
</a>
</g>
</g>
<!-- proc~oscillation_multiply_oscillation -->
<g id="node45" class="node"><title>proc~oscillation_multiply_oscillation</title>
<g id="a_node45"><a xlink:href="../proc/oscillation_multiply_oscillation.html" xlink:title="oscillation_multiply_oscillation">
<polygon fill="#d94e8f" stroke="#d94e8f" points="154,-1704 0,-1704 0,-1680 154,-1680 154,-1704"/>
<text text-anchor="middle" x="77" y="-1689.6" font-family="Helvetica,sans-Serif" font-size="10.50" fill="white">oscillation_multiply_oscillation</text>
</a>
</g>
</g>
<!-- proc~sub_burgers -->
<g id="node46" class="node"><title>proc~sub_burgers</title>
<g id="a_node46"><a xlink:href="../proc/sub_burgers.html" xlink:title="sub_burgers">
<polygon fill="#d94e8f" stroke="#d94e8f" points="113.5,-1746 40.5,-1746 40.5,-1722 113.5,-1722 113.5,-1746"/>
<text text-anchor="middle" x="77" y="-1731.6" font-family="Helvetica,sans-Serif" font-size="10.50" fill="white">sub_burgers</text>
</a>
</g>
</g>
<!-- proc~update_previous_steps~3 -->
<g id="node47" class="node"><title>proc~update_previous_steps~3</title>
<g id="a_node47"><a xlink:href="../proc/update_previous_steps%7E3.html" xlink:title="update_previous_steps">
<polygon fill="#d9534f" stroke="#d9534f" points="139,-1788 15,-1788 15,-1764 139,-1764 139,-1788"/>
<text text-anchor="middle" x="77" y="-1773.6" font-family="Helvetica,sans-Serif" font-size="10.50" fill="white">update_previous_steps</text>
</a>
</g>
</g>
<!-- proc~oscillation_multiply_real -->
<g id="node48" class="node"><title>proc~oscillation_multiply_real</title>
<g id="a_node48"><a xlink:href="../proc/oscillation_multiply_real.html" xlink:title="oscillation_multiply_real">
<polygon fill="#d94e8f" stroke="#d94e8f" points="139.5,-1830 14.5,-1830 14.5,-1806 139.5,-1806 139.5,-1830"/>
<text text-anchor="middle" x="77" y="-1815.6" font-family="Helvetica,sans-Serif" font-size="10.50" fill="white">oscillation_multiply_real</text>
</a>
</g>
</g>
<!-- proc~test_ab~3 -->
<g id="node49" class="node"><title>proc~test_ab~3</title>
<g id="a_node49"><a xlink:href="../proc/test_ab%7E3.html" xlink:title="test_ab">
<polygon fill="#d9534f" stroke="#d9534f" points="247,-150 193,-150 193,-126 247,-126 247,-150"/>
<text text-anchor="middle" x="220" y="-135.6" font-family="Helvetica,sans-Serif" font-size="10.50" fill="white">test_ab</text>
</a>
</g>
</g>
<!-- proc~test_ab~3&#45;&gt;interface~tvd_runge_kutta_integrator -->
<g id="edge22" class="edge"><title>proc~test_ab~3&#45;&gt;interface~tvd_runge_kutta_integrator</title>
<path fill="none" stroke="black" d="M239.002,-150.024C242.767,-152.814 246.617,-155.883 250,-159 268.082,-175.658 265.392,-187.592 286,-201 288.627,-202.709 291.399,-204.284 294.263,-205.735"/>
<polygon fill="black" stroke="black" points="293.106,-209.052 303.662,-209.957 295.974,-202.666 293.106,-209.052"/>
</g>
<!-- proc~test_ab~3&#45;&gt;proc~save_plots~3 -->
<g id="edge21" class="edge"><title>proc~test_ab~3&#45;&gt;proc~save_plots~3</title>
<path fill="none" stroke="black" d="M247.029,-129.902C266.298,-123.907 292.928,-115.622 315.039,-108.743"/>
<polygon fill="black" stroke="black" points="316.329,-112.008 324.838,-105.695 314.249,-105.324 316.329,-112.008"/>
</g>
<!-- proc~test_ab~3&#45;&gt;str -->
<g id="edge20" class="edge"><title>proc~test_ab~3&#45;&gt;str</title>
<path fill="none" stroke="black" d="M247.029,-146.098C267.72,-152.535 296.898,-161.613 319.855,-168.755"/>
<polygon fill="black" stroke="black" points="319.002,-172.155 329.59,-171.784 321.081,-165.471 319.002,-172.155"/>
</g>
<!-- proc~add_lorenz -->
<g id="node50" class="node"><title>proc~add_lorenz</title>
<g id="a_node50"><a xlink:href="../proc/add_lorenz.html" xlink:title="add_lorenz">
<polygon fill="#d94e8f" stroke="#d94e8f" points="110,-1872 44,-1872 44,-1848 110,-1848 110,-1872"/>
<text text-anchor="middle" x="77" y="-1857.6" font-family="Helvetica,sans-Serif" font-size="10.50" fill="white">add_lorenz</text>
</a>
</g>
</g>
<!-- proc~init~3 -->
<g id="node51" class="node"><title>proc~init~3</title>
<g id="a_node51"><a xlink:href="../proc/init%7E3.html" xlink:title="init">
<polygon fill="#d9534f" stroke="#d9534f" points="104,-1914 50,-1914 50,-1890 104,-1890 104,-1914"/>
<text text-anchor="middle" x="77" y="-1899.6" font-family="Helvetica,sans-Serif" font-size="10.50" fill="white">init</text>
</a>
</g>
</g>
<!-- proc~output~2 -->
<g id="node52" class="node"><title>proc~output~2</title>
<g id="a_node52"><a xlink:href="../proc/output%7E2.html" xlink:title="output">
<polygon fill="#d94e8f" stroke="#d94e8f" points="104,-1956 50,-1956 50,-1932 104,-1932 104,-1956"/>
<text text-anchor="middle" x="77" y="-1941.6" font-family="Helvetica,sans-Serif" font-size="10.50" fill="white">output</text>
</a>
</g>
</g>
<!-- proc~output -->
<g id="node53" class="node"><title>proc~output</title>
<g id="a_node53"><a xlink:href="../proc/output.html" xlink:title="output">
<polygon fill="#d94e8f" stroke="#d94e8f" points="104,-1998 50,-1998 50,-1974 104,-1974 104,-1998"/>
<text text-anchor="middle" x="77" y="-1983.6" font-family="Helvetica,sans-Serif" font-size="10.50" fill="white">output</text>
</a>
</g>
</g>
<!-- proc~real_multiply_oscillation -->
<g id="node54" class="node"><title>proc~real_multiply_oscillation</title>
<g id="a_node54"><a xlink:href="../proc/real_multiply_oscillation.html" xlink:title="real_multiply_oscillation">
<polygon fill="#d94e8f" stroke="#d94e8f" points="139.5,-2040 14.5,-2040 14.5,-2016 139.5,-2016 139.5,-2040"/>
<text text-anchor="middle" x="77" y="-2025.6" font-family="Helvetica,sans-Serif" font-size="10.50" fill="white">real_multiply_oscillation</text>
</a>
</g>
</g>
<!-- proc~init~6 -->
<g id="node55" class="node"><title>proc~init~6</title>
<g id="a_node55"><a xlink:href="../proc/init%7E6.html" xlink:title="init">
<polygon fill="#d9534f" stroke="#d9534f" points="104,-2082 50,-2082 50,-2058 104,-2058 104,-2082"/>
<text text-anchor="middle" x="77" y="-2067.6" font-family="Helvetica,sans-Serif" font-size="10.50" fill="white">init</text>
</a>
</g>
</g>
<!-- proc~integrate -->
<g id="node57" class="node"><title>proc~integrate</title>
<g id="a_node57"><a xlink:href="../proc/integrate.html" xlink:title="integrate">
<polygon fill="#d9534f" stroke="#d9534f" points="104.5,-2124 49.5,-2124 49.5,-2100 104.5,-2100 104.5,-2124"/>
<text text-anchor="middle" x="77" y="-2109.6" font-family="Helvetica,sans-Serif" font-size="10.50" fill="white">integrate</text>
</a>
</g>
</g>
<!-- proc~finalize~2 -->
<g id="node58" class="node"><title>proc~finalize~2</title>
<g id="a_node58"><a xlink:href="../proc/finalize%7E2.html" xlink:title="finalize">
<polygon fill="#d9534f" stroke="#d9534f" points="104,-2166 50,-2166 50,-2142 104,-2142 104,-2166"/>
<text text-anchor="middle" x="77" y="-2151.6" font-family="Helvetica,sans-Serif" font-size="10.50" fill="white">finalize</text>
</a>
</g>
</g>
<!-- program~integrate_oscillation -->
<g id="node59" class="node"><title>program~integrate_oscillation</title>
<g id="a_node59"><a xlink:href="../program/integrate_oscillation.html" xlink:title="integrate_oscillation">
<polygon fill="#f0ad4e" stroke="#f0ad4e" points="130.5,-360 23.5,-360 23.5,-336 130.5,-336 130.5,-360"/>
<text text-anchor="middle" x="77" y="-345.6" font-family="Helvetica,sans-Serif" font-size="10.50" fill="white">integrate_oscillation</text>
</a>
</g>
</g>
<!-- program~integrate_oscillation&#45;&gt;proc~test_euler -->
<g id="edge23" class="edge"><title>program~integrate_oscillation&#45;&gt;proc~test_euler</title>
<path fill="none" stroke="black" d="M122.699,-360.007C133.004,-362.87 143.903,-365.975 154,-369 162.584,-371.571 171.764,-374.454 180.44,-377.241"/>
<polygon fill="black" stroke="black" points="179.37,-380.574 189.962,-380.324 181.527,-373.914 179.37,-380.574"/>
</g>
<!-- program~integrate_oscillation&#45;&gt;proc~test_ab -->
<g id="edge25" class="edge"><title>program~integrate_oscillation&#45;&gt;proc~test_ab</title>
<path fill="none" stroke="black" d="M130.503,-348C147.807,-348 166.661,-348 182.503,-348"/>
<polygon fill="black" stroke="black" points="182.933,-351.5 192.933,-348 182.933,-344.5 182.933,-351.5"/>
</g>
<!-- program~integrate_oscillation&#45;&gt;proc~test_rk -->
<g id="edge24" class="edge"><title>program~integrate_oscillation&#45;&gt;proc~test_rk</title>
<path fill="none" stroke="black" d="M98.2019,-335.965C122.284,-321.618 162.703,-297.538 190.09,-281.223"/>
<polygon fill="black" stroke="black" points="192.036,-284.138 198.836,-276.013 188.453,-278.124 192.036,-284.138"/>
</g>
<!-- program~integrate_lorenz -->
<g id="node60" class="node"><title>program~integrate_lorenz</title>
<g id="a_node60"><a xlink:href="../program/integrate_lorenz.html" xlink:title="integrate_lorenz">
<polygon fill="#f0ad4e" stroke="#f0ad4e" points="122,-234 32,-234 32,-210 122,-210 122,-234"/>
<text text-anchor="middle" x="77" y="-219.6" font-family="Helvetica,sans-Serif" font-size="10.50" fill="white">integrate_lorenz</text>
</a>
</g>
</g>
<!-- program~integrate_lorenz&#45;&gt;proc~test_rk~2 -->
<g id="edge26" class="edge"><title>program~integrate_lorenz&#45;&gt;proc~test_rk~2</title>
<path fill="none" stroke="black" d="M122.226,-222C141.761,-222 164.436,-222 182.925,-222"/>
<polygon fill="black" stroke="black" points="182.995,-225.5 192.995,-222 182.995,-218.5 182.995,-225.5"/>
</g>
<!-- program~integrate_lorenz&#45;&gt;proc~test_euler~2 -->
<g id="edge27" class="edge"><title>program~integrate_lorenz&#45;&gt;proc~test_euler~2</title>
<path fill="none" stroke="black" d="M98.2019,-234.035C122.284,-248.382 162.703,-272.462 190.09,-288.777"/>
<polygon fill="black" stroke="black" points="188.453,-291.876 198.836,-293.987 192.036,-285.862 188.453,-291.876"/>
</g>
<!-- program~integrate_lorenz&#45;&gt;proc~test_ab~2 -->
<g id="edge28" class="edge"><title>program~integrate_lorenz&#45;&gt;proc~test_ab~2</title>
<path fill="none" stroke="black" d="M118.405,-209.964C138.779,-203.896 163.28,-196.597 183.001,-190.723"/>
<polygon fill="black" stroke="black" points="184.247,-194.004 192.831,-187.795 182.248,-187.295 184.247,-194.004"/>
</g>
<!-- program~integrate_burgers -->
<g id="node61" class="node"><title>program~integrate_burgers</title>
<g id="a_node61"><a xlink:href="../program/integrate_burgers.html" xlink:title="integrate_burgers">
<polygon fill="#f0ad4e" stroke="#f0ad4e" points="125.5,-87 28.5,-87 28.5,-63 125.5,-63 125.5,-87"/>
<text text-anchor="middle" x="77" y="-72.6" font-family="Helvetica,sans-Serif" font-size="10.50" fill="white">integrate_burgers</text>
</a>
</g>
</g>
<!-- program~integrate_burgers&#45;&gt;proc~test_rk~3 -->
<g id="edge32" class="edge"><title>program~integrate_burgers&#45;&gt;proc~test_rk~3</title>
<path fill="none" stroke="black" d="M125.736,-82.1096C144.261,-84.8687 165.136,-87.9776 182.432,-90.5537"/>
<polygon fill="black" stroke="black" points="182.279,-94.0695 192.686,-92.0808 183.31,-87.1458 182.279,-94.0695"/>
</g>
<!-- program~integrate_burgers&#45;&gt;proc~init~5 -->
<g id="edge31" class="edge"><title>program~integrate_burgers&#45;&gt;proc~init~5</title>
<path fill="none" stroke="black" d="M105.186,-62.853C127.511,-52.8782 159.296,-38.6762 183.605,-27.8148"/>
<polygon fill="black" stroke="black" points="185.148,-30.9588 192.851,-23.6838 182.293,-24.5677 185.148,-30.9588"/>
</g>
<!-- program~integrate_burgers&#45;&gt;proc~test_euler~3 -->
<g id="edge30" class="edge"><title>program~integrate_burgers&#45;&gt;proc~test_euler~3</title>
<path fill="none" stroke="black" d="M125.736,-67.8904C143.335,-65.2692 163.054,-62.3324 179.811,-59.8366"/>
<polygon fill="black" stroke="black" points="180.442,-63.2814 189.817,-58.3464 179.41,-56.3578 180.442,-63.2814"/>
</g>
<!-- program~integrate_burgers&#45;&gt;proc~test_ab~3 -->
<g id="edge29" class="edge"><title>program~integrate_burgers&#45;&gt;proc~test_ab~3</title>
<path fill="none" stroke="black" d="M105.186,-87.147C127.511,-97.1218 159.296,-111.324 183.605,-122.185"/>
<polygon fill="black" stroke="black" points="182.293,-125.432 192.851,-126.316 185.148,-119.041 182.293,-125.432"/>
</g>
</g>
</svg>
