<?xml version="1.0" encoding="UTF-8" standalone="no"?>
<!DOCTYPE svg PUBLIC "-//W3C//DTD SVG 1.1//EN"
 "http://www.w3.org/Graphics/SVG/1.1/DTD/svg11.dtd">
<!-- Generated by graphviz version 2.26.3 (20100126.1600)
 -->
<!-- Title: interface~~tvd_runge_kutta_integrator~~CallsGraph Pages: 1 -->
<svg width="240pt" height="34pt"
 viewBox="0.00 0.00 240.00 34.00" xmlns="http://www.w3.org/2000/svg" xmlns:xlink="http://www.w3.org/1999/xlink">
<g id="graph1" class="graph" transform="scale(1 1) rotate(0) translate(4 30)">
<title>interface~~tvd_runge_kutta_integrator~~CallsGraph</title>
<polygon fill="white" stroke="white" points="-4,5 -4,-30 237,-30 237,5 -4,5"/>
<!-- interface~tvd_runge_kutta_integrator -->
<g id="node1" class="node"><title>interface~tvd_runge_kutta_integrator</title>
<polygon fill="none" stroke="black" points="142,-26 5.68434e-14,-26 0,-1.24345e-14 142,-3.55271e-15 142,-26"/>
<text text-anchor="middle" x="71" y="-10.55" font-family="Helvetica,sans-Serif" font-size="10.50">tvd_runge_kutta_integrator</text>
</g>
<!-- proc~create -->
<g id="node2" class="node"><title>proc~create</title>
<a xlink:href="../proc/create.html" xlink:title="create">
<polygon fill="#d94e8f" stroke="#d94e8f" points="232,-26 178,-26 178,-1.24345e-14 232,-3.55271e-15 232,-26"/>
<text text-anchor="middle" x="205" y="-10.55" font-family="Helvetica,sans-Serif" font-size="10.50" fill="white">create</text>
</a>
</g>
<!-- interface~tvd_runge_kutta_integrator&#45;&gt;proc~create -->
<g id="edge2" class="edge"><title>interface~tvd_runge_kutta_integrator&#45;&gt;proc~create</title>
<path fill="none" stroke="black" stroke-dasharray="5,2" d="M142.316,-13C151.094,-13 159.774,-13 167.748,-13"/>
<polygon fill="black" stroke="black" points="167.773,-16.5001 177.773,-13 167.773,-9.5001 167.773,-16.5001"/>
</g>
</g>
</svg>
