<?xml version="1.0" encoding="UTF-8" standalone="no"?>
<!DOCTYPE svg PUBLIC "-//W3C//DTD SVG 1.1//EN"
 "http://www.w3.org/Graphics/SVG/1.1/DTD/svg11.dtd">
<!-- Generated by graphviz version 2.38.0 (20140413.2041)
 -->
<!-- Title: module~~type_euler_1d~~UsesGraph Pages: 1 -->
<svg width="628pt" height="196pt"
 viewBox="0.00 0.00 628.00 195.81" xmlns="http://www.w3.org/2000/svg" xmlns:xlink="http://www.w3.org/1999/xlink">
<g id="graph0" class="graph" transform="scale(1 1) rotate(0) translate(4 191.807)">
<title>module~~type_euler_1d~~UsesGraph</title>
<polygon fill="white" stroke="none" points="-4,4 -4,-191.807 624,-191.807 624,4 -4,4"/>
<!-- module~type_euler_1d -->
<g id="node1" class="node"><title>module~type_euler_1d</title>
<polygon fill="none" stroke="black" points="620,-145 538,-145 538,-121 620,-121 620,-145"/>
<text text-anchor="middle" x="579" y="-130.6" font-family="Helvetica,sans-Serif" font-size="10.50">type_euler_1D</text>
</g>
<!-- IR_Precision -->
<g id="node2" class="node"><title>IR_Precision</title>
<polygon fill="#337ab7" stroke="#337ab7" points="73,-84 0,-84 0,-60 73,-60 73,-84"/>
<text text-anchor="middle" x="36.5" y="-69.6" font-family="Helvetica,sans-Serif" font-size="10.50" fill="white">IR_Precision</text>
</g>
<!-- IR_Precision&#45;&gt;module~type_euler_1d -->
<g id="edge12" class="edge"><title>IR_Precision&#45;&gt;module~type_euler_1d</title>
<path fill="none" stroke="black" stroke-dasharray="5,2" d="M152,-174C286.41,-207.767 451.104,-170.563 530.599,-147.882"/>
<polygon fill="black" stroke="black" points="531.696,-151.208 540.323,-145.058 529.743,-144.486 531.696,-151.208"/>
</g>
<!-- module~foodie_integrator_adams_bashforth -->
<g id="node4" class="node"><title>module~foodie_integrator_adams_bashforth</title>
<g id="a_node4"><a xlink:href="../module/foodie_integrator_adams_bashforth.html" xlink:title="foodie_integrator_adams_bashforth">
<polygon fill="#337ab7" stroke="#337ab7" points="412,-146 229,-146 229,-122 412,-122 412,-146"/>
<text text-anchor="middle" x="320.5" y="-131.6" font-family="Helvetica,sans-Serif" font-size="10.50" fill="white">foodie_integrator_adams_bashforth</text>
</a>
</g>
</g>
<!-- IR_Precision&#45;&gt;module~foodie_integrator_adams_bashforth -->
<g id="edge1" class="edge"><title>IR_Precision&#45;&gt;module~foodie_integrator_adams_bashforth</title>
<path fill="none" stroke="black" stroke-dasharray="5,2" d="M152,-174C163.346,-176.85 223.429,-161.263 268.414,-148.719"/>
<polygon fill="black" stroke="black" points="269.365,-152.087 278.047,-146.015 267.473,-145.347 269.365,-152.087"/>
</g>
<!-- module~foodie_integrator_tvd_runge_kutta -->
<g id="node5" class="node"><title>module~foodie_integrator_tvd_runge_kutta</title>
<g id="a_node5"><a xlink:href="../module/foodie_integrator_tvd_runge_kutta.html" xlink:title="foodie_integrator_tvd_runge_kutta">
<polygon fill="#337ab7" stroke="#337ab7" points="409,-104 232,-104 232,-80 409,-80 409,-104"/>
<text text-anchor="middle" x="320.5" y="-89.6" font-family="Helvetica,sans-Serif" font-size="10.50" fill="white">foodie_integrator_tvd_runge_kutta</text>
</a>
</g>
</g>
<!-- IR_Precision&#45;&gt;module~foodie_integrator_tvd_runge_kutta -->
<g id="edge3" class="edge"><title>IR_Precision&#45;&gt;module~foodie_integrator_tvd_runge_kutta</title>
<path fill="none" stroke="black" stroke-dasharray="5,2" d="M44.8838,-84.1079C60.5627,-108.308 99.884,-161.41 150,-174"/>
<path fill="none" stroke="black" stroke-dasharray="5,2" d="M152,-174C194.344,-184.638 189.668,-131.951 229,-113 233.314,-110.922 237.844,-109.043 242.483,-107.345"/>
<polygon fill="black" stroke="black" points="243.755,-110.61 252.122,-104.11 241.528,-103.974 243.755,-110.61"/>
</g>
<!-- module~type_integrand -->
<g id="node6" class="node"><title>module~type_integrand</title>
<g id="a_node6"><a xlink:href="../module/type_integrand.html" xlink:title="type_integrand">
<polygon fill="#337ab7" stroke="#337ab7" points="193,-84 109,-84 109,-60 193,-60 193,-84"/>
<text text-anchor="middle" x="151" y="-69.6" font-family="Helvetica,sans-Serif" font-size="10.50" fill="white">type_integrand</text>
</a>
</g>
</g>
<!-- IR_Precision&#45;&gt;module~type_integrand -->
<g id="edge5" class="edge"><title>IR_Precision&#45;&gt;module~type_integrand</title>
<path fill="none" stroke="black" stroke-dasharray="5,2" d="M73.0957,-72C81.2389,-72 90.0527,-72 98.7087,-72"/>
<polygon fill="black" stroke="black" points="98.748,-75.5001 108.748,-72 98.7479,-68.5001 98.748,-75.5001"/>
</g>
<!-- module~foodie_integrator_euler_explicit -->
<g id="node7" class="node"><title>module~foodie_integrator_euler_explicit</title>
<g id="a_node7"><a xlink:href="../module/foodie_integrator_euler_explicit.html" xlink:title="foodie_integrator_euler_explicit">
<polygon fill="#337ab7" stroke="#337ab7" points="401.5,-24 239.5,-24 239.5,-0 401.5,-0 401.5,-24"/>
<text text-anchor="middle" x="320.5" y="-9.6" font-family="Helvetica,sans-Serif" font-size="10.50" fill="white">foodie_integrator_euler_explicit</text>
</a>
</g>
</g>
<!-- IR_Precision&#45;&gt;module~foodie_integrator_euler_explicit -->
<g id="edge6" class="edge"><title>IR_Precision&#45;&gt;module~foodie_integrator_euler_explicit</title>
<path fill="none" stroke="black" stroke-dasharray="5,2" d="M73.3144,-60.7C84.6612,-57.3306 97.2972,-53.7949 109,-51 149.817,-41.2517 195.578,-32.5159 233.981,-25.7957"/>
<polygon fill="black" stroke="black" points="234.836,-29.1997 244.091,-24.0431 233.64,-22.3026 234.836,-29.1997"/>
</g>
<!-- module~foodie -->
<g id="node3" class="node"><title>module~foodie</title>
<g id="a_node3"><a xlink:href="../module/foodie.html" xlink:title="foodie">
<polygon fill="#337ab7" stroke="#337ab7" points="502,-104 448,-104 448,-80 502,-80 502,-104"/>
<text text-anchor="middle" x="475" y="-89.6" font-family="Helvetica,sans-Serif" font-size="10.50" fill="white">foodie</text>
</a>
</g>
</g>
<!-- module~foodie&#45;&gt;module~type_euler_1d -->
<g id="edge13" class="edge"><title>module~foodie&#45;&gt;module~type_euler_1d</title>
<path fill="none" stroke="black" stroke-dasharray="5,2" d="M502.003,-102.452C513.087,-106.908 526.265,-112.204 538.508,-117.126"/>
<polygon fill="black" stroke="black" points="537.486,-120.487 548.07,-120.969 540.097,-113.992 537.486,-120.487"/>
</g>
<!-- module~foodie_integrator_adams_bashforth&#45;&gt;module~foodie -->
<g id="edge8" class="edge"><title>module~foodie_integrator_adams_bashforth&#45;&gt;module~foodie</title>
<path fill="none" stroke="black" stroke-dasharray="5,2" d="M377.24,-121.976C388.785,-119.231 400.831,-116.179 412,-113 420.563,-110.563 429.692,-107.65 438.238,-104.782"/>
<polygon fill="black" stroke="black" points="439.604,-108.014 447.934,-101.466 437.339,-101.391 439.604,-108.014"/>
</g>
<!-- module~foodie_integrator_tvd_runge_kutta&#45;&gt;module~foodie -->
<g id="edge9" class="edge"><title>module~foodie_integrator_tvd_runge_kutta&#45;&gt;module~foodie</title>
<path fill="none" stroke="black" stroke-dasharray="5,2" d="M409.326,-92C419.305,-92 429.014,-92 437.746,-92"/>
<polygon fill="black" stroke="black" points="437.866,-95.5001 447.866,-92 437.866,-88.5001 437.866,-95.5001"/>
</g>
<!-- module~type_integrand&#45;&gt;module~foodie -->
<g id="edge10" class="edge"><title>module~type_integrand&#45;&gt;module~foodie</title>
<path fill="none" stroke="black" stroke-dasharray="5,2" d="M193.315,-67.6317C244.888,-63.1408 335.616,-58.4152 412,-71 420.704,-72.4341 429.831,-74.9293 438.322,-77.7103"/>
<polygon fill="black" stroke="black" points="437.342,-81.0749 447.936,-81.0597 439.645,-74.4646 437.342,-81.0749"/>
</g>
<!-- module~type_integrand&#45;&gt;module~foodie_integrator_adams_bashforth -->
<g id="edge2" class="edge"><title>module~type_integrand&#45;&gt;module~foodie_integrator_adams_bashforth</title>
<path fill="none" stroke="black" stroke-dasharray="5,2" d="M171.277,-84.0925C186.465,-93.1621 208.437,-105.292 229,-113 234.947,-115.229 241.205,-117.269 247.539,-119.126"/>
<polygon fill="black" stroke="black" points="246.948,-122.594 257.519,-121.894 248.818,-115.849 246.948,-122.594"/>
</g>
<!-- module~type_integrand&#45;&gt;module~foodie_integrator_tvd_runge_kutta -->
<g id="edge4" class="edge"><title>module~type_integrand&#45;&gt;module~foodie_integrator_tvd_runge_kutta</title>
<path fill="none" stroke="black" stroke-dasharray="5,2" d="M193.405,-76.9438C202.196,-77.9936 211.833,-79.1442 221.738,-80.327"/>
<polygon fill="black" stroke="black" points="221.368,-83.8075 231.713,-81.5179 222.198,-76.8569 221.368,-83.8075"/>
</g>
<!-- module~type_integrand&#45;&gt;module~foodie_integrator_euler_explicit -->
<g id="edge7" class="edge"><title>module~type_integrand&#45;&gt;module~foodie_integrator_euler_explicit</title>
<path fill="none" stroke="black" stroke-dasharray="5,2" d="M176.964,-59.9428C191.864,-53.0079 211.277,-44.4248 229,-38 239.936,-34.0356 251.784,-30.2663 263.193,-26.8899"/>
<polygon fill="black" stroke="black" points="264.44,-30.1727 273.072,-24.029 262.493,-23.449 264.44,-30.1727"/>
</g>
<!-- module~foodie_integrator_euler_explicit&#45;&gt;module~foodie -->
<g id="edge11" class="edge"><title>module~foodie_integrator_euler_explicit&#45;&gt;module~foodie</title>
<path fill="none" stroke="black" stroke-dasharray="5,2" d="M378.049,-24.1222C389.653,-27.7339 401.517,-32.2981 412,-38 428.505,-46.9771 444.428,-60.9984 456.004,-72.5035"/>
<polygon fill="black" stroke="black" points="453.794,-75.2506 463.278,-79.9738 458.809,-70.3674 453.794,-75.2506"/>
</g>
</g>
</svg>
