<?xml version="1.0" encoding="UTF-8" standalone="no"?>
<!DOCTYPE svg PUBLIC "-//W3C//DTD SVG 1.1//EN"
 "http://www.w3.org/Graphics/SVG/1.1/DTD/svg11.dtd">
<!-- Generated by graphviz version 2.26.3 (20100126.1600)
 -->
<!-- Title: module~~type_euler_1d_openmp~~UsedByGraph Pages: 1 -->
<svg width="322pt" height="34pt"
 viewBox="0.00 0.00 322.00 34.00" xmlns="http://www.w3.org/2000/svg" xmlns:xlink="http://www.w3.org/1999/xlink">
<g id="graph1" class="graph" transform="scale(1 1) rotate(0) translate(4 30)">
<title>module~~type_euler_1d_openmp~~UsedByGraph</title>
<polygon fill="white" stroke="white" points="-4,5 -4,-30 319,-30 319,5 -4,5"/>
<!-- module~type_euler_1d_openmp -->
<g id="node1" class="node"><title>module~type_euler_1d_openmp</title>
<polygon fill="none" stroke="black" points="127,-26 1,-26 1,-1.24345e-14 127,-3.55271e-15 127,-26"/>
<text text-anchor="middle" x="64" y="-10.55" font-family="Helvetica,sans-Serif" font-size="10.50">type_euler_1D_openmp</text>
</g>
<!-- program~integrate_euler_1d_openmp -->
<g id="node2" class="node"><title>program~integrate_euler_1d_openmp</title>
<a xlink:href="../program/integrate_euler_1d_openmp.html" xlink:title="integrate_euler_1D_openmp">
<polygon fill="#f0ad4e" stroke="#f0ad4e" points="313,-26 165,-26 165,-1.24345e-14 313,-3.55271e-15 313,-26"/>
<text text-anchor="middle" x="239" y="-10.55" font-family="Helvetica,sans-Serif" font-size="10.50" fill="white">integrate_euler_1D_openmp</text>
</a>
</g>
<!-- module~type_euler_1d_openmp&#45;&gt;program~integrate_euler_1d_openmp -->
<g id="edge2" class="edge"><title>module~type_euler_1d_openmp&#45;&gt;program~integrate_euler_1d_openmp</title>
<path fill="none" stroke="black" stroke-dasharray="5,2" d="M127.674,-13C136.337,-13 145.337,-13 154.297,-13"/>
<polygon fill="black" stroke="black" points="154.378,-16.5001 164.378,-13 154.378,-9.5001 154.378,-16.5001"/>
</g>
</g>
</svg>
