<?xml version="1.0" encoding="UTF-8" standalone="no"?>
<!DOCTYPE svg PUBLIC "-//W3C//DTD SVG 1.1//EN"
 "http://www.w3.org/Graphics/SVG/1.1/DTD/svg11.dtd">
<!-- Generated by graphviz version 2.26.3 (20100126.1600)
 -->
<!-- Title: module~~foodie_integrator_tvd_runge_kutta~~UsedByGraph Pages: 1 -->
<svg width="542pt" height="268pt"
 viewBox="0.00 0.00 542.00 267.97" xmlns="http://www.w3.org/2000/svg" xmlns:xlink="http://www.w3.org/1999/xlink">
<g id="graph1" class="graph" transform="scale(1 1) rotate(0) translate(4 263.974)">
<title>module~~foodie_integrator_tvd_runge_kutta~~UsedByGraph</title>
<polygon fill="white" stroke="white" points="-4,5 -4,-263.974 539,-263.974 539,5 -4,5"/>
<!-- module~foodie_integrator_tvd_runge_kutta -->
<g id="node1" class="node"><title>module~foodie_integrator_tvd_runge_kutta</title>
<polygon fill="none" stroke="black" points="177,-136.974 1,-136.974 1,-110.974 177,-110.974 177,-136.974"/>
<text text-anchor="middle" x="89" y="-121.524" font-family="Helvetica,sans-Serif" font-size="10.50">foodie_integrator_tvd_runge_kutta</text>
</g>
<!-- module~foodie -->
<g id="node2" class="node"><title>module~foodie</title>
<a xlink:href="../module/foodie.html" xlink:title="foodie">
<polygon fill="#337ab7" stroke="#337ab7" points="268,-136.974 214,-136.974 214,-110.974 268,-110.974 268,-136.974"/>
<text text-anchor="middle" x="241" y="-121.524" font-family="Helvetica,sans-Serif" font-size="10.50" fill="white">foodie</text>
</a>
</g>
<!-- module~foodie_integrator_tvd_runge_kutta&#45;&gt;module~foodie -->
<g id="edge26" class="edge"><title>module~foodie_integrator_tvd_runge_kutta&#45;&gt;module~foodie</title>
<path fill="none" stroke="black" stroke-dasharray="5,2" d="M177.859,-123.974C186.893,-123.974 195.678,-123.974 203.682,-123.974"/>
<polygon fill="black" stroke="black" points="203.71,-127.474 213.71,-123.974 203.71,-120.474 203.71,-127.474"/>
</g>
<!-- module~type_burgers -->
<g id="node3" class="node"><title>module~type_burgers</title>
<a xlink:href="../module/type_burgers.html" xlink:title="type_burgers">
<polygon fill="#337ab7" stroke="#337ab7" points="385,-259.974 309,-259.974 309,-233.974 385,-233.974 385,-259.974"/>
<text text-anchor="middle" x="347" y="-244.524" font-family="Helvetica,sans-Serif" font-size="10.50" fill="white">type_burgers</text>
</a>
</g>
<!-- module~foodie&#45;&gt;module~type_burgers -->
<g id="edge10" class="edge"><title>module~foodie&#45;&gt;module~type_burgers</title>
<path fill="none" stroke="black" stroke-dasharray="5,2" d="M247.254,-137.035C257.178,-156.77 278.089,-194.577 304,-219.974 306.892,-222.808 310.131,-225.495 313.498,-227.995"/>
<polygon fill="black" stroke="black" points="311.779,-231.059 322.012,-233.806 315.726,-225.278 311.779,-231.059"/>
</g>
<!-- module~type_oscillation -->
<g id="node4" class="node"><title>module~type_oscillation</title>
<a xlink:href="../module/type_oscillation.html" xlink:title="type_oscillation">
<polygon fill="#337ab7" stroke="#337ab7" points="389,-177.974 305,-177.974 305,-151.974 389,-151.974 389,-177.974"/>
<text text-anchor="middle" x="347" y="-162.524" font-family="Helvetica,sans-Serif" font-size="10.50" fill="white">type_oscillation</text>
</a>
</g>
<!-- module~foodie&#45;&gt;module~type_oscillation -->
<g id="edge12" class="edge"><title>module~foodie&#45;&gt;module~type_oscillation</title>
<path fill="none" stroke="black" stroke-dasharray="5,2" d="M268.023,-134.426C278.864,-138.619 291.632,-143.558 303.705,-148.227"/>
<polygon fill="black" stroke="black" points="302.598,-151.552 313.188,-151.895 305.124,-145.023 302.598,-151.552"/>
</g>
<!-- program~integrate_lorenz -->
<g id="node5" class="node"><title>program~integrate_lorenz</title>
<a xlink:href="../program/integrate_lorenz.html" xlink:title="integrate_lorenz">
<polygon fill="#f0ad4e" stroke="#f0ad4e" points="525,-95.9736 435,-95.9736 435,-69.9736 525,-69.9736 525,-95.9736"/>
<text text-anchor="middle" x="480" y="-80.5236" font-family="Helvetica,sans-Serif" font-size="10.50" fill="white">integrate_lorenz</text>
</a>
</g>
<!-- module~foodie&#45;&gt;program~integrate_lorenz -->
<g id="edge14" class="edge"><title>module~foodie&#45;&gt;program~integrate_lorenz</title>
<path fill="none" stroke="black" stroke-dasharray="5,2" d="M268.049,-125.029C289.491,-125.61 320.2,-125.878 347,-123.974"/>
<path fill="none" stroke="black" stroke-dasharray="5,2" d="M347,-123.974C364.146,-122.755 403.317,-110.226 434.733,-99.3357"/>
<polygon fill="black" stroke="black" points="435.918,-102.629 444.201,-96.0228 433.607,-96.0219 435.918,-102.629"/>
</g>
<!-- program~integrate_burgers -->
<g id="node6" class="node"><title>program~integrate_burgers</title>
<a xlink:href="../program/integrate_burgers.html" xlink:title="integrate_burgers">
<polygon fill="#f0ad4e" stroke="#f0ad4e" points="528,-238.974 432,-238.974 432,-212.974 528,-212.974 528,-238.974"/>
<text text-anchor="middle" x="480" y="-223.524" font-family="Helvetica,sans-Serif" font-size="10.50" fill="white">integrate_burgers</text>
</a>
</g>
<!-- module~foodie&#45;&gt;program~integrate_burgers -->
<g id="edge16" class="edge"><title>module~foodie&#45;&gt;program~integrate_burgers</title>
<path fill="none" stroke="black" stroke-dasharray="5,2" d="M250.337,-137.018C261.443,-151.526 281.352,-174.55 304,-186.974 340.088,-206.77 385.548,-216.519 421.225,-221.319"/>
<polygon fill="black" stroke="black" points="421.13,-224.835 431.486,-222.601 421.997,-217.889 421.13,-224.835"/>
</g>
<!-- module~type_euler_1d -->
<g id="node7" class="node"><title>module~type_euler_1d</title>
<a xlink:href="../module/type_euler_1d.html" xlink:title="type_euler_1D">
<polygon fill="#337ab7" stroke="#337ab7" points="388,-51.9736 306,-51.9736 306,-25.9736 388,-25.9736 388,-51.9736"/>
<text text-anchor="middle" x="347" y="-36.5236" font-family="Helvetica,sans-Serif" font-size="10.50" fill="white">type_euler_1D</text>
</a>
</g>
<!-- module~foodie&#45;&gt;module~type_euler_1d -->
<g id="edge18" class="edge"><title>module~foodie&#45;&gt;module~type_euler_1d</title>
<path fill="none" stroke="black" stroke-dasharray="5,2" d="M251.831,-110.946C263.648,-97.2943 283.615,-75.8103 304,-60.9736 305.627,-59.7893 307.327,-58.6337 309.072,-57.5118"/>
<polygon fill="black" stroke="black" points="311.216,-60.3103 318.041,-52.2068 307.652,-54.2853 311.216,-60.3103"/>
</g>
<!-- program~integrate_oscillation -->
<g id="node8" class="node"><title>program~integrate_oscillation</title>
<a xlink:href="../program/integrate_oscillation.html" xlink:title="integrate_oscillation">
<polygon fill="#f0ad4e" stroke="#f0ad4e" points="533,-139.974 427,-139.974 427,-113.974 533,-113.974 533,-139.974"/>
<text text-anchor="middle" x="480" y="-124.524" font-family="Helvetica,sans-Serif" font-size="10.50" fill="white">integrate_oscillation</text>
</a>
</g>
<!-- module~foodie&#45;&gt;program~integrate_oscillation -->
<g id="edge20" class="edge"><title>module~foodie&#45;&gt;program~integrate_oscillation</title>
<path fill="none" stroke="black" stroke-dasharray="5,2" d="M347,-123.974C369.474,-122.376 394.132,-122.432 416.047,-123.113"/>
<polygon fill="black" stroke="black" points="416.114,-126.617 426.233,-123.479 416.365,-119.622 416.114,-126.617"/>
</g>
<!-- module~type_lorenz -->
<g id="node9" class="node"><title>module~type_lorenz</title>
<a xlink:href="../module/type_lorenz.html" xlink:title="type_lorenz">
<polygon fill="#337ab7" stroke="#337ab7" points="381,-95.9736 313,-95.9736 313,-69.9736 381,-69.9736 381,-95.9736"/>
<text text-anchor="middle" x="347" y="-80.5236" font-family="Helvetica,sans-Serif" font-size="10.50" fill="white">type_lorenz</text>
</a>
</g>
<!-- module~foodie&#45;&gt;module~type_lorenz -->
<g id="edge22" class="edge"><title>module~foodie&#45;&gt;module~type_lorenz</title>
<path fill="none" stroke="black" stroke-dasharray="5,2" d="M268.023,-113.522C278.864,-109.328 291.632,-104.389 303.705,-99.7198"/>
<polygon fill="black" stroke="black" points="305.124,-102.924 313.188,-96.052 302.598,-96.3952 305.124,-102.924"/>
</g>
<!-- program~integrate_euler_1d -->
<g id="node10" class="node"><title>program~integrate_euler_1d</title>
<a xlink:href="../program/integrate_euler_1d.html" xlink:title="integrate_euler_1D">
<polygon fill="#f0ad4e" stroke="#f0ad4e" points="532,-31.9736 428,-31.9736 428,-5.97363 532,-5.97363 532,-31.9736"/>
<text text-anchor="middle" x="480" y="-16.5236" font-family="Helvetica,sans-Serif" font-size="10.50" fill="white">integrate_euler_1D</text>
</a>
</g>
<!-- module~foodie&#45;&gt;program~integrate_euler_1d -->
<g id="edge24" class="edge"><title>module~foodie&#45;&gt;program~integrate_euler_1d</title>
<path fill="none" stroke="black" stroke-dasharray="5,2" d="M244.209,-110.734C250.779,-86.9128 268.255,-37.4084 304,-16.9736 339.403,3.26548 385.724,1.85973 421.958,-4.12397"/>
<polygon fill="black" stroke="black" points="421.43,-7.58518 431.893,-5.91889 422.675,-0.696698 421.43,-7.58518"/>
</g>
<!-- module~type_burgers&#45;&gt;program~integrate_burgers -->
<g id="edge2" class="edge"><title>module~type_burgers&#45;&gt;program~integrate_burgers</title>
<path fill="none" stroke="black" stroke-dasharray="5,2" d="M385.112,-240.956C396.387,-239.176 409.001,-237.184 421.259,-235.249"/>
<polygon fill="black" stroke="black" points="422.102,-238.659 431.434,-233.642 421.011,-231.744 422.102,-238.659"/>
</g>
<!-- module~type_oscillation&#45;&gt;program~integrate_oscillation -->
<g id="edge4" class="edge"><title>module~type_oscillation&#45;&gt;program~integrate_oscillation</title>
<path fill="none" stroke="black" stroke-dasharray="5,2" d="M389.814,-152.741C400.738,-149.62 412.644,-146.218 424.116,-142.94"/>
<polygon fill="black" stroke="black" points="425.398,-146.214 434.051,-140.102 423.475,-139.484 425.398,-146.214"/>
</g>
<!-- module~type_euler_1d&#45;&gt;program~integrate_euler_1d -->
<g id="edge6" class="edge"><title>module~type_euler_1d&#45;&gt;program~integrate_euler_1d</title>
<path fill="none" stroke="black" stroke-dasharray="5,2" d="M388.353,-32.7551C397.732,-31.3447 407.894,-29.8166 417.922,-28.3087"/>
<polygon fill="black" stroke="black" points="418.502,-31.7609 427.87,-26.8127 417.461,-24.8387 418.502,-31.7609"/>
</g>
<!-- module~type_lorenz&#45;&gt;program~integrate_lorenz -->
<g id="edge8" class="edge"><title>module~type_lorenz&#45;&gt;program~integrate_lorenz</title>
<path fill="none" stroke="black" stroke-dasharray="5,2" d="M381.251,-82.9736C394.508,-82.9736 410.022,-82.9736 424.774,-82.9736"/>
<polygon fill="black" stroke="black" points="424.827,-86.4737 434.827,-82.9736 424.827,-79.4737 424.827,-86.4737"/>
</g>
</g>
</svg>
