<?xml version="1.0" encoding="UTF-8" standalone="no"?>
<!DOCTYPE svg PUBLIC "-//W3C//DTD SVG 1.1//EN"
 "http://www.w3.org/Graphics/SVG/1.1/DTD/svg11.dtd">
<!-- Generated by graphviz version 2.26.3 (20100126.1600)
 -->
<!-- Title: module~~foodie~~UsedByGraph Pages: 1 -->
<svg width="328pt" height="266pt"
 viewBox="0.00 0.00 328.00 265.79" xmlns="http://www.w3.org/2000/svg" xmlns:xlink="http://www.w3.org/1999/xlink">
<g id="graph1" class="graph" transform="scale(1 1) rotate(0) translate(4 261.791)">
<title>module~~foodie~~UsedByGraph</title>
<polygon fill="white" stroke="white" points="-4,5 -4,-261.791 325,-261.791 325,5 -4,5"/>
<!-- module~foodie -->
<g id="node1" class="node"><title>module~foodie</title>
<polygon fill="none" stroke="black" points="54,-131.791 2.13163e-14,-131.791 0,-105.791 54,-105.791 54,-131.791"/>
<text text-anchor="middle" x="27" y="-116.341" font-family="Helvetica,sans-Serif" font-size="10.50">foodie</text>
</g>
<!-- module~type_oscillation -->
<g id="node2" class="node"><title>module~type_oscillation</title>
<a xlink:href="../module/type_oscillation.html" xlink:title="type_oscillation">
<polygon fill="#337ab7" stroke="#337ab7" points="175,-257.791 91,-257.791 91,-231.791 175,-231.791 175,-257.791"/>
<text text-anchor="middle" x="133" y="-242.341" font-family="Helvetica,sans-Serif" font-size="10.50" fill="white">type_oscillation</text>
</a>
</g>
<!-- module~foodie&#45;&gt;module~type_oscillation -->
<g id="edge10" class="edge"><title>module~foodie&#45;&gt;module~type_oscillation</title>
<path fill="none" stroke="black" stroke-dasharray="5,2" d="M32.9965,-131.938C42.7269,-152.212 63.5583,-191.508 90,-217.791 92.872,-220.645 96.0978,-223.345 99.4581,-225.853"/>
<polygon fill="black" stroke="black" points="97.7334,-228.914 107.963,-231.673 101.687,-223.137 97.7334,-228.914"/>
</g>
<!-- program~integrate_lorenz -->
<g id="node3" class="node"><title>program~integrate_lorenz</title>
<a xlink:href="../program/integrate_lorenz.html" xlink:title="integrate_lorenz">
<polygon fill="#f0ad4e" stroke="#f0ad4e" points="311,-175.791 221,-175.791 221,-149.791 311,-149.791 311,-175.791"/>
<text text-anchor="middle" x="266" y="-160.341" font-family="Helvetica,sans-Serif" font-size="10.50" fill="white">integrate_lorenz</text>
</a>
</g>
<!-- module~foodie&#45;&gt;program~integrate_lorenz -->
<g id="edge12" class="edge"><title>module~foodie&#45;&gt;program~integrate_lorenz</title>
<path fill="none" stroke="black" stroke-dasharray="5,2" d="M36.9064,-131.923C48.381,-146.412 68.4827,-169.676 90,-184.791 107.097,-196.8 112.847,-198.278 133,-203.791"/>
<path fill="none" stroke="black" stroke-dasharray="5,2" d="M133,-203.791C141.734,-206.18 185.844,-191.712 220.905,-179.31"/>
<polygon fill="black" stroke="black" points="222.274,-182.538 230.517,-175.883 219.923,-175.945 222.274,-182.538"/>
</g>
<!-- module~type_euler_1d -->
<g id="node4" class="node"><title>module~type_euler_1d</title>
<a xlink:href="../module/type_euler_1d.html" xlink:title="type_euler_1D">
<polygon fill="#337ab7" stroke="#337ab7" points="174,-131.791 92,-131.791 92,-105.791 174,-105.791 174,-131.791"/>
<text text-anchor="middle" x="133" y="-116.341" font-family="Helvetica,sans-Serif" font-size="10.50" fill="white">type_euler_1D</text>
</a>
</g>
<!-- module~foodie&#45;&gt;module~type_euler_1d -->
<g id="edge14" class="edge"><title>module~foodie&#45;&gt;module~type_euler_1d</title>
<path fill="none" stroke="black" stroke-dasharray="5,2" d="M54.0225,-118.791C62.401,-118.791 71.9301,-118.791 81.3995,-118.791"/>
<polygon fill="black" stroke="black" points="81.5943,-122.291 91.5943,-118.791 81.5942,-115.291 81.5943,-122.291"/>
</g>
<!-- module~type_burgers -->
<g id="node5" class="node"><title>module~type_burgers</title>
<a xlink:href="../module/type_burgers.html" xlink:title="type_burgers">
<polygon fill="#337ab7" stroke="#337ab7" points="171,-49.7905 95,-49.7905 95,-23.7905 171,-23.7905 171,-49.7905"/>
<text text-anchor="middle" x="133" y="-34.3405" font-family="Helvetica,sans-Serif" font-size="10.50" fill="white">type_burgers</text>
</a>
</g>
<!-- module~foodie&#45;&gt;module~type_burgers -->
<g id="edge16" class="edge"><title>module~foodie&#45;&gt;module~type_burgers</title>
<path fill="none" stroke="black" stroke-dasharray="5,2" d="M40.9749,-105.453C53.399,-93.877 72.2879,-76.9558 90,-63.7905 93.8645,-60.918 98.0377,-58.0421 102.212,-55.2949"/>
<polygon fill="black" stroke="black" points="104.142,-58.2148 110.682,-49.8793 100.372,-52.3171 104.142,-58.2148"/>
</g>
<!-- program~integrate_burgers -->
<g id="node6" class="node"><title>program~integrate_burgers</title>
<a xlink:href="../program/integrate_burgers.html" xlink:title="integrate_burgers">
<polygon fill="#f0ad4e" stroke="#f0ad4e" points="314,-38.7905 218,-38.7905 218,-12.7905 314,-12.7905 314,-38.7905"/>
<text text-anchor="middle" x="266" y="-23.3405" font-family="Helvetica,sans-Serif" font-size="10.50" fill="white">integrate_burgers</text>
</a>
</g>
<!-- module~foodie&#45;&gt;program~integrate_burgers -->
<g id="edge18" class="edge"><title>module~foodie&#45;&gt;program~integrate_burgers</title>
<path fill="none" stroke="black" stroke-dasharray="5,2" d="M30.4352,-105.543C37.2786,-82.2296 55.0554,-34.4783 90,-14.7905 129.788,7.62623 182.966,0.183857 220.419,-9.93135"/>
<polygon fill="black" stroke="black" points="219.485,-13.3046 230.062,-12.6877 221.409,-6.57414 219.485,-13.3046"/>
</g>
<!-- program~integrate_oscillation -->
<g id="node7" class="node"><title>program~integrate_oscillation</title>
<a xlink:href="../program/integrate_oscillation.html" xlink:title="integrate_oscillation">
<polygon fill="#f0ad4e" stroke="#f0ad4e" points="319,-219.791 213,-219.791 213,-193.791 319,-193.791 319,-219.791"/>
<text text-anchor="middle" x="266" y="-204.341" font-family="Helvetica,sans-Serif" font-size="10.50" fill="white">integrate_oscillation</text>
</a>
</g>
<!-- module~foodie&#45;&gt;program~integrate_oscillation -->
<g id="edge20" class="edge"><title>module~foodie&#45;&gt;program~integrate_oscillation</title>
<path fill="none" stroke="black" stroke-dasharray="5,2" d="M133,-203.791C155.12,-209.841 180.09,-211.649 202.37,-211.596"/>
<polygon fill="black" stroke="black" points="202.45,-215.095 212.398,-211.449 202.348,-208.096 202.45,-215.095"/>
</g>
<!-- module~type_lorenz -->
<g id="node8" class="node"><title>module~type_lorenz</title>
<a xlink:href="../module/type_lorenz.html" xlink:title="type_lorenz">
<polygon fill="#337ab7" stroke="#337ab7" points="167,-175.791 99,-175.791 99,-149.791 167,-149.791 167,-175.791"/>
<text text-anchor="middle" x="133" y="-160.341" font-family="Helvetica,sans-Serif" font-size="10.50" fill="white">type_lorenz</text>
</a>
</g>
<!-- module~foodie&#45;&gt;module~type_lorenz -->
<g id="edge22" class="edge"><title>module~foodie&#45;&gt;module~type_lorenz</title>
<path fill="none" stroke="black" stroke-dasharray="5,2" d="M54.0225,-130.007C65.558,-134.796 79.2746,-140.489 92.0137,-145.777"/>
<polygon fill="black" stroke="black" points="90.9348,-149.119 101.513,-149.72 93.6185,-142.654 90.9348,-149.119"/>
</g>
<!-- program~integrate_euler_1d -->
<g id="node9" class="node"><title>program~integrate_euler_1d</title>
<a xlink:href="../program/integrate_euler_1d.html" xlink:title="integrate_euler_1D">
<polygon fill="#f0ad4e" stroke="#f0ad4e" points="318,-101.791 214,-101.791 214,-75.7905 318,-75.7905 318,-101.791"/>
<text text-anchor="middle" x="266" y="-86.3405" font-family="Helvetica,sans-Serif" font-size="10.50" fill="white">integrate_euler_1D</text>
</a>
</g>
<!-- module~foodie&#45;&gt;program~integrate_euler_1d -->
<g id="edge24" class="edge"><title>module~foodie&#45;&gt;program~integrate_euler_1d</title>
<path fill="none" stroke="black" stroke-dasharray="5,2" d="M54.1221,-107.38C65.0687,-103.29 77.9423,-99.1182 90,-96.7905 127.287,-89.5925 169.804,-87.4947 203.708,-87.243"/>
<polygon fill="black" stroke="black" points="203.945,-90.7426 213.938,-87.2206 203.93,-83.7426 203.945,-90.7426"/>
</g>
<!-- module~type_oscillation&#45;&gt;program~integrate_oscillation -->
<g id="edge2" class="edge"><title>module~type_oscillation&#45;&gt;program~integrate_oscillation</title>
<path fill="none" stroke="black" stroke-dasharray="5,2" d="M175.814,-232.558C186.738,-229.437 198.644,-226.035 210.116,-222.757"/>
<polygon fill="black" stroke="black" points="211.398,-226.031 220.051,-219.919 209.475,-219.301 211.398,-226.031"/>
</g>
<!-- module~type_euler_1d&#45;&gt;program~integrate_euler_1d -->
<g id="edge4" class="edge"><title>module~type_euler_1d&#45;&gt;program~integrate_euler_1d</title>
<path fill="none" stroke="black" stroke-dasharray="5,2" d="M174.353,-109.463C183.732,-107.347 193.894,-105.055 203.922,-102.793"/>
<polygon fill="black" stroke="black" points="204.885,-106.164 213.87,-100.549 203.345,-99.3353 204.885,-106.164"/>
</g>
<!-- module~type_burgers&#45;&gt;program~integrate_burgers -->
<g id="edge6" class="edge"><title>module~type_burgers&#45;&gt;program~integrate_burgers</title>
<path fill="none" stroke="black" stroke-dasharray="5,2" d="M171.112,-33.6384C182.387,-32.7059 195.001,-31.6626 207.259,-30.6488"/>
<polygon fill="black" stroke="black" points="207.757,-34.1197 217.434,-29.8072 207.18,-27.1435 207.757,-34.1197"/>
</g>
<!-- module~type_lorenz&#45;&gt;program~integrate_lorenz -->
<g id="edge8" class="edge"><title>module~type_lorenz&#45;&gt;program~integrate_lorenz</title>
<path fill="none" stroke="black" stroke-dasharray="5,2" d="M167.251,-162.791C180.508,-162.791 196.022,-162.791 210.774,-162.791"/>
<polygon fill="black" stroke="black" points="210.827,-166.291 220.827,-162.791 210.827,-159.291 210.827,-166.291"/>
</g>
</g>
</svg>
