<?xml version="1.0" encoding="UTF-8" standalone="no"?>
<!DOCTYPE svg PUBLIC "-//W3C//DTD SVG 1.1//EN"
 "http://www.w3.org/Graphics/SVG/1.1/DTD/svg11.dtd">
<!-- Generated by graphviz version 2.26.3 (20100126.1600)
 -->
<!-- Title: module~~foodie_integrator_adams_bashforth~~UsedByGraph Pages: 1 -->
<svg width="548pt" height="305pt"
 viewBox="0.00 0.00 548.00 304.93" xmlns="http://www.w3.org/2000/svg" xmlns:xlink="http://www.w3.org/1999/xlink">
<g id="graph1" class="graph" transform="scale(1 1) rotate(0) translate(4 300.927)">
<title>module~~foodie_integrator_adams_bashforth~~UsedByGraph</title>
<polygon fill="white" stroke="white" points="-4,5 -4,-300.927 545,-300.927 545,5 -4,5"/>
<!-- module~foodie_integrator_adams_bashforth -->
<g id="node1" class="node"><title>module~foodie_integrator_adams_bashforth</title>
<polygon fill="none" stroke="black" points="183,-152.927 1,-152.927 1,-126.927 183,-126.927 183,-152.927"/>
<text text-anchor="middle" x="92" y="-137.477" font-family="Helvetica,sans-Serif" font-size="10.50">foodie_integrator_adams_bashforth</text>
</g>
<!-- module~foodie -->
<g id="node2" class="node"><title>module~foodie</title>
<a xlink:href="../module/foodie.html" xlink:title="foodie">
<polygon fill="#337ab7" stroke="#337ab7" points="274,-152.927 220,-152.927 220,-126.927 274,-126.927 274,-152.927"/>
<text text-anchor="middle" x="247" y="-137.477" font-family="Helvetica,sans-Serif" font-size="10.50" fill="white">foodie</text>
</a>
</g>
<!-- module~foodie_integrator_adams_bashforth&#45;&gt;module~foodie -->
<g id="edge26" class="edge"><title>module~foodie_integrator_adams_bashforth&#45;&gt;module~foodie</title>
<path fill="none" stroke="black" stroke-dasharray="5,2" d="M183.508,-139.927C192.714,-139.927 201.647,-139.927 209.764,-139.927"/>
<polygon fill="black" stroke="black" points="209.919,-143.428 219.919,-139.927 209.919,-136.428 209.919,-143.428"/>
</g>
<!-- module~type_oscillation -->
<g id="node3" class="node"><title>module~type_oscillation</title>
<a xlink:href="../module/type_oscillation.html" xlink:title="type_oscillation">
<polygon fill="#337ab7" stroke="#337ab7" points="395,-296.927 311,-296.927 311,-270.927 395,-270.927 395,-296.927"/>
<text text-anchor="middle" x="353" y="-281.477" font-family="Helvetica,sans-Serif" font-size="10.50" fill="white">type_oscillation</text>
</a>
</g>
<!-- module~foodie&#45;&gt;module~type_oscillation -->
<g id="edge10" class="edge"><title>module~foodie&#45;&gt;module~type_oscillation</title>
<path fill="none" stroke="black" stroke-dasharray="5,2" d="M251.566,-153.231C260.07,-176.488 280.214,-225.084 310,-256.927 312.7,-259.814 315.774,-262.518 319.008,-265.015"/>
<polygon fill="black" stroke="black" points="317.051,-267.918 327.252,-270.779 321.062,-262.181 317.051,-267.918"/>
</g>
<!-- module~type_burgers -->
<g id="node4" class="node"><title>module~type_burgers</title>
<a xlink:href="../module/type_burgers.html" xlink:title="type_burgers">
<polygon fill="#337ab7" stroke="#337ab7" points="391,-214.927 315,-214.927 315,-188.927 391,-188.927 391,-214.927"/>
<text text-anchor="middle" x="353" y="-199.477" font-family="Helvetica,sans-Serif" font-size="10.50" fill="white">type_burgers</text>
</a>
</g>
<!-- module~foodie&#45;&gt;module~type_burgers -->
<g id="edge12" class="edge"><title>module~foodie&#45;&gt;module~type_burgers</title>
<path fill="none" stroke="black" stroke-dasharray="5,2" d="M269.48,-153.076C284.658,-161.954 304.901,-173.794 321.657,-183.595"/>
<polygon fill="black" stroke="black" points="320.154,-186.77 330.553,-188.798 323.688,-180.728 320.154,-186.77"/>
</g>
<!-- program~integrate_oscillation -->
<g id="node5" class="node"><title>program~integrate_oscillation</title>
<a xlink:href="../program/integrate_oscillation.html" xlink:title="integrate_oscillation">
<polygon fill="#f0ad4e" stroke="#f0ad4e" points="539,-275.927 433,-275.927 433,-249.927 539,-249.927 539,-275.927"/>
<text text-anchor="middle" x="486" y="-260.477" font-family="Helvetica,sans-Serif" font-size="10.50" fill="white">integrate_oscillation</text>
</a>
</g>
<!-- module~foodie&#45;&gt;program~integrate_oscillation -->
<g id="edge14" class="edge"><title>module~foodie&#45;&gt;program~integrate_oscillation</title>
<path fill="none" stroke="black" stroke-dasharray="5,2" d="M253.069,-153.04C262.48,-171.842 282.423,-206.147 310,-223.927 343.277,-245.383 386.647,-255.157 422.007,-259.555"/>
<polygon fill="black" stroke="black" points="421.898,-263.065 432.227,-260.707 422.681,-256.109 421.898,-263.065"/>
</g>
<!-- program~integrate_burgers -->
<g id="node6" class="node"><title>program~integrate_burgers</title>
<a xlink:href="../program/integrate_burgers.html" xlink:title="integrate_burgers">
<polygon fill="#f0ad4e" stroke="#f0ad4e" points="534,-193.927 438,-193.927 438,-167.927 534,-167.927 534,-193.927"/>
<text text-anchor="middle" x="486" y="-178.477" font-family="Helvetica,sans-Serif" font-size="10.50" fill="white">integrate_burgers</text>
</a>
</g>
<!-- module~foodie&#45;&gt;program~integrate_burgers -->
<g id="edge16" class="edge"><title>module~foodie&#45;&gt;program~integrate_burgers</title>
<path fill="none" stroke="black" stroke-dasharray="5,2" d="M274.416,-144.631C311.505,-150.993 378.62,-162.507 427.338,-170.864"/>
<polygon fill="black" stroke="black" points="426.989,-174.355 437.437,-172.596 428.173,-167.456 426.989,-174.355"/>
</g>
<!-- module~type_euler_1d -->
<g id="node7" class="node"><title>module~type_euler_1d</title>
<a xlink:href="../module/type_euler_1d.html" xlink:title="type_euler_1D">
<polygon fill="#337ab7" stroke="#337ab7" points="394,-132.927 312,-132.927 312,-106.927 394,-106.927 394,-132.927"/>
<text text-anchor="middle" x="353" y="-117.477" font-family="Helvetica,sans-Serif" font-size="10.50" fill="white">type_euler_1D</text>
</a>
</g>
<!-- module~foodie&#45;&gt;module~type_euler_1d -->
<g id="edge18" class="edge"><title>module~foodie&#45;&gt;module~type_euler_1d</title>
<path fill="none" stroke="black" stroke-dasharray="5,2" d="M274.023,-134.829C282.49,-133.231 292.133,-131.412 301.702,-129.606"/>
<polygon fill="black" stroke="black" points="302.417,-133.033 311.594,-127.74 301.119,-126.155 302.417,-133.033"/>
</g>
<!-- program~integrate_euler_1d -->
<g id="node8" class="node"><title>program~integrate_euler_1d</title>
<a xlink:href="../program/integrate_euler_1d.html" xlink:title="integrate_euler_1D">
<polygon fill="#f0ad4e" stroke="#f0ad4e" points="538,-102.927 434,-102.927 434,-76.9274 538,-76.9274 538,-102.927"/>
<text text-anchor="middle" x="486" y="-87.4774" font-family="Helvetica,sans-Serif" font-size="10.50" fill="white">integrate_euler_1D</text>
</a>
</g>
<!-- module~foodie&#45;&gt;program~integrate_euler_1d -->
<g id="edge20" class="edge"><title>module~foodie&#45;&gt;program~integrate_euler_1d</title>
<path fill="none" stroke="black" stroke-dasharray="5,2" d="M261.798,-126.639C273.836,-116.725 291.762,-103.905 310,-97.9274 346.35,-86.0137 389.188,-83.8311 423.5,-84.715"/>
<polygon fill="black" stroke="black" points="423.741,-88.2256 433.858,-85.0804 423.987,-81.2299 423.741,-88.2256"/>
</g>
<!-- module~type_lorenz -->
<g id="node9" class="node"><title>module~type_lorenz</title>
<a xlink:href="../module/type_lorenz.html" xlink:title="type_lorenz">
<polygon fill="#337ab7" stroke="#337ab7" points="387,-50.9274 319,-50.9274 319,-24.9274 387,-24.9274 387,-50.9274"/>
<text text-anchor="middle" x="353" y="-35.4774" font-family="Helvetica,sans-Serif" font-size="10.50" fill="white">type_lorenz</text>
</a>
</g>
<!-- module~foodie&#45;&gt;module~type_lorenz -->
<g id="edge22" class="edge"><title>module~foodie&#45;&gt;module~type_lorenz</title>
<path fill="none" stroke="black" stroke-dasharray="5,2" d="M256.171,-126.649C267.57,-110.756 288.198,-83.9112 310,-64.9274 313.382,-61.9825 317.118,-59.1417 320.934,-56.48"/>
<polygon fill="black" stroke="black" points="322.879,-59.3896 329.308,-50.9682 319.031,-53.5425 322.879,-59.3896"/>
</g>
<!-- program~integrate_lorenz -->
<g id="node10" class="node"><title>program~integrate_lorenz</title>
<a xlink:href="../program/integrate_lorenz.html" xlink:title="integrate_lorenz">
<polygon fill="#f0ad4e" stroke="#f0ad4e" points="531,-39.9274 441,-39.9274 441,-13.9274 531,-13.9274 531,-39.9274"/>
<text text-anchor="middle" x="486" y="-24.4774" font-family="Helvetica,sans-Serif" font-size="10.50" fill="white">integrate_lorenz</text>
</a>
</g>
<!-- module~foodie&#45;&gt;program~integrate_lorenz -->
<g id="edge24" class="edge"><title>module~foodie&#45;&gt;program~integrate_lorenz</title>
<path fill="none" stroke="black" stroke-dasharray="5,2" d="M249.112,-126.765C254.161,-100.217 269.661,-40.6796 310,-15.9274 349.644,8.39791 404.219,-0.0226532 442.041,-10.8899"/>
<polygon fill="black" stroke="black" points="441.171,-14.2835 451.757,-13.8402 443.205,-7.5855 441.171,-14.2835"/>
</g>
<!-- module~type_oscillation&#45;&gt;program~integrate_oscillation -->
<g id="edge2" class="edge"><title>module~type_oscillation&#45;&gt;program~integrate_oscillation</title>
<path fill="none" stroke="black" stroke-dasharray="5,2" d="M395.814,-277.167C404.201,-275.843 413.165,-274.428 422.068,-273.022"/>
<polygon fill="black" stroke="black" points="422.728,-276.461 432.06,-271.444 421.636,-269.547 422.728,-276.461"/>
</g>
<!-- module~type_burgers&#45;&gt;program~integrate_burgers -->
<g id="edge4" class="edge"><title>module~type_burgers&#45;&gt;program~integrate_burgers</title>
<path fill="none" stroke="black" stroke-dasharray="5,2" d="M391.112,-195.91C402.387,-194.13 415.001,-192.138 427.259,-190.202"/>
<polygon fill="black" stroke="black" points="428.102,-193.613 437.434,-188.596 427.011,-186.698 428.102,-193.613"/>
</g>
<!-- module~type_euler_1d&#45;&gt;program~integrate_euler_1d -->
<g id="edge6" class="edge"><title>module~type_euler_1d&#45;&gt;program~integrate_euler_1d</title>
<path fill="none" stroke="black" stroke-dasharray="5,2" d="M394.353,-110.6C403.732,-108.484 413.894,-106.192 423.922,-103.93"/>
<polygon fill="black" stroke="black" points="424.885,-107.301 433.87,-101.686 423.345,-100.472 424.885,-107.301"/>
</g>
<!-- module~type_lorenz&#45;&gt;program~integrate_lorenz -->
<g id="edge8" class="edge"><title>module~type_lorenz&#45;&gt;program~integrate_lorenz</title>
<path fill="none" stroke="black" stroke-dasharray="5,2" d="M387.251,-35.0946C400.508,-33.9982 416.022,-32.7151 430.774,-31.495"/>
<polygon fill="black" stroke="black" points="431.15,-34.9759 440.827,-30.6635 430.573,-27.9998 431.15,-34.9759"/>
</g>
</g>
</svg>
