<?xml version="1.0" encoding="UTF-8" standalone="no"?>
<!DOCTYPE svg PUBLIC "-//W3C//DTD SVG 1.1//EN"
 "http://www.w3.org/Graphics/SVG/1.1/DTD/svg11.dtd">
<!-- Generated by graphviz version 2.26.3 (20100126.1600)
 -->
<!-- Title: module~~foodie~~UsedByGraph Pages: 1 -->
<svg width="328pt" height="280pt"
 viewBox="0.00 0.00 328.00 280.00" xmlns="http://www.w3.org/2000/svg" xmlns:xlink="http://www.w3.org/1999/xlink">
<g id="graph1" class="graph" transform="scale(1 1) rotate(0) translate(4 276)">
<title>module~~foodie~~UsedByGraph</title>
<polygon fill="white" stroke="white" points="-4,5 -4,-276 325,-276 325,5 -4,5"/>
<!-- module~foodie -->
<g id="node1" class="node"><title>module~foodie</title>
<polygon fill="none" stroke="black" points="54,-149 2.13163e-14,-149 0,-123 54,-123 54,-149"/>
<text text-anchor="middle" x="27" y="-133.55" font-family="Helvetica,sans-Serif" font-size="10.50">foodie</text>
</g>
<!-- module~type_burgers -->
<g id="node2" class="node"><title>module~type_burgers</title>
<a xlink:href="../module/type_burgers.html" xlink:title="type_burgers">
<polygon fill="#337ab7" stroke="#337ab7" points="171,-272 95,-272 95,-246 171,-246 171,-272"/>
<text text-anchor="middle" x="133" y="-256.55" font-family="Helvetica,sans-Serif" font-size="10.50" fill="white">type_burgers</text>
</a>
</g>
<!-- module~foodie&#45;&gt;module~type_burgers -->
<g id="edge10" class="edge"><title>module~foodie&#45;&gt;module~type_burgers</title>
<path fill="none" stroke="black" stroke-dasharray="5,2" d="M33.2538,-149.061C43.1778,-168.796 64.0887,-206.604 90,-232 92.8919,-234.834 96.1306,-237.521 99.4984,-240.022"/>
<polygon fill="black" stroke="black" points="97.7794,-243.086 108.012,-245.832 101.726,-237.304 97.7794,-243.086"/>
</g>
<!-- program~integrate_burgers -->
<g id="node3" class="node"><title>program~integrate_burgers</title>
<a xlink:href="../program/integrate_burgers.html" xlink:title="integrate_burgers">
<polygon fill="#f0ad4e" stroke="#f0ad4e" points="314,-251 218,-251 218,-225 314,-225 314,-251"/>
<text text-anchor="middle" x="266" y="-235.55" font-family="Helvetica,sans-Serif" font-size="10.50" fill="white">integrate_burgers</text>
</a>
</g>
<!-- module~foodie&#45;&gt;program~integrate_burgers -->
<g id="edge12" class="edge"><title>module~foodie&#45;&gt;program~integrate_burgers</title>
<path fill="none" stroke="black" stroke-dasharray="5,2" d="M36.3371,-149.044C47.4429,-163.552 67.3522,-186.576 90,-199 126.088,-218.796 171.548,-228.545 207.225,-233.346"/>
<polygon fill="black" stroke="black" points="207.13,-236.861 217.486,-234.628 207.997,-229.915 207.13,-236.861"/>
</g>
<!-- module~type_euler_1d -->
<g id="node4" class="node"><title>module~type_euler_1d</title>
<a xlink:href="../module/type_euler_1d.html" xlink:title="type_euler_1D">
<polygon fill="#337ab7" stroke="#337ab7" points="174,-190 92,-190 92,-164 174,-164 174,-190"/>
<text text-anchor="middle" x="133" y="-174.55" font-family="Helvetica,sans-Serif" font-size="10.50" fill="white">type_euler_1D</text>
</a>
</g>
<!-- module~foodie&#45;&gt;module~type_euler_1d -->
<g id="edge14" class="edge"><title>module~foodie&#45;&gt;module~type_euler_1d</title>
<path fill="none" stroke="black" stroke-dasharray="5,2" d="M54.0225,-146.452C64.8641,-150.646 77.6323,-155.584 89.7049,-160.254"/>
<polygon fill="black" stroke="black" points="88.5985,-163.578 99.1877,-163.922 91.1237,-157.05 88.5985,-163.578"/>
</g>
<!-- program~integrate_oscillation -->
<g id="node5" class="node"><title>program~integrate_oscillation</title>
<a xlink:href="../program/integrate_oscillation.html" xlink:title="integrate_oscillation">
<polygon fill="#f0ad4e" stroke="#f0ad4e" points="319,-108 213,-108 213,-82 319,-82 319,-108"/>
<text text-anchor="middle" x="266" y="-92.55" font-family="Helvetica,sans-Serif" font-size="10.50" fill="white">integrate_oscillation</text>
</a>
</g>
<!-- module~foodie&#45;&gt;program~integrate_oscillation -->
<g id="edge16" class="edge"><title>module~foodie&#45;&gt;program~integrate_oscillation</title>
<path fill="none" stroke="black" stroke-dasharray="5,2" d="M54.0494,-137.055C75.4912,-137.637 106.2,-137.905 133,-136"/>
<path fill="none" stroke="black" stroke-dasharray="5,2" d="M133,-136C150.146,-134.781 189.317,-122.253 220.733,-111.362"/>
<polygon fill="black" stroke="black" points="221.918,-114.655 230.201,-108.049 219.607,-108.048 221.918,-114.655"/>
</g>
<!-- program~integrate_euler_1d -->
<g id="node6" class="node"><title>program~integrate_euler_1d</title>
<a xlink:href="../program/integrate_euler_1d.html" xlink:title="integrate_euler_1D">
<polygon fill="#f0ad4e" stroke="#f0ad4e" points="318,-152 214,-152 214,-126 318,-126 318,-152"/>
<text text-anchor="middle" x="266" y="-136.55" font-family="Helvetica,sans-Serif" font-size="10.50" fill="white">integrate_euler_1D</text>
</a>
</g>
<!-- module~foodie&#45;&gt;program~integrate_euler_1d -->
<g id="edge18" class="edge"><title>module~foodie&#45;&gt;program~integrate_euler_1d</title>
<path fill="none" stroke="black" stroke-dasharray="5,2" d="M133,-136C156.075,-134.36 181.453,-134.463 203.8,-135.195"/>
<polygon fill="black" stroke="black" points="203.71,-138.694 213.835,-135.572 203.973,-131.699 203.71,-138.694"/>
</g>
<!-- program~integrate_lorenz -->
<g id="node7" class="node"><title>program~integrate_lorenz</title>
<a xlink:href="../program/integrate_lorenz.html" xlink:title="integrate_lorenz">
<polygon fill="#f0ad4e" stroke="#f0ad4e" points="311,-45 221,-45 221,-19 311,-19 311,-45"/>
<text text-anchor="middle" x="266" y="-29.55" font-family="Helvetica,sans-Serif" font-size="10.50" fill="white">integrate_lorenz</text>
</a>
</g>
<!-- module~foodie&#45;&gt;program~integrate_lorenz -->
<g id="edge20" class="edge"><title>module~foodie&#45;&gt;program~integrate_lorenz</title>
<path fill="none" stroke="black" stroke-dasharray="5,2" d="M36.3615,-123C47.4898,-108.533 67.4197,-85.5457 90,-73 127.192,-52.336 174.37,-42.0595 210.516,-36.964"/>
<polygon fill="black" stroke="black" points="211.42,-40.3754 220.878,-35.6014 210.507,-33.4351 211.42,-40.3754"/>
</g>
<!-- module~type_lorenz -->
<g id="node8" class="node"><title>module~type_lorenz</title>
<a xlink:href="../module/type_lorenz.html" xlink:title="type_lorenz">
<polygon fill="#337ab7" stroke="#337ab7" points="167,-26 99,-26 99,-1.24345e-14 167,-3.55271e-15 167,-26"/>
<text text-anchor="middle" x="133" y="-10.55" font-family="Helvetica,sans-Serif" font-size="10.50" fill="white">type_lorenz</text>
</a>
</g>
<!-- module~foodie&#45;&gt;module~type_lorenz -->
<g id="edge22" class="edge"><title>module~foodie&#45;&gt;module~type_lorenz</title>
<path fill="none" stroke="black" stroke-dasharray="5,2" d="M33.2538,-122.939C43.1778,-103.204 64.0887,-65.3964 90,-40 92.8919,-37.1655 96.1306,-34.4789 99.4984,-31.9784"/>
<polygon fill="black" stroke="black" points="101.726,-34.6959 108.012,-26.1677 97.7794,-28.9141 101.726,-34.6959"/>
</g>
<!-- module~type_oscillation -->
<g id="node9" class="node"><title>module~type_oscillation</title>
<a xlink:href="../module/type_oscillation.html" xlink:title="type_oscillation">
<polygon fill="#337ab7" stroke="#337ab7" points="175,-108 91,-108 91,-82 175,-82 175,-108"/>
<text text-anchor="middle" x="133" y="-92.55" font-family="Helvetica,sans-Serif" font-size="10.50" fill="white">type_oscillation</text>
</a>
</g>
<!-- module~foodie&#45;&gt;module~type_oscillation -->
<g id="edge24" class="edge"><title>module~foodie&#45;&gt;module~type_oscillation</title>
<path fill="none" stroke="black" stroke-dasharray="5,2" d="M54.0225,-125.548C64.8641,-121.354 77.6323,-116.416 89.7049,-111.746"/>
<polygon fill="black" stroke="black" points="91.1237,-114.95 99.1877,-108.078 88.5985,-108.422 91.1237,-114.95"/>
</g>
<!-- module~type_burgers&#45;&gt;program~integrate_burgers -->
<g id="edge2" class="edge"><title>module~type_burgers&#45;&gt;program~integrate_burgers</title>
<path fill="none" stroke="black" stroke-dasharray="5,2" d="M171.112,-252.982C182.387,-251.202 195.001,-249.21 207.259,-247.275"/>
<polygon fill="black" stroke="black" points="208.102,-250.685 217.434,-245.668 207.011,-243.771 208.102,-250.685"/>
</g>
<!-- module~type_euler_1d&#45;&gt;program~integrate_euler_1d -->
<g id="edge4" class="edge"><title>module~type_euler_1d&#45;&gt;program~integrate_euler_1d</title>
<path fill="none" stroke="black" stroke-dasharray="5,2" d="M174.353,-165.185C185.672,-161.951 198.131,-158.391 210.118,-154.966"/>
<polygon fill="black" stroke="black" points="211.386,-158.244 220.04,-152.131 209.463,-151.513 211.386,-158.244"/>
</g>
<!-- module~type_lorenz&#45;&gt;program~integrate_lorenz -->
<g id="edge6" class="edge"><title>module~type_lorenz&#45;&gt;program~integrate_lorenz</title>
<path fill="none" stroke="black" stroke-dasharray="5,2" d="M167.251,-17.893C180.508,-19.7869 196.022,-22.0032 210.774,-24.1105"/>
<polygon fill="black" stroke="black" points="210.433,-27.5973 220.827,-25.5468 211.423,-20.6676 210.433,-27.5973"/>
</g>
<!-- module~type_oscillation&#45;&gt;program~integrate_oscillation -->
<g id="edge8" class="edge"><title>module~type_oscillation&#45;&gt;program~integrate_oscillation</title>
<path fill="none" stroke="black" stroke-dasharray="5,2" d="M175.814,-95C184.11,-95 192.972,-95 201.781,-95"/>
<polygon fill="black" stroke="black" points="202.06,-98.5001 212.06,-95 202.06,-91.5001 202.06,-98.5001"/>
</g>
</g>
</svg>
