<?xml version="1.0" encoding="UTF-8" standalone="no"?>
<!DOCTYPE svg PUBLIC "-//W3C//DTD SVG 1.1//EN"
 "http://www.w3.org/Graphics/SVG/1.1/DTD/svg11.dtd">
<!-- Generated by graphviz version 2.26.3 (20100126.1600)
 -->
<!-- Title: module~~foodie_integrator_euler_explicit~~UsedByGraph Pages: 1 -->
<svg width="526pt" height="294pt"
 viewBox="0.00 0.00 526.00 294.08" xmlns="http://www.w3.org/2000/svg" xmlns:xlink="http://www.w3.org/1999/xlink">
<g id="graph1" class="graph" transform="scale(1 1) rotate(0) translate(4 290.081)">
<title>module~~foodie_integrator_euler_explicit~~UsedByGraph</title>
<polygon fill="white" stroke="white" points="-4,5 -4,-290.081 523,-290.081 523,5 -4,5"/>
<!-- module~foodie_integrator_euler_explicit -->
<g id="node1" class="node"><title>module~foodie_integrator_euler_explicit</title>
<polygon fill="none" stroke="black" points="162,-155.03 8.52651e-14,-155.03 0,-129.03 162,-129.03 162,-155.03"/>
<text text-anchor="middle" x="81" y="-139.58" font-family="Helvetica,sans-Serif" font-size="10.50">foodie_integrator_euler_explicit</text>
</g>
<!-- module~foodie -->
<g id="node2" class="node"><title>module~foodie</title>
<a xlink:href="../module/foodie.html" xlink:title="foodie">
<polygon fill="#337ab7" stroke="#337ab7" points="252,-155.03 198,-155.03 198,-129.03 252,-129.03 252,-155.03"/>
<text text-anchor="middle" x="225" y="-139.58" font-family="Helvetica,sans-Serif" font-size="10.50" fill="white">foodie</text>
</a>
</g>
<!-- module~foodie_integrator_euler_explicit&#45;&gt;module~foodie -->
<g id="edge26" class="edge"><title>module~foodie_integrator_euler_explicit&#45;&gt;module~foodie</title>
<path fill="none" stroke="black" stroke-dasharray="5,2" d="M162.258,-142.03C171.03,-142.03 179.616,-142.03 187.482,-142.03"/>
<polygon fill="black" stroke="black" points="187.714,-145.53 197.714,-142.03 187.714,-138.53 187.714,-145.53"/>
</g>
<!-- program~integrate_burgers -->
<g id="node3" class="node"><title>program~integrate_burgers</title>
<a xlink:href="../program/integrate_burgers.html" xlink:title="integrate_burgers">
<polygon fill="#f0ad4e" stroke="#f0ad4e" points="512,-279.03 416,-279.03 416,-253.03 512,-253.03 512,-279.03"/>
<text text-anchor="middle" x="464" y="-263.58" font-family="Helvetica,sans-Serif" font-size="10.50" fill="white">integrate_burgers</text>
</a>
</g>
<!-- module~foodie&#45;&gt;program~integrate_burgers -->
<g id="edge10" class="edge"><title>module~foodie&#45;&gt;program~integrate_burgers</title>
<path fill="none" stroke="black" stroke-dasharray="5,2" d="M227.04,-155.396C231.957,-182.358 247.223,-242.828 288,-268.03 323.759,-290.13 371.909,-287.9 408.807,-281.108"/>
<polygon fill="black" stroke="black" points="409.778,-284.483 418.896,-279.087 408.404,-277.619 409.778,-284.483"/>
</g>
<!-- program~integrate_lorenz -->
<g id="node4" class="node"><title>program~integrate_lorenz</title>
<a xlink:href="../program/integrate_lorenz.html" xlink:title="integrate_lorenz">
<polygon fill="#f0ad4e" stroke="#f0ad4e" points="509,-197.03 419,-197.03 419,-171.03 509,-171.03 509,-197.03"/>
<text text-anchor="middle" x="464" y="-181.58" font-family="Helvetica,sans-Serif" font-size="10.50" fill="white">integrate_lorenz</text>
</a>
</g>
<!-- module~foodie&#45;&gt;program~integrate_lorenz -->
<g id="edge12" class="edge"><title>module~foodie&#45;&gt;program~integrate_lorenz</title>
<path fill="none" stroke="black" stroke-dasharray="5,2" d="M238.641,-155.324C250.563,-165.95 268.911,-180.023 288,-186.03 326.999,-198.3 373.307,-197.198 408.632,-193.35"/>
<polygon fill="black" stroke="black" points="409.24,-196.803 418.754,-192.141 408.409,-189.852 409.24,-196.803"/>
</g>
<!-- module~type_euler_1d -->
<g id="node5" class="node"><title>module~type_euler_1d</title>
<a xlink:href="../module/type_euler_1d.html" xlink:title="type_euler_1D">
<polygon fill="#337ab7" stroke="#337ab7" points="372,-133.03 290,-133.03 290,-107.03 372,-107.03 372,-133.03"/>
<text text-anchor="middle" x="331" y="-117.58" font-family="Helvetica,sans-Serif" font-size="10.50" fill="white">type_euler_1D</text>
</a>
</g>
<!-- module~foodie&#45;&gt;module~type_euler_1d -->
<g id="edge14" class="edge"><title>module~foodie&#45;&gt;module~type_euler_1d</title>
<path fill="none" stroke="black" stroke-dasharray="5,2" d="M252.023,-136.421C260.49,-134.664 270.133,-132.662 279.702,-130.676"/>
<polygon fill="black" stroke="black" points="280.514,-134.082 289.594,-128.623 279.092,-127.228 280.514,-134.082"/>
</g>
<!-- program~integrate_euler_1d -->
<g id="node6" class="node"><title>program~integrate_euler_1d</title>
<a xlink:href="../program/integrate_euler_1d.html" xlink:title="integrate_euler_1D">
<polygon fill="#f0ad4e" stroke="#f0ad4e" points="516,-103.03 412,-103.03 412,-77.0295 516,-77.0295 516,-103.03"/>
<text text-anchor="middle" x="464" y="-87.5795" font-family="Helvetica,sans-Serif" font-size="10.50" fill="white">integrate_euler_1D</text>
</a>
</g>
<!-- module~foodie&#45;&gt;program~integrate_euler_1d -->
<g id="edge16" class="edge"><title>module~foodie&#45;&gt;program~integrate_euler_1d</title>
<path fill="none" stroke="black" stroke-dasharray="5,2" d="M238.713,-128.957C250.68,-118.467 269.052,-104.468 288,-98.0295 324.219,-85.7229 367.054,-83.5312 401.397,-84.5087"/>
<polygon fill="black" stroke="black" points="401.639,-88.0205 411.766,-84.9062 401.907,-81.0256 401.639,-88.0205"/>
</g>
<!-- module~type_oscillation -->
<g id="node7" class="node"><title>module~type_oscillation</title>
<a xlink:href="../module/type_oscillation.html" xlink:title="type_oscillation">
<polygon fill="#337ab7" stroke="#337ab7" points="373,-51.0295 289,-51.0295 289,-25.0295 373,-25.0295 373,-51.0295"/>
<text text-anchor="middle" x="331" y="-35.5795" font-family="Helvetica,sans-Serif" font-size="10.50" fill="white">type_oscillation</text>
</a>
</g>
<!-- module~foodie&#45;&gt;module~type_oscillation -->
<g id="edge18" class="edge"><title>module~foodie&#45;&gt;module~type_oscillation</title>
<path fill="none" stroke="black" stroke-dasharray="5,2" d="M233.702,-128.947C244.941,-112.686 265.721,-84.683 288,-65.0295 291.198,-62.2086 294.722,-59.4896 298.336,-56.9348"/>
<polygon fill="black" stroke="black" points="300.425,-59.7493 306.819,-51.301 296.552,-53.9183 300.425,-59.7493"/>
</g>
<!-- module~type_lorenz -->
<g id="node8" class="node"><title>module~type_lorenz</title>
<a xlink:href="../module/type_lorenz.html" xlink:title="type_lorenz">
<polygon fill="#337ab7" stroke="#337ab7" points="365,-177.03 297,-177.03 297,-151.03 365,-151.03 365,-177.03"/>
<text text-anchor="middle" x="331" y="-161.58" font-family="Helvetica,sans-Serif" font-size="10.50" fill="white">type_lorenz</text>
</a>
</g>
<!-- module~foodie&#45;&gt;module~type_lorenz -->
<g id="edge20" class="edge"><title>module~foodie&#45;&gt;module~type_lorenz</title>
<path fill="none" stroke="black" stroke-dasharray="5,2" d="M252.023,-147.638C262.555,-149.824 274.905,-152.387 286.669,-154.829"/>
<polygon fill="black" stroke="black" points="286.294,-158.325 296.796,-156.931 287.716,-151.471 286.294,-158.325"/>
</g>
<!-- program~integrate_oscillation -->
<g id="node9" class="node"><title>program~integrate_oscillation</title>
<a xlink:href="../program/integrate_oscillation.html" xlink:title="integrate_oscillation">
<polygon fill="#f0ad4e" stroke="#f0ad4e" points="517,-40.0295 411,-40.0295 411,-14.0295 517,-14.0295 517,-40.0295"/>
<text text-anchor="middle" x="464" y="-24.5795" font-family="Helvetica,sans-Serif" font-size="10.50" fill="white">integrate_oscillation</text>
</a>
</g>
<!-- module~foodie&#45;&gt;program~integrate_oscillation -->
<g id="edge22" class="edge"><title>module~foodie&#45;&gt;program~integrate_oscillation</title>
<path fill="none" stroke="black" stroke-dasharray="5,2" d="M227.04,-128.663C231.957,-101.702 247.223,-41.2308 288,-16.0295 327.685,8.49702 382.485,-0.0725494 420.345,-11.0278"/>
<polygon fill="black" stroke="black" points="419.479,-14.4231 430.066,-14 421.526,-7.72896 419.479,-14.4231"/>
</g>
<!-- module~type_burgers -->
<g id="node10" class="node"><title>module~type_burgers</title>
<a xlink:href="../module/type_burgers.html" xlink:title="type_burgers">
<polygon fill="#337ab7" stroke="#337ab7" points="369,-259.03 293,-259.03 293,-233.03 369,-233.03 369,-259.03"/>
<text text-anchor="middle" x="331" y="-243.58" font-family="Helvetica,sans-Serif" font-size="10.50" fill="white">type_burgers</text>
</a>
</g>
<!-- module~foodie&#45;&gt;module~type_burgers -->
<g id="edge24" class="edge"><title>module~foodie&#45;&gt;module~type_burgers</title>
<path fill="none" stroke="black" stroke-dasharray="5,2" d="M233.702,-155.112C244.941,-171.373 265.721,-199.376 288,-219.03 291.198,-221.851 294.722,-224.569 298.336,-227.124"/>
<polygon fill="black" stroke="black" points="296.552,-230.141 306.819,-232.758 300.425,-224.31 296.552,-230.141"/>
</g>
<!-- module~type_euler_1d&#45;&gt;program~integrate_euler_1d -->
<g id="edge2" class="edge"><title>module~type_euler_1d&#45;&gt;program~integrate_euler_1d</title>
<path fill="none" stroke="black" stroke-dasharray="5,2" d="M372.353,-110.702C381.732,-108.586 391.894,-106.294 401.922,-104.032"/>
<polygon fill="black" stroke="black" points="402.885,-107.403 411.87,-101.788 401.345,-100.574 402.885,-107.403"/>
</g>
<!-- module~type_oscillation&#45;&gt;program~integrate_oscillation -->
<g id="edge4" class="edge"><title>module~type_oscillation&#45;&gt;program~integrate_oscillation</title>
<path fill="none" stroke="black" stroke-dasharray="5,2" d="M373.814,-34.4885C382.201,-33.7949 391.165,-33.0535 400.068,-32.3171"/>
<polygon fill="black" stroke="black" points="400.382,-35.8032 410.06,-31.4908 399.805,-28.827 400.382,-35.8032"/>
</g>
<!-- module~type_lorenz&#45;&gt;program~integrate_lorenz -->
<g id="edge6" class="edge"><title>module~type_lorenz&#45;&gt;program~integrate_lorenz</title>
<path fill="none" stroke="black" stroke-dasharray="5,2" d="M365.251,-169.18C378.508,-171.174 394.022,-173.507 408.774,-175.725"/>
<polygon fill="black" stroke="black" points="408.418,-179.211 418.827,-177.237 409.459,-172.288 408.418,-179.211"/>
</g>
<!-- module~type_burgers&#45;&gt;program~integrate_burgers -->
<g id="edge8" class="edge"><title>module~type_burgers&#45;&gt;program~integrate_burgers</title>
<path fill="none" stroke="black" stroke-dasharray="5,2" d="M369.112,-251.761C380.387,-253.456 393.001,-255.353 405.259,-257.196"/>
<polygon fill="black" stroke="black" points="405.025,-260.7 415.434,-258.726 406.066,-253.778 405.025,-260.7"/>
</g>
</g>
</svg>
