<?xml version="1.0" encoding="UTF-8" standalone="no"?>
<!DOCTYPE svg PUBLIC "-//W3C//DTD SVG 1.1//EN"
 "http://www.w3.org/Graphics/SVG/1.1/DTD/svg11.dtd">
<!-- Generated by graphviz version 2.26.3 (20100126.1600)
 -->
<!-- Title: module~~graph~~ModuleGraph Pages: 1 -->
<svg width="855pt" height="474pt"
 viewBox="0.00 0.00 855.00 473.70" xmlns="http://www.w3.org/2000/svg" xmlns:xlink="http://www.w3.org/1999/xlink">
<g id="graph1" class="graph" transform="scale(0.925325 0.925325) rotate(0) translate(4 507.928)">
<title>module~~graph~~ModuleGraph</title>
<polygon fill="white" stroke="white" points="-4,5 -4,-507.928 921,-507.928 921,5 -4,5"/>
<!-- module~foodie -->
<g id="node1" class="node"><title>module~foodie</title>
<a xlink:href="../module/foodie.html" xlink:title="foodie">
<polygon fill="#337ab7" stroke="#337ab7" points="540,-314.178 486,-314.178 486,-288.178 540,-288.178 540,-314.178"/>
<text text-anchor="middle" x="513" y="-298.728" font-family="Helvetica,sans-Serif" font-size="10.50" fill="white">foodie</text>
</a>
</g>
<!-- module~type_lorenz -->
<g id="node3" class="node"><title>module~type_lorenz</title>
<a xlink:href="../module/type_lorenz.html" xlink:title="type_lorenz">
<polygon fill="#337ab7" stroke="#337ab7" points="708,-475.178 640,-475.178 640,-449.178 708,-449.178 708,-475.178"/>
<text text-anchor="middle" x="674" y="-459.728" font-family="Helvetica,sans-Serif" font-size="10.50" fill="white">type_lorenz</text>
</a>
</g>
<!-- module~foodie&#45;&gt;module~type_lorenz -->
<g id="edge20" class="edge"><title>module~foodie&#45;&gt;module~type_lorenz</title>
<path fill="none" stroke="black" stroke-dasharray="5,2" d="M519.5,-314.484C529.594,-334.202 550.548,-371.602 576,-397.178 594.733,-416.003 619.73,-432.479 639.79,-444.133"/>
<polygon fill="black" stroke="black" points="638.194,-447.251 648.619,-449.14 641.647,-441.162 638.194,-447.251"/>
</g>
<!-- module~type_burgers -->
<g id="node4" class="node"><title>module~type_burgers</title>
<a xlink:href="../module/type_burgers.html" xlink:title="type_burgers">
<polygon fill="#337ab7" stroke="#337ab7" points="712,-355.178 636,-355.178 636,-329.178 712,-329.178 712,-355.178"/>
<text text-anchor="middle" x="674" y="-339.728" font-family="Helvetica,sans-Serif" font-size="10.50" fill="white">type_burgers</text>
</a>
</g>
<!-- module~foodie&#45;&gt;module~type_burgers -->
<g id="edge24" class="edge"><title>module~foodie&#45;&gt;module~type_burgers</title>
<path fill="none" stroke="black" stroke-dasharray="5,2" d="M540.311,-308.133C563.723,-314.095 597.998,-322.824 625.981,-329.95"/>
<polygon fill="black" stroke="black" points="625.42,-333.418 635.974,-332.495 627.147,-326.635 625.42,-333.418"/>
</g>
<!-- module~type_euler_1d -->
<g id="node5" class="node"><title>module~type_euler_1d</title>
<a xlink:href="../module/type_euler_1d.html" xlink:title="type_euler_1D">
<polygon fill="#337ab7" stroke="#337ab7" points="715,-65.1781 633,-65.1781 633,-39.1781 715,-39.1781 715,-65.1781"/>
<text text-anchor="middle" x="674" y="-49.7281" font-family="Helvetica,sans-Serif" font-size="10.50" fill="white">type_euler_1D</text>
</a>
</g>
<!-- module~foodie&#45;&gt;module~type_euler_1d -->
<g id="edge30" class="edge"><title>module~foodie&#45;&gt;module~type_euler_1d</title>
<path fill="none" stroke="black" stroke-dasharray="5,2" d="M514.308,-287.789C518.159,-254.634 532.097,-167.414 576,-112.178 590.508,-93.9256 612.195,-79.8333 631.482,-69.907"/>
<polygon fill="black" stroke="black" points="633.285,-72.9209 640.716,-65.3688 630.197,-66.6387 633.285,-72.9209"/>
</g>
<!-- module~type_oscillation -->
<g id="node10" class="node"><title>module~type_oscillation</title>
<a xlink:href="../module/type_oscillation.html" xlink:title="type_oscillation">
<polygon fill="#337ab7" stroke="#337ab7" points="716,-147.178 632,-147.178 632,-121.178 716,-121.178 716,-147.178"/>
<text text-anchor="middle" x="674" y="-131.728" font-family="Helvetica,sans-Serif" font-size="10.50" fill="white">type_oscillation</text>
</a>
</g>
<!-- module~foodie&#45;&gt;module~type_oscillation -->
<g id="edge48" class="edge"><title>module~foodie&#45;&gt;module~type_oscillation</title>
<path fill="none" stroke="black" stroke-dasharray="5,2" d="M515.065,-288.163C520.153,-260.485 535.924,-195.513 576,-161.178 588.652,-150.339 605.3,-143.822 621.276,-139.914"/>
<polygon fill="black" stroke="black" points="622.055,-143.326 631.095,-137.802 620.583,-136.483 622.055,-143.326"/>
</g>
<!-- program~integrate_lorenz -->
<g id="node12" class="node"><title>program~integrate_lorenz</title>
<a xlink:href="../program/integrate_lorenz.html" xlink:title="integrate_lorenz">
<polygon fill="#f0ad4e" stroke="#f0ad4e" points="907,-396.178 817,-396.178 817,-370.178 907,-370.178 907,-396.178"/>
<text text-anchor="middle" x="862" y="-380.728" font-family="Helvetica,sans-Serif" font-size="10.50" fill="white">integrate_lorenz</text>
</a>
</g>
<!-- module~foodie&#45;&gt;program~integrate_lorenz -->
<g id="edge56" class="edge"><title>module~foodie&#45;&gt;program~integrate_lorenz</title>
<path fill="none" stroke="black" stroke-dasharray="5,2" d="M521.635,-314.319C532.364,-329.382 552.194,-353.379 576,-364.178 650.433,-397.943 747.084,-396.202 806.804,-390.618"/>
<polygon fill="black" stroke="black" points="807.186,-394.097 816.786,-389.616 806.487,-387.132 807.186,-394.097"/>
</g>
<!-- program~integrate_oscillation -->
<g id="node13" class="node"><title>program~integrate_oscillation</title>
<a xlink:href="../program/integrate_oscillation.html" xlink:title="integrate_oscillation">
<polygon fill="#f0ad4e" stroke="#f0ad4e" points="915,-188.178 809,-188.178 809,-162.178 915,-162.178 915,-188.178"/>
<text text-anchor="middle" x="862" y="-172.728" font-family="Helvetica,sans-Serif" font-size="10.50" fill="white">integrate_oscillation</text>
</a>
</g>
<!-- module~foodie&#45;&gt;program~integrate_oscillation -->
<g id="edge66" class="edge"><title>module~foodie&#45;&gt;program~integrate_oscillation</title>
<path fill="none" stroke="black" stroke-dasharray="5,2" d="M674,-175.178C713.041,-159.118 760.621,-159.286 798.147,-163.384"/>
<polygon fill="black" stroke="black" points="798.1,-166.904 808.449,-164.634 798.943,-159.955 798.1,-166.904"/>
</g>
<!-- program~integrate_burgers -->
<g id="node14" class="node"><title>program~integrate_burgers</title>
<a xlink:href="../program/integrate_burgers.html" xlink:title="integrate_burgers">
<polygon fill="#f0ad4e" stroke="#f0ad4e" points="910,-314.178 814,-314.178 814,-288.178 910,-288.178 910,-314.178"/>
<text text-anchor="middle" x="862" y="-298.728" font-family="Helvetica,sans-Serif" font-size="10.50" fill="white">integrate_burgers</text>
</a>
</g>
<!-- module~foodie&#45;&gt;program~integrate_burgers -->
<g id="edge76" class="edge"><title>module~foodie&#45;&gt;program~integrate_burgers</title>
<path fill="none" stroke="black" stroke-dasharray="5,2" d="M540.095,-301.178C596.231,-301.178 726.374,-301.178 802.885,-301.178"/>
<polygon fill="black" stroke="black" points="803.312,-304.678 813.312,-301.178 803.312,-297.678 803.312,-304.678"/>
</g>
<!-- program~integrate_euler_1d -->
<g id="node15" class="node"><title>program~integrate_euler_1d</title>
<a xlink:href="../program/integrate_euler_1d.html" xlink:title="integrate_euler_1D">
<polygon fill="#f0ad4e" stroke="#f0ad4e" points="914,-144.178 810,-144.178 810,-118.178 914,-118.178 914,-144.178"/>
<text text-anchor="middle" x="862" y="-128.728" font-family="Helvetica,sans-Serif" font-size="10.50" fill="white">integrate_euler_1D</text>
</a>
</g>
<!-- module~foodie&#45;&gt;program~integrate_euler_1d -->
<g id="edge86" class="edge"><title>module~foodie&#45;&gt;program~integrate_euler_1d</title>
<path fill="none" stroke="black" stroke-dasharray="5,2" d="M516.849,-287.858C524.243,-264.805 542.724,-217.688 576,-194.178 612.235,-168.577 632.969,-192.057 674,-175.178"/>
<path fill="none" stroke="black" stroke-dasharray="5,2" d="M674,-175.178C715.031,-158.299 728.814,-166.346 772,-156.178 783.715,-153.42 796.203,-150.16 808.029,-146.92"/>
<polygon fill="black" stroke="black" points="809.077,-150.262 817.777,-144.216 807.205,-143.517 809.077,-150.262"/>
</g>
<!-- module~foodie_integrator_low_storage_runge_kutta -->
<g id="node2" class="node"><title>module~foodie_integrator_low_storage_runge_kutta</title>
<a xlink:href="../module/foodie_integrator_low_storage_runge_kutta.html" xlink:title="foodie_integrator_low_storage_runge_kutta">
<polygon fill="#337ab7" stroke="#337ab7" points="450,-204.178 230,-204.178 230,-178.178 450,-178.178 450,-204.178"/>
<text text-anchor="middle" x="340" y="-188.728" font-family="Helvetica,sans-Serif" font-size="10.50" fill="white">foodie_integrator_low_storage_runge_kutta</text>
</a>
</g>
<!-- module~foodie_integrator_low_storage_runge_kutta&#45;&gt;module~foodie -->
<g id="edge4" class="edge"><title>module~foodie_integrator_low_storage_runge_kutta&#45;&gt;module~foodie</title>
<path fill="none" stroke="black" stroke-dasharray="5,2" d="M432.698,-204.238C438.766,-206.738 444.601,-209.691 450,-213.178 474.687,-229.122 492.725,-258.431 503.023,-278.824"/>
<polygon fill="black" stroke="black" points="499.96,-280.53 507.452,-288.021 506.266,-277.492 499.96,-280.53"/>
</g>
<!-- module~type_lorenz&#45;&gt;program~integrate_lorenz -->
<g id="edge62" class="edge"><title>module~type_lorenz&#45;&gt;program~integrate_lorenz</title>
<path fill="none" stroke="black" stroke-dasharray="5,2" d="M708.28,-455.003C727.427,-450.438 751.488,-443.763 772,-435.178 793.83,-426.041 816.912,-412.62 834.235,-401.701"/>
<polygon fill="black" stroke="black" points="836.201,-404.598 842.731,-396.255 832.424,-398.705 836.201,-404.598"/>
</g>
<!-- module~type_burgers&#45;&gt;program~integrate_burgers -->
<g id="edge82" class="edge"><title>module~type_burgers&#45;&gt;program~integrate_burgers</title>
<path fill="none" stroke="black" stroke-dasharray="5,2" d="M712.045,-333.881C738.264,-328.163 773.616,-320.453 803.41,-313.956"/>
<polygon fill="black" stroke="black" points="804.255,-317.354 813.28,-311.803 802.764,-310.515 804.255,-317.354"/>
</g>
<!-- module~type_euler_1d&#45;&gt;program~integrate_euler_1d -->
<g id="edge92" class="edge"><title>module~type_euler_1d&#45;&gt;program~integrate_euler_1d</title>
<path fill="none" stroke="black" stroke-dasharray="5,2" d="M715.313,-61.0728C733.105,-65.5346 753.93,-71.6152 772,-79.1781 793.83,-88.3148 816.912,-101.736 834.235,-112.655"/>
<polygon fill="black" stroke="black" points="832.424,-115.651 842.731,-118.101 836.201,-109.758 832.424,-115.651"/>
</g>
<!-- module~type_integrand -->
<g id="node6" class="node"><title>module~type_integrand</title>
<a xlink:href="../module/type_integrand.html" xlink:title="type_integrand">
<polygon fill="#337ab7" stroke="#337ab7" points="194,-309.178 110,-309.178 110,-283.178 194,-283.178 194,-309.178"/>
<text text-anchor="middle" x="152" y="-293.728" font-family="Helvetica,sans-Serif" font-size="10.50" fill="white">type_integrand</text>
</a>
</g>
<!-- module~type_integrand&#45;&gt;module~foodie -->
<g id="edge8" class="edge"><title>module~type_integrand&#45;&gt;module~foodie</title>
<path fill="none" stroke="black" stroke-dasharray="5,2" d="M194.099,-295.54C205.729,-295.39 218.353,-295.253 230,-295.178 327.776,-294.551 352.332,-290.538 450,-295.178 458.348,-295.575 467.298,-296.265 475.755,-297.04"/>
<polygon fill="black" stroke="black" points="475.46,-300.528 485.752,-298.013 476.138,-293.561 475.46,-300.528"/>
</g>
<!-- module~type_integrand&#45;&gt;module~foodie_integrator_low_storage_runge_kutta -->
<g id="edge16" class="edge"><title>module~type_integrand&#45;&gt;module~foodie_integrator_low_storage_runge_kutta</title>
<path fill="none" stroke="black" stroke-dasharray="5,2" d="M160.314,-283.145C172.962,-264.472 198.883,-230.458 230,-213.178 233.445,-211.265 237.033,-209.517 240.719,-207.919"/>
<polygon fill="black" stroke="black" points="242.031,-211.164 250.06,-204.252 239.473,-204.649 242.031,-211.164"/>
</g>
<!-- module~foodie_integrator_euler_explicit -->
<g id="node7" class="node"><title>module~foodie_integrator_euler_explicit</title>
<a xlink:href="../module/foodie_integrator_euler_explicit.html" xlink:title="foodie_integrator_euler_explicit">
<polygon fill="#337ab7" stroke="#337ab7" points="421,-418.178 259,-418.178 259,-392.178 421,-392.178 421,-418.178"/>
<text text-anchor="middle" x="340" y="-402.728" font-family="Helvetica,sans-Serif" font-size="10.50" fill="white">foodie_integrator_euler_explicit</text>
</a>
</g>
<!-- module~type_integrand&#45;&gt;module~foodie_integrator_euler_explicit -->
<g id="edge36" class="edge"><title>module~type_integrand&#45;&gt;module~foodie_integrator_euler_explicit</title>
<path fill="none" stroke="black" stroke-dasharray="5,2" d="M159.747,-309.196C172.039,-328.625 197.935,-364.877 230,-383.178 235.966,-386.583 242.377,-389.468 248.996,-391.911"/>
<polygon fill="black" stroke="black" points="248.222,-395.342 258.815,-395.182 250.434,-388.701 248.222,-395.342"/>
</g>
<!-- module~foodie_integrator_tvd_runge_kutta -->
<g id="node8" class="node"><title>module~foodie_integrator_tvd_runge_kutta</title>
<a xlink:href="../module/foodie_integrator_tvd_runge_kutta.html" xlink:title="foodie_integrator_tvd_runge_kutta">
<polygon fill="#337ab7" stroke="#337ab7" points="428,-374.178 252,-374.178 252,-348.178 428,-348.178 428,-374.178"/>
<text text-anchor="middle" x="340" y="-358.728" font-family="Helvetica,sans-Serif" font-size="10.50" fill="white">foodie_integrator_tvd_runge_kutta</text>
</a>
</g>
<!-- module~type_integrand&#45;&gt;module~foodie_integrator_tvd_runge_kutta -->
<g id="edge40" class="edge"><title>module~type_integrand&#45;&gt;module~foodie_integrator_tvd_runge_kutta</title>
<path fill="none" stroke="black" stroke-dasharray="5,2" d="M171.717,-309.276C187.022,-318.881 209.088,-331.53 230,-339.178 236.39,-341.515 243.085,-343.624 249.882,-345.524"/>
<polygon fill="black" stroke="black" points="249.329,-348.997 259.891,-348.159 251.112,-342.228 249.329,-348.997"/>
</g>
<!-- module~foodie_integrator_leapfrog -->
<g id="node9" class="node"><title>module~foodie_integrator_leapfrog</title>
<a xlink:href="../module/foodie_integrator_leapfrog.html" xlink:title="foodie_integrator_leapfrog">
<polygon fill="#337ab7" stroke="#337ab7" points="409,-330.178 271,-330.178 271,-304.178 409,-304.178 409,-330.178"/>
<text text-anchor="middle" x="340" y="-314.728" font-family="Helvetica,sans-Serif" font-size="10.50" fill="white">foodie_integrator_leapfrog</text>
</a>
</g>
<!-- module~type_integrand&#45;&gt;module~foodie_integrator_leapfrog -->
<g id="edge44" class="edge"><title>module~type_integrand&#45;&gt;module~foodie_integrator_leapfrog</title>
<path fill="none" stroke="black" stroke-dasharray="5,2" d="M194.191,-300.891C213.712,-303.071 237.568,-305.736 260.284,-308.274"/>
<polygon fill="black" stroke="black" points="259.95,-311.758 270.276,-309.39 260.727,-304.801 259.95,-311.758"/>
</g>
<!-- module~foodie_integrator_adams_bashforth -->
<g id="node11" class="node"><title>module~foodie_integrator_adams_bashforth</title>
<a xlink:href="../module/foodie_integrator_adams_bashforth.html" xlink:title="foodie_integrator_adams_bashforth">
<polygon fill="#337ab7" stroke="#337ab7" points="431,-248.178 249,-248.178 249,-222.178 431,-222.178 431,-248.178"/>
<text text-anchor="middle" x="340" y="-232.728" font-family="Helvetica,sans-Serif" font-size="10.50" fill="white">foodie_integrator_adams_bashforth</text>
</a>
</g>
<!-- module~type_integrand&#45;&gt;module~foodie_integrator_adams_bashforth -->
<g id="edge52" class="edge"><title>module~type_integrand&#45;&gt;module~foodie_integrator_adams_bashforth</title>
<path fill="none" stroke="black" stroke-dasharray="5,2" d="M178.986,-283.059C193.804,-276.203 212.646,-268.042 230,-262.178 242.47,-257.964 255.939,-254.108 269.033,-250.711"/>
<polygon fill="black" stroke="black" points="270.112,-254.048 278.95,-248.204 268.397,-247.261 270.112,-254.048"/>
</g>
<!-- module~foodie_integrator_euler_explicit&#45;&gt;module~foodie -->
<g id="edge12" class="edge"><title>module~foodie_integrator_euler_explicit&#45;&gt;module~foodie</title>
<path fill="none" stroke="black" stroke-dasharray="5,2" d="M421.275,-395.902C431.386,-392.769 441.236,-388.631 450,-383.178 473.342,-368.656 491.301,-342.168 501.964,-323.225"/>
<polygon fill="black" stroke="black" points="505.076,-324.828 506.735,-314.364 498.913,-321.509 505.076,-324.828"/>
</g>
<!-- module~foodie_integrator_tvd_runge_kutta&#45;&gt;module~foodie -->
<g id="edge6" class="edge"><title>module~foodie_integrator_tvd_runge_kutta&#45;&gt;module~foodie</title>
<path fill="none" stroke="black" stroke-dasharray="5,2" d="M421.708,-348.134C431.388,-345.626 441.012,-342.665 450,-339.178 462.653,-334.27 475.655,-326.89 486.537,-319.935"/>
<polygon fill="black" stroke="black" points="488.713,-322.692 495.125,-314.258 484.853,-316.853 488.713,-322.692"/>
</g>
<!-- module~foodie_integrator_leapfrog&#45;&gt;module~foodie -->
<g id="edge2" class="edge"><title>module~foodie_integrator_leapfrog&#45;&gt;module~foodie</title>
<path fill="none" stroke="black" stroke-dasharray="5,2" d="M409.867,-310.716C432.338,-308.638 456.366,-306.416 475.571,-304.64"/>
<polygon fill="black" stroke="black" points="476.069,-308.109 485.704,-303.703 475.424,-301.139 476.069,-308.109"/>
</g>
<!-- module~type_oscillation&#45;&gt;program~integrate_oscillation -->
<g id="edge72" class="edge"><title>module~type_oscillation&#45;&gt;program~integrate_oscillation</title>
<path fill="none" stroke="black" stroke-dasharray="5,2" d="M716.66,-143.482C740.772,-148.74 771.385,-155.416 798.291,-161.284"/>
<polygon fill="black" stroke="black" points="797.884,-164.778 808.4,-163.489 799.375,-157.938 797.884,-164.778"/>
</g>
<!-- module~foodie_integrator_adams_bashforth&#45;&gt;module~foodie -->
<g id="edge10" class="edge"><title>module~foodie_integrator_adams_bashforth&#45;&gt;module~foodie</title>
<path fill="none" stroke="black" stroke-dasharray="5,2" d="M407.687,-248.249C421.932,-251.975 436.674,-256.583 450,-262.178 462.822,-267.561 476.049,-275.352 487.052,-282.558"/>
<polygon fill="black" stroke="black" points="485.102,-285.464 495.35,-288.154 489.016,-279.661 485.102,-285.464"/>
</g>
<!-- IR_Precision -->
<g id="node22" class="node"><title>IR_Precision</title>
<polygon fill="#337ab7" stroke="#337ab7" points="73,-309.178 1,-309.178 1,-283.178 73,-283.178 73,-309.178"/>
<text text-anchor="middle" x="37" y="-293.728" font-family="Helvetica,sans-Serif" font-size="10.50" fill="white">IR_Precision</text>
</g>
<!-- IR_Precision&#45;&gt;module~foodie_integrator_low_storage_runge_kutta -->
<g id="edge14" class="edge"><title>IR_Precision&#45;&gt;module~foodie_integrator_low_storage_runge_kutta</title>
<path fill="none" stroke="black" stroke-dasharray="5,2" d="M152,-191.178C185.94,-176.114 226.844,-174.44 261.819,-177.228"/>
<polygon fill="black" stroke="black" points="261.709,-180.733 271.99,-178.176 262.358,-173.763 261.709,-180.733"/>
</g>
<!-- IR_Precision&#45;&gt;module~type_lorenz -->
<g id="edge18" class="edge"><title>IR_Precision&#45;&gt;module~type_lorenz</title>
<path fill="none" stroke="black" stroke-dasharray="5,2" d="M513,-462.178C552.425,-460.25 597.345,-460.449 629.702,-461.015"/>
<polygon fill="black" stroke="black" points="629.676,-464.515 639.742,-461.21 629.812,-457.517 629.676,-464.515"/>
</g>
<!-- IR_Precision&#45;&gt;module~type_burgers -->
<g id="edge22" class="edge"><title>IR_Precision&#45;&gt;module~type_burgers</title>
<path fill="none" stroke="black" stroke-dasharray="5,2" d="M152,-405.178C306.232,-456.135 350.74,-469.647 513,-462.178"/>
<path fill="none" stroke="black" stroke-dasharray="5,2" d="M513,-462.178C550.125,-460.363 546.448,-429.722 576,-407.178 597.959,-390.427 624.077,-373.228 643.825,-360.733"/>
<polygon fill="black" stroke="black" points="645.805,-363.623 652.413,-355.341 642.083,-357.694 645.805,-363.623"/>
</g>
<!-- IR_Precision&#45;&gt;module~type_euler_1d -->
<g id="edge26" class="edge"><title>IR_Precision&#45;&gt;module~type_euler_1d</title>
<path fill="none" stroke="black" stroke-dasharray="5,2" d="M340,-93.1781C412.051,-66.3361 436.111,-93.1781 513,-93.1781"/>
<path fill="none" stroke="black" stroke-dasharray="5,2" d="M513,-93.1781C524.105,-93.1781 580.114,-78.3404 622.982,-66.517"/>
<polygon fill="black" stroke="black" points="624.029,-69.8588 632.733,-63.8174 622.162,-63.1126 624.029,-69.8588"/>
</g>
<!-- IR_Precision&#45;&gt;module~type_integrand -->
<g id="edge32" class="edge"><title>IR_Precision&#45;&gt;module~type_integrand</title>
<path fill="none" stroke="black" stroke-dasharray="5,2" d="M73.7029,-296.178C81.9237,-296.178 90.8,-296.178 99.521,-296.178"/>
<polygon fill="black" stroke="black" points="99.6389,-299.678 109.639,-296.178 99.6388,-292.678 99.6389,-299.678"/>
</g>
<!-- IR_Precision&#45;&gt;module~foodie_integrator_euler_explicit -->
<g id="edge34" class="edge"><title>IR_Precision&#45;&gt;module~foodie_integrator_euler_explicit</title>
<path fill="none" stroke="black" stroke-dasharray="5,2" d="M152,-405.178C182.482,-415.249 217.292,-417.581 248.605,-416.635"/>
<polygon fill="black" stroke="black" points="248.793,-420.13 258.639,-416.218 248.502,-413.136 248.793,-420.13"/>
</g>
<!-- IR_Precision&#45;&gt;module~foodie_integrator_tvd_runge_kutta -->
<g id="edge38" class="edge"><title>IR_Precision&#45;&gt;module~foodie_integrator_tvd_runge_kutta</title>
<path fill="none" stroke="black" stroke-dasharray="5,2" d="M152,-405.178C186.201,-416.478 194.981,-391.605 230,-383.178 239.901,-380.796 250.346,-378.468 260.701,-376.274"/>
<polygon fill="black" stroke="black" points="261.506,-379.681 270.58,-374.212 260.076,-372.829 261.506,-379.681"/>
</g>
<!-- IR_Precision&#45;&gt;module~foodie_integrator_leapfrog -->
<g id="edge42" class="edge"><title>IR_Precision&#45;&gt;module~foodie_integrator_leapfrog</title>
<path fill="none" stroke="black" stroke-dasharray="5,2" d="M45.0521,-309.316C61.4134,-334.472 101.328,-388.437 152,-405.178"/>
<path fill="none" stroke="black" stroke-dasharray="5,2" d="M152,-405.178C195.119,-419.424 189.106,-358.924 230,-339.178 239.601,-334.543 250.125,-330.883 260.74,-327.995"/>
<polygon fill="black" stroke="black" points="261.639,-331.378 270.489,-325.554 259.938,-324.588 261.639,-331.378"/>
</g>
<!-- IR_Precision&#45;&gt;module~type_oscillation -->
<g id="edge46" class="edge"><title>IR_Precision&#45;&gt;module~type_oscillation</title>
<path fill="none" stroke="black" stroke-dasharray="5,2" d="M513,-93.1781C523.971,-93.1781 578.771,-107.66 621.427,-119.411"/>
<polygon fill="black" stroke="black" points="620.576,-122.807 631.147,-122.099 622.442,-116.06 620.576,-122.807"/>
</g>
<!-- IR_Precision&#45;&gt;module~foodie_integrator_adams_bashforth -->
<g id="edge50" class="edge"><title>IR_Precision&#45;&gt;module~foodie_integrator_adams_bashforth</title>
<path fill="none" stroke="black" stroke-dasharray="5,2" d="M152,-191.178C184.922,-176.566 194.981,-204.751 230,-213.178 239.901,-215.561 250.346,-217.888 260.701,-220.083"/>
<polygon fill="black" stroke="black" points="260.076,-223.528 270.58,-222.144 261.506,-216.675 260.076,-223.528"/>
</g>
<!-- IR_Precision&#45;&gt;program~integrate_lorenz -->
<g id="edge54" class="edge"><title>IR_Precision&#45;&gt;program~integrate_lorenz</title>
<path fill="none" stroke="black" stroke-dasharray="5,2" d="M513,-462.178C542.598,-460.288 546.759,-479.219 576,-484.178 661.885,-498.743 692.512,-519.815 772,-484.178 807.947,-468.062 835.426,-429.705 850.101,-405.171"/>
<polygon fill="black" stroke="black" points="853.3,-406.628 855.258,-396.216 847.234,-403.135 853.3,-406.628"/>
</g>
<!-- IR_Precision&#45;&gt;program~integrate_oscillation -->
<g id="edge64" class="edge"><title>IR_Precision&#45;&gt;program~integrate_oscillation</title>
<path fill="none" stroke="black" stroke-dasharray="5,2" d="M513,-93.1781C628.42,-93.1781 668.666,-60.7581 772,-112.178 793.71,-122.981 788.243,-139.117 808,-153.178 810.093,-154.668 812.301,-156.078 814.582,-157.41"/>
<polygon fill="black" stroke="black" points="813.163,-160.618 823.644,-162.164 816.415,-154.419 813.163,-160.618"/>
</g>
<!-- IR_Precision&#45;&gt;program~integrate_burgers -->
<g id="edge74" class="edge"><title>IR_Precision&#45;&gt;program~integrate_burgers</title>
<path fill="none" stroke="black" stroke-dasharray="5,2" d="M513,-462.178C520.683,-461.802 765.199,-367.773 772,-364.178 795.62,-351.694 820.338,-334.009 837.88,-320.553"/>
<polygon fill="black" stroke="black" points="840.137,-323.232 845.879,-314.328 835.838,-317.708 840.137,-323.232"/>
</g>
<!-- IR_Precision&#45;&gt;program~integrate_euler_1d -->
<g id="edge84" class="edge"><title>IR_Precision&#45;&gt;program~integrate_euler_1d</title>
<path fill="none" stroke="black" stroke-dasharray="5,2" d="M46.6279,-282.995C64.4442,-259.761 105.049,-212.016 152,-191.178"/>
<path fill="none" stroke="black" stroke-dasharray="5,2" d="M152,-191.178C238.125,-152.953 251.702,-126.073 340,-93.1781"/>
<path fill="none" stroke="black" stroke-dasharray="5,2" d="M340,-93.1781C406.226,-68.5063 416.789,-44.4736 486,-30.1781 610.483,-4.46621 656.012,21.8225 772,-30.1781 807.947,-46.2943 835.426,-84.6511 850.101,-109.185"/>
<polygon fill="black" stroke="black" points="847.234,-111.221 855.258,-118.14 853.3,-107.728 847.234,-111.221"/>
</g>
<!-- wenoof -->
<g id="node30" class="node"><title>wenoof</title>
<polygon fill="#337ab7" stroke="#337ab7" points="540,-65.1781 486,-65.1781 486,-39.1781 540,-39.1781 540,-65.1781"/>
<text text-anchor="middle" x="513" y="-49.7281" font-family="Helvetica,sans-Serif" font-size="10.50" fill="white">wenoof</text>
</g>
<!-- wenoof&#45;&gt;module~type_euler_1d -->
<g id="edge28" class="edge"><title>wenoof&#45;&gt;module~type_euler_1d</title>
<path fill="none" stroke="black" stroke-dasharray="5,2" d="M540.311,-52.1781C562.825,-52.1781 595.384,-52.1781 622.733,-52.1781"/>
<polygon fill="black" stroke="black" points="622.929,-55.6782 632.929,-52.1781 622.929,-48.6782 622.929,-55.6782"/>
</g>
<!-- Data_Type_Command_Line_Interface -->
<g id="node46" class="node"><title>Data_Type_Command_Line_Interface</title>
<polygon fill="#337ab7" stroke="#337ab7" points="771,-273.178 577,-273.178 577,-247.178 771,-247.178 771,-273.178"/>
<text text-anchor="middle" x="674" y="-257.728" font-family="Helvetica,sans-Serif" font-size="10.50" fill="white">Data_Type_Command_Line_Interface</text>
</g>
<!-- Data_Type_Command_Line_Interface&#45;&gt;program~integrate_lorenz -->
<g id="edge58" class="edge"><title>Data_Type_Command_Line_Interface&#45;&gt;program~integrate_lorenz</title>
<path fill="none" stroke="black" stroke-dasharray="5,2" d="M696.429,-273.377C716.451,-285.285 746.47,-303.45 772,-320.178 793.798,-334.461 817.967,-351.445 835.766,-364.178"/>
<polygon fill="black" stroke="black" points="833.789,-367.067 843.953,-370.056 837.871,-361.381 833.789,-367.067"/>
</g>
<!-- Data_Type_Command_Line_Interface&#45;&gt;program~integrate_oscillation -->
<g id="edge68" class="edge"><title>Data_Type_Command_Line_Interface&#45;&gt;program~integrate_oscillation</title>
<path fill="none" stroke="black" stroke-dasharray="5,2" d="M747.012,-247.133C755.597,-244.625 764.104,-241.664 772,-238.178 796.89,-227.189 821.988,-208.884 839.333,-194.829"/>
<polygon fill="black" stroke="black" points="841.721,-197.396 847.19,-188.321 837.256,-192.005 841.721,-197.396"/>
</g>
<!-- Data_Type_Command_Line_Interface&#45;&gt;program~integrate_burgers -->
<g id="edge78" class="edge"><title>Data_Type_Command_Line_Interface&#45;&gt;program~integrate_burgers</title>
<path fill="none" stroke="black" stroke-dasharray="5,2" d="M733.743,-273.207C756.027,-278.067 781.286,-283.576 803.461,-288.412"/>
<polygon fill="black" stroke="black" points="802.894,-291.87 813.41,-290.581 804.386,-285.031 802.894,-291.87"/>
</g>
<!-- Data_Type_Command_Line_Interface&#45;&gt;program~integrate_euler_1d -->
<g id="edge88" class="edge"><title>Data_Type_Command_Line_Interface&#45;&gt;program~integrate_euler_1d</title>
<path fill="none" stroke="black" stroke-dasharray="5,2" d="M758.419,-247.095C763.268,-244.589 767.85,-241.642 772,-238.178 803.497,-211.89 778.791,-181.988 808,-153.178 809.104,-152.09 810.268,-151.053 811.483,-150.065"/>
<polygon fill="black" stroke="black" points="813.78,-152.736 820.105,-144.236 809.86,-146.937 813.78,-152.736"/>
</g>
<!-- pyplot_module -->
<g id="node48" class="node"><title>pyplot_module</title>
<polygon fill="#337ab7" stroke="#337ab7" points="715,-229.178 633,-229.178 633,-203.178 715,-203.178 715,-229.178"/>
<text text-anchor="middle" x="674" y="-213.728" font-family="Helvetica,sans-Serif" font-size="10.50" fill="white">pyplot_module</text>
</g>
<!-- pyplot_module&#45;&gt;program~integrate_lorenz -->
<g id="edge60" class="edge"><title>pyplot_module&#45;&gt;program~integrate_lorenz</title>
<path fill="none" stroke="black" stroke-dasharray="5,2" d="M715.448,-217.03C734.521,-219.387 756.337,-225.105 772,-238.178 803.497,-264.467 785.974,-288.566 808,-323.178 817.17,-337.588 829.847,-351.876 840.615,-362.893"/>
<polygon fill="black" stroke="black" points="838.146,-365.373 847.697,-369.958 843.089,-360.418 838.146,-365.373"/>
</g>
<!-- pyplot_module&#45;&gt;program~integrate_oscillation -->
<g id="edge70" class="edge"><title>pyplot_module&#45;&gt;program~integrate_oscillation</title>
<path fill="none" stroke="black" stroke-dasharray="5,2" d="M715.257,-207.181C739.613,-201.869 770.952,-195.034 798.411,-189.046"/>
<polygon fill="black" stroke="black" points="799.308,-192.433 808.332,-186.882 797.816,-185.594 799.308,-192.433"/>
</g>
<!-- pyplot_module&#45;&gt;program~integrate_burgers -->
<g id="edge80" class="edge"><title>pyplot_module&#45;&gt;program~integrate_burgers</title>
<path fill="none" stroke="black" stroke-dasharray="5,2" d="M715.181,-221.742C733.143,-225.093 754.134,-230.29 772,-238.178 796.89,-249.168 821.988,-267.473 839.333,-281.527"/>
<polygon fill="black" stroke="black" points="837.256,-284.352 847.19,-288.035 841.721,-278.961 837.256,-284.352"/>
</g>
<!-- pyplot_module&#45;&gt;program~integrate_euler_1d -->
<g id="edge90" class="edge"><title>pyplot_module&#45;&gt;program~integrate_euler_1d</title>
<path fill="none" stroke="black" stroke-dasharray="5,2" d="M715.44,-209.706C733.651,-205.646 754.765,-199.21 772,-189.178 791.556,-177.795 789.149,-165.694 808,-153.178 810.372,-151.603 812.874,-150.109 815.45,-148.696"/>
<polygon fill="black" stroke="black" points="817.033,-151.818 824.407,-144.211 813.898,-145.559 817.033,-151.818"/>
</g>
</g>
</svg>
