<?xml version="1.0" encoding="UTF-8" standalone="no"?>
<!DOCTYPE svg PUBLIC "-//W3C//DTD SVG 1.1//EN"
 "http://www.w3.org/Graphics/SVG/1.1/DTD/svg11.dtd">
<!-- Generated by graphviz version 2.26.3 (20100126.1600)
 -->
<!-- Title: module~~foodie_integrator_adams_bashforth~~UsedByGraph Pages: 1 -->
<svg width="548pt" height="268pt"
 viewBox="0.00 0.00 548.00 268.01" xmlns="http://www.w3.org/2000/svg" xmlns:xlink="http://www.w3.org/1999/xlink">
<g id="graph1" class="graph" transform="scale(1 1) rotate(0) translate(4 264.012)">
<title>module~~foodie_integrator_adams_bashforth~~UsedByGraph</title>
<polygon fill="white" stroke="white" points="-4,5 -4,-264.012 545,-264.012 545,5 -4,5"/>
<!-- module~foodie_integrator_adams_bashforth -->
<g id="node1" class="node"><title>module~foodie_integrator_adams_bashforth</title>
<polygon fill="none" stroke="black" points="183,-137.012 1,-137.012 1,-111.012 183,-111.012 183,-137.012"/>
<text text-anchor="middle" x="92" y="-121.562" font-family="Helvetica,sans-Serif" font-size="10.50">foodie_integrator_adams_bashforth</text>
</g>
<!-- module~foodie -->
<g id="node2" class="node"><title>module~foodie</title>
<a xlink:href="../module/foodie.html" xlink:title="foodie">
<polygon fill="#337ab7" stroke="#337ab7" points="274,-137.012 220,-137.012 220,-111.012 274,-111.012 274,-137.012"/>
<text text-anchor="middle" x="247" y="-121.562" font-family="Helvetica,sans-Serif" font-size="10.50" fill="white">foodie</text>
</a>
</g>
<!-- module~foodie_integrator_adams_bashforth&#45;&gt;module~foodie -->
<g id="edge26" class="edge"><title>module~foodie_integrator_adams_bashforth&#45;&gt;module~foodie</title>
<path fill="none" stroke="black" stroke-dasharray="5,2" d="M183.508,-124.012C192.714,-124.012 201.647,-124.012 209.764,-124.012"/>
<polygon fill="black" stroke="black" points="209.919,-127.512 219.919,-124.012 209.919,-120.512 209.919,-127.512"/>
</g>
<!-- module~type_euler_1d -->
<g id="node3" class="node"><title>module~type_euler_1d</title>
<a xlink:href="../module/type_euler_1d.html" xlink:title="type_euler_1D">
<polygon fill="#337ab7" stroke="#337ab7" points="394,-260.012 312,-260.012 312,-234.012 394,-234.012 394,-260.012"/>
<text text-anchor="middle" x="353" y="-244.562" font-family="Helvetica,sans-Serif" font-size="10.50" fill="white">type_euler_1D</text>
</a>
</g>
<!-- module~foodie&#45;&gt;module~type_euler_1d -->
<g id="edge10" class="edge"><title>module~foodie&#45;&gt;module~type_euler_1d</title>
<path fill="none" stroke="black" stroke-dasharray="5,2" d="M253.254,-137.073C263.178,-156.808 284.089,-194.616 310,-220.012 312.892,-222.846 316.131,-225.533 319.498,-228.034"/>
<polygon fill="black" stroke="black" points="317.779,-231.098 328.012,-233.844 321.726,-225.316 317.779,-231.098"/>
</g>
<!-- module~type_burgers -->
<g id="node4" class="node"><title>module~type_burgers</title>
<a xlink:href="../module/type_burgers.html" xlink:title="type_burgers">
<polygon fill="#337ab7" stroke="#337ab7" points="391,-178.012 315,-178.012 315,-152.012 391,-152.012 391,-178.012"/>
<text text-anchor="middle" x="353" y="-162.562" font-family="Helvetica,sans-Serif" font-size="10.50" fill="white">type_burgers</text>
</a>
</g>
<!-- module~foodie&#45;&gt;module~type_burgers -->
<g id="edge12" class="edge"><title>module~foodie&#45;&gt;module~type_burgers</title>
<path fill="none" stroke="black" stroke-dasharray="5,2" d="M274.023,-134.464C284.864,-138.658 297.632,-143.596 309.705,-148.266"/>
<polygon fill="black" stroke="black" points="308.598,-151.59 319.188,-151.934 311.124,-145.062 308.598,-151.59"/>
</g>
<!-- program~integrate_burgers -->
<g id="node5" class="node"><title>program~integrate_burgers</title>
<a xlink:href="../program/integrate_burgers.html" xlink:title="integrate_burgers">
<polygon fill="#f0ad4e" stroke="#f0ad4e" points="534,-140.012 438,-140.012 438,-114.012 534,-114.012 534,-140.012"/>
<text text-anchor="middle" x="486" y="-124.562" font-family="Helvetica,sans-Serif" font-size="10.50" fill="white">integrate_burgers</text>
</a>
</g>
<!-- module~foodie&#45;&gt;program~integrate_burgers -->
<g id="edge14" class="edge"><title>module~foodie&#45;&gt;program~integrate_burgers</title>
<path fill="none" stroke="black" stroke-dasharray="5,2" d="M353,-124.012C377.283,-122.286 404.116,-122.49 427.283,-123.327"/>
<polygon fill="black" stroke="black" points="427.172,-126.826 437.307,-123.736 427.458,-119.831 427.172,-126.826"/>
</g>
<!-- program~integrate_oscillation -->
<g id="node6" class="node"><title>program~integrate_oscillation</title>
<a xlink:href="../program/integrate_oscillation.html" xlink:title="integrate_oscillation">
<polygon fill="#f0ad4e" stroke="#f0ad4e" points="539,-96.012 433,-96.012 433,-70.012 539,-70.012 539,-96.012"/>
<text text-anchor="middle" x="486" y="-80.562" font-family="Helvetica,sans-Serif" font-size="10.50" fill="white">integrate_oscillation</text>
</a>
</g>
<!-- module~foodie&#45;&gt;program~integrate_oscillation -->
<g id="edge16" class="edge"><title>module~foodie&#45;&gt;program~integrate_oscillation</title>
<path fill="none" stroke="black" stroke-dasharray="5,2" d="M274.049,-125.067C295.491,-125.649 326.2,-125.917 353,-124.012"/>
<path fill="none" stroke="black" stroke-dasharray="5,2" d="M353,-124.012C370.146,-122.793 409.317,-110.265 440.733,-99.3741"/>
<polygon fill="black" stroke="black" points="441.918,-102.668 450.201,-96.0612 439.607,-96.0603 441.918,-102.668"/>
</g>
<!-- module~type_lorenz -->
<g id="node7" class="node"><title>module~type_lorenz</title>
<a xlink:href="../module/type_lorenz.html" xlink:title="type_lorenz">
<polygon fill="#337ab7" stroke="#337ab7" points="387,-52.012 319,-52.012 319,-26.012 387,-26.012 387,-52.012"/>
<text text-anchor="middle" x="353" y="-36.562" font-family="Helvetica,sans-Serif" font-size="10.50" fill="white">type_lorenz</text>
</a>
</g>
<!-- module~foodie&#45;&gt;module~type_lorenz -->
<g id="edge18" class="edge"><title>module~foodie&#45;&gt;module~type_lorenz</title>
<path fill="none" stroke="black" stroke-dasharray="5,2" d="M257.831,-110.984C269.648,-97.3327 289.615,-75.8487 310,-61.012 311.627,-59.8277 313.327,-58.6721 315.072,-57.5502"/>
<polygon fill="black" stroke="black" points="317.216,-60.3487 324.041,-52.2452 313.652,-54.3237 317.216,-60.3487"/>
</g>
<!-- program~integrate_euler_1d -->
<g id="node8" class="node"><title>program~integrate_euler_1d</title>
<a xlink:href="../program/integrate_euler_1d.html" xlink:title="integrate_euler_1D">
<polygon fill="#f0ad4e" stroke="#f0ad4e" points="538,-239.012 434,-239.012 434,-213.012 538,-213.012 538,-239.012"/>
<text text-anchor="middle" x="486" y="-223.562" font-family="Helvetica,sans-Serif" font-size="10.50" fill="white">integrate_euler_1D</text>
</a>
</g>
<!-- module~foodie&#45;&gt;program~integrate_euler_1d -->
<g id="edge20" class="edge"><title>module~foodie&#45;&gt;program~integrate_euler_1d</title>
<path fill="none" stroke="black" stroke-dasharray="5,2" d="M256.337,-137.056C267.443,-151.564 287.352,-174.588 310,-187.012 344.839,-206.123 388.413,-215.871 423.487,-220.842"/>
<polygon fill="black" stroke="black" points="423.237,-224.339 433.609,-222.178 424.154,-217.399 423.237,-224.339"/>
</g>
<!-- module~type_oscillation -->
<g id="node9" class="node"><title>module~type_oscillation</title>
<a xlink:href="../module/type_oscillation.html" xlink:title="type_oscillation">
<polygon fill="#337ab7" stroke="#337ab7" points="395,-96.012 311,-96.012 311,-70.012 395,-70.012 395,-96.012"/>
<text text-anchor="middle" x="353" y="-80.562" font-family="Helvetica,sans-Serif" font-size="10.50" fill="white">type_oscillation</text>
</a>
</g>
<!-- module~foodie&#45;&gt;module~type_oscillation -->
<g id="edge22" class="edge"><title>module~foodie&#45;&gt;module~type_oscillation</title>
<path fill="none" stroke="black" stroke-dasharray="5,2" d="M274.023,-113.56C284.864,-109.366 297.632,-104.428 309.705,-99.7582"/>
<polygon fill="black" stroke="black" points="311.124,-102.962 319.188,-96.0904 308.598,-96.4336 311.124,-102.962"/>
</g>
<!-- program~integrate_lorenz -->
<g id="node10" class="node"><title>program~integrate_lorenz</title>
<a xlink:href="../program/integrate_lorenz.html" xlink:title="integrate_lorenz">
<polygon fill="#f0ad4e" stroke="#f0ad4e" points="531,-32.012 441,-32.012 441,-6.01202 531,-6.01202 531,-32.012"/>
<text text-anchor="middle" x="486" y="-16.562" font-family="Helvetica,sans-Serif" font-size="10.50" fill="white">integrate_lorenz</text>
</a>
</g>
<!-- module~foodie&#45;&gt;program~integrate_lorenz -->
<g id="edge24" class="edge"><title>module~foodie&#45;&gt;program~integrate_lorenz</title>
<path fill="none" stroke="black" stroke-dasharray="5,2" d="M250.209,-110.773C256.779,-86.9512 274.255,-37.4468 310,-17.012 346.373,3.78159 394.27,1.72807 430.913,-4.66413"/>
<polygon fill="black" stroke="black" points="430.454,-8.13934 440.931,-6.56673 431.76,-1.26227 430.454,-8.13934"/>
</g>
<!-- module~type_euler_1d&#45;&gt;program~integrate_euler_1d -->
<g id="edge2" class="edge"><title>module~type_euler_1d&#45;&gt;program~integrate_euler_1d</title>
<path fill="none" stroke="black" stroke-dasharray="5,2" d="M394.353,-240.483C403.732,-239.002 413.894,-237.397 423.922,-235.814"/>
<polygon fill="black" stroke="black" points="424.539,-239.26 433.87,-234.243 423.447,-232.346 424.539,-239.26"/>
</g>
<!-- module~type_burgers&#45;&gt;program~integrate_burgers -->
<g id="edge4" class="edge"><title>module~type_burgers&#45;&gt;program~integrate_burgers</title>
<path fill="none" stroke="black" stroke-dasharray="5,2" d="M391.112,-154.123C403.346,-150.627 417.158,-146.681 430.38,-142.904"/>
<polygon fill="black" stroke="black" points="431.686,-146.171 440.339,-140.058 429.763,-139.44 431.686,-146.171"/>
</g>
<!-- module~type_lorenz&#45;&gt;program~integrate_lorenz -->
<g id="edge6" class="edge"><title>module~type_lorenz&#45;&gt;program~integrate_lorenz</title>
<path fill="none" stroke="black" stroke-dasharray="5,2" d="M387.251,-33.8615C400.508,-31.8679 416.022,-29.535 430.774,-27.3167"/>
<polygon fill="black" stroke="black" points="431.459,-30.7531 440.827,-25.8049 430.418,-23.8309 431.459,-30.7531"/>
</g>
<!-- module~type_oscillation&#45;&gt;program~integrate_oscillation -->
<g id="edge8" class="edge"><title>module~type_oscillation&#45;&gt;program~integrate_oscillation</title>
<path fill="none" stroke="black" stroke-dasharray="5,2" d="M395.814,-83.012C404.11,-83.012 412.972,-83.012 421.781,-83.012"/>
<polygon fill="black" stroke="black" points="422.06,-86.5121 432.06,-83.012 422.06,-79.5121 422.06,-86.5121"/>
</g>
</g>
</svg>
