<?xml version="1.0" encoding="UTF-8" standalone="no"?>
<!DOCTYPE svg PUBLIC "-//W3C//DTD SVG 1.1//EN"
 "http://www.w3.org/Graphics/SVG/1.1/DTD/svg11.dtd">
<!-- Generated by graphviz version 2.26.3 (20100126.1600)
 -->
<!-- Title: module~~foodie_integrator_low_storage_runge_kutta~~UsedByGraph Pages: 1 -->
<svg width="584pt" height="268pt"
 viewBox="0.00 0.00 584.00 267.97" xmlns="http://www.w3.org/2000/svg" xmlns:xlink="http://www.w3.org/1999/xlink">
<g id="graph1" class="graph" transform="scale(1 1) rotate(0) translate(4 263.974)">
<title>module~~foodie_integrator_low_storage_runge_kutta~~UsedByGraph</title>
<polygon fill="white" stroke="white" points="-4,5 -4,-263.974 581,-263.974 581,5 -4,5"/>
<!-- module~foodie_integrator_low_storage_runge_kutta -->
<g id="node1" class="node"><title>module~foodie_integrator_low_storage_runge_kutta</title>
<polygon fill="none" stroke="black" points="220,-149 8.52651e-14,-149 0,-123 220,-123 220,-149"/>
<text text-anchor="middle" x="110" y="-133.55" font-family="Helvetica,sans-Serif" font-size="10.50">foodie_integrator_low_storage_runge_kutta</text>
</g>
<!-- module~foodie -->
<g id="node2" class="node"><title>module~foodie</title>
<a xlink:href="../module/foodie.html" xlink:title="foodie">
<polygon fill="#337ab7" stroke="#337ab7" points="310,-149 256,-149 256,-123 310,-123 310,-149"/>
<text text-anchor="middle" x="283" y="-133.55" font-family="Helvetica,sans-Serif" font-size="10.50" fill="white">foodie</text>
</a>
</g>
<!-- module~foodie_integrator_low_storage_runge_kutta&#45;&gt;module~foodie -->
<g id="edge26" class="edge"><title>module~foodie_integrator_low_storage_runge_kutta&#45;&gt;module~foodie</title>
<path fill="none" stroke="black" stroke-dasharray="5,2" d="M220.054,-136C229.125,-136 237.822,-136 245.703,-136"/>
<polygon fill="black" stroke="black" points="245.902,-139.5 255.902,-136 245.902,-132.5 245.902,-139.5"/>
</g>
<!-- program~integrate_euler_1d -->
<g id="node3" class="node"><title>program~integrate_euler_1d</title>
<a xlink:href="../program/integrate_euler_1d.html" xlink:title="integrate_euler_1D">
<polygon fill="#f0ad4e" stroke="#f0ad4e" points="574,-254 470,-254 470,-228 574,-228 574,-254"/>
<text text-anchor="middle" x="522" y="-238.55" font-family="Helvetica,sans-Serif" font-size="10.50" fill="white">integrate_euler_1D</text>
</a>
</g>
<!-- module~foodie&#45;&gt;program~integrate_euler_1d -->
<g id="edge10" class="edge"><title>module~foodie&#45;&gt;program~integrate_euler_1d</title>
<path fill="none" stroke="black" stroke-dasharray="5,2" d="M286.209,-149.239C292.779,-173.061 310.255,-222.565 346,-243 381.403,-263.239 427.724,-261.833 463.958,-255.85"/>
<polygon fill="black" stroke="black" points="464.675,-259.277 473.893,-254.055 463.43,-252.388 464.675,-259.277"/>
</g>
<!-- module~type_lorenz -->
<g id="node4" class="node"><title>module~type_lorenz</title>
<a xlink:href="../module/type_lorenz.html" xlink:title="type_lorenz">
<polygon fill="#337ab7" stroke="#337ab7" points="423,-190 355,-190 355,-164 423,-164 423,-190"/>
<text text-anchor="middle" x="389" y="-174.55" font-family="Helvetica,sans-Serif" font-size="10.50" fill="white">type_lorenz</text>
</a>
</g>
<!-- module~foodie&#45;&gt;module~type_lorenz -->
<g id="edge12" class="edge"><title>module~foodie&#45;&gt;module~type_lorenz</title>
<path fill="none" stroke="black" stroke-dasharray="5,2" d="M310.023,-146.452C320.864,-150.646 333.632,-155.584 345.705,-160.254"/>
<polygon fill="black" stroke="black" points="344.598,-163.578 355.188,-163.922 347.124,-157.05 344.598,-163.578"/>
</g>
<!-- program~integrate_lorenz -->
<g id="node5" class="node"><title>program~integrate_lorenz</title>
<a xlink:href="../program/integrate_lorenz.html" xlink:title="integrate_lorenz">
<polygon fill="#f0ad4e" stroke="#f0ad4e" points="567,-152 477,-152 477,-126 567,-126 567,-152"/>
<text text-anchor="middle" x="522" y="-136.55" font-family="Helvetica,sans-Serif" font-size="10.50" fill="white">integrate_lorenz</text>
</a>
</g>
<!-- module~foodie&#45;&gt;program~integrate_lorenz -->
<g id="edge14" class="edge"><title>module~foodie&#45;&gt;program~integrate_lorenz</title>
<path fill="none" stroke="black" stroke-dasharray="5,2" d="M389,-136C414.386,-134.196 442.56,-134.501 466.419,-135.433"/>
<polygon fill="black" stroke="black" points="466.56,-138.943 476.704,-135.884 466.866,-131.949 466.56,-138.943"/>
</g>
<!-- program~integrate_oscillation -->
<g id="node6" class="node"><title>program~integrate_oscillation</title>
<a xlink:href="../program/integrate_oscillation.html" xlink:title="integrate_oscillation">
<polygon fill="#f0ad4e" stroke="#f0ad4e" points="575,-108 469,-108 469,-82 575,-82 575,-108"/>
<text text-anchor="middle" x="522" y="-92.55" font-family="Helvetica,sans-Serif" font-size="10.50" fill="white">integrate_oscillation</text>
</a>
</g>
<!-- module~foodie&#45;&gt;program~integrate_oscillation -->
<g id="edge16" class="edge"><title>module~foodie&#45;&gt;program~integrate_oscillation</title>
<path fill="none" stroke="black" stroke-dasharray="5,2" d="M310.049,-137.055C331.491,-137.637 362.2,-137.905 389,-136"/>
<path fill="none" stroke="black" stroke-dasharray="5,2" d="M389,-136C406.146,-134.781 445.317,-122.253 476.733,-111.362"/>
<polygon fill="black" stroke="black" points="477.918,-114.655 486.201,-108.049 475.607,-108.048 477.918,-114.655"/>
</g>
<!-- module~type_oscillation -->
<g id="node7" class="node"><title>module~type_oscillation</title>
<a xlink:href="../module/type_oscillation.html" xlink:title="type_oscillation">
<polygon fill="#337ab7" stroke="#337ab7" points="431,-108 347,-108 347,-82 431,-82 431,-108"/>
<text text-anchor="middle" x="389" y="-92.55" font-family="Helvetica,sans-Serif" font-size="10.50" fill="white">type_oscillation</text>
</a>
</g>
<!-- module~foodie&#45;&gt;module~type_oscillation -->
<g id="edge18" class="edge"><title>module~foodie&#45;&gt;module~type_oscillation</title>
<path fill="none" stroke="black" stroke-dasharray="5,2" d="M310.023,-125.548C320.864,-121.354 333.632,-116.416 345.705,-111.746"/>
<polygon fill="black" stroke="black" points="347.124,-114.95 355.188,-108.078 344.598,-108.422 347.124,-114.95"/>
</g>
<!-- program~integrate_burgers -->
<g id="node8" class="node"><title>program~integrate_burgers</title>
<a xlink:href="../program/integrate_burgers.html" xlink:title="integrate_burgers">
<polygon fill="#f0ad4e" stroke="#f0ad4e" points="570,-45 474,-45 474,-19 570,-19 570,-45"/>
<text text-anchor="middle" x="522" y="-29.55" font-family="Helvetica,sans-Serif" font-size="10.50" fill="white">integrate_burgers</text>
</a>
</g>
<!-- module~foodie&#45;&gt;program~integrate_burgers -->
<g id="edge20" class="edge"><title>module~foodie&#45;&gt;program~integrate_burgers</title>
<path fill="none" stroke="black" stroke-dasharray="5,2" d="M292.362,-123C303.49,-108.533 323.42,-85.5457 346,-73 382.069,-52.9601 427.529,-42.6897 463.212,-37.44"/>
<polygon fill="black" stroke="black" points="464.045,-40.8584 473.474,-36.0275 463.091,-33.9237 464.045,-40.8584"/>
</g>
<!-- module~type_burgers -->
<g id="node9" class="node"><title>module~type_burgers</title>
<a xlink:href="../module/type_burgers.html" xlink:title="type_burgers">
<polygon fill="#337ab7" stroke="#337ab7" points="427,-26 351,-26 351,-1.24345e-14 427,-3.55271e-15 427,-26"/>
<text text-anchor="middle" x="389" y="-10.55" font-family="Helvetica,sans-Serif" font-size="10.50" fill="white">type_burgers</text>
</a>
</g>
<!-- module~foodie&#45;&gt;module~type_burgers -->
<g id="edge22" class="edge"><title>module~foodie&#45;&gt;module~type_burgers</title>
<path fill="none" stroke="black" stroke-dasharray="5,2" d="M289.254,-122.939C299.178,-103.204 320.089,-65.3964 346,-40 348.892,-37.1655 352.131,-34.4789 355.498,-31.9784"/>
<polygon fill="black" stroke="black" points="357.726,-34.6959 364.012,-26.1677 353.779,-28.9141 357.726,-34.6959"/>
</g>
<!-- module~type_euler_1d -->
<g id="node10" class="node"><title>module~type_euler_1d</title>
<a xlink:href="../module/type_euler_1d.html" xlink:title="type_euler_1D">
<polygon fill="#337ab7" stroke="#337ab7" points="430,-234 348,-234 348,-208 430,-208 430,-234"/>
<text text-anchor="middle" x="389" y="-218.55" font-family="Helvetica,sans-Serif" font-size="10.50" fill="white">type_euler_1D</text>
</a>
</g>
<!-- module~foodie&#45;&gt;module~type_euler_1d -->
<g id="edge24" class="edge"><title>module~foodie&#45;&gt;module~type_euler_1d</title>
<path fill="none" stroke="black" stroke-dasharray="5,2" d="M293.831,-149.028C305.648,-162.679 325.615,-184.163 346,-199 347.627,-200.184 349.327,-201.34 351.072,-202.462"/>
<polygon fill="black" stroke="black" points="349.652,-205.688 360.041,-207.767 353.216,-199.663 349.652,-205.688"/>
</g>
<!-- module~type_lorenz&#45;&gt;program~integrate_lorenz -->
<g id="edge2" class="edge"><title>module~type_lorenz&#45;&gt;program~integrate_lorenz</title>
<path fill="none" stroke="black" stroke-dasharray="5,2" d="M423.251,-167.214C436.636,-163.39 452.321,-158.908 467.199,-154.657"/>
<polygon fill="black" stroke="black" points="468.174,-158.019 476.827,-151.906 466.251,-151.288 468.174,-158.019"/>
</g>
<!-- module~type_oscillation&#45;&gt;program~integrate_oscillation -->
<g id="edge4" class="edge"><title>module~type_oscillation&#45;&gt;program~integrate_oscillation</title>
<path fill="none" stroke="black" stroke-dasharray="5,2" d="M431.814,-95C440.11,-95 448.972,-95 457.781,-95"/>
<polygon fill="black" stroke="black" points="458.06,-98.5001 468.06,-95 458.06,-91.5001 458.06,-98.5001"/>
</g>
<!-- module~type_burgers&#45;&gt;program~integrate_burgers -->
<g id="edge6" class="edge"><title>module~type_burgers&#45;&gt;program~integrate_burgers</title>
<path fill="none" stroke="black" stroke-dasharray="5,2" d="M427.112,-18.4446C438.387,-20.0552 451.001,-21.8573 463.259,-23.6084"/>
<polygon fill="black" stroke="black" points="463.04,-27.1125 473.434,-25.062 464.03,-20.1829 463.04,-27.1125"/>
</g>
<!-- module~type_euler_1d&#45;&gt;program~integrate_euler_1d -->
<g id="edge8" class="edge"><title>module~type_euler_1d&#45;&gt;program~integrate_euler_1d</title>
<path fill="none" stroke="black" stroke-dasharray="5,2" d="M430.353,-227.218C439.732,-228.629 449.894,-230.157 459.922,-231.665"/>
<polygon fill="black" stroke="black" points="459.461,-235.135 469.87,-233.161 460.502,-228.213 459.461,-235.135"/>
</g>
</g>
</svg>
