<?xml version="1.0" encoding="UTF-8" standalone="no"?>
<!DOCTYPE svg PUBLIC "-//W3C//DTD SVG 1.1//EN"
 "http://www.w3.org/Graphics/SVG/1.1/DTD/svg11.dtd">
<!-- Generated by graphviz version 2.26.3 (20100126.1600)
 -->
<!-- Title: module~~foodie_integrator_leapfrog~~UsesGraph Pages: 1 -->
<svg width="378pt" height="54pt"
 viewBox="0.00 0.00 378.00 54.00" xmlns="http://www.w3.org/2000/svg" xmlns:xlink="http://www.w3.org/1999/xlink">
<g id="graph1" class="graph" transform="scale(1 1) rotate(0) translate(4 50)">
<title>module~~foodie_integrator_leapfrog~~UsesGraph</title>
<polygon fill="white" stroke="white" points="-4,5 -4,-50 375,-50 375,5 -4,5"/>
<!-- module~foodie_integrator_leapfrog -->
<g id="node1" class="node"><title>module~foodie_integrator_leapfrog</title>
<polygon fill="none" stroke="black" points="369,-46 231,-46 231,-20 369,-20 369,-46"/>
<text text-anchor="middle" x="300" y="-30.55" font-family="Helvetica,sans-Serif" font-size="10.50">foodie_integrator_leapfrog</text>
</g>
<!-- IR_Precision -->
<g id="node2" class="node"><title>IR_Precision</title>
<polygon fill="#337ab7" stroke="#337ab7" points="73,-46 1,-46 1,-20 73,-20 73,-46"/>
<text text-anchor="middle" x="37" y="-30.55" font-family="Helvetica,sans-Serif" font-size="10.50" fill="white">IR_Precision</text>
</g>
<!-- IR_Precision&#45;&gt;module~foodie_integrator_leapfrog -->
<g id="edge4" class="edge"><title>IR_Precision&#45;&gt;module~foodie_integrator_leapfrog</title>
<path fill="none" stroke="black" stroke-dasharray="5,2" d="M73.7585,-34.2035C85.3524,-34.5304 98.2102,-34.8385 110,-35 146.02,-35.4933 185.884,-35.2019 219.757,-34.7053"/>
<polygon fill="black" stroke="black" points="220.121,-38.2002 230.066,-34.5453 220.013,-31.201 220.121,-38.2002"/>
</g>
<!-- module~type_integrand -->
<g id="node3" class="node"><title>module~type_integrand</title>
<a xlink:href="../module/type_integrand.html" xlink:title="type_integrand">
<polygon fill="#337ab7" stroke="#337ab7" points="194,-26 110,-26 110,-1.24345e-14 194,-3.55271e-15 194,-26"/>
<text text-anchor="middle" x="152" y="-10.55" font-family="Helvetica,sans-Serif" font-size="10.50" fill="white">type_integrand</text>
</a>
</g>
<!-- IR_Precision&#45;&gt;module~type_integrand -->
<g id="edge2" class="edge"><title>IR_Precision&#45;&gt;module~type_integrand</title>
<path fill="none" stroke="black" stroke-dasharray="5,2" d="M73.7029,-26.6169C81.9237,-25.1872 90.8,-23.6435 99.521,-22.1268"/>
<polygon fill="black" stroke="black" points="100.386,-25.5289 109.639,-20.3672 99.187,-18.6324 100.386,-25.5289"/>
</g>
<!-- module~type_integrand&#45;&gt;module~foodie_integrator_leapfrog -->
<g id="edge6" class="edge"><title>module~type_integrand&#45;&gt;module~foodie_integrator_leapfrog</title>
<path fill="none" stroke="black" stroke-dasharray="5,2" d="M194.015,-18.6777C202.362,-19.8057 211.381,-21.0245 220.513,-22.2585"/>
<polygon fill="black" stroke="black" points="220.06,-25.729 230.439,-23.5998 220.997,-18.7921 220.06,-25.729"/>
</g>
</g>
</svg>
