<?xml version="1.0" encoding="UTF-8" standalone="no"?>
<!DOCTYPE svg PUBLIC "-//W3C//DTD SVG 1.1//EN"
 "http://www.w3.org/Graphics/SVG/1.1/DTD/svg11.dtd">
<!-- Generated by graphviz version 2.38.0 (20140413.2041)
 -->
<!-- Title: module~~foodie_integrator_euler_explicit~~UsedByGraph Pages: 1 -->
<svg width="524pt" height="234pt"
 viewBox="0.00 0.00 524.00 234.00" xmlns="http://www.w3.org/2000/svg" xmlns:xlink="http://www.w3.org/1999/xlink">
<g id="graph0" class="graph" transform="scale(1 1) rotate(0) translate(4 230)">
<title>module~~foodie_integrator_euler_explicit~~UsedByGraph</title>
<polygon fill="white" stroke="none" points="-4,4 -4,-230 520,-230 520,4 -4,4"/>
<!-- module~foodie_integrator_euler_explicit -->
<g id="node1" class="node"><title>module~foodie_integrator_euler_explicit</title>
<polygon fill="none" stroke="black" points="162,-125 0,-125 0,-101 162,-101 162,-125"/>
<text text-anchor="middle" x="81" y="-110.6" font-family="Helvetica,sans-Serif" font-size="10.50">foodie_integrator_euler_explicit</text>
</g>
<!-- module~foodie -->
<g id="node2" class="node"><title>module~foodie</title>
<g id="a_node2"><a xlink:href="../module/foodie.html" xlink:title="foodie">
<polygon fill="#337ab7" stroke="#337ab7" points="252,-125 198,-125 198,-101 252,-101 252,-125"/>
<text text-anchor="middle" x="225" y="-110.6" font-family="Helvetica,sans-Serif" font-size="10.50" fill="white">foodie</text>
</a>
</g>
</g>
<!-- module~foodie_integrator_euler_explicit&#45;&gt;module~foodie -->
<g id="edge11" class="edge"><title>module~foodie_integrator_euler_explicit&#45;&gt;module~foodie</title>
<path fill="none" stroke="black" stroke-dasharray="5,2" d="M162.13,-113C170.953,-113 179.585,-113 187.468,-113"/>
<polygon fill="black" stroke="black" points="187.702,-116.5 197.701,-113 187.701,-109.5 187.702,-116.5"/>
</g>
<!-- module~type_burgers -->
<g id="node3" class="node"><title>module~type_burgers</title>
<g id="a_node3"><a xlink:href="../module/type_burgers.html" xlink:title="type_burgers">
<polygon fill="#337ab7" stroke="#337ab7" points="368.5,-226 292.5,-226 292.5,-202 368.5,-202 368.5,-226"/>
<text text-anchor="middle" x="330.5" y="-211.6" font-family="Helvetica,sans-Serif" font-size="10.50" fill="white">type_burgers</text>
</a>
</g>
</g>
<!-- module~foodie&#45;&gt;module~type_burgers -->
<g id="edge4" class="edge"><title>module~foodie&#45;&gt;module~type_burgers</title>
<path fill="none" stroke="black" stroke-dasharray="5,2" d="M234.205,-125.19C245.198,-140.937 265.897,-168.621 288,-188 291.236,-190.838 294.816,-193.57 298.476,-196.127"/>
<polygon fill="black" stroke="black" points="296.758,-199.186 307.039,-201.744 300.597,-193.333 296.758,-199.186"/>
</g>
<!-- program~integrate_lorenz -->
<g id="node4" class="node"><title>program~integrate_lorenz</title>
<g id="a_node4"><a xlink:href="../program/integrate_lorenz.html" xlink:title="integrate_lorenz">
<polygon fill="#f0ad4e" stroke="#f0ad4e" points="507.5,-146 417.5,-146 417.5,-122 507.5,-122 507.5,-146"/>
<text text-anchor="middle" x="462.5" y="-131.6" font-family="Helvetica,sans-Serif" font-size="10.50" fill="white">integrate_lorenz</text>
</a>
</g>
</g>
<!-- module~foodie&#45;&gt;program~integrate_lorenz -->
<g id="edge5" class="edge"><title>module~foodie&#45;&gt;program~integrate_lorenz</title>
<path fill="none" stroke="black" stroke-dasharray="5,2" d="M239.445,-125.11C258.053,-140.821 293.456,-167.044 329.5,-174"/>
<path fill="none" stroke="black" stroke-dasharray="5,2" d="M331.5,-174C340.258,-175.69 383.959,-161.453 418.307,-149.499"/>
<polygon fill="black" stroke="black" points="419.884,-152.655 428.163,-146.044 417.568,-146.05 419.884,-152.655"/>
</g>
<!-- module~type_oscillation -->
<g id="node5" class="node"><title>module~type_oscillation</title>
<g id="a_node5"><a xlink:href="../module/type_oscillation.html" xlink:title="type_oscillation">
<polygon fill="#337ab7" stroke="#337ab7" points="373,-104 288,-104 288,-80 373,-80 373,-104"/>
<text text-anchor="middle" x="330.5" y="-89.6" font-family="Helvetica,sans-Serif" font-size="10.50" fill="white">type_oscillation</text>
</a>
</g>
</g>
<!-- module~foodie&#45;&gt;module~type_oscillation -->
<g id="edge6" class="edge"><title>module~foodie&#45;&gt;module~type_oscillation</title>
<path fill="none" stroke="black" stroke-dasharray="5,2" d="M252.117,-107.701C259.949,-106.112 268.829,-104.31 277.71,-102.508"/>
<polygon fill="black" stroke="black" points="278.578,-105.903 287.682,-100.485 277.186,-99.0432 278.578,-105.903"/>
</g>
<!-- module~type_lorenz -->
<g id="node6" class="node"><title>module~type_lorenz</title>
<g id="a_node6"><a xlink:href="../module/type_lorenz.html" xlink:title="type_lorenz">
<polygon fill="#337ab7" stroke="#337ab7" points="364.5,-146 296.5,-146 296.5,-122 364.5,-122 364.5,-146"/>
<text text-anchor="middle" x="330.5" y="-131.6" font-family="Helvetica,sans-Serif" font-size="10.50" fill="white">type_lorenz</text>
</a>
</g>
</g>
<!-- module~foodie&#45;&gt;module~type_lorenz -->
<g id="edge7" class="edge"><title>module~foodie&#45;&gt;module~type_lorenz</title>
<path fill="none" stroke="black" stroke-dasharray="5,2" d="M252.117,-118.299C262.492,-120.404 274.706,-122.882 286.327,-125.24"/>
<polygon fill="black" stroke="black" points="285.829,-128.71 296.325,-127.269 287.221,-121.85 285.829,-128.71"/>
</g>
<!-- program~integrate_burgers -->
<g id="node7" class="node"><title>program~integrate_burgers</title>
<g id="a_node7"><a xlink:href="../program/integrate_burgers.html" xlink:title="integrate_burgers">
<polygon fill="#f0ad4e" stroke="#f0ad4e" points="511,-188 414,-188 414,-164 511,-164 511,-188"/>
<text text-anchor="middle" x="462.5" y="-173.6" font-family="Helvetica,sans-Serif" font-size="10.50" fill="white">integrate_burgers</text>
</a>
</g>
</g>
<!-- module~foodie&#45;&gt;program~integrate_burgers -->
<g id="edge8" class="edge"><title>module~foodie&#45;&gt;program~integrate_burgers</title>
<path fill="none" stroke="black" stroke-dasharray="5,2" d="M331.5,-174C354.852,-178.506 381.003,-179.642 403.693,-179.419"/>
<polygon fill="black" stroke="black" points="403.92,-182.915 413.853,-179.227 403.788,-175.916 403.92,-182.915"/>
</g>
<!-- program~integrate_oscillation -->
<g id="node8" class="node"><title>program~integrate_oscillation</title>
<g id="a_node8"><a xlink:href="../program/integrate_oscillation.html" xlink:title="integrate_oscillation">
<polygon fill="#f0ad4e" stroke="#f0ad4e" points="516,-84 409,-84 409,-60 516,-60 516,-84"/>
<text text-anchor="middle" x="462.5" y="-69.6" font-family="Helvetica,sans-Serif" font-size="10.50" fill="white">integrate_oscillation</text>
</a>
</g>
</g>
<!-- module~foodie&#45;&gt;program~integrate_oscillation -->
<g id="edge9" class="edge"><title>module~foodie&#45;&gt;program~integrate_oscillation</title>
<path fill="none" stroke="black" stroke-dasharray="5,2" d="M239.029,-100.707C250.792,-90.5164 269.108,-76.7966 288,-71 323.492,-60.1101 365.025,-59.9378 398.555,-62.6874"/>
<polygon fill="black" stroke="black" points="398.408,-66.1886 408.688,-63.6258 399.054,-59.2185 398.408,-66.1886"/>
</g>
<!-- module~type_euler_1d -->
<g id="node9" class="node"><title>module~type_euler_1d</title>
<g id="a_node9"><a xlink:href="../module/type_euler_1d.html" xlink:title="type_euler_1D">
<polygon fill="#337ab7" stroke="#337ab7" points="371.5,-24 289.5,-24 289.5,-0 371.5,-0 371.5,-24"/>
<text text-anchor="middle" x="330.5" y="-9.6" font-family="Helvetica,sans-Serif" font-size="10.50" fill="white">type_euler_1D</text>
</a>
</g>
</g>
<!-- module~foodie&#45;&gt;module~type_euler_1d -->
<g id="edge10" class="edge"><title>module~foodie&#45;&gt;module~type_euler_1d</title>
<path fill="none" stroke="black" stroke-dasharray="5,2" d="M234.205,-100.81C245.198,-85.0631 265.897,-57.3794 288,-38 291.236,-35.1624 294.816,-32.4303 298.476,-29.873"/>
<polygon fill="black" stroke="black" points="300.597,-32.6673 307.039,-24.2556 296.758,-26.8142 300.597,-32.6673"/>
</g>
<!-- module~type_burgers&#45;&gt;program~integrate_burgers -->
<g id="edge1" class="edge"><title>module~type_burgers&#45;&gt;program~integrate_burgers</title>
<path fill="none" stroke="black" stroke-dasharray="5,2" d="M368.753,-203.111C381.673,-199.334 396.394,-195.031 410.242,-190.983"/>
<polygon fill="black" stroke="black" points="411.518,-194.257 420.134,-188.092 409.554,-187.538 411.518,-194.257"/>
</g>
<!-- module~type_oscillation&#45;&gt;program~integrate_oscillation -->
<g id="edge2" class="edge"><title>module~type_oscillation&#45;&gt;program~integrate_oscillation</title>
<path fill="none" stroke="black" stroke-dasharray="5,2" d="M373.348,-85.5618C381.457,-84.3142 390.12,-82.9816 398.729,-81.657"/>
<polygon fill="black" stroke="black" points="399.425,-85.0913 408.776,-80.1113 398.36,-78.1727 399.425,-85.0913"/>
</g>
<!-- module~type_lorenz&#45;&gt;program~integrate_lorenz -->
<g id="edge3" class="edge"><title>module~type_lorenz&#45;&gt;program~integrate_lorenz</title>
<path fill="none" stroke="black" stroke-dasharray="5,2" d="M364.641,-134C377.474,-134 392.508,-134 406.852,-134"/>
<polygon fill="black" stroke="black" points="407.134,-137.5 417.133,-134 407.133,-130.5 407.134,-137.5"/>
</g>
</g>
</svg>
