<?xml version="1.0" encoding="UTF-8" standalone="no"?>
<!DOCTYPE svg PUBLIC "-//W3C//DTD SVG 1.1//EN"
 "http://www.w3.org/Graphics/SVG/1.1/DTD/svg11.dtd">
<!-- Generated by graphviz version 2.26.3 (20100126.1600)
 -->
<!-- Title: module~~foodie_integrator_euler_explicit~~UsedByGraph Pages: 1 -->
<svg width="526pt" height="305pt"
 viewBox="0.00 0.00 526.00 304.93" xmlns="http://www.w3.org/2000/svg" xmlns:xlink="http://www.w3.org/1999/xlink">
<g id="graph1" class="graph" transform="scale(1 1) rotate(0) translate(4 300.927)">
<title>module~~foodie_integrator_euler_explicit~~UsedByGraph</title>
<polygon fill="white" stroke="white" points="-4,5 -4,-300.927 523,-300.927 523,5 -4,5"/>
<!-- module~foodie_integrator_euler_explicit -->
<g id="node1" class="node"><title>module~foodie_integrator_euler_explicit</title>
<polygon fill="none" stroke="black" points="162,-152.927 8.52651e-14,-152.927 0,-126.927 162,-126.927 162,-152.927"/>
<text text-anchor="middle" x="81" y="-137.477" font-family="Helvetica,sans-Serif" font-size="10.50">foodie_integrator_euler_explicit</text>
</g>
<!-- module~foodie -->
<g id="node2" class="node"><title>module~foodie</title>
<a xlink:href="../module/foodie.html" xlink:title="foodie">
<polygon fill="#337ab7" stroke="#337ab7" points="252,-152.927 198,-152.927 198,-126.927 252,-126.927 252,-152.927"/>
<text text-anchor="middle" x="225" y="-137.477" font-family="Helvetica,sans-Serif" font-size="10.50" fill="white">foodie</text>
</a>
</g>
<!-- module~foodie_integrator_euler_explicit&#45;&gt;module~foodie -->
<g id="edge26" class="edge"><title>module~foodie_integrator_euler_explicit&#45;&gt;module~foodie</title>
<path fill="none" stroke="black" stroke-dasharray="5,2" d="M162.258,-139.927C171.03,-139.927 179.616,-139.927 187.482,-139.927"/>
<polygon fill="black" stroke="black" points="187.714,-143.428 197.714,-139.927 187.714,-136.428 187.714,-143.428"/>
</g>
<!-- module~type_oscillation -->
<g id="node3" class="node"><title>module~type_oscillation</title>
<a xlink:href="../module/type_oscillation.html" xlink:title="type_oscillation">
<polygon fill="#337ab7" stroke="#337ab7" points="373,-296.927 289,-296.927 289,-270.927 373,-270.927 373,-296.927"/>
<text text-anchor="middle" x="331" y="-281.477" font-family="Helvetica,sans-Serif" font-size="10.50" fill="white">type_oscillation</text>
</a>
</g>
<!-- module~foodie&#45;&gt;module~type_oscillation -->
<g id="edge10" class="edge"><title>module~foodie&#45;&gt;module~type_oscillation</title>
<path fill="none" stroke="black" stroke-dasharray="5,2" d="M229.566,-153.231C238.07,-176.488 258.214,-225.084 288,-256.927 290.7,-259.814 293.774,-262.518 297.008,-265.015"/>
<polygon fill="black" stroke="black" points="295.051,-267.918 305.252,-270.779 299.062,-262.181 295.051,-267.918"/>
</g>
<!-- module~type_burgers -->
<g id="node4" class="node"><title>module~type_burgers</title>
<a xlink:href="../module/type_burgers.html" xlink:title="type_burgers">
<polygon fill="#337ab7" stroke="#337ab7" points="369,-214.927 293,-214.927 293,-188.927 369,-188.927 369,-214.927"/>
<text text-anchor="middle" x="331" y="-199.477" font-family="Helvetica,sans-Serif" font-size="10.50" fill="white">type_burgers</text>
</a>
</g>
<!-- module~foodie&#45;&gt;module~type_burgers -->
<g id="edge12" class="edge"><title>module~foodie&#45;&gt;module~type_burgers</title>
<path fill="none" stroke="black" stroke-dasharray="5,2" d="M247.48,-153.076C262.658,-161.954 282.901,-173.794 299.657,-183.595"/>
<polygon fill="black" stroke="black" points="298.154,-186.77 308.553,-188.798 301.688,-180.728 298.154,-186.77"/>
</g>
<!-- program~integrate_oscillation -->
<g id="node5" class="node"><title>program~integrate_oscillation</title>
<a xlink:href="../program/integrate_oscillation.html" xlink:title="integrate_oscillation">
<polygon fill="#f0ad4e" stroke="#f0ad4e" points="517,-275.927 411,-275.927 411,-249.927 517,-249.927 517,-275.927"/>
<text text-anchor="middle" x="464" y="-260.477" font-family="Helvetica,sans-Serif" font-size="10.50" fill="white">integrate_oscillation</text>
</a>
</g>
<!-- module~foodie&#45;&gt;program~integrate_oscillation -->
<g id="edge14" class="edge"><title>module~foodie&#45;&gt;program~integrate_oscillation</title>
<path fill="none" stroke="black" stroke-dasharray="5,2" d="M231.069,-153.04C240.48,-171.842 260.423,-206.147 288,-223.927 321.277,-245.383 364.647,-255.157 400.007,-259.555"/>
<polygon fill="black" stroke="black" points="399.898,-263.065 410.227,-260.707 400.681,-256.109 399.898,-263.065"/>
</g>
<!-- program~integrate_burgers -->
<g id="node6" class="node"><title>program~integrate_burgers</title>
<a xlink:href="../program/integrate_burgers.html" xlink:title="integrate_burgers">
<polygon fill="#f0ad4e" stroke="#f0ad4e" points="512,-193.927 416,-193.927 416,-167.927 512,-167.927 512,-193.927"/>
<text text-anchor="middle" x="464" y="-178.477" font-family="Helvetica,sans-Serif" font-size="10.50" fill="white">integrate_burgers</text>
</a>
</g>
<!-- module~foodie&#45;&gt;program~integrate_burgers -->
<g id="edge16" class="edge"><title>module~foodie&#45;&gt;program~integrate_burgers</title>
<path fill="none" stroke="black" stroke-dasharray="5,2" d="M252.416,-144.631C289.505,-150.993 356.62,-162.507 405.338,-170.864"/>
<polygon fill="black" stroke="black" points="404.989,-174.355 415.437,-172.596 406.173,-167.456 404.989,-174.355"/>
</g>
<!-- module~type_euler_1d -->
<g id="node7" class="node"><title>module~type_euler_1d</title>
<a xlink:href="../module/type_euler_1d.html" xlink:title="type_euler_1D">
<polygon fill="#337ab7" stroke="#337ab7" points="372,-132.927 290,-132.927 290,-106.927 372,-106.927 372,-132.927"/>
<text text-anchor="middle" x="331" y="-117.477" font-family="Helvetica,sans-Serif" font-size="10.50" fill="white">type_euler_1D</text>
</a>
</g>
<!-- module~foodie&#45;&gt;module~type_euler_1d -->
<g id="edge18" class="edge"><title>module~foodie&#45;&gt;module~type_euler_1d</title>
<path fill="none" stroke="black" stroke-dasharray="5,2" d="M252.023,-134.829C260.49,-133.231 270.133,-131.412 279.702,-129.606"/>
<polygon fill="black" stroke="black" points="280.417,-133.033 289.594,-127.74 279.119,-126.155 280.417,-133.033"/>
</g>
<!-- program~integrate_euler_1d -->
<g id="node8" class="node"><title>program~integrate_euler_1d</title>
<a xlink:href="../program/integrate_euler_1d.html" xlink:title="integrate_euler_1D">
<polygon fill="#f0ad4e" stroke="#f0ad4e" points="516,-102.927 412,-102.927 412,-76.9274 516,-76.9274 516,-102.927"/>
<text text-anchor="middle" x="464" y="-87.4774" font-family="Helvetica,sans-Serif" font-size="10.50" fill="white">integrate_euler_1D</text>
</a>
</g>
<!-- module~foodie&#45;&gt;program~integrate_euler_1d -->
<g id="edge20" class="edge"><title>module~foodie&#45;&gt;program~integrate_euler_1d</title>
<path fill="none" stroke="black" stroke-dasharray="5,2" d="M239.798,-126.639C251.836,-116.725 269.762,-103.905 288,-97.9274 324.35,-86.0137 367.188,-83.8311 401.5,-84.715"/>
<polygon fill="black" stroke="black" points="401.741,-88.2256 411.858,-85.0804 401.987,-81.2299 401.741,-88.2256"/>
</g>
<!-- module~type_lorenz -->
<g id="node9" class="node"><title>module~type_lorenz</title>
<a xlink:href="../module/type_lorenz.html" xlink:title="type_lorenz">
<polygon fill="#337ab7" stroke="#337ab7" points="365,-50.9274 297,-50.9274 297,-24.9274 365,-24.9274 365,-50.9274"/>
<text text-anchor="middle" x="331" y="-35.4774" font-family="Helvetica,sans-Serif" font-size="10.50" fill="white">type_lorenz</text>
</a>
</g>
<!-- module~foodie&#45;&gt;module~type_lorenz -->
<g id="edge22" class="edge"><title>module~foodie&#45;&gt;module~type_lorenz</title>
<path fill="none" stroke="black" stroke-dasharray="5,2" d="M234.171,-126.649C245.57,-110.756 266.198,-83.9112 288,-64.9274 291.382,-61.9825 295.118,-59.1417 298.934,-56.48"/>
<polygon fill="black" stroke="black" points="300.879,-59.3896 307.308,-50.9682 297.031,-53.5425 300.879,-59.3896"/>
</g>
<!-- program~integrate_lorenz -->
<g id="node10" class="node"><title>program~integrate_lorenz</title>
<a xlink:href="../program/integrate_lorenz.html" xlink:title="integrate_lorenz">
<polygon fill="#f0ad4e" stroke="#f0ad4e" points="509,-39.9274 419,-39.9274 419,-13.9274 509,-13.9274 509,-39.9274"/>
<text text-anchor="middle" x="464" y="-24.4774" font-family="Helvetica,sans-Serif" font-size="10.50" fill="white">integrate_lorenz</text>
</a>
</g>
<!-- module~foodie&#45;&gt;program~integrate_lorenz -->
<g id="edge24" class="edge"><title>module~foodie&#45;&gt;program~integrate_lorenz</title>
<path fill="none" stroke="black" stroke-dasharray="5,2" d="M227.112,-126.765C232.161,-100.217 247.661,-40.6796 288,-15.9274 327.644,8.39791 382.219,-0.0226532 420.041,-10.8899"/>
<polygon fill="black" stroke="black" points="419.171,-14.2835 429.757,-13.8402 421.205,-7.5855 419.171,-14.2835"/>
</g>
<!-- module~type_oscillation&#45;&gt;program~integrate_oscillation -->
<g id="edge2" class="edge"><title>module~type_oscillation&#45;&gt;program~integrate_oscillation</title>
<path fill="none" stroke="black" stroke-dasharray="5,2" d="M373.814,-277.167C382.201,-275.843 391.165,-274.428 400.068,-273.022"/>
<polygon fill="black" stroke="black" points="400.728,-276.461 410.06,-271.444 399.636,-269.547 400.728,-276.461"/>
</g>
<!-- module~type_burgers&#45;&gt;program~integrate_burgers -->
<g id="edge4" class="edge"><title>module~type_burgers&#45;&gt;program~integrate_burgers</title>
<path fill="none" stroke="black" stroke-dasharray="5,2" d="M369.112,-195.91C380.387,-194.13 393.001,-192.138 405.259,-190.202"/>
<polygon fill="black" stroke="black" points="406.102,-193.613 415.434,-188.596 405.011,-186.698 406.102,-193.613"/>
</g>
<!-- module~type_euler_1d&#45;&gt;program~integrate_euler_1d -->
<g id="edge6" class="edge"><title>module~type_euler_1d&#45;&gt;program~integrate_euler_1d</title>
<path fill="none" stroke="black" stroke-dasharray="5,2" d="M372.353,-110.6C381.732,-108.484 391.894,-106.192 401.922,-103.93"/>
<polygon fill="black" stroke="black" points="402.885,-107.301 411.87,-101.686 401.345,-100.472 402.885,-107.301"/>
</g>
<!-- module~type_lorenz&#45;&gt;program~integrate_lorenz -->
<g id="edge8" class="edge"><title>module~type_lorenz&#45;&gt;program~integrate_lorenz</title>
<path fill="none" stroke="black" stroke-dasharray="5,2" d="M365.251,-35.0946C378.508,-33.9982 394.022,-32.7151 408.774,-31.495"/>
<polygon fill="black" stroke="black" points="409.15,-34.9759 418.827,-30.6635 408.573,-27.9998 409.15,-34.9759"/>
</g>
</g>
</svg>
