<?xml version="1.0" encoding="UTF-8" standalone="no"?>
<!DOCTYPE svg PUBLIC "-//W3C//DTD SVG 1.1//EN"
 "http://www.w3.org/Graphics/SVG/1.1/DTD/svg11.dtd">
<!-- Generated by graphviz version 2.26.3 (20100126.1600)
 -->
<!-- Title: module~~foodie~~UsesGraph Pages: 1 -->
<svg width="548pt" height="248pt"
 viewBox="0.00 0.00 548.00 248.00" xmlns="http://www.w3.org/2000/svg" xmlns:xlink="http://www.w3.org/1999/xlink">
<g id="graph1" class="graph" transform="scale(1 1) rotate(0) translate(4 244)">
<title>module~~foodie~~UsesGraph</title>
<polygon fill="white" stroke="white" points="-4,5 -4,-244 545,-244 545,5 -4,5"/>
<!-- module~foodie -->
<g id="node1" class="node"><title>module~foodie</title>
<polygon fill="none" stroke="black" points="540,-134 486,-134 486,-108 540,-108 540,-134"/>
<text text-anchor="middle" x="513" y="-118.55" font-family="Helvetica,sans-Serif" font-size="10.50">foodie</text>
</g>
<!-- module~foodie_integrator_low_storage_runge_kutta -->
<g id="node2" class="node"><title>module~foodie_integrator_low_storage_runge_kutta</title>
<a xlink:href="../module/foodie_integrator_low_storage_runge_kutta.html" xlink:title="foodie_integrator_low_storage_runge_kutta">
<polygon fill="#337ab7" stroke="#337ab7" points="450,-240 230,-240 230,-214 450,-214 450,-240"/>
<text text-anchor="middle" x="340" y="-224.55" font-family="Helvetica,sans-Serif" font-size="10.50" fill="white">foodie_integrator_low_storage_runge_kutta</text>
</a>
</g>
<!-- module~foodie_integrator_low_storage_runge_kutta&#45;&gt;module~foodie -->
<g id="edge24" class="edge"><title>module~foodie_integrator_low_storage_runge_kutta&#45;&gt;module~foodie</title>
<path fill="none" stroke="black" stroke-dasharray="5,2" d="M432.333,-213.915C438.522,-211.423 444.48,-208.479 450,-205 473.747,-190.034 491.72,-162.68 502.274,-143.257"/>
<polygon fill="black" stroke="black" points="505.48,-144.677 506.979,-134.189 499.266,-141.453 505.48,-144.677"/>
</g>
<!-- module~foodie_integrator_tvd_runge_kutta -->
<g id="node3" class="node"><title>module~foodie_integrator_tvd_runge_kutta</title>
<a xlink:href="../module/foodie_integrator_tvd_runge_kutta.html" xlink:title="foodie_integrator_tvd_runge_kutta">
<polygon fill="#337ab7" stroke="#337ab7" points="428,-196 252,-196 252,-170 428,-170 428,-196"/>
<text text-anchor="middle" x="340" y="-180.55" font-family="Helvetica,sans-Serif" font-size="10.50" fill="white">foodie_integrator_tvd_runge_kutta</text>
</a>
</g>
<!-- module~foodie_integrator_tvd_runge_kutta&#45;&gt;module~foodie -->
<g id="edge26" class="edge"><title>module~foodie_integrator_tvd_runge_kutta&#45;&gt;module~foodie</title>
<path fill="none" stroke="black" stroke-dasharray="5,2" d="M405.458,-169.97C420.337,-166.176 435.905,-161.53 450,-156 461.531,-151.476 473.565,-145.216 483.989,-139.241"/>
<polygon fill="black" stroke="black" points="485.847,-142.208 492.682,-134.113 482.29,-136.179 485.847,-142.208"/>
</g>
<!-- module~type_integrand -->
<g id="node4" class="node"><title>module~type_integrand</title>
<a xlink:href="../module/type_integrand.html" xlink:title="type_integrand">
<polygon fill="#337ab7" stroke="#337ab7" points="194,-134 110,-134 110,-108 194,-108 194,-134"/>
<text text-anchor="middle" x="152" y="-118.55" font-family="Helvetica,sans-Serif" font-size="10.50" fill="white">type_integrand</text>
</a>
</g>
<!-- module~type_integrand&#45;&gt;module~foodie -->
<g id="edge28" class="edge"><title>module~type_integrand&#45;&gt;module~foodie</title>
<path fill="none" stroke="black" stroke-dasharray="5,2" d="M194.096,-122.277C205.726,-122.576 218.351,-122.851 230,-123 327.77,-124.253 352.235,-124.551 450,-123 458.323,-122.868 467.263,-122.638 475.718,-122.379"/>
<polygon fill="black" stroke="black" points="475.835,-125.878 485.716,-122.055 475.608,-118.881 475.835,-125.878"/>
</g>
<!-- module~type_integrand&#45;&gt;module~foodie_integrator_low_storage_runge_kutta -->
<g id="edge2" class="edge"><title>module~type_integrand&#45;&gt;module~foodie_integrator_low_storage_runge_kutta</title>
<path fill="none" stroke="black" stroke-dasharray="5,2" d="M160.275,-134.191C172.874,-153.09 198.735,-187.516 230,-205 233.439,-206.923 237.022,-208.68 240.705,-210.285"/>
<polygon fill="black" stroke="black" points="239.45,-213.553 250.037,-213.968 242.02,-207.041 239.45,-213.553"/>
</g>
<!-- module~type_integrand&#45;&gt;module~foodie_integrator_tvd_runge_kutta -->
<g id="edge6" class="edge"><title>module~type_integrand&#45;&gt;module~foodie_integrator_tvd_runge_kutta</title>
<path fill="none" stroke="black" stroke-dasharray="5,2" d="M177.878,-134.035C192.839,-141.208 212.175,-149.87 230,-156 242.299,-160.23 255.585,-164.076 268.528,-167.455"/>
<polygon fill="black" stroke="black" points="267.782,-170.877 278.336,-169.946 269.506,-164.092 267.782,-170.877"/>
</g>
<!-- module~foodie_integrator_adams_bashforth -->
<g id="node5" class="node"><title>module~foodie_integrator_adams_bashforth</title>
<a xlink:href="../module/foodie_integrator_adams_bashforth.html" xlink:title="foodie_integrator_adams_bashforth">
<polygon fill="#337ab7" stroke="#337ab7" points="431,-114 249,-114 249,-88 431,-88 431,-114"/>
<text text-anchor="middle" x="340" y="-98.55" font-family="Helvetica,sans-Serif" font-size="10.50" fill="white">foodie_integrator_adams_bashforth</text>
</a>
</g>
<!-- module~type_integrand&#45;&gt;module~foodie_integrator_adams_bashforth -->
<g id="edge12" class="edge"><title>module~type_integrand&#45;&gt;module~foodie_integrator_adams_bashforth</title>
<path fill="none" stroke="black" stroke-dasharray="5,2" d="M194.191,-116.512C207.423,-115.104 222.647,-113.484 238.158,-111.834"/>
<polygon fill="black" stroke="black" points="238.8,-115.286 248.374,-110.747 238.06,-108.325 238.8,-115.286"/>
</g>
<!-- module~foodie_integrator_euler_explicit -->
<g id="node6" class="node"><title>module~foodie_integrator_euler_explicit</title>
<a xlink:href="../module/foodie_integrator_euler_explicit.html" xlink:title="foodie_integrator_euler_explicit">
<polygon fill="#337ab7" stroke="#337ab7" points="421,-70 259,-70 259,-44 421,-44 421,-70"/>
<text text-anchor="middle" x="340" y="-54.55" font-family="Helvetica,sans-Serif" font-size="10.50" fill="white">foodie_integrator_euler_explicit</text>
</a>
</g>
<!-- module~type_integrand&#45;&gt;module~foodie_integrator_euler_explicit -->
<g id="edge16" class="edge"><title>module~type_integrand&#45;&gt;module~foodie_integrator_euler_explicit</title>
<path fill="none" stroke="black" stroke-dasharray="5,2" d="M172.403,-107.834C187.701,-98.513 209.452,-86.3998 230,-79 236.463,-76.6724 243.234,-74.5685 250.104,-72.671"/>
<polygon fill="black" stroke="black" points="251.423,-75.9443 260.218,-70.0363 249.658,-69.1704 251.423,-75.9443"/>
</g>
<!-- module~foodie_integrator_leapfrog -->
<g id="node7" class="node"><title>module~foodie_integrator_leapfrog</title>
<a xlink:href="../module/foodie_integrator_leapfrog.html" xlink:title="foodie_integrator_leapfrog">
<polygon fill="#337ab7" stroke="#337ab7" points="409,-26 271,-26 271,-1.24345e-14 409,-3.55271e-15 409,-26"/>
<text text-anchor="middle" x="340" y="-10.55" font-family="Helvetica,sans-Serif" font-size="10.50" fill="white">foodie_integrator_leapfrog</text>
</a>
</g>
<!-- module~type_integrand&#45;&gt;module~foodie_integrator_leapfrog -->
<g id="edge20" class="edge"><title>module~type_integrand&#45;&gt;module~foodie_integrator_leapfrog</title>
<path fill="none" stroke="black" stroke-dasharray="5,2" d="M175.593,-107.81C181.997,-103.581 188.636,-98.541 194,-93 215.102,-71.2008 205.069,-52.2897 230,-35 239.067,-28.712 249.509,-24.1297 260.272,-20.8061"/>
<polygon fill="black" stroke="black" points="261.49,-24.1019 270.217,-18.0948 259.649,-17.3484 261.49,-24.1019"/>
</g>
<!-- module~foodie_integrator_adams_bashforth&#45;&gt;module~foodie -->
<g id="edge30" class="edge"><title>module~foodie_integrator_adams_bashforth&#45;&gt;module~foodie</title>
<path fill="none" stroke="black" stroke-dasharray="5,2" d="M431.566,-111.586C447.17,-113.39 462.554,-115.168 475.677,-116.685"/>
<polygon fill="black" stroke="black" points="475.341,-120.17 485.677,-117.841 476.145,-113.216 475.341,-120.17"/>
</g>
<!-- module~foodie_integrator_euler_explicit&#45;&gt;module~foodie -->
<g id="edge32" class="edge"><title>module~foodie_integrator_euler_explicit&#45;&gt;module~foodie</title>
<path fill="none" stroke="black" stroke-dasharray="5,2" d="M421.282,-69.4936C431.132,-72.1014 440.914,-75.2363 450,-79 463.839,-84.7324 477.841,-93.6833 489.118,-101.852"/>
<polygon fill="black" stroke="black" points="487.061,-104.684 497.163,-107.879 491.259,-99.0821 487.061,-104.684"/>
</g>
<!-- module~foodie_integrator_leapfrog&#45;&gt;module~foodie -->
<g id="edge34" class="edge"><title>module~foodie_integrator_leapfrog&#45;&gt;module~foodie</title>
<path fill="none" stroke="black" stroke-dasharray="5,2" d="M409.606,-18.861C423.728,-22.2079 437.933,-27.2999 450,-35 474.269,-50.4862 492.304,-78.9032 502.722,-98.8202"/>
<polygon fill="black" stroke="black" points="499.618,-100.439 507.218,-107.821 505.88,-97.3108 499.618,-100.439"/>
</g>
<!-- IR_Precision -->
<g id="node8" class="node"><title>IR_Precision</title>
<polygon fill="#337ab7" stroke="#337ab7" points="73,-134 1,-134 1,-108 73,-108 73,-134"/>
<text text-anchor="middle" x="37" y="-118.55" font-family="Helvetica,sans-Serif" font-size="10.50" fill="white">IR_Precision</text>
</g>
<!-- IR_Precision&#45;&gt;module~foodie_integrator_low_storage_runge_kutta -->
<g id="edge4" class="edge"><title>IR_Precision&#45;&gt;module~foodie_integrator_low_storage_runge_kutta</title>
<path fill="none" stroke="black" stroke-dasharray="5,2" d="M152,-205C173.362,-211.971 196.726,-216.788 219.498,-220.104"/>
<polygon fill="black" stroke="black" points="219.178,-223.592 229.56,-221.479 220.126,-216.657 219.178,-223.592"/>
</g>
<!-- IR_Precision&#45;&gt;module~foodie_integrator_tvd_runge_kutta -->
<g id="edge8" class="edge"><title>IR_Precision&#45;&gt;module~foodie_integrator_tvd_runge_kutta</title>
<path fill="none" stroke="black" stroke-dasharray="5,2" d="M49.2276,-134.172C68.704,-154.071 108.987,-190.964 152,-205"/>
<path fill="none" stroke="black" stroke-dasharray="5,2" d="M152,-205C172.94,-211.833 223.503,-205.477 266.922,-197.871"/>
<polygon fill="black" stroke="black" points="267.696,-201.288 276.92,-196.077 266.459,-194.398 267.696,-201.288"/>
</g>
<!-- IR_Precision&#45;&gt;module~type_integrand -->
<g id="edge10" class="edge"><title>IR_Precision&#45;&gt;module~type_integrand</title>
<path fill="none" stroke="black" stroke-dasharray="5,2" d="M73.7029,-121C81.9237,-121 90.8,-121 99.521,-121"/>
<polygon fill="black" stroke="black" points="99.6389,-124.5 109.639,-121 99.6388,-117.5 99.6389,-124.5"/>
</g>
<!-- IR_Precision&#45;&gt;module~foodie_integrator_adams_bashforth -->
<g id="edge14" class="edge"><title>IR_Precision&#45;&gt;module~foodie_integrator_adams_bashforth</title>
<path fill="none" stroke="black" stroke-dasharray="5,2" d="M152,-79C172.423,-74.1464 219.284,-79.6164 261.108,-86.3148"/>
<polygon fill="black" stroke="black" points="260.62,-89.7813 271.054,-87.9448 261.752,-82.8734 260.62,-89.7813"/>
</g>
<!-- IR_Precision&#45;&gt;module~foodie_integrator_euler_explicit -->
<g id="edge18" class="edge"><title>IR_Precision&#45;&gt;module~foodie_integrator_euler_explicit</title>
<path fill="none" stroke="black" stroke-dasharray="5,2" d="M152,-79C183.022,-71.6274 217.536,-66.6831 248.438,-63.3854"/>
<polygon fill="black" stroke="black" points="249.177,-66.8282 258.77,-62.3291 248.465,-59.8645 249.177,-66.8282"/>
</g>
<!-- IR_Precision&#45;&gt;module~foodie_integrator_leapfrog -->
<g id="edge22" class="edge"><title>IR_Precision&#45;&gt;module~foodie_integrator_leapfrog</title>
<path fill="none" stroke="black" stroke-dasharray="5,2" d="M66.6758,-107.981C89.5575,-98.4814 122.222,-86.077 152,-79"/>
<path fill="none" stroke="black" stroke-dasharray="5,2" d="M152,-79C190.723,-69.7971 192.687,-48.8535 230,-35 239.685,-31.4042 250.08,-28.3539 260.474,-25.7775"/>
<polygon fill="black" stroke="black" points="261.477,-29.1374 270.416,-23.4503 259.881,-22.3217 261.477,-29.1374"/>
</g>
</g>
</svg>
