<?xml version="1.0" encoding="UTF-8" standalone="no"?>
<!DOCTYPE svg PUBLIC "-//W3C//DTD SVG 1.1//EN"
 "http://www.w3.org/Graphics/SVG/1.1/DTD/svg11.dtd">
<!-- Generated by graphviz version 2.26.3 (20100126.1600)
 -->
<!-- Title: module~~type_integrand~~UsedByGraph Pages: 1 -->
<svg width="641pt" height="278pt"
 viewBox="0.00 0.00 641.00 277.64" xmlns="http://www.w3.org/2000/svg" xmlns:xlink="http://www.w3.org/1999/xlink">
<g id="graph1" class="graph" transform="scale(0.910511 0.910511) rotate(0) translate(4 300.927)">
<title>module~~type_integrand~~UsedByGraph</title>
<polygon fill="white" stroke="white" points="-4,5 -4,-300.927 701,-300.927 701,5 -4,5"/>
<!-- module~type_integrand -->
<g id="node1" class="node"><title>module~type_integrand</title>
<polygon fill="none" stroke="black" points="84,-152.927 4.26326e-14,-152.927 0,-126.927 84,-126.927 84,-152.927"/>
<text text-anchor="middle" x="42" y="-137.477" font-family="Helvetica,sans-Serif" font-size="10.50">type_integrand</text>
</g>
<!-- module~foodie_integrator_low_storage_runge_kutta -->
<g id="node2" class="node"><title>module~foodie_integrator_low_storage_runge_kutta</title>
<a xlink:href="../module/foodie_integrator_low_storage_runge_kutta.html" xlink:title="foodie_integrator_low_storage_runge_kutta">
<polygon fill="#337ab7" stroke="#337ab7" points="340,-258.927 120,-258.927 120,-232.927 340,-232.927 340,-258.927"/>
<text text-anchor="middle" x="230" y="-243.477" font-family="Helvetica,sans-Serif" font-size="10.50" fill="white">foodie_integrator_low_storage_runge_kutta</text>
</a>
</g>
<!-- module~type_integrand&#45;&gt;module~foodie_integrator_low_storage_runge_kutta -->
<g id="edge36" class="edge"><title>module~type_integrand&#45;&gt;module~foodie_integrator_low_storage_runge_kutta</title>
<path fill="none" stroke="black" stroke-dasharray="5,2" d="M50.2752,-153.119C62.8744,-172.018 88.7351,-206.443 120,-223.927 123.439,-225.851 127.022,-227.608 130.705,-229.212"/>
<polygon fill="black" stroke="black" points="129.45,-232.48 140.037,-232.895 132.02,-225.969 129.45,-232.48"/>
</g>
<!-- module~foodie_integrator_tvd_runge_kutta -->
<g id="node3" class="node"><title>module~foodie_integrator_tvd_runge_kutta</title>
<a xlink:href="../module/foodie_integrator_tvd_runge_kutta.html" xlink:title="foodie_integrator_tvd_runge_kutta">
<polygon fill="#337ab7" stroke="#337ab7" points="318,-214.927 142,-214.927 142,-188.927 318,-188.927 318,-214.927"/>
<text text-anchor="middle" x="230" y="-199.477" font-family="Helvetica,sans-Serif" font-size="10.50" fill="white">foodie_integrator_tvd_runge_kutta</text>
</a>
</g>
<!-- module~type_integrand&#45;&gt;module~foodie_integrator_tvd_runge_kutta -->
<g id="edge38" class="edge"><title>module~type_integrand&#45;&gt;module~foodie_integrator_tvd_runge_kutta</title>
<path fill="none" stroke="black" stroke-dasharray="5,2" d="M67.8784,-152.963C82.839,-160.135 102.175,-168.797 120,-174.927 132.299,-179.157 145.585,-183.004 158.528,-186.382"/>
<polygon fill="black" stroke="black" points="157.782,-189.804 168.336,-188.874 159.506,-183.02 157.782,-189.804"/>
</g>
<!-- module~foodie -->
<g id="node4" class="node"><title>module~foodie</title>
<a xlink:href="../module/foodie.html" xlink:title="foodie">
<polygon fill="#337ab7" stroke="#337ab7" points="430,-152.927 376,-152.927 376,-126.927 430,-126.927 430,-152.927"/>
<text text-anchor="middle" x="403" y="-137.477" font-family="Helvetica,sans-Serif" font-size="10.50" fill="white">foodie</text>
</a>
</g>
<!-- module~type_integrand&#45;&gt;module~foodie -->
<g id="edge40" class="edge"><title>module~type_integrand&#45;&gt;module~foodie</title>
<path fill="none" stroke="black" stroke-dasharray="5,2" d="M84.0959,-141.204C95.7265,-141.503 108.351,-141.778 120,-141.927 217.77,-143.181 242.235,-143.479 340,-141.927 348.323,-141.795 357.263,-141.565 365.718,-141.307"/>
<polygon fill="black" stroke="black" points="365.835,-144.805 375.716,-140.982 365.608,-137.809 365.835,-144.805"/>
</g>
<!-- module~foodie_integrator_adams_bashforth -->
<g id="node5" class="node"><title>module~foodie_integrator_adams_bashforth</title>
<a xlink:href="../module/foodie_integrator_adams_bashforth.html" xlink:title="foodie_integrator_adams_bashforth">
<polygon fill="#337ab7" stroke="#337ab7" points="321,-132.927 139,-132.927 139,-106.927 321,-106.927 321,-132.927"/>
<text text-anchor="middle" x="230" y="-117.477" font-family="Helvetica,sans-Serif" font-size="10.50" fill="white">foodie_integrator_adams_bashforth</text>
</a>
</g>
<!-- module~type_integrand&#45;&gt;module~foodie_integrator_adams_bashforth -->
<g id="edge42" class="edge"><title>module~type_integrand&#45;&gt;module~foodie_integrator_adams_bashforth</title>
<path fill="none" stroke="black" stroke-dasharray="5,2" d="M84.1909,-135.439C97.423,-134.031 112.647,-132.412 128.158,-130.762"/>
<polygon fill="black" stroke="black" points="128.8,-134.213 138.374,-129.675 128.06,-127.252 128.8,-134.213"/>
</g>
<!-- module~foodie_integrator_euler_explicit -->
<g id="node6" class="node"><title>module~foodie_integrator_euler_explicit</title>
<a xlink:href="../module/foodie_integrator_euler_explicit.html" xlink:title="foodie_integrator_euler_explicit">
<polygon fill="#337ab7" stroke="#337ab7" points="311,-88.9274 149,-88.9274 149,-62.9274 311,-62.9274 311,-88.9274"/>
<text text-anchor="middle" x="230" y="-73.4774" font-family="Helvetica,sans-Serif" font-size="10.50" fill="white">foodie_integrator_euler_explicit</text>
</a>
</g>
<!-- module~type_integrand&#45;&gt;module~foodie_integrator_euler_explicit -->
<g id="edge44" class="edge"><title>module~type_integrand&#45;&gt;module~foodie_integrator_euler_explicit</title>
<path fill="none" stroke="black" stroke-dasharray="5,2" d="M62.403,-126.761C77.7007,-117.44 99.4522,-105.327 120,-97.9274 126.463,-95.5998 133.234,-93.4959 140.104,-91.5984"/>
<polygon fill="black" stroke="black" points="141.423,-94.8717 150.218,-88.9638 139.658,-88.0978 141.423,-94.8717"/>
</g>
<!-- module~foodie_integrator_leapfrog -->
<g id="node7" class="node"><title>module~foodie_integrator_leapfrog</title>
<a xlink:href="../module/foodie_integrator_leapfrog.html" xlink:title="foodie_integrator_leapfrog">
<polygon fill="#337ab7" stroke="#337ab7" points="299,-44.9274 161,-44.9274 161,-18.9274 299,-18.9274 299,-44.9274"/>
<text text-anchor="middle" x="230" y="-29.4774" font-family="Helvetica,sans-Serif" font-size="10.50" fill="white">foodie_integrator_leapfrog</text>
</a>
</g>
<!-- module~type_integrand&#45;&gt;module~foodie_integrator_leapfrog -->
<g id="edge46" class="edge"><title>module~type_integrand&#45;&gt;module~foodie_integrator_leapfrog</title>
<path fill="none" stroke="black" stroke-dasharray="5,2" d="M49.9894,-126.741C62.4119,-107.462 88.2621,-71.9214 120,-53.9274 129.404,-48.5957 139.902,-44.5418 150.576,-41.4623"/>
<polygon fill="black" stroke="black" points="151.61,-44.8098 160.403,-38.8993 149.843,-38.0364 151.61,-44.8098"/>
</g>
<!-- module~foodie_integrator_low_storage_runge_kutta&#45;&gt;module~foodie -->
<g id="edge2" class="edge"><title>module~foodie_integrator_low_storage_runge_kutta&#45;&gt;module~foodie</title>
<path fill="none" stroke="black" stroke-dasharray="5,2" d="M322.333,-232.842C328.522,-230.351 334.48,-227.406 340,-223.927 363.747,-208.961 381.72,-181.608 392.274,-162.184"/>
<polygon fill="black" stroke="black" points="395.48,-163.604 396.979,-153.116 389.266,-160.38 395.48,-163.604"/>
</g>
<!-- module~foodie_integrator_tvd_runge_kutta&#45;&gt;module~foodie -->
<g id="edge4" class="edge"><title>module~foodie_integrator_tvd_runge_kutta&#45;&gt;module~foodie</title>
<path fill="none" stroke="black" stroke-dasharray="5,2" d="M295.458,-188.897C310.337,-185.104 325.905,-180.458 340,-174.927 351.531,-170.403 363.565,-164.144 373.989,-158.168"/>
<polygon fill="black" stroke="black" points="375.847,-161.136 382.682,-153.04 372.29,-155.107 375.847,-161.136"/>
</g>
<!-- module~type_oscillation -->
<g id="node10" class="node"><title>module~type_oscillation</title>
<a xlink:href="../module/type_oscillation.html" xlink:title="type_oscillation">
<polygon fill="#337ab7" stroke="#337ab7" points="551,-296.927 467,-296.927 467,-270.927 551,-270.927 551,-296.927"/>
<text text-anchor="middle" x="509" y="-281.477" font-family="Helvetica,sans-Serif" font-size="10.50" fill="white">type_oscillation</text>
</a>
</g>
<!-- module~foodie&#45;&gt;module~type_oscillation -->
<g id="edge14" class="edge"><title>module~foodie&#45;&gt;module~type_oscillation</title>
<path fill="none" stroke="black" stroke-dasharray="5,2" d="M407.566,-153.231C416.07,-176.488 436.214,-225.084 466,-256.927 468.7,-259.814 471.774,-262.518 475.008,-265.015"/>
<polygon fill="black" stroke="black" points="473.051,-267.918 483.252,-270.779 477.062,-262.181 473.051,-267.918"/>
</g>
<!-- module~type_burgers -->
<g id="node11" class="node"><title>module~type_burgers</title>
<a xlink:href="../module/type_burgers.html" xlink:title="type_burgers">
<polygon fill="#337ab7" stroke="#337ab7" points="547,-214.927 471,-214.927 471,-188.927 547,-188.927 547,-214.927"/>
<text text-anchor="middle" x="509" y="-199.477" font-family="Helvetica,sans-Serif" font-size="10.50" fill="white">type_burgers</text>
</a>
</g>
<!-- module~foodie&#45;&gt;module~type_burgers -->
<g id="edge16" class="edge"><title>module~foodie&#45;&gt;module~type_burgers</title>
<path fill="none" stroke="black" stroke-dasharray="5,2" d="M425.48,-153.076C440.658,-161.954 460.901,-173.794 477.657,-183.595"/>
<polygon fill="black" stroke="black" points="476.154,-186.77 486.553,-188.798 479.688,-180.728 476.154,-186.77"/>
</g>
<!-- program~integrate_oscillation -->
<g id="node12" class="node"><title>program~integrate_oscillation</title>
<a xlink:href="../program/integrate_oscillation.html" xlink:title="integrate_oscillation">
<polygon fill="#f0ad4e" stroke="#f0ad4e" points="695,-275.927 589,-275.927 589,-249.927 695,-249.927 695,-275.927"/>
<text text-anchor="middle" x="642" y="-260.477" font-family="Helvetica,sans-Serif" font-size="10.50" fill="white">integrate_oscillation</text>
</a>
</g>
<!-- module~foodie&#45;&gt;program~integrate_oscillation -->
<g id="edge18" class="edge"><title>module~foodie&#45;&gt;program~integrate_oscillation</title>
<path fill="none" stroke="black" stroke-dasharray="5,2" d="M409.069,-153.04C418.48,-171.842 438.423,-206.147 466,-223.927 499.277,-245.383 542.647,-255.157 578.007,-259.555"/>
<polygon fill="black" stroke="black" points="577.898,-263.065 588.227,-260.707 578.681,-256.109 577.898,-263.065"/>
</g>
<!-- program~integrate_burgers -->
<g id="node13" class="node"><title>program~integrate_burgers</title>
<a xlink:href="../program/integrate_burgers.html" xlink:title="integrate_burgers">
<polygon fill="#f0ad4e" stroke="#f0ad4e" points="690,-193.927 594,-193.927 594,-167.927 690,-167.927 690,-193.927"/>
<text text-anchor="middle" x="642" y="-178.477" font-family="Helvetica,sans-Serif" font-size="10.50" fill="white">integrate_burgers</text>
</a>
</g>
<!-- module~foodie&#45;&gt;program~integrate_burgers -->
<g id="edge20" class="edge"><title>module~foodie&#45;&gt;program~integrate_burgers</title>
<path fill="none" stroke="black" stroke-dasharray="5,2" d="M430.416,-144.631C467.505,-150.993 534.62,-162.507 583.338,-170.864"/>
<polygon fill="black" stroke="black" points="582.989,-174.355 593.437,-172.596 584.173,-167.456 582.989,-174.355"/>
</g>
<!-- module~type_euler_1d -->
<g id="node14" class="node"><title>module~type_euler_1d</title>
<a xlink:href="../module/type_euler_1d.html" xlink:title="type_euler_1D">
<polygon fill="#337ab7" stroke="#337ab7" points="550,-132.927 468,-132.927 468,-106.927 550,-106.927 550,-132.927"/>
<text text-anchor="middle" x="509" y="-117.477" font-family="Helvetica,sans-Serif" font-size="10.50" fill="white">type_euler_1D</text>
</a>
</g>
<!-- module~foodie&#45;&gt;module~type_euler_1d -->
<g id="edge22" class="edge"><title>module~foodie&#45;&gt;module~type_euler_1d</title>
<path fill="none" stroke="black" stroke-dasharray="5,2" d="M430.023,-134.829C438.49,-133.231 448.133,-131.412 457.702,-129.606"/>
<polygon fill="black" stroke="black" points="458.417,-133.033 467.594,-127.74 457.119,-126.155 458.417,-133.033"/>
</g>
<!-- program~integrate_euler_1d -->
<g id="node15" class="node"><title>program~integrate_euler_1d</title>
<a xlink:href="../program/integrate_euler_1d.html" xlink:title="integrate_euler_1D">
<polygon fill="#f0ad4e" stroke="#f0ad4e" points="694,-102.927 590,-102.927 590,-76.9274 694,-76.9274 694,-102.927"/>
<text text-anchor="middle" x="642" y="-87.4774" font-family="Helvetica,sans-Serif" font-size="10.50" fill="white">integrate_euler_1D</text>
</a>
</g>
<!-- module~foodie&#45;&gt;program~integrate_euler_1d -->
<g id="edge24" class="edge"><title>module~foodie&#45;&gt;program~integrate_euler_1d</title>
<path fill="none" stroke="black" stroke-dasharray="5,2" d="M417.798,-126.639C429.836,-116.725 447.762,-103.905 466,-97.9274 502.35,-86.0137 545.188,-83.8311 579.5,-84.715"/>
<polygon fill="black" stroke="black" points="579.741,-88.2256 589.858,-85.0804 579.987,-81.2299 579.741,-88.2256"/>
</g>
<!-- module~type_lorenz -->
<g id="node16" class="node"><title>module~type_lorenz</title>
<a xlink:href="../module/type_lorenz.html" xlink:title="type_lorenz">
<polygon fill="#337ab7" stroke="#337ab7" points="543,-50.9274 475,-50.9274 475,-24.9274 543,-24.9274 543,-50.9274"/>
<text text-anchor="middle" x="509" y="-35.4774" font-family="Helvetica,sans-Serif" font-size="10.50" fill="white">type_lorenz</text>
</a>
</g>
<!-- module~foodie&#45;&gt;module~type_lorenz -->
<g id="edge26" class="edge"><title>module~foodie&#45;&gt;module~type_lorenz</title>
<path fill="none" stroke="black" stroke-dasharray="5,2" d="M412.171,-126.649C423.57,-110.756 444.198,-83.9112 466,-64.9274 469.382,-61.9825 473.118,-59.1417 476.934,-56.48"/>
<polygon fill="black" stroke="black" points="478.879,-59.3896 485.308,-50.9682 475.031,-53.5425 478.879,-59.3896"/>
</g>
<!-- program~integrate_lorenz -->
<g id="node17" class="node"><title>program~integrate_lorenz</title>
<a xlink:href="../program/integrate_lorenz.html" xlink:title="integrate_lorenz">
<polygon fill="#f0ad4e" stroke="#f0ad4e" points="687,-39.9274 597,-39.9274 597,-13.9274 687,-13.9274 687,-39.9274"/>
<text text-anchor="middle" x="642" y="-24.4774" font-family="Helvetica,sans-Serif" font-size="10.50" fill="white">integrate_lorenz</text>
</a>
</g>
<!-- module~foodie&#45;&gt;program~integrate_lorenz -->
<g id="edge28" class="edge"><title>module~foodie&#45;&gt;program~integrate_lorenz</title>
<path fill="none" stroke="black" stroke-dasharray="5,2" d="M405.112,-126.765C410.161,-100.217 425.661,-40.6796 466,-15.9274 505.644,8.39791 560.219,-0.0226532 598.041,-10.8899"/>
<polygon fill="black" stroke="black" points="597.171,-14.2835 607.757,-13.8402 599.205,-7.5855 597.171,-14.2835"/>
</g>
<!-- module~foodie_integrator_adams_bashforth&#45;&gt;module~foodie -->
<g id="edge30" class="edge"><title>module~foodie_integrator_adams_bashforth&#45;&gt;module~foodie</title>
<path fill="none" stroke="black" stroke-dasharray="5,2" d="M321.566,-130.513C337.17,-132.317 352.554,-134.096 365.677,-135.613"/>
<polygon fill="black" stroke="black" points="365.341,-139.097 375.677,-136.769 366.145,-132.143 365.341,-139.097"/>
</g>
<!-- module~foodie_integrator_euler_explicit&#45;&gt;module~foodie -->
<g id="edge32" class="edge"><title>module~foodie_integrator_euler_explicit&#45;&gt;module~foodie</title>
<path fill="none" stroke="black" stroke-dasharray="5,2" d="M311.282,-88.421C321.132,-91.0288 330.914,-94.1637 340,-97.9274 353.839,-103.66 367.841,-112.611 379.118,-120.779"/>
<polygon fill="black" stroke="black" points="377.061,-123.612 387.163,-126.807 381.259,-118.01 377.061,-123.612"/>
</g>
<!-- module~foodie_integrator_leapfrog&#45;&gt;module~foodie -->
<g id="edge34" class="edge"><title>module~foodie_integrator_leapfrog&#45;&gt;module~foodie</title>
<path fill="none" stroke="black" stroke-dasharray="5,2" d="M299.606,-37.7884C313.728,-41.1353 327.933,-46.2273 340,-53.9274 364.269,-69.4136 382.304,-97.8306 392.722,-117.748"/>
<polygon fill="black" stroke="black" points="389.618,-119.366 397.218,-126.748 395.88,-116.238 389.618,-119.366"/>
</g>
<!-- module~type_oscillation&#45;&gt;program~integrate_oscillation -->
<g id="edge6" class="edge"><title>module~type_oscillation&#45;&gt;program~integrate_oscillation</title>
<path fill="none" stroke="black" stroke-dasharray="5,2" d="M551.814,-277.167C560.201,-275.843 569.165,-274.428 578.068,-273.022"/>
<polygon fill="black" stroke="black" points="578.728,-276.461 588.06,-271.444 577.636,-269.547 578.728,-276.461"/>
</g>
<!-- module~type_burgers&#45;&gt;program~integrate_burgers -->
<g id="edge8" class="edge"><title>module~type_burgers&#45;&gt;program~integrate_burgers</title>
<path fill="none" stroke="black" stroke-dasharray="5,2" d="M547.112,-195.91C558.387,-194.13 571.001,-192.138 583.259,-190.202"/>
<polygon fill="black" stroke="black" points="584.102,-193.613 593.434,-188.596 583.011,-186.698 584.102,-193.613"/>
</g>
<!-- module~type_euler_1d&#45;&gt;program~integrate_euler_1d -->
<g id="edge10" class="edge"><title>module~type_euler_1d&#45;&gt;program~integrate_euler_1d</title>
<path fill="none" stroke="black" stroke-dasharray="5,2" d="M550.353,-110.6C559.732,-108.484 569.894,-106.192 579.922,-103.93"/>
<polygon fill="black" stroke="black" points="580.885,-107.301 589.87,-101.686 579.345,-100.472 580.885,-107.301"/>
</g>
<!-- module~type_lorenz&#45;&gt;program~integrate_lorenz -->
<g id="edge12" class="edge"><title>module~type_lorenz&#45;&gt;program~integrate_lorenz</title>
<path fill="none" stroke="black" stroke-dasharray="5,2" d="M543.251,-35.0946C556.508,-33.9982 572.022,-32.7151 586.774,-31.495"/>
<polygon fill="black" stroke="black" points="587.15,-34.9759 596.827,-30.6635 586.573,-27.9998 587.15,-34.9759"/>
</g>
</g>
</svg>
