<?xml version="1.0" encoding="UTF-8" standalone="no"?>
<!DOCTYPE svg PUBLIC "-//W3C//DTD SVG 1.1//EN"
 "http://www.w3.org/Graphics/SVG/1.1/DTD/svg11.dtd">
<!-- Generated by graphviz version 2.26.3 (20100126.1600)
 -->
<!-- Title: module~~foodie_integrator_adams_bashforth~~UsedByGraph Pages: 1 -->
<svg width="548pt" height="294pt"
 viewBox="0.00 0.00 548.00 294.08" xmlns="http://www.w3.org/2000/svg" xmlns:xlink="http://www.w3.org/1999/xlink">
<g id="graph1" class="graph" transform="scale(1 1) rotate(0) translate(4 290.081)">
<title>module~~foodie_integrator_adams_bashforth~~UsedByGraph</title>
<polygon fill="white" stroke="white" points="-4,5 -4,-290.081 545,-290.081 545,5 -4,5"/>
<!-- module~foodie_integrator_adams_bashforth -->
<g id="node1" class="node"><title>module~foodie_integrator_adams_bashforth</title>
<polygon fill="none" stroke="black" points="183,-155.03 1,-155.03 1,-129.03 183,-129.03 183,-155.03"/>
<text text-anchor="middle" x="92" y="-139.58" font-family="Helvetica,sans-Serif" font-size="10.50">foodie_integrator_adams_bashforth</text>
</g>
<!-- module~foodie -->
<g id="node2" class="node"><title>module~foodie</title>
<a xlink:href="../module/foodie.html" xlink:title="foodie">
<polygon fill="#337ab7" stroke="#337ab7" points="274,-155.03 220,-155.03 220,-129.03 274,-129.03 274,-155.03"/>
<text text-anchor="middle" x="247" y="-139.58" font-family="Helvetica,sans-Serif" font-size="10.50" fill="white">foodie</text>
</a>
</g>
<!-- module~foodie_integrator_adams_bashforth&#45;&gt;module~foodie -->
<g id="edge26" class="edge"><title>module~foodie_integrator_adams_bashforth&#45;&gt;module~foodie</title>
<path fill="none" stroke="black" stroke-dasharray="5,2" d="M183.508,-142.03C192.714,-142.03 201.647,-142.03 209.764,-142.03"/>
<polygon fill="black" stroke="black" points="209.919,-145.53 219.919,-142.03 209.919,-138.53 209.919,-145.53"/>
</g>
<!-- program~integrate_burgers -->
<g id="node3" class="node"><title>program~integrate_burgers</title>
<a xlink:href="../program/integrate_burgers.html" xlink:title="integrate_burgers">
<polygon fill="#f0ad4e" stroke="#f0ad4e" points="534,-279.03 438,-279.03 438,-253.03 534,-253.03 534,-279.03"/>
<text text-anchor="middle" x="486" y="-263.58" font-family="Helvetica,sans-Serif" font-size="10.50" fill="white">integrate_burgers</text>
</a>
</g>
<!-- module~foodie&#45;&gt;program~integrate_burgers -->
<g id="edge10" class="edge"><title>module~foodie&#45;&gt;program~integrate_burgers</title>
<path fill="none" stroke="black" stroke-dasharray="5,2" d="M249.04,-155.396C253.957,-182.358 269.223,-242.828 310,-268.03 345.759,-290.13 393.909,-287.9 430.807,-281.108"/>
<polygon fill="black" stroke="black" points="431.778,-284.483 440.896,-279.087 430.404,-277.619 431.778,-284.483"/>
</g>
<!-- program~integrate_lorenz -->
<g id="node4" class="node"><title>program~integrate_lorenz</title>
<a xlink:href="../program/integrate_lorenz.html" xlink:title="integrate_lorenz">
<polygon fill="#f0ad4e" stroke="#f0ad4e" points="531,-197.03 441,-197.03 441,-171.03 531,-171.03 531,-197.03"/>
<text text-anchor="middle" x="486" y="-181.58" font-family="Helvetica,sans-Serif" font-size="10.50" fill="white">integrate_lorenz</text>
</a>
</g>
<!-- module~foodie&#45;&gt;program~integrate_lorenz -->
<g id="edge12" class="edge"><title>module~foodie&#45;&gt;program~integrate_lorenz</title>
<path fill="none" stroke="black" stroke-dasharray="5,2" d="M260.641,-155.324C272.563,-165.95 290.911,-180.023 310,-186.03 348.999,-198.3 395.307,-197.198 430.632,-193.35"/>
<polygon fill="black" stroke="black" points="431.24,-196.803 440.754,-192.141 430.409,-189.852 431.24,-196.803"/>
</g>
<!-- module~type_euler_1d -->
<g id="node5" class="node"><title>module~type_euler_1d</title>
<a xlink:href="../module/type_euler_1d.html" xlink:title="type_euler_1D">
<polygon fill="#337ab7" stroke="#337ab7" points="394,-133.03 312,-133.03 312,-107.03 394,-107.03 394,-133.03"/>
<text text-anchor="middle" x="353" y="-117.58" font-family="Helvetica,sans-Serif" font-size="10.50" fill="white">type_euler_1D</text>
</a>
</g>
<!-- module~foodie&#45;&gt;module~type_euler_1d -->
<g id="edge14" class="edge"><title>module~foodie&#45;&gt;module~type_euler_1d</title>
<path fill="none" stroke="black" stroke-dasharray="5,2" d="M274.023,-136.421C282.49,-134.664 292.133,-132.662 301.702,-130.676"/>
<polygon fill="black" stroke="black" points="302.514,-134.082 311.594,-128.623 301.092,-127.228 302.514,-134.082"/>
</g>
<!-- program~integrate_euler_1d -->
<g id="node6" class="node"><title>program~integrate_euler_1d</title>
<a xlink:href="../program/integrate_euler_1d.html" xlink:title="integrate_euler_1D">
<polygon fill="#f0ad4e" stroke="#f0ad4e" points="538,-103.03 434,-103.03 434,-77.0295 538,-77.0295 538,-103.03"/>
<text text-anchor="middle" x="486" y="-87.5795" font-family="Helvetica,sans-Serif" font-size="10.50" fill="white">integrate_euler_1D</text>
</a>
</g>
<!-- module~foodie&#45;&gt;program~integrate_euler_1d -->
<g id="edge16" class="edge"><title>module~foodie&#45;&gt;program~integrate_euler_1d</title>
<path fill="none" stroke="black" stroke-dasharray="5,2" d="M260.713,-128.957C272.68,-118.467 291.052,-104.468 310,-98.0295 346.219,-85.7229 389.054,-83.5312 423.397,-84.5087"/>
<polygon fill="black" stroke="black" points="423.639,-88.0205 433.766,-84.9062 423.907,-81.0256 423.639,-88.0205"/>
</g>
<!-- module~type_oscillation -->
<g id="node7" class="node"><title>module~type_oscillation</title>
<a xlink:href="../module/type_oscillation.html" xlink:title="type_oscillation">
<polygon fill="#337ab7" stroke="#337ab7" points="395,-51.0295 311,-51.0295 311,-25.0295 395,-25.0295 395,-51.0295"/>
<text text-anchor="middle" x="353" y="-35.5795" font-family="Helvetica,sans-Serif" font-size="10.50" fill="white">type_oscillation</text>
</a>
</g>
<!-- module~foodie&#45;&gt;module~type_oscillation -->
<g id="edge18" class="edge"><title>module~foodie&#45;&gt;module~type_oscillation</title>
<path fill="none" stroke="black" stroke-dasharray="5,2" d="M255.702,-128.947C266.941,-112.686 287.721,-84.683 310,-65.0295 313.198,-62.2086 316.722,-59.4896 320.336,-56.9348"/>
<polygon fill="black" stroke="black" points="322.425,-59.7493 328.819,-51.301 318.552,-53.9183 322.425,-59.7493"/>
</g>
<!-- module~type_lorenz -->
<g id="node8" class="node"><title>module~type_lorenz</title>
<a xlink:href="../module/type_lorenz.html" xlink:title="type_lorenz">
<polygon fill="#337ab7" stroke="#337ab7" points="387,-177.03 319,-177.03 319,-151.03 387,-151.03 387,-177.03"/>
<text text-anchor="middle" x="353" y="-161.58" font-family="Helvetica,sans-Serif" font-size="10.50" fill="white">type_lorenz</text>
</a>
</g>
<!-- module~foodie&#45;&gt;module~type_lorenz -->
<g id="edge20" class="edge"><title>module~foodie&#45;&gt;module~type_lorenz</title>
<path fill="none" stroke="black" stroke-dasharray="5,2" d="M274.023,-147.638C284.555,-149.824 296.905,-152.387 308.669,-154.829"/>
<polygon fill="black" stroke="black" points="308.294,-158.325 318.796,-156.931 309.716,-151.471 308.294,-158.325"/>
</g>
<!-- program~integrate_oscillation -->
<g id="node9" class="node"><title>program~integrate_oscillation</title>
<a xlink:href="../program/integrate_oscillation.html" xlink:title="integrate_oscillation">
<polygon fill="#f0ad4e" stroke="#f0ad4e" points="539,-40.0295 433,-40.0295 433,-14.0295 539,-14.0295 539,-40.0295"/>
<text text-anchor="middle" x="486" y="-24.5795" font-family="Helvetica,sans-Serif" font-size="10.50" fill="white">integrate_oscillation</text>
</a>
</g>
<!-- module~foodie&#45;&gt;program~integrate_oscillation -->
<g id="edge22" class="edge"><title>module~foodie&#45;&gt;program~integrate_oscillation</title>
<path fill="none" stroke="black" stroke-dasharray="5,2" d="M249.04,-128.663C253.957,-101.702 269.223,-41.2308 310,-16.0295 349.685,8.49702 404.485,-0.0725494 442.345,-11.0278"/>
<polygon fill="black" stroke="black" points="441.479,-14.4231 452.066,-14 443.526,-7.72896 441.479,-14.4231"/>
</g>
<!-- module~type_burgers -->
<g id="node10" class="node"><title>module~type_burgers</title>
<a xlink:href="../module/type_burgers.html" xlink:title="type_burgers">
<polygon fill="#337ab7" stroke="#337ab7" points="391,-259.03 315,-259.03 315,-233.03 391,-233.03 391,-259.03"/>
<text text-anchor="middle" x="353" y="-243.58" font-family="Helvetica,sans-Serif" font-size="10.50" fill="white">type_burgers</text>
</a>
</g>
<!-- module~foodie&#45;&gt;module~type_burgers -->
<g id="edge24" class="edge"><title>module~foodie&#45;&gt;module~type_burgers</title>
<path fill="none" stroke="black" stroke-dasharray="5,2" d="M255.702,-155.112C266.941,-171.373 287.721,-199.376 310,-219.03 313.198,-221.851 316.722,-224.569 320.336,-227.124"/>
<polygon fill="black" stroke="black" points="318.552,-230.141 328.819,-232.758 322.425,-224.31 318.552,-230.141"/>
</g>
<!-- module~type_euler_1d&#45;&gt;program~integrate_euler_1d -->
<g id="edge2" class="edge"><title>module~type_euler_1d&#45;&gt;program~integrate_euler_1d</title>
<path fill="none" stroke="black" stroke-dasharray="5,2" d="M394.353,-110.702C403.732,-108.586 413.894,-106.294 423.922,-104.032"/>
<polygon fill="black" stroke="black" points="424.885,-107.403 433.87,-101.788 423.345,-100.574 424.885,-107.403"/>
</g>
<!-- module~type_oscillation&#45;&gt;program~integrate_oscillation -->
<g id="edge4" class="edge"><title>module~type_oscillation&#45;&gt;program~integrate_oscillation</title>
<path fill="none" stroke="black" stroke-dasharray="5,2" d="M395.814,-34.4885C404.201,-33.7949 413.165,-33.0535 422.068,-32.3171"/>
<polygon fill="black" stroke="black" points="422.382,-35.8032 432.06,-31.4908 421.805,-28.827 422.382,-35.8032"/>
</g>
<!-- module~type_lorenz&#45;&gt;program~integrate_lorenz -->
<g id="edge6" class="edge"><title>module~type_lorenz&#45;&gt;program~integrate_lorenz</title>
<path fill="none" stroke="black" stroke-dasharray="5,2" d="M387.251,-169.18C400.508,-171.174 416.022,-173.507 430.774,-175.725"/>
<polygon fill="black" stroke="black" points="430.418,-179.211 440.827,-177.237 431.459,-172.288 430.418,-179.211"/>
</g>
<!-- module~type_burgers&#45;&gt;program~integrate_burgers -->
<g id="edge8" class="edge"><title>module~type_burgers&#45;&gt;program~integrate_burgers</title>
<path fill="none" stroke="black" stroke-dasharray="5,2" d="M391.112,-251.761C402.387,-253.456 415.001,-255.353 427.259,-257.196"/>
<polygon fill="black" stroke="black" points="427.025,-260.7 437.434,-258.726 428.066,-253.778 427.025,-260.7"/>
</g>
</g>
</svg>
