<?xml version="1.0" encoding="UTF-8" standalone="no"?>
<!DOCTYPE svg PUBLIC "-//W3C//DTD SVG 1.1//EN"
 "http://www.w3.org/Graphics/SVG/1.1/DTD/svg11.dtd">
<!-- Generated by graphviz version 2.26.3 (20100126.1600)
 -->
<!-- Title: module~~foodie_integrator_low_storage_runge_kutta~~UsedByGraph Pages: 1 -->
<svg width="584pt" height="280pt"
 viewBox="0.00 0.00 584.00 280.00" xmlns="http://www.w3.org/2000/svg" xmlns:xlink="http://www.w3.org/1999/xlink">
<g id="graph1" class="graph" transform="scale(1 1) rotate(0) translate(4 276)">
<title>module~~foodie_integrator_low_storage_runge_kutta~~UsedByGraph</title>
<polygon fill="white" stroke="white" points="-4,5 -4,-276 581,-276 581,5 -4,5"/>
<!-- module~foodie_integrator_low_storage_runge_kutta -->
<g id="node1" class="node"><title>module~foodie_integrator_low_storage_runge_kutta</title>
<polygon fill="none" stroke="black" points="220,-149 8.52651e-14,-149 0,-123 220,-123 220,-149"/>
<text text-anchor="middle" x="110" y="-133.55" font-family="Helvetica,sans-Serif" font-size="10.50">foodie_integrator_low_storage_runge_kutta</text>
</g>
<!-- module~foodie -->
<g id="node2" class="node"><title>module~foodie</title>
<a xlink:href="../module/foodie.html" xlink:title="foodie">
<polygon fill="#337ab7" stroke="#337ab7" points="310,-149 256,-149 256,-123 310,-123 310,-149"/>
<text text-anchor="middle" x="283" y="-133.55" font-family="Helvetica,sans-Serif" font-size="10.50" fill="white">foodie</text>
</a>
</g>
<!-- module~foodie_integrator_low_storage_runge_kutta&#45;&gt;module~foodie -->
<g id="edge26" class="edge"><title>module~foodie_integrator_low_storage_runge_kutta&#45;&gt;module~foodie</title>
<path fill="none" stroke="black" stroke-dasharray="5,2" d="M220.054,-136C229.125,-136 237.822,-136 245.703,-136"/>
<polygon fill="black" stroke="black" points="245.902,-139.5 255.902,-136 245.902,-132.5 245.902,-139.5"/>
</g>
<!-- module~type_burgers -->
<g id="node3" class="node"><title>module~type_burgers</title>
<a xlink:href="../module/type_burgers.html" xlink:title="type_burgers">
<polygon fill="#337ab7" stroke="#337ab7" points="427,-272 351,-272 351,-246 427,-246 427,-272"/>
<text text-anchor="middle" x="389" y="-256.55" font-family="Helvetica,sans-Serif" font-size="10.50" fill="white">type_burgers</text>
</a>
</g>
<!-- module~foodie&#45;&gt;module~type_burgers -->
<g id="edge10" class="edge"><title>module~foodie&#45;&gt;module~type_burgers</title>
<path fill="none" stroke="black" stroke-dasharray="5,2" d="M289.254,-149.061C299.178,-168.796 320.089,-206.604 346,-232 348.892,-234.834 352.131,-237.521 355.498,-240.022"/>
<polygon fill="black" stroke="black" points="353.779,-243.086 364.012,-245.832 357.726,-237.304 353.779,-243.086"/>
</g>
<!-- program~integrate_burgers -->
<g id="node4" class="node"><title>program~integrate_burgers</title>
<a xlink:href="../program/integrate_burgers.html" xlink:title="integrate_burgers">
<polygon fill="#f0ad4e" stroke="#f0ad4e" points="570,-251 474,-251 474,-225 570,-225 570,-251"/>
<text text-anchor="middle" x="522" y="-235.55" font-family="Helvetica,sans-Serif" font-size="10.50" fill="white">integrate_burgers</text>
</a>
</g>
<!-- module~foodie&#45;&gt;program~integrate_burgers -->
<g id="edge12" class="edge"><title>module~foodie&#45;&gt;program~integrate_burgers</title>
<path fill="none" stroke="black" stroke-dasharray="5,2" d="M292.337,-149.044C303.443,-163.552 323.352,-186.576 346,-199 382.088,-218.796 427.548,-228.545 463.225,-233.346"/>
<polygon fill="black" stroke="black" points="463.13,-236.861 473.486,-234.628 463.997,-229.915 463.13,-236.861"/>
</g>
<!-- module~type_euler_1d -->
<g id="node5" class="node"><title>module~type_euler_1d</title>
<a xlink:href="../module/type_euler_1d.html" xlink:title="type_euler_1D">
<polygon fill="#337ab7" stroke="#337ab7" points="430,-190 348,-190 348,-164 430,-164 430,-190"/>
<text text-anchor="middle" x="389" y="-174.55" font-family="Helvetica,sans-Serif" font-size="10.50" fill="white">type_euler_1D</text>
</a>
</g>
<!-- module~foodie&#45;&gt;module~type_euler_1d -->
<g id="edge14" class="edge"><title>module~foodie&#45;&gt;module~type_euler_1d</title>
<path fill="none" stroke="black" stroke-dasharray="5,2" d="M310.023,-146.452C320.864,-150.646 333.632,-155.584 345.705,-160.254"/>
<polygon fill="black" stroke="black" points="344.598,-163.578 355.188,-163.922 347.124,-157.05 344.598,-163.578"/>
</g>
<!-- program~integrate_oscillation -->
<g id="node6" class="node"><title>program~integrate_oscillation</title>
<a xlink:href="../program/integrate_oscillation.html" xlink:title="integrate_oscillation">
<polygon fill="#f0ad4e" stroke="#f0ad4e" points="575,-108 469,-108 469,-82 575,-82 575,-108"/>
<text text-anchor="middle" x="522" y="-92.55" font-family="Helvetica,sans-Serif" font-size="10.50" fill="white">integrate_oscillation</text>
</a>
</g>
<!-- module~foodie&#45;&gt;program~integrate_oscillation -->
<g id="edge16" class="edge"><title>module~foodie&#45;&gt;program~integrate_oscillation</title>
<path fill="none" stroke="black" stroke-dasharray="5,2" d="M310.049,-137.055C331.491,-137.637 362.2,-137.905 389,-136"/>
<path fill="none" stroke="black" stroke-dasharray="5,2" d="M389,-136C406.146,-134.781 445.317,-122.253 476.733,-111.362"/>
<polygon fill="black" stroke="black" points="477.918,-114.655 486.201,-108.049 475.607,-108.048 477.918,-114.655"/>
</g>
<!-- program~integrate_euler_1d -->
<g id="node7" class="node"><title>program~integrate_euler_1d</title>
<a xlink:href="../program/integrate_euler_1d.html" xlink:title="integrate_euler_1D">
<polygon fill="#f0ad4e" stroke="#f0ad4e" points="574,-152 470,-152 470,-126 574,-126 574,-152"/>
<text text-anchor="middle" x="522" y="-136.55" font-family="Helvetica,sans-Serif" font-size="10.50" fill="white">integrate_euler_1D</text>
</a>
</g>
<!-- module~foodie&#45;&gt;program~integrate_euler_1d -->
<g id="edge18" class="edge"><title>module~foodie&#45;&gt;program~integrate_euler_1d</title>
<path fill="none" stroke="black" stroke-dasharray="5,2" d="M389,-136C412.075,-134.36 437.453,-134.463 459.8,-135.195"/>
<polygon fill="black" stroke="black" points="459.71,-138.694 469.835,-135.572 459.973,-131.699 459.71,-138.694"/>
</g>
<!-- program~integrate_lorenz -->
<g id="node8" class="node"><title>program~integrate_lorenz</title>
<a xlink:href="../program/integrate_lorenz.html" xlink:title="integrate_lorenz">
<polygon fill="#f0ad4e" stroke="#f0ad4e" points="567,-45 477,-45 477,-19 567,-19 567,-45"/>
<text text-anchor="middle" x="522" y="-29.55" font-family="Helvetica,sans-Serif" font-size="10.50" fill="white">integrate_lorenz</text>
</a>
</g>
<!-- module~foodie&#45;&gt;program~integrate_lorenz -->
<g id="edge20" class="edge"><title>module~foodie&#45;&gt;program~integrate_lorenz</title>
<path fill="none" stroke="black" stroke-dasharray="5,2" d="M292.362,-123C303.49,-108.533 323.42,-85.5457 346,-73 383.192,-52.336 430.37,-42.0595 466.516,-36.964"/>
<polygon fill="black" stroke="black" points="467.42,-40.3754 476.878,-35.6014 466.507,-33.4351 467.42,-40.3754"/>
</g>
<!-- module~type_lorenz -->
<g id="node9" class="node"><title>module~type_lorenz</title>
<a xlink:href="../module/type_lorenz.html" xlink:title="type_lorenz">
<polygon fill="#337ab7" stroke="#337ab7" points="423,-26 355,-26 355,-1.24345e-14 423,-3.55271e-15 423,-26"/>
<text text-anchor="middle" x="389" y="-10.55" font-family="Helvetica,sans-Serif" font-size="10.50" fill="white">type_lorenz</text>
</a>
</g>
<!-- module~foodie&#45;&gt;module~type_lorenz -->
<g id="edge22" class="edge"><title>module~foodie&#45;&gt;module~type_lorenz</title>
<path fill="none" stroke="black" stroke-dasharray="5,2" d="M289.254,-122.939C299.178,-103.204 320.089,-65.3964 346,-40 348.892,-37.1655 352.131,-34.4789 355.498,-31.9784"/>
<polygon fill="black" stroke="black" points="357.726,-34.6959 364.012,-26.1677 353.779,-28.9141 357.726,-34.6959"/>
</g>
<!-- module~type_oscillation -->
<g id="node10" class="node"><title>module~type_oscillation</title>
<a xlink:href="../module/type_oscillation.html" xlink:title="type_oscillation">
<polygon fill="#337ab7" stroke="#337ab7" points="431,-108 347,-108 347,-82 431,-82 431,-108"/>
<text text-anchor="middle" x="389" y="-92.55" font-family="Helvetica,sans-Serif" font-size="10.50" fill="white">type_oscillation</text>
</a>
</g>
<!-- module~foodie&#45;&gt;module~type_oscillation -->
<g id="edge24" class="edge"><title>module~foodie&#45;&gt;module~type_oscillation</title>
<path fill="none" stroke="black" stroke-dasharray="5,2" d="M310.023,-125.548C320.864,-121.354 333.632,-116.416 345.705,-111.746"/>
<polygon fill="black" stroke="black" points="347.124,-114.95 355.188,-108.078 344.598,-108.422 347.124,-114.95"/>
</g>
<!-- module~type_burgers&#45;&gt;program~integrate_burgers -->
<g id="edge2" class="edge"><title>module~type_burgers&#45;&gt;program~integrate_burgers</title>
<path fill="none" stroke="black" stroke-dasharray="5,2" d="M427.112,-252.982C438.387,-251.202 451.001,-249.21 463.259,-247.275"/>
<polygon fill="black" stroke="black" points="464.102,-250.685 473.434,-245.668 463.011,-243.771 464.102,-250.685"/>
</g>
<!-- module~type_euler_1d&#45;&gt;program~integrate_euler_1d -->
<g id="edge4" class="edge"><title>module~type_euler_1d&#45;&gt;program~integrate_euler_1d</title>
<path fill="none" stroke="black" stroke-dasharray="5,2" d="M430.353,-165.185C441.672,-161.951 454.131,-158.391 466.118,-154.966"/>
<polygon fill="black" stroke="black" points="467.386,-158.244 476.04,-152.131 465.463,-151.513 467.386,-158.244"/>
</g>
<!-- module~type_lorenz&#45;&gt;program~integrate_lorenz -->
<g id="edge6" class="edge"><title>module~type_lorenz&#45;&gt;program~integrate_lorenz</title>
<path fill="none" stroke="black" stroke-dasharray="5,2" d="M423.251,-17.893C436.508,-19.7869 452.022,-22.0032 466.774,-24.1105"/>
<polygon fill="black" stroke="black" points="466.433,-27.5973 476.827,-25.5468 467.423,-20.6676 466.433,-27.5973"/>
</g>
<!-- module~type_oscillation&#45;&gt;program~integrate_oscillation -->
<g id="edge8" class="edge"><title>module~type_oscillation&#45;&gt;program~integrate_oscillation</title>
<path fill="none" stroke="black" stroke-dasharray="5,2" d="M431.814,-95C440.11,-95 448.972,-95 457.781,-95"/>
<polygon fill="black" stroke="black" points="458.06,-98.5001 468.06,-95 458.06,-91.5001 458.06,-98.5001"/>
</g>
</g>
</svg>
