<?xml version="1.0" encoding="UTF-8" standalone="no"?>
<!DOCTYPE svg PUBLIC "-//W3C//DTD SVG 1.1//EN"
 "http://www.w3.org/Graphics/SVG/1.1/DTD/svg11.dtd">
<!-- Generated by graphviz version 2.26.3 (20100126.1600)
 -->
<!-- Title: module~~foodie_integrator_tvd_runge_kutta~~UsedByGraph Pages: 1 -->
<svg width="542pt" height="268pt"
 viewBox="0.00 0.00 542.00 268.01" xmlns="http://www.w3.org/2000/svg" xmlns:xlink="http://www.w3.org/1999/xlink">
<g id="graph1" class="graph" transform="scale(1 1) rotate(0) translate(4 264.012)">
<title>module~~foodie_integrator_tvd_runge_kutta~~UsedByGraph</title>
<polygon fill="white" stroke="white" points="-4,5 -4,-264.012 539,-264.012 539,5 -4,5"/>
<!-- module~foodie_integrator_tvd_runge_kutta -->
<g id="node1" class="node"><title>module~foodie_integrator_tvd_runge_kutta</title>
<polygon fill="none" stroke="black" points="177,-137.012 1,-137.012 1,-111.012 177,-111.012 177,-137.012"/>
<text text-anchor="middle" x="89" y="-121.562" font-family="Helvetica,sans-Serif" font-size="10.50">foodie_integrator_tvd_runge_kutta</text>
</g>
<!-- module~foodie -->
<g id="node2" class="node"><title>module~foodie</title>
<a xlink:href="../module/foodie.html" xlink:title="foodie">
<polygon fill="#337ab7" stroke="#337ab7" points="268,-137.012 214,-137.012 214,-111.012 268,-111.012 268,-137.012"/>
<text text-anchor="middle" x="241" y="-121.562" font-family="Helvetica,sans-Serif" font-size="10.50" fill="white">foodie</text>
</a>
</g>
<!-- module~foodie_integrator_tvd_runge_kutta&#45;&gt;module~foodie -->
<g id="edge26" class="edge"><title>module~foodie_integrator_tvd_runge_kutta&#45;&gt;module~foodie</title>
<path fill="none" stroke="black" stroke-dasharray="5,2" d="M177.859,-124.012C186.893,-124.012 195.678,-124.012 203.682,-124.012"/>
<polygon fill="black" stroke="black" points="203.71,-127.512 213.71,-124.012 203.71,-120.512 203.71,-127.512"/>
</g>
<!-- module~type_euler_1d -->
<g id="node3" class="node"><title>module~type_euler_1d</title>
<a xlink:href="../module/type_euler_1d.html" xlink:title="type_euler_1D">
<polygon fill="#337ab7" stroke="#337ab7" points="388,-260.012 306,-260.012 306,-234.012 388,-234.012 388,-260.012"/>
<text text-anchor="middle" x="347" y="-244.562" font-family="Helvetica,sans-Serif" font-size="10.50" fill="white">type_euler_1D</text>
</a>
</g>
<!-- module~foodie&#45;&gt;module~type_euler_1d -->
<g id="edge10" class="edge"><title>module~foodie&#45;&gt;module~type_euler_1d</title>
<path fill="none" stroke="black" stroke-dasharray="5,2" d="M247.254,-137.073C257.178,-156.808 278.089,-194.616 304,-220.012 306.892,-222.846 310.131,-225.533 313.498,-228.034"/>
<polygon fill="black" stroke="black" points="311.779,-231.098 322.012,-233.844 315.726,-225.316 311.779,-231.098"/>
</g>
<!-- module~type_burgers -->
<g id="node4" class="node"><title>module~type_burgers</title>
<a xlink:href="../module/type_burgers.html" xlink:title="type_burgers">
<polygon fill="#337ab7" stroke="#337ab7" points="385,-178.012 309,-178.012 309,-152.012 385,-152.012 385,-178.012"/>
<text text-anchor="middle" x="347" y="-162.562" font-family="Helvetica,sans-Serif" font-size="10.50" fill="white">type_burgers</text>
</a>
</g>
<!-- module~foodie&#45;&gt;module~type_burgers -->
<g id="edge12" class="edge"><title>module~foodie&#45;&gt;module~type_burgers</title>
<path fill="none" stroke="black" stroke-dasharray="5,2" d="M268.023,-134.464C278.864,-138.658 291.632,-143.596 303.705,-148.266"/>
<polygon fill="black" stroke="black" points="302.598,-151.59 313.188,-151.934 305.124,-145.062 302.598,-151.59"/>
</g>
<!-- program~integrate_burgers -->
<g id="node5" class="node"><title>program~integrate_burgers</title>
<a xlink:href="../program/integrate_burgers.html" xlink:title="integrate_burgers">
<polygon fill="#f0ad4e" stroke="#f0ad4e" points="528,-140.012 432,-140.012 432,-114.012 528,-114.012 528,-140.012"/>
<text text-anchor="middle" x="480" y="-124.562" font-family="Helvetica,sans-Serif" font-size="10.50" fill="white">integrate_burgers</text>
</a>
</g>
<!-- module~foodie&#45;&gt;program~integrate_burgers -->
<g id="edge14" class="edge"><title>module~foodie&#45;&gt;program~integrate_burgers</title>
<path fill="none" stroke="black" stroke-dasharray="5,2" d="M347,-124.012C371.283,-122.286 398.116,-122.49 421.283,-123.327"/>
<polygon fill="black" stroke="black" points="421.172,-126.826 431.307,-123.736 421.458,-119.831 421.172,-126.826"/>
</g>
<!-- program~integrate_oscillation -->
<g id="node6" class="node"><title>program~integrate_oscillation</title>
<a xlink:href="../program/integrate_oscillation.html" xlink:title="integrate_oscillation">
<polygon fill="#f0ad4e" stroke="#f0ad4e" points="533,-96.012 427,-96.012 427,-70.012 533,-70.012 533,-96.012"/>
<text text-anchor="middle" x="480" y="-80.562" font-family="Helvetica,sans-Serif" font-size="10.50" fill="white">integrate_oscillation</text>
</a>
</g>
<!-- module~foodie&#45;&gt;program~integrate_oscillation -->
<g id="edge16" class="edge"><title>module~foodie&#45;&gt;program~integrate_oscillation</title>
<path fill="none" stroke="black" stroke-dasharray="5,2" d="M268.049,-125.067C289.491,-125.649 320.2,-125.917 347,-124.012"/>
<path fill="none" stroke="black" stroke-dasharray="5,2" d="M347,-124.012C364.146,-122.793 403.317,-110.265 434.733,-99.3741"/>
<polygon fill="black" stroke="black" points="435.918,-102.668 444.201,-96.0612 433.607,-96.0603 435.918,-102.668"/>
</g>
<!-- module~type_lorenz -->
<g id="node7" class="node"><title>module~type_lorenz</title>
<a xlink:href="../module/type_lorenz.html" xlink:title="type_lorenz">
<polygon fill="#337ab7" stroke="#337ab7" points="381,-52.012 313,-52.012 313,-26.012 381,-26.012 381,-52.012"/>
<text text-anchor="middle" x="347" y="-36.562" font-family="Helvetica,sans-Serif" font-size="10.50" fill="white">type_lorenz</text>
</a>
</g>
<!-- module~foodie&#45;&gt;module~type_lorenz -->
<g id="edge18" class="edge"><title>module~foodie&#45;&gt;module~type_lorenz</title>
<path fill="none" stroke="black" stroke-dasharray="5,2" d="M251.831,-110.984C263.648,-97.3327 283.615,-75.8487 304,-61.012 305.627,-59.8277 307.327,-58.6721 309.072,-57.5502"/>
<polygon fill="black" stroke="black" points="311.216,-60.3487 318.041,-52.2452 307.652,-54.3237 311.216,-60.3487"/>
</g>
<!-- program~integrate_euler_1d -->
<g id="node8" class="node"><title>program~integrate_euler_1d</title>
<a xlink:href="../program/integrate_euler_1d.html" xlink:title="integrate_euler_1D">
<polygon fill="#f0ad4e" stroke="#f0ad4e" points="532,-239.012 428,-239.012 428,-213.012 532,-213.012 532,-239.012"/>
<text text-anchor="middle" x="480" y="-223.562" font-family="Helvetica,sans-Serif" font-size="10.50" fill="white">integrate_euler_1D</text>
</a>
</g>
<!-- module~foodie&#45;&gt;program~integrate_euler_1d -->
<g id="edge20" class="edge"><title>module~foodie&#45;&gt;program~integrate_euler_1d</title>
<path fill="none" stroke="black" stroke-dasharray="5,2" d="M250.337,-137.056C261.443,-151.564 281.352,-174.588 304,-187.012 338.839,-206.123 382.413,-215.871 417.487,-220.842"/>
<polygon fill="black" stroke="black" points="417.237,-224.339 427.609,-222.178 418.154,-217.399 417.237,-224.339"/>
</g>
<!-- module~type_oscillation -->
<g id="node9" class="node"><title>module~type_oscillation</title>
<a xlink:href="../module/type_oscillation.html" xlink:title="type_oscillation">
<polygon fill="#337ab7" stroke="#337ab7" points="389,-96.012 305,-96.012 305,-70.012 389,-70.012 389,-96.012"/>
<text text-anchor="middle" x="347" y="-80.562" font-family="Helvetica,sans-Serif" font-size="10.50" fill="white">type_oscillation</text>
</a>
</g>
<!-- module~foodie&#45;&gt;module~type_oscillation -->
<g id="edge22" class="edge"><title>module~foodie&#45;&gt;module~type_oscillation</title>
<path fill="none" stroke="black" stroke-dasharray="5,2" d="M268.023,-113.56C278.864,-109.366 291.632,-104.428 303.705,-99.7582"/>
<polygon fill="black" stroke="black" points="305.124,-102.962 313.188,-96.0904 302.598,-96.4336 305.124,-102.962"/>
</g>
<!-- program~integrate_lorenz -->
<g id="node10" class="node"><title>program~integrate_lorenz</title>
<a xlink:href="../program/integrate_lorenz.html" xlink:title="integrate_lorenz">
<polygon fill="#f0ad4e" stroke="#f0ad4e" points="525,-32.012 435,-32.012 435,-6.01202 525,-6.01202 525,-32.012"/>
<text text-anchor="middle" x="480" y="-16.562" font-family="Helvetica,sans-Serif" font-size="10.50" fill="white">integrate_lorenz</text>
</a>
</g>
<!-- module~foodie&#45;&gt;program~integrate_lorenz -->
<g id="edge24" class="edge"><title>module~foodie&#45;&gt;program~integrate_lorenz</title>
<path fill="none" stroke="black" stroke-dasharray="5,2" d="M244.209,-110.773C250.779,-86.9512 268.255,-37.4468 304,-17.012 340.373,3.78159 388.27,1.72807 424.913,-4.66413"/>
<polygon fill="black" stroke="black" points="424.454,-8.13934 434.931,-6.56673 425.76,-1.26227 424.454,-8.13934"/>
</g>
<!-- module~type_euler_1d&#45;&gt;program~integrate_euler_1d -->
<g id="edge2" class="edge"><title>module~type_euler_1d&#45;&gt;program~integrate_euler_1d</title>
<path fill="none" stroke="black" stroke-dasharray="5,2" d="M388.353,-240.483C397.732,-239.002 407.894,-237.397 417.922,-235.814"/>
<polygon fill="black" stroke="black" points="418.539,-239.26 427.87,-234.243 417.447,-232.346 418.539,-239.26"/>
</g>
<!-- module~type_burgers&#45;&gt;program~integrate_burgers -->
<g id="edge4" class="edge"><title>module~type_burgers&#45;&gt;program~integrate_burgers</title>
<path fill="none" stroke="black" stroke-dasharray="5,2" d="M385.112,-154.123C397.346,-150.627 411.158,-146.681 424.38,-142.904"/>
<polygon fill="black" stroke="black" points="425.686,-146.171 434.339,-140.058 423.763,-139.44 425.686,-146.171"/>
</g>
<!-- module~type_lorenz&#45;&gt;program~integrate_lorenz -->
<g id="edge6" class="edge"><title>module~type_lorenz&#45;&gt;program~integrate_lorenz</title>
<path fill="none" stroke="black" stroke-dasharray="5,2" d="M381.251,-33.8615C394.508,-31.8679 410.022,-29.535 424.774,-27.3167"/>
<polygon fill="black" stroke="black" points="425.459,-30.7531 434.827,-25.8049 424.418,-23.8309 425.459,-30.7531"/>
</g>
<!-- module~type_oscillation&#45;&gt;program~integrate_oscillation -->
<g id="edge8" class="edge"><title>module~type_oscillation&#45;&gt;program~integrate_oscillation</title>
<path fill="none" stroke="black" stroke-dasharray="5,2" d="M389.814,-83.012C398.11,-83.012 406.972,-83.012 415.781,-83.012"/>
<polygon fill="black" stroke="black" points="416.06,-86.5121 426.06,-83.012 416.06,-79.5121 416.06,-86.5121"/>
</g>
</g>
</svg>
