<?xml version="1.0" encoding="UTF-8" standalone="no"?>
<!DOCTYPE svg PUBLIC "-//W3C//DTD SVG 1.1//EN"
 "http://www.w3.org/Graphics/SVG/1.1/DTD/svg11.dtd">
<!-- Generated by graphviz version 2.38.0 (20140413.2041)
 -->
<!-- Title: module~~type_integrand~~UsedByGraph Pages: 1 -->
<svg width="641pt" height="226pt"
 viewBox="0.00 0.00 641.00 225.55" xmlns="http://www.w3.org/2000/svg" xmlns:xlink="http://www.w3.org/1999/xlink">
<g id="graph0" class="graph" transform="scale(0.96391 0.96391) rotate(0) translate(4 230)">
<title>module~~type_integrand~~UsedByGraph</title>
<polygon fill="white" stroke="none" points="-4,4 -4,-230 661,-230 661,4 -4,4"/>
<!-- module~type_integrand -->
<g id="node1" class="node"><title>module~type_integrand</title>
<polygon fill="none" stroke="black" points="84,-125 7.10543e-15,-125 7.10543e-15,-101 84,-101 84,-125"/>
<text text-anchor="middle" x="42" y="-110.6" font-family="Helvetica,sans-Serif" font-size="10.50">type_integrand</text>
</g>
<!-- module~foodie_integrator_adams_bashforth -->
<g id="node2" class="node"><title>module~foodie_integrator_adams_bashforth</title>
<g id="a_node2"><a xlink:href="../module/foodie_integrator_adams_bashforth.html" xlink:title="foodie_integrator_adams_bashforth">
<polygon fill="#337ab7" stroke="#337ab7" points="303,-185 120,-185 120,-161 303,-161 303,-185"/>
<text text-anchor="middle" x="211.5" y="-170.6" font-family="Helvetica,sans-Serif" font-size="10.50" fill="white">foodie_integrator_adams_bashforth</text>
</a>
</g>
</g>
<!-- module~type_integrand&#45;&gt;module~foodie_integrator_adams_bashforth -->
<g id="edge14" class="edge"><title>module~type_integrand&#45;&gt;module~foodie_integrator_adams_bashforth</title>
<path fill="none" stroke="black" stroke-dasharray="5,2" d="M67.9638,-125.057C82.864,-131.992 102.277,-140.575 120,-147 130.936,-150.964 142.784,-154.734 154.193,-158.11"/>
<polygon fill="black" stroke="black" points="153.493,-161.551 164.072,-160.971 155.44,-154.827 153.493,-161.551"/>
</g>
<!-- module~foodie -->
<g id="node3" class="node"><title>module~foodie</title>
<g id="a_node3"><a xlink:href="../module/foodie.html" xlink:title="foodie">
<polygon fill="#337ab7" stroke="#337ab7" points="393,-125 339,-125 339,-101 393,-101 393,-125"/>
<text text-anchor="middle" x="366" y="-110.6" font-family="Helvetica,sans-Serif" font-size="10.50" fill="white">foodie</text>
</a>
</g>
</g>
<!-- module~type_integrand&#45;&gt;module~foodie -->
<g id="edge15" class="edge"><title>module~type_integrand&#45;&gt;module~foodie</title>
<path fill="none" stroke="black" stroke-dasharray="5,2" d="M84.1589,-113.633C95.7505,-113.785 108.369,-113.924 120,-114 201.332,-114.528 221.669,-114.656 303,-114 311.25,-113.933 320.118,-113.817 328.493,-113.687"/>
<polygon fill="black" stroke="black" points="328.815,-117.182 338.755,-113.517 328.699,-110.183 328.815,-117.182"/>
</g>
<!-- module~foodie_integrator_tvd_runge_kutta -->
<g id="node4" class="node"><title>module~foodie_integrator_tvd_runge_kutta</title>
<g id="a_node4"><a xlink:href="../module/foodie_integrator_tvd_runge_kutta.html" xlink:title="foodie_integrator_tvd_runge_kutta">
<polygon fill="#337ab7" stroke="#337ab7" points="300,-105 123,-105 123,-81 300,-81 300,-105"/>
<text text-anchor="middle" x="211.5" y="-90.6" font-family="Helvetica,sans-Serif" font-size="10.50" fill="white">foodie_integrator_tvd_runge_kutta</text>
</a>
</g>
</g>
<!-- module~type_integrand&#45;&gt;module~foodie_integrator_tvd_runge_kutta -->
<g id="edge16" class="edge"><title>module~type_integrand&#45;&gt;module~foodie_integrator_tvd_runge_kutta</title>
<path fill="none" stroke="black" stroke-dasharray="5,2" d="M84.4045,-108.056C93.1962,-107.006 102.833,-105.856 112.738,-104.673"/>
<polygon fill="black" stroke="black" points="113.198,-108.143 122.713,-103.482 112.368,-101.192 113.198,-108.143"/>
</g>
<!-- module~foodie_integrator_euler_explicit -->
<g id="node5" class="node"><title>module~foodie_integrator_euler_explicit</title>
<g id="a_node5"><a xlink:href="../module/foodie_integrator_euler_explicit.html" xlink:title="foodie_integrator_euler_explicit">
<polygon fill="#337ab7" stroke="#337ab7" points="292.5,-63 130.5,-63 130.5,-39 292.5,-39 292.5,-63"/>
<text text-anchor="middle" x="211.5" y="-48.6" font-family="Helvetica,sans-Serif" font-size="10.50" fill="white">foodie_integrator_euler_explicit</text>
</a>
</g>
</g>
<!-- module~type_integrand&#45;&gt;module~foodie_integrator_euler_explicit -->
<g id="edge17" class="edge"><title>module~type_integrand&#45;&gt;module~foodie_integrator_euler_explicit</title>
<path fill="none" stroke="black" stroke-dasharray="5,2" d="M62.2774,-100.907C77.4652,-91.8379 99.437,-79.7082 120,-72 125.947,-69.7708 132.205,-67.7305 138.539,-65.8738"/>
<polygon fill="black" stroke="black" points="139.818,-69.1512 148.519,-63.1065 137.948,-62.4058 139.818,-69.1512"/>
</g>
<!-- module~foodie_integrator_adams_bashforth&#45;&gt;module~foodie -->
<g id="edge1" class="edge"><title>module~foodie_integrator_adams_bashforth&#45;&gt;module~foodie</title>
<path fill="none" stroke="black" stroke-dasharray="5,2" d="M262.025,-160.914C275.522,-157.045 290.001,-152.354 303,-147 314.501,-142.263 326.61,-135.95 337.044,-130.05"/>
<polygon fill="black" stroke="black" points="338.827,-133.063 345.726,-125.022 335.318,-127.006 338.827,-133.063"/>
</g>
<!-- module~type_burgers -->
<g id="node6" class="node"><title>module~type_burgers</title>
<g id="a_node6"><a xlink:href="../module/type_burgers.html" xlink:title="type_burgers">
<polygon fill="#337ab7" stroke="#337ab7" points="509.5,-226 433.5,-226 433.5,-202 509.5,-202 509.5,-226"/>
<text text-anchor="middle" x="471.5" y="-211.6" font-family="Helvetica,sans-Serif" font-size="10.50" fill="white">type_burgers</text>
</a>
</g>
</g>
<!-- module~foodie&#45;&gt;module~type_burgers -->
<g id="edge5" class="edge"><title>module~foodie&#45;&gt;module~type_burgers</title>
<path fill="none" stroke="black" stroke-dasharray="5,2" d="M375.205,-125.19C386.198,-140.937 406.897,-168.621 429,-188 432.236,-190.838 435.816,-193.57 439.476,-196.127"/>
<polygon fill="black" stroke="black" points="437.758,-199.186 448.039,-201.744 441.597,-193.333 437.758,-199.186"/>
</g>
<!-- program~integrate_lorenz -->
<g id="node7" class="node"><title>program~integrate_lorenz</title>
<g id="a_node7"><a xlink:href="../program/integrate_lorenz.html" xlink:title="integrate_lorenz">
<polygon fill="#f0ad4e" stroke="#f0ad4e" points="648.5,-146 558.5,-146 558.5,-122 648.5,-122 648.5,-146"/>
<text text-anchor="middle" x="603.5" y="-131.6" font-family="Helvetica,sans-Serif" font-size="10.50" fill="white">integrate_lorenz</text>
</a>
</g>
</g>
<!-- module~foodie&#45;&gt;program~integrate_lorenz -->
<g id="edge6" class="edge"><title>module~foodie&#45;&gt;program~integrate_lorenz</title>
<path fill="none" stroke="black" stroke-dasharray="5,2" d="M380.445,-125.11C399.053,-140.821 434.456,-167.044 470.5,-174"/>
<path fill="none" stroke="black" stroke-dasharray="5,2" d="M472.5,-174C481.258,-175.69 524.959,-161.453 559.307,-149.499"/>
<polygon fill="black" stroke="black" points="560.884,-152.655 569.163,-146.044 558.568,-146.05 560.884,-152.655"/>
</g>
<!-- module~type_oscillation -->
<g id="node8" class="node"><title>module~type_oscillation</title>
<g id="a_node8"><a xlink:href="../module/type_oscillation.html" xlink:title="type_oscillation">
<polygon fill="#337ab7" stroke="#337ab7" points="514,-104 429,-104 429,-80 514,-80 514,-104"/>
<text text-anchor="middle" x="471.5" y="-89.6" font-family="Helvetica,sans-Serif" font-size="10.50" fill="white">type_oscillation</text>
</a>
</g>
</g>
<!-- module~foodie&#45;&gt;module~type_oscillation -->
<g id="edge7" class="edge"><title>module~foodie&#45;&gt;module~type_oscillation</title>
<path fill="none" stroke="black" stroke-dasharray="5,2" d="M393.117,-107.701C400.949,-106.112 409.829,-104.31 418.71,-102.508"/>
<polygon fill="black" stroke="black" points="419.578,-105.903 428.682,-100.485 418.186,-99.0432 419.578,-105.903"/>
</g>
<!-- module~type_lorenz -->
<g id="node9" class="node"><title>module~type_lorenz</title>
<g id="a_node9"><a xlink:href="../module/type_lorenz.html" xlink:title="type_lorenz">
<polygon fill="#337ab7" stroke="#337ab7" points="505.5,-146 437.5,-146 437.5,-122 505.5,-122 505.5,-146"/>
<text text-anchor="middle" x="471.5" y="-131.6" font-family="Helvetica,sans-Serif" font-size="10.50" fill="white">type_lorenz</text>
</a>
</g>
</g>
<!-- module~foodie&#45;&gt;module~type_lorenz -->
<g id="edge8" class="edge"><title>module~foodie&#45;&gt;module~type_lorenz</title>
<path fill="none" stroke="black" stroke-dasharray="5,2" d="M393.117,-118.299C403.492,-120.404 415.706,-122.882 427.327,-125.24"/>
<polygon fill="black" stroke="black" points="426.829,-128.71 437.325,-127.269 428.221,-121.85 426.829,-128.71"/>
</g>
<!-- program~integrate_burgers -->
<g id="node10" class="node"><title>program~integrate_burgers</title>
<g id="a_node10"><a xlink:href="../program/integrate_burgers.html" xlink:title="integrate_burgers">
<polygon fill="#f0ad4e" stroke="#f0ad4e" points="652,-188 555,-188 555,-164 652,-164 652,-188"/>
<text text-anchor="middle" x="603.5" y="-173.6" font-family="Helvetica,sans-Serif" font-size="10.50" fill="white">integrate_burgers</text>
</a>
</g>
</g>
<!-- module~foodie&#45;&gt;program~integrate_burgers -->
<g id="edge9" class="edge"><title>module~foodie&#45;&gt;program~integrate_burgers</title>
<path fill="none" stroke="black" stroke-dasharray="5,2" d="M472.5,-174C495.852,-178.506 522.003,-179.642 544.693,-179.419"/>
<polygon fill="black" stroke="black" points="544.92,-182.915 554.853,-179.227 544.788,-175.916 544.92,-182.915"/>
</g>
<!-- program~integrate_oscillation -->
<g id="node11" class="node"><title>program~integrate_oscillation</title>
<g id="a_node11"><a xlink:href="../program/integrate_oscillation.html" xlink:title="integrate_oscillation">
<polygon fill="#f0ad4e" stroke="#f0ad4e" points="657,-84 550,-84 550,-60 657,-60 657,-84"/>
<text text-anchor="middle" x="603.5" y="-69.6" font-family="Helvetica,sans-Serif" font-size="10.50" fill="white">integrate_oscillation</text>
</a>
</g>
</g>
<!-- module~foodie&#45;&gt;program~integrate_oscillation -->
<g id="edge10" class="edge"><title>module~foodie&#45;&gt;program~integrate_oscillation</title>
<path fill="none" stroke="black" stroke-dasharray="5,2" d="M380.029,-100.707C391.792,-90.5164 410.108,-76.7966 429,-71 464.492,-60.1101 506.025,-59.9378 539.555,-62.6874"/>
<polygon fill="black" stroke="black" points="539.408,-66.1886 549.688,-63.6258 540.054,-59.2185 539.408,-66.1886"/>
</g>
<!-- module~type_euler_1d -->
<g id="node12" class="node"><title>module~type_euler_1d</title>
<g id="a_node12"><a xlink:href="../module/type_euler_1d.html" xlink:title="type_euler_1D">
<polygon fill="#337ab7" stroke="#337ab7" points="512.5,-24 430.5,-24 430.5,-0 512.5,-0 512.5,-24"/>
<text text-anchor="middle" x="471.5" y="-9.6" font-family="Helvetica,sans-Serif" font-size="10.50" fill="white">type_euler_1D</text>
</a>
</g>
</g>
<!-- module~foodie&#45;&gt;module~type_euler_1d -->
<g id="edge11" class="edge"><title>module~foodie&#45;&gt;module~type_euler_1d</title>
<path fill="none" stroke="black" stroke-dasharray="5,2" d="M375.205,-100.81C386.198,-85.0631 406.897,-57.3794 429,-38 432.236,-35.1624 435.816,-32.4303 439.476,-29.873"/>
<polygon fill="black" stroke="black" points="441.597,-32.6673 448.039,-24.2556 437.758,-26.8142 441.597,-32.6673"/>
</g>
<!-- module~foodie_integrator_tvd_runge_kutta&#45;&gt;module~foodie -->
<g id="edge12" class="edge"><title>module~foodie_integrator_tvd_runge_kutta&#45;&gt;module~foodie</title>
<path fill="none" stroke="black" stroke-dasharray="5,2" d="M300.326,-104.518C310.305,-105.827 320.014,-107.1 328.746,-108.245"/>
<polygon fill="black" stroke="black" points="328.495,-111.742 338.866,-109.573 329.406,-104.802 328.495,-111.742"/>
</g>
<!-- module~foodie_integrator_euler_explicit&#45;&gt;module~foodie -->
<g id="edge13" class="edge"><title>module~foodie_integrator_euler_explicit&#45;&gt;module~foodie</title>
<path fill="none" stroke="black" stroke-dasharray="5,2" d="M277.191,-63.027C286.026,-65.5273 294.851,-68.4953 303,-72 316.657,-77.8732 330.578,-86.7634 341.76,-94.7657"/>
<polygon fill="black" stroke="black" points="339.961,-97.7883 350.083,-100.919 344.122,-92.1594 339.961,-97.7883"/>
</g>
<!-- module~type_burgers&#45;&gt;program~integrate_burgers -->
<g id="edge2" class="edge"><title>module~type_burgers&#45;&gt;program~integrate_burgers</title>
<path fill="none" stroke="black" stroke-dasharray="5,2" d="M509.753,-203.111C522.673,-199.334 537.394,-195.031 551.242,-190.983"/>
<polygon fill="black" stroke="black" points="552.518,-194.257 561.134,-188.092 550.554,-187.538 552.518,-194.257"/>
</g>
<!-- module~type_oscillation&#45;&gt;program~integrate_oscillation -->
<g id="edge3" class="edge"><title>module~type_oscillation&#45;&gt;program~integrate_oscillation</title>
<path fill="none" stroke="black" stroke-dasharray="5,2" d="M514.348,-85.5618C522.457,-84.3142 531.12,-82.9816 539.729,-81.657"/>
<polygon fill="black" stroke="black" points="540.425,-85.0913 549.776,-80.1113 539.36,-78.1727 540.425,-85.0913"/>
</g>
<!-- module~type_lorenz&#45;&gt;program~integrate_lorenz -->
<g id="edge4" class="edge"><title>module~type_lorenz&#45;&gt;program~integrate_lorenz</title>
<path fill="none" stroke="black" stroke-dasharray="5,2" d="M505.641,-134C518.474,-134 533.508,-134 547.852,-134"/>
<polygon fill="black" stroke="black" points="548.134,-137.5 558.133,-134 548.133,-130.5 548.134,-137.5"/>
</g>
</g>
</svg>
