<?xml version="1.0" encoding="UTF-8" standalone="no"?>
<!DOCTYPE svg PUBLIC "-//W3C//DTD SVG 1.1//EN"
 "http://www.w3.org/Graphics/SVG/1.1/DTD/svg11.dtd">
<!-- Generated by graphviz version 2.26.3 (20100126.1600)
 -->
<!-- Title: module~~graph~~ModuleGraph Pages: 1 -->
<svg width="855pt" height="437pt"
 viewBox="0.00 0.00 855.00 436.83" xmlns="http://www.w3.org/2000/svg" xmlns:xlink="http://www.w3.org/1999/xlink">
<g id="graph1" class="graph" transform="scale(0.925325 0.925325) rotate(0) translate(4 468.078)">
<title>module~~graph~~ModuleGraph</title>
<polygon fill="white" stroke="white" points="-4,5 -4,-468.078 921,-468.078 921,5 -4,5"/>
<!-- module~foodie -->
<g id="node1" class="node"><title>module~foodie</title>
<a xlink:href="../module/foodie.html" xlink:title="foodie">
<polygon fill="#337ab7" stroke="#337ab7" points="540,-306.599 486,-306.599 486,-280.599 540,-280.599 540,-306.599"/>
<text text-anchor="middle" x="513" y="-291.149" font-family="Helvetica,sans-Serif" font-size="10.50" fill="white">foodie</text>
</a>
</g>
<!-- module~type_burgers -->
<g id="node4" class="node"><title>module~type_burgers</title>
<a xlink:href="../module/type_burgers.html" xlink:title="type_burgers">
<polygon fill="#337ab7" stroke="#337ab7" points="712,-432.599 636,-432.599 636,-406.599 712,-406.599 712,-432.599"/>
<text text-anchor="middle" x="674" y="-417.149" font-family="Helvetica,sans-Serif" font-size="10.50" fill="white">type_burgers</text>
</a>
</g>
<!-- module~foodie&#45;&gt;module~type_burgers -->
<g id="edge22" class="edge"><title>module~foodie&#45;&gt;module~type_burgers</title>
<path fill="none" stroke="black" stroke-dasharray="5,2" d="M523.729,-306.722C535.614,-320.786 555.784,-343.283 576,-359.599 595.835,-375.606 620.282,-390.58 639.796,-401.566"/>
<polygon fill="black" stroke="black" points="638.215,-404.691 648.659,-406.473 641.606,-398.567 638.215,-404.691"/>
</g>
<!-- module~type_oscillation -->
<g id="node5" class="node"><title>module~type_oscillation</title>
<a xlink:href="../module/type_oscillation.html" xlink:title="type_oscillation">
<polygon fill="#337ab7" stroke="#337ab7" points="716,-350.599 632,-350.599 632,-324.599 716,-324.599 716,-350.599"/>
<text text-anchor="middle" x="674" y="-335.149" font-family="Helvetica,sans-Serif" font-size="10.50" fill="white">type_oscillation</text>
</a>
</g>
<!-- module~foodie&#45;&gt;module~type_oscillation -->
<g id="edge26" class="edge"><title>module~foodie&#45;&gt;module~type_oscillation</title>
<path fill="none" stroke="black" stroke-dasharray="5,2" d="M540.311,-301.063C562.524,-307.133 594.517,-315.876 621.636,-323.288"/>
<polygon fill="black" stroke="black" points="620.811,-326.691 631.38,-325.951 622.656,-319.938 620.811,-326.691"/>
</g>
<!-- module~type_lorenz -->
<g id="node7" class="node"><title>module~type_lorenz</title>
<a xlink:href="../module/type_lorenz.html" xlink:title="type_lorenz">
<polygon fill="#337ab7" stroke="#337ab7" points="708,-60.5985 640,-60.5985 640,-34.5985 708,-34.5985 708,-60.5985"/>
<text text-anchor="middle" x="674" y="-45.1485" font-family="Helvetica,sans-Serif" font-size="10.50" fill="white">type_lorenz</text>
</a>
</g>
<!-- module~foodie&#45;&gt;module~type_lorenz -->
<g id="edge32" class="edge"><title>module~foodie&#45;&gt;module~type_lorenz</title>
<path fill="none" stroke="black" stroke-dasharray="5,2" d="M514.369,-280.42C518.36,-247.787 532.592,-161.941 576,-107.599 590.552,-89.3811 612.243,-75.2919 631.521,-65.3585"/>
<polygon fill="black" stroke="black" points="633.323,-68.3726 640.75,-60.8161 630.232,-62.0922 633.323,-68.3726"/>
</g>
<!-- module~type_euler_1d -->
<g id="node10" class="node"><title>module~type_euler_1d</title>
<a xlink:href="../module/type_euler_1d.html" xlink:title="type_euler_1D">
<polygon fill="#337ab7" stroke="#337ab7" points="715,-142.599 633,-142.599 633,-116.599 715,-116.599 715,-142.599"/>
<text text-anchor="middle" x="674" y="-127.149" font-family="Helvetica,sans-Serif" font-size="10.50" fill="white">type_euler_1D</text>
</a>
</g>
<!-- module~foodie&#45;&gt;module~type_euler_1d -->
<g id="edge46" class="edge"><title>module~foodie&#45;&gt;module~type_euler_1d</title>
<path fill="none" stroke="black" stroke-dasharray="5,2" d="M515.234,-280.443C520.577,-253.119 536.699,-189.992 576,-156.599 589.03,-145.527 606.236,-138.968 622.589,-135.093"/>
<polygon fill="black" stroke="black" points="623.537,-138.47 632.616,-133.01 622.113,-131.617 623.537,-138.47"/>
</g>
<!-- program~integrate_oscillation -->
<g id="node11" class="node"><title>program~integrate_oscillation</title>
<a xlink:href="../program/integrate_oscillation.html" xlink:title="integrate_oscillation">
<polygon fill="#f0ad4e" stroke="#f0ad4e" points="915,-268.599 809,-268.599 809,-242.599 915,-242.599 915,-268.599"/>
<text text-anchor="middle" x="862" y="-253.149" font-family="Helvetica,sans-Serif" font-size="10.50" fill="white">integrate_oscillation</text>
</a>
</g>
<!-- module~foodie&#45;&gt;program~integrate_oscillation -->
<g id="edge52" class="edge"><title>module~foodie&#45;&gt;program~integrate_oscillation</title>
<path fill="none" stroke="black" stroke-dasharray="5,2" d="M540.073,-295.088C572.075,-296.62 626.933,-298.531 674,-296.599"/>
<path fill="none" stroke="black" stroke-dasharray="5,2" d="M674,-296.599C721.645,-294.642 774.608,-282.12 812.145,-271.423"/>
<polygon fill="black" stroke="black" points="813.2,-274.762 821.824,-268.608 811.245,-268.04 813.2,-274.762"/>
</g>
<!-- program~integrate_burgers -->
<g id="node12" class="node"><title>program~integrate_burgers</title>
<a xlink:href="../program/integrate_burgers.html" xlink:title="integrate_burgers">
<polygon fill="#f0ad4e" stroke="#f0ad4e" points="910,-312.599 814,-312.599 814,-286.599 910,-286.599 910,-312.599"/>
<text text-anchor="middle" x="862" y="-297.149" font-family="Helvetica,sans-Serif" font-size="10.50" fill="white">integrate_burgers</text>
</a>
</g>
<!-- module~foodie&#45;&gt;program~integrate_burgers -->
<g id="edge62" class="edge"><title>module~foodie&#45;&gt;program~integrate_burgers</title>
<path fill="none" stroke="black" stroke-dasharray="5,2" d="M674,-296.599C717.228,-294.823 766.088,-295.69 803.161,-296.94"/>
<polygon fill="black" stroke="black" points="803.172,-300.442 813.29,-297.3 803.421,-293.447 803.172,-300.442"/>
</g>
<!-- program~integrate_euler_1d -->
<g id="node13" class="node"><title>program~integrate_euler_1d</title>
<a xlink:href="../program/integrate_euler_1d.html" xlink:title="integrate_euler_1D">
<polygon fill="#f0ad4e" stroke="#f0ad4e" points="914,-183.599 810,-183.599 810,-157.599 914,-157.599 914,-183.599"/>
<text text-anchor="middle" x="862" y="-168.149" font-family="Helvetica,sans-Serif" font-size="10.50" fill="white">integrate_euler_1D</text>
</a>
</g>
<!-- module~foodie&#45;&gt;program~integrate_euler_1d -->
<g id="edge72" class="edge"><title>module~foodie&#45;&gt;program~integrate_euler_1d</title>
<path fill="none" stroke="black" stroke-dasharray="5,2" d="M674,-170.599C713.549,-154.598 761.723,-154.937 799.404,-159.101"/>
<polygon fill="black" stroke="black" points="799.387,-162.625 809.738,-160.367 800.238,-155.677 799.387,-162.625"/>
</g>
<!-- program~integrate_lorenz -->
<g id="node14" class="node"><title>program~integrate_lorenz</title>
<a xlink:href="../program/integrate_lorenz.html" xlink:title="integrate_lorenz">
<polygon fill="#f0ad4e" stroke="#f0ad4e" points="907,-139.599 817,-139.599 817,-113.599 907,-113.599 907,-139.599"/>
<text text-anchor="middle" x="862" y="-124.149" font-family="Helvetica,sans-Serif" font-size="10.50" fill="white">integrate_lorenz</text>
</a>
</g>
<!-- module~foodie&#45;&gt;program~integrate_lorenz -->
<g id="edge82" class="edge"><title>module~foodie&#45;&gt;program~integrate_lorenz</title>
<path fill="none" stroke="black" stroke-dasharray="5,2" d="M517.083,-280.287C524.728,-257.744 543.444,-212.296 576,-189.599 612.395,-164.225 632.872,-187.238 674,-170.599"/>
<path fill="none" stroke="black" stroke-dasharray="5,2" d="M674,-170.599C715.128,-153.959 728.814,-161.766 772,-151.599 783.715,-148.84 796.203,-145.58 808.029,-142.341"/>
<polygon fill="black" stroke="black" points="809.077,-145.682 817.777,-139.636 807.205,-138.937 809.077,-145.682"/>
</g>
<!-- module~foodie_integrator_euler_explicit -->
<g id="node2" class="node"><title>module~foodie_integrator_euler_explicit</title>
<a xlink:href="../module/foodie_integrator_euler_explicit.html" xlink:title="foodie_integrator_euler_explicit">
<polygon fill="#337ab7" stroke="#337ab7" points="421,-221.599 259,-221.599 259,-195.599 421,-195.599 421,-221.599"/>
<text text-anchor="middle" x="340" y="-206.149" font-family="Helvetica,sans-Serif" font-size="10.50" fill="white">foodie_integrator_euler_explicit</text>
</a>
</g>
<!-- module~foodie_integrator_euler_explicit&#45;&gt;module~foodie -->
<g id="edge8" class="edge"><title>module~foodie_integrator_euler_explicit&#45;&gt;module~foodie</title>
<path fill="none" stroke="black" stroke-dasharray="5,2" d="M421.218,-219.141C431.231,-222.075 441.071,-225.82 450,-230.599 468.861,-240.692 485.729,-258.266 497.254,-272.293"/>
<polygon fill="black" stroke="black" points="494.765,-274.789 503.709,-280.469 500.26,-270.452 494.765,-274.789"/>
</g>
<!-- module~foodie_integrator_low_storage_runge_kutta -->
<g id="node3" class="node"><title>module~foodie_integrator_low_storage_runge_kutta</title>
<a xlink:href="../module/foodie_integrator_low_storage_runge_kutta.html" xlink:title="foodie_integrator_low_storage_runge_kutta">
<polygon fill="#337ab7" stroke="#337ab7" points="450,-391.599 230,-391.599 230,-365.599 450,-365.599 450,-391.599"/>
<text text-anchor="middle" x="340" y="-376.149" font-family="Helvetica,sans-Serif" font-size="10.50" fill="white">foodie_integrator_low_storage_runge_kutta</text>
</a>
</g>
<!-- module~foodie_integrator_low_storage_runge_kutta&#45;&gt;module~foodie -->
<g id="edge2" class="edge"><title>module~foodie_integrator_low_storage_runge_kutta&#45;&gt;module~foodie</title>
<path fill="none" stroke="black" stroke-dasharray="5,2" d="M429.253,-365.506C436.463,-363.031 443.475,-360.091 450,-356.599 468.861,-346.505 485.729,-328.931 497.254,-314.904"/>
<polygon fill="black" stroke="black" points="500.26,-316.746 503.709,-306.728 494.765,-312.408 500.26,-316.746"/>
</g>
<!-- module~type_burgers&#45;&gt;program~integrate_burgers -->
<g id="edge66" class="edge"><title>module~type_burgers&#45;&gt;program~integrate_burgers</title>
<path fill="none" stroke="black" stroke-dasharray="5,2" d="M712.166,-413.981C731.114,-410.009 753.785,-403.401 772,-392.599 803.083,-374.164 830.634,-342.183 846.822,-320.954"/>
<polygon fill="black" stroke="black" points="849.686,-322.969 852.846,-312.856 844.07,-318.791 849.686,-322.969"/>
</g>
<!-- module~type_oscillation&#45;&gt;program~integrate_oscillation -->
<g id="edge56" class="edge"><title>module~type_oscillation&#45;&gt;program~integrate_oscillation</title>
<path fill="none" stroke="black" stroke-dasharray="5,2" d="M716.694,-330.441C734.532,-326.304 755.014,-319.997 772,-310.599 790.992,-300.09 789.661,-289.209 808,-277.599 810.446,-276.05 813.019,-274.573 815.66,-273.171"/>
<polygon fill="black" stroke="black" points="817.37,-276.231 824.819,-268.697 814.297,-269.942 817.37,-276.231"/>
</g>
<!-- module~type_integrand -->
<g id="node6" class="node"><title>module~type_integrand</title>
<a xlink:href="../module/type_integrand.html" xlink:title="type_integrand">
<polygon fill="#337ab7" stroke="#337ab7" points="194,-306.599 110,-306.599 110,-280.599 194,-280.599 194,-306.599"/>
<text text-anchor="middle" x="152" y="-291.149" font-family="Helvetica,sans-Serif" font-size="10.50" fill="white">type_integrand</text>
</a>
</g>
<!-- module~type_integrand&#45;&gt;module~foodie -->
<g id="edge6" class="edge"><title>module~type_integrand&#45;&gt;module~foodie</title>
<path fill="none" stroke="black" stroke-dasharray="5,2" d="M194.118,-293.599C265.266,-293.599 408.104,-293.599 475.792,-293.599"/>
<polygon fill="black" stroke="black" points="475.987,-297.099 485.987,-293.599 475.987,-290.099 475.987,-297.099"/>
</g>
<!-- module~type_integrand&#45;&gt;module~foodie_integrator_euler_explicit -->
<g id="edge14" class="edge"><title>module~type_integrand&#45;&gt;module~foodie_integrator_euler_explicit</title>
<path fill="none" stroke="black" stroke-dasharray="5,2" d="M164.184,-280.524C178.506,-265.988 203.679,-242.939 230,-230.599 236.102,-227.738 242.563,-225.249 249.176,-223.083"/>
<polygon fill="black" stroke="black" points="250.386,-226.374 258.949,-220.135 248.364,-219.672 250.386,-226.374"/>
</g>
<!-- module~type_integrand&#45;&gt;module~foodie_integrator_low_storage_runge_kutta -->
<g id="edge18" class="edge"><title>module~type_integrand&#45;&gt;module~foodie_integrator_low_storage_runge_kutta</title>
<path fill="none" stroke="black" stroke-dasharray="5,2" d="M164.184,-306.673C178.506,-321.209 203.679,-344.259 230,-356.599 234.567,-358.74 239.335,-360.673 244.218,-362.418"/>
<polygon fill="black" stroke="black" points="243.133,-365.745 253.726,-365.548 245.322,-359.096 243.133,-365.745"/>
</g>
<!-- module~foodie_integrator_adams_bashforth -->
<g id="node8" class="node"><title>module~foodie_integrator_adams_bashforth</title>
<a xlink:href="../module/foodie_integrator_adams_bashforth.html" xlink:title="foodie_integrator_adams_bashforth">
<polygon fill="#337ab7" stroke="#337ab7" points="431,-347.599 249,-347.599 249,-321.599 431,-321.599 431,-347.599"/>
<text text-anchor="middle" x="340" y="-332.149" font-family="Helvetica,sans-Serif" font-size="10.50" fill="white">foodie_integrator_adams_bashforth</text>
</a>
</g>
<!-- module~type_integrand&#45;&gt;module~foodie_integrator_adams_bashforth -->
<g id="edge36" class="edge"><title>module~type_integrand&#45;&gt;module~foodie_integrator_adams_bashforth</title>
<path fill="none" stroke="black" stroke-dasharray="5,2" d="M194.191,-302.8C216.555,-307.677 244.609,-313.795 270.12,-319.359"/>
<polygon fill="black" stroke="black" points="269.61,-322.83 280.126,-321.541 271.101,-315.99 269.61,-322.83"/>
</g>
<!-- module~foodie_integrator_tvd_runge_kutta -->
<g id="node9" class="node"><title>module~foodie_integrator_tvd_runge_kutta</title>
<a xlink:href="../module/foodie_integrator_tvd_runge_kutta.html" xlink:title="foodie_integrator_tvd_runge_kutta">
<polygon fill="#337ab7" stroke="#337ab7" points="428,-265.599 252,-265.599 252,-239.599 428,-239.599 428,-265.599"/>
<text text-anchor="middle" x="340" y="-250.149" font-family="Helvetica,sans-Serif" font-size="10.50" fill="white">foodie_integrator_tvd_runge_kutta</text>
</a>
</g>
<!-- module~type_integrand&#45;&gt;module~foodie_integrator_tvd_runge_kutta -->
<g id="edge40" class="edge"><title>module~type_integrand&#45;&gt;module~foodie_integrator_tvd_runge_kutta</title>
<path fill="none" stroke="black" stroke-dasharray="5,2" d="M194.191,-284.397C216.555,-279.52 244.609,-273.402 270.12,-267.838"/>
<polygon fill="black" stroke="black" points="271.101,-271.207 280.126,-265.656 269.61,-264.367 271.101,-271.207"/>
</g>
<!-- module~type_lorenz&#45;&gt;program~integrate_lorenz -->
<g id="edge84" class="edge"><title>module~type_lorenz&#45;&gt;program~integrate_lorenz</title>
<path fill="none" stroke="black" stroke-dasharray="5,2" d="M708.28,-54.7734C727.427,-59.3387 751.488,-66.0135 772,-74.5985 793.83,-83.7352 816.912,-97.1568 834.235,-108.076"/>
<polygon fill="black" stroke="black" points="832.424,-111.072 842.731,-113.521 836.201,-105.178 832.424,-111.072"/>
</g>
<!-- module~foodie_integrator_adams_bashforth&#45;&gt;module~foodie -->
<g id="edge10" class="edge"><title>module~foodie_integrator_adams_bashforth&#45;&gt;module~foodie</title>
<path fill="none" stroke="black" stroke-dasharray="5,2" d="M395.214,-321.513C421.572,-315.266 452.41,-307.958 475.919,-302.386"/>
<polygon fill="black" stroke="black" points="476.913,-305.748 485.836,-300.036 475.299,-298.937 476.913,-305.748"/>
</g>
<!-- module~foodie_integrator_tvd_runge_kutta&#45;&gt;module~foodie -->
<g id="edge4" class="edge"><title>module~foodie_integrator_tvd_runge_kutta&#45;&gt;module~foodie</title>
<path fill="none" stroke="black" stroke-dasharray="5,2" d="M395.214,-265.684C421.572,-271.931 452.41,-279.239 475.919,-284.811"/>
<polygon fill="black" stroke="black" points="475.299,-288.26 485.836,-287.161 476.913,-281.449 475.299,-288.26"/>
</g>
<!-- module~type_euler_1d&#45;&gt;program~integrate_euler_1d -->
<g id="edge74" class="edge"><title>module~type_euler_1d&#45;&gt;program~integrate_euler_1d</title>
<path fill="none" stroke="black" stroke-dasharray="5,2" d="M715.257,-138.596C739.998,-143.992 771.945,-150.959 799.711,-157.014"/>
<polygon fill="black" stroke="black" points="799.214,-160.488 809.73,-159.199 800.705,-153.649 799.214,-160.488"/>
</g>
<!-- IR_Precision -->
<g id="node20" class="node"><title>IR_Precision</title>
<polygon fill="#337ab7" stroke="#337ab7" points="73,-306.599 1,-306.599 1,-280.599 73,-280.599 73,-306.599"/>
<text text-anchor="middle" x="37" y="-291.149" font-family="Helvetica,sans-Serif" font-size="10.50" fill="white">IR_Precision</text>
</g>
<!-- IR_Precision&#45;&gt;module~foodie_integrator_euler_explicit -->
<g id="edge12" class="edge"><title>IR_Precision&#45;&gt;module~foodie_integrator_euler_explicit</title>
<path fill="none" stroke="black" stroke-dasharray="5,2" d="M152,-208.599C182.517,-198.635 217.335,-196.327 248.645,-197.263"/>
<polygon fill="black" stroke="black" points="248.542,-200.762 258.678,-197.676 248.83,-193.768 248.542,-200.762"/>
</g>
<!-- IR_Precision&#45;&gt;module~foodie_integrator_low_storage_runge_kutta -->
<g id="edge16" class="edge"><title>IR_Precision&#45;&gt;module~foodie_integrator_low_storage_runge_kutta</title>
<path fill="none" stroke="black" stroke-dasharray="5,2" d="M152,-419.599C158.098,-421.522 224.168,-406.475 276.281,-394.071"/>
<polygon fill="black" stroke="black" points="277.25,-397.438 286.164,-391.711 275.624,-390.629 277.25,-397.438"/>
</g>
<!-- IR_Precision&#45;&gt;module~type_burgers -->
<g id="edge20" class="edge"><title>IR_Precision&#45;&gt;module~type_burgers</title>
<path fill="none" stroke="black" stroke-dasharray="5,2" d="M513,-419.599C550.743,-415.561 593.749,-415.807 625.813,-416.928"/>
<polygon fill="black" stroke="black" points="625.69,-420.426 635.819,-417.319 625.963,-413.431 625.69,-420.426"/>
</g>
<!-- IR_Precision&#45;&gt;module~type_oscillation -->
<g id="edge24" class="edge"><title>IR_Precision&#45;&gt;module~type_oscillation</title>
<path fill="none" stroke="black" stroke-dasharray="5,2" d="M152,-419.599C305.01,-467.872 352.877,-429.752 513,-419.599"/>
<path fill="none" stroke="black" stroke-dasharray="5,2" d="M513,-419.599C549.958,-415.645 543.262,-382.198 576,-364.599 590.026,-357.058 606.34,-351.479 621.586,-347.415"/>
<polygon fill="black" stroke="black" points="622.563,-350.779 631.416,-344.958 620.866,-343.988 622.563,-350.779"/>
</g>
<!-- IR_Precision&#45;&gt;module~type_integrand -->
<g id="edge28" class="edge"><title>IR_Precision&#45;&gt;module~type_integrand</title>
<path fill="none" stroke="black" stroke-dasharray="5,2" d="M73.7029,-293.599C81.9237,-293.599 90.8,-293.599 99.521,-293.599"/>
<polygon fill="black" stroke="black" points="99.6389,-297.099 109.639,-293.599 99.6388,-290.099 99.6389,-297.099"/>
</g>
<!-- IR_Precision&#45;&gt;module~type_lorenz -->
<g id="edge30" class="edge"><title>IR_Precision&#45;&gt;module~type_lorenz</title>
<path fill="none" stroke="black" stroke-dasharray="5,2" d="M513,-85.5985C551.517,-72.0947 596.888,-61.8729 629.632,-55.4508"/>
<polygon fill="black" stroke="black" points="630.634,-58.8224 639.795,-53.4999 629.314,-51.948 630.634,-58.8224"/>
</g>
<!-- IR_Precision&#45;&gt;module~foodie_integrator_adams_bashforth -->
<g id="edge34" class="edge"><title>IR_Precision&#45;&gt;module~foodie_integrator_adams_bashforth</title>
<path fill="none" stroke="black" stroke-dasharray="5,2" d="M43.2055,-306.919C57.4806,-335.565 95.7943,-401.866 152,-419.599"/>
<path fill="none" stroke="black" stroke-dasharray="5,2" d="M152,-419.599C194.497,-433.006 189.652,-375.515 230,-356.599 234.567,-354.457 239.335,-352.524 244.218,-350.779"/>
<polygon fill="black" stroke="black" points="245.322,-354.101 253.726,-347.649 243.133,-347.452 245.322,-354.101"/>
</g>
<!-- IR_Precision&#45;&gt;module~foodie_integrator_tvd_runge_kutta -->
<g id="edge38" class="edge"><title>IR_Precision&#45;&gt;module~foodie_integrator_tvd_runge_kutta</title>
<path fill="none" stroke="black" stroke-dasharray="5,2" d="M152,-208.599C186.24,-197.419 194.981,-222.171 230,-230.599 239.901,-232.981 250.346,-235.308 260.701,-237.503"/>
<polygon fill="black" stroke="black" points="260.076,-240.948 270.58,-239.564 261.506,-234.096 260.076,-240.948"/>
</g>
<!-- IR_Precision&#45;&gt;module~type_euler_1d -->
<g id="edge42" class="edge"><title>IR_Precision&#45;&gt;module~type_euler_1d</title>
<path fill="none" stroke="black" stroke-dasharray="5,2" d="M340,-167.599C427.064,-147.79 451.33,-159.091 540,-148.599 567.378,-145.359 597.809,-141.097 622.743,-137.432"/>
<polygon fill="black" stroke="black" points="623.335,-140.882 632.714,-135.955 622.309,-133.958 623.335,-140.882"/>
</g>
<!-- IR_Precision&#45;&gt;program~integrate_oscillation -->
<g id="edge50" class="edge"><title>IR_Precision&#45;&gt;program~integrate_oscillation</title>
<path fill="none" stroke="black" stroke-dasharray="5,2" d="M513,-419.599C542.47,-416.264 547.367,-405.33 576,-397.599 661.665,-374.467 702.687,-414.999 772,-359.599 803.091,-334.748 779.481,-305.363 808,-277.599 809.111,-276.517 810.282,-275.487 811.502,-274.504"/>
<polygon fill="black" stroke="black" points="813.795,-277.18 820.149,-268.702 809.895,-271.368 813.795,-277.18"/>
</g>
<!-- IR_Precision&#45;&gt;program~integrate_burgers -->
<g id="edge60" class="edge"><title>IR_Precision&#45;&gt;program~integrate_burgers</title>
<path fill="none" stroke="black" stroke-dasharray="5,2" d="M513,-419.599C542.49,-416.444 546.759,-436.64 576,-441.599 661.885,-456.163 695.676,-483.587 772,-441.599 818.151,-416.209 843.96,-356.048 855.172,-322.758"/>
<polygon fill="black" stroke="black" points="858.589,-323.562 858.306,-312.971 851.923,-321.427 858.589,-323.562"/>
</g>
<!-- IR_Precision&#45;&gt;program~integrate_euler_1d -->
<g id="edge70" class="edge"><title>IR_Precision&#45;&gt;program~integrate_euler_1d</title>
<path fill="none" stroke="black" stroke-dasharray="5,2" d="M513,-85.5985C567.51,-66.4878 720.435,-81.5679 772,-107.599 793.648,-118.527 788.243,-134.537 808,-148.599 810.093,-150.088 812.301,-151.498 814.582,-152.831"/>
<polygon fill="black" stroke="black" points="813.163,-156.039 823.644,-157.585 816.415,-149.84 813.163,-156.039"/>
</g>
<!-- IR_Precision&#45;&gt;program~integrate_lorenz -->
<g id="edge80" class="edge"><title>IR_Precision&#45;&gt;program~integrate_lorenz</title>
<path fill="none" stroke="black" stroke-dasharray="5,2" d="M48.8681,-280.574C68.164,-260.485 108.574,-222.777 152,-208.599"/>
<path fill="none" stroke="black" stroke-dasharray="5,2" d="M152,-208.599C186.24,-197.419 194.872,-194.564 230,-186.599 278.385,-175.628 291.873,-179.65 340,-167.599"/>
<path fill="none" stroke="black" stroke-dasharray="5,2" d="M340,-167.599C422.54,-146.93 432.593,-113.434 513,-85.5985"/>
<path fill="none" stroke="black" stroke-dasharray="5,2" d="M513,-85.5985C549.539,-72.9492 540.099,-39.959 576,-25.5985 656.881,6.75372 692.512,10.0383 772,-25.5985 807.947,-41.7147 835.426,-80.0715 850.101,-104.606"/>
<polygon fill="black" stroke="black" points="847.234,-106.642 855.258,-113.561 853.3,-103.148 847.234,-106.642"/>
</g>
<!-- wenoof -->
<g id="node37" class="node"><title>wenoof</title>
<polygon fill="#337ab7" stroke="#337ab7" points="540,-139.599 486,-139.599 486,-113.599 540,-113.599 540,-139.599"/>
<text text-anchor="middle" x="513" y="-124.149" font-family="Helvetica,sans-Serif" font-size="10.50" fill="white">wenoof</text>
</g>
<!-- wenoof&#45;&gt;module~type_euler_1d -->
<g id="edge44" class="edge"><title>wenoof&#45;&gt;module~type_euler_1d</title>
<path fill="none" stroke="black" stroke-dasharray="5,2" d="M540.311,-127.107C562.825,-127.527 595.384,-128.134 622.733,-128.643"/>
<polygon fill="black" stroke="black" points="622.865,-132.146 632.929,-128.833 622.996,-125.147 622.865,-132.146"/>
</g>
<!-- pyplot_module -->
<g id="node40" class="node"><title>pyplot_module</title>
<polygon fill="#337ab7" stroke="#337ab7" points="715,-268.599 633,-268.599 633,-242.599 715,-242.599 715,-268.599"/>
<text text-anchor="middle" x="674" y="-253.149" font-family="Helvetica,sans-Serif" font-size="10.50" fill="white">pyplot_module</text>
</g>
<!-- pyplot_module&#45;&gt;program~integrate_oscillation -->
<g id="edge48" class="edge"><title>pyplot_module&#45;&gt;program~integrate_oscillation</title>
<path fill="none" stroke="black" stroke-dasharray="5,2" d="M715.257,-255.599C739.506,-255.599 770.677,-255.599 798.05,-255.599"/>
<polygon fill="black" stroke="black" points="798.332,-259.099 808.332,-255.599 798.332,-252.099 798.332,-259.099"/>
</g>
<!-- pyplot_module&#45;&gt;program~integrate_burgers -->
<g id="edge58" class="edge"><title>pyplot_module&#45;&gt;program~integrate_burgers</title>
<path fill="none" stroke="black" stroke-dasharray="5,2" d="M715.257,-265.255C741.073,-271.296 774.736,-279.175 803.307,-285.862"/>
<polygon fill="black" stroke="black" points="802.645,-289.301 813.179,-288.172 804.24,-282.486 802.645,-289.301"/>
</g>
<!-- pyplot_module&#45;&gt;program~integrate_euler_1d -->
<g id="edge68" class="edge"><title>pyplot_module&#45;&gt;program~integrate_euler_1d</title>
<path fill="none" stroke="black" stroke-dasharray="5,2" d="M715.181,-250.034C733.143,-246.684 754.134,-241.487 772,-233.599 796.89,-222.609 821.988,-204.304 839.333,-190.249"/>
<polygon fill="black" stroke="black" points="841.721,-192.816 847.19,-183.742 837.256,-187.425 841.721,-192.816"/>
</g>
<!-- pyplot_module&#45;&gt;program~integrate_lorenz -->
<g id="edge78" class="edge"><title>pyplot_module&#45;&gt;program~integrate_lorenz</title>
<path fill="none" stroke="black" stroke-dasharray="5,2" d="M715.448,-254.746C734.521,-252.39 756.337,-246.671 772,-233.599 803.497,-207.31 778.791,-177.408 808,-148.599 809.104,-147.51 810.268,-146.473 811.483,-145.485"/>
<polygon fill="black" stroke="black" points="813.78,-148.157 820.105,-139.657 809.86,-142.358 813.78,-148.157"/>
</g>
<!-- Data_Type_Command_Line_Interface -->
<g id="node44" class="node"><title>Data_Type_Command_Line_Interface</title>
<polygon fill="#337ab7" stroke="#337ab7" points="771,-224.599 577,-224.599 577,-198.599 771,-198.599 771,-224.599"/>
<text text-anchor="middle" x="674" y="-209.149" font-family="Helvetica,sans-Serif" font-size="10.50" fill="white">Data_Type_Command_Line_Interface</text>
</g>
<!-- Data_Type_Command_Line_Interface&#45;&gt;program~integrate_oscillation -->
<g id="edge54" class="edge"><title>Data_Type_Command_Line_Interface&#45;&gt;program~integrate_oscillation</title>
<path fill="none" stroke="black" stroke-dasharray="5,2" d="M732.859,-224.622C745.766,-227.531 759.352,-230.633 772,-233.599 780.855,-235.675 790.19,-237.907 799.36,-240.125"/>
<polygon fill="black" stroke="black" points="798.672,-243.56 809.215,-242.519 800.324,-236.757 798.672,-243.56"/>
</g>
<!-- Data_Type_Command_Line_Interface&#45;&gt;program~integrate_burgers -->
<g id="edge64" class="edge"><title>Data_Type_Command_Line_Interface&#45;&gt;program~integrate_burgers</title>
<path fill="none" stroke="black" stroke-dasharray="5,2" d="M753.646,-224.62C760.076,-227.11 766.287,-230.073 772,-233.599 793.502,-246.869 787.673,-262.591 808,-277.599 810.031,-279.098 812.179,-280.514 814.401,-281.849"/>
<polygon fill="black" stroke="black" points="812.788,-284.955 823.254,-286.598 816.097,-278.786 812.788,-284.955"/>
</g>
<!-- Data_Type_Command_Line_Interface&#45;&gt;program~integrate_euler_1d -->
<g id="edge76" class="edge"><title>Data_Type_Command_Line_Interface&#45;&gt;program~integrate_euler_1d</title>
<path fill="none" stroke="black" stroke-dasharray="5,2" d="M733.743,-198.57C754.812,-193.975 778.542,-188.799 799.809,-184.161"/>
<polygon fill="black" stroke="black" points="800.684,-187.553 809.708,-182.003 799.192,-180.714 800.684,-187.553"/>
</g>
<!-- Data_Type_Command_Line_Interface&#45;&gt;program~integrate_lorenz -->
<g id="edge86" class="edge"><title>Data_Type_Command_Line_Interface&#45;&gt;program~integrate_lorenz</title>
<path fill="none" stroke="black" stroke-dasharray="5,2" d="M739.699,-198.573C750.889,-194.95 762.086,-190.369 772,-184.599 791.556,-173.216 789.149,-161.115 808,-148.599 810.372,-147.024 812.874,-145.529 815.45,-144.117"/>
<polygon fill="black" stroke="black" points="817.033,-147.239 824.407,-139.631 813.898,-140.98 817.033,-147.239"/>
</g>
</g>
</svg>
