<?xml version="1.0" encoding="UTF-8" standalone="no"?>
<!DOCTYPE svg PUBLIC "-//W3C//DTD SVG 1.1//EN"
 "http://www.w3.org/Graphics/SVG/1.1/DTD/svg11.dtd">
<!-- Generated by graphviz version 2.26.3 (20100126.1600)
 -->
<!-- Title: module~~foodie_integrator_tvd_runge_kutta~~UsedByGraph Pages: 1 -->
<svg width="626pt" height="353pt"
 viewBox="0.00 0.00 626.00 353.11" xmlns="http://www.w3.org/2000/svg" xmlns:xlink="http://www.w3.org/1999/xlink">
<g id="graph1" class="graph" transform="scale(1 1) rotate(0) translate(4 349.113)">
<title>module~~foodie_integrator_tvd_runge_kutta~~UsedByGraph</title>
<polygon fill="white" stroke="white" points="-4,5 -4,-349.113 623,-349.113 623,5 -4,5"/>
<!-- module~foodie_integrator_tvd_runge_kutta -->
<g id="node1" class="node"><title>module~foodie_integrator_tvd_runge_kutta</title>
<polygon fill="none" stroke="black" points="177,-184.407 1,-184.407 1,-158.407 177,-158.407 177,-184.407"/>
<text text-anchor="middle" x="89" y="-168.957" font-family="Helvetica,sans-Serif" font-size="10.50">foodie_integrator_tvd_runge_kutta</text>
</g>
<!-- module~foodie -->
<g id="node2" class="node"><title>module~foodie</title>
<a xlink:href="../module/foodie.html" xlink:title="foodie">
<polygon fill="#337ab7" stroke="#337ab7" points="268,-184.407 214,-184.407 214,-158.407 268,-158.407 268,-184.407"/>
<text text-anchor="middle" x="241" y="-168.957" font-family="Helvetica,sans-Serif" font-size="10.50" fill="white">foodie</text>
</a>
</g>
<!-- module~foodie_integrator_tvd_runge_kutta&#45;&gt;module~foodie -->
<g id="edge32" class="edge"><title>module~foodie_integrator_tvd_runge_kutta&#45;&gt;module~foodie</title>
<path fill="none" stroke="black" stroke-dasharray="5,2" d="M177.859,-171.407C186.893,-171.407 195.678,-171.407 203.682,-171.407"/>
<polygon fill="black" stroke="black" points="203.71,-174.907 213.71,-171.407 203.71,-167.907 203.71,-174.907"/>
</g>
<!-- program~integrate_burgers -->
<g id="node3" class="node"><title>program~integrate_burgers</title>
<a xlink:href="../program/integrate_burgers.html" xlink:title="integrate_burgers">
<polygon fill="#f0ad4e" stroke="#f0ad4e" points="591,-330.407 495,-330.407 495,-304.407 591,-304.407 591,-330.407"/>
<text text-anchor="middle" x="543" y="-314.957" font-family="Helvetica,sans-Serif" font-size="10.50" fill="white">integrate_burgers</text>
</a>
</g>
<!-- module~foodie&#45;&gt;program~integrate_burgers -->
<g id="edge12" class="edge"><title>module~foodie&#45;&gt;program~integrate_burgers</title>
<path fill="none" stroke="black" stroke-dasharray="5,2" d="M241.991,-184.679C245.044,-214.868 257.178,-288.45 304,-319.407 359.976,-356.416 440.606,-345.869 492.404,-333.08"/>
<polygon fill="black" stroke="black" points="493.557,-336.397 502.363,-330.506 491.806,-329.62 493.557,-336.397"/>
</g>
<!-- module~type_euler_1d -->
<g id="node4" class="node"><title>module~type_euler_1d</title>
<a xlink:href="../module/type_euler_1d.html" xlink:title="type_euler_1D">
<polygon fill="#337ab7" stroke="#337ab7" points="409,-266.407 327,-266.407 327,-240.407 409,-240.407 409,-266.407"/>
<text text-anchor="middle" x="368" y="-250.957" font-family="Helvetica,sans-Serif" font-size="10.50" fill="white">type_euler_1D</text>
</a>
</g>
<!-- module~foodie&#45;&gt;module~type_euler_1d -->
<g id="edge14" class="edge"><title>module~foodie&#45;&gt;module~type_euler_1d</title>
<path fill="none" stroke="black" stroke-dasharray="5,2" d="M253.536,-184.534C265.599,-196.607 284.791,-214.405 304,-226.407 309.703,-229.97 315.959,-233.263 322.255,-236.233"/>
<polygon fill="black" stroke="black" points="320.893,-239.457 331.45,-240.348 323.752,-233.068 320.893,-239.457"/>
</g>
<!-- program~integrate_lorenz -->
<g id="node5" class="node"><title>program~integrate_lorenz</title>
<a xlink:href="../program/integrate_lorenz.html" xlink:title="integrate_lorenz">
<polygon fill="#f0ad4e" stroke="#f0ad4e" points="588,-184.407 498,-184.407 498,-158.407 588,-158.407 588,-184.407"/>
<text text-anchor="middle" x="543" y="-168.957" font-family="Helvetica,sans-Serif" font-size="10.50" fill="white">integrate_lorenz</text>
</a>
</g>
<!-- module~foodie&#45;&gt;program~integrate_lorenz -->
<g id="edge16" class="edge"><title>module~foodie&#45;&gt;program~integrate_lorenz</title>
<path fill="none" stroke="black" stroke-dasharray="5,2" d="M268.024,-183.808C293.253,-194.49 332.275,-208.748 368,-212.407"/>
<path fill="none" stroke="black" stroke-dasharray="5,2" d="M368,-212.407C379.991,-213.635 441.256,-198.445 487.948,-186.209"/>
<polygon fill="black" stroke="black" points="488.888,-189.58 497.667,-183.649 487.106,-182.811 488.888,-189.58"/>
</g>
<!-- program~integrate_oscillation -->
<g id="node6" class="node"><title>program~integrate_oscillation</title>
<a xlink:href="../program/integrate_oscillation.html" xlink:title="integrate_oscillation">
<polygon fill="#f0ad4e" stroke="#f0ad4e" points="596,-112.407 490,-112.407 490,-86.407 596,-86.407 596,-112.407"/>
<text text-anchor="middle" x="543" y="-96.957" font-family="Helvetica,sans-Serif" font-size="10.50" fill="white">integrate_oscillation</text>
</a>
</g>
<!-- module~foodie&#45;&gt;program~integrate_oscillation -->
<g id="edge18" class="edge"><title>module~foodie&#45;&gt;program~integrate_oscillation</title>
<path fill="none" stroke="black" stroke-dasharray="5,2" d="M268.045,-161.098C279.091,-157.115 292.057,-152.727 304,-149.407 362.722,-133.086 430.869,-119.327 479.333,-110.399"/>
<polygon fill="black" stroke="black" points="480.156,-113.807 489.365,-108.569 478.899,-106.921 480.156,-113.807"/>
</g>
<!-- module~type_lorenz -->
<g id="node7" class="node"><title>module~type_lorenz</title>
<a xlink:href="../module/type_lorenz.html" xlink:title="type_lorenz">
<polygon fill="#337ab7" stroke="#337ab7" points="402,-184.407 334,-184.407 334,-158.407 402,-158.407 402,-184.407"/>
<text text-anchor="middle" x="368" y="-168.957" font-family="Helvetica,sans-Serif" font-size="10.50" fill="white">type_lorenz</text>
</a>
</g>
<!-- module~foodie&#45;&gt;module~type_lorenz -->
<g id="edge20" class="edge"><title>module~foodie&#45;&gt;module~type_lorenz</title>
<path fill="none" stroke="black" stroke-dasharray="5,2" d="M268.245,-171.407C284.282,-171.407 304.959,-171.407 323.326,-171.407"/>
<polygon fill="black" stroke="black" points="323.534,-174.907 333.534,-171.407 323.534,-167.907 323.534,-174.907"/>
</g>
<!-- module~type_burgers -->
<g id="node8" class="node"><title>module~type_burgers</title>
<a xlink:href="../module/type_burgers.html" xlink:title="type_burgers">
<polygon fill="#337ab7" stroke="#337ab7" points="406,-310.407 330,-310.407 330,-284.407 406,-284.407 406,-310.407"/>
<text text-anchor="middle" x="368" y="-294.957" font-family="Helvetica,sans-Serif" font-size="10.50" fill="white">type_burgers</text>
</a>
</g>
<!-- module~foodie&#45;&gt;module~type_burgers -->
<g id="edge22" class="edge"><title>module~foodie&#45;&gt;module~type_burgers</title>
<path fill="none" stroke="black" stroke-dasharray="5,2" d="M245.566,-184.6C253.819,-206.556 273.271,-250.627 304,-275.407 308.922,-279.376 314.602,-282.648 320.505,-285.342"/>
<polygon fill="black" stroke="black" points="319.303,-288.631 329.887,-289.114 321.915,-282.136 319.303,-288.631"/>
</g>
<!-- program~integrate_euler_1d -->
<g id="node9" class="node"><title>program~integrate_euler_1d</title>
<a xlink:href="../program/integrate_euler_1d.html" xlink:title="integrate_euler_1D">
<polygon fill="#f0ad4e" stroke="#f0ad4e" points="595,-228.407 491,-228.407 491,-202.407 595,-202.407 595,-228.407"/>
<text text-anchor="middle" x="543" y="-212.957" font-family="Helvetica,sans-Serif" font-size="10.50" fill="white">integrate_euler_1D</text>
</a>
</g>
<!-- module~foodie&#45;&gt;program~integrate_euler_1d -->
<g id="edge24" class="edge"><title>module~foodie&#45;&gt;program~integrate_euler_1d</title>
<path fill="none" stroke="black" stroke-dasharray="5,2" d="M368,-212.407C405.256,-216.223 447.202,-217.06 480.686,-216.902"/>
<polygon fill="black" stroke="black" points="480.819,-220.401 490.792,-216.823 480.765,-213.401 480.819,-220.401"/>
</g>
<!-- module~type_oscillation -->
<g id="node10" class="node"><title>module~type_oscillation</title>
<a xlink:href="../module/type_oscillation.html" xlink:title="type_oscillation">
<polygon fill="#337ab7" stroke="#337ab7" points="410,-102.407 326,-102.407 326,-76.407 410,-76.407 410,-102.407"/>
<text text-anchor="middle" x="368" y="-86.957" font-family="Helvetica,sans-Serif" font-size="10.50" fill="white">type_oscillation</text>
</a>
</g>
<!-- module~foodie&#45;&gt;module~type_oscillation -->
<g id="edge26" class="edge"><title>module~foodie&#45;&gt;module~type_oscillation</title>
<path fill="none" stroke="black" stroke-dasharray="5,2" d="M253.536,-158.281C265.599,-146.207 284.791,-128.409 304,-116.407 309.703,-112.844 315.959,-109.551 322.255,-106.581"/>
<polygon fill="black" stroke="black" points="323.752,-109.746 331.45,-102.466 320.893,-103.357 323.752,-109.746"/>
</g>
<!-- module~type_euler_1d_openmp -->
<g id="node11" class="node"><title>module~type_euler_1d_openmp</title>
<a xlink:href="../module/type_euler_1d_openmp.html" xlink:title="type_euler_1D_openmp">
<polygon fill="#337ab7" stroke="#337ab7" points="431,-58.407 305,-58.407 305,-32.407 431,-32.407 431,-58.407"/>
<text text-anchor="middle" x="368" y="-42.957" font-family="Helvetica,sans-Serif" font-size="10.50" fill="white">type_euler_1D_openmp</text>
</a>
</g>
<!-- module~foodie&#45;&gt;module~type_euler_1d_openmp -->
<g id="edge28" class="edge"><title>module~foodie&#45;&gt;module~type_euler_1d_openmp</title>
<path fill="none" stroke="black" stroke-dasharray="5,2" d="M245.566,-158.214C253.819,-136.258 273.271,-92.1867 304,-67.407 305.746,-65.9988 307.588,-64.6783 309.502,-63.4402"/>
<polygon fill="black" stroke="black" points="311.263,-66.4655 318.275,-58.5235 307.84,-60.3591 311.263,-66.4655"/>
</g>
<!-- program~integrate_euler_1d_openmp -->
<g id="node12" class="node"><title>program~integrate_euler_1d_openmp</title>
<a xlink:href="../program/integrate_euler_1d_openmp.html" xlink:title="integrate_euler_1D_openmp">
<polygon fill="#f0ad4e" stroke="#f0ad4e" points="617,-48.407 469,-48.407 469,-22.407 617,-22.407 617,-48.407"/>
<text text-anchor="middle" x="543" y="-32.957" font-family="Helvetica,sans-Serif" font-size="10.50" fill="white">integrate_euler_1D_openmp</text>
</a>
</g>
<!-- module~foodie&#45;&gt;program~integrate_euler_1d_openmp -->
<g id="edge30" class="edge"><title>module~foodie&#45;&gt;program~integrate_euler_1d_openmp</title>
<path fill="none" stroke="black" stroke-dasharray="5,2" d="M241.991,-158.135C245.044,-127.946 257.178,-54.3636 304,-23.407 362.969,15.5805 449.136,-2.56135 500.293,-19.1122"/>
<polygon fill="black" stroke="black" points="499.445,-22.5195 510.039,-22.3837 501.673,-15.8834 499.445,-22.5195"/>
</g>
<!-- module~type_euler_1d&#45;&gt;program~integrate_euler_1d -->
<g id="edge2" class="edge"><title>module~type_euler_1d&#45;&gt;program~integrate_euler_1d</title>
<path fill="none" stroke="black" stroke-dasharray="5,2" d="M409.03,-244.498C430.422,-239.853 457.034,-234.074 480.89,-228.894"/>
<polygon fill="black" stroke="black" points="481.892,-232.258 490.922,-226.715 480.407,-225.417 481.892,-232.258"/>
</g>
<!-- module~type_lorenz&#45;&gt;program~integrate_lorenz -->
<g id="edge4" class="edge"><title>module~type_lorenz&#45;&gt;program~integrate_lorenz</title>
<path fill="none" stroke="black" stroke-dasharray="5,2" d="M402.157,-171.407C426.519,-171.407 459.803,-171.407 487.898,-171.407"/>
<polygon fill="black" stroke="black" points="487.987,-174.907 497.987,-171.407 487.987,-167.907 487.987,-174.907"/>
</g>
<!-- module~type_burgers&#45;&gt;program~integrate_burgers -->
<g id="edge6" class="edge"><title>module~type_burgers&#45;&gt;program~integrate_burgers</title>
<path fill="none" stroke="black" stroke-dasharray="5,2" d="M406.404,-301.796C429.232,-304.405 458.651,-307.767 484.337,-310.703"/>
<polygon fill="black" stroke="black" points="484.012,-314.188 494.344,-311.846 484.807,-307.233 484.012,-314.188"/>
</g>
<!-- module~type_oscillation&#45;&gt;program~integrate_oscillation -->
<g id="edge8" class="edge"><title>module~type_oscillation&#45;&gt;program~integrate_oscillation</title>
<path fill="none" stroke="black" stroke-dasharray="5,2" d="M410.81,-91.8533C431.343,-93.0266 456.365,-94.4564 479.092,-95.7551"/>
<polygon fill="black" stroke="black" points="479.164,-99.2649 489.348,-96.3412 479.564,-92.2763 479.164,-99.2649"/>
</g>
<!-- module~type_euler_1d_openmp&#45;&gt;program~integrate_euler_1d_openmp -->
<g id="edge10" class="edge"><title>module~type_euler_1d_openmp&#45;&gt;program~integrate_euler_1d_openmp</title>
<path fill="none" stroke="black" stroke-dasharray="5,2" d="M431.674,-41.7685C440.337,-41.2735 449.337,-40.7592 458.297,-40.2472"/>
<polygon fill="black" stroke="black" points="458.594,-43.736 468.378,-39.6711 458.194,-36.7474 458.594,-43.736"/>
</g>
</g>
</svg>
