<?xml version="1.0" encoding="UTF-8" standalone="no"?>
<!DOCTYPE svg PUBLIC "-//W3C//DTD SVG 1.1//EN"
 "http://www.w3.org/Graphics/SVG/1.1/DTD/svg11.dtd">
<!-- Generated by graphviz version 2.26.3 (20100126.1600)
 -->
<!-- Title: module~~foodie_integrator_leapfrog~~UsedByGraph Pages: 1 -->
<svg width="504pt" height="305pt"
 viewBox="0.00 0.00 504.00 304.93" xmlns="http://www.w3.org/2000/svg" xmlns:xlink="http://www.w3.org/1999/xlink">
<g id="graph1" class="graph" transform="scale(1 1) rotate(0) translate(4 300.927)">
<title>module~~foodie_integrator_leapfrog~~UsedByGraph</title>
<polygon fill="white" stroke="white" points="-4,5 -4,-300.927 501,-300.927 501,5 -4,5"/>
<!-- module~foodie_integrator_leapfrog -->
<g id="node1" class="node"><title>module~foodie_integrator_leapfrog</title>
<polygon fill="none" stroke="black" points="139,-152.927 1,-152.927 1,-126.927 139,-126.927 139,-152.927"/>
<text text-anchor="middle" x="70" y="-137.477" font-family="Helvetica,sans-Serif" font-size="10.50">foodie_integrator_leapfrog</text>
</g>
<!-- module~foodie -->
<g id="node2" class="node"><title>module~foodie</title>
<a xlink:href="../module/foodie.html" xlink:title="foodie">
<polygon fill="#337ab7" stroke="#337ab7" points="230,-152.927 176,-152.927 176,-126.927 230,-126.927 230,-152.927"/>
<text text-anchor="middle" x="203" y="-137.477" font-family="Helvetica,sans-Serif" font-size="10.50" fill="white">foodie</text>
</a>
</g>
<!-- module~foodie_integrator_leapfrog&#45;&gt;module~foodie -->
<g id="edge26" class="edge"><title>module~foodie_integrator_leapfrog&#45;&gt;module~foodie</title>
<path fill="none" stroke="black" stroke-dasharray="5,2" d="M139.616,-139.927C148.531,-139.927 157.371,-139.927 165.494,-139.927"/>
<polygon fill="black" stroke="black" points="165.704,-143.428 175.704,-139.927 165.704,-136.428 165.704,-143.428"/>
</g>
<!-- module~type_oscillation -->
<g id="node3" class="node"><title>module~type_oscillation</title>
<a xlink:href="../module/type_oscillation.html" xlink:title="type_oscillation">
<polygon fill="#337ab7" stroke="#337ab7" points="351,-296.927 267,-296.927 267,-270.927 351,-270.927 351,-296.927"/>
<text text-anchor="middle" x="309" y="-281.477" font-family="Helvetica,sans-Serif" font-size="10.50" fill="white">type_oscillation</text>
</a>
</g>
<!-- module~foodie&#45;&gt;module~type_oscillation -->
<g id="edge10" class="edge"><title>module~foodie&#45;&gt;module~type_oscillation</title>
<path fill="none" stroke="black" stroke-dasharray="5,2" d="M207.566,-153.231C216.07,-176.488 236.214,-225.084 266,-256.927 268.7,-259.814 271.774,-262.518 275.008,-265.015"/>
<polygon fill="black" stroke="black" points="273.051,-267.918 283.252,-270.779 277.062,-262.181 273.051,-267.918"/>
</g>
<!-- module~type_burgers -->
<g id="node4" class="node"><title>module~type_burgers</title>
<a xlink:href="../module/type_burgers.html" xlink:title="type_burgers">
<polygon fill="#337ab7" stroke="#337ab7" points="347,-214.927 271,-214.927 271,-188.927 347,-188.927 347,-214.927"/>
<text text-anchor="middle" x="309" y="-199.477" font-family="Helvetica,sans-Serif" font-size="10.50" fill="white">type_burgers</text>
</a>
</g>
<!-- module~foodie&#45;&gt;module~type_burgers -->
<g id="edge12" class="edge"><title>module~foodie&#45;&gt;module~type_burgers</title>
<path fill="none" stroke="black" stroke-dasharray="5,2" d="M225.48,-153.076C240.658,-161.954 260.901,-173.794 277.657,-183.595"/>
<polygon fill="black" stroke="black" points="276.154,-186.77 286.553,-188.798 279.688,-180.728 276.154,-186.77"/>
</g>
<!-- program~integrate_oscillation -->
<g id="node5" class="node"><title>program~integrate_oscillation</title>
<a xlink:href="../program/integrate_oscillation.html" xlink:title="integrate_oscillation">
<polygon fill="#f0ad4e" stroke="#f0ad4e" points="495,-275.927 389,-275.927 389,-249.927 495,-249.927 495,-275.927"/>
<text text-anchor="middle" x="442" y="-260.477" font-family="Helvetica,sans-Serif" font-size="10.50" fill="white">integrate_oscillation</text>
</a>
</g>
<!-- module~foodie&#45;&gt;program~integrate_oscillation -->
<g id="edge14" class="edge"><title>module~foodie&#45;&gt;program~integrate_oscillation</title>
<path fill="none" stroke="black" stroke-dasharray="5,2" d="M209.069,-153.04C218.48,-171.842 238.423,-206.147 266,-223.927 299.277,-245.383 342.647,-255.157 378.007,-259.555"/>
<polygon fill="black" stroke="black" points="377.898,-263.065 388.227,-260.707 378.681,-256.109 377.898,-263.065"/>
</g>
<!-- program~integrate_burgers -->
<g id="node6" class="node"><title>program~integrate_burgers</title>
<a xlink:href="../program/integrate_burgers.html" xlink:title="integrate_burgers">
<polygon fill="#f0ad4e" stroke="#f0ad4e" points="490,-193.927 394,-193.927 394,-167.927 490,-167.927 490,-193.927"/>
<text text-anchor="middle" x="442" y="-178.477" font-family="Helvetica,sans-Serif" font-size="10.50" fill="white">integrate_burgers</text>
</a>
</g>
<!-- module~foodie&#45;&gt;program~integrate_burgers -->
<g id="edge16" class="edge"><title>module~foodie&#45;&gt;program~integrate_burgers</title>
<path fill="none" stroke="black" stroke-dasharray="5,2" d="M230.416,-144.631C267.505,-150.993 334.62,-162.507 383.338,-170.864"/>
<polygon fill="black" stroke="black" points="382.989,-174.355 393.437,-172.596 384.173,-167.456 382.989,-174.355"/>
</g>
<!-- module~type_euler_1d -->
<g id="node7" class="node"><title>module~type_euler_1d</title>
<a xlink:href="../module/type_euler_1d.html" xlink:title="type_euler_1D">
<polygon fill="#337ab7" stroke="#337ab7" points="350,-132.927 268,-132.927 268,-106.927 350,-106.927 350,-132.927"/>
<text text-anchor="middle" x="309" y="-117.477" font-family="Helvetica,sans-Serif" font-size="10.50" fill="white">type_euler_1D</text>
</a>
</g>
<!-- module~foodie&#45;&gt;module~type_euler_1d -->
<g id="edge18" class="edge"><title>module~foodie&#45;&gt;module~type_euler_1d</title>
<path fill="none" stroke="black" stroke-dasharray="5,2" d="M230.023,-134.829C238.49,-133.231 248.133,-131.412 257.702,-129.606"/>
<polygon fill="black" stroke="black" points="258.417,-133.033 267.594,-127.74 257.119,-126.155 258.417,-133.033"/>
</g>
<!-- program~integrate_euler_1d -->
<g id="node8" class="node"><title>program~integrate_euler_1d</title>
<a xlink:href="../program/integrate_euler_1d.html" xlink:title="integrate_euler_1D">
<polygon fill="#f0ad4e" stroke="#f0ad4e" points="494,-102.927 390,-102.927 390,-76.9274 494,-76.9274 494,-102.927"/>
<text text-anchor="middle" x="442" y="-87.4774" font-family="Helvetica,sans-Serif" font-size="10.50" fill="white">integrate_euler_1D</text>
</a>
</g>
<!-- module~foodie&#45;&gt;program~integrate_euler_1d -->
<g id="edge20" class="edge"><title>module~foodie&#45;&gt;program~integrate_euler_1d</title>
<path fill="none" stroke="black" stroke-dasharray="5,2" d="M217.798,-126.639C229.836,-116.725 247.762,-103.905 266,-97.9274 302.35,-86.0137 345.188,-83.8311 379.5,-84.715"/>
<polygon fill="black" stroke="black" points="379.741,-88.2256 389.858,-85.0804 379.987,-81.2299 379.741,-88.2256"/>
</g>
<!-- module~type_lorenz -->
<g id="node9" class="node"><title>module~type_lorenz</title>
<a xlink:href="../module/type_lorenz.html" xlink:title="type_lorenz">
<polygon fill="#337ab7" stroke="#337ab7" points="343,-50.9274 275,-50.9274 275,-24.9274 343,-24.9274 343,-50.9274"/>
<text text-anchor="middle" x="309" y="-35.4774" font-family="Helvetica,sans-Serif" font-size="10.50" fill="white">type_lorenz</text>
</a>
</g>
<!-- module~foodie&#45;&gt;module~type_lorenz -->
<g id="edge22" class="edge"><title>module~foodie&#45;&gt;module~type_lorenz</title>
<path fill="none" stroke="black" stroke-dasharray="5,2" d="M212.171,-126.649C223.57,-110.756 244.198,-83.9112 266,-64.9274 269.382,-61.9825 273.118,-59.1417 276.934,-56.48"/>
<polygon fill="black" stroke="black" points="278.879,-59.3896 285.308,-50.9682 275.031,-53.5425 278.879,-59.3896"/>
</g>
<!-- program~integrate_lorenz -->
<g id="node10" class="node"><title>program~integrate_lorenz</title>
<a xlink:href="../program/integrate_lorenz.html" xlink:title="integrate_lorenz">
<polygon fill="#f0ad4e" stroke="#f0ad4e" points="487,-39.9274 397,-39.9274 397,-13.9274 487,-13.9274 487,-39.9274"/>
<text text-anchor="middle" x="442" y="-24.4774" font-family="Helvetica,sans-Serif" font-size="10.50" fill="white">integrate_lorenz</text>
</a>
</g>
<!-- module~foodie&#45;&gt;program~integrate_lorenz -->
<g id="edge24" class="edge"><title>module~foodie&#45;&gt;program~integrate_lorenz</title>
<path fill="none" stroke="black" stroke-dasharray="5,2" d="M205.112,-126.765C210.161,-100.217 225.661,-40.6796 266,-15.9274 305.644,8.39791 360.219,-0.0226532 398.041,-10.8899"/>
<polygon fill="black" stroke="black" points="397.171,-14.2835 407.757,-13.8402 399.205,-7.5855 397.171,-14.2835"/>
</g>
<!-- module~type_oscillation&#45;&gt;program~integrate_oscillation -->
<g id="edge2" class="edge"><title>module~type_oscillation&#45;&gt;program~integrate_oscillation</title>
<path fill="none" stroke="black" stroke-dasharray="5,2" d="M351.814,-277.167C360.201,-275.843 369.165,-274.428 378.068,-273.022"/>
<polygon fill="black" stroke="black" points="378.728,-276.461 388.06,-271.444 377.636,-269.547 378.728,-276.461"/>
</g>
<!-- module~type_burgers&#45;&gt;program~integrate_burgers -->
<g id="edge4" class="edge"><title>module~type_burgers&#45;&gt;program~integrate_burgers</title>
<path fill="none" stroke="black" stroke-dasharray="5,2" d="M347.112,-195.91C358.387,-194.13 371.001,-192.138 383.259,-190.202"/>
<polygon fill="black" stroke="black" points="384.102,-193.613 393.434,-188.596 383.011,-186.698 384.102,-193.613"/>
</g>
<!-- module~type_euler_1d&#45;&gt;program~integrate_euler_1d -->
<g id="edge6" class="edge"><title>module~type_euler_1d&#45;&gt;program~integrate_euler_1d</title>
<path fill="none" stroke="black" stroke-dasharray="5,2" d="M350.353,-110.6C359.732,-108.484 369.894,-106.192 379.922,-103.93"/>
<polygon fill="black" stroke="black" points="380.885,-107.301 389.87,-101.686 379.345,-100.472 380.885,-107.301"/>
</g>
<!-- module~type_lorenz&#45;&gt;program~integrate_lorenz -->
<g id="edge8" class="edge"><title>module~type_lorenz&#45;&gt;program~integrate_lorenz</title>
<path fill="none" stroke="black" stroke-dasharray="5,2" d="M343.251,-35.0946C356.508,-33.9982 372.022,-32.7151 386.774,-31.495"/>
<polygon fill="black" stroke="black" points="387.15,-34.9759 396.827,-30.6635 386.573,-27.9998 387.15,-34.9759"/>
</g>
</g>
</svg>
