<?xml version="1.0" encoding="UTF-8" standalone="no"?>
<!DOCTYPE svg PUBLIC "-//W3C//DTD SVG 1.1//EN"
 "http://www.w3.org/Graphics/SVG/1.1/DTD/svg11.dtd">
<!-- Generated by graphviz version 2.26.3 (20100126.1600)
 -->
<!-- Title: module~~foodie_integrator_tvd_runge_kutta~~UsedByGraph Pages: 1 -->
<svg width="542pt" height="266pt"
 viewBox="0.00 0.00 542.00 265.79" xmlns="http://www.w3.org/2000/svg" xmlns:xlink="http://www.w3.org/1999/xlink">
<g id="graph1" class="graph" transform="scale(1 1) rotate(0) translate(4 261.791)">
<title>module~~foodie_integrator_tvd_runge_kutta~~UsedByGraph</title>
<polygon fill="white" stroke="white" points="-4,5 -4,-261.791 539,-261.791 539,5 -4,5"/>
<!-- module~foodie_integrator_tvd_runge_kutta -->
<g id="node1" class="node"><title>module~foodie_integrator_tvd_runge_kutta</title>
<polygon fill="none" stroke="black" points="177,-131.791 1,-131.791 1,-105.791 177,-105.791 177,-131.791"/>
<text text-anchor="middle" x="89" y="-116.341" font-family="Helvetica,sans-Serif" font-size="10.50">foodie_integrator_tvd_runge_kutta</text>
</g>
<!-- module~foodie -->
<g id="node2" class="node"><title>module~foodie</title>
<a xlink:href="../module/foodie.html" xlink:title="foodie">
<polygon fill="#337ab7" stroke="#337ab7" points="268,-131.791 214,-131.791 214,-105.791 268,-105.791 268,-131.791"/>
<text text-anchor="middle" x="241" y="-116.341" font-family="Helvetica,sans-Serif" font-size="10.50" fill="white">foodie</text>
</a>
</g>
<!-- module~foodie_integrator_tvd_runge_kutta&#45;&gt;module~foodie -->
<g id="edge26" class="edge"><title>module~foodie_integrator_tvd_runge_kutta&#45;&gt;module~foodie</title>
<path fill="none" stroke="black" stroke-dasharray="5,2" d="M177.859,-118.791C186.893,-118.791 195.678,-118.791 203.682,-118.791"/>
<polygon fill="black" stroke="black" points="203.71,-122.291 213.71,-118.791 203.71,-115.291 203.71,-122.291"/>
</g>
<!-- module~type_oscillation -->
<g id="node3" class="node"><title>module~type_oscillation</title>
<a xlink:href="../module/type_oscillation.html" xlink:title="type_oscillation">
<polygon fill="#337ab7" stroke="#337ab7" points="389,-257.791 305,-257.791 305,-231.791 389,-231.791 389,-257.791"/>
<text text-anchor="middle" x="347" y="-242.341" font-family="Helvetica,sans-Serif" font-size="10.50" fill="white">type_oscillation</text>
</a>
</g>
<!-- module~foodie&#45;&gt;module~type_oscillation -->
<g id="edge10" class="edge"><title>module~foodie&#45;&gt;module~type_oscillation</title>
<path fill="none" stroke="black" stroke-dasharray="5,2" d="M246.997,-131.938C256.727,-152.212 277.558,-191.508 304,-217.791 306.872,-220.645 310.098,-223.345 313.458,-225.853"/>
<polygon fill="black" stroke="black" points="311.733,-228.914 321.963,-231.673 315.687,-223.137 311.733,-228.914"/>
</g>
<!-- program~integrate_lorenz -->
<g id="node4" class="node"><title>program~integrate_lorenz</title>
<a xlink:href="../program/integrate_lorenz.html" xlink:title="integrate_lorenz">
<polygon fill="#f0ad4e" stroke="#f0ad4e" points="525,-175.791 435,-175.791 435,-149.791 525,-149.791 525,-175.791"/>
<text text-anchor="middle" x="480" y="-160.341" font-family="Helvetica,sans-Serif" font-size="10.50" fill="white">integrate_lorenz</text>
</a>
</g>
<!-- module~foodie&#45;&gt;program~integrate_lorenz -->
<g id="edge12" class="edge"><title>module~foodie&#45;&gt;program~integrate_lorenz</title>
<path fill="none" stroke="black" stroke-dasharray="5,2" d="M250.906,-131.923C262.381,-146.412 282.483,-169.676 304,-184.791 321.097,-196.8 326.847,-198.278 347,-203.791"/>
<path fill="none" stroke="black" stroke-dasharray="5,2" d="M347,-203.791C355.734,-206.18 399.844,-191.712 434.905,-179.31"/>
<polygon fill="black" stroke="black" points="436.274,-182.538 444.517,-175.883 433.923,-175.945 436.274,-182.538"/>
</g>
<!-- module~type_euler_1d -->
<g id="node5" class="node"><title>module~type_euler_1d</title>
<a xlink:href="../module/type_euler_1d.html" xlink:title="type_euler_1D">
<polygon fill="#337ab7" stroke="#337ab7" points="388,-131.791 306,-131.791 306,-105.791 388,-105.791 388,-131.791"/>
<text text-anchor="middle" x="347" y="-116.341" font-family="Helvetica,sans-Serif" font-size="10.50" fill="white">type_euler_1D</text>
</a>
</g>
<!-- module~foodie&#45;&gt;module~type_euler_1d -->
<g id="edge14" class="edge"><title>module~foodie&#45;&gt;module~type_euler_1d</title>
<path fill="none" stroke="black" stroke-dasharray="5,2" d="M268.023,-118.791C276.401,-118.791 285.93,-118.791 295.4,-118.791"/>
<polygon fill="black" stroke="black" points="295.594,-122.291 305.594,-118.791 295.594,-115.291 295.594,-122.291"/>
</g>
<!-- module~type_burgers -->
<g id="node6" class="node"><title>module~type_burgers</title>
<a xlink:href="../module/type_burgers.html" xlink:title="type_burgers">
<polygon fill="#337ab7" stroke="#337ab7" points="385,-49.7905 309,-49.7905 309,-23.7905 385,-23.7905 385,-49.7905"/>
<text text-anchor="middle" x="347" y="-34.3405" font-family="Helvetica,sans-Serif" font-size="10.50" fill="white">type_burgers</text>
</a>
</g>
<!-- module~foodie&#45;&gt;module~type_burgers -->
<g id="edge16" class="edge"><title>module~foodie&#45;&gt;module~type_burgers</title>
<path fill="none" stroke="black" stroke-dasharray="5,2" d="M254.975,-105.453C267.399,-93.877 286.288,-76.9558 304,-63.7905 307.865,-60.918 312.038,-58.0421 316.212,-55.2949"/>
<polygon fill="black" stroke="black" points="318.142,-58.2148 324.682,-49.8793 314.372,-52.3171 318.142,-58.2148"/>
</g>
<!-- program~integrate_burgers -->
<g id="node7" class="node"><title>program~integrate_burgers</title>
<a xlink:href="../program/integrate_burgers.html" xlink:title="integrate_burgers">
<polygon fill="#f0ad4e" stroke="#f0ad4e" points="528,-38.7905 432,-38.7905 432,-12.7905 528,-12.7905 528,-38.7905"/>
<text text-anchor="middle" x="480" y="-23.3405" font-family="Helvetica,sans-Serif" font-size="10.50" fill="white">integrate_burgers</text>
</a>
</g>
<!-- module~foodie&#45;&gt;program~integrate_burgers -->
<g id="edge18" class="edge"><title>module~foodie&#45;&gt;program~integrate_burgers</title>
<path fill="none" stroke="black" stroke-dasharray="5,2" d="M244.435,-105.543C251.279,-82.2296 269.055,-34.4783 304,-14.7905 343.788,7.62623 396.966,0.183857 434.419,-9.93135"/>
<polygon fill="black" stroke="black" points="433.485,-13.3046 444.062,-12.6877 435.409,-6.57414 433.485,-13.3046"/>
</g>
<!-- program~integrate_oscillation -->
<g id="node8" class="node"><title>program~integrate_oscillation</title>
<a xlink:href="../program/integrate_oscillation.html" xlink:title="integrate_oscillation">
<polygon fill="#f0ad4e" stroke="#f0ad4e" points="533,-219.791 427,-219.791 427,-193.791 533,-193.791 533,-219.791"/>
<text text-anchor="middle" x="480" y="-204.341" font-family="Helvetica,sans-Serif" font-size="10.50" fill="white">integrate_oscillation</text>
</a>
</g>
<!-- module~foodie&#45;&gt;program~integrate_oscillation -->
<g id="edge20" class="edge"><title>module~foodie&#45;&gt;program~integrate_oscillation</title>
<path fill="none" stroke="black" stroke-dasharray="5,2" d="M347,-203.791C369.12,-209.841 394.09,-211.649 416.37,-211.596"/>
<polygon fill="black" stroke="black" points="416.45,-215.095 426.398,-211.449 416.348,-208.096 416.45,-215.095"/>
</g>
<!-- module~type_lorenz -->
<g id="node9" class="node"><title>module~type_lorenz</title>
<a xlink:href="../module/type_lorenz.html" xlink:title="type_lorenz">
<polygon fill="#337ab7" stroke="#337ab7" points="381,-175.791 313,-175.791 313,-149.791 381,-149.791 381,-175.791"/>
<text text-anchor="middle" x="347" y="-160.341" font-family="Helvetica,sans-Serif" font-size="10.50" fill="white">type_lorenz</text>
</a>
</g>
<!-- module~foodie&#45;&gt;module~type_lorenz -->
<g id="edge22" class="edge"><title>module~foodie&#45;&gt;module~type_lorenz</title>
<path fill="none" stroke="black" stroke-dasharray="5,2" d="M268.023,-130.007C279.558,-134.796 293.275,-140.489 306.014,-145.777"/>
<polygon fill="black" stroke="black" points="304.935,-149.119 315.513,-149.72 307.619,-142.654 304.935,-149.119"/>
</g>
<!-- program~integrate_euler_1d -->
<g id="node10" class="node"><title>program~integrate_euler_1d</title>
<a xlink:href="../program/integrate_euler_1d.html" xlink:title="integrate_euler_1D">
<polygon fill="#f0ad4e" stroke="#f0ad4e" points="532,-101.791 428,-101.791 428,-75.7905 532,-75.7905 532,-101.791"/>
<text text-anchor="middle" x="480" y="-86.3405" font-family="Helvetica,sans-Serif" font-size="10.50" fill="white">integrate_euler_1D</text>
</a>
</g>
<!-- module~foodie&#45;&gt;program~integrate_euler_1d -->
<g id="edge24" class="edge"><title>module~foodie&#45;&gt;program~integrate_euler_1d</title>
<path fill="none" stroke="black" stroke-dasharray="5,2" d="M268.122,-107.38C279.069,-103.29 291.942,-99.1182 304,-96.7905 341.287,-89.5925 383.804,-87.4947 417.708,-87.243"/>
<polygon fill="black" stroke="black" points="417.945,-90.7426 427.938,-87.2206 417.93,-83.7426 417.945,-90.7426"/>
</g>
<!-- module~type_oscillation&#45;&gt;program~integrate_oscillation -->
<g id="edge2" class="edge"><title>module~type_oscillation&#45;&gt;program~integrate_oscillation</title>
<path fill="none" stroke="black" stroke-dasharray="5,2" d="M389.814,-232.558C400.738,-229.437 412.644,-226.035 424.116,-222.757"/>
<polygon fill="black" stroke="black" points="425.398,-226.031 434.051,-219.919 423.475,-219.301 425.398,-226.031"/>
</g>
<!-- module~type_euler_1d&#45;&gt;program~integrate_euler_1d -->
<g id="edge4" class="edge"><title>module~type_euler_1d&#45;&gt;program~integrate_euler_1d</title>
<path fill="none" stroke="black" stroke-dasharray="5,2" d="M388.353,-109.463C397.732,-107.347 407.894,-105.055 417.922,-102.793"/>
<polygon fill="black" stroke="black" points="418.885,-106.164 427.87,-100.549 417.345,-99.3353 418.885,-106.164"/>
</g>
<!-- module~type_burgers&#45;&gt;program~integrate_burgers -->
<g id="edge6" class="edge"><title>module~type_burgers&#45;&gt;program~integrate_burgers</title>
<path fill="none" stroke="black" stroke-dasharray="5,2" d="M385.112,-33.6384C396.387,-32.7059 409.001,-31.6626 421.259,-30.6488"/>
<polygon fill="black" stroke="black" points="421.757,-34.1197 431.434,-29.8072 421.18,-27.1435 421.757,-34.1197"/>
</g>
<!-- module~type_lorenz&#45;&gt;program~integrate_lorenz -->
<g id="edge8" class="edge"><title>module~type_lorenz&#45;&gt;program~integrate_lorenz</title>
<path fill="none" stroke="black" stroke-dasharray="5,2" d="M381.251,-162.791C394.508,-162.791 410.022,-162.791 424.774,-162.791"/>
<polygon fill="black" stroke="black" points="424.827,-166.291 434.827,-162.791 424.827,-159.291 424.827,-166.291"/>
</g>
</g>
</svg>
