<?xml version="1.0" encoding="UTF-8" standalone="no"?>
<!DOCTYPE svg PUBLIC "-//W3C//DTD SVG 1.1//EN"
 "http://www.w3.org/Graphics/SVG/1.1/DTD/svg11.dtd">
<!-- Generated by graphviz version 2.26.3 (20100126.1600)
 -->
<!-- Title: module~~foodie_integrator_euler_explicit~~UsedByGraph Pages: 1 -->
<svg width="526pt" height="268pt"
 viewBox="0.00 0.00 526.00 267.97" xmlns="http://www.w3.org/2000/svg" xmlns:xlink="http://www.w3.org/1999/xlink">
<g id="graph1" class="graph" transform="scale(1 1) rotate(0) translate(4 263.974)">
<title>module~~foodie_integrator_euler_explicit~~UsedByGraph</title>
<polygon fill="white" stroke="white" points="-4,5 -4,-263.974 523,-263.974 523,5 -4,5"/>
<!-- module~foodie_integrator_euler_explicit -->
<g id="node1" class="node"><title>module~foodie_integrator_euler_explicit</title>
<polygon fill="none" stroke="black" points="162,-136.974 8.52651e-14,-136.974 0,-110.974 162,-110.974 162,-136.974"/>
<text text-anchor="middle" x="81" y="-121.524" font-family="Helvetica,sans-Serif" font-size="10.50">foodie_integrator_euler_explicit</text>
</g>
<!-- module~foodie -->
<g id="node2" class="node"><title>module~foodie</title>
<a xlink:href="../module/foodie.html" xlink:title="foodie">
<polygon fill="#337ab7" stroke="#337ab7" points="252,-136.974 198,-136.974 198,-110.974 252,-110.974 252,-136.974"/>
<text text-anchor="middle" x="225" y="-121.524" font-family="Helvetica,sans-Serif" font-size="10.50" fill="white">foodie</text>
</a>
</g>
<!-- module~foodie_integrator_euler_explicit&#45;&gt;module~foodie -->
<g id="edge26" class="edge"><title>module~foodie_integrator_euler_explicit&#45;&gt;module~foodie</title>
<path fill="none" stroke="black" stroke-dasharray="5,2" d="M162.258,-123.974C171.03,-123.974 179.616,-123.974 187.482,-123.974"/>
<polygon fill="black" stroke="black" points="187.714,-127.474 197.714,-123.974 187.714,-120.474 187.714,-127.474"/>
</g>
<!-- module~type_burgers -->
<g id="node3" class="node"><title>module~type_burgers</title>
<a xlink:href="../module/type_burgers.html" xlink:title="type_burgers">
<polygon fill="#337ab7" stroke="#337ab7" points="369,-259.974 293,-259.974 293,-233.974 369,-233.974 369,-259.974"/>
<text text-anchor="middle" x="331" y="-244.524" font-family="Helvetica,sans-Serif" font-size="10.50" fill="white">type_burgers</text>
</a>
</g>
<!-- module~foodie&#45;&gt;module~type_burgers -->
<g id="edge10" class="edge"><title>module~foodie&#45;&gt;module~type_burgers</title>
<path fill="none" stroke="black" stroke-dasharray="5,2" d="M231.254,-137.035C241.178,-156.77 262.089,-194.577 288,-219.974 290.892,-222.808 294.131,-225.495 297.498,-227.995"/>
<polygon fill="black" stroke="black" points="295.779,-231.059 306.012,-233.806 299.726,-225.278 295.779,-231.059"/>
</g>
<!-- module~type_oscillation -->
<g id="node4" class="node"><title>module~type_oscillation</title>
<a xlink:href="../module/type_oscillation.html" xlink:title="type_oscillation">
<polygon fill="#337ab7" stroke="#337ab7" points="373,-177.974 289,-177.974 289,-151.974 373,-151.974 373,-177.974"/>
<text text-anchor="middle" x="331" y="-162.524" font-family="Helvetica,sans-Serif" font-size="10.50" fill="white">type_oscillation</text>
</a>
</g>
<!-- module~foodie&#45;&gt;module~type_oscillation -->
<g id="edge12" class="edge"><title>module~foodie&#45;&gt;module~type_oscillation</title>
<path fill="none" stroke="black" stroke-dasharray="5,2" d="M252.023,-134.426C262.864,-138.619 275.632,-143.558 287.705,-148.227"/>
<polygon fill="black" stroke="black" points="286.598,-151.552 297.188,-151.895 289.124,-145.023 286.598,-151.552"/>
</g>
<!-- program~integrate_lorenz -->
<g id="node5" class="node"><title>program~integrate_lorenz</title>
<a xlink:href="../program/integrate_lorenz.html" xlink:title="integrate_lorenz">
<polygon fill="#f0ad4e" stroke="#f0ad4e" points="509,-95.9736 419,-95.9736 419,-69.9736 509,-69.9736 509,-95.9736"/>
<text text-anchor="middle" x="464" y="-80.5236" font-family="Helvetica,sans-Serif" font-size="10.50" fill="white">integrate_lorenz</text>
</a>
</g>
<!-- module~foodie&#45;&gt;program~integrate_lorenz -->
<g id="edge14" class="edge"><title>module~foodie&#45;&gt;program~integrate_lorenz</title>
<path fill="none" stroke="black" stroke-dasharray="5,2" d="M252.049,-125.029C273.491,-125.61 304.2,-125.878 331,-123.974"/>
<path fill="none" stroke="black" stroke-dasharray="5,2" d="M331,-123.974C348.146,-122.755 387.317,-110.226 418.733,-99.3357"/>
<polygon fill="black" stroke="black" points="419.918,-102.629 428.201,-96.0228 417.607,-96.0219 419.918,-102.629"/>
</g>
<!-- program~integrate_burgers -->
<g id="node6" class="node"><title>program~integrate_burgers</title>
<a xlink:href="../program/integrate_burgers.html" xlink:title="integrate_burgers">
<polygon fill="#f0ad4e" stroke="#f0ad4e" points="512,-238.974 416,-238.974 416,-212.974 512,-212.974 512,-238.974"/>
<text text-anchor="middle" x="464" y="-223.524" font-family="Helvetica,sans-Serif" font-size="10.50" fill="white">integrate_burgers</text>
</a>
</g>
<!-- module~foodie&#45;&gt;program~integrate_burgers -->
<g id="edge16" class="edge"><title>module~foodie&#45;&gt;program~integrate_burgers</title>
<path fill="none" stroke="black" stroke-dasharray="5,2" d="M234.337,-137.018C245.443,-151.526 265.352,-174.55 288,-186.974 324.088,-206.77 369.548,-216.519 405.225,-221.319"/>
<polygon fill="black" stroke="black" points="405.13,-224.835 415.486,-222.601 405.997,-217.889 405.13,-224.835"/>
</g>
<!-- module~type_euler_1d -->
<g id="node7" class="node"><title>module~type_euler_1d</title>
<a xlink:href="../module/type_euler_1d.html" xlink:title="type_euler_1D">
<polygon fill="#337ab7" stroke="#337ab7" points="372,-51.9736 290,-51.9736 290,-25.9736 372,-25.9736 372,-51.9736"/>
<text text-anchor="middle" x="331" y="-36.5236" font-family="Helvetica,sans-Serif" font-size="10.50" fill="white">type_euler_1D</text>
</a>
</g>
<!-- module~foodie&#45;&gt;module~type_euler_1d -->
<g id="edge18" class="edge"><title>module~foodie&#45;&gt;module~type_euler_1d</title>
<path fill="none" stroke="black" stroke-dasharray="5,2" d="M235.831,-110.946C247.648,-97.2943 267.615,-75.8103 288,-60.9736 289.627,-59.7893 291.327,-58.6337 293.072,-57.5118"/>
<polygon fill="black" stroke="black" points="295.216,-60.3103 302.041,-52.2068 291.652,-54.2853 295.216,-60.3103"/>
</g>
<!-- program~integrate_oscillation -->
<g id="node8" class="node"><title>program~integrate_oscillation</title>
<a xlink:href="../program/integrate_oscillation.html" xlink:title="integrate_oscillation">
<polygon fill="#f0ad4e" stroke="#f0ad4e" points="517,-139.974 411,-139.974 411,-113.974 517,-113.974 517,-139.974"/>
<text text-anchor="middle" x="464" y="-124.524" font-family="Helvetica,sans-Serif" font-size="10.50" fill="white">integrate_oscillation</text>
</a>
</g>
<!-- module~foodie&#45;&gt;program~integrate_oscillation -->
<g id="edge20" class="edge"><title>module~foodie&#45;&gt;program~integrate_oscillation</title>
<path fill="none" stroke="black" stroke-dasharray="5,2" d="M331,-123.974C353.474,-122.376 378.132,-122.432 400.047,-123.113"/>
<polygon fill="black" stroke="black" points="400.114,-126.617 410.233,-123.479 400.365,-119.622 400.114,-126.617"/>
</g>
<!-- module~type_lorenz -->
<g id="node9" class="node"><title>module~type_lorenz</title>
<a xlink:href="../module/type_lorenz.html" xlink:title="type_lorenz">
<polygon fill="#337ab7" stroke="#337ab7" points="365,-95.9736 297,-95.9736 297,-69.9736 365,-69.9736 365,-95.9736"/>
<text text-anchor="middle" x="331" y="-80.5236" font-family="Helvetica,sans-Serif" font-size="10.50" fill="white">type_lorenz</text>
</a>
</g>
<!-- module~foodie&#45;&gt;module~type_lorenz -->
<g id="edge22" class="edge"><title>module~foodie&#45;&gt;module~type_lorenz</title>
<path fill="none" stroke="black" stroke-dasharray="5,2" d="M252.023,-113.522C262.864,-109.328 275.632,-104.389 287.705,-99.7198"/>
<polygon fill="black" stroke="black" points="289.124,-102.924 297.188,-96.052 286.598,-96.3952 289.124,-102.924"/>
</g>
<!-- program~integrate_euler_1d -->
<g id="node10" class="node"><title>program~integrate_euler_1d</title>
<a xlink:href="../program/integrate_euler_1d.html" xlink:title="integrate_euler_1D">
<polygon fill="#f0ad4e" stroke="#f0ad4e" points="516,-31.9736 412,-31.9736 412,-5.97363 516,-5.97363 516,-31.9736"/>
<text text-anchor="middle" x="464" y="-16.5236" font-family="Helvetica,sans-Serif" font-size="10.50" fill="white">integrate_euler_1D</text>
</a>
</g>
<!-- module~foodie&#45;&gt;program~integrate_euler_1d -->
<g id="edge24" class="edge"><title>module~foodie&#45;&gt;program~integrate_euler_1d</title>
<path fill="none" stroke="black" stroke-dasharray="5,2" d="M228.209,-110.734C234.779,-86.9128 252.255,-37.4084 288,-16.9736 323.403,3.26548 369.724,1.85973 405.958,-4.12397"/>
<polygon fill="black" stroke="black" points="405.43,-7.58518 415.893,-5.91889 406.675,-0.696698 405.43,-7.58518"/>
</g>
<!-- module~type_burgers&#45;&gt;program~integrate_burgers -->
<g id="edge2" class="edge"><title>module~type_burgers&#45;&gt;program~integrate_burgers</title>
<path fill="none" stroke="black" stroke-dasharray="5,2" d="M369.112,-240.956C380.387,-239.176 393.001,-237.184 405.259,-235.249"/>
<polygon fill="black" stroke="black" points="406.102,-238.659 415.434,-233.642 405.011,-231.744 406.102,-238.659"/>
</g>
<!-- module~type_oscillation&#45;&gt;program~integrate_oscillation -->
<g id="edge4" class="edge"><title>module~type_oscillation&#45;&gt;program~integrate_oscillation</title>
<path fill="none" stroke="black" stroke-dasharray="5,2" d="M373.814,-152.741C384.738,-149.62 396.644,-146.218 408.116,-142.94"/>
<polygon fill="black" stroke="black" points="409.398,-146.214 418.051,-140.102 407.475,-139.484 409.398,-146.214"/>
</g>
<!-- module~type_euler_1d&#45;&gt;program~integrate_euler_1d -->
<g id="edge6" class="edge"><title>module~type_euler_1d&#45;&gt;program~integrate_euler_1d</title>
<path fill="none" stroke="black" stroke-dasharray="5,2" d="M372.353,-32.7551C381.732,-31.3447 391.894,-29.8166 401.922,-28.3087"/>
<polygon fill="black" stroke="black" points="402.502,-31.7609 411.87,-26.8127 401.461,-24.8387 402.502,-31.7609"/>
</g>
<!-- module~type_lorenz&#45;&gt;program~integrate_lorenz -->
<g id="edge8" class="edge"><title>module~type_lorenz&#45;&gt;program~integrate_lorenz</title>
<path fill="none" stroke="black" stroke-dasharray="5,2" d="M365.251,-82.9736C378.508,-82.9736 394.022,-82.9736 408.774,-82.9736"/>
<polygon fill="black" stroke="black" points="408.827,-86.4737 418.827,-82.9736 408.827,-79.4737 408.827,-86.4737"/>
</g>
</g>
</svg>
