<?xml version="1.0" encoding="UTF-8" standalone="no"?>
<!DOCTYPE svg PUBLIC "-//W3C//DTD SVG 1.1//EN"
 "http://www.w3.org/Graphics/SVG/1.1/DTD/svg11.dtd">
<!-- Generated by graphviz version 2.26.3 (20100126.1600)
 -->
<!-- Title: module~~foodie_integrator_euler_explicit~~UsedByGraph Pages: 1 -->
<svg width="526pt" height="280pt"
 viewBox="0.00 0.00 526.00 280.00" xmlns="http://www.w3.org/2000/svg" xmlns:xlink="http://www.w3.org/1999/xlink">
<g id="graph1" class="graph" transform="scale(1 1) rotate(0) translate(4 276)">
<title>module~~foodie_integrator_euler_explicit~~UsedByGraph</title>
<polygon fill="white" stroke="white" points="-4,5 -4,-276 523,-276 523,5 -4,5"/>
<!-- module~foodie_integrator_euler_explicit -->
<g id="node1" class="node"><title>module~foodie_integrator_euler_explicit</title>
<polygon fill="none" stroke="black" points="162,-149 8.52651e-14,-149 0,-123 162,-123 162,-149"/>
<text text-anchor="middle" x="81" y="-133.55" font-family="Helvetica,sans-Serif" font-size="10.50">foodie_integrator_euler_explicit</text>
</g>
<!-- module~foodie -->
<g id="node2" class="node"><title>module~foodie</title>
<a xlink:href="../module/foodie.html" xlink:title="foodie">
<polygon fill="#337ab7" stroke="#337ab7" points="252,-149 198,-149 198,-123 252,-123 252,-149"/>
<text text-anchor="middle" x="225" y="-133.55" font-family="Helvetica,sans-Serif" font-size="10.50" fill="white">foodie</text>
</a>
</g>
<!-- module~foodie_integrator_euler_explicit&#45;&gt;module~foodie -->
<g id="edge26" class="edge"><title>module~foodie_integrator_euler_explicit&#45;&gt;module~foodie</title>
<path fill="none" stroke="black" stroke-dasharray="5,2" d="M162.258,-136C171.03,-136 179.616,-136 187.482,-136"/>
<polygon fill="black" stroke="black" points="187.714,-139.5 197.714,-136 187.714,-132.5 187.714,-139.5"/>
</g>
<!-- module~type_burgers -->
<g id="node3" class="node"><title>module~type_burgers</title>
<a xlink:href="../module/type_burgers.html" xlink:title="type_burgers">
<polygon fill="#337ab7" stroke="#337ab7" points="369,-272 293,-272 293,-246 369,-246 369,-272"/>
<text text-anchor="middle" x="331" y="-256.55" font-family="Helvetica,sans-Serif" font-size="10.50" fill="white">type_burgers</text>
</a>
</g>
<!-- module~foodie&#45;&gt;module~type_burgers -->
<g id="edge10" class="edge"><title>module~foodie&#45;&gt;module~type_burgers</title>
<path fill="none" stroke="black" stroke-dasharray="5,2" d="M231.254,-149.061C241.178,-168.796 262.089,-206.604 288,-232 290.892,-234.834 294.131,-237.521 297.498,-240.022"/>
<polygon fill="black" stroke="black" points="295.779,-243.086 306.012,-245.832 299.726,-237.304 295.779,-243.086"/>
</g>
<!-- program~integrate_burgers -->
<g id="node4" class="node"><title>program~integrate_burgers</title>
<a xlink:href="../program/integrate_burgers.html" xlink:title="integrate_burgers">
<polygon fill="#f0ad4e" stroke="#f0ad4e" points="512,-251 416,-251 416,-225 512,-225 512,-251"/>
<text text-anchor="middle" x="464" y="-235.55" font-family="Helvetica,sans-Serif" font-size="10.50" fill="white">integrate_burgers</text>
</a>
</g>
<!-- module~foodie&#45;&gt;program~integrate_burgers -->
<g id="edge12" class="edge"><title>module~foodie&#45;&gt;program~integrate_burgers</title>
<path fill="none" stroke="black" stroke-dasharray="5,2" d="M234.337,-149.044C245.443,-163.552 265.352,-186.576 288,-199 324.088,-218.796 369.548,-228.545 405.225,-233.346"/>
<polygon fill="black" stroke="black" points="405.13,-236.861 415.486,-234.628 405.997,-229.915 405.13,-236.861"/>
</g>
<!-- module~type_euler_1d -->
<g id="node5" class="node"><title>module~type_euler_1d</title>
<a xlink:href="../module/type_euler_1d.html" xlink:title="type_euler_1D">
<polygon fill="#337ab7" stroke="#337ab7" points="372,-190 290,-190 290,-164 372,-164 372,-190"/>
<text text-anchor="middle" x="331" y="-174.55" font-family="Helvetica,sans-Serif" font-size="10.50" fill="white">type_euler_1D</text>
</a>
</g>
<!-- module~foodie&#45;&gt;module~type_euler_1d -->
<g id="edge14" class="edge"><title>module~foodie&#45;&gt;module~type_euler_1d</title>
<path fill="none" stroke="black" stroke-dasharray="5,2" d="M252.023,-146.452C262.864,-150.646 275.632,-155.584 287.705,-160.254"/>
<polygon fill="black" stroke="black" points="286.598,-163.578 297.188,-163.922 289.124,-157.05 286.598,-163.578"/>
</g>
<!-- program~integrate_oscillation -->
<g id="node6" class="node"><title>program~integrate_oscillation</title>
<a xlink:href="../program/integrate_oscillation.html" xlink:title="integrate_oscillation">
<polygon fill="#f0ad4e" stroke="#f0ad4e" points="517,-108 411,-108 411,-82 517,-82 517,-108"/>
<text text-anchor="middle" x="464" y="-92.55" font-family="Helvetica,sans-Serif" font-size="10.50" fill="white">integrate_oscillation</text>
</a>
</g>
<!-- module~foodie&#45;&gt;program~integrate_oscillation -->
<g id="edge16" class="edge"><title>module~foodie&#45;&gt;program~integrate_oscillation</title>
<path fill="none" stroke="black" stroke-dasharray="5,2" d="M252.049,-137.055C273.491,-137.637 304.2,-137.905 331,-136"/>
<path fill="none" stroke="black" stroke-dasharray="5,2" d="M331,-136C348.146,-134.781 387.317,-122.253 418.733,-111.362"/>
<polygon fill="black" stroke="black" points="419.918,-114.655 428.201,-108.049 417.607,-108.048 419.918,-114.655"/>
</g>
<!-- program~integrate_euler_1d -->
<g id="node7" class="node"><title>program~integrate_euler_1d</title>
<a xlink:href="../program/integrate_euler_1d.html" xlink:title="integrate_euler_1D">
<polygon fill="#f0ad4e" stroke="#f0ad4e" points="516,-152 412,-152 412,-126 516,-126 516,-152"/>
<text text-anchor="middle" x="464" y="-136.55" font-family="Helvetica,sans-Serif" font-size="10.50" fill="white">integrate_euler_1D</text>
</a>
</g>
<!-- module~foodie&#45;&gt;program~integrate_euler_1d -->
<g id="edge18" class="edge"><title>module~foodie&#45;&gt;program~integrate_euler_1d</title>
<path fill="none" stroke="black" stroke-dasharray="5,2" d="M331,-136C354.075,-134.36 379.453,-134.463 401.8,-135.195"/>
<polygon fill="black" stroke="black" points="401.71,-138.694 411.835,-135.572 401.973,-131.699 401.71,-138.694"/>
</g>
<!-- program~integrate_lorenz -->
<g id="node8" class="node"><title>program~integrate_lorenz</title>
<a xlink:href="../program/integrate_lorenz.html" xlink:title="integrate_lorenz">
<polygon fill="#f0ad4e" stroke="#f0ad4e" points="509,-45 419,-45 419,-19 509,-19 509,-45"/>
<text text-anchor="middle" x="464" y="-29.55" font-family="Helvetica,sans-Serif" font-size="10.50" fill="white">integrate_lorenz</text>
</a>
</g>
<!-- module~foodie&#45;&gt;program~integrate_lorenz -->
<g id="edge20" class="edge"><title>module~foodie&#45;&gt;program~integrate_lorenz</title>
<path fill="none" stroke="black" stroke-dasharray="5,2" d="M234.362,-123C245.49,-108.533 265.42,-85.5457 288,-73 325.192,-52.336 372.37,-42.0595 408.516,-36.964"/>
<polygon fill="black" stroke="black" points="409.42,-40.3754 418.878,-35.6014 408.507,-33.4351 409.42,-40.3754"/>
</g>
<!-- module~type_lorenz -->
<g id="node9" class="node"><title>module~type_lorenz</title>
<a xlink:href="../module/type_lorenz.html" xlink:title="type_lorenz">
<polygon fill="#337ab7" stroke="#337ab7" points="365,-26 297,-26 297,-1.24345e-14 365,-3.55271e-15 365,-26"/>
<text text-anchor="middle" x="331" y="-10.55" font-family="Helvetica,sans-Serif" font-size="10.50" fill="white">type_lorenz</text>
</a>
</g>
<!-- module~foodie&#45;&gt;module~type_lorenz -->
<g id="edge22" class="edge"><title>module~foodie&#45;&gt;module~type_lorenz</title>
<path fill="none" stroke="black" stroke-dasharray="5,2" d="M231.254,-122.939C241.178,-103.204 262.089,-65.3964 288,-40 290.892,-37.1655 294.131,-34.4789 297.498,-31.9784"/>
<polygon fill="black" stroke="black" points="299.726,-34.6959 306.012,-26.1677 295.779,-28.9141 299.726,-34.6959"/>
</g>
<!-- module~type_oscillation -->
<g id="node10" class="node"><title>module~type_oscillation</title>
<a xlink:href="../module/type_oscillation.html" xlink:title="type_oscillation">
<polygon fill="#337ab7" stroke="#337ab7" points="373,-108 289,-108 289,-82 373,-82 373,-108"/>
<text text-anchor="middle" x="331" y="-92.55" font-family="Helvetica,sans-Serif" font-size="10.50" fill="white">type_oscillation</text>
</a>
</g>
<!-- module~foodie&#45;&gt;module~type_oscillation -->
<g id="edge24" class="edge"><title>module~foodie&#45;&gt;module~type_oscillation</title>
<path fill="none" stroke="black" stroke-dasharray="5,2" d="M252.023,-125.548C262.864,-121.354 275.632,-116.416 287.705,-111.746"/>
<polygon fill="black" stroke="black" points="289.124,-114.95 297.188,-108.078 286.598,-108.422 289.124,-114.95"/>
</g>
<!-- module~type_burgers&#45;&gt;program~integrate_burgers -->
<g id="edge2" class="edge"><title>module~type_burgers&#45;&gt;program~integrate_burgers</title>
<path fill="none" stroke="black" stroke-dasharray="5,2" d="M369.112,-252.982C380.387,-251.202 393.001,-249.21 405.259,-247.275"/>
<polygon fill="black" stroke="black" points="406.102,-250.685 415.434,-245.668 405.011,-243.771 406.102,-250.685"/>
</g>
<!-- module~type_euler_1d&#45;&gt;program~integrate_euler_1d -->
<g id="edge4" class="edge"><title>module~type_euler_1d&#45;&gt;program~integrate_euler_1d</title>
<path fill="none" stroke="black" stroke-dasharray="5,2" d="M372.353,-165.185C383.672,-161.951 396.131,-158.391 408.118,-154.966"/>
<polygon fill="black" stroke="black" points="409.386,-158.244 418.04,-152.131 407.463,-151.513 409.386,-158.244"/>
</g>
<!-- module~type_lorenz&#45;&gt;program~integrate_lorenz -->
<g id="edge6" class="edge"><title>module~type_lorenz&#45;&gt;program~integrate_lorenz</title>
<path fill="none" stroke="black" stroke-dasharray="5,2" d="M365.251,-17.893C378.508,-19.7869 394.022,-22.0032 408.774,-24.1105"/>
<polygon fill="black" stroke="black" points="408.433,-27.5973 418.827,-25.5468 409.423,-20.6676 408.433,-27.5973"/>
</g>
<!-- module~type_oscillation&#45;&gt;program~integrate_oscillation -->
<g id="edge8" class="edge"><title>module~type_oscillation&#45;&gt;program~integrate_oscillation</title>
<path fill="none" stroke="black" stroke-dasharray="5,2" d="M373.814,-95C382.11,-95 390.972,-95 399.781,-95"/>
<polygon fill="black" stroke="black" points="400.06,-98.5001 410.06,-95 400.06,-91.5001 400.06,-98.5001"/>
</g>
</g>
</svg>
