<?xml version="1.0" encoding="UTF-8" standalone="no"?>
<!DOCTYPE svg PUBLIC "-//W3C//DTD SVG 1.1//EN"
 "http://www.w3.org/Graphics/SVG/1.1/DTD/svg11.dtd">
<!-- Generated by graphviz version 2.26.3 (20100126.1600)
 -->
<!-- Title: module~~type_integrand~~UsedByGraph Pages: 1 -->
<svg width="641pt" height="295pt"
 viewBox="0.00 0.00 641.00 294.60" xmlns="http://www.w3.org/2000/svg" xmlns:xlink="http://www.w3.org/1999/xlink">
<g id="graph1" class="graph" transform="scale(0.959581 0.959581) rotate(0) translate(4 303.004)">
<title>module~~type_integrand~~UsedByGraph</title>
<polygon fill="white" stroke="white" points="-4,5 -4,-303.004 665,-303.004 665,5 -4,5"/>
<!-- module~type_integrand -->
<g id="node1" class="node"><title>module~type_integrand</title>
<polygon fill="none" stroke="black" points="84,-169 4.26326e-14,-169 0,-143 84,-143 84,-169"/>
<text text-anchor="middle" x="42" y="-153.55" font-family="Helvetica,sans-Serif" font-size="10.50">type_integrand</text>
</g>
<!-- module~foodie -->
<g id="node2" class="node"><title>module~foodie</title>
<a xlink:href="../module/foodie.html" xlink:title="foodie">
<polygon fill="#337ab7" stroke="#337ab7" points="394,-169 340,-169 340,-143 394,-143 394,-169"/>
<text text-anchor="middle" x="367" y="-153.55" font-family="Helvetica,sans-Serif" font-size="10.50" fill="white">foodie</text>
</a>
</g>
<!-- module~type_integrand&#45;&gt;module~foodie -->
<g id="edge32" class="edge"><title>module~type_integrand&#45;&gt;module~foodie</title>
<path fill="none" stroke="black" stroke-dasharray="5,2" d="M59.1415,-169.125C74.2357,-179.8 97.2929,-194.037 120,-200 199.096,-220.771 225.992,-224.544 304,-200 319.361,-195.167 334.242,-185.11 345.681,-175.829"/>
<polygon fill="black" stroke="black" points="348.012,-178.441 353.359,-169.295 343.475,-173.11 348.012,-178.441"/>
</g>
<!-- module~foodie_integrator_adams_bashforth -->
<g id="node3" class="node"><title>module~foodie_integrator_adams_bashforth</title>
<a xlink:href="../module/foodie_integrator_adams_bashforth.html" xlink:title="foodie_integrator_adams_bashforth">
<polygon fill="#337ab7" stroke="#337ab7" points="303,-191 121,-191 121,-165 303,-165 303,-191"/>
<text text-anchor="middle" x="212" y="-175.55" font-family="Helvetica,sans-Serif" font-size="10.50" fill="white">foodie_integrator_adams_bashforth</text>
</a>
</g>
<!-- module~type_integrand&#45;&gt;module~foodie_integrator_adams_bashforth -->
<g id="edge34" class="edge"><title>module~type_integrand&#45;&gt;module~foodie_integrator_adams_bashforth</title>
<path fill="none" stroke="black" stroke-dasharray="5,2" d="M84.0225,-161.438C92.1818,-162.494 101.058,-163.643 110.205,-164.826"/>
<polygon fill="black" stroke="black" points="109.848,-168.309 120.215,-166.122 110.747,-161.367 109.848,-168.309"/>
</g>
<!-- module~foodie_integrator_euler_explicit -->
<g id="node4" class="node"><title>module~foodie_integrator_euler_explicit</title>
<a xlink:href="../module/foodie_integrator_euler_explicit.html" xlink:title="foodie_integrator_euler_explicit">
<polygon fill="#337ab7" stroke="#337ab7" points="293,-147 131,-147 131,-121 293,-121 293,-147"/>
<text text-anchor="middle" x="212" y="-131.55" font-family="Helvetica,sans-Serif" font-size="10.50" fill="white">foodie_integrator_euler_explicit</text>
</a>
</g>
<!-- module~type_integrand&#45;&gt;module~foodie_integrator_euler_explicit -->
<g id="edge36" class="edge"><title>module~type_integrand&#45;&gt;module~foodie_integrator_euler_explicit</title>
<path fill="none" stroke="black" stroke-dasharray="5,2" d="M84.0225,-150.562C95.2721,-149.106 107.885,-147.474 120.689,-145.817"/>
<polygon fill="black" stroke="black" points="121.509,-149.24 130.977,-144.485 120.611,-142.298 121.509,-149.24"/>
</g>
<!-- module~foodie_integrator_tvd_runge_kutta -->
<g id="node5" class="node"><title>module~foodie_integrator_tvd_runge_kutta</title>
<a xlink:href="../module/foodie_integrator_tvd_runge_kutta.html" xlink:title="foodie_integrator_tvd_runge_kutta">
<polygon fill="#337ab7" stroke="#337ab7" points="300,-103 124,-103 124,-77 300,-77 300,-103"/>
<text text-anchor="middle" x="212" y="-87.55" font-family="Helvetica,sans-Serif" font-size="10.50" fill="white">foodie_integrator_tvd_runge_kutta</text>
</a>
</g>
<!-- module~type_integrand&#45;&gt;module~foodie_integrator_tvd_runge_kutta -->
<g id="edge38" class="edge"><title>module~type_integrand&#45;&gt;module~foodie_integrator_tvd_runge_kutta</title>
<path fill="none" stroke="black" stroke-dasharray="5,2" d="M61.7591,-142.802C77.0856,-133.082 99.1604,-120.183 120,-112 125.718,-109.755 131.729,-107.696 137.826,-105.817"/>
<polygon fill="black" stroke="black" points="138.827,-109.171 147.447,-103.012 136.867,-102.451 138.827,-109.171"/>
</g>
<!-- program~integrate_burgers -->
<g id="node6" class="node"><title>program~integrate_burgers</title>
<a xlink:href="../program/integrate_burgers.html" xlink:title="integrate_burgers">
<polygon fill="#f0ad4e" stroke="#f0ad4e" points="654,-292 558,-292 558,-266 654,-266 654,-292"/>
<text text-anchor="middle" x="606" y="-276.55" font-family="Helvetica,sans-Serif" font-size="10.50" fill="white">integrate_burgers</text>
</a>
</g>
<!-- module~foodie&#45;&gt;program~integrate_burgers -->
<g id="edge10" class="edge"><title>module~foodie&#45;&gt;program~integrate_burgers</title>
<path fill="none" stroke="black" stroke-dasharray="5,2" d="M369.076,-169.265C374.059,-196.019 389.442,-256.023 430,-281 465.794,-303.043 513.941,-300.818 550.83,-294.042"/>
<polygon fill="black" stroke="black" points="551.796,-297.418 560.916,-292.026 550.424,-290.553 551.796,-297.418"/>
</g>
<!-- module~type_burgers -->
<g id="node7" class="node"><title>module~type_burgers</title>
<a xlink:href="../module/type_burgers.html" xlink:title="type_burgers">
<polygon fill="#337ab7" stroke="#337ab7" points="511,-272 435,-272 435,-246 511,-246 511,-272"/>
<text text-anchor="middle" x="473" y="-256.55" font-family="Helvetica,sans-Serif" font-size="10.50" fill="white">type_burgers</text>
</a>
</g>
<!-- module~foodie&#45;&gt;module~type_burgers -->
<g id="edge12" class="edge"><title>module~foodie&#45;&gt;module~type_burgers</title>
<path fill="none" stroke="black" stroke-dasharray="5,2" d="M375.935,-169.183C387.255,-185.262 407.961,-212.683 430,-232 433.373,-234.956 437.103,-237.803 440.916,-240.469"/>
<polygon fill="black" stroke="black" points="439.011,-243.405 449.287,-245.984 442.862,-237.56 439.011,-243.405"/>
</g>
<!-- program~integrate_lorenz -->
<g id="node8" class="node"><title>program~integrate_lorenz</title>
<a xlink:href="../program/integrate_lorenz.html" xlink:title="integrate_lorenz">
<polygon fill="#f0ad4e" stroke="#f0ad4e" points="651,-210 561,-210 561,-184 651,-184 651,-210"/>
<text text-anchor="middle" x="606" y="-194.55" font-family="Helvetica,sans-Serif" font-size="10.50" fill="white">integrate_lorenz</text>
</a>
</g>
<!-- module~foodie&#45;&gt;program~integrate_lorenz -->
<g id="edge14" class="edge"><title>module~foodie&#45;&gt;program~integrate_lorenz</title>
<path fill="none" stroke="black" stroke-dasharray="5,2" d="M381.179,-169.415C393.143,-179.75 411.274,-193.218 430,-199 469.064,-211.061 515.369,-209.969 550.676,-206.177"/>
<polygon fill="black" stroke="black" points="551.271,-209.632 560.793,-204.986 550.452,-202.68 551.271,-209.632"/>
</g>
<!-- program~integrate_euler_1d -->
<g id="node9" class="node"><title>program~integrate_euler_1d</title>
<a xlink:href="../program/integrate_euler_1d.html" xlink:title="integrate_euler_1D">
<polygon fill="#f0ad4e" stroke="#f0ad4e" points="658,-119 554,-119 554,-93 658,-93 658,-119"/>
<text text-anchor="middle" x="606" y="-103.55" font-family="Helvetica,sans-Serif" font-size="10.50" fill="white">integrate_euler_1D</text>
</a>
</g>
<!-- module~foodie&#45;&gt;program~integrate_euler_1d -->
<g id="edge16" class="edge"><title>module~foodie&#45;&gt;program~integrate_euler_1d</title>
<path fill="none" stroke="black" stroke-dasharray="5,2" d="M394.416,-150.264C430.589,-142.697 495.324,-129.154 543.696,-119.034"/>
<polygon fill="black" stroke="black" points="544.682,-122.404 553.754,-116.93 543.249,-115.552 544.682,-122.404"/>
</g>
<!-- module~type_euler_1d -->
<g id="node10" class="node"><title>module~type_euler_1d</title>
<a xlink:href="../module/type_euler_1d.html" xlink:title="type_euler_1D">
<polygon fill="#337ab7" stroke="#337ab7" points="514,-108 432,-108 432,-82 514,-82 514,-108"/>
<text text-anchor="middle" x="473" y="-92.55" font-family="Helvetica,sans-Serif" font-size="10.50" fill="white">type_euler_1D</text>
</a>
</g>
<!-- module~foodie&#45;&gt;module~type_euler_1d -->
<g id="edge18" class="edge"><title>module~foodie&#45;&gt;module~type_euler_1d</title>
<path fill="none" stroke="black" stroke-dasharray="5,2" d="M389.74,-142.914C404.83,-134.23 424.842,-122.713 441.465,-113.148"/>
<polygon fill="black" stroke="black" points="443.376,-116.086 450.298,-108.064 439.885,-110.019 443.376,-116.086"/>
</g>
<!-- module~type_lorenz -->
<g id="node11" class="node"><title>module~type_lorenz</title>
<a xlink:href="../module/type_lorenz.html" xlink:title="type_lorenz">
<polygon fill="#337ab7" stroke="#337ab7" points="507,-190 439,-190 439,-164 507,-164 507,-190"/>
<text text-anchor="middle" x="473" y="-174.55" font-family="Helvetica,sans-Serif" font-size="10.50" fill="white">type_lorenz</text>
</a>
</g>
<!-- module~foodie&#45;&gt;module~type_lorenz -->
<g id="edge20" class="edge"><title>module~foodie&#45;&gt;module~type_lorenz</title>
<path fill="none" stroke="black" stroke-dasharray="5,2" d="M394.023,-161.354C404.555,-163.44 416.905,-165.887 428.669,-168.217"/>
<polygon fill="black" stroke="black" points="428.307,-171.714 438.796,-170.224 429.667,-164.847 428.307,-171.714"/>
</g>
<!-- program~integrate_oscillation -->
<g id="node12" class="node"><title>program~integrate_oscillation</title>
<a xlink:href="../program/integrate_oscillation.html" xlink:title="integrate_oscillation">
<polygon fill="#f0ad4e" stroke="#f0ad4e" points="659,-56 553,-56 553,-30 659,-30 659,-56"/>
<text text-anchor="middle" x="606" y="-40.55" font-family="Helvetica,sans-Serif" font-size="10.50" fill="white">integrate_oscillation</text>
</a>
</g>
<!-- module~foodie&#45;&gt;program~integrate_oscillation -->
<g id="edge22" class="edge"><title>module~foodie&#45;&gt;program~integrate_oscillation</title>
<path fill="none" stroke="black" stroke-dasharray="5,2" d="M372.999,-142.863C382.322,-124.06 402.158,-89.8864 430,-73 463.529,-52.6646 506.902,-45.1016 542.2,-42.6533"/>
<polygon fill="black" stroke="black" points="542.616,-46.1354 552.4,-42.0705 542.217,-39.1468 542.616,-46.1354"/>
</g>
<!-- module~type_oscillation -->
<g id="node13" class="node"><title>module~type_oscillation</title>
<a xlink:href="../module/type_oscillation.html" xlink:title="type_oscillation">
<polygon fill="#337ab7" stroke="#337ab7" points="515,-26 431,-26 431,-1.24345e-14 515,-3.55271e-15 515,-26"/>
<text text-anchor="middle" x="473" y="-10.55" font-family="Helvetica,sans-Serif" font-size="10.50" fill="white">type_oscillation</text>
</a>
</g>
<!-- module~foodie&#45;&gt;module~type_oscillation -->
<g id="edge24" class="edge"><title>module~foodie&#45;&gt;module~type_oscillation</title>
<path fill="none" stroke="black" stroke-dasharray="5,2" d="M371.595,-142.811C380.144,-119.757 400.355,-71.5791 430,-40 432.706,-37.118 435.783,-34.4172 439.018,-31.9225"/>
<polygon fill="black" stroke="black" points="441.073,-34.7567 447.266,-26.1603 437.064,-29.0185 441.073,-34.7567"/>
</g>
<!-- module~foodie_integrator_adams_bashforth&#45;&gt;module~foodie -->
<g id="edge26" class="edge"><title>module~foodie_integrator_adams_bashforth&#45;&gt;module~foodie</title>
<path fill="none" stroke="black" stroke-dasharray="5,2" d="M303.508,-165.012C312.714,-163.705 321.647,-162.437 329.764,-161.285"/>
<polygon fill="black" stroke="black" points="330.51,-164.714 339.919,-159.844 329.527,-157.784 330.51,-164.714"/>
</g>
<!-- module~foodie_integrator_euler_explicit&#45;&gt;module~foodie -->
<g id="edge28" class="edge"><title>module~foodie_integrator_euler_explicit&#45;&gt;module~foodie</title>
<path fill="none" stroke="black" stroke-dasharray="5,2" d="M293.132,-145.515C305.898,-147.328 318.533,-149.121 329.647,-150.698"/>
<polygon fill="black" stroke="black" points="329.398,-154.198 339.79,-152.138 330.381,-147.267 329.398,-154.198"/>
</g>
<!-- module~foodie_integrator_tvd_runge_kutta&#45;&gt;module~foodie -->
<g id="edge30" class="edge"><title>module~foodie_integrator_tvd_runge_kutta&#45;&gt;module~foodie</title>
<path fill="none" stroke="black" stroke-dasharray="5,2" d="M279.803,-103.126C288.113,-105.63 296.36,-108.568 304,-112 317.965,-118.273 332.068,-127.763 343.38,-136.325"/>
<polygon fill="black" stroke="black" points="341.404,-139.223 351.438,-142.624 345.715,-133.708 341.404,-139.223"/>
</g>
<!-- module~type_burgers&#45;&gt;program~integrate_burgers -->
<g id="edge2" class="edge"><title>module~type_burgers&#45;&gt;program~integrate_burgers</title>
<path fill="none" stroke="black" stroke-dasharray="5,2" d="M511.112,-264.731C522.387,-266.427 535.001,-268.323 547.259,-270.167"/>
<polygon fill="black" stroke="black" points="547.025,-273.671 557.434,-271.697 548.066,-266.749 547.025,-273.671"/>
</g>
<!-- module~type_euler_1d&#45;&gt;program~integrate_euler_1d -->
<g id="edge4" class="edge"><title>module~type_euler_1d&#45;&gt;program~integrate_euler_1d</title>
<path fill="none" stroke="black" stroke-dasharray="5,2" d="M514.353,-98.4202C523.635,-99.1878 533.683,-100.019 543.608,-100.84"/>
<polygon fill="black" stroke="black" points="543.616,-104.352 553.87,-101.689 544.193,-97.3761 543.616,-104.352"/>
</g>
<!-- module~type_lorenz&#45;&gt;program~integrate_lorenz -->
<g id="edge6" class="edge"><title>module~type_lorenz&#45;&gt;program~integrate_lorenz</title>
<path fill="none" stroke="black" stroke-dasharray="5,2" d="M507.251,-182.15C520.508,-184.144 536.022,-186.477 550.774,-188.695"/>
<polygon fill="black" stroke="black" points="550.418,-192.181 560.827,-190.207 551.459,-185.259 550.418,-192.181"/>
</g>
<!-- module~type_oscillation&#45;&gt;program~integrate_oscillation -->
<g id="edge8" class="edge"><title>module~type_oscillation&#45;&gt;program~integrate_oscillation</title>
<path fill="none" stroke="black" stroke-dasharray="5,2" d="M515.814,-22.6573C524.201,-24.549 533.165,-26.5711 542.068,-28.5793"/>
<polygon fill="black" stroke="black" points="541.535,-32.0468 552.06,-30.833 543.075,-25.2183 541.535,-32.0468"/>
</g>
</g>
</svg>
