<?xml version="1.0" encoding="UTF-8" standalone="no"?>
<!DOCTYPE svg PUBLIC "-//W3C//DTD SVG 1.1//EN"
 "http://www.w3.org/Graphics/SVG/1.1/DTD/svg11.dtd">
<!-- Generated by graphviz version 2.26.3 (20100126.1600)
 -->
<!-- Title: module~~foodie~~UsedByGraph Pages: 1 -->
<svg width="328pt" height="268pt"
 viewBox="0.00 0.00 328.00 267.97" xmlns="http://www.w3.org/2000/svg" xmlns:xlink="http://www.w3.org/1999/xlink">
<g id="graph1" class="graph" transform="scale(1 1) rotate(0) translate(4 263.974)">
<title>module~~foodie~~UsedByGraph</title>
<polygon fill="white" stroke="white" points="-4,5 -4,-263.974 325,-263.974 325,5 -4,5"/>
<!-- module~foodie -->
<g id="node1" class="node"><title>module~foodie</title>
<polygon fill="none" stroke="black" points="54,-149 2.13163e-14,-149 0,-123 54,-123 54,-149"/>
<text text-anchor="middle" x="27" y="-133.55" font-family="Helvetica,sans-Serif" font-size="10.50">foodie</text>
</g>
<!-- program~integrate_euler_1d -->
<g id="node2" class="node"><title>program~integrate_euler_1d</title>
<a xlink:href="../program/integrate_euler_1d.html" xlink:title="integrate_euler_1D">
<polygon fill="#f0ad4e" stroke="#f0ad4e" points="318,-254 214,-254 214,-228 318,-228 318,-254"/>
<text text-anchor="middle" x="266" y="-238.55" font-family="Helvetica,sans-Serif" font-size="10.50" fill="white">integrate_euler_1D</text>
</a>
</g>
<!-- module~foodie&#45;&gt;program~integrate_euler_1d -->
<g id="edge10" class="edge"><title>module~foodie&#45;&gt;program~integrate_euler_1d</title>
<path fill="none" stroke="black" stroke-dasharray="5,2" d="M30.2087,-149.239C36.7787,-173.061 54.2546,-222.565 90,-243 125.403,-263.239 171.724,-261.833 207.958,-255.85"/>
<polygon fill="black" stroke="black" points="208.675,-259.277 217.893,-254.055 207.43,-252.388 208.675,-259.277"/>
</g>
<!-- module~type_lorenz -->
<g id="node3" class="node"><title>module~type_lorenz</title>
<a xlink:href="../module/type_lorenz.html" xlink:title="type_lorenz">
<polygon fill="#337ab7" stroke="#337ab7" points="167,-190 99,-190 99,-164 167,-164 167,-190"/>
<text text-anchor="middle" x="133" y="-174.55" font-family="Helvetica,sans-Serif" font-size="10.50" fill="white">type_lorenz</text>
</a>
</g>
<!-- module~foodie&#45;&gt;module~type_lorenz -->
<g id="edge12" class="edge"><title>module~foodie&#45;&gt;module~type_lorenz</title>
<path fill="none" stroke="black" stroke-dasharray="5,2" d="M54.0225,-146.452C64.8641,-150.646 77.6323,-155.584 89.7049,-160.254"/>
<polygon fill="black" stroke="black" points="88.5985,-163.578 99.1877,-163.922 91.1237,-157.05 88.5985,-163.578"/>
</g>
<!-- program~integrate_lorenz -->
<g id="node4" class="node"><title>program~integrate_lorenz</title>
<a xlink:href="../program/integrate_lorenz.html" xlink:title="integrate_lorenz">
<polygon fill="#f0ad4e" stroke="#f0ad4e" points="311,-152 221,-152 221,-126 311,-126 311,-152"/>
<text text-anchor="middle" x="266" y="-136.55" font-family="Helvetica,sans-Serif" font-size="10.50" fill="white">integrate_lorenz</text>
</a>
</g>
<!-- module~foodie&#45;&gt;program~integrate_lorenz -->
<g id="edge14" class="edge"><title>module~foodie&#45;&gt;program~integrate_lorenz</title>
<path fill="none" stroke="black" stroke-dasharray="5,2" d="M133,-136C158.386,-134.196 186.56,-134.501 210.419,-135.433"/>
<polygon fill="black" stroke="black" points="210.56,-138.943 220.704,-135.884 210.866,-131.949 210.56,-138.943"/>
</g>
<!-- program~integrate_oscillation -->
<g id="node5" class="node"><title>program~integrate_oscillation</title>
<a xlink:href="../program/integrate_oscillation.html" xlink:title="integrate_oscillation">
<polygon fill="#f0ad4e" stroke="#f0ad4e" points="319,-108 213,-108 213,-82 319,-82 319,-108"/>
<text text-anchor="middle" x="266" y="-92.55" font-family="Helvetica,sans-Serif" font-size="10.50" fill="white">integrate_oscillation</text>
</a>
</g>
<!-- module~foodie&#45;&gt;program~integrate_oscillation -->
<g id="edge16" class="edge"><title>module~foodie&#45;&gt;program~integrate_oscillation</title>
<path fill="none" stroke="black" stroke-dasharray="5,2" d="M54.0494,-137.055C75.4912,-137.637 106.2,-137.905 133,-136"/>
<path fill="none" stroke="black" stroke-dasharray="5,2" d="M133,-136C150.146,-134.781 189.317,-122.253 220.733,-111.362"/>
<polygon fill="black" stroke="black" points="221.918,-114.655 230.201,-108.049 219.607,-108.048 221.918,-114.655"/>
</g>
<!-- module~type_oscillation -->
<g id="node6" class="node"><title>module~type_oscillation</title>
<a xlink:href="../module/type_oscillation.html" xlink:title="type_oscillation">
<polygon fill="#337ab7" stroke="#337ab7" points="175,-108 91,-108 91,-82 175,-82 175,-108"/>
<text text-anchor="middle" x="133" y="-92.55" font-family="Helvetica,sans-Serif" font-size="10.50" fill="white">type_oscillation</text>
</a>
</g>
<!-- module~foodie&#45;&gt;module~type_oscillation -->
<g id="edge18" class="edge"><title>module~foodie&#45;&gt;module~type_oscillation</title>
<path fill="none" stroke="black" stroke-dasharray="5,2" d="M54.0225,-125.548C64.8641,-121.354 77.6323,-116.416 89.7049,-111.746"/>
<polygon fill="black" stroke="black" points="91.1237,-114.95 99.1877,-108.078 88.5985,-108.422 91.1237,-114.95"/>
</g>
<!-- program~integrate_burgers -->
<g id="node7" class="node"><title>program~integrate_burgers</title>
<a xlink:href="../program/integrate_burgers.html" xlink:title="integrate_burgers">
<polygon fill="#f0ad4e" stroke="#f0ad4e" points="314,-45 218,-45 218,-19 314,-19 314,-45"/>
<text text-anchor="middle" x="266" y="-29.55" font-family="Helvetica,sans-Serif" font-size="10.50" fill="white">integrate_burgers</text>
</a>
</g>
<!-- module~foodie&#45;&gt;program~integrate_burgers -->
<g id="edge20" class="edge"><title>module~foodie&#45;&gt;program~integrate_burgers</title>
<path fill="none" stroke="black" stroke-dasharray="5,2" d="M36.3615,-123C47.4898,-108.533 67.4197,-85.5457 90,-73 126.069,-52.9601 171.529,-42.6897 207.212,-37.44"/>
<polygon fill="black" stroke="black" points="208.045,-40.8584 217.474,-36.0275 207.091,-33.9237 208.045,-40.8584"/>
</g>
<!-- module~type_burgers -->
<g id="node8" class="node"><title>module~type_burgers</title>
<a xlink:href="../module/type_burgers.html" xlink:title="type_burgers">
<polygon fill="#337ab7" stroke="#337ab7" points="171,-26 95,-26 95,-1.24345e-14 171,-3.55271e-15 171,-26"/>
<text text-anchor="middle" x="133" y="-10.55" font-family="Helvetica,sans-Serif" font-size="10.50" fill="white">type_burgers</text>
</a>
</g>
<!-- module~foodie&#45;&gt;module~type_burgers -->
<g id="edge22" class="edge"><title>module~foodie&#45;&gt;module~type_burgers</title>
<path fill="none" stroke="black" stroke-dasharray="5,2" d="M33.2538,-122.939C43.1778,-103.204 64.0887,-65.3964 90,-40 92.8919,-37.1655 96.1306,-34.4789 99.4984,-31.9784"/>
<polygon fill="black" stroke="black" points="101.726,-34.6959 108.012,-26.1677 97.7794,-28.9141 101.726,-34.6959"/>
</g>
<!-- module~type_euler_1d -->
<g id="node9" class="node"><title>module~type_euler_1d</title>
<a xlink:href="../module/type_euler_1d.html" xlink:title="type_euler_1D">
<polygon fill="#337ab7" stroke="#337ab7" points="174,-234 92,-234 92,-208 174,-208 174,-234"/>
<text text-anchor="middle" x="133" y="-218.55" font-family="Helvetica,sans-Serif" font-size="10.50" fill="white">type_euler_1D</text>
</a>
</g>
<!-- module~foodie&#45;&gt;module~type_euler_1d -->
<g id="edge24" class="edge"><title>module~foodie&#45;&gt;module~type_euler_1d</title>
<path fill="none" stroke="black" stroke-dasharray="5,2" d="M37.8312,-149.028C49.648,-162.679 69.6148,-184.163 90,-199 91.6272,-200.184 93.3272,-201.34 95.0721,-202.462"/>
<polygon fill="black" stroke="black" points="93.6522,-205.688 104.041,-207.767 97.2159,-199.663 93.6522,-205.688"/>
</g>
<!-- module~type_lorenz&#45;&gt;program~integrate_lorenz -->
<g id="edge2" class="edge"><title>module~type_lorenz&#45;&gt;program~integrate_lorenz</title>
<path fill="none" stroke="black" stroke-dasharray="5,2" d="M167.251,-167.214C180.636,-163.39 196.321,-158.908 211.199,-154.657"/>
<polygon fill="black" stroke="black" points="212.174,-158.019 220.827,-151.906 210.251,-151.288 212.174,-158.019"/>
</g>
<!-- module~type_oscillation&#45;&gt;program~integrate_oscillation -->
<g id="edge4" class="edge"><title>module~type_oscillation&#45;&gt;program~integrate_oscillation</title>
<path fill="none" stroke="black" stroke-dasharray="5,2" d="M175.814,-95C184.11,-95 192.972,-95 201.781,-95"/>
<polygon fill="black" stroke="black" points="202.06,-98.5001 212.06,-95 202.06,-91.5001 202.06,-98.5001"/>
</g>
<!-- module~type_burgers&#45;&gt;program~integrate_burgers -->
<g id="edge6" class="edge"><title>module~type_burgers&#45;&gt;program~integrate_burgers</title>
<path fill="none" stroke="black" stroke-dasharray="5,2" d="M171.112,-18.4446C182.387,-20.0552 195.001,-21.8573 207.259,-23.6084"/>
<polygon fill="black" stroke="black" points="207.04,-27.1125 217.434,-25.062 208.03,-20.1829 207.04,-27.1125"/>
</g>
<!-- module~type_euler_1d&#45;&gt;program~integrate_euler_1d -->
<g id="edge8" class="edge"><title>module~type_euler_1d&#45;&gt;program~integrate_euler_1d</title>
<path fill="none" stroke="black" stroke-dasharray="5,2" d="M174.353,-227.218C183.732,-228.629 193.894,-230.157 203.922,-231.665"/>
<polygon fill="black" stroke="black" points="203.461,-235.135 213.87,-233.161 204.502,-228.213 203.461,-235.135"/>
</g>
</g>
</svg>
