<?xml version="1.0" encoding="UTF-8" standalone="no"?>
<!DOCTYPE svg PUBLIC "-//W3C//DTD SVG 1.1//EN"
 "http://www.w3.org/Graphics/SVG/1.1/DTD/svg11.dtd">
<!-- Generated by graphviz version 2.26.3 (20100126.1600)
 -->
<!-- Title: module~~type_integrand~~UsedByGraph Pages: 1 -->
<svg width="641pt" height="257pt"
 viewBox="0.00 0.00 641.00 257.14" xmlns="http://www.w3.org/2000/svg" xmlns:xlink="http://www.w3.org/1999/xlink">
<g id="graph1" class="graph" transform="scale(0.959581 0.959581) rotate(0) translate(4 263.974)">
<title>module~~type_integrand~~UsedByGraph</title>
<polygon fill="white" stroke="white" points="-4,5 -4,-263.974 665,-263.974 665,5 -4,5"/>
<!-- module~type_integrand -->
<g id="node1" class="node"><title>module~type_integrand</title>
<polygon fill="none" stroke="black" points="84,-136.974 4.26326e-14,-136.974 0,-110.974 84,-110.974 84,-136.974"/>
<text text-anchor="middle" x="42" y="-121.524" font-family="Helvetica,sans-Serif" font-size="10.50">type_integrand</text>
</g>
<!-- module~foodie -->
<g id="node2" class="node"><title>module~foodie</title>
<a xlink:href="../module/foodie.html" xlink:title="foodie">
<polygon fill="#337ab7" stroke="#337ab7" points="394,-136.974 340,-136.974 340,-110.974 394,-110.974 394,-136.974"/>
<text text-anchor="middle" x="367" y="-121.524" font-family="Helvetica,sans-Serif" font-size="10.50" fill="white">foodie</text>
</a>
</g>
<!-- module~type_integrand&#45;&gt;module~foodie -->
<g id="edge32" class="edge"><title>module~type_integrand&#45;&gt;module~foodie</title>
<path fill="none" stroke="black" stroke-dasharray="5,2" d="M59.1415,-137.098C74.2357,-147.774 97.2929,-162.011 120,-167.974 199.096,-188.744 225.992,-192.518 304,-167.974 319.361,-163.141 334.242,-153.084 345.681,-143.803"/>
<polygon fill="black" stroke="black" points="348.012,-146.415 353.359,-137.268 343.475,-141.084 348.012,-146.415"/>
</g>
<!-- module~foodie_integrator_adams_bashforth -->
<g id="node3" class="node"><title>module~foodie_integrator_adams_bashforth</title>
<a xlink:href="../module/foodie_integrator_adams_bashforth.html" xlink:title="foodie_integrator_adams_bashforth">
<polygon fill="#337ab7" stroke="#337ab7" points="303,-158.974 121,-158.974 121,-132.974 303,-132.974 303,-158.974"/>
<text text-anchor="middle" x="212" y="-143.524" font-family="Helvetica,sans-Serif" font-size="10.50" fill="white">foodie_integrator_adams_bashforth</text>
</a>
</g>
<!-- module~type_integrand&#45;&gt;module~foodie_integrator_adams_bashforth -->
<g id="edge34" class="edge"><title>module~type_integrand&#45;&gt;module~foodie_integrator_adams_bashforth</title>
<path fill="none" stroke="black" stroke-dasharray="5,2" d="M84.0225,-129.412C92.1818,-130.468 101.058,-131.616 110.205,-132.8"/>
<polygon fill="black" stroke="black" points="109.848,-136.283 120.215,-134.096 110.747,-129.341 109.848,-136.283"/>
</g>
<!-- module~foodie_integrator_euler_explicit -->
<g id="node4" class="node"><title>module~foodie_integrator_euler_explicit</title>
<a xlink:href="../module/foodie_integrator_euler_explicit.html" xlink:title="foodie_integrator_euler_explicit">
<polygon fill="#337ab7" stroke="#337ab7" points="293,-114.974 131,-114.974 131,-88.9736 293,-88.9736 293,-114.974"/>
<text text-anchor="middle" x="212" y="-99.5236" font-family="Helvetica,sans-Serif" font-size="10.50" fill="white">foodie_integrator_euler_explicit</text>
</a>
</g>
<!-- module~type_integrand&#45;&gt;module~foodie_integrator_euler_explicit -->
<g id="edge36" class="edge"><title>module~type_integrand&#45;&gt;module~foodie_integrator_euler_explicit</title>
<path fill="none" stroke="black" stroke-dasharray="5,2" d="M84.0225,-118.535C95.2721,-117.08 107.885,-115.447 120.689,-113.79"/>
<polygon fill="black" stroke="black" points="121.509,-117.213 130.977,-112.459 120.611,-110.271 121.509,-117.213"/>
</g>
<!-- module~foodie_integrator_tvd_runge_kutta -->
<g id="node5" class="node"><title>module~foodie_integrator_tvd_runge_kutta</title>
<a xlink:href="../module/foodie_integrator_tvd_runge_kutta.html" xlink:title="foodie_integrator_tvd_runge_kutta">
<polygon fill="#337ab7" stroke="#337ab7" points="300,-70.9736 124,-70.9736 124,-44.9736 300,-44.9736 300,-70.9736"/>
<text text-anchor="middle" x="212" y="-55.5236" font-family="Helvetica,sans-Serif" font-size="10.50" fill="white">foodie_integrator_tvd_runge_kutta</text>
</a>
</g>
<!-- module~type_integrand&#45;&gt;module~foodie_integrator_tvd_runge_kutta -->
<g id="edge38" class="edge"><title>module~type_integrand&#45;&gt;module~foodie_integrator_tvd_runge_kutta</title>
<path fill="none" stroke="black" stroke-dasharray="5,2" d="M61.7591,-110.776C77.0856,-101.056 99.1604,-88.1566 120,-79.9736 125.718,-77.7284 131.729,-75.6696 137.826,-73.7906"/>
<polygon fill="black" stroke="black" points="138.827,-77.1447 147.447,-70.9851 136.867,-70.4245 138.827,-77.1447"/>
</g>
<!-- module~type_burgers -->
<g id="node6" class="node"><title>module~type_burgers</title>
<a xlink:href="../module/type_burgers.html" xlink:title="type_burgers">
<polygon fill="#337ab7" stroke="#337ab7" points="511,-259.974 435,-259.974 435,-233.974 511,-233.974 511,-259.974"/>
<text text-anchor="middle" x="473" y="-244.524" font-family="Helvetica,sans-Serif" font-size="10.50" fill="white">type_burgers</text>
</a>
</g>
<!-- module~foodie&#45;&gt;module~type_burgers -->
<g id="edge10" class="edge"><title>module~foodie&#45;&gt;module~type_burgers</title>
<path fill="none" stroke="black" stroke-dasharray="5,2" d="M373.254,-137.035C383.178,-156.77 404.089,-194.577 430,-219.974 432.892,-222.808 436.131,-225.495 439.498,-227.995"/>
<polygon fill="black" stroke="black" points="437.779,-231.059 448.012,-233.806 441.726,-225.278 437.779,-231.059"/>
</g>
<!-- module~type_oscillation -->
<g id="node7" class="node"><title>module~type_oscillation</title>
<a xlink:href="../module/type_oscillation.html" xlink:title="type_oscillation">
<polygon fill="#337ab7" stroke="#337ab7" points="515,-177.974 431,-177.974 431,-151.974 515,-151.974 515,-177.974"/>
<text text-anchor="middle" x="473" y="-162.524" font-family="Helvetica,sans-Serif" font-size="10.50" fill="white">type_oscillation</text>
</a>
</g>
<!-- module~foodie&#45;&gt;module~type_oscillation -->
<g id="edge12" class="edge"><title>module~foodie&#45;&gt;module~type_oscillation</title>
<path fill="none" stroke="black" stroke-dasharray="5,2" d="M394.023,-134.426C404.864,-138.619 417.632,-143.558 429.705,-148.227"/>
<polygon fill="black" stroke="black" points="428.598,-151.552 439.188,-151.895 431.124,-145.023 428.598,-151.552"/>
</g>
<!-- program~integrate_lorenz -->
<g id="node8" class="node"><title>program~integrate_lorenz</title>
<a xlink:href="../program/integrate_lorenz.html" xlink:title="integrate_lorenz">
<polygon fill="#f0ad4e" stroke="#f0ad4e" points="651,-95.9736 561,-95.9736 561,-69.9736 651,-69.9736 651,-95.9736"/>
<text text-anchor="middle" x="606" y="-80.5236" font-family="Helvetica,sans-Serif" font-size="10.50" fill="white">integrate_lorenz</text>
</a>
</g>
<!-- module~foodie&#45;&gt;program~integrate_lorenz -->
<g id="edge14" class="edge"><title>module~foodie&#45;&gt;program~integrate_lorenz</title>
<path fill="none" stroke="black" stroke-dasharray="5,2" d="M394.049,-125.029C415.491,-125.61 446.2,-125.878 473,-123.974"/>
<path fill="none" stroke="black" stroke-dasharray="5,2" d="M473,-123.974C490.146,-122.755 529.317,-110.226 560.733,-99.3357"/>
<polygon fill="black" stroke="black" points="561.918,-102.629 570.201,-96.0228 559.607,-96.0219 561.918,-102.629"/>
</g>
<!-- program~integrate_burgers -->
<g id="node9" class="node"><title>program~integrate_burgers</title>
<a xlink:href="../program/integrate_burgers.html" xlink:title="integrate_burgers">
<polygon fill="#f0ad4e" stroke="#f0ad4e" points="654,-238.974 558,-238.974 558,-212.974 654,-212.974 654,-238.974"/>
<text text-anchor="middle" x="606" y="-223.524" font-family="Helvetica,sans-Serif" font-size="10.50" fill="white">integrate_burgers</text>
</a>
</g>
<!-- module~foodie&#45;&gt;program~integrate_burgers -->
<g id="edge16" class="edge"><title>module~foodie&#45;&gt;program~integrate_burgers</title>
<path fill="none" stroke="black" stroke-dasharray="5,2" d="M376.337,-137.018C387.443,-151.526 407.352,-174.55 430,-186.974 466.088,-206.77 511.548,-216.519 547.225,-221.319"/>
<polygon fill="black" stroke="black" points="547.13,-224.835 557.486,-222.601 547.997,-217.889 547.13,-224.835"/>
</g>
<!-- module~type_euler_1d -->
<g id="node10" class="node"><title>module~type_euler_1d</title>
<a xlink:href="../module/type_euler_1d.html" xlink:title="type_euler_1D">
<polygon fill="#337ab7" stroke="#337ab7" points="514,-51.9736 432,-51.9736 432,-25.9736 514,-25.9736 514,-51.9736"/>
<text text-anchor="middle" x="473" y="-36.5236" font-family="Helvetica,sans-Serif" font-size="10.50" fill="white">type_euler_1D</text>
</a>
</g>
<!-- module~foodie&#45;&gt;module~type_euler_1d -->
<g id="edge18" class="edge"><title>module~foodie&#45;&gt;module~type_euler_1d</title>
<path fill="none" stroke="black" stroke-dasharray="5,2" d="M377.831,-110.946C389.648,-97.2943 409.615,-75.8103 430,-60.9736 431.627,-59.7893 433.327,-58.6337 435.072,-57.5118"/>
<polygon fill="black" stroke="black" points="437.216,-60.3103 444.041,-52.2068 433.652,-54.2853 437.216,-60.3103"/>
</g>
<!-- program~integrate_oscillation -->
<g id="node11" class="node"><title>program~integrate_oscillation</title>
<a xlink:href="../program/integrate_oscillation.html" xlink:title="integrate_oscillation">
<polygon fill="#f0ad4e" stroke="#f0ad4e" points="659,-139.974 553,-139.974 553,-113.974 659,-113.974 659,-139.974"/>
<text text-anchor="middle" x="606" y="-124.524" font-family="Helvetica,sans-Serif" font-size="10.50" fill="white">integrate_oscillation</text>
</a>
</g>
<!-- module~foodie&#45;&gt;program~integrate_oscillation -->
<g id="edge20" class="edge"><title>module~foodie&#45;&gt;program~integrate_oscillation</title>
<path fill="none" stroke="black" stroke-dasharray="5,2" d="M473,-123.974C495.474,-122.376 520.132,-122.432 542.047,-123.113"/>
<polygon fill="black" stroke="black" points="542.114,-126.617 552.233,-123.479 542.365,-119.622 542.114,-126.617"/>
</g>
<!-- module~type_lorenz -->
<g id="node12" class="node"><title>module~type_lorenz</title>
<a xlink:href="../module/type_lorenz.html" xlink:title="type_lorenz">
<polygon fill="#337ab7" stroke="#337ab7" points="507,-95.9736 439,-95.9736 439,-69.9736 507,-69.9736 507,-95.9736"/>
<text text-anchor="middle" x="473" y="-80.5236" font-family="Helvetica,sans-Serif" font-size="10.50" fill="white">type_lorenz</text>
</a>
</g>
<!-- module~foodie&#45;&gt;module~type_lorenz -->
<g id="edge22" class="edge"><title>module~foodie&#45;&gt;module~type_lorenz</title>
<path fill="none" stroke="black" stroke-dasharray="5,2" d="M394.023,-113.522C404.864,-109.328 417.632,-104.389 429.705,-99.7198"/>
<polygon fill="black" stroke="black" points="431.124,-102.924 439.188,-96.052 428.598,-96.3952 431.124,-102.924"/>
</g>
<!-- program~integrate_euler_1d -->
<g id="node13" class="node"><title>program~integrate_euler_1d</title>
<a xlink:href="../program/integrate_euler_1d.html" xlink:title="integrate_euler_1D">
<polygon fill="#f0ad4e" stroke="#f0ad4e" points="658,-31.9736 554,-31.9736 554,-5.97363 658,-5.97363 658,-31.9736"/>
<text text-anchor="middle" x="606" y="-16.5236" font-family="Helvetica,sans-Serif" font-size="10.50" fill="white">integrate_euler_1D</text>
</a>
</g>
<!-- module~foodie&#45;&gt;program~integrate_euler_1d -->
<g id="edge24" class="edge"><title>module~foodie&#45;&gt;program~integrate_euler_1d</title>
<path fill="none" stroke="black" stroke-dasharray="5,2" d="M370.209,-110.734C376.779,-86.9128 394.255,-37.4084 430,-16.9736 465.403,3.26548 511.724,1.85973 547.958,-4.12397"/>
<polygon fill="black" stroke="black" points="547.43,-7.58518 557.893,-5.91889 548.675,-0.696698 547.43,-7.58518"/>
</g>
<!-- module~foodie_integrator_adams_bashforth&#45;&gt;module~foodie -->
<g id="edge26" class="edge"><title>module~foodie_integrator_adams_bashforth&#45;&gt;module~foodie</title>
<path fill="none" stroke="black" stroke-dasharray="5,2" d="M303.508,-132.985C312.714,-131.679 321.647,-130.411 329.764,-129.259"/>
<polygon fill="black" stroke="black" points="330.51,-132.688 339.919,-127.817 329.527,-125.757 330.51,-132.688"/>
</g>
<!-- module~foodie_integrator_euler_explicit&#45;&gt;module~foodie -->
<g id="edge28" class="edge"><title>module~foodie_integrator_euler_explicit&#45;&gt;module~foodie</title>
<path fill="none" stroke="black" stroke-dasharray="5,2" d="M293.132,-113.489C305.898,-115.301 318.533,-117.094 329.647,-118.672"/>
<polygon fill="black" stroke="black" points="329.398,-122.172 339.79,-120.112 330.381,-115.241 329.398,-122.172"/>
</g>
<!-- module~foodie_integrator_tvd_runge_kutta&#45;&gt;module~foodie -->
<g id="edge30" class="edge"><title>module~foodie_integrator_tvd_runge_kutta&#45;&gt;module~foodie</title>
<path fill="none" stroke="black" stroke-dasharray="5,2" d="M279.803,-71.0999C288.113,-73.604 296.36,-76.5417 304,-79.9736 317.965,-86.2466 332.068,-95.7364 343.38,-104.299"/>
<polygon fill="black" stroke="black" points="341.404,-107.196 351.438,-110.597 345.715,-101.681 341.404,-107.196"/>
</g>
<!-- module~type_burgers&#45;&gt;program~integrate_burgers -->
<g id="edge2" class="edge"><title>module~type_burgers&#45;&gt;program~integrate_burgers</title>
<path fill="none" stroke="black" stroke-dasharray="5,2" d="M511.112,-240.956C522.387,-239.176 535.001,-237.184 547.259,-235.249"/>
<polygon fill="black" stroke="black" points="548.102,-238.659 557.434,-233.642 547.011,-231.744 548.102,-238.659"/>
</g>
<!-- module~type_oscillation&#45;&gt;program~integrate_oscillation -->
<g id="edge4" class="edge"><title>module~type_oscillation&#45;&gt;program~integrate_oscillation</title>
<path fill="none" stroke="black" stroke-dasharray="5,2" d="M515.814,-152.741C526.738,-149.62 538.644,-146.218 550.116,-142.94"/>
<polygon fill="black" stroke="black" points="551.398,-146.214 560.051,-140.102 549.475,-139.484 551.398,-146.214"/>
</g>
<!-- module~type_euler_1d&#45;&gt;program~integrate_euler_1d -->
<g id="edge6" class="edge"><title>module~type_euler_1d&#45;&gt;program~integrate_euler_1d</title>
<path fill="none" stroke="black" stroke-dasharray="5,2" d="M514.353,-32.7551C523.732,-31.3447 533.894,-29.8166 543.922,-28.3087"/>
<polygon fill="black" stroke="black" points="544.502,-31.7609 553.87,-26.8127 543.461,-24.8387 544.502,-31.7609"/>
</g>
<!-- module~type_lorenz&#45;&gt;program~integrate_lorenz -->
<g id="edge8" class="edge"><title>module~type_lorenz&#45;&gt;program~integrate_lorenz</title>
<path fill="none" stroke="black" stroke-dasharray="5,2" d="M507.251,-82.9736C520.508,-82.9736 536.022,-82.9736 550.774,-82.9736"/>
<polygon fill="black" stroke="black" points="550.827,-86.4737 560.827,-82.9736 550.827,-79.4737 550.827,-86.4737"/>
</g>
</g>
</svg>
