<?xml version="1.0" encoding="UTF-8" standalone="no"?>
<!DOCTYPE svg PUBLIC "-//W3C//DTD SVG 1.1//EN"
 "http://www.w3.org/Graphics/SVG/1.1/DTD/svg11.dtd">
<!-- Generated by graphviz version 2.26.3 (20100126.1600)
 -->
<!-- Title: module~~foodie~~UsesGraph Pages: 1 -->
<svg width="512pt" height="160pt"
 viewBox="0.00 0.00 512.00 160.00" xmlns="http://www.w3.org/2000/svg" xmlns:xlink="http://www.w3.org/1999/xlink">
<g id="graph1" class="graph" transform="scale(1 1) rotate(0) translate(4 156)">
<title>module~~foodie~~UsesGraph</title>
<polygon fill="white" stroke="white" points="-4,5 -4,-156 509,-156 509,5 -4,5"/>
<!-- module~foodie -->
<g id="node1" class="node"><title>module~foodie</title>
<polygon fill="none" stroke="black" points="504,-90 450,-90 450,-64 504,-64 504,-90"/>
<text text-anchor="middle" x="477" y="-74.55" font-family="Helvetica,sans-Serif" font-size="10.50">foodie</text>
</g>
<!-- module~foodie_integrator_tvd_runge_kutta -->
<g id="node2" class="node"><title>module~foodie_integrator_tvd_runge_kutta</title>
<a xlink:href="../module/foodie_integrator_tvd_runge_kutta.html" xlink:title="foodie_integrator_tvd_runge_kutta">
<polygon fill="#337ab7" stroke="#337ab7" points="410,-152 234,-152 234,-126 410,-126 410,-152"/>
<text text-anchor="middle" x="322" y="-136.55" font-family="Helvetica,sans-Serif" font-size="10.50" fill="white">foodie_integrator_tvd_runge_kutta</text>
</a>
</g>
<!-- module~foodie_integrator_tvd_runge_kutta&#45;&gt;module~foodie -->
<g id="edge16" class="edge"><title>module~foodie_integrator_tvd_runge_kutta&#45;&gt;module~foodie</title>
<path fill="none" stroke="black" stroke-dasharray="5,2" d="M373.797,-125.98C387.103,-122.046 401.255,-117.333 414,-112 425.338,-107.256 437.25,-101 447.627,-95.0902"/>
<polygon fill="black" stroke="black" points="449.423,-98.0945 456.297,-90.0328 445.896,-92.0479 449.423,-98.0945"/>
</g>
<!-- module~foodie_integrator_adams_bashforth -->
<g id="node3" class="node"><title>module~foodie_integrator_adams_bashforth</title>
<a xlink:href="../module/foodie_integrator_adams_bashforth.html" xlink:title="foodie_integrator_adams_bashforth">
<polygon fill="#337ab7" stroke="#337ab7" points="413,-70 231,-70 231,-44 413,-44 413,-70"/>
<text text-anchor="middle" x="322" y="-54.55" font-family="Helvetica,sans-Serif" font-size="10.50" fill="white">foodie_integrator_adams_bashforth</text>
</a>
</g>
<!-- module~foodie_integrator_adams_bashforth&#45;&gt;module~foodie -->
<g id="edge18" class="edge"><title>module~foodie_integrator_adams_bashforth&#45;&gt;module~foodie</title>
<path fill="none" stroke="black" stroke-dasharray="5,2" d="M413.508,-68.8075C422.714,-69.9954 431.647,-71.148 439.764,-72.1954"/>
<polygon fill="black" stroke="black" points="439.554,-75.6971 449.919,-73.5057 440.45,-68.7547 439.554,-75.6971"/>
</g>
<!-- module~type_integrand -->
<g id="node4" class="node"><title>module~type_integrand</title>
<a xlink:href="../module/type_integrand.html" xlink:title="type_integrand">
<polygon fill="#337ab7" stroke="#337ab7" points="194,-111 110,-111 110,-85 194,-85 194,-111"/>
<text text-anchor="middle" x="152" y="-95.55" font-family="Helvetica,sans-Serif" font-size="10.50" fill="white">type_integrand</text>
</a>
</g>
<!-- module~type_integrand&#45;&gt;module~foodie -->
<g id="edge20" class="edge"><title>module~type_integrand&#45;&gt;module~foodie</title>
<path fill="none" stroke="black" stroke-dasharray="5,2" d="M194.155,-95.2761C257.992,-91.1513 378.203,-83.3838 439.297,-79.4362"/>
<polygon fill="black" stroke="black" points="439.884,-82.9057 449.637,-78.768 439.432,-75.9202 439.884,-82.9057"/>
</g>
<!-- module~type_integrand&#45;&gt;module~foodie_integrator_tvd_runge_kutta -->
<g id="edge4" class="edge"><title>module~type_integrand&#45;&gt;module~foodie_integrator_tvd_runge_kutta</title>
<path fill="none" stroke="black" stroke-dasharray="5,2" d="M194.022,-108.135C213.291,-112.782 236.557,-118.393 257.938,-123.55"/>
<polygon fill="black" stroke="black" points="257.39,-127.018 267.932,-125.96 259.031,-120.213 257.39,-127.018"/>
</g>
<!-- module~type_integrand&#45;&gt;module~foodie_integrator_adams_bashforth -->
<g id="edge8" class="edge"><title>module~type_integrand&#45;&gt;module~foodie_integrator_adams_bashforth</title>
<path fill="none" stroke="black" stroke-dasharray="5,2" d="M194.022,-87.8652C213.291,-83.2182 236.557,-77.6069 257.938,-72.4502"/>
<polygon fill="black" stroke="black" points="259.031,-75.7871 267.932,-70.04 257.39,-68.9822 259.031,-75.7871"/>
</g>
<!-- module~foodie_integrator_euler_explicit -->
<g id="node5" class="node"><title>module~foodie_integrator_euler_explicit</title>
<a xlink:href="../module/foodie_integrator_euler_explicit.html" xlink:title="foodie_integrator_euler_explicit">
<polygon fill="#337ab7" stroke="#337ab7" points="403,-26 241,-26 241,-1.24345e-14 403,-3.55271e-15 403,-26"/>
<text text-anchor="middle" x="322" y="-10.55" font-family="Helvetica,sans-Serif" font-size="10.50" fill="white">foodie_integrator_euler_explicit</text>
</a>
</g>
<!-- module~type_integrand&#45;&gt;module~foodie_integrator_euler_explicit -->
<g id="edge14" class="edge"><title>module~type_integrand&#45;&gt;module~foodie_integrator_euler_explicit</title>
<path fill="none" stroke="black" stroke-dasharray="5,2" d="M174.415,-84.8403C180.931,-80.6862 187.926,-75.8957 194,-71 211.618,-56.8008 210.253,-46.0474 230,-35 233.449,-33.0707 237.062,-31.3097 240.778,-29.7024"/>
<polygon fill="black" stroke="black" points="242.158,-32.9209 250.193,-26.0155 239.605,-26.4029 242.158,-32.9209"/>
</g>
<!-- module~foodie_integrator_euler_explicit&#45;&gt;module~foodie -->
<g id="edge22" class="edge"><title>module~foodie_integrator_euler_explicit&#45;&gt;module~foodie</title>
<path fill="none" stroke="black" stroke-dasharray="5,2" d="M389.243,-26.1405C397.729,-28.6501 406.173,-31.5853 414,-35 427.634,-40.9478 441.524,-49.8434 452.78,-57.9188"/>
<polygon fill="black" stroke="black" points="450.705,-60.7378 460.826,-63.8719 454.868,-55.1105 450.705,-60.7378"/>
</g>
<!-- IR_Precision -->
<g id="node6" class="node"><title>IR_Precision</title>
<polygon fill="#337ab7" stroke="#337ab7" points="73,-111 1,-111 1,-85 73,-85 73,-111"/>
<text text-anchor="middle" x="37" y="-95.55" font-family="Helvetica,sans-Serif" font-size="10.50" fill="white">IR_Precision</text>
</g>
<!-- IR_Precision&#45;&gt;module~foodie_integrator_tvd_runge_kutta -->
<g id="edge2" class="edge"><title>IR_Precision&#45;&gt;module~foodie_integrator_tvd_runge_kutta</title>
<path fill="none" stroke="black" stroke-dasharray="5,2" d="M73.772,-110.671C85.2532,-114.196 98.0439,-117.688 110,-120 146.645,-127.087 187.375,-131.54 223.262,-134.333"/>
<polygon fill="black" stroke="black" points="223.016,-137.825 233.248,-135.078 223.536,-130.844 223.016,-137.825"/>
</g>
<!-- IR_Precision&#45;&gt;module~foodie_integrator_adams_bashforth -->
<g id="edge6" class="edge"><title>IR_Precision&#45;&gt;module~foodie_integrator_adams_bashforth</title>
<path fill="none" stroke="black" stroke-dasharray="5,2" d="M152,-57C173.652,-51.8027 197.307,-49.6687 219.903,-49.244"/>
<polygon fill="black" stroke="black" points="220.228,-52.7417 230.2,-49.1642 220.173,-45.7419 220.228,-52.7417"/>
</g>
<!-- IR_Precision&#45;&gt;module~type_integrand -->
<g id="edge10" class="edge"><title>IR_Precision&#45;&gt;module~type_integrand</title>
<path fill="none" stroke="black" stroke-dasharray="5,2" d="M73.7029,-98C81.9237,-98 90.8,-98 99.521,-98"/>
<polygon fill="black" stroke="black" points="99.6389,-101.5 109.639,-98 99.6388,-94.5001 99.6389,-101.5"/>
</g>
<!-- IR_Precision&#45;&gt;module~foodie_integrator_euler_explicit -->
<g id="edge12" class="edge"><title>IR_Precision&#45;&gt;module~foodie_integrator_euler_explicit</title>
<path fill="none" stroke="black" stroke-dasharray="5,2" d="M68.177,-84.8355C91.004,-75.7052 122.939,-63.9759 152,-57"/>
<path fill="none" stroke="black" stroke-dasharray="5,2" d="M152,-57C187.024,-48.5927 195.144,-44.0793 230,-35 238.429,-32.8044 247.315,-30.5742 256.105,-28.4181"/>
<polygon fill="black" stroke="black" points="257.072,-31.7852 265.961,-26.0209 255.417,-24.9835 257.072,-31.7852"/>
</g>
</g>
</svg>
