<?xml version="1.0" encoding="UTF-8" standalone="no"?>
<!DOCTYPE svg PUBLIC "-//W3C//DTD SVG 1.1//EN"
 "http://www.w3.org/Graphics/SVG/1.1/DTD/svg11.dtd">
<!-- Generated by graphviz version 2.26.3 (20100126.1600)
 -->
<!-- Title: module~~foodie_integrator_euler_explicit~~UsedByGraph Pages: 1 -->
<svg width="526pt" height="307pt"
 viewBox="0.00 0.00 526.00 307.00" xmlns="http://www.w3.org/2000/svg" xmlns:xlink="http://www.w3.org/1999/xlink">
<g id="graph1" class="graph" transform="scale(1 1) rotate(0) translate(4 303.004)">
<title>module~~foodie_integrator_euler_explicit~~UsedByGraph</title>
<polygon fill="white" stroke="white" points="-4,5 -4,-303.004 523,-303.004 523,5 -4,5"/>
<!-- module~foodie_integrator_euler_explicit -->
<g id="node1" class="node"><title>module~foodie_integrator_euler_explicit</title>
<polygon fill="none" stroke="black" points="162,-169 8.52651e-14,-169 0,-143 162,-143 162,-169"/>
<text text-anchor="middle" x="81" y="-153.55" font-family="Helvetica,sans-Serif" font-size="10.50">foodie_integrator_euler_explicit</text>
</g>
<!-- module~foodie -->
<g id="node2" class="node"><title>module~foodie</title>
<a xlink:href="../module/foodie.html" xlink:title="foodie">
<polygon fill="#337ab7" stroke="#337ab7" points="252,-169 198,-169 198,-143 252,-143 252,-169"/>
<text text-anchor="middle" x="225" y="-153.55" font-family="Helvetica,sans-Serif" font-size="10.50" fill="white">foodie</text>
</a>
</g>
<!-- module~foodie_integrator_euler_explicit&#45;&gt;module~foodie -->
<g id="edge26" class="edge"><title>module~foodie_integrator_euler_explicit&#45;&gt;module~foodie</title>
<path fill="none" stroke="black" stroke-dasharray="5,2" d="M162.258,-156C171.03,-156 179.616,-156 187.482,-156"/>
<polygon fill="black" stroke="black" points="187.714,-159.5 197.714,-156 187.714,-152.5 187.714,-159.5"/>
</g>
<!-- program~integrate_burgers -->
<g id="node3" class="node"><title>program~integrate_burgers</title>
<a xlink:href="../program/integrate_burgers.html" xlink:title="integrate_burgers">
<polygon fill="#f0ad4e" stroke="#f0ad4e" points="512,-292 416,-292 416,-266 512,-266 512,-292"/>
<text text-anchor="middle" x="464" y="-276.55" font-family="Helvetica,sans-Serif" font-size="10.50" fill="white">integrate_burgers</text>
</a>
</g>
<!-- module~foodie&#45;&gt;program~integrate_burgers -->
<g id="edge10" class="edge"><title>module~foodie&#45;&gt;program~integrate_burgers</title>
<path fill="none" stroke="black" stroke-dasharray="5,2" d="M227.076,-169.265C232.059,-196.019 247.442,-256.023 288,-281 323.794,-303.043 371.941,-300.818 408.83,-294.042"/>
<polygon fill="black" stroke="black" points="409.796,-297.418 418.916,-292.026 408.424,-290.553 409.796,-297.418"/>
</g>
<!-- module~type_burgers -->
<g id="node4" class="node"><title>module~type_burgers</title>
<a xlink:href="../module/type_burgers.html" xlink:title="type_burgers">
<polygon fill="#337ab7" stroke="#337ab7" points="369,-272 293,-272 293,-246 369,-246 369,-272"/>
<text text-anchor="middle" x="331" y="-256.55" font-family="Helvetica,sans-Serif" font-size="10.50" fill="white">type_burgers</text>
</a>
</g>
<!-- module~foodie&#45;&gt;module~type_burgers -->
<g id="edge12" class="edge"><title>module~foodie&#45;&gt;module~type_burgers</title>
<path fill="none" stroke="black" stroke-dasharray="5,2" d="M233.935,-169.183C245.255,-185.262 265.961,-212.683 288,-232 291.373,-234.956 295.103,-237.803 298.916,-240.469"/>
<polygon fill="black" stroke="black" points="297.011,-243.405 307.287,-245.984 300.862,-237.56 297.011,-243.405"/>
</g>
<!-- program~integrate_lorenz -->
<g id="node5" class="node"><title>program~integrate_lorenz</title>
<a xlink:href="../program/integrate_lorenz.html" xlink:title="integrate_lorenz">
<polygon fill="#f0ad4e" stroke="#f0ad4e" points="509,-210 419,-210 419,-184 509,-184 509,-210"/>
<text text-anchor="middle" x="464" y="-194.55" font-family="Helvetica,sans-Serif" font-size="10.50" fill="white">integrate_lorenz</text>
</a>
</g>
<!-- module~foodie&#45;&gt;program~integrate_lorenz -->
<g id="edge14" class="edge"><title>module~foodie&#45;&gt;program~integrate_lorenz</title>
<path fill="none" stroke="black" stroke-dasharray="5,2" d="M239.179,-169.415C251.143,-179.75 269.274,-193.218 288,-199 327.064,-211.061 373.369,-209.969 408.676,-206.177"/>
<polygon fill="black" stroke="black" points="409.271,-209.632 418.793,-204.986 408.452,-202.68 409.271,-209.632"/>
</g>
<!-- program~integrate_euler_1d -->
<g id="node6" class="node"><title>program~integrate_euler_1d</title>
<a xlink:href="../program/integrate_euler_1d.html" xlink:title="integrate_euler_1D">
<polygon fill="#f0ad4e" stroke="#f0ad4e" points="516,-119 412,-119 412,-93 516,-93 516,-119"/>
<text text-anchor="middle" x="464" y="-103.55" font-family="Helvetica,sans-Serif" font-size="10.50" fill="white">integrate_euler_1D</text>
</a>
</g>
<!-- module~foodie&#45;&gt;program~integrate_euler_1d -->
<g id="edge16" class="edge"><title>module~foodie&#45;&gt;program~integrate_euler_1d</title>
<path fill="none" stroke="black" stroke-dasharray="5,2" d="M252.416,-150.264C288.589,-142.697 353.324,-129.154 401.696,-119.034"/>
<polygon fill="black" stroke="black" points="402.682,-122.404 411.754,-116.93 401.249,-115.552 402.682,-122.404"/>
</g>
<!-- module~type_euler_1d -->
<g id="node7" class="node"><title>module~type_euler_1d</title>
<a xlink:href="../module/type_euler_1d.html" xlink:title="type_euler_1D">
<polygon fill="#337ab7" stroke="#337ab7" points="372,-108 290,-108 290,-82 372,-82 372,-108"/>
<text text-anchor="middle" x="331" y="-92.55" font-family="Helvetica,sans-Serif" font-size="10.50" fill="white">type_euler_1D</text>
</a>
</g>
<!-- module~foodie&#45;&gt;module~type_euler_1d -->
<g id="edge18" class="edge"><title>module~foodie&#45;&gt;module~type_euler_1d</title>
<path fill="none" stroke="black" stroke-dasharray="5,2" d="M247.74,-142.914C262.83,-134.23 282.842,-122.713 299.465,-113.148"/>
<polygon fill="black" stroke="black" points="301.376,-116.086 308.298,-108.064 297.885,-110.019 301.376,-116.086"/>
</g>
<!-- module~type_lorenz -->
<g id="node8" class="node"><title>module~type_lorenz</title>
<a xlink:href="../module/type_lorenz.html" xlink:title="type_lorenz">
<polygon fill="#337ab7" stroke="#337ab7" points="365,-190 297,-190 297,-164 365,-164 365,-190"/>
<text text-anchor="middle" x="331" y="-174.55" font-family="Helvetica,sans-Serif" font-size="10.50" fill="white">type_lorenz</text>
</a>
</g>
<!-- module~foodie&#45;&gt;module~type_lorenz -->
<g id="edge20" class="edge"><title>module~foodie&#45;&gt;module~type_lorenz</title>
<path fill="none" stroke="black" stroke-dasharray="5,2" d="M252.023,-161.354C262.555,-163.44 274.905,-165.887 286.669,-168.217"/>
<polygon fill="black" stroke="black" points="286.307,-171.714 296.796,-170.224 287.667,-164.847 286.307,-171.714"/>
</g>
<!-- program~integrate_oscillation -->
<g id="node9" class="node"><title>program~integrate_oscillation</title>
<a xlink:href="../program/integrate_oscillation.html" xlink:title="integrate_oscillation">
<polygon fill="#f0ad4e" stroke="#f0ad4e" points="517,-56 411,-56 411,-30 517,-30 517,-56"/>
<text text-anchor="middle" x="464" y="-40.55" font-family="Helvetica,sans-Serif" font-size="10.50" fill="white">integrate_oscillation</text>
</a>
</g>
<!-- module~foodie&#45;&gt;program~integrate_oscillation -->
<g id="edge22" class="edge"><title>module~foodie&#45;&gt;program~integrate_oscillation</title>
<path fill="none" stroke="black" stroke-dasharray="5,2" d="M230.999,-142.863C240.322,-124.06 260.158,-89.8864 288,-73 321.529,-52.6646 364.902,-45.1016 400.2,-42.6533"/>
<polygon fill="black" stroke="black" points="400.616,-46.1354 410.4,-42.0705 400.217,-39.1468 400.616,-46.1354"/>
</g>
<!-- module~type_oscillation -->
<g id="node10" class="node"><title>module~type_oscillation</title>
<a xlink:href="../module/type_oscillation.html" xlink:title="type_oscillation">
<polygon fill="#337ab7" stroke="#337ab7" points="373,-26 289,-26 289,-1.24345e-14 373,-3.55271e-15 373,-26"/>
<text text-anchor="middle" x="331" y="-10.55" font-family="Helvetica,sans-Serif" font-size="10.50" fill="white">type_oscillation</text>
</a>
</g>
<!-- module~foodie&#45;&gt;module~type_oscillation -->
<g id="edge24" class="edge"><title>module~foodie&#45;&gt;module~type_oscillation</title>
<path fill="none" stroke="black" stroke-dasharray="5,2" d="M229.595,-142.811C238.144,-119.757 258.355,-71.5791 288,-40 290.706,-37.118 293.783,-34.4172 297.018,-31.9225"/>
<polygon fill="black" stroke="black" points="299.073,-34.7567 305.266,-26.1603 295.064,-29.0185 299.073,-34.7567"/>
</g>
<!-- module~type_burgers&#45;&gt;program~integrate_burgers -->
<g id="edge2" class="edge"><title>module~type_burgers&#45;&gt;program~integrate_burgers</title>
<path fill="none" stroke="black" stroke-dasharray="5,2" d="M369.112,-264.731C380.387,-266.427 393.001,-268.323 405.259,-270.167"/>
<polygon fill="black" stroke="black" points="405.025,-273.671 415.434,-271.697 406.066,-266.749 405.025,-273.671"/>
</g>
<!-- module~type_euler_1d&#45;&gt;program~integrate_euler_1d -->
<g id="edge4" class="edge"><title>module~type_euler_1d&#45;&gt;program~integrate_euler_1d</title>
<path fill="none" stroke="black" stroke-dasharray="5,2" d="M372.353,-98.4202C381.635,-99.1878 391.683,-100.019 401.608,-100.84"/>
<polygon fill="black" stroke="black" points="401.616,-104.352 411.87,-101.689 402.193,-97.3761 401.616,-104.352"/>
</g>
<!-- module~type_lorenz&#45;&gt;program~integrate_lorenz -->
<g id="edge6" class="edge"><title>module~type_lorenz&#45;&gt;program~integrate_lorenz</title>
<path fill="none" stroke="black" stroke-dasharray="5,2" d="M365.251,-182.15C378.508,-184.144 394.022,-186.477 408.774,-188.695"/>
<polygon fill="black" stroke="black" points="408.418,-192.181 418.827,-190.207 409.459,-185.259 408.418,-192.181"/>
</g>
<!-- module~type_oscillation&#45;&gt;program~integrate_oscillation -->
<g id="edge8" class="edge"><title>module~type_oscillation&#45;&gt;program~integrate_oscillation</title>
<path fill="none" stroke="black" stroke-dasharray="5,2" d="M373.814,-22.6573C382.201,-24.549 391.165,-26.5711 400.068,-28.5793"/>
<polygon fill="black" stroke="black" points="399.535,-32.0468 410.06,-30.833 401.075,-25.2183 399.535,-32.0468"/>
</g>
</g>
</svg>
