<?xml version="1.0" encoding="UTF-8" standalone="no"?>
<!DOCTYPE svg PUBLIC "-//W3C//DTD SVG 1.1//EN"
 "http://www.w3.org/Graphics/SVG/1.1/DTD/svg11.dtd">
<!-- Generated by graphviz version 2.26.3 (20100126.1600)
 -->
<!-- Title: module~~graph~~ModuleGraph Pages: 1 -->
<svg width="855pt" height="464pt"
 viewBox="0.00 0.00 855.00 464.05" xmlns="http://www.w3.org/2000/svg" xmlns:xlink="http://www.w3.org/1999/xlink">
<g id="graph1" class="graph" transform="scale(0.925325 0.925325) rotate(0) translate(4 497.501)">
<title>module~~graph~~ModuleGraph</title>
<polygon fill="white" stroke="white" points="-4,5 -4,-497.501 921,-497.501 921,5 -4,5"/>
<!-- module~foodie -->
<g id="node1" class="node"><title>module~foodie</title>
<a xlink:href="../module/foodie.html" xlink:title="foodie">
<polygon fill="#337ab7" stroke="#337ab7" points="540,-303.75 486,-303.75 486,-277.75 540,-277.75 540,-303.75"/>
<text text-anchor="middle" x="513" y="-288.3" font-family="Helvetica,sans-Serif" font-size="10.50" fill="white">foodie</text>
</a>
</g>
<!-- module~type_burgers -->
<g id="node6" class="node"><title>module~type_burgers</title>
<a xlink:href="../module/type_burgers.html" xlink:title="type_burgers">
<polygon fill="#337ab7" stroke="#337ab7" points="712,-464.75 636,-464.75 636,-438.75 712,-438.75 712,-464.75"/>
<text text-anchor="middle" x="674" y="-449.3" font-family="Helvetica,sans-Serif" font-size="10.50" fill="white">type_burgers</text>
</a>
</g>
<!-- module~foodie&#45;&gt;module~type_burgers -->
<g id="edge32" class="edge"><title>module~foodie&#45;&gt;module~type_burgers</title>
<path fill="none" stroke="black" stroke-dasharray="5,2" d="M519.5,-304.056C529.594,-323.774 550.548,-361.174 576,-386.75 594.733,-405.575 619.73,-422.051 639.79,-433.705"/>
<polygon fill="black" stroke="black" points="638.194,-436.824 648.619,-438.712 641.647,-430.734 638.194,-436.824"/>
</g>
<!-- module~type_euler_1d -->
<g id="node7" class="node"><title>module~type_euler_1d</title>
<a xlink:href="../module/type_euler_1d.html" xlink:title="type_euler_1D">
<polygon fill="#337ab7" stroke="#337ab7" points="715,-54.7503 633,-54.7503 633,-28.7503 715,-28.7503 715,-54.7503"/>
<text text-anchor="middle" x="674" y="-39.3003" font-family="Helvetica,sans-Serif" font-size="10.50" fill="white">type_euler_1D</text>
</a>
</g>
<!-- module~foodie&#45;&gt;module~type_euler_1d -->
<g id="edge36" class="edge"><title>module~foodie&#45;&gt;module~type_euler_1d</title>
<path fill="none" stroke="black" stroke-dasharray="5,2" d="M514.308,-277.361C518.159,-244.207 532.097,-156.986 576,-101.75 590.508,-83.4978 612.195,-69.4055 631.482,-59.4792"/>
<polygon fill="black" stroke="black" points="633.285,-62.4931 640.716,-54.941 630.197,-56.2109 633.285,-62.4931"/>
</g>
<!-- module~type_oscillation -->
<g id="node8" class="node"><title>module~type_oscillation</title>
<a xlink:href="../module/type_oscillation.html" xlink:title="type_oscillation">
<polygon fill="#337ab7" stroke="#337ab7" points="716,-344.75 632,-344.75 632,-318.75 716,-318.75 716,-344.75"/>
<text text-anchor="middle" x="674" y="-329.3" font-family="Helvetica,sans-Serif" font-size="10.50" fill="white">type_oscillation</text>
</a>
</g>
<!-- module~foodie&#45;&gt;module~type_oscillation -->
<g id="edge42" class="edge"><title>module~foodie&#45;&gt;module~type_oscillation</title>
<path fill="none" stroke="black" stroke-dasharray="5,2" d="M540.311,-297.705C562.524,-303.362 594.517,-311.509 621.636,-318.415"/>
<polygon fill="black" stroke="black" points="620.825,-321.821 631.38,-320.897 622.553,-315.037 620.825,-321.821"/>
</g>
<!-- module~type_lorenz -->
<g id="node11" class="node"><title>module~type_lorenz</title>
<a xlink:href="../module/type_lorenz.html" xlink:title="type_lorenz">
<polygon fill="#337ab7" stroke="#337ab7" points="708,-136.75 640,-136.75 640,-110.75 708,-110.75 708,-136.75"/>
<text text-anchor="middle" x="674" y="-121.3" font-family="Helvetica,sans-Serif" font-size="10.50" fill="white">type_lorenz</text>
</a>
</g>
<!-- module~foodie&#45;&gt;module~type_lorenz -->
<g id="edge52" class="edge"><title>module~foodie&#45;&gt;module~type_lorenz</title>
<path fill="none" stroke="black" stroke-dasharray="5,2" d="M515.065,-277.735C520.153,-250.057 535.924,-185.085 576,-150.75 590.926,-137.962 611.414,-131.191 629.799,-127.621"/>
<polygon fill="black" stroke="black" points="630.466,-131.059 639.748,-125.95 629.306,-124.155 630.466,-131.059"/>
</g>
<!-- program~integrate_burgers -->
<g id="node12" class="node"><title>program~integrate_burgers</title>
<a xlink:href="../program/integrate_burgers.html" xlink:title="integrate_burgers">
<polygon fill="#f0ad4e" stroke="#f0ad4e" points="910,-385.75 814,-385.75 814,-359.75 910,-359.75 910,-385.75"/>
<text text-anchor="middle" x="862" y="-370.3" font-family="Helvetica,sans-Serif" font-size="10.50" fill="white">integrate_burgers</text>
</a>
</g>
<!-- module~foodie&#45;&gt;program~integrate_burgers -->
<g id="edge56" class="edge"><title>module~foodie&#45;&gt;program~integrate_burgers</title>
<path fill="none" stroke="black" stroke-dasharray="5,2" d="M521.635,-303.891C532.364,-318.955 552.194,-342.951 576,-353.75 649.041,-386.884 743.476,-385.827 803.414,-380.499"/>
<polygon fill="black" stroke="black" points="803.839,-383.974 813.46,-379.537 803.172,-377.006 803.839,-383.974"/>
</g>
<!-- program~integrate_oscillation -->
<g id="node13" class="node"><title>program~integrate_oscillation</title>
<a xlink:href="../program/integrate_oscillation.html" xlink:title="integrate_oscillation">
<polygon fill="#f0ad4e" stroke="#f0ad4e" points="915,-303.75 809,-303.75 809,-277.75 915,-277.75 915,-303.75"/>
<text text-anchor="middle" x="862" y="-288.3" font-family="Helvetica,sans-Serif" font-size="10.50" fill="white">integrate_oscillation</text>
</a>
</g>
<!-- module~foodie&#45;&gt;program~integrate_oscillation -->
<g id="edge66" class="edge"><title>module~foodie&#45;&gt;program~integrate_oscillation</title>
<path fill="none" stroke="black" stroke-dasharray="5,2" d="M540.095,-290.75C595.12,-290.75 721.25,-290.75 798.279,-290.75"/>
<polygon fill="black" stroke="black" points="798.346,-294.25 808.346,-290.75 798.346,-287.25 798.346,-294.25"/>
</g>
<!-- program~integrate_lorenz -->
<g id="node14" class="node"><title>program~integrate_lorenz</title>
<a xlink:href="../program/integrate_lorenz.html" xlink:title="integrate_lorenz">
<polygon fill="#f0ad4e" stroke="#f0ad4e" points="907,-177.75 817,-177.75 817,-151.75 907,-151.75 907,-177.75"/>
<text text-anchor="middle" x="862" y="-162.3" font-family="Helvetica,sans-Serif" font-size="10.50" fill="white">integrate_lorenz</text>
</a>
</g>
<!-- module~foodie&#45;&gt;program~integrate_lorenz -->
<g id="edge78" class="edge"><title>module~foodie&#45;&gt;program~integrate_lorenz</title>
<path fill="none" stroke="black" stroke-dasharray="5,2" d="M674,-164.75C716.117,-147.425 768.173,-148.985 806.821,-153.992"/>
<polygon fill="black" stroke="black" points="806.453,-157.475 816.844,-155.406 807.431,-150.543 806.453,-157.475"/>
</g>
<!-- program~integrate_euler_1d -->
<g id="node15" class="node"><title>program~integrate_euler_1d</title>
<a xlink:href="../program/integrate_euler_1d.html" xlink:title="integrate_euler_1D">
<polygon fill="#f0ad4e" stroke="#f0ad4e" points="914,-133.75 810,-133.75 810,-107.75 914,-107.75 914,-133.75"/>
<text text-anchor="middle" x="862" y="-118.3" font-family="Helvetica,sans-Serif" font-size="10.50" fill="white">integrate_euler_1D</text>
</a>
</g>
<!-- module~foodie&#45;&gt;program~integrate_euler_1d -->
<g id="edge88" class="edge"><title>module~foodie&#45;&gt;program~integrate_euler_1d</title>
<path fill="none" stroke="black" stroke-dasharray="5,2" d="M516.849,-277.43C524.243,-254.378 542.724,-207.26 576,-183.75 612.235,-158.15 632.969,-181.629 674,-164.75"/>
<path fill="none" stroke="black" stroke-dasharray="5,2" d="M674,-164.75C715.031,-147.872 728.814,-155.918 772,-145.75 783.715,-142.992 796.203,-139.732 808.029,-136.493"/>
<polygon fill="black" stroke="black" points="809.077,-139.834 817.777,-133.788 807.205,-133.089 809.077,-139.834"/>
</g>
<!-- module~foodie_integrator_adams_bashforth -->
<g id="node2" class="node"><title>module~foodie_integrator_adams_bashforth</title>
<a xlink:href="../module/foodie_integrator_adams_bashforth.html" xlink:title="foodie_integrator_adams_bashforth">
<polygon fill="#337ab7" stroke="#337ab7" points="431,-319.75 249,-319.75 249,-293.75 431,-293.75 431,-319.75"/>
<text text-anchor="middle" x="340" y="-304.3" font-family="Helvetica,sans-Serif" font-size="10.50" fill="white">foodie_integrator_adams_bashforth</text>
</a>
</g>
<!-- module~foodie_integrator_adams_bashforth&#45;&gt;module~foodie -->
<g id="edge6" class="edge"><title>module~foodie_integrator_adams_bashforth&#45;&gt;module~foodie</title>
<path fill="none" stroke="black" stroke-dasharray="5,2" d="M431.566,-298.282C447.17,-296.839 462.554,-295.416 475.677,-294.202"/>
<polygon fill="black" stroke="black" points="476.042,-297.683 485.677,-293.277 475.397,-290.713 476.042,-297.683"/>
</g>
<!-- module~foodie_integrator_tvd_runge_kutta -->
<g id="node3" class="node"><title>module~foodie_integrator_tvd_runge_kutta</title>
<a xlink:href="../module/foodie_integrator_tvd_runge_kutta.html" xlink:title="foodie_integrator_tvd_runge_kutta">
<polygon fill="#337ab7" stroke="#337ab7" points="428,-237.75 252,-237.75 252,-211.75 428,-211.75 428,-237.75"/>
<text text-anchor="middle" x="340" y="-222.3" font-family="Helvetica,sans-Serif" font-size="10.50" fill="white">foodie_integrator_tvd_runge_kutta</text>
</a>
</g>
<!-- module~foodie_integrator_tvd_runge_kutta&#45;&gt;module~foodie -->
<g id="edge2" class="edge"><title>module~foodie_integrator_tvd_runge_kutta&#45;&gt;module~foodie</title>
<path fill="none" stroke="black" stroke-dasharray="5,2" d="M407.687,-237.821C421.932,-241.547 436.674,-246.155 450,-251.75 462.822,-257.133 476.049,-264.925 487.052,-272.13"/>
<polygon fill="black" stroke="black" points="485.102,-275.037 495.35,-277.726 489.016,-269.233 485.102,-275.037"/>
</g>
<!-- module~foodie_integrator_euler_explicit -->
<g id="node4" class="node"><title>module~foodie_integrator_euler_explicit</title>
<a xlink:href="../module/foodie_integrator_euler_explicit.html" xlink:title="foodie_integrator_euler_explicit">
<polygon fill="#337ab7" stroke="#337ab7" points="421,-193.75 259,-193.75 259,-167.75 421,-167.75 421,-193.75"/>
<text text-anchor="middle" x="340" y="-178.3" font-family="Helvetica,sans-Serif" font-size="10.50" fill="white">foodie_integrator_euler_explicit</text>
</a>
</g>
<!-- module~foodie_integrator_euler_explicit&#45;&gt;module~foodie -->
<g id="edge8" class="edge"><title>module~foodie_integrator_euler_explicit&#45;&gt;module~foodie</title>
<path fill="none" stroke="black" stroke-dasharray="5,2" d="M421.166,-189.659C431.349,-192.847 441.247,-197.098 450,-202.75 474.687,-218.694 492.725,-248.004 503.023,-268.396"/>
<polygon fill="black" stroke="black" points="499.96,-270.102 507.452,-277.593 506.266,-267.064 499.96,-270.102"/>
</g>
<!-- module~foodie_integrator_low_storage_runge_kutta -->
<g id="node5" class="node"><title>module~foodie_integrator_low_storage_runge_kutta</title>
<a xlink:href="../module/foodie_integrator_low_storage_runge_kutta.html" xlink:title="foodie_integrator_low_storage_runge_kutta">
<polygon fill="#337ab7" stroke="#337ab7" points="450,-407.75 230,-407.75 230,-381.75 450,-381.75 450,-407.75"/>
<text text-anchor="middle" x="340" y="-392.3" font-family="Helvetica,sans-Serif" font-size="10.50" fill="white">foodie_integrator_low_storage_runge_kutta</text>
</a>
</g>
<!-- module~foodie_integrator_low_storage_runge_kutta&#45;&gt;module~foodie -->
<g id="edge12" class="edge"><title>module~foodie_integrator_low_storage_runge_kutta&#45;&gt;module~foodie</title>
<path fill="none" stroke="black" stroke-dasharray="5,2" d="M432.01,-381.703C438.308,-379.205 444.378,-376.248 450,-372.75 473.342,-358.228 491.301,-331.74 501.964,-312.797"/>
<polygon fill="black" stroke="black" points="505.076,-314.4 506.735,-303.936 498.913,-311.081 505.076,-314.4"/>
</g>
<!-- module~type_burgers&#45;&gt;program~integrate_burgers -->
<g id="edge58" class="edge"><title>module~type_burgers&#45;&gt;program~integrate_burgers</title>
<path fill="none" stroke="black" stroke-dasharray="5,2" d="M712.455,-443.565C730.846,-439.047 752.953,-432.722 772,-424.75 793.83,-415.614 816.912,-402.192 834.235,-391.273"/>
<polygon fill="black" stroke="black" points="836.201,-394.17 842.731,-385.828 832.424,-388.277 836.201,-394.17"/>
</g>
<!-- module~type_euler_1d&#45;&gt;program~integrate_euler_1d -->
<g id="edge92" class="edge"><title>module~type_euler_1d&#45;&gt;program~integrate_euler_1d</title>
<path fill="none" stroke="black" stroke-dasharray="5,2" d="M715.313,-50.645C733.105,-55.1068 753.93,-61.1873 772,-68.7503 793.83,-77.8869 816.912,-91.3085 834.235,-102.227"/>
<polygon fill="black" stroke="black" points="832.424,-105.224 842.731,-107.673 836.201,-99.3302 832.424,-105.224"/>
</g>
<!-- module~type_oscillation&#45;&gt;program~integrate_oscillation -->
<g id="edge68" class="edge"><title>module~type_oscillation&#45;&gt;program~integrate_oscillation</title>
<path fill="none" stroke="black" stroke-dasharray="5,2" d="M716.66,-322.447C740.772,-317.188 771.385,-310.512 798.291,-304.644"/>
<polygon fill="black" stroke="black" points="799.375,-307.99 808.4,-302.44 797.884,-301.151 799.375,-307.99"/>
</g>
<!-- module~type_integrand -->
<g id="node9" class="node"><title>module~type_integrand</title>
<a xlink:href="../module/type_integrand.html" xlink:title="type_integrand">
<polygon fill="#337ab7" stroke="#337ab7" points="194,-298.75 110,-298.75 110,-272.75 194,-272.75 194,-298.75"/>
<text text-anchor="middle" x="152" y="-283.3" font-family="Helvetica,sans-Serif" font-size="10.50" fill="white">type_integrand</text>
</a>
</g>
<!-- module~type_integrand&#45;&gt;module~foodie -->
<g id="edge4" class="edge"><title>module~type_integrand&#45;&gt;module~foodie</title>
<path fill="none" stroke="black" stroke-dasharray="5,2" d="M194.099,-285.112C205.729,-284.962 218.353,-284.825 230,-284.75 327.776,-284.124 352.332,-280.11 450,-284.75 458.348,-285.147 467.298,-285.838 475.755,-286.613"/>
<polygon fill="black" stroke="black" points="475.46,-290.1 485.752,-287.586 476.138,-283.133 475.46,-290.1"/>
</g>
<!-- module~type_integrand&#45;&gt;module~foodie_integrator_adams_bashforth -->
<g id="edge16" class="edge"><title>module~type_integrand&#45;&gt;module~foodie_integrator_adams_bashforth</title>
<path fill="none" stroke="black" stroke-dasharray="5,2" d="M194.191,-290.463C207.423,-291.941 222.647,-293.642 238.158,-295.374"/>
<polygon fill="black" stroke="black" points="238.047,-298.884 248.374,-296.515 238.824,-291.927 238.047,-298.884"/>
</g>
<!-- module~type_integrand&#45;&gt;module~foodie_integrator_tvd_runge_kutta -->
<g id="edge20" class="edge"><title>module~type_integrand&#45;&gt;module~foodie_integrator_tvd_runge_kutta</title>
<path fill="none" stroke="black" stroke-dasharray="5,2" d="M178.986,-272.631C193.804,-265.775 212.646,-257.615 230,-251.75 242.47,-247.536 255.939,-243.68 269.033,-240.283"/>
<polygon fill="black" stroke="black" points="270.112,-243.62 278.95,-237.776 268.397,-236.833 270.112,-243.62"/>
</g>
<!-- module~type_integrand&#45;&gt;module~foodie_integrator_euler_explicit -->
<g id="edge24" class="edge"><title>module~type_integrand&#45;&gt;module~foodie_integrator_euler_explicit</title>
<path fill="none" stroke="black" stroke-dasharray="5,2" d="M160.314,-272.717C172.962,-254.044 198.883,-220.03 230,-202.75 236.006,-199.415 242.445,-196.581 249.084,-194.174"/>
<polygon fill="black" stroke="black" points="250.517,-197.388 258.927,-190.944 248.334,-190.737 250.517,-197.388"/>
</g>
<!-- module~type_integrand&#45;&gt;module~foodie_integrator_low_storage_runge_kutta -->
<g id="edge28" class="edge"><title>module~type_integrand&#45;&gt;module~foodie_integrator_low_storage_runge_kutta</title>
<path fill="none" stroke="black" stroke-dasharray="5,2" d="M159.747,-298.768C172.039,-318.197 197.935,-354.449 230,-372.75 233.28,-374.622 236.694,-376.337 240.203,-377.907"/>
<polygon fill="black" stroke="black" points="239.104,-381.238 249.687,-381.736 241.724,-374.747 239.104,-381.238"/>
</g>
<!-- module~foodie_integrator_leapfrog -->
<g id="node10" class="node"><title>module~foodie_integrator_leapfrog</title>
<a xlink:href="../module/foodie_integrator_leapfrog.html" xlink:title="foodie_integrator_leapfrog">
<polygon fill="#337ab7" stroke="#337ab7" points="409,-363.75 271,-363.75 271,-337.75 409,-337.75 409,-363.75"/>
<text text-anchor="middle" x="340" y="-348.3" font-family="Helvetica,sans-Serif" font-size="10.50" fill="white">foodie_integrator_leapfrog</text>
</a>
</g>
<!-- module~type_integrand&#45;&gt;module~foodie_integrator_leapfrog -->
<g id="edge48" class="edge"><title>module~type_integrand&#45;&gt;module~foodie_integrator_leapfrog</title>
<path fill="none" stroke="black" stroke-dasharray="5,2" d="M171.717,-298.848C187.022,-308.453 209.088,-321.102 230,-328.75 239.703,-332.299 250.107,-335.321 260.507,-337.883"/>
<polygon fill="black" stroke="black" points="259.919,-341.34 270.452,-340.201 261.507,-334.523 259.919,-341.34"/>
</g>
<!-- module~foodie_integrator_leapfrog&#45;&gt;module~foodie -->
<g id="edge10" class="edge"><title>module~foodie_integrator_leapfrog&#45;&gt;module~foodie</title>
<path fill="none" stroke="black" stroke-dasharray="5,2" d="M409.696,-340.594C423.306,-337.56 437.29,-333.681 450,-328.75 462.653,-323.842 475.655,-316.462 486.537,-309.508"/>
<polygon fill="black" stroke="black" points="488.713,-312.264 495.125,-303.83 484.853,-306.425 488.713,-312.264"/>
</g>
<!-- module~type_lorenz&#45;&gt;program~integrate_lorenz -->
<g id="edge82" class="edge"><title>module~type_lorenz&#45;&gt;program~integrate_lorenz</title>
<path fill="none" stroke="black" stroke-dasharray="5,2" d="M708.045,-131.175C735.544,-137.172 774.79,-145.731 806.774,-152.706"/>
<polygon fill="black" stroke="black" points="806.363,-156.199 816.88,-154.91 807.855,-149.36 806.363,-156.199"/>
</g>
<!-- IR_Precision -->
<g id="node22" class="node"><title>IR_Precision</title>
<polygon fill="#337ab7" stroke="#337ab7" points="73,-298.75 1,-298.75 1,-272.75 73,-272.75 73,-298.75"/>
<text text-anchor="middle" x="37" y="-283.3" font-family="Helvetica,sans-Serif" font-size="10.50" fill="white">IR_Precision</text>
</g>
<!-- IR_Precision&#45;&gt;module~foodie_integrator_adams_bashforth -->
<g id="edge14" class="edge"><title>IR_Precision&#45;&gt;module~foodie_integrator_adams_bashforth</title>
<path fill="none" stroke="black" stroke-dasharray="5,2" d="M45.0521,-298.888C61.4134,-324.045 101.328,-378.009 152,-394.75"/>
<path fill="none" stroke="black" stroke-dasharray="5,2" d="M152,-394.75C195.119,-408.996 189.106,-348.496 230,-328.75 234.321,-326.664 238.83,-324.775 243.45,-323.065"/>
<polygon fill="black" stroke="black" points="244.72,-326.33 253.064,-319.802 242.47,-319.702 244.72,-326.33"/>
</g>
<!-- IR_Precision&#45;&gt;module~foodie_integrator_tvd_runge_kutta -->
<g id="edge18" class="edge"><title>IR_Precision&#45;&gt;module~foodie_integrator_tvd_runge_kutta</title>
<path fill="none" stroke="black" stroke-dasharray="5,2" d="M152,-180.75C185.43,-167.34 194.981,-194.323 230,-202.75 239.901,-205.133 250.346,-207.46 260.701,-209.655"/>
<polygon fill="black" stroke="black" points="260.076,-213.1 270.58,-211.716 261.506,-206.247 260.076,-213.1"/>
</g>
<!-- IR_Precision&#45;&gt;module~foodie_integrator_euler_explicit -->
<g id="edge22" class="edge"><title>IR_Precision&#45;&gt;module~foodie_integrator_euler_explicit</title>
<path fill="none" stroke="black" stroke-dasharray="5,2" d="M152,-180.75C182.204,-168.633 217.4,-165.955 249.117,-167.202"/>
<polygon fill="black" stroke="black" points="249.111,-170.706 259.281,-167.737 249.479,-163.716 249.111,-170.706"/>
</g>
<!-- IR_Precision&#45;&gt;module~foodie_integrator_low_storage_runge_kutta -->
<g id="edge26" class="edge"><title>IR_Precision&#45;&gt;module~foodie_integrator_low_storage_runge_kutta</title>
<path fill="none" stroke="black" stroke-dasharray="5,2" d="M152,-394.75C173.327,-401.797 196.773,-405.054 219.658,-406.052"/>
<polygon fill="black" stroke="black" points="219.673,-409.554 229.772,-406.351 219.88,-402.557 219.673,-409.554"/>
</g>
<!-- IR_Precision&#45;&gt;module~type_burgers -->
<g id="edge30" class="edge"><title>IR_Precision&#45;&gt;module~type_burgers</title>
<path fill="none" stroke="black" stroke-dasharray="5,2" d="M513,-451.75C550.749,-449.904 593.537,-450.008 625.509,-450.517"/>
<polygon fill="black" stroke="black" points="625.854,-454.024 635.915,-450.703 625.979,-447.025 625.854,-454.024"/>
</g>
<!-- IR_Precision&#45;&gt;module~type_euler_1d -->
<g id="edge34" class="edge"><title>IR_Precision&#45;&gt;module~type_euler_1d</title>
<path fill="none" stroke="black" stroke-dasharray="5,2" d="M513,-41.7503C548.584,-31.3391 590.517,-31.7169 622.666,-34.4983"/>
<polygon fill="black" stroke="black" points="622.449,-37.9935 632.74,-35.4752 623.124,-31.0262 622.449,-37.9935"/>
</g>
<!-- IR_Precision&#45;&gt;module~type_oscillation -->
<g id="edge40" class="edge"><title>IR_Precision&#45;&gt;module~type_oscillation</title>
<path fill="none" stroke="black" stroke-dasharray="5,2" d="M152,-394.75C306.232,-445.707 350.74,-459.22 513,-451.75"/>
<path fill="none" stroke="black" stroke-dasharray="5,2" d="M513,-451.75C550.125,-449.935 546.448,-419.294 576,-396.75 597.959,-379.999 624.077,-362.8 643.825,-350.305"/>
<polygon fill="black" stroke="black" points="645.805,-353.195 652.413,-344.914 642.083,-347.267 645.805,-353.195"/>
</g>
<!-- IR_Precision&#45;&gt;module~type_integrand -->
<g id="edge44" class="edge"><title>IR_Precision&#45;&gt;module~type_integrand</title>
<path fill="none" stroke="black" stroke-dasharray="5,2" d="M73.7029,-285.75C81.9237,-285.75 90.8,-285.75 99.521,-285.75"/>
<polygon fill="black" stroke="black" points="99.6389,-289.25 109.639,-285.75 99.6388,-282.25 99.6389,-289.25"/>
</g>
<!-- IR_Precision&#45;&gt;module~foodie_integrator_leapfrog -->
<g id="edge46" class="edge"><title>IR_Precision&#45;&gt;module~foodie_integrator_leapfrog</title>
<path fill="none" stroke="black" stroke-dasharray="5,2" d="M152,-394.75C186.201,-406.05 194.981,-381.178 230,-372.75 239.901,-370.368 250.346,-368.041 260.701,-365.846"/>
<polygon fill="black" stroke="black" points="261.506,-369.253 270.58,-363.784 260.076,-362.401 261.506,-369.253"/>
</g>
<!-- IR_Precision&#45;&gt;module~type_lorenz -->
<g id="edge50" class="edge"><title>IR_Precision&#45;&gt;module~type_lorenz</title>
<path fill="none" stroke="black" stroke-dasharray="5,2" d="M513,-123.75C552.393,-121.252 597.317,-121.51 629.682,-122.244"/>
<polygon fill="black" stroke="black" points="629.642,-125.744 639.726,-122.496 629.817,-118.746 629.642,-125.744"/>
</g>
<!-- IR_Precision&#45;&gt;program~integrate_burgers -->
<g id="edge54" class="edge"><title>IR_Precision&#45;&gt;program~integrate_burgers</title>
<path fill="none" stroke="black" stroke-dasharray="5,2" d="M513,-451.75C542.598,-449.86 546.759,-468.792 576,-473.75 661.885,-488.315 692.512,-509.387 772,-473.75 807.947,-457.634 835.426,-419.277 850.101,-394.743"/>
<polygon fill="black" stroke="black" points="853.3,-396.201 855.258,-385.788 847.234,-392.707 853.3,-396.201"/>
</g>
<!-- IR_Precision&#45;&gt;program~integrate_oscillation -->
<g id="edge64" class="edge"><title>IR_Precision&#45;&gt;program~integrate_oscillation</title>
<path fill="none" stroke="black" stroke-dasharray="5,2" d="M513,-451.75C520.683,-451.375 765.199,-357.345 772,-353.75 795.62,-341.266 820.338,-323.581 837.88,-310.125"/>
<polygon fill="black" stroke="black" points="840.137,-312.804 845.879,-303.901 835.838,-307.28 840.137,-312.804"/>
</g>
<!-- IR_Precision&#45;&gt;program~integrate_lorenz -->
<g id="edge74" class="edge"><title>IR_Precision&#45;&gt;program~integrate_lorenz</title>
<path fill="none" stroke="black" stroke-dasharray="5,2" d="M340,-123.75C414.234,-103.721 436.265,-128.616 513,-123.75"/>
<path fill="none" stroke="black" stroke-dasharray="5,2" d="M513,-123.75C542.599,-121.874 546.759,-106.709 576,-101.75 661.885,-87.1858 692.643,-65.823 772,-101.75 794.091,-111.752 788.243,-128.689 808,-142.75 810.093,-144.24 812.301,-145.65 814.582,-146.983"/>
<polygon fill="black" stroke="black" points="813.163,-150.19 823.644,-151.736 816.415,-143.992 813.163,-150.19"/>
</g>
<!-- IR_Precision&#45;&gt;program~integrate_euler_1d -->
<g id="edge84" class="edge"><title>IR_Precision&#45;&gt;program~integrate_euler_1d</title>
<path fill="none" stroke="black" stroke-dasharray="5,2" d="M46.2078,-272.599C63.6476,-248.962 104.075,-199.976 152,-180.75"/>
<path fill="none" stroke="black" stroke-dasharray="5,2" d="M152,-180.75C233.034,-148.242 255.703,-146.495 340,-123.75"/>
<path fill="none" stroke="black" stroke-dasharray="5,2" d="M340,-123.75C422.151,-101.585 431.335,-65.6439 513,-41.7503"/>
<path fill="none" stroke="black" stroke-dasharray="5,2" d="M513,-41.7503C541.465,-33.4221 546.759,-24.709 576,-19.7503 661.885,-5.18579 692.512,15.8865 772,-19.7503 807.947,-35.8665 835.426,-74.2233 850.101,-98.7573"/>
<polygon fill="black" stroke="black" points="847.234,-100.793 855.258,-107.712 853.3,-97.3 847.234,-100.793"/>
</g>
<!-- wenoof -->
<g id="node35" class="node"><title>wenoof</title>
<polygon fill="#337ab7" stroke="#337ab7" points="540,-95.7503 486,-95.7503 486,-69.7503 540,-69.7503 540,-95.7503"/>
<text text-anchor="middle" x="513" y="-80.3003" font-family="Helvetica,sans-Serif" font-size="10.50" fill="white">wenoof</text>
</g>
<!-- wenoof&#45;&gt;module~type_euler_1d -->
<g id="edge38" class="edge"><title>wenoof&#45;&gt;module~type_euler_1d</title>
<path fill="none" stroke="black" stroke-dasharray="5,2" d="M540.311,-75.7952C562.924,-70.0368 595.671,-61.6975 623.095,-54.7138"/>
<polygon fill="black" stroke="black" points="624.102,-58.0691 632.929,-52.2095 622.374,-51.2856 624.102,-58.0691"/>
</g>
<!-- pyplot_module -->
<g id="node47" class="node"><title>pyplot_module</title>
<polygon fill="#337ab7" stroke="#337ab7" points="715,-262.75 633,-262.75 633,-236.75 715,-236.75 715,-262.75"/>
<text text-anchor="middle" x="674" y="-247.3" font-family="Helvetica,sans-Serif" font-size="10.50" fill="white">pyplot_module</text>
</g>
<!-- pyplot_module&#45;&gt;program~integrate_burgers -->
<g id="edge60" class="edge"><title>pyplot_module&#45;&gt;program~integrate_burgers</title>
<path fill="none" stroke="black" stroke-dasharray="5,2" d="M696.429,-262.949C716.451,-274.858 746.47,-293.022 772,-309.75 793.798,-324.034 817.967,-341.018 835.766,-353.75"/>
<polygon fill="black" stroke="black" points="833.789,-356.639 843.953,-359.629 837.871,-350.953 833.789,-356.639"/>
</g>
<!-- pyplot_module&#45;&gt;program~integrate_oscillation -->
<g id="edge70" class="edge"><title>pyplot_module&#45;&gt;program~integrate_oscillation</title>
<path fill="none" stroke="black" stroke-dasharray="5,2" d="M715.257,-258.748C739.613,-264.059 770.952,-270.894 798.411,-276.883"/>
<polygon fill="black" stroke="black" points="797.816,-280.335 808.332,-279.046 799.308,-273.496 797.816,-280.335"/>
</g>
<!-- pyplot_module&#45;&gt;program~integrate_lorenz -->
<g id="edge76" class="edge"><title>pyplot_module&#45;&gt;program~integrate_lorenz</title>
<path fill="none" stroke="black" stroke-dasharray="5,2" d="M715.181,-244.186C733.143,-240.835 754.134,-235.638 772,-227.75 796.89,-216.761 821.988,-198.456 839.333,-184.401"/>
<polygon fill="black" stroke="black" points="841.721,-186.968 847.19,-177.893 837.256,-181.577 841.721,-186.968"/>
</g>
<!-- pyplot_module&#45;&gt;program~integrate_euler_1d -->
<g id="edge86" class="edge"><title>pyplot_module&#45;&gt;program~integrate_euler_1d</title>
<path fill="none" stroke="black" stroke-dasharray="5,2" d="M715.448,-248.898C734.521,-246.542 756.337,-240.823 772,-227.75 803.497,-201.462 778.791,-171.56 808,-142.75 809.104,-141.662 810.268,-140.625 811.483,-139.637"/>
<polygon fill="black" stroke="black" points="813.78,-142.309 820.105,-133.808 809.86,-136.51 813.78,-142.309"/>
</g>
<!-- Data_Type_Command_Line_Interface -->
<g id="node49" class="node"><title>Data_Type_Command_Line_Interface</title>
<polygon fill="#337ab7" stroke="#337ab7" points="771,-218.75 577,-218.75 577,-192.75 771,-192.75 771,-218.75"/>
<text text-anchor="middle" x="674" y="-203.3" font-family="Helvetica,sans-Serif" font-size="10.50" fill="white">Data_Type_Command_Line_Interface</text>
</g>
<!-- Data_Type_Command_Line_Interface&#45;&gt;program~integrate_burgers -->
<g id="edge62" class="edge"><title>Data_Type_Command_Line_Interface&#45;&gt;program~integrate_burgers</title>
<path fill="none" stroke="black" stroke-dasharray="5,2" d="M758.419,-218.834C763.268,-221.339 767.85,-224.287 772,-227.75 803.497,-254.039 785.974,-278.138 808,-312.75 817.17,-327.16 829.847,-341.448 840.615,-352.465"/>
<polygon fill="black" stroke="black" points="838.146,-354.946 847.697,-359.53 843.089,-349.99 838.146,-354.946"/>
</g>
<!-- Data_Type_Command_Line_Interface&#45;&gt;program~integrate_oscillation -->
<g id="edge72" class="edge"><title>Data_Type_Command_Line_Interface&#45;&gt;program~integrate_oscillation</title>
<path fill="none" stroke="black" stroke-dasharray="5,2" d="M747.012,-218.796C755.597,-221.303 764.104,-224.264 772,-227.75 796.89,-238.74 821.988,-257.045 839.333,-271.1"/>
<polygon fill="black" stroke="black" points="837.256,-273.924 847.19,-277.607 841.721,-268.533 837.256,-273.924"/>
</g>
<!-- Data_Type_Command_Line_Interface&#45;&gt;program~integrate_lorenz -->
<g id="edge80" class="edge"><title>Data_Type_Command_Line_Interface&#45;&gt;program~integrate_lorenz</title>
<path fill="none" stroke="black" stroke-dasharray="5,2" d="M733.743,-192.721C757.157,-187.615 783.857,-181.792 806.811,-176.786"/>
<polygon fill="black" stroke="black" points="807.708,-180.173 816.733,-174.622 806.217,-173.334 807.708,-180.173"/>
</g>
<!-- Data_Type_Command_Line_Interface&#45;&gt;program~integrate_euler_1d -->
<g id="edge90" class="edge"><title>Data_Type_Command_Line_Interface&#45;&gt;program~integrate_euler_1d</title>
<path fill="none" stroke="black" stroke-dasharray="5,2" d="M739.699,-192.725C750.889,-189.102 762.086,-184.521 772,-178.75 791.556,-167.368 789.149,-155.267 808,-142.75 810.372,-141.175 812.874,-139.681 815.45,-138.268"/>
<polygon fill="black" stroke="black" points="817.033,-141.39 824.407,-133.783 813.898,-135.131 817.033,-141.39"/>
</g>
</g>
</svg>
