<?xml version="1.0" encoding="UTF-8" standalone="no"?>
<!DOCTYPE svg PUBLIC "-//W3C//DTD SVG 1.1//EN"
 "http://www.w3.org/Graphics/SVG/1.1/DTD/svg11.dtd">
<!-- Generated by graphviz version 2.26.3 (20100126.1600)
 -->
<!-- Title: module~~foodie~~UsedByGraph Pages: 1 -->
<svg width="328pt" height="307pt"
 viewBox="0.00 0.00 328.00 307.00" xmlns="http://www.w3.org/2000/svg" xmlns:xlink="http://www.w3.org/1999/xlink">
<g id="graph1" class="graph" transform="scale(1 1) rotate(0) translate(4 303.004)">
<title>module~~foodie~~UsedByGraph</title>
<polygon fill="white" stroke="white" points="-4,5 -4,-303.004 325,-303.004 325,5 -4,5"/>
<!-- module~foodie -->
<g id="node1" class="node"><title>module~foodie</title>
<polygon fill="none" stroke="black" points="54,-169 2.13163e-14,-169 0,-143 54,-143 54,-169"/>
<text text-anchor="middle" x="27" y="-153.55" font-family="Helvetica,sans-Serif" font-size="10.50">foodie</text>
</g>
<!-- program~integrate_burgers -->
<g id="node2" class="node"><title>program~integrate_burgers</title>
<a xlink:href="../program/integrate_burgers.html" xlink:title="integrate_burgers">
<polygon fill="#f0ad4e" stroke="#f0ad4e" points="314,-292 218,-292 218,-266 314,-266 314,-292"/>
<text text-anchor="middle" x="266" y="-276.55" font-family="Helvetica,sans-Serif" font-size="10.50" fill="white">integrate_burgers</text>
</a>
</g>
<!-- module~foodie&#45;&gt;program~integrate_burgers -->
<g id="edge10" class="edge"><title>module~foodie&#45;&gt;program~integrate_burgers</title>
<path fill="none" stroke="black" stroke-dasharray="5,2" d="M29.0762,-169.265C34.0591,-196.019 49.4422,-256.023 90,-281 125.794,-303.043 173.941,-300.818 210.83,-294.042"/>
<polygon fill="black" stroke="black" points="211.796,-297.418 220.916,-292.026 210.424,-290.553 211.796,-297.418"/>
</g>
<!-- module~type_burgers -->
<g id="node3" class="node"><title>module~type_burgers</title>
<a xlink:href="../module/type_burgers.html" xlink:title="type_burgers">
<polygon fill="#337ab7" stroke="#337ab7" points="171,-272 95,-272 95,-246 171,-246 171,-272"/>
<text text-anchor="middle" x="133" y="-256.55" font-family="Helvetica,sans-Serif" font-size="10.50" fill="white">type_burgers</text>
</a>
</g>
<!-- module~foodie&#45;&gt;module~type_burgers -->
<g id="edge12" class="edge"><title>module~foodie&#45;&gt;module~type_burgers</title>
<path fill="none" stroke="black" stroke-dasharray="5,2" d="M35.9349,-169.183C47.2551,-185.262 67.9608,-212.683 90,-232 93.3725,-234.956 97.1028,-237.803 100.916,-240.469"/>
<polygon fill="black" stroke="black" points="99.0106,-243.405 109.287,-245.984 102.862,-237.56 99.0106,-243.405"/>
</g>
<!-- program~integrate_lorenz -->
<g id="node4" class="node"><title>program~integrate_lorenz</title>
<a xlink:href="../program/integrate_lorenz.html" xlink:title="integrate_lorenz">
<polygon fill="#f0ad4e" stroke="#f0ad4e" points="311,-210 221,-210 221,-184 311,-184 311,-210"/>
<text text-anchor="middle" x="266" y="-194.55" font-family="Helvetica,sans-Serif" font-size="10.50" fill="white">integrate_lorenz</text>
</a>
</g>
<!-- module~foodie&#45;&gt;program~integrate_lorenz -->
<g id="edge14" class="edge"><title>module~foodie&#45;&gt;program~integrate_lorenz</title>
<path fill="none" stroke="black" stroke-dasharray="5,2" d="M41.1786,-169.415C53.1432,-179.75 71.2735,-193.218 90,-199 129.064,-211.061 175.369,-209.969 210.676,-206.177"/>
<polygon fill="black" stroke="black" points="211.271,-209.632 220.793,-204.986 210.452,-202.68 211.271,-209.632"/>
</g>
<!-- program~integrate_euler_1d -->
<g id="node5" class="node"><title>program~integrate_euler_1d</title>
<a xlink:href="../program/integrate_euler_1d.html" xlink:title="integrate_euler_1D">
<polygon fill="#f0ad4e" stroke="#f0ad4e" points="318,-119 214,-119 214,-93 318,-93 318,-119"/>
<text text-anchor="middle" x="266" y="-103.55" font-family="Helvetica,sans-Serif" font-size="10.50" fill="white">integrate_euler_1D</text>
</a>
</g>
<!-- module~foodie&#45;&gt;program~integrate_euler_1d -->
<g id="edge16" class="edge"><title>module~foodie&#45;&gt;program~integrate_euler_1d</title>
<path fill="none" stroke="black" stroke-dasharray="5,2" d="M54.4163,-150.264C90.5889,-142.697 155.324,-129.154 203.696,-119.034"/>
<polygon fill="black" stroke="black" points="204.682,-122.404 213.754,-116.93 203.249,-115.552 204.682,-122.404"/>
</g>
<!-- module~type_euler_1d -->
<g id="node6" class="node"><title>module~type_euler_1d</title>
<a xlink:href="../module/type_euler_1d.html" xlink:title="type_euler_1D">
<polygon fill="#337ab7" stroke="#337ab7" points="174,-108 92,-108 92,-82 174,-82 174,-108"/>
<text text-anchor="middle" x="133" y="-92.55" font-family="Helvetica,sans-Serif" font-size="10.50" fill="white">type_euler_1D</text>
</a>
</g>
<!-- module~foodie&#45;&gt;module~type_euler_1d -->
<g id="edge18" class="edge"><title>module~foodie&#45;&gt;module~type_euler_1d</title>
<path fill="none" stroke="black" stroke-dasharray="5,2" d="M49.7397,-142.914C64.8299,-134.23 84.8421,-122.713 101.465,-113.148"/>
<polygon fill="black" stroke="black" points="103.376,-116.086 110.298,-108.064 99.8849,-110.019 103.376,-116.086"/>
</g>
<!-- module~type_lorenz -->
<g id="node7" class="node"><title>module~type_lorenz</title>
<a xlink:href="../module/type_lorenz.html" xlink:title="type_lorenz">
<polygon fill="#337ab7" stroke="#337ab7" points="167,-190 99,-190 99,-164 167,-164 167,-190"/>
<text text-anchor="middle" x="133" y="-174.55" font-family="Helvetica,sans-Serif" font-size="10.50" fill="white">type_lorenz</text>
</a>
</g>
<!-- module~foodie&#45;&gt;module~type_lorenz -->
<g id="edge20" class="edge"><title>module~foodie&#45;&gt;module~type_lorenz</title>
<path fill="none" stroke="black" stroke-dasharray="5,2" d="M54.0225,-161.354C64.5545,-163.44 76.9047,-165.887 88.6691,-168.217"/>
<polygon fill="black" stroke="black" points="88.3068,-171.714 98.7964,-170.224 89.6672,-164.847 88.3068,-171.714"/>
</g>
<!-- program~integrate_oscillation -->
<g id="node8" class="node"><title>program~integrate_oscillation</title>
<a xlink:href="../program/integrate_oscillation.html" xlink:title="integrate_oscillation">
<polygon fill="#f0ad4e" stroke="#f0ad4e" points="319,-56 213,-56 213,-30 319,-30 319,-56"/>
<text text-anchor="middle" x="266" y="-40.55" font-family="Helvetica,sans-Serif" font-size="10.50" fill="white">integrate_oscillation</text>
</a>
</g>
<!-- module~foodie&#45;&gt;program~integrate_oscillation -->
<g id="edge22" class="edge"><title>module~foodie&#45;&gt;program~integrate_oscillation</title>
<path fill="none" stroke="black" stroke-dasharray="5,2" d="M32.999,-142.863C42.3223,-124.06 62.1576,-89.8864 90,-73 123.529,-52.6646 166.902,-45.1016 202.2,-42.6533"/>
<polygon fill="black" stroke="black" points="202.616,-46.1354 212.4,-42.0705 202.217,-39.1468 202.616,-46.1354"/>
</g>
<!-- module~type_oscillation -->
<g id="node9" class="node"><title>module~type_oscillation</title>
<a xlink:href="../module/type_oscillation.html" xlink:title="type_oscillation">
<polygon fill="#337ab7" stroke="#337ab7" points="175,-26 91,-26 91,-1.24345e-14 175,-3.55271e-15 175,-26"/>
<text text-anchor="middle" x="133" y="-10.55" font-family="Helvetica,sans-Serif" font-size="10.50" fill="white">type_oscillation</text>
</a>
</g>
<!-- module~foodie&#45;&gt;module~type_oscillation -->
<g id="edge24" class="edge"><title>module~foodie&#45;&gt;module~type_oscillation</title>
<path fill="none" stroke="black" stroke-dasharray="5,2" d="M31.5953,-142.811C40.1439,-119.757 60.3548,-71.5791 90,-40 92.7055,-37.118 95.7826,-34.4172 99.0181,-31.9225"/>
<polygon fill="black" stroke="black" points="101.073,-34.7567 107.266,-26.1603 97.0636,-29.0185 101.073,-34.7567"/>
</g>
<!-- module~type_burgers&#45;&gt;program~integrate_burgers -->
<g id="edge2" class="edge"><title>module~type_burgers&#45;&gt;program~integrate_burgers</title>
<path fill="none" stroke="black" stroke-dasharray="5,2" d="M171.112,-264.731C182.387,-266.427 195.001,-268.323 207.259,-270.167"/>
<polygon fill="black" stroke="black" points="207.025,-273.671 217.434,-271.697 208.066,-266.749 207.025,-273.671"/>
</g>
<!-- module~type_euler_1d&#45;&gt;program~integrate_euler_1d -->
<g id="edge4" class="edge"><title>module~type_euler_1d&#45;&gt;program~integrate_euler_1d</title>
<path fill="none" stroke="black" stroke-dasharray="5,2" d="M174.353,-98.4202C183.635,-99.1878 193.683,-100.019 203.608,-100.84"/>
<polygon fill="black" stroke="black" points="203.616,-104.352 213.87,-101.689 204.193,-97.3761 203.616,-104.352"/>
</g>
<!-- module~type_lorenz&#45;&gt;program~integrate_lorenz -->
<g id="edge6" class="edge"><title>module~type_lorenz&#45;&gt;program~integrate_lorenz</title>
<path fill="none" stroke="black" stroke-dasharray="5,2" d="M167.251,-182.15C180.508,-184.144 196.022,-186.477 210.774,-188.695"/>
<polygon fill="black" stroke="black" points="210.418,-192.181 220.827,-190.207 211.459,-185.259 210.418,-192.181"/>
</g>
<!-- module~type_oscillation&#45;&gt;program~integrate_oscillation -->
<g id="edge8" class="edge"><title>module~type_oscillation&#45;&gt;program~integrate_oscillation</title>
<path fill="none" stroke="black" stroke-dasharray="5,2" d="M175.814,-22.6573C184.201,-24.549 193.165,-26.5711 202.068,-28.5793"/>
<polygon fill="black" stroke="black" points="201.535,-32.0468 212.06,-30.833 203.075,-25.2183 201.535,-32.0468"/>
</g>
</g>
</svg>
