<?xml version="1.0" encoding="UTF-8" standalone="no"?>
<!DOCTYPE svg PUBLIC "-//W3C//DTD SVG 1.1//EN"
 "http://www.w3.org/Graphics/SVG/1.1/DTD/svg11.dtd">
<!-- Generated by graphviz version 2.26.3 (20100126.1600)
 -->
<!-- Title: module~~type_lorenz~~UsedByGraph Pages: 1 -->
<svg width="202pt" height="34pt"
 viewBox="0.00 0.00 202.00 34.00" xmlns="http://www.w3.org/2000/svg" xmlns:xlink="http://www.w3.org/1999/xlink">
<g id="graph1" class="graph" transform="scale(1 1) rotate(0) translate(4 30)">
<title>module~~type_lorenz~~UsedByGraph</title>
<polygon fill="white" stroke="white" points="-4,5 -4,-30 199,-30 199,5 -4,5"/>
<!-- module~type_lorenz -->
<g id="node1" class="node"><title>module~type_lorenz</title>
<polygon fill="none" stroke="black" points="68,-26 3.55271e-14,-26 0,-1.24345e-14 68,-3.55271e-15 68,-26"/>
<text text-anchor="middle" x="34" y="-10.55" font-family="Helvetica,sans-Serif" font-size="10.50">type_lorenz</text>
</g>
<!-- program~integrate_lorenz -->
<g id="node2" class="node"><title>program~integrate_lorenz</title>
<a xlink:href="../program/integrate_lorenz.html" xlink:title="integrate_lorenz">
<polygon fill="#f0ad4e" stroke="#f0ad4e" points="194,-26 104,-26 104,-1.24345e-14 194,-3.55271e-15 194,-26"/>
<text text-anchor="middle" x="149" y="-10.55" font-family="Helvetica,sans-Serif" font-size="10.50" fill="white">integrate_lorenz</text>
</a>
</g>
<!-- module~type_lorenz&#45;&gt;program~integrate_lorenz -->
<g id="edge2" class="edge"><title>module~type_lorenz&#45;&gt;program~integrate_lorenz</title>
<path fill="none" stroke="black" stroke-dasharray="5,2" d="M68.1924,-13C76.1871,-13 84.9054,-13 93.5614,-13"/>
<polygon fill="black" stroke="black" points="93.647,-16.5001 103.647,-13 93.6469,-9.5001 93.647,-16.5001"/>
</g>
</g>
</svg>
