<?xml version="1.0" encoding="UTF-8" standalone="no"?>
<!DOCTYPE svg PUBLIC "-//W3C//DTD SVG 1.1//EN"
 "http://www.w3.org/Graphics/SVG/1.1/DTD/svg11.dtd">
<!-- Generated by graphviz version 2.26.3 (20100126.1600)
 -->
<!-- Title: module~~foodie_integrator_low_storage_runge_kutta~~UsedByGraph Pages: 1 -->
<svg width="584pt" height="266pt"
 viewBox="0.00 0.00 584.00 265.79" xmlns="http://www.w3.org/2000/svg" xmlns:xlink="http://www.w3.org/1999/xlink">
<g id="graph1" class="graph" transform="scale(1 1) rotate(0) translate(4 261.791)">
<title>module~~foodie_integrator_low_storage_runge_kutta~~UsedByGraph</title>
<polygon fill="white" stroke="white" points="-4,5 -4,-261.791 581,-261.791 581,5 -4,5"/>
<!-- module~foodie_integrator_low_storage_runge_kutta -->
<g id="node1" class="node"><title>module~foodie_integrator_low_storage_runge_kutta</title>
<polygon fill="none" stroke="black" points="220,-131.791 8.52651e-14,-131.791 0,-105.791 220,-105.791 220,-131.791"/>
<text text-anchor="middle" x="110" y="-116.341" font-family="Helvetica,sans-Serif" font-size="10.50">foodie_integrator_low_storage_runge_kutta</text>
</g>
<!-- module~foodie -->
<g id="node2" class="node"><title>module~foodie</title>
<a xlink:href="../module/foodie.html" xlink:title="foodie">
<polygon fill="#337ab7" stroke="#337ab7" points="310,-131.791 256,-131.791 256,-105.791 310,-105.791 310,-131.791"/>
<text text-anchor="middle" x="283" y="-116.341" font-family="Helvetica,sans-Serif" font-size="10.50" fill="white">foodie</text>
</a>
</g>
<!-- module~foodie_integrator_low_storage_runge_kutta&#45;&gt;module~foodie -->
<g id="edge26" class="edge"><title>module~foodie_integrator_low_storage_runge_kutta&#45;&gt;module~foodie</title>
<path fill="none" stroke="black" stroke-dasharray="5,2" d="M220.054,-118.791C229.125,-118.791 237.822,-118.791 245.703,-118.791"/>
<polygon fill="black" stroke="black" points="245.902,-122.291 255.902,-118.791 245.902,-115.291 245.902,-122.291"/>
</g>
<!-- module~type_oscillation -->
<g id="node3" class="node"><title>module~type_oscillation</title>
<a xlink:href="../module/type_oscillation.html" xlink:title="type_oscillation">
<polygon fill="#337ab7" stroke="#337ab7" points="431,-257.791 347,-257.791 347,-231.791 431,-231.791 431,-257.791"/>
<text text-anchor="middle" x="389" y="-242.341" font-family="Helvetica,sans-Serif" font-size="10.50" fill="white">type_oscillation</text>
</a>
</g>
<!-- module~foodie&#45;&gt;module~type_oscillation -->
<g id="edge10" class="edge"><title>module~foodie&#45;&gt;module~type_oscillation</title>
<path fill="none" stroke="black" stroke-dasharray="5,2" d="M288.997,-131.938C298.727,-152.212 319.558,-191.508 346,-217.791 348.872,-220.645 352.098,-223.345 355.458,-225.853"/>
<polygon fill="black" stroke="black" points="353.733,-228.914 363.963,-231.673 357.687,-223.137 353.733,-228.914"/>
</g>
<!-- program~integrate_lorenz -->
<g id="node4" class="node"><title>program~integrate_lorenz</title>
<a xlink:href="../program/integrate_lorenz.html" xlink:title="integrate_lorenz">
<polygon fill="#f0ad4e" stroke="#f0ad4e" points="567,-175.791 477,-175.791 477,-149.791 567,-149.791 567,-175.791"/>
<text text-anchor="middle" x="522" y="-160.341" font-family="Helvetica,sans-Serif" font-size="10.50" fill="white">integrate_lorenz</text>
</a>
</g>
<!-- module~foodie&#45;&gt;program~integrate_lorenz -->
<g id="edge12" class="edge"><title>module~foodie&#45;&gt;program~integrate_lorenz</title>
<path fill="none" stroke="black" stroke-dasharray="5,2" d="M292.906,-131.923C304.381,-146.412 324.483,-169.676 346,-184.791 363.097,-196.8 368.847,-198.278 389,-203.791"/>
<path fill="none" stroke="black" stroke-dasharray="5,2" d="M389,-203.791C397.734,-206.18 441.844,-191.712 476.905,-179.31"/>
<polygon fill="black" stroke="black" points="478.274,-182.538 486.517,-175.883 475.923,-175.945 478.274,-182.538"/>
</g>
<!-- module~type_euler_1d -->
<g id="node5" class="node"><title>module~type_euler_1d</title>
<a xlink:href="../module/type_euler_1d.html" xlink:title="type_euler_1D">
<polygon fill="#337ab7" stroke="#337ab7" points="430,-131.791 348,-131.791 348,-105.791 430,-105.791 430,-131.791"/>
<text text-anchor="middle" x="389" y="-116.341" font-family="Helvetica,sans-Serif" font-size="10.50" fill="white">type_euler_1D</text>
</a>
</g>
<!-- module~foodie&#45;&gt;module~type_euler_1d -->
<g id="edge14" class="edge"><title>module~foodie&#45;&gt;module~type_euler_1d</title>
<path fill="none" stroke="black" stroke-dasharray="5,2" d="M310.023,-118.791C318.401,-118.791 327.93,-118.791 337.4,-118.791"/>
<polygon fill="black" stroke="black" points="337.594,-122.291 347.594,-118.791 337.594,-115.291 337.594,-122.291"/>
</g>
<!-- module~type_burgers -->
<g id="node6" class="node"><title>module~type_burgers</title>
<a xlink:href="../module/type_burgers.html" xlink:title="type_burgers">
<polygon fill="#337ab7" stroke="#337ab7" points="427,-49.7905 351,-49.7905 351,-23.7905 427,-23.7905 427,-49.7905"/>
<text text-anchor="middle" x="389" y="-34.3405" font-family="Helvetica,sans-Serif" font-size="10.50" fill="white">type_burgers</text>
</a>
</g>
<!-- module~foodie&#45;&gt;module~type_burgers -->
<g id="edge16" class="edge"><title>module~foodie&#45;&gt;module~type_burgers</title>
<path fill="none" stroke="black" stroke-dasharray="5,2" d="M296.975,-105.453C309.399,-93.877 328.288,-76.9558 346,-63.7905 349.865,-60.918 354.038,-58.0421 358.212,-55.2949"/>
<polygon fill="black" stroke="black" points="360.142,-58.2148 366.682,-49.8793 356.372,-52.3171 360.142,-58.2148"/>
</g>
<!-- program~integrate_burgers -->
<g id="node7" class="node"><title>program~integrate_burgers</title>
<a xlink:href="../program/integrate_burgers.html" xlink:title="integrate_burgers">
<polygon fill="#f0ad4e" stroke="#f0ad4e" points="570,-38.7905 474,-38.7905 474,-12.7905 570,-12.7905 570,-38.7905"/>
<text text-anchor="middle" x="522" y="-23.3405" font-family="Helvetica,sans-Serif" font-size="10.50" fill="white">integrate_burgers</text>
</a>
</g>
<!-- module~foodie&#45;&gt;program~integrate_burgers -->
<g id="edge18" class="edge"><title>module~foodie&#45;&gt;program~integrate_burgers</title>
<path fill="none" stroke="black" stroke-dasharray="5,2" d="M286.435,-105.543C293.279,-82.2296 311.055,-34.4783 346,-14.7905 385.788,7.62623 438.966,0.183857 476.419,-9.93135"/>
<polygon fill="black" stroke="black" points="475.485,-13.3046 486.062,-12.6877 477.409,-6.57414 475.485,-13.3046"/>
</g>
<!-- program~integrate_oscillation -->
<g id="node8" class="node"><title>program~integrate_oscillation</title>
<a xlink:href="../program/integrate_oscillation.html" xlink:title="integrate_oscillation">
<polygon fill="#f0ad4e" stroke="#f0ad4e" points="575,-219.791 469,-219.791 469,-193.791 575,-193.791 575,-219.791"/>
<text text-anchor="middle" x="522" y="-204.341" font-family="Helvetica,sans-Serif" font-size="10.50" fill="white">integrate_oscillation</text>
</a>
</g>
<!-- module~foodie&#45;&gt;program~integrate_oscillation -->
<g id="edge20" class="edge"><title>module~foodie&#45;&gt;program~integrate_oscillation</title>
<path fill="none" stroke="black" stroke-dasharray="5,2" d="M389,-203.791C411.12,-209.841 436.09,-211.649 458.37,-211.596"/>
<polygon fill="black" stroke="black" points="458.45,-215.095 468.398,-211.449 458.348,-208.096 458.45,-215.095"/>
</g>
<!-- module~type_lorenz -->
<g id="node9" class="node"><title>module~type_lorenz</title>
<a xlink:href="../module/type_lorenz.html" xlink:title="type_lorenz">
<polygon fill="#337ab7" stroke="#337ab7" points="423,-175.791 355,-175.791 355,-149.791 423,-149.791 423,-175.791"/>
<text text-anchor="middle" x="389" y="-160.341" font-family="Helvetica,sans-Serif" font-size="10.50" fill="white">type_lorenz</text>
</a>
</g>
<!-- module~foodie&#45;&gt;module~type_lorenz -->
<g id="edge22" class="edge"><title>module~foodie&#45;&gt;module~type_lorenz</title>
<path fill="none" stroke="black" stroke-dasharray="5,2" d="M310.023,-130.007C321.558,-134.796 335.275,-140.489 348.014,-145.777"/>
<polygon fill="black" stroke="black" points="346.935,-149.119 357.513,-149.72 349.619,-142.654 346.935,-149.119"/>
</g>
<!-- program~integrate_euler_1d -->
<g id="node10" class="node"><title>program~integrate_euler_1d</title>
<a xlink:href="../program/integrate_euler_1d.html" xlink:title="integrate_euler_1D">
<polygon fill="#f0ad4e" stroke="#f0ad4e" points="574,-101.791 470,-101.791 470,-75.7905 574,-75.7905 574,-101.791"/>
<text text-anchor="middle" x="522" y="-86.3405" font-family="Helvetica,sans-Serif" font-size="10.50" fill="white">integrate_euler_1D</text>
</a>
</g>
<!-- module~foodie&#45;&gt;program~integrate_euler_1d -->
<g id="edge24" class="edge"><title>module~foodie&#45;&gt;program~integrate_euler_1d</title>
<path fill="none" stroke="black" stroke-dasharray="5,2" d="M310.122,-107.38C321.069,-103.29 333.942,-99.1182 346,-96.7905 383.287,-89.5925 425.804,-87.4947 459.708,-87.243"/>
<polygon fill="black" stroke="black" points="459.945,-90.7426 469.938,-87.2206 459.93,-83.7426 459.945,-90.7426"/>
</g>
<!-- module~type_oscillation&#45;&gt;program~integrate_oscillation -->
<g id="edge2" class="edge"><title>module~type_oscillation&#45;&gt;program~integrate_oscillation</title>
<path fill="none" stroke="black" stroke-dasharray="5,2" d="M431.814,-232.558C442.738,-229.437 454.644,-226.035 466.116,-222.757"/>
<polygon fill="black" stroke="black" points="467.398,-226.031 476.051,-219.919 465.475,-219.301 467.398,-226.031"/>
</g>
<!-- module~type_euler_1d&#45;&gt;program~integrate_euler_1d -->
<g id="edge4" class="edge"><title>module~type_euler_1d&#45;&gt;program~integrate_euler_1d</title>
<path fill="none" stroke="black" stroke-dasharray="5,2" d="M430.353,-109.463C439.732,-107.347 449.894,-105.055 459.922,-102.793"/>
<polygon fill="black" stroke="black" points="460.885,-106.164 469.87,-100.549 459.345,-99.3353 460.885,-106.164"/>
</g>
<!-- module~type_burgers&#45;&gt;program~integrate_burgers -->
<g id="edge6" class="edge"><title>module~type_burgers&#45;&gt;program~integrate_burgers</title>
<path fill="none" stroke="black" stroke-dasharray="5,2" d="M427.112,-33.6384C438.387,-32.7059 451.001,-31.6626 463.259,-30.6488"/>
<polygon fill="black" stroke="black" points="463.757,-34.1197 473.434,-29.8072 463.18,-27.1435 463.757,-34.1197"/>
</g>
<!-- module~type_lorenz&#45;&gt;program~integrate_lorenz -->
<g id="edge8" class="edge"><title>module~type_lorenz&#45;&gt;program~integrate_lorenz</title>
<path fill="none" stroke="black" stroke-dasharray="5,2" d="M423.251,-162.791C436.508,-162.791 452.022,-162.791 466.774,-162.791"/>
<polygon fill="black" stroke="black" points="466.827,-166.291 476.827,-162.791 466.827,-159.291 466.827,-166.291"/>
</g>
</g>
</svg>
