<?xml version="1.0" encoding="UTF-8" standalone="no"?>
<!DOCTYPE svg PUBLIC "-//W3C//DTD SVG 1.1//EN"
 "http://www.w3.org/Graphics/SVG/1.1/DTD/svg11.dtd">
<!-- Generated by graphviz version 2.38.0 (20140413.2041)
 -->
<!-- Title: module~~foodie~~UsedByGraph Pages: 1 -->
<svg width="326pt" height="234pt"
 viewBox="0.00 0.00 326.00 234.00" xmlns="http://www.w3.org/2000/svg" xmlns:xlink="http://www.w3.org/1999/xlink">
<g id="graph0" class="graph" transform="scale(1 1) rotate(0) translate(4 230)">
<title>module~~foodie~~UsedByGraph</title>
<polygon fill="white" stroke="none" points="-4,4 -4,-230 322,-230 322,4 -4,4"/>
<!-- module~foodie -->
<g id="node1" class="node"><title>module~foodie</title>
<polygon fill="none" stroke="black" points="54,-125 0,-125 0,-101 54,-101 54,-125"/>
<text text-anchor="middle" x="27" y="-110.6" font-family="Helvetica,sans-Serif" font-size="10.50">foodie</text>
</g>
<!-- module~type_burgers -->
<g id="node2" class="node"><title>module~type_burgers</title>
<g id="a_node2"><a xlink:href="../module/type_burgers.html" xlink:title="type_burgers">
<polygon fill="#337ab7" stroke="#337ab7" points="170.5,-226 94.5,-226 94.5,-202 170.5,-202 170.5,-226"/>
<text text-anchor="middle" x="132.5" y="-211.6" font-family="Helvetica,sans-Serif" font-size="10.50" fill="white">type_burgers</text>
</a>
</g>
</g>
<!-- module~foodie&#45;&gt;module~type_burgers -->
<g id="edge4" class="edge"><title>module~foodie&#45;&gt;module~type_burgers</title>
<path fill="none" stroke="black" stroke-dasharray="5,2" d="M36.2053,-125.19C47.198,-140.937 67.8974,-168.621 90,-188 93.2363,-190.838 96.8156,-193.57 100.476,-196.127"/>
<polygon fill="black" stroke="black" points="98.7575,-199.186 109.039,-201.744 102.597,-193.333 98.7575,-199.186"/>
</g>
<!-- program~integrate_lorenz -->
<g id="node3" class="node"><title>program~integrate_lorenz</title>
<g id="a_node3"><a xlink:href="../program/integrate_lorenz.html" xlink:title="integrate_lorenz">
<polygon fill="#f0ad4e" stroke="#f0ad4e" points="309.5,-146 219.5,-146 219.5,-122 309.5,-122 309.5,-146"/>
<text text-anchor="middle" x="264.5" y="-131.6" font-family="Helvetica,sans-Serif" font-size="10.50" fill="white">integrate_lorenz</text>
</a>
</g>
</g>
<!-- module~foodie&#45;&gt;program~integrate_lorenz -->
<g id="edge5" class="edge"><title>module~foodie&#45;&gt;program~integrate_lorenz</title>
<path fill="none" stroke="black" stroke-dasharray="5,2" d="M41.4454,-125.11C60.0526,-140.821 95.4561,-167.044 131.5,-174"/>
<path fill="none" stroke="black" stroke-dasharray="5,2" d="M133.5,-174C142.258,-175.69 185.959,-161.453 220.307,-149.499"/>
<polygon fill="black" stroke="black" points="221.884,-152.655 230.163,-146.044 219.568,-146.05 221.884,-152.655"/>
</g>
<!-- module~type_oscillation -->
<g id="node4" class="node"><title>module~type_oscillation</title>
<g id="a_node4"><a xlink:href="../module/type_oscillation.html" xlink:title="type_oscillation">
<polygon fill="#337ab7" stroke="#337ab7" points="175,-104 90,-104 90,-80 175,-80 175,-104"/>
<text text-anchor="middle" x="132.5" y="-89.6" font-family="Helvetica,sans-Serif" font-size="10.50" fill="white">type_oscillation</text>
</a>
</g>
</g>
<!-- module~foodie&#45;&gt;module~type_oscillation -->
<g id="edge6" class="edge"><title>module~foodie&#45;&gt;module~type_oscillation</title>
<path fill="none" stroke="black" stroke-dasharray="5,2" d="M54.1174,-107.701C61.9492,-106.112 70.8289,-104.31 79.7102,-102.508"/>
<polygon fill="black" stroke="black" points="80.578,-105.903 89.6823,-100.485 79.186,-99.0432 80.578,-105.903"/>
</g>
<!-- module~type_lorenz -->
<g id="node5" class="node"><title>module~type_lorenz</title>
<g id="a_node5"><a xlink:href="../module/type_lorenz.html" xlink:title="type_lorenz">
<polygon fill="#337ab7" stroke="#337ab7" points="166.5,-146 98.5,-146 98.5,-122 166.5,-122 166.5,-146"/>
<text text-anchor="middle" x="132.5" y="-131.6" font-family="Helvetica,sans-Serif" font-size="10.50" fill="white">type_lorenz</text>
</a>
</g>
</g>
<!-- module~foodie&#45;&gt;module~type_lorenz -->
<g id="edge7" class="edge"><title>module~foodie&#45;&gt;module~type_lorenz</title>
<path fill="none" stroke="black" stroke-dasharray="5,2" d="M54.1174,-118.299C64.4925,-120.404 76.7064,-122.882 88.3269,-125.24"/>
<polygon fill="black" stroke="black" points="87.8286,-128.71 98.3249,-127.269 89.2206,-121.85 87.8286,-128.71"/>
</g>
<!-- program~integrate_burgers -->
<g id="node6" class="node"><title>program~integrate_burgers</title>
<g id="a_node6"><a xlink:href="../program/integrate_burgers.html" xlink:title="integrate_burgers">
<polygon fill="#f0ad4e" stroke="#f0ad4e" points="313,-188 216,-188 216,-164 313,-164 313,-188"/>
<text text-anchor="middle" x="264.5" y="-173.6" font-family="Helvetica,sans-Serif" font-size="10.50" fill="white">integrate_burgers</text>
</a>
</g>
</g>
<!-- module~foodie&#45;&gt;program~integrate_burgers -->
<g id="edge8" class="edge"><title>module~foodie&#45;&gt;program~integrate_burgers</title>
<path fill="none" stroke="black" stroke-dasharray="5,2" d="M133.5,-174C156.852,-178.506 183.003,-179.642 205.693,-179.419"/>
<polygon fill="black" stroke="black" points="205.92,-182.915 215.853,-179.227 205.788,-175.916 205.92,-182.915"/>
</g>
<!-- program~integrate_oscillation -->
<g id="node7" class="node"><title>program~integrate_oscillation</title>
<g id="a_node7"><a xlink:href="../program/integrate_oscillation.html" xlink:title="integrate_oscillation">
<polygon fill="#f0ad4e" stroke="#f0ad4e" points="318,-84 211,-84 211,-60 318,-60 318,-84"/>
<text text-anchor="middle" x="264.5" y="-69.6" font-family="Helvetica,sans-Serif" font-size="10.50" fill="white">integrate_oscillation</text>
</a>
</g>
</g>
<!-- module~foodie&#45;&gt;program~integrate_oscillation -->
<g id="edge9" class="edge"><title>module~foodie&#45;&gt;program~integrate_oscillation</title>
<path fill="none" stroke="black" stroke-dasharray="5,2" d="M41.0294,-100.707C52.7925,-90.5164 71.1075,-76.7966 90,-71 125.492,-60.1101 167.025,-59.9378 200.555,-62.6874"/>
<polygon fill="black" stroke="black" points="200.408,-66.1886 210.688,-63.6258 201.054,-59.2185 200.408,-66.1886"/>
</g>
<!-- module~type_euler_1d -->
<g id="node8" class="node"><title>module~type_euler_1d</title>
<g id="a_node8"><a xlink:href="../module/type_euler_1d.html" xlink:title="type_euler_1D">
<polygon fill="#337ab7" stroke="#337ab7" points="173.5,-24 91.5,-24 91.5,-0 173.5,-0 173.5,-24"/>
<text text-anchor="middle" x="132.5" y="-9.6" font-family="Helvetica,sans-Serif" font-size="10.50" fill="white">type_euler_1D</text>
</a>
</g>
</g>
<!-- module~foodie&#45;&gt;module~type_euler_1d -->
<g id="edge10" class="edge"><title>module~foodie&#45;&gt;module~type_euler_1d</title>
<path fill="none" stroke="black" stroke-dasharray="5,2" d="M36.2053,-100.81C47.198,-85.0631 67.8974,-57.3794 90,-38 93.2363,-35.1624 96.8156,-32.4303 100.476,-29.873"/>
<polygon fill="black" stroke="black" points="102.597,-32.6673 109.039,-24.2556 98.7575,-26.8142 102.597,-32.6673"/>
</g>
<!-- module~type_burgers&#45;&gt;program~integrate_burgers -->
<g id="edge1" class="edge"><title>module~type_burgers&#45;&gt;program~integrate_burgers</title>
<path fill="none" stroke="black" stroke-dasharray="5,2" d="M170.753,-203.111C183.673,-199.334 198.394,-195.031 212.242,-190.983"/>
<polygon fill="black" stroke="black" points="213.518,-194.257 222.134,-188.092 211.554,-187.538 213.518,-194.257"/>
</g>
<!-- module~type_oscillation&#45;&gt;program~integrate_oscillation -->
<g id="edge2" class="edge"><title>module~type_oscillation&#45;&gt;program~integrate_oscillation</title>
<path fill="none" stroke="black" stroke-dasharray="5,2" d="M175.348,-85.5618C183.457,-84.3142 192.12,-82.9816 200.729,-81.657"/>
<polygon fill="black" stroke="black" points="201.425,-85.0913 210.776,-80.1113 200.36,-78.1727 201.425,-85.0913"/>
</g>
<!-- module~type_lorenz&#45;&gt;program~integrate_lorenz -->
<g id="edge3" class="edge"><title>module~type_lorenz&#45;&gt;program~integrate_lorenz</title>
<path fill="none" stroke="black" stroke-dasharray="5,2" d="M166.641,-134C179.474,-134 194.508,-134 208.852,-134"/>
<polygon fill="black" stroke="black" points="209.134,-137.5 219.133,-134 209.133,-130.5 209.134,-137.5"/>
</g>
</g>
</svg>
