<?xml version="1.0" encoding="UTF-8" standalone="no"?>
<!DOCTYPE svg PUBLIC "-//W3C//DTD SVG 1.1//EN"
 "http://www.w3.org/Graphics/SVG/1.1/DTD/svg11.dtd">
<!-- Generated by graphviz version 2.26.3 (20100126.1600)
 -->
<!-- Title: module~~foodie~~UsedByGraph Pages: 1 -->
<svg width="328pt" height="305pt"
 viewBox="0.00 0.00 328.00 304.93" xmlns="http://www.w3.org/2000/svg" xmlns:xlink="http://www.w3.org/1999/xlink">
<g id="graph1" class="graph" transform="scale(1 1) rotate(0) translate(4 300.927)">
<title>module~~foodie~~UsedByGraph</title>
<polygon fill="white" stroke="white" points="-4,5 -4,-300.927 325,-300.927 325,5 -4,5"/>
<!-- module~foodie -->
<g id="node1" class="node"><title>module~foodie</title>
<polygon fill="none" stroke="black" points="54,-152.927 2.13163e-14,-152.927 0,-126.927 54,-126.927 54,-152.927"/>
<text text-anchor="middle" x="27" y="-137.477" font-family="Helvetica,sans-Serif" font-size="10.50">foodie</text>
</g>
<!-- module~type_oscillation -->
<g id="node2" class="node"><title>module~type_oscillation</title>
<a xlink:href="../module/type_oscillation.html" xlink:title="type_oscillation">
<polygon fill="#337ab7" stroke="#337ab7" points="175,-296.927 91,-296.927 91,-270.927 175,-270.927 175,-296.927"/>
<text text-anchor="middle" x="133" y="-281.477" font-family="Helvetica,sans-Serif" font-size="10.50" fill="white">type_oscillation</text>
</a>
</g>
<!-- module~foodie&#45;&gt;module~type_oscillation -->
<g id="edge10" class="edge"><title>module~foodie&#45;&gt;module~type_oscillation</title>
<path fill="none" stroke="black" stroke-dasharray="5,2" d="M31.5664,-153.231C40.0704,-176.488 60.2144,-225.084 90,-256.927 92.7003,-259.814 95.7741,-262.518 99.0075,-265.015"/>
<polygon fill="black" stroke="black" points="97.0514,-267.918 107.252,-270.779 101.062,-262.181 97.0514,-267.918"/>
</g>
<!-- module~type_burgers -->
<g id="node3" class="node"><title>module~type_burgers</title>
<a xlink:href="../module/type_burgers.html" xlink:title="type_burgers">
<polygon fill="#337ab7" stroke="#337ab7" points="171,-214.927 95,-214.927 95,-188.927 171,-188.927 171,-214.927"/>
<text text-anchor="middle" x="133" y="-199.477" font-family="Helvetica,sans-Serif" font-size="10.50" fill="white">type_burgers</text>
</a>
</g>
<!-- module~foodie&#45;&gt;module~type_burgers -->
<g id="edge12" class="edge"><title>module~foodie&#45;&gt;module~type_burgers</title>
<path fill="none" stroke="black" stroke-dasharray="5,2" d="M49.4799,-153.076C64.6577,-161.954 84.9012,-173.794 101.657,-183.595"/>
<polygon fill="black" stroke="black" points="100.154,-186.77 110.553,-188.798 103.688,-180.728 100.154,-186.77"/>
</g>
<!-- program~integrate_oscillation -->
<g id="node4" class="node"><title>program~integrate_oscillation</title>
<a xlink:href="../program/integrate_oscillation.html" xlink:title="integrate_oscillation">
<polygon fill="#f0ad4e" stroke="#f0ad4e" points="319,-275.927 213,-275.927 213,-249.927 319,-249.927 319,-275.927"/>
<text text-anchor="middle" x="266" y="-260.477" font-family="Helvetica,sans-Serif" font-size="10.50" fill="white">integrate_oscillation</text>
</a>
</g>
<!-- module~foodie&#45;&gt;program~integrate_oscillation -->
<g id="edge14" class="edge"><title>module~foodie&#45;&gt;program~integrate_oscillation</title>
<path fill="none" stroke="black" stroke-dasharray="5,2" d="M33.0691,-153.04C42.4797,-171.842 62.4227,-206.147 90,-223.927 123.277,-245.383 166.647,-255.157 202.007,-259.555"/>
<polygon fill="black" stroke="black" points="201.898,-263.065 212.227,-260.707 202.681,-256.109 201.898,-263.065"/>
</g>
<!-- program~integrate_burgers -->
<g id="node5" class="node"><title>program~integrate_burgers</title>
<a xlink:href="../program/integrate_burgers.html" xlink:title="integrate_burgers">
<polygon fill="#f0ad4e" stroke="#f0ad4e" points="314,-193.927 218,-193.927 218,-167.927 314,-167.927 314,-193.927"/>
<text text-anchor="middle" x="266" y="-178.477" font-family="Helvetica,sans-Serif" font-size="10.50" fill="white">integrate_burgers</text>
</a>
</g>
<!-- module~foodie&#45;&gt;program~integrate_burgers -->
<g id="edge16" class="edge"><title>module~foodie&#45;&gt;program~integrate_burgers</title>
<path fill="none" stroke="black" stroke-dasharray="5,2" d="M54.4163,-144.631C91.5047,-150.993 158.62,-162.507 207.338,-170.864"/>
<polygon fill="black" stroke="black" points="206.989,-174.355 217.437,-172.596 208.173,-167.456 206.989,-174.355"/>
</g>
<!-- module~type_euler_1d -->
<g id="node6" class="node"><title>module~type_euler_1d</title>
<a xlink:href="../module/type_euler_1d.html" xlink:title="type_euler_1D">
<polygon fill="#337ab7" stroke="#337ab7" points="174,-132.927 92,-132.927 92,-106.927 174,-106.927 174,-132.927"/>
<text text-anchor="middle" x="133" y="-117.477" font-family="Helvetica,sans-Serif" font-size="10.50" fill="white">type_euler_1D</text>
</a>
</g>
<!-- module~foodie&#45;&gt;module~type_euler_1d -->
<g id="edge18" class="edge"><title>module~foodie&#45;&gt;module~type_euler_1d</title>
<path fill="none" stroke="black" stroke-dasharray="5,2" d="M54.0225,-134.829C62.4901,-133.231 72.1329,-131.412 81.7017,-129.606"/>
<polygon fill="black" stroke="black" points="82.4166,-133.033 91.5943,-127.74 81.1187,-126.155 82.4166,-133.033"/>
</g>
<!-- program~integrate_euler_1d -->
<g id="node7" class="node"><title>program~integrate_euler_1d</title>
<a xlink:href="../program/integrate_euler_1d.html" xlink:title="integrate_euler_1D">
<polygon fill="#f0ad4e" stroke="#f0ad4e" points="318,-102.927 214,-102.927 214,-76.9274 318,-76.9274 318,-102.927"/>
<text text-anchor="middle" x="266" y="-87.4774" font-family="Helvetica,sans-Serif" font-size="10.50" fill="white">integrate_euler_1D</text>
</a>
</g>
<!-- module~foodie&#45;&gt;program~integrate_euler_1d -->
<g id="edge20" class="edge"><title>module~foodie&#45;&gt;program~integrate_euler_1d</title>
<path fill="none" stroke="black" stroke-dasharray="5,2" d="M41.7976,-126.639C53.836,-116.725 71.7625,-103.905 90,-97.9274 126.35,-86.0137 169.188,-83.8311 203.5,-84.715"/>
<polygon fill="black" stroke="black" points="203.741,-88.2256 213.858,-85.0804 203.987,-81.2299 203.741,-88.2256"/>
</g>
<!-- module~type_lorenz -->
<g id="node8" class="node"><title>module~type_lorenz</title>
<a xlink:href="../module/type_lorenz.html" xlink:title="type_lorenz">
<polygon fill="#337ab7" stroke="#337ab7" points="167,-50.9274 99,-50.9274 99,-24.9274 167,-24.9274 167,-50.9274"/>
<text text-anchor="middle" x="133" y="-35.4774" font-family="Helvetica,sans-Serif" font-size="10.50" fill="white">type_lorenz</text>
</a>
</g>
<!-- module~foodie&#45;&gt;module~type_lorenz -->
<g id="edge22" class="edge"><title>module~foodie&#45;&gt;module~type_lorenz</title>
<path fill="none" stroke="black" stroke-dasharray="5,2" d="M36.1712,-126.649C47.5702,-110.756 68.1981,-83.9112 90,-64.9274 93.3821,-61.9825 97.1182,-59.1417 100.934,-56.48"/>
<polygon fill="black" stroke="black" points="102.879,-59.3896 109.308,-50.9682 99.031,-53.5425 102.879,-59.3896"/>
</g>
<!-- program~integrate_lorenz -->
<g id="node9" class="node"><title>program~integrate_lorenz</title>
<a xlink:href="../program/integrate_lorenz.html" xlink:title="integrate_lorenz">
<polygon fill="#f0ad4e" stroke="#f0ad4e" points="311,-39.9274 221,-39.9274 221,-13.9274 311,-13.9274 311,-39.9274"/>
<text text-anchor="middle" x="266" y="-24.4774" font-family="Helvetica,sans-Serif" font-size="10.50" fill="white">integrate_lorenz</text>
</a>
</g>
<!-- module~foodie&#45;&gt;program~integrate_lorenz -->
<g id="edge24" class="edge"><title>module~foodie&#45;&gt;program~integrate_lorenz</title>
<path fill="none" stroke="black" stroke-dasharray="5,2" d="M29.1122,-126.765C34.1615,-100.217 49.6606,-40.6796 90,-15.9274 129.644,8.39791 184.219,-0.0226532 222.041,-10.8899"/>
<polygon fill="black" stroke="black" points="221.171,-14.2835 231.757,-13.8402 223.205,-7.5855 221.171,-14.2835"/>
</g>
<!-- module~type_oscillation&#45;&gt;program~integrate_oscillation -->
<g id="edge2" class="edge"><title>module~type_oscillation&#45;&gt;program~integrate_oscillation</title>
<path fill="none" stroke="black" stroke-dasharray="5,2" d="M175.814,-277.167C184.201,-275.843 193.165,-274.428 202.068,-273.022"/>
<polygon fill="black" stroke="black" points="202.728,-276.461 212.06,-271.444 201.636,-269.547 202.728,-276.461"/>
</g>
<!-- module~type_burgers&#45;&gt;program~integrate_burgers -->
<g id="edge4" class="edge"><title>module~type_burgers&#45;&gt;program~integrate_burgers</title>
<path fill="none" stroke="black" stroke-dasharray="5,2" d="M171.112,-195.91C182.387,-194.13 195.001,-192.138 207.259,-190.202"/>
<polygon fill="black" stroke="black" points="208.102,-193.613 217.434,-188.596 207.011,-186.698 208.102,-193.613"/>
</g>
<!-- module~type_euler_1d&#45;&gt;program~integrate_euler_1d -->
<g id="edge6" class="edge"><title>module~type_euler_1d&#45;&gt;program~integrate_euler_1d</title>
<path fill="none" stroke="black" stroke-dasharray="5,2" d="M174.353,-110.6C183.732,-108.484 193.894,-106.192 203.922,-103.93"/>
<polygon fill="black" stroke="black" points="204.885,-107.301 213.87,-101.686 203.345,-100.472 204.885,-107.301"/>
</g>
<!-- module~type_lorenz&#45;&gt;program~integrate_lorenz -->
<g id="edge8" class="edge"><title>module~type_lorenz&#45;&gt;program~integrate_lorenz</title>
<path fill="none" stroke="black" stroke-dasharray="5,2" d="M167.251,-35.0946C180.508,-33.9982 196.022,-32.7151 210.774,-31.495"/>
<polygon fill="black" stroke="black" points="211.15,-34.9759 220.827,-30.6635 210.573,-27.9998 211.15,-34.9759"/>
</g>
</g>
</svg>
