<?xml version="1.0" encoding="UTF-8" standalone="no"?>
<!DOCTYPE svg PUBLIC "-//W3C//DTD SVG 1.1//EN"
 "http://www.w3.org/Graphics/SVG/1.1/DTD/svg11.dtd">
<!-- Generated by graphviz version 2.26.3 (20100126.1600)
 -->
<!-- Title: module~~type_oscillation~~UsesGraph Pages: 1 -->
<svg width="641pt" height="258pt"
 viewBox="0.00 0.00 641.00 257.80" xmlns="http://www.w3.org/2000/svg" xmlns:xlink="http://www.w3.org/1999/xlink">
<g id="graph1" class="graph" transform="scale(0.956716 0.956716) rotate(0) translate(4 265.467)">
<title>module~~type_oscillation~~UsesGraph</title>
<polygon fill="white" stroke="white" points="-4,5 -4,-265.467 667,-265.467 667,5 -4,5"/>
<!-- module~type_oscillation -->
<g id="node1" class="node"><title>module~type_oscillation</title>
<polygon fill="none" stroke="black" points="661,-216 577,-216 577,-190 661,-190 661,-216"/>
<text text-anchor="middle" x="619" y="-200.55" font-family="Helvetica,sans-Serif" font-size="10.50">type_oscillation</text>
</g>
<!-- IR_Precision -->
<g id="node2" class="node"><title>IR_Precision</title>
<polygon fill="#337ab7" stroke="#337ab7" points="73,-131 1,-131 1,-105 73,-105 73,-131"/>
<text text-anchor="middle" x="37" y="-115.55" font-family="Helvetica,sans-Serif" font-size="10.50" fill="white">IR_Precision</text>
</g>
<!-- IR_Precision&#45;&gt;module~type_oscillation -->
<g id="edge36" class="edge"><title>IR_Precision&#45;&gt;module~type_oscillation</title>
<path fill="none" stroke="black" stroke-dasharray="5,2" d="M152,-227C278.101,-268.662 318.366,-266.595 450,-249 492.382,-243.335 539.195,-230.014 572.783,-219.158"/>
<polygon fill="black" stroke="black" points="573.918,-222.469 582.327,-216.024 571.734,-215.818 573.918,-222.469"/>
</g>
<!-- module~foodie_integrator_low_storage_runge_kutta -->
<g id="node4" class="node"><title>module~foodie_integrator_low_storage_runge_kutta</title>
<a xlink:href="../module/foodie_integrator_low_storage_runge_kutta.html" xlink:title="foodie_integrator_low_storage_runge_kutta">
<polygon fill="#337ab7" stroke="#337ab7" points="450,-70 230,-70 230,-44 450,-44 450,-70"/>
<text text-anchor="middle" x="340" y="-54.55" font-family="Helvetica,sans-Serif" font-size="10.50" fill="white">foodie_integrator_low_storage_runge_kutta</text>
</a>
</g>
<!-- IR_Precision&#45;&gt;module~foodie_integrator_low_storage_runge_kutta -->
<g id="edge4" class="edge"><title>IR_Precision&#45;&gt;module~foodie_integrator_low_storage_runge_kutta</title>
<path fill="none" stroke="black" stroke-dasharray="5,2" d="M152,-57C173.444,-50.3174 196.944,-47.2276 219.845,-46.2818"/>
<polygon fill="black" stroke="black" points="220.066,-49.7771 229.964,-45.9981 219.87,-42.7798 220.066,-49.7771"/>
</g>
<!-- module~foodie_integrator_tvd_runge_kutta -->
<g id="node5" class="node"><title>module~foodie_integrator_tvd_runge_kutta</title>
<a xlink:href="../module/foodie_integrator_tvd_runge_kutta.html" xlink:title="foodie_integrator_tvd_runge_kutta">
<polygon fill="#337ab7" stroke="#337ab7" points="428,-26 252,-26 252,-1.24345e-14 428,-3.55271e-15 428,-26"/>
<text text-anchor="middle" x="340" y="-10.55" font-family="Helvetica,sans-Serif" font-size="10.50" fill="white">foodie_integrator_tvd_runge_kutta</text>
</a>
</g>
<!-- IR_Precision&#45;&gt;module~foodie_integrator_tvd_runge_kutta -->
<g id="edge8" class="edge"><title>IR_Precision&#45;&gt;module~foodie_integrator_tvd_runge_kutta</title>
<path fill="none" stroke="black" stroke-dasharray="5,2" d="M56.3661,-104.822C78.4618,-90.4969 116.183,-68.1619 152,-57"/>
<path fill="none" stroke="black" stroke-dasharray="5,2" d="M152,-57C186.388,-46.2835 194.981,-43.4272 230,-35 239.901,-32.6174 250.346,-30.2903 260.701,-28.0954"/>
<polygon fill="black" stroke="black" points="261.506,-31.503 270.58,-26.034 260.076,-24.6506 261.506,-31.503"/>
</g>
<!-- module~type_integrand -->
<g id="node6" class="node"><title>module~type_integrand</title>
<a xlink:href="../module/type_integrand.html" xlink:title="type_integrand">
<polygon fill="#337ab7" stroke="#337ab7" points="194,-131 110,-131 110,-105 194,-105 194,-131"/>
<text text-anchor="middle" x="152" y="-115.55" font-family="Helvetica,sans-Serif" font-size="10.50" fill="white">type_integrand</text>
</a>
</g>
<!-- IR_Precision&#45;&gt;module~type_integrand -->
<g id="edge10" class="edge"><title>IR_Precision&#45;&gt;module~type_integrand</title>
<path fill="none" stroke="black" stroke-dasharray="5,2" d="M73.7029,-118C81.9237,-118 90.8,-118 99.521,-118"/>
<polygon fill="black" stroke="black" points="99.6389,-121.5 109.639,-118 99.6388,-114.5 99.6389,-121.5"/>
</g>
<!-- module~foodie_integrator_adams_bashforth -->
<g id="node7" class="node"><title>module~foodie_integrator_adams_bashforth</title>
<a xlink:href="../module/foodie_integrator_adams_bashforth.html" xlink:title="foodie_integrator_adams_bashforth">
<polygon fill="#337ab7" stroke="#337ab7" points="431,-240 249,-240 249,-214 431,-214 431,-240"/>
<text text-anchor="middle" x="340" y="-224.55" font-family="Helvetica,sans-Serif" font-size="10.50" fill="white">foodie_integrator_adams_bashforth</text>
</a>
</g>
<!-- IR_Precision&#45;&gt;module~foodie_integrator_adams_bashforth -->
<g id="edge14" class="edge"><title>IR_Precision&#45;&gt;module~foodie_integrator_adams_bashforth</title>
<path fill="none" stroke="black" stroke-dasharray="5,2" d="M152,-227C179.05,-235.937 209.508,-238.78 237.906,-238.645"/>
<polygon fill="black" stroke="black" points="238.327,-242.139 248.266,-238.467 238.207,-235.14 238.327,-242.139"/>
</g>
<!-- module~foodie_integrator_euler_explicit -->
<g id="node8" class="node"><title>module~foodie_integrator_euler_explicit</title>
<a xlink:href="../module/foodie_integrator_euler_explicit.html" xlink:title="foodie_integrator_euler_explicit">
<polygon fill="#337ab7" stroke="#337ab7" points="421,-196 259,-196 259,-170 421,-170 421,-196"/>
<text text-anchor="middle" x="340" y="-180.55" font-family="Helvetica,sans-Serif" font-size="10.50" fill="white">foodie_integrator_euler_explicit</text>
</a>
</g>
<!-- IR_Precision&#45;&gt;module~foodie_integrator_euler_explicit -->
<g id="edge18" class="edge"><title>IR_Precision&#45;&gt;module~foodie_integrator_euler_explicit</title>
<path fill="none" stroke="black" stroke-dasharray="5,2" d="M152,-227C186.201,-238.3 194.981,-213.427 230,-205 239.901,-202.617 250.346,-200.29 260.701,-198.095"/>
<polygon fill="black" stroke="black" points="261.506,-201.503 270.58,-196.034 260.076,-194.651 261.506,-201.503"/>
</g>
<!-- module~foodie_integrator_leapfrog -->
<g id="node9" class="node"><title>module~foodie_integrator_leapfrog</title>
<a xlink:href="../module/foodie_integrator_leapfrog.html" xlink:title="foodie_integrator_leapfrog">
<polygon fill="#337ab7" stroke="#337ab7" points="409,-152 271,-152 271,-126 409,-126 409,-152"/>
<text text-anchor="middle" x="340" y="-136.55" font-family="Helvetica,sans-Serif" font-size="10.50" fill="white">foodie_integrator_leapfrog</text>
</a>
</g>
<!-- IR_Precision&#45;&gt;module~foodie_integrator_leapfrog -->
<g id="edge22" class="edge"><title>IR_Precision&#45;&gt;module~foodie_integrator_leapfrog</title>
<path fill="none" stroke="black" stroke-dasharray="5,2" d="M45.0521,-131.137C61.4134,-156.294 101.328,-210.258 152,-227"/>
<path fill="none" stroke="black" stroke-dasharray="5,2" d="M152,-227C195.119,-241.246 189.106,-180.745 230,-161 239.601,-156.364 250.125,-152.705 260.74,-149.817"/>
<polygon fill="black" stroke="black" points="261.639,-153.2 270.489,-147.376 259.938,-146.41 261.639,-153.2"/>
</g>
<!-- module~foodie -->
<g id="node3" class="node"><title>module~foodie</title>
<a xlink:href="../module/foodie.html" xlink:title="foodie">
<polygon fill="#337ab7" stroke="#337ab7" points="540,-152 486,-152 486,-126 540,-126 540,-152"/>
<text text-anchor="middle" x="513" y="-136.55" font-family="Helvetica,sans-Serif" font-size="10.50" fill="white">foodie</text>
</a>
</g>
<!-- module~foodie&#45;&gt;module~type_oscillation -->
<g id="edge38" class="edge"><title>module~foodie&#45;&gt;module~type_oscillation</title>
<path fill="none" stroke="black" stroke-dasharray="5,2" d="M534.706,-152.106C550.283,-161.511 571.479,-174.308 588.719,-184.717"/>
<polygon fill="black" stroke="black" points="586.953,-187.739 597.323,-189.912 590.571,-181.747 586.953,-187.739"/>
</g>
<!-- module~foodie_integrator_low_storage_runge_kutta&#45;&gt;module~foodie -->
<g id="edge24" class="edge"><title>module~foodie_integrator_low_storage_runge_kutta&#45;&gt;module~foodie</title>
<path fill="none" stroke="black" stroke-dasharray="5,2" d="M414.258,-70.0744C426.568,-73.6804 438.92,-78.2428 450,-84 466.699,-92.6765 482.637,-106.665 494.305,-118.363"/>
<polygon fill="black" stroke="black" points="491.861,-120.871 501.321,-125.641 496.9,-116.012 491.861,-120.871"/>
</g>
<!-- module~foodie_integrator_tvd_runge_kutta&#45;&gt;module~foodie -->
<g id="edge26" class="edge"><title>module~foodie_integrator_tvd_runge_kutta&#45;&gt;module~foodie</title>
<path fill="none" stroke="black" stroke-dasharray="5,2" d="M428.607,-23.7841C436.199,-26.7328 443.463,-30.4141 450,-35 478.428,-54.9437 496.335,-92.1989 505.503,-116.283"/>
<polygon fill="black" stroke="black" points="502.218,-117.49 508.903,-125.709 508.803,-115.115 502.218,-117.49"/>
</g>
<!-- module~type_integrand&#45;&gt;module~foodie -->
<g id="edge28" class="edge"><title>module~type_integrand&#45;&gt;module~foodie</title>
<path fill="none" stroke="black" stroke-dasharray="5,2" d="M194.32,-113.353C252.43,-107.993 359.971,-101.733 450,-117 458.702,-118.476 467.805,-121.022 476.298,-123.87"/>
<polygon fill="black" stroke="black" points="475.335,-127.242 485.929,-127.307 477.687,-120.649 475.335,-127.242"/>
</g>
<!-- module~type_integrand&#45;&gt;module~foodie_integrator_low_storage_runge_kutta -->
<g id="edge2" class="edge"><title>module~type_integrand&#45;&gt;module~foodie_integrator_low_storage_runge_kutta</title>
<path fill="none" stroke="black" stroke-dasharray="5,2" d="M178.986,-104.881C193.804,-98.0246 212.646,-89.8642 230,-84 242.47,-79.7861 255.939,-75.9299 269.033,-72.5324"/>
<polygon fill="black" stroke="black" points="270.112,-75.8696 278.95,-70.0254 268.397,-69.0831 270.112,-75.8696"/>
</g>
<!-- module~type_integrand&#45;&gt;module~foodie_integrator_tvd_runge_kutta -->
<g id="edge6" class="edge"><title>module~type_integrand&#45;&gt;module~foodie_integrator_tvd_runge_kutta</title>
<path fill="none" stroke="black" stroke-dasharray="5,2" d="M164.061,-104.749C184.917,-81.8955 225.894,-37.28 230,-35 233.783,-32.8992 237.738,-30.9974 241.807,-29.2757"/>
<polygon fill="black" stroke="black" points="243.388,-32.418 251.479,-25.5769 240.888,-25.8798 243.388,-32.418"/>
</g>
<!-- module~type_integrand&#45;&gt;module~foodie_integrator_adams_bashforth -->
<g id="edge12" class="edge"><title>module~type_integrand&#45;&gt;module~foodie_integrator_adams_bashforth</title>
<path fill="none" stroke="black" stroke-dasharray="5,2" d="M159.747,-131.018C172.039,-150.447 197.935,-186.699 230,-205 233.28,-206.872 236.694,-208.587 240.203,-210.157"/>
<polygon fill="black" stroke="black" points="239.104,-213.488 249.687,-213.986 241.724,-206.997 239.104,-213.488"/>
</g>
<!-- module~type_integrand&#45;&gt;module~foodie_integrator_euler_explicit -->
<g id="edge16" class="edge"><title>module~type_integrand&#45;&gt;module~foodie_integrator_euler_explicit</title>
<path fill="none" stroke="black" stroke-dasharray="5,2" d="M171.717,-131.098C187.022,-140.702 209.088,-153.352 230,-161 236.39,-163.337 243.085,-165.446 249.882,-167.345"/>
<polygon fill="black" stroke="black" points="249.329,-170.819 259.891,-169.981 251.112,-164.05 249.329,-170.819"/>
</g>
<!-- module~type_integrand&#45;&gt;module~foodie_integrator_leapfrog -->
<g id="edge20" class="edge"><title>module~type_integrand&#45;&gt;module~foodie_integrator_leapfrog</title>
<path fill="none" stroke="black" stroke-dasharray="5,2" d="M194.191,-122.713C213.712,-124.893 237.568,-127.558 260.284,-130.096"/>
<polygon fill="black" stroke="black" points="259.95,-133.58 270.276,-131.212 260.727,-126.623 259.95,-133.58"/>
</g>
<!-- module~foodie_integrator_adams_bashforth&#45;&gt;module~foodie -->
<g id="edge30" class="edge"><title>module~foodie_integrator_adams_bashforth&#45;&gt;module~foodie</title>
<path fill="none" stroke="black" stroke-dasharray="5,2" d="M429.627,-213.972C436.717,-211.482 443.601,-208.521 450,-205 469.606,-194.212 486.759,-175.231 498.195,-160.385"/>
<polygon fill="black" stroke="black" points="501.107,-162.335 504.244,-152.215 495.481,-158.17 501.107,-162.335"/>
</g>
<!-- module~foodie_integrator_euler_explicit&#45;&gt;module~foodie -->
<g id="edge32" class="edge"><title>module~foodie_integrator_euler_explicit&#45;&gt;module~foodie</title>
<path fill="none" stroke="black" stroke-dasharray="5,2" d="M412.523,-169.98C425.089,-167.302 437.976,-164.285 450,-161 458.688,-158.626 467.91,-155.666 476.539,-152.693"/>
<polygon fill="black" stroke="black" points="477.706,-155.993 485.97,-149.363 475.375,-149.392 477.706,-155.993"/>
</g>
<!-- module~foodie_integrator_leapfrog&#45;&gt;module~foodie -->
<g id="edge34" class="edge"><title>module~foodie_integrator_leapfrog&#45;&gt;module~foodie</title>
<path fill="none" stroke="black" stroke-dasharray="5,2" d="M409.867,-139C432.338,-139 456.366,-139 475.571,-139"/>
<polygon fill="black" stroke="black" points="475.704,-142.5 485.704,-139 475.704,-135.5 475.704,-142.5"/>
</g>
</g>
</svg>
