<?xml version="1.0" encoding="UTF-8" standalone="no"?>
<!DOCTYPE svg PUBLIC "-//W3C//DTD SVG 1.1//EN"
 "http://www.w3.org/Graphics/SVG/1.1/DTD/svg11.dtd">
<!-- Generated by graphviz version 2.26.3 (20100126.1600)
 -->
<!-- Title: module~~foodie_integrator_low_storage_runge_kutta~~UsedByGraph Pages: 1 -->
<svg width="584pt" height="268pt"
 viewBox="0.00 0.00 584.00 268.01" xmlns="http://www.w3.org/2000/svg" xmlns:xlink="http://www.w3.org/1999/xlink">
<g id="graph1" class="graph" transform="scale(1 1) rotate(0) translate(4 264.012)">
<title>module~~foodie_integrator_low_storage_runge_kutta~~UsedByGraph</title>
<polygon fill="white" stroke="white" points="-4,5 -4,-264.012 581,-264.012 581,5 -4,5"/>
<!-- module~foodie_integrator_low_storage_runge_kutta -->
<g id="node1" class="node"><title>module~foodie_integrator_low_storage_runge_kutta</title>
<polygon fill="none" stroke="black" points="220,-137.012 8.52651e-14,-137.012 0,-111.012 220,-111.012 220,-137.012"/>
<text text-anchor="middle" x="110" y="-121.562" font-family="Helvetica,sans-Serif" font-size="10.50">foodie_integrator_low_storage_runge_kutta</text>
</g>
<!-- module~foodie -->
<g id="node2" class="node"><title>module~foodie</title>
<a xlink:href="../module/foodie.html" xlink:title="foodie">
<polygon fill="#337ab7" stroke="#337ab7" points="310,-137.012 256,-137.012 256,-111.012 310,-111.012 310,-137.012"/>
<text text-anchor="middle" x="283" y="-121.562" font-family="Helvetica,sans-Serif" font-size="10.50" fill="white">foodie</text>
</a>
</g>
<!-- module~foodie_integrator_low_storage_runge_kutta&#45;&gt;module~foodie -->
<g id="edge26" class="edge"><title>module~foodie_integrator_low_storage_runge_kutta&#45;&gt;module~foodie</title>
<path fill="none" stroke="black" stroke-dasharray="5,2" d="M220.054,-124.012C229.125,-124.012 237.822,-124.012 245.703,-124.012"/>
<polygon fill="black" stroke="black" points="245.902,-127.512 255.902,-124.012 245.902,-120.512 245.902,-127.512"/>
</g>
<!-- module~type_euler_1d -->
<g id="node3" class="node"><title>module~type_euler_1d</title>
<a xlink:href="../module/type_euler_1d.html" xlink:title="type_euler_1D">
<polygon fill="#337ab7" stroke="#337ab7" points="430,-260.012 348,-260.012 348,-234.012 430,-234.012 430,-260.012"/>
<text text-anchor="middle" x="389" y="-244.562" font-family="Helvetica,sans-Serif" font-size="10.50" fill="white">type_euler_1D</text>
</a>
</g>
<!-- module~foodie&#45;&gt;module~type_euler_1d -->
<g id="edge10" class="edge"><title>module~foodie&#45;&gt;module~type_euler_1d</title>
<path fill="none" stroke="black" stroke-dasharray="5,2" d="M289.254,-137.073C299.178,-156.808 320.089,-194.616 346,-220.012 348.892,-222.846 352.131,-225.533 355.498,-228.034"/>
<polygon fill="black" stroke="black" points="353.779,-231.098 364.012,-233.844 357.726,-225.316 353.779,-231.098"/>
</g>
<!-- module~type_burgers -->
<g id="node4" class="node"><title>module~type_burgers</title>
<a xlink:href="../module/type_burgers.html" xlink:title="type_burgers">
<polygon fill="#337ab7" stroke="#337ab7" points="427,-178.012 351,-178.012 351,-152.012 427,-152.012 427,-178.012"/>
<text text-anchor="middle" x="389" y="-162.562" font-family="Helvetica,sans-Serif" font-size="10.50" fill="white">type_burgers</text>
</a>
</g>
<!-- module~foodie&#45;&gt;module~type_burgers -->
<g id="edge12" class="edge"><title>module~foodie&#45;&gt;module~type_burgers</title>
<path fill="none" stroke="black" stroke-dasharray="5,2" d="M310.023,-134.464C320.864,-138.658 333.632,-143.596 345.705,-148.266"/>
<polygon fill="black" stroke="black" points="344.598,-151.59 355.188,-151.934 347.124,-145.062 344.598,-151.59"/>
</g>
<!-- program~integrate_burgers -->
<g id="node5" class="node"><title>program~integrate_burgers</title>
<a xlink:href="../program/integrate_burgers.html" xlink:title="integrate_burgers">
<polygon fill="#f0ad4e" stroke="#f0ad4e" points="570,-140.012 474,-140.012 474,-114.012 570,-114.012 570,-140.012"/>
<text text-anchor="middle" x="522" y="-124.562" font-family="Helvetica,sans-Serif" font-size="10.50" fill="white">integrate_burgers</text>
</a>
</g>
<!-- module~foodie&#45;&gt;program~integrate_burgers -->
<g id="edge14" class="edge"><title>module~foodie&#45;&gt;program~integrate_burgers</title>
<path fill="none" stroke="black" stroke-dasharray="5,2" d="M389,-124.012C413.283,-122.286 440.116,-122.49 463.283,-123.327"/>
<polygon fill="black" stroke="black" points="463.172,-126.826 473.307,-123.736 463.458,-119.831 463.172,-126.826"/>
</g>
<!-- program~integrate_oscillation -->
<g id="node6" class="node"><title>program~integrate_oscillation</title>
<a xlink:href="../program/integrate_oscillation.html" xlink:title="integrate_oscillation">
<polygon fill="#f0ad4e" stroke="#f0ad4e" points="575,-96.012 469,-96.012 469,-70.012 575,-70.012 575,-96.012"/>
<text text-anchor="middle" x="522" y="-80.562" font-family="Helvetica,sans-Serif" font-size="10.50" fill="white">integrate_oscillation</text>
</a>
</g>
<!-- module~foodie&#45;&gt;program~integrate_oscillation -->
<g id="edge16" class="edge"><title>module~foodie&#45;&gt;program~integrate_oscillation</title>
<path fill="none" stroke="black" stroke-dasharray="5,2" d="M310.049,-125.067C331.491,-125.649 362.2,-125.917 389,-124.012"/>
<path fill="none" stroke="black" stroke-dasharray="5,2" d="M389,-124.012C406.146,-122.793 445.317,-110.265 476.733,-99.3741"/>
<polygon fill="black" stroke="black" points="477.918,-102.668 486.201,-96.0612 475.607,-96.0603 477.918,-102.668"/>
</g>
<!-- module~type_lorenz -->
<g id="node7" class="node"><title>module~type_lorenz</title>
<a xlink:href="../module/type_lorenz.html" xlink:title="type_lorenz">
<polygon fill="#337ab7" stroke="#337ab7" points="423,-52.012 355,-52.012 355,-26.012 423,-26.012 423,-52.012"/>
<text text-anchor="middle" x="389" y="-36.562" font-family="Helvetica,sans-Serif" font-size="10.50" fill="white">type_lorenz</text>
</a>
</g>
<!-- module~foodie&#45;&gt;module~type_lorenz -->
<g id="edge18" class="edge"><title>module~foodie&#45;&gt;module~type_lorenz</title>
<path fill="none" stroke="black" stroke-dasharray="5,2" d="M293.831,-110.984C305.648,-97.3327 325.615,-75.8487 346,-61.012 347.627,-59.8277 349.327,-58.6721 351.072,-57.5502"/>
<polygon fill="black" stroke="black" points="353.216,-60.3487 360.041,-52.2452 349.652,-54.3237 353.216,-60.3487"/>
</g>
<!-- program~integrate_euler_1d -->
<g id="node8" class="node"><title>program~integrate_euler_1d</title>
<a xlink:href="../program/integrate_euler_1d.html" xlink:title="integrate_euler_1D">
<polygon fill="#f0ad4e" stroke="#f0ad4e" points="574,-239.012 470,-239.012 470,-213.012 574,-213.012 574,-239.012"/>
<text text-anchor="middle" x="522" y="-223.562" font-family="Helvetica,sans-Serif" font-size="10.50" fill="white">integrate_euler_1D</text>
</a>
</g>
<!-- module~foodie&#45;&gt;program~integrate_euler_1d -->
<g id="edge20" class="edge"><title>module~foodie&#45;&gt;program~integrate_euler_1d</title>
<path fill="none" stroke="black" stroke-dasharray="5,2" d="M292.337,-137.056C303.443,-151.564 323.352,-174.588 346,-187.012 380.839,-206.123 424.413,-215.871 459.487,-220.842"/>
<polygon fill="black" stroke="black" points="459.237,-224.339 469.609,-222.178 460.154,-217.399 459.237,-224.339"/>
</g>
<!-- module~type_oscillation -->
<g id="node9" class="node"><title>module~type_oscillation</title>
<a xlink:href="../module/type_oscillation.html" xlink:title="type_oscillation">
<polygon fill="#337ab7" stroke="#337ab7" points="431,-96.012 347,-96.012 347,-70.012 431,-70.012 431,-96.012"/>
<text text-anchor="middle" x="389" y="-80.562" font-family="Helvetica,sans-Serif" font-size="10.50" fill="white">type_oscillation</text>
</a>
</g>
<!-- module~foodie&#45;&gt;module~type_oscillation -->
<g id="edge22" class="edge"><title>module~foodie&#45;&gt;module~type_oscillation</title>
<path fill="none" stroke="black" stroke-dasharray="5,2" d="M310.023,-113.56C320.864,-109.366 333.632,-104.428 345.705,-99.7582"/>
<polygon fill="black" stroke="black" points="347.124,-102.962 355.188,-96.0904 344.598,-96.4336 347.124,-102.962"/>
</g>
<!-- program~integrate_lorenz -->
<g id="node10" class="node"><title>program~integrate_lorenz</title>
<a xlink:href="../program/integrate_lorenz.html" xlink:title="integrate_lorenz">
<polygon fill="#f0ad4e" stroke="#f0ad4e" points="567,-32.012 477,-32.012 477,-6.01202 567,-6.01202 567,-32.012"/>
<text text-anchor="middle" x="522" y="-16.562" font-family="Helvetica,sans-Serif" font-size="10.50" fill="white">integrate_lorenz</text>
</a>
</g>
<!-- module~foodie&#45;&gt;program~integrate_lorenz -->
<g id="edge24" class="edge"><title>module~foodie&#45;&gt;program~integrate_lorenz</title>
<path fill="none" stroke="black" stroke-dasharray="5,2" d="M286.209,-110.773C292.779,-86.9512 310.255,-37.4468 346,-17.012 382.373,3.78159 430.27,1.72807 466.913,-4.66413"/>
<polygon fill="black" stroke="black" points="466.454,-8.13934 476.931,-6.56673 467.76,-1.26227 466.454,-8.13934"/>
</g>
<!-- module~type_euler_1d&#45;&gt;program~integrate_euler_1d -->
<g id="edge2" class="edge"><title>module~type_euler_1d&#45;&gt;program~integrate_euler_1d</title>
<path fill="none" stroke="black" stroke-dasharray="5,2" d="M430.353,-240.483C439.732,-239.002 449.894,-237.397 459.922,-235.814"/>
<polygon fill="black" stroke="black" points="460.539,-239.26 469.87,-234.243 459.447,-232.346 460.539,-239.26"/>
</g>
<!-- module~type_burgers&#45;&gt;program~integrate_burgers -->
<g id="edge4" class="edge"><title>module~type_burgers&#45;&gt;program~integrate_burgers</title>
<path fill="none" stroke="black" stroke-dasharray="5,2" d="M427.112,-154.123C439.346,-150.627 453.158,-146.681 466.38,-142.904"/>
<polygon fill="black" stroke="black" points="467.686,-146.171 476.339,-140.058 465.763,-139.44 467.686,-146.171"/>
</g>
<!-- module~type_lorenz&#45;&gt;program~integrate_lorenz -->
<g id="edge6" class="edge"><title>module~type_lorenz&#45;&gt;program~integrate_lorenz</title>
<path fill="none" stroke="black" stroke-dasharray="5,2" d="M423.251,-33.8615C436.508,-31.8679 452.022,-29.535 466.774,-27.3167"/>
<polygon fill="black" stroke="black" points="467.459,-30.7531 476.827,-25.8049 466.418,-23.8309 467.459,-30.7531"/>
</g>
<!-- module~type_oscillation&#45;&gt;program~integrate_oscillation -->
<g id="edge8" class="edge"><title>module~type_oscillation&#45;&gt;program~integrate_oscillation</title>
<path fill="none" stroke="black" stroke-dasharray="5,2" d="M431.814,-83.012C440.11,-83.012 448.972,-83.012 457.781,-83.012"/>
<polygon fill="black" stroke="black" points="458.06,-86.5121 468.06,-83.012 458.06,-79.5121 458.06,-86.5121"/>
</g>
</g>
</svg>
