<?xml version="1.0" encoding="UTF-8" standalone="no"?>
<!DOCTYPE svg PUBLIC "-//W3C//DTD SVG 1.1//EN"
 "http://www.w3.org/Graphics/SVG/1.1/DTD/svg11.dtd">
<!-- Generated by graphviz version 2.26.3 (20100126.1600)
 -->
<!-- Title: module~~foodie_integrator_leapfrog~~UsedByGraph Pages: 1 -->
<svg width="504pt" height="280pt"
 viewBox="0.00 0.00 504.00 280.00" xmlns="http://www.w3.org/2000/svg" xmlns:xlink="http://www.w3.org/1999/xlink">
<g id="graph1" class="graph" transform="scale(1 1) rotate(0) translate(4 276)">
<title>module~~foodie_integrator_leapfrog~~UsedByGraph</title>
<polygon fill="white" stroke="white" points="-4,5 -4,-276 501,-276 501,5 -4,5"/>
<!-- module~foodie_integrator_leapfrog -->
<g id="node1" class="node"><title>module~foodie_integrator_leapfrog</title>
<polygon fill="none" stroke="black" points="139,-149 1,-149 1,-123 139,-123 139,-149"/>
<text text-anchor="middle" x="70" y="-133.55" font-family="Helvetica,sans-Serif" font-size="10.50">foodie_integrator_leapfrog</text>
</g>
<!-- module~foodie -->
<g id="node2" class="node"><title>module~foodie</title>
<a xlink:href="../module/foodie.html" xlink:title="foodie">
<polygon fill="#337ab7" stroke="#337ab7" points="230,-149 176,-149 176,-123 230,-123 230,-149"/>
<text text-anchor="middle" x="203" y="-133.55" font-family="Helvetica,sans-Serif" font-size="10.50" fill="white">foodie</text>
</a>
</g>
<!-- module~foodie_integrator_leapfrog&#45;&gt;module~foodie -->
<g id="edge26" class="edge"><title>module~foodie_integrator_leapfrog&#45;&gt;module~foodie</title>
<path fill="none" stroke="black" stroke-dasharray="5,2" d="M139.616,-136C148.531,-136 157.371,-136 165.494,-136"/>
<polygon fill="black" stroke="black" points="165.704,-139.5 175.704,-136 165.704,-132.5 165.704,-139.5"/>
</g>
<!-- module~type_burgers -->
<g id="node3" class="node"><title>module~type_burgers</title>
<a xlink:href="../module/type_burgers.html" xlink:title="type_burgers">
<polygon fill="#337ab7" stroke="#337ab7" points="347,-272 271,-272 271,-246 347,-246 347,-272"/>
<text text-anchor="middle" x="309" y="-256.55" font-family="Helvetica,sans-Serif" font-size="10.50" fill="white">type_burgers</text>
</a>
</g>
<!-- module~foodie&#45;&gt;module~type_burgers -->
<g id="edge10" class="edge"><title>module~foodie&#45;&gt;module~type_burgers</title>
<path fill="none" stroke="black" stroke-dasharray="5,2" d="M209.254,-149.061C219.178,-168.796 240.089,-206.604 266,-232 268.892,-234.834 272.131,-237.521 275.498,-240.022"/>
<polygon fill="black" stroke="black" points="273.779,-243.086 284.012,-245.832 277.726,-237.304 273.779,-243.086"/>
</g>
<!-- program~integrate_burgers -->
<g id="node4" class="node"><title>program~integrate_burgers</title>
<a xlink:href="../program/integrate_burgers.html" xlink:title="integrate_burgers">
<polygon fill="#f0ad4e" stroke="#f0ad4e" points="490,-251 394,-251 394,-225 490,-225 490,-251"/>
<text text-anchor="middle" x="442" y="-235.55" font-family="Helvetica,sans-Serif" font-size="10.50" fill="white">integrate_burgers</text>
</a>
</g>
<!-- module~foodie&#45;&gt;program~integrate_burgers -->
<g id="edge12" class="edge"><title>module~foodie&#45;&gt;program~integrate_burgers</title>
<path fill="none" stroke="black" stroke-dasharray="5,2" d="M212.337,-149.044C223.443,-163.552 243.352,-186.576 266,-199 302.088,-218.796 347.548,-228.545 383.225,-233.346"/>
<polygon fill="black" stroke="black" points="383.13,-236.861 393.486,-234.628 383.997,-229.915 383.13,-236.861"/>
</g>
<!-- module~type_euler_1d -->
<g id="node5" class="node"><title>module~type_euler_1d</title>
<a xlink:href="../module/type_euler_1d.html" xlink:title="type_euler_1D">
<polygon fill="#337ab7" stroke="#337ab7" points="350,-190 268,-190 268,-164 350,-164 350,-190"/>
<text text-anchor="middle" x="309" y="-174.55" font-family="Helvetica,sans-Serif" font-size="10.50" fill="white">type_euler_1D</text>
</a>
</g>
<!-- module~foodie&#45;&gt;module~type_euler_1d -->
<g id="edge14" class="edge"><title>module~foodie&#45;&gt;module~type_euler_1d</title>
<path fill="none" stroke="black" stroke-dasharray="5,2" d="M230.023,-146.452C240.864,-150.646 253.632,-155.584 265.705,-160.254"/>
<polygon fill="black" stroke="black" points="264.598,-163.578 275.188,-163.922 267.124,-157.05 264.598,-163.578"/>
</g>
<!-- program~integrate_oscillation -->
<g id="node6" class="node"><title>program~integrate_oscillation</title>
<a xlink:href="../program/integrate_oscillation.html" xlink:title="integrate_oscillation">
<polygon fill="#f0ad4e" stroke="#f0ad4e" points="495,-108 389,-108 389,-82 495,-82 495,-108"/>
<text text-anchor="middle" x="442" y="-92.55" font-family="Helvetica,sans-Serif" font-size="10.50" fill="white">integrate_oscillation</text>
</a>
</g>
<!-- module~foodie&#45;&gt;program~integrate_oscillation -->
<g id="edge16" class="edge"><title>module~foodie&#45;&gt;program~integrate_oscillation</title>
<path fill="none" stroke="black" stroke-dasharray="5,2" d="M230.049,-137.055C251.491,-137.637 282.2,-137.905 309,-136"/>
<path fill="none" stroke="black" stroke-dasharray="5,2" d="M309,-136C326.146,-134.781 365.317,-122.253 396.733,-111.362"/>
<polygon fill="black" stroke="black" points="397.918,-114.655 406.201,-108.049 395.607,-108.048 397.918,-114.655"/>
</g>
<!-- program~integrate_euler_1d -->
<g id="node7" class="node"><title>program~integrate_euler_1d</title>
<a xlink:href="../program/integrate_euler_1d.html" xlink:title="integrate_euler_1D">
<polygon fill="#f0ad4e" stroke="#f0ad4e" points="494,-152 390,-152 390,-126 494,-126 494,-152"/>
<text text-anchor="middle" x="442" y="-136.55" font-family="Helvetica,sans-Serif" font-size="10.50" fill="white">integrate_euler_1D</text>
</a>
</g>
<!-- module~foodie&#45;&gt;program~integrate_euler_1d -->
<g id="edge18" class="edge"><title>module~foodie&#45;&gt;program~integrate_euler_1d</title>
<path fill="none" stroke="black" stroke-dasharray="5,2" d="M309,-136C332.075,-134.36 357.453,-134.463 379.8,-135.195"/>
<polygon fill="black" stroke="black" points="379.71,-138.694 389.835,-135.572 379.973,-131.699 379.71,-138.694"/>
</g>
<!-- program~integrate_lorenz -->
<g id="node8" class="node"><title>program~integrate_lorenz</title>
<a xlink:href="../program/integrate_lorenz.html" xlink:title="integrate_lorenz">
<polygon fill="#f0ad4e" stroke="#f0ad4e" points="487,-45 397,-45 397,-19 487,-19 487,-45"/>
<text text-anchor="middle" x="442" y="-29.55" font-family="Helvetica,sans-Serif" font-size="10.50" fill="white">integrate_lorenz</text>
</a>
</g>
<!-- module~foodie&#45;&gt;program~integrate_lorenz -->
<g id="edge20" class="edge"><title>module~foodie&#45;&gt;program~integrate_lorenz</title>
<path fill="none" stroke="black" stroke-dasharray="5,2" d="M212.362,-123C223.49,-108.533 243.42,-85.5457 266,-73 303.192,-52.336 350.37,-42.0595 386.516,-36.964"/>
<polygon fill="black" stroke="black" points="387.42,-40.3754 396.878,-35.6014 386.507,-33.4351 387.42,-40.3754"/>
</g>
<!-- module~type_lorenz -->
<g id="node9" class="node"><title>module~type_lorenz</title>
<a xlink:href="../module/type_lorenz.html" xlink:title="type_lorenz">
<polygon fill="#337ab7" stroke="#337ab7" points="343,-26 275,-26 275,-1.24345e-14 343,-3.55271e-15 343,-26"/>
<text text-anchor="middle" x="309" y="-10.55" font-family="Helvetica,sans-Serif" font-size="10.50" fill="white">type_lorenz</text>
</a>
</g>
<!-- module~foodie&#45;&gt;module~type_lorenz -->
<g id="edge22" class="edge"><title>module~foodie&#45;&gt;module~type_lorenz</title>
<path fill="none" stroke="black" stroke-dasharray="5,2" d="M209.254,-122.939C219.178,-103.204 240.089,-65.3964 266,-40 268.892,-37.1655 272.131,-34.4789 275.498,-31.9784"/>
<polygon fill="black" stroke="black" points="277.726,-34.6959 284.012,-26.1677 273.779,-28.9141 277.726,-34.6959"/>
</g>
<!-- module~type_oscillation -->
<g id="node10" class="node"><title>module~type_oscillation</title>
<a xlink:href="../module/type_oscillation.html" xlink:title="type_oscillation">
<polygon fill="#337ab7" stroke="#337ab7" points="351,-108 267,-108 267,-82 351,-82 351,-108"/>
<text text-anchor="middle" x="309" y="-92.55" font-family="Helvetica,sans-Serif" font-size="10.50" fill="white">type_oscillation</text>
</a>
</g>
<!-- module~foodie&#45;&gt;module~type_oscillation -->
<g id="edge24" class="edge"><title>module~foodie&#45;&gt;module~type_oscillation</title>
<path fill="none" stroke="black" stroke-dasharray="5,2" d="M230.023,-125.548C240.864,-121.354 253.632,-116.416 265.705,-111.746"/>
<polygon fill="black" stroke="black" points="267.124,-114.95 275.188,-108.078 264.598,-108.422 267.124,-114.95"/>
</g>
<!-- module~type_burgers&#45;&gt;program~integrate_burgers -->
<g id="edge2" class="edge"><title>module~type_burgers&#45;&gt;program~integrate_burgers</title>
<path fill="none" stroke="black" stroke-dasharray="5,2" d="M347.112,-252.982C358.387,-251.202 371.001,-249.21 383.259,-247.275"/>
<polygon fill="black" stroke="black" points="384.102,-250.685 393.434,-245.668 383.011,-243.771 384.102,-250.685"/>
</g>
<!-- module~type_euler_1d&#45;&gt;program~integrate_euler_1d -->
<g id="edge4" class="edge"><title>module~type_euler_1d&#45;&gt;program~integrate_euler_1d</title>
<path fill="none" stroke="black" stroke-dasharray="5,2" d="M350.353,-165.185C361.672,-161.951 374.131,-158.391 386.118,-154.966"/>
<polygon fill="black" stroke="black" points="387.386,-158.244 396.04,-152.131 385.463,-151.513 387.386,-158.244"/>
</g>
<!-- module~type_lorenz&#45;&gt;program~integrate_lorenz -->
<g id="edge6" class="edge"><title>module~type_lorenz&#45;&gt;program~integrate_lorenz</title>
<path fill="none" stroke="black" stroke-dasharray="5,2" d="M343.251,-17.893C356.508,-19.7869 372.022,-22.0032 386.774,-24.1105"/>
<polygon fill="black" stroke="black" points="386.433,-27.5973 396.827,-25.5468 387.423,-20.6676 386.433,-27.5973"/>
</g>
<!-- module~type_oscillation&#45;&gt;program~integrate_oscillation -->
<g id="edge8" class="edge"><title>module~type_oscillation&#45;&gt;program~integrate_oscillation</title>
<path fill="none" stroke="black" stroke-dasharray="5,2" d="M351.814,-95C360.11,-95 368.972,-95 377.781,-95"/>
<polygon fill="black" stroke="black" points="378.06,-98.5001 388.06,-95 378.06,-91.5001 378.06,-98.5001"/>
</g>
</g>
</svg>
