<?xml version="1.0" encoding="UTF-8" standalone="no"?>
<!DOCTYPE svg PUBLIC "-//W3C//DTD SVG 1.1//EN"
 "http://www.w3.org/Graphics/SVG/1.1/DTD/svg11.dtd">
<!-- Generated by graphviz version 2.26.3 (20100126.1600)
 -->
<!-- Title: module~~type_integrand~~UsedByGraph Pages: 1 -->
<svg width="641pt" height="244pt"
 viewBox="0.00 0.00 641.00 243.99" xmlns="http://www.w3.org/2000/svg" xmlns:xlink="http://www.w3.org/1999/xlink">
<g id="graph1" class="graph" transform="scale(0.910511 0.910511) rotate(0) translate(4 263.974)">
<title>module~~type_integrand~~UsedByGraph</title>
<polygon fill="white" stroke="white" points="-4,5 -4,-263.974 701,-263.974 701,5 -4,5"/>
<!-- module~type_integrand -->
<g id="node1" class="node"><title>module~type_integrand</title>
<polygon fill="none" stroke="black" points="84,-149 4.26326e-14,-149 0,-123 84,-123 84,-149"/>
<text text-anchor="middle" x="42" y="-133.55" font-family="Helvetica,sans-Serif" font-size="10.50">type_integrand</text>
</g>
<!-- module~foodie -->
<g id="node2" class="node"><title>module~foodie</title>
<a xlink:href="../module/foodie.html" xlink:title="foodie">
<polygon fill="#337ab7" stroke="#337ab7" points="430,-149 376,-149 376,-123 430,-123 430,-149"/>
<text text-anchor="middle" x="403" y="-133.55" font-family="Helvetica,sans-Serif" font-size="10.50" fill="white">foodie</text>
</a>
</g>
<!-- module~type_integrand&#45;&gt;module~foodie -->
<g id="edge34" class="edge"><title>module~type_integrand&#45;&gt;module~foodie</title>
<path fill="none" stroke="black" stroke-dasharray="5,2" d="M52.429,-149.265C65.9884,-165.32 91.3506,-191.506 120,-202 211.812,-235.631 250.106,-240.466 340,-202 360.939,-193.04 378.231,-173.325 389.367,-157.763"/>
<polygon fill="black" stroke="black" points="392.465,-159.43 395.193,-149.193 386.676,-155.495 392.465,-159.43"/>
</g>
<!-- module~foodie_integrator_tvd_runge_kutta -->
<g id="node3" class="node"><title>module~foodie_integrator_tvd_runge_kutta</title>
<a xlink:href="../module/foodie_integrator_tvd_runge_kutta.html" xlink:title="foodie_integrator_tvd_runge_kutta">
<polygon fill="#337ab7" stroke="#337ab7" points="318,-193 142,-193 142,-167 318,-167 318,-193"/>
<text text-anchor="middle" x="230" y="-177.55" font-family="Helvetica,sans-Serif" font-size="10.50" fill="white">foodie_integrator_tvd_runge_kutta</text>
</a>
</g>
<!-- module~type_integrand&#45;&gt;module~foodie_integrator_tvd_runge_kutta -->
<g id="edge36" class="edge"><title>module~type_integrand&#45;&gt;module~foodie_integrator_tvd_runge_kutta</title>
<path fill="none" stroke="black" stroke-dasharray="5,2" d="M84.349,-148.589C95.8672,-151.837 108.372,-155.202 120,-158 129.901,-160.383 140.346,-162.71 150.701,-164.905"/>
<polygon fill="black" stroke="black" points="150.076,-168.349 160.58,-166.966 151.506,-161.497 150.076,-168.349"/>
</g>
<!-- module~foodie_integrator_adams_bashforth -->
<g id="node4" class="node"><title>module~foodie_integrator_adams_bashforth</title>
<a xlink:href="../module/foodie_integrator_adams_bashforth.html" xlink:title="foodie_integrator_adams_bashforth">
<polygon fill="#337ab7" stroke="#337ab7" points="321,-149 139,-149 139,-123 321,-123 321,-149"/>
<text text-anchor="middle" x="230" y="-133.55" font-family="Helvetica,sans-Serif" font-size="10.50" fill="white">foodie_integrator_adams_bashforth</text>
</a>
</g>
<!-- module~type_integrand&#45;&gt;module~foodie_integrator_adams_bashforth -->
<g id="edge38" class="edge"><title>module~type_integrand&#45;&gt;module~foodie_integrator_adams_bashforth</title>
<path fill="none" stroke="black" stroke-dasharray="5,2" d="M84.1909,-136C97.423,-136 112.647,-136 128.158,-136"/>
<polygon fill="black" stroke="black" points="128.374,-139.5 138.374,-136 128.374,-132.5 128.374,-139.5"/>
</g>
<!-- module~foodie_integrator_low_storage_runge_kutta -->
<g id="node5" class="node"><title>module~foodie_integrator_low_storage_runge_kutta</title>
<a xlink:href="../module/foodie_integrator_low_storage_runge_kutta.html" xlink:title="foodie_integrator_low_storage_runge_kutta">
<polygon fill="#337ab7" stroke="#337ab7" points="340,-105 120,-105 120,-79 340,-79 340,-105"/>
<text text-anchor="middle" x="230" y="-89.55" font-family="Helvetica,sans-Serif" font-size="10.50" fill="white">foodie_integrator_low_storage_runge_kutta</text>
</a>
</g>
<!-- module~type_integrand&#45;&gt;module~foodie_integrator_low_storage_runge_kutta -->
<g id="edge40" class="edge"><title>module~type_integrand&#45;&gt;module~foodie_integrator_low_storage_runge_kutta</title>
<path fill="none" stroke="black" stroke-dasharray="5,2" d="M84.349,-123.411C95.8672,-120.163 108.372,-116.798 120,-114 129.901,-111.617 140.346,-109.29 150.701,-107.095"/>
<polygon fill="black" stroke="black" points="151.506,-110.503 160.58,-105.034 150.076,-103.651 151.506,-110.503"/>
</g>
<!-- module~foodie_integrator_euler_explicit -->
<g id="node6" class="node"><title>module~foodie_integrator_euler_explicit</title>
<a xlink:href="../module/foodie_integrator_euler_explicit.html" xlink:title="foodie_integrator_euler_explicit">
<polygon fill="#337ab7" stroke="#337ab7" points="311,-61 149,-61 149,-35 311,-35 311,-61"/>
<text text-anchor="middle" x="230" y="-45.55" font-family="Helvetica,sans-Serif" font-size="10.50" fill="white">foodie_integrator_euler_explicit</text>
</a>
</g>
<!-- module~type_integrand&#45;&gt;module~foodie_integrator_euler_explicit -->
<g id="edge42" class="edge"><title>module~type_integrand&#45;&gt;module~foodie_integrator_euler_explicit</title>
<path fill="none" stroke="black" stroke-dasharray="5,2" d="M53.5487,-122.83C67.6579,-107.623 93.0034,-83.0351 120,-70 126.068,-67.0699 132.506,-64.53 139.102,-62.3283"/>
<polygon fill="black" stroke="black" points="140.32,-65.6158 148.855,-59.3385 138.268,-58.9232 140.32,-65.6158"/>
</g>
<!-- program~integrate_euler_1d -->
<g id="node7" class="node"><title>program~integrate_euler_1d</title>
<a xlink:href="../program/integrate_euler_1d.html" xlink:title="integrate_euler_1D">
<polygon fill="#f0ad4e" stroke="#f0ad4e" points="694,-254 590,-254 590,-228 694,-228 694,-254"/>
<text text-anchor="middle" x="642" y="-238.55" font-family="Helvetica,sans-Serif" font-size="10.50" fill="white">integrate_euler_1D</text>
</a>
</g>
<!-- module~foodie&#45;&gt;program~integrate_euler_1d -->
<g id="edge10" class="edge"><title>module~foodie&#45;&gt;program~integrate_euler_1d</title>
<path fill="none" stroke="black" stroke-dasharray="5,2" d="M406.209,-149.239C412.779,-173.061 430.255,-222.565 466,-243 501.403,-263.239 547.724,-261.833 583.958,-255.85"/>
<polygon fill="black" stroke="black" points="584.675,-259.277 593.893,-254.055 583.43,-252.388 584.675,-259.277"/>
</g>
<!-- module~type_lorenz -->
<g id="node8" class="node"><title>module~type_lorenz</title>
<a xlink:href="../module/type_lorenz.html" xlink:title="type_lorenz">
<polygon fill="#337ab7" stroke="#337ab7" points="543,-190 475,-190 475,-164 543,-164 543,-190"/>
<text text-anchor="middle" x="509" y="-174.55" font-family="Helvetica,sans-Serif" font-size="10.50" fill="white">type_lorenz</text>
</a>
</g>
<!-- module~foodie&#45;&gt;module~type_lorenz -->
<g id="edge12" class="edge"><title>module~foodie&#45;&gt;module~type_lorenz</title>
<path fill="none" stroke="black" stroke-dasharray="5,2" d="M430.023,-146.452C440.864,-150.646 453.632,-155.584 465.705,-160.254"/>
<polygon fill="black" stroke="black" points="464.598,-163.578 475.188,-163.922 467.124,-157.05 464.598,-163.578"/>
</g>
<!-- program~integrate_lorenz -->
<g id="node9" class="node"><title>program~integrate_lorenz</title>
<a xlink:href="../program/integrate_lorenz.html" xlink:title="integrate_lorenz">
<polygon fill="#f0ad4e" stroke="#f0ad4e" points="687,-152 597,-152 597,-126 687,-126 687,-152"/>
<text text-anchor="middle" x="642" y="-136.55" font-family="Helvetica,sans-Serif" font-size="10.50" fill="white">integrate_lorenz</text>
</a>
</g>
<!-- module~foodie&#45;&gt;program~integrate_lorenz -->
<g id="edge14" class="edge"><title>module~foodie&#45;&gt;program~integrate_lorenz</title>
<path fill="none" stroke="black" stroke-dasharray="5,2" d="M509,-136C534.386,-134.196 562.56,-134.501 586.419,-135.433"/>
<polygon fill="black" stroke="black" points="586.56,-138.943 596.704,-135.884 586.866,-131.949 586.56,-138.943"/>
</g>
<!-- program~integrate_oscillation -->
<g id="node10" class="node"><title>program~integrate_oscillation</title>
<a xlink:href="../program/integrate_oscillation.html" xlink:title="integrate_oscillation">
<polygon fill="#f0ad4e" stroke="#f0ad4e" points="695,-108 589,-108 589,-82 695,-82 695,-108"/>
<text text-anchor="middle" x="642" y="-92.55" font-family="Helvetica,sans-Serif" font-size="10.50" fill="white">integrate_oscillation</text>
</a>
</g>
<!-- module~foodie&#45;&gt;program~integrate_oscillation -->
<g id="edge16" class="edge"><title>module~foodie&#45;&gt;program~integrate_oscillation</title>
<path fill="none" stroke="black" stroke-dasharray="5,2" d="M430.049,-137.055C451.491,-137.637 482.2,-137.905 509,-136"/>
<path fill="none" stroke="black" stroke-dasharray="5,2" d="M509,-136C526.146,-134.781 565.317,-122.253 596.733,-111.362"/>
<polygon fill="black" stroke="black" points="597.918,-114.655 606.201,-108.049 595.607,-108.048 597.918,-114.655"/>
</g>
<!-- module~type_oscillation -->
<g id="node11" class="node"><title>module~type_oscillation</title>
<a xlink:href="../module/type_oscillation.html" xlink:title="type_oscillation">
<polygon fill="#337ab7" stroke="#337ab7" points="551,-108 467,-108 467,-82 551,-82 551,-108"/>
<text text-anchor="middle" x="509" y="-92.55" font-family="Helvetica,sans-Serif" font-size="10.50" fill="white">type_oscillation</text>
</a>
</g>
<!-- module~foodie&#45;&gt;module~type_oscillation -->
<g id="edge18" class="edge"><title>module~foodie&#45;&gt;module~type_oscillation</title>
<path fill="none" stroke="black" stroke-dasharray="5,2" d="M430.023,-125.548C440.864,-121.354 453.632,-116.416 465.705,-111.746"/>
<polygon fill="black" stroke="black" points="467.124,-114.95 475.188,-108.078 464.598,-108.422 467.124,-114.95"/>
</g>
<!-- program~integrate_burgers -->
<g id="node12" class="node"><title>program~integrate_burgers</title>
<a xlink:href="../program/integrate_burgers.html" xlink:title="integrate_burgers">
<polygon fill="#f0ad4e" stroke="#f0ad4e" points="690,-45 594,-45 594,-19 690,-19 690,-45"/>
<text text-anchor="middle" x="642" y="-29.55" font-family="Helvetica,sans-Serif" font-size="10.50" fill="white">integrate_burgers</text>
</a>
</g>
<!-- module~foodie&#45;&gt;program~integrate_burgers -->
<g id="edge20" class="edge"><title>module~foodie&#45;&gt;program~integrate_burgers</title>
<path fill="none" stroke="black" stroke-dasharray="5,2" d="M412.362,-123C423.49,-108.533 443.42,-85.5457 466,-73 502.069,-52.9601 547.529,-42.6897 583.212,-37.44"/>
<polygon fill="black" stroke="black" points="584.045,-40.8584 593.474,-36.0275 583.091,-33.9237 584.045,-40.8584"/>
</g>
<!-- module~type_burgers -->
<g id="node13" class="node"><title>module~type_burgers</title>
<a xlink:href="../module/type_burgers.html" xlink:title="type_burgers">
<polygon fill="#337ab7" stroke="#337ab7" points="547,-26 471,-26 471,-1.24345e-14 547,-3.55271e-15 547,-26"/>
<text text-anchor="middle" x="509" y="-10.55" font-family="Helvetica,sans-Serif" font-size="10.50" fill="white">type_burgers</text>
</a>
</g>
<!-- module~foodie&#45;&gt;module~type_burgers -->
<g id="edge22" class="edge"><title>module~foodie&#45;&gt;module~type_burgers</title>
<path fill="none" stroke="black" stroke-dasharray="5,2" d="M409.254,-122.939C419.178,-103.204 440.089,-65.3964 466,-40 468.892,-37.1655 472.131,-34.4789 475.498,-31.9784"/>
<polygon fill="black" stroke="black" points="477.726,-34.6959 484.012,-26.1677 473.779,-28.9141 477.726,-34.6959"/>
</g>
<!-- module~type_euler_1d -->
<g id="node14" class="node"><title>module~type_euler_1d</title>
<a xlink:href="../module/type_euler_1d.html" xlink:title="type_euler_1D">
<polygon fill="#337ab7" stroke="#337ab7" points="550,-234 468,-234 468,-208 550,-208 550,-234"/>
<text text-anchor="middle" x="509" y="-218.55" font-family="Helvetica,sans-Serif" font-size="10.50" fill="white">type_euler_1D</text>
</a>
</g>
<!-- module~foodie&#45;&gt;module~type_euler_1d -->
<g id="edge24" class="edge"><title>module~foodie&#45;&gt;module~type_euler_1d</title>
<path fill="none" stroke="black" stroke-dasharray="5,2" d="M413.831,-149.028C425.648,-162.679 445.615,-184.163 466,-199 467.627,-200.184 469.327,-201.34 471.072,-202.462"/>
<polygon fill="black" stroke="black" points="469.652,-205.688 480.041,-207.767 473.216,-199.663 469.652,-205.688"/>
</g>
<!-- module~foodie_integrator_tvd_runge_kutta&#45;&gt;module~foodie -->
<g id="edge26" class="edge"><title>module~foodie_integrator_tvd_runge_kutta&#45;&gt;module~foodie</title>
<path fill="none" stroke="black" stroke-dasharray="5,2" d="M302.523,-166.98C315.089,-164.302 327.976,-161.285 340,-158 348.688,-155.626 357.91,-152.666 366.539,-149.693"/>
<polygon fill="black" stroke="black" points="367.706,-152.993 375.97,-146.363 365.375,-146.392 367.706,-152.993"/>
</g>
<!-- module~foodie_integrator_adams_bashforth&#45;&gt;module~foodie -->
<g id="edge28" class="edge"><title>module~foodie_integrator_adams_bashforth&#45;&gt;module~foodie</title>
<path fill="none" stroke="black" stroke-dasharray="5,2" d="M321.566,-136C337.17,-136 352.554,-136 365.677,-136"/>
<polygon fill="black" stroke="black" points="365.677,-139.5 375.677,-136 365.677,-132.5 365.677,-139.5"/>
</g>
<!-- module~foodie_integrator_low_storage_runge_kutta&#45;&gt;module~foodie -->
<g id="edge30" class="edge"><title>module~foodie_integrator_low_storage_runge_kutta&#45;&gt;module~foodie</title>
<path fill="none" stroke="black" stroke-dasharray="5,2" d="M302.523,-105.02C315.089,-107.698 327.976,-110.715 340,-114 348.688,-116.374 357.91,-119.334 366.539,-122.307"/>
<polygon fill="black" stroke="black" points="365.375,-125.608 375.97,-125.637 367.706,-119.007 365.375,-125.608"/>
</g>
<!-- module~foodie_integrator_euler_explicit&#45;&gt;module~foodie -->
<g id="edge32" class="edge"><title>module~foodie_integrator_euler_explicit&#45;&gt;module~foodie</title>
<path fill="none" stroke="black" stroke-dasharray="5,2" d="M311.037,-58.2598C321.132,-61.2384 331.042,-65.071 340,-70 359.606,-80.7881 376.759,-99.7689 388.195,-114.615"/>
<polygon fill="black" stroke="black" points="385.481,-116.83 394.244,-122.785 391.107,-112.665 385.481,-116.83"/>
</g>
<!-- module~type_lorenz&#45;&gt;program~integrate_lorenz -->
<g id="edge2" class="edge"><title>module~type_lorenz&#45;&gt;program~integrate_lorenz</title>
<path fill="none" stroke="black" stroke-dasharray="5,2" d="M543.251,-167.214C556.636,-163.39 572.321,-158.908 587.199,-154.657"/>
<polygon fill="black" stroke="black" points="588.174,-158.019 596.827,-151.906 586.251,-151.288 588.174,-158.019"/>
</g>
<!-- module~type_oscillation&#45;&gt;program~integrate_oscillation -->
<g id="edge4" class="edge"><title>module~type_oscillation&#45;&gt;program~integrate_oscillation</title>
<path fill="none" stroke="black" stroke-dasharray="5,2" d="M551.814,-95C560.11,-95 568.972,-95 577.781,-95"/>
<polygon fill="black" stroke="black" points="578.06,-98.5001 588.06,-95 578.06,-91.5001 578.06,-98.5001"/>
</g>
<!-- module~type_burgers&#45;&gt;program~integrate_burgers -->
<g id="edge6" class="edge"><title>module~type_burgers&#45;&gt;program~integrate_burgers</title>
<path fill="none" stroke="black" stroke-dasharray="5,2" d="M547.112,-18.4446C558.387,-20.0552 571.001,-21.8573 583.259,-23.6084"/>
<polygon fill="black" stroke="black" points="583.04,-27.1125 593.434,-25.062 584.03,-20.1829 583.04,-27.1125"/>
</g>
<!-- module~type_euler_1d&#45;&gt;program~integrate_euler_1d -->
<g id="edge8" class="edge"><title>module~type_euler_1d&#45;&gt;program~integrate_euler_1d</title>
<path fill="none" stroke="black" stroke-dasharray="5,2" d="M550.353,-227.218C559.732,-228.629 569.894,-230.157 579.922,-231.665"/>
<polygon fill="black" stroke="black" points="579.461,-235.135 589.87,-233.161 580.502,-228.213 579.461,-235.135"/>
</g>
</g>
</svg>
