<?xml version="1.0" encoding="UTF-8" standalone="no"?>
<!DOCTYPE svg PUBLIC "-//W3C//DTD SVG 1.1//EN"
 "http://www.w3.org/Graphics/SVG/1.1/DTD/svg11.dtd">
<!-- Generated by graphviz version 2.26.3 (20100126.1600)
 -->
<!-- Title: module~~foodie_integrator_euler_explicit~~UsedByGraph Pages: 1 -->
<svg width="526pt" height="268pt"
 viewBox="0.00 0.00 526.00 267.97" xmlns="http://www.w3.org/2000/svg" xmlns:xlink="http://www.w3.org/1999/xlink">
<g id="graph1" class="graph" transform="scale(1 1) rotate(0) translate(4 263.974)">
<title>module~~foodie_integrator_euler_explicit~~UsedByGraph</title>
<polygon fill="white" stroke="white" points="-4,5 -4,-263.974 523,-263.974 523,5 -4,5"/>
<!-- module~foodie_integrator_euler_explicit -->
<g id="node1" class="node"><title>module~foodie_integrator_euler_explicit</title>
<polygon fill="none" stroke="black" points="162,-149 8.52651e-14,-149 0,-123 162,-123 162,-149"/>
<text text-anchor="middle" x="81" y="-133.55" font-family="Helvetica,sans-Serif" font-size="10.50">foodie_integrator_euler_explicit</text>
</g>
<!-- module~foodie -->
<g id="node2" class="node"><title>module~foodie</title>
<a xlink:href="../module/foodie.html" xlink:title="foodie">
<polygon fill="#337ab7" stroke="#337ab7" points="252,-149 198,-149 198,-123 252,-123 252,-149"/>
<text text-anchor="middle" x="225" y="-133.55" font-family="Helvetica,sans-Serif" font-size="10.50" fill="white">foodie</text>
</a>
</g>
<!-- module~foodie_integrator_euler_explicit&#45;&gt;module~foodie -->
<g id="edge26" class="edge"><title>module~foodie_integrator_euler_explicit&#45;&gt;module~foodie</title>
<path fill="none" stroke="black" stroke-dasharray="5,2" d="M162.258,-136C171.03,-136 179.616,-136 187.482,-136"/>
<polygon fill="black" stroke="black" points="187.714,-139.5 197.714,-136 187.714,-132.5 187.714,-139.5"/>
</g>
<!-- program~integrate_euler_1d -->
<g id="node3" class="node"><title>program~integrate_euler_1d</title>
<a xlink:href="../program/integrate_euler_1d.html" xlink:title="integrate_euler_1D">
<polygon fill="#f0ad4e" stroke="#f0ad4e" points="516,-254 412,-254 412,-228 516,-228 516,-254"/>
<text text-anchor="middle" x="464" y="-238.55" font-family="Helvetica,sans-Serif" font-size="10.50" fill="white">integrate_euler_1D</text>
</a>
</g>
<!-- module~foodie&#45;&gt;program~integrate_euler_1d -->
<g id="edge10" class="edge"><title>module~foodie&#45;&gt;program~integrate_euler_1d</title>
<path fill="none" stroke="black" stroke-dasharray="5,2" d="M228.209,-149.239C234.779,-173.061 252.255,-222.565 288,-243 323.403,-263.239 369.724,-261.833 405.958,-255.85"/>
<polygon fill="black" stroke="black" points="406.675,-259.277 415.893,-254.055 405.43,-252.388 406.675,-259.277"/>
</g>
<!-- module~type_lorenz -->
<g id="node4" class="node"><title>module~type_lorenz</title>
<a xlink:href="../module/type_lorenz.html" xlink:title="type_lorenz">
<polygon fill="#337ab7" stroke="#337ab7" points="365,-190 297,-190 297,-164 365,-164 365,-190"/>
<text text-anchor="middle" x="331" y="-174.55" font-family="Helvetica,sans-Serif" font-size="10.50" fill="white">type_lorenz</text>
</a>
</g>
<!-- module~foodie&#45;&gt;module~type_lorenz -->
<g id="edge12" class="edge"><title>module~foodie&#45;&gt;module~type_lorenz</title>
<path fill="none" stroke="black" stroke-dasharray="5,2" d="M252.023,-146.452C262.864,-150.646 275.632,-155.584 287.705,-160.254"/>
<polygon fill="black" stroke="black" points="286.598,-163.578 297.188,-163.922 289.124,-157.05 286.598,-163.578"/>
</g>
<!-- program~integrate_lorenz -->
<g id="node5" class="node"><title>program~integrate_lorenz</title>
<a xlink:href="../program/integrate_lorenz.html" xlink:title="integrate_lorenz">
<polygon fill="#f0ad4e" stroke="#f0ad4e" points="509,-152 419,-152 419,-126 509,-126 509,-152"/>
<text text-anchor="middle" x="464" y="-136.55" font-family="Helvetica,sans-Serif" font-size="10.50" fill="white">integrate_lorenz</text>
</a>
</g>
<!-- module~foodie&#45;&gt;program~integrate_lorenz -->
<g id="edge14" class="edge"><title>module~foodie&#45;&gt;program~integrate_lorenz</title>
<path fill="none" stroke="black" stroke-dasharray="5,2" d="M331,-136C356.386,-134.196 384.56,-134.501 408.419,-135.433"/>
<polygon fill="black" stroke="black" points="408.56,-138.943 418.704,-135.884 408.866,-131.949 408.56,-138.943"/>
</g>
<!-- program~integrate_oscillation -->
<g id="node6" class="node"><title>program~integrate_oscillation</title>
<a xlink:href="../program/integrate_oscillation.html" xlink:title="integrate_oscillation">
<polygon fill="#f0ad4e" stroke="#f0ad4e" points="517,-108 411,-108 411,-82 517,-82 517,-108"/>
<text text-anchor="middle" x="464" y="-92.55" font-family="Helvetica,sans-Serif" font-size="10.50" fill="white">integrate_oscillation</text>
</a>
</g>
<!-- module~foodie&#45;&gt;program~integrate_oscillation -->
<g id="edge16" class="edge"><title>module~foodie&#45;&gt;program~integrate_oscillation</title>
<path fill="none" stroke="black" stroke-dasharray="5,2" d="M252.049,-137.055C273.491,-137.637 304.2,-137.905 331,-136"/>
<path fill="none" stroke="black" stroke-dasharray="5,2" d="M331,-136C348.146,-134.781 387.317,-122.253 418.733,-111.362"/>
<polygon fill="black" stroke="black" points="419.918,-114.655 428.201,-108.049 417.607,-108.048 419.918,-114.655"/>
</g>
<!-- module~type_oscillation -->
<g id="node7" class="node"><title>module~type_oscillation</title>
<a xlink:href="../module/type_oscillation.html" xlink:title="type_oscillation">
<polygon fill="#337ab7" stroke="#337ab7" points="373,-108 289,-108 289,-82 373,-82 373,-108"/>
<text text-anchor="middle" x="331" y="-92.55" font-family="Helvetica,sans-Serif" font-size="10.50" fill="white">type_oscillation</text>
</a>
</g>
<!-- module~foodie&#45;&gt;module~type_oscillation -->
<g id="edge18" class="edge"><title>module~foodie&#45;&gt;module~type_oscillation</title>
<path fill="none" stroke="black" stroke-dasharray="5,2" d="M252.023,-125.548C262.864,-121.354 275.632,-116.416 287.705,-111.746"/>
<polygon fill="black" stroke="black" points="289.124,-114.95 297.188,-108.078 286.598,-108.422 289.124,-114.95"/>
</g>
<!-- program~integrate_burgers -->
<g id="node8" class="node"><title>program~integrate_burgers</title>
<a xlink:href="../program/integrate_burgers.html" xlink:title="integrate_burgers">
<polygon fill="#f0ad4e" stroke="#f0ad4e" points="512,-45 416,-45 416,-19 512,-19 512,-45"/>
<text text-anchor="middle" x="464" y="-29.55" font-family="Helvetica,sans-Serif" font-size="10.50" fill="white">integrate_burgers</text>
</a>
</g>
<!-- module~foodie&#45;&gt;program~integrate_burgers -->
<g id="edge20" class="edge"><title>module~foodie&#45;&gt;program~integrate_burgers</title>
<path fill="none" stroke="black" stroke-dasharray="5,2" d="M234.362,-123C245.49,-108.533 265.42,-85.5457 288,-73 324.069,-52.9601 369.529,-42.6897 405.212,-37.44"/>
<polygon fill="black" stroke="black" points="406.045,-40.8584 415.474,-36.0275 405.091,-33.9237 406.045,-40.8584"/>
</g>
<!-- module~type_burgers -->
<g id="node9" class="node"><title>module~type_burgers</title>
<a xlink:href="../module/type_burgers.html" xlink:title="type_burgers">
<polygon fill="#337ab7" stroke="#337ab7" points="369,-26 293,-26 293,-1.24345e-14 369,-3.55271e-15 369,-26"/>
<text text-anchor="middle" x="331" y="-10.55" font-family="Helvetica,sans-Serif" font-size="10.50" fill="white">type_burgers</text>
</a>
</g>
<!-- module~foodie&#45;&gt;module~type_burgers -->
<g id="edge22" class="edge"><title>module~foodie&#45;&gt;module~type_burgers</title>
<path fill="none" stroke="black" stroke-dasharray="5,2" d="M231.254,-122.939C241.178,-103.204 262.089,-65.3964 288,-40 290.892,-37.1655 294.131,-34.4789 297.498,-31.9784"/>
<polygon fill="black" stroke="black" points="299.726,-34.6959 306.012,-26.1677 295.779,-28.9141 299.726,-34.6959"/>
</g>
<!-- module~type_euler_1d -->
<g id="node10" class="node"><title>module~type_euler_1d</title>
<a xlink:href="../module/type_euler_1d.html" xlink:title="type_euler_1D">
<polygon fill="#337ab7" stroke="#337ab7" points="372,-234 290,-234 290,-208 372,-208 372,-234"/>
<text text-anchor="middle" x="331" y="-218.55" font-family="Helvetica,sans-Serif" font-size="10.50" fill="white">type_euler_1D</text>
</a>
</g>
<!-- module~foodie&#45;&gt;module~type_euler_1d -->
<g id="edge24" class="edge"><title>module~foodie&#45;&gt;module~type_euler_1d</title>
<path fill="none" stroke="black" stroke-dasharray="5,2" d="M235.831,-149.028C247.648,-162.679 267.615,-184.163 288,-199 289.627,-200.184 291.327,-201.34 293.072,-202.462"/>
<polygon fill="black" stroke="black" points="291.652,-205.688 302.041,-207.767 295.216,-199.663 291.652,-205.688"/>
</g>
<!-- module~type_lorenz&#45;&gt;program~integrate_lorenz -->
<g id="edge2" class="edge"><title>module~type_lorenz&#45;&gt;program~integrate_lorenz</title>
<path fill="none" stroke="black" stroke-dasharray="5,2" d="M365.251,-167.214C378.636,-163.39 394.321,-158.908 409.199,-154.657"/>
<polygon fill="black" stroke="black" points="410.174,-158.019 418.827,-151.906 408.251,-151.288 410.174,-158.019"/>
</g>
<!-- module~type_oscillation&#45;&gt;program~integrate_oscillation -->
<g id="edge4" class="edge"><title>module~type_oscillation&#45;&gt;program~integrate_oscillation</title>
<path fill="none" stroke="black" stroke-dasharray="5,2" d="M373.814,-95C382.11,-95 390.972,-95 399.781,-95"/>
<polygon fill="black" stroke="black" points="400.06,-98.5001 410.06,-95 400.06,-91.5001 400.06,-98.5001"/>
</g>
<!-- module~type_burgers&#45;&gt;program~integrate_burgers -->
<g id="edge6" class="edge"><title>module~type_burgers&#45;&gt;program~integrate_burgers</title>
<path fill="none" stroke="black" stroke-dasharray="5,2" d="M369.112,-18.4446C380.387,-20.0552 393.001,-21.8573 405.259,-23.6084"/>
<polygon fill="black" stroke="black" points="405.04,-27.1125 415.434,-25.062 406.03,-20.1829 405.04,-27.1125"/>
</g>
<!-- module~type_euler_1d&#45;&gt;program~integrate_euler_1d -->
<g id="edge8" class="edge"><title>module~type_euler_1d&#45;&gt;program~integrate_euler_1d</title>
<path fill="none" stroke="black" stroke-dasharray="5,2" d="M372.353,-227.218C381.732,-228.629 391.894,-230.157 401.922,-231.665"/>
<polygon fill="black" stroke="black" points="401.461,-235.135 411.87,-233.161 402.502,-228.213 401.461,-235.135"/>
</g>
</g>
</svg>
