<?xml version="1.0" encoding="UTF-8" standalone="no"?>
<!DOCTYPE svg PUBLIC "-//W3C//DTD SVG 1.1//EN"
 "http://www.w3.org/Graphics/SVG/1.1/DTD/svg11.dtd">
<!-- Generated by graphviz version 2.26.3 (20100126.1600)
 -->
<!-- Title: proc~~reconstruct_interfaces_states~~CallsGraph Pages: 1 -->
<svg width="366pt" height="254pt"
 viewBox="0.00 0.00 366.00 254.00" xmlns="http://www.w3.org/2000/svg" xmlns:xlink="http://www.w3.org/1999/xlink">
<g id="graph1" class="graph" transform="scale(1 1) rotate(0) translate(4 250)">
<title>proc~~reconstruct_interfaces_states~~CallsGraph</title>
<polygon fill="white" stroke="white" points="-4,5 -4,-250 363,-250 363,5 -4,5"/>
<!-- proc~reconstruct_interfaces_states -->
<g id="node1" class="node"><title>proc~reconstruct_interfaces_states</title>
<polygon fill="none" stroke="black" points="153,-136 1,-136 1,-110 153,-110 153,-136"/>
<text text-anchor="middle" x="77" y="-120.55" font-family="Helvetica,sans-Serif" font-size="10.50">reconstruct_interfaces_states</text>
</g>
<!-- pm -->
<g id="node2" class="node"><title>pm</title>
<polygon fill="#777777" stroke="#777777" points="256,-246 202,-246 202,-220 256,-220 256,-246"/>
<text text-anchor="middle" x="229" y="-230.55" font-family="Helvetica,sans-Serif" font-size="10.50" fill="white">pm</text>
</g>
<!-- proc~reconstruct_interfaces_states&#45;&gt;pm -->
<g id="edge10" class="edge"><title>proc~reconstruct_interfaces_states&#45;&gt;pm</title>
<path fill="none" stroke="black" d="M92.538,-136.302C113.826,-154.243 153.578,-186.738 190,-211 191.84,-212.226 193.752,-213.45 195.698,-214.659"/>
<polygon fill="black" stroke="black" points="193.946,-217.689 204.325,-219.813 197.535,-211.68 193.946,-217.689"/>
</g>
<!-- lpm -->
<g id="node3" class="node"><title>lpm</title>
<polygon fill="#777777" stroke="#777777" points="256,-202 202,-202 202,-176 256,-176 256,-202"/>
<text text-anchor="middle" x="229" y="-186.55" font-family="Helvetica,sans-Serif" font-size="10.50" fill="white">lpm</text>
</g>
<!-- proc~reconstruct_interfaces_states&#45;&gt;lpm -->
<g id="edge12" class="edge"><title>proc~reconstruct_interfaces_states&#45;&gt;lpm</title>
<path fill="none" stroke="black" d="M107.03,-136.039C131.611,-146.713 166.468,-161.848 192.628,-173.207"/>
<polygon fill="black" stroke="black" points="191.271,-176.433 201.838,-177.206 194.059,-170.013 191.271,-176.433"/>
</g>
<!-- none~eigen_vect_l -->
<g id="node4" class="node"><title>none~eigen_vect_l</title>
<polygon fill="#d94e8f" stroke="#d94e8f" points="267,-158 191,-158 191,-132 267,-132 267,-158"/>
<text text-anchor="middle" x="229" y="-142.55" font-family="Helvetica,sans-Serif" font-size="10.50" fill="white">eigen_vect_L</text>
</g>
<!-- proc~reconstruct_interfaces_states&#45;&gt;none~eigen_vect_l -->
<g id="edge14" class="edge"><title>proc~reconstruct_interfaces_states&#45;&gt;none~eigen_vect_l</title>
<path fill="none" stroke="black" d="M153.891,-134.129C162.999,-135.447 172.091,-136.763 180.642,-138.001"/>
<polygon fill="black" stroke="black" points="180.371,-141.498 190.77,-139.467 181.374,-134.57 180.371,-141.498"/>
</g>
<!-- rpm -->
<g id="node5" class="node"><title>rpm</title>
<polygon fill="#777777" stroke="#777777" points="256,-114 202,-114 202,-88 256,-88 256,-114"/>
<text text-anchor="middle" x="229" y="-98.55" font-family="Helvetica,sans-Serif" font-size="10.50" fill="white">rpm</text>
</g>
<!-- proc~reconstruct_interfaces_states&#45;&gt;rpm -->
<g id="edge16" class="edge"><title>proc~reconstruct_interfaces_states&#45;&gt;rpm</title>
<path fill="none" stroke="black" d="M153.891,-111.871C167.083,-109.962 180.239,-108.058 191.769,-106.389"/>
<polygon fill="black" stroke="black" points="192.46,-109.825 201.856,-104.929 191.457,-102.897 192.46,-109.825"/>
</g>
<!-- none~eigen_vect_r -->
<g id="node6" class="node"><title>none~eigen_vect_r</title>
<polygon fill="#d94e8f" stroke="#d94e8f" points="268,-70 190,-70 190,-44 268,-44 268,-70"/>
<text text-anchor="middle" x="229" y="-54.55" font-family="Helvetica,sans-Serif" font-size="10.50" fill="white">eigen_vect_R</text>
</g>
<!-- proc~reconstruct_interfaces_states&#45;&gt;none~eigen_vect_r -->
<g id="edge18" class="edge"><title>proc~reconstruct_interfaces_states&#45;&gt;none~eigen_vect_r</title>
<path fill="none" stroke="black" d="M107.03,-109.961C130.659,-99.7006 163.785,-85.3172 189.552,-74.1288"/>
<polygon fill="black" stroke="black" points="191.253,-77.2057 199.032,-70.0124 188.465,-70.7849 191.253,-77.2057"/>
</g>
<!-- cr -->
<g id="node7" class="node"><title>cr</title>
<polygon fill="#777777" stroke="#777777" points="256,-26 202,-26 202,-1.24345e-14 256,-3.55271e-15 256,-26"/>
<text text-anchor="middle" x="229" y="-10.55" font-family="Helvetica,sans-Serif" font-size="10.50" fill="white">cr</text>
</g>
<!-- proc~reconstruct_interfaces_states&#45;&gt;cr -->
<g id="edge20" class="edge"><title>proc~reconstruct_interfaces_states&#45;&gt;cr</title>
<path fill="none" stroke="black" d="M92.538,-109.698C113.826,-91.7573 153.578,-59.2617 190,-35 191.84,-33.7744 193.752,-32.5497 195.698,-31.3406"/>
<polygon fill="black" stroke="black" points="197.535,-34.3202 204.325,-26.1872 193.946,-28.3107 197.535,-34.3202"/>
</g>
<!-- proc~a -->
<g id="node8" class="node"><title>proc~a</title>
<a xlink:href="../proc/a.html" xlink:title="a">
<polygon fill="#d94e8f" stroke="#d94e8f" points="358,-114 304,-114 304,-88 358,-88 358,-114"/>
<text text-anchor="middle" x="331" y="-98.55" font-family="Helvetica,sans-Serif" font-size="10.50" fill="white">a</text>
</a>
</g>
<!-- none~eigen_vect_l&#45;&gt;proc~a -->
<g id="edge2" class="edge"><title>none~eigen_vect_l&#45;&gt;proc~a</title>
<path fill="none" stroke="black" d="M259.327,-131.918C270.338,-127.168 282.896,-121.751 294.392,-116.792"/>
<polygon fill="black" stroke="black" points="295.945,-119.933 303.741,-112.759 293.173,-113.506 295.945,-119.933"/>
</g>
<!-- l -->
<g id="node9" class="node"><title>l</title>
<polygon fill="#777777" stroke="#777777" points="358,-158 304,-158 304,-132 358,-132 358,-158"/>
<text text-anchor="middle" x="331" y="-142.55" font-family="Helvetica,sans-Serif" font-size="10.50" fill="white">l</text>
</g>
<!-- none~eigen_vect_l&#45;&gt;l -->
<g id="edge4" class="edge"><title>none~eigen_vect_l&#45;&gt;l</title>
<path fill="none" stroke="black" d="M267.271,-145C275.952,-145 285.158,-145 293.794,-145"/>
<polygon fill="black" stroke="black" points="293.971,-148.5 303.971,-145 293.971,-141.5 293.971,-148.5"/>
</g>
<!-- none~eigen_vect_r&#45;&gt;proc~a -->
<g id="edge6" class="edge"><title>none~eigen_vect_r&#45;&gt;proc~a</title>
<path fill="none" stroke="black" d="M259.327,-70.0823C270.338,-74.8321 282.896,-80.2494 294.392,-85.2083"/>
<polygon fill="black" stroke="black" points="293.173,-88.4941 303.741,-89.2413 295.945,-82.0666 293.173,-88.4941"/>
</g>
<!-- proc~r -->
<g id="node12" class="node"><title>proc~r</title>
<a xlink:href="../proc/r.html" xlink:title="r">
<polygon fill="#d94e8f" stroke="#d94e8f" points="358,-70 304,-70 304,-44 358,-44 358,-70"/>
<text text-anchor="middle" x="331" y="-54.55" font-family="Helvetica,sans-Serif" font-size="10.50" fill="white">r</text>
</a>
</g>
<!-- none~eigen_vect_r&#45;&gt;proc~r -->
<g id="edge8" class="edge"><title>none~eigen_vect_r&#45;&gt;proc~r</title>
<path fill="none" stroke="black" d="M268.144,-57C276.519,-57 285.345,-57 293.649,-57"/>
<polygon fill="black" stroke="black" points="293.817,-60.5001 303.817,-57 293.817,-53.5001 293.817,-60.5001"/>
</g>
</g>
</svg>
