<?xml version="1.0" encoding="UTF-8" standalone="no"?>
<!DOCTYPE svg PUBLIC "-//W3C//DTD SVG 1.1//EN"
 "http://www.w3.org/Graphics/SVG/1.1/DTD/svg11.dtd">
<!-- Generated by graphviz version 2.26.3 (20100126.1600)
 -->
<!-- Title: proc~~save_results~2~~CalledByGraph Pages: 1 -->
<svg width="318pt" height="34pt"
 viewBox="0.00 0.00 318.00 34.00" xmlns="http://www.w3.org/2000/svg" xmlns:xlink="http://www.w3.org/1999/xlink">
<g id="graph1" class="graph" transform="scale(1 1) rotate(0) translate(4 30)">
<title>proc~~save_results~2~~CalledByGraph</title>
<polygon fill="white" stroke="white" points="-4,5 -4,-30 315,-30 315,5 -4,5"/>
<!-- proc~save_results~2 -->
<g id="node1" class="node"><title>proc~save_results~2</title>
<polygon fill="none" stroke="black" points="309,-26 237,-26 237,-1.24345e-14 309,-3.55271e-15 309,-26"/>
<text text-anchor="middle" x="273" y="-10.55" font-family="Helvetica,sans-Serif" font-size="10.50">save_results</text>
</g>
<!-- proc~test_euler~2 -->
<g id="node2" class="node"><title>proc~test_euler~2</title>
<a xlink:href="../proc/test_euler%7E2.html" xlink:title="test_euler">
<polygon fill="#d9534f" stroke="#d9534f" points="200,-26 140,-26 140,-1.24345e-14 200,-3.55271e-15 200,-26"/>
<text text-anchor="middle" x="170" y="-10.55" font-family="Helvetica,sans-Serif" font-size="10.50" fill="white">test_euler</text>
</a>
</g>
<!-- proc~test_euler~2&#45;&gt;proc~save_results~2 -->
<g id="edge4" class="edge"><title>proc~test_euler~2&#45;&gt;proc~save_results~2</title>
<path fill="none" stroke="black" d="M200.069,-13C208.178,-13 217.149,-13 225.947,-13"/>
<polygon fill="black" stroke="black" points="226.132,-16.5001 236.132,-13 226.132,-9.5001 226.132,-16.5001"/>
</g>
<!-- program~integrate_euler_1d -->
<g id="node3" class="node"><title>program~integrate_euler_1d</title>
<a xlink:href="../program/integrate_euler_1d.html" xlink:title="integrate_euler_1D">
<polygon fill="#f0ad4e" stroke="#f0ad4e" points="104,-26 3.55271e-14,-26 0,-1.24345e-14 104,-3.55271e-15 104,-26"/>
<text text-anchor="middle" x="52" y="-10.55" font-family="Helvetica,sans-Serif" font-size="10.50" fill="white">integrate_euler_1D</text>
</a>
</g>
<!-- program~integrate_euler_1d&#45;&gt;proc~test_euler~2 -->
<g id="edge2" class="edge"><title>program~integrate_euler_1d&#45;&gt;proc~test_euler~2</title>
<path fill="none" stroke="black" d="M104.1,-13C112.695,-13 121.489,-13 129.737,-13"/>
<polygon fill="black" stroke="black" points="129.837,-16.5001 139.837,-13 129.837,-9.5001 129.837,-16.5001"/>
</g>
</g>
</svg>
