<?xml version="1.0" encoding="UTF-8" standalone="no"?>
<!DOCTYPE svg PUBLIC "-//W3C//DTD SVG 1.1//EN"
 "http://www.w3.org/Graphics/SVG/1.1/DTD/svg11.dtd">
<!-- Generated by graphviz version 2.26.3 (20100126.1600)
 -->
<!-- Title: proc~~save_results~4~~CalledByGraph Pages: 1 -->
<svg width="338pt" height="210pt"
 viewBox="0.00 0.00 338.00 210.00" xmlns="http://www.w3.org/2000/svg" xmlns:xlink="http://www.w3.org/1999/xlink">
<g id="graph1" class="graph" transform="scale(1 1) rotate(0) translate(4 206)">
<title>proc~~save_results~4~~CalledByGraph</title>
<polygon fill="white" stroke="white" points="-4,5 -4,-206 335,-206 335,5 -4,5"/>
<!-- proc~save_results~4 -->
<g id="node1" class="node"><title>proc~save_results~4</title>
<polygon fill="none" stroke="black" points="329,-114 257,-114 257,-88 329,-88 329,-114"/>
<text text-anchor="middle" x="293" y="-98.55" font-family="Helvetica,sans-Serif" font-size="10.50">save_results</text>
</g>
<!-- proc~test_leapfrog~4 -->
<g id="node2" class="node"><title>proc~test_leapfrog~4</title>
<a xlink:href="../proc/test_leapfrog%7E4.html" xlink:title="test_leapfrog">
<polygon fill="#d9534f" stroke="#d9534f" points="219,-202 145,-202 145,-176 219,-176 219,-202"/>
<text text-anchor="middle" x="182" y="-186.55" font-family="Helvetica,sans-Serif" font-size="10.50" fill="white">test_leapfrog</text>
</a>
</g>
<!-- proc~test_leapfrog~4&#45;&gt;proc~save_results~4 -->
<g id="edge12" class="edge"><title>proc~test_leapfrog~4&#45;&gt;proc~save_results~4</title>
<path fill="none" stroke="black" d="M206.604,-175.773C211.167,-173.037 215.811,-170.054 220,-167 239.104,-153.073 258.884,-134.918 273.028,-121.176"/>
<polygon fill="black" stroke="black" points="275.595,-123.56 280.265,-114.05 270.684,-118.572 275.595,-123.56"/>
</g>
<!-- proc~test_tvd_rk~4 -->
<g id="node3" class="node"><title>proc~test_tvd_rk~4</title>
<a xlink:href="../proc/test_tvd_rk%7E4.html" xlink:title="test_tvd_rk">
<polygon fill="#d9534f" stroke="#d9534f" points="214,-158 150,-158 150,-132 214,-132 214,-158"/>
<text text-anchor="middle" x="182" y="-142.55" font-family="Helvetica,sans-Serif" font-size="10.50" fill="white">test_tvd_rk</text>
</a>
</g>
<!-- proc~test_tvd_rk~4&#45;&gt;proc~save_results~4 -->
<g id="edge14" class="edge"><title>proc~test_tvd_rk~4&#45;&gt;proc~save_results~4</title>
<path fill="none" stroke="black" d="M214.703,-132.037C226.006,-127.556 238.836,-122.47 250.792,-117.731"/>
<polygon fill="black" stroke="black" points="252.14,-120.962 260.147,-114.023 249.561,-114.454 252.14,-120.962"/>
</g>
<!-- proc~test_ab~4 -->
<g id="node4" class="node"><title>proc~test_ab~4</title>
<a xlink:href="../proc/test_ab%7E4.html" xlink:title="test_ab">
<polygon fill="#d9534f" stroke="#d9534f" points="209,-114 155,-114 155,-88 209,-88 209,-114"/>
<text text-anchor="middle" x="182" y="-98.55" font-family="Helvetica,sans-Serif" font-size="10.50" fill="white">test_ab</text>
</a>
</g>
<!-- proc~test_ab~4&#45;&gt;proc~save_results~4 -->
<g id="edge16" class="edge"><title>proc~test_ab~4&#45;&gt;proc~save_results~4</title>
<path fill="none" stroke="black" d="M209.154,-101C220.397,-101 233.761,-101 246.479,-101"/>
<polygon fill="black" stroke="black" points="246.488,-104.5 256.487,-101 246.487,-97.5001 246.488,-104.5"/>
</g>
<!-- proc~test_ls_rk~4 -->
<g id="node5" class="node"><title>proc~test_ls_rk~4</title>
<a xlink:href="../proc/test_ls_rk%7E4.html" xlink:title="test_ls_rk">
<polygon fill="#d9534f" stroke="#d9534f" points="211,-70 153,-70 153,-44 211,-44 211,-70"/>
<text text-anchor="middle" x="182" y="-54.55" font-family="Helvetica,sans-Serif" font-size="10.50" fill="white">test_ls_rk</text>
</a>
</g>
<!-- proc~test_ls_rk~4&#45;&gt;proc~save_results~4 -->
<g id="edge18" class="edge"><title>proc~test_ls_rk~4&#45;&gt;proc~save_results~4</title>
<path fill="none" stroke="black" d="M211.164,-68.5605C223.259,-73.3549 237.526,-79.0103 250.732,-84.2451"/>
<polygon fill="black" stroke="black" points="249.528,-87.5328 260.114,-87.9641 252.108,-81.0254 249.528,-87.5328"/>
</g>
<!-- proc~test_euler~4 -->
<g id="node6" class="node"><title>proc~test_euler~4</title>
<a xlink:href="../proc/test_euler%7E4.html" xlink:title="test_euler">
<polygon fill="#d9534f" stroke="#d9534f" points="212,-26 152,-26 152,-1.24345e-14 212,-3.55271e-15 212,-26"/>
<text text-anchor="middle" x="182" y="-10.55" font-family="Helvetica,sans-Serif" font-size="10.50" fill="white">test_euler</text>
</a>
</g>
<!-- proc~test_euler~4&#45;&gt;proc~save_results~4 -->
<g id="edge20" class="edge"><title>proc~test_euler~4&#45;&gt;proc~save_results~4</title>
<path fill="none" stroke="black" d="M206.604,-26.2273C211.167,-28.9626 215.811,-31.9463 220,-35 239.104,-48.9274 258.884,-67.0817 273.028,-80.8243"/>
<polygon fill="black" stroke="black" points="270.684,-83.4283 280.265,-87.9503 275.595,-78.4403 270.684,-83.4283"/>
</g>
<!-- program~integrate_oscillation -->
<g id="node7" class="node"><title>program~integrate_oscillation</title>
<a xlink:href="../program/integrate_oscillation.html" xlink:title="integrate_oscillation">
<polygon fill="#f0ad4e" stroke="#f0ad4e" points="107,-114 1,-114 1,-88 107,-88 107,-114"/>
<text text-anchor="middle" x="54" y="-98.55" font-family="Helvetica,sans-Serif" font-size="10.50" fill="white">integrate_oscillation</text>
</a>
</g>
<!-- program~integrate_oscillation&#45;&gt;proc~test_leapfrog~4 -->
<g id="edge2" class="edge"><title>program~integrate_oscillation&#45;&gt;proc~test_leapfrog~4</title>
<path fill="none" stroke="black" d="M70.8634,-114.216C88.6621,-127.961 117.723,-149.83 144,-167 145.867,-168.22 147.803,-169.448 149.768,-170.667"/>
<polygon fill="black" stroke="black" points="148.076,-173.733 158.448,-175.895 151.688,-167.737 148.076,-173.733"/>
</g>
<!-- program~integrate_oscillation&#45;&gt;proc~test_tvd_rk~4 -->
<g id="edge4" class="edge"><title>program~integrate_oscillation&#45;&gt;proc~test_tvd_rk~4</title>
<path fill="none" stroke="black" d="M92.0577,-114.082C107.05,-119.236 124.328,-125.175 139.708,-130.462"/>
<polygon fill="black" stroke="black" points="138.904,-133.887 149.498,-133.828 141.179,-127.267 138.904,-133.887"/>
</g>
<!-- program~integrate_oscillation&#45;&gt;proc~test_ab~4 -->
<g id="edge6" class="edge"><title>program~integrate_oscillation&#45;&gt;proc~test_ab~4</title>
<path fill="none" stroke="black" d="M107.542,-101C120.025,-101 133.054,-101 144.659,-101"/>
<polygon fill="black" stroke="black" points="144.859,-104.5 154.859,-101 144.859,-97.5001 144.859,-104.5"/>
</g>
<!-- program~integrate_oscillation&#45;&gt;proc~test_ls_rk~4 -->
<g id="edge8" class="edge"><title>program~integrate_oscillation&#45;&gt;proc~test_ls_rk~4</title>
<path fill="none" stroke="black" d="M92.0577,-87.9177C108.169,-82.3795 126.92,-75.9337 143.12,-70.3651"/>
<polygon fill="black" stroke="black" points="144.511,-73.5881 152.83,-67.0273 142.235,-66.9682 144.511,-73.5881"/>
</g>
<!-- program~integrate_oscillation&#45;&gt;proc~test_euler~4 -->
<g id="edge10" class="edge"><title>program~integrate_oscillation&#45;&gt;proc~test_euler~4</title>
<path fill="none" stroke="black" d="M70.8634,-87.7841C88.6621,-74.0389 117.723,-52.1698 144,-35 145.867,-33.7803 147.803,-32.5522 149.768,-31.3334"/>
<polygon fill="black" stroke="black" points="151.688,-34.2632 158.448,-26.1053 148.076,-28.2669 151.688,-34.2632"/>
</g>
</g>
</svg>
