<?xml version="1.0" encoding="UTF-8" standalone="no"?>
<!DOCTYPE svg PUBLIC "-//W3C//DTD SVG 1.1//EN"
 "http://www.w3.org/Graphics/SVG/1.1/DTD/svg11.dtd">
<!-- Generated by graphviz version 2.26.3 (20100126.1600)
 -->
<!-- Title: proc~~save_results~3~~CalledByGraph Pages: 1 -->
<svg width="304pt" height="122pt"
 viewBox="0.00 0.00 304.00 122.00" xmlns="http://www.w3.org/2000/svg" xmlns:xlink="http://www.w3.org/1999/xlink">
<g id="graph1" class="graph" transform="scale(1 1) rotate(0) translate(4 118)">
<title>proc~~save_results~3~~CalledByGraph</title>
<polygon fill="white" stroke="white" points="-4,5 -4,-118 301,-118 301,5 -4,5"/>
<!-- proc~save_results~3 -->
<g id="node1" class="node"><title>proc~save_results~3</title>
<polygon fill="none" stroke="black" points="295,-70 223,-70 223,-44 295,-44 295,-70"/>
<text text-anchor="middle" x="259" y="-54.55" font-family="Helvetica,sans-Serif" font-size="10.50">save_results</text>
</g>
<!-- proc~test_ab~2 -->
<g id="node2" class="node"><title>proc~test_ab~2</title>
<a xlink:href="../proc/test_ab%7E2.html" xlink:title="test_ab">
<polygon fill="#d9534f" stroke="#d9534f" points="183,-114 129,-114 129,-88 183,-88 183,-114"/>
<text text-anchor="middle" x="156" y="-98.55" font-family="Helvetica,sans-Serif" font-size="10.50" fill="white">test_ab</text>
</a>
</g>
<!-- proc~test_ab~2&#45;&gt;proc~save_results~3 -->
<g id="edge8" class="edge"><title>proc~test_ab~2&#45;&gt;proc~save_results~3</title>
<path fill="none" stroke="black" d="M183.062,-89.4395C194.067,-84.7382 207.011,-79.209 219.063,-74.0603"/>
<polygon fill="black" stroke="black" points="220.663,-77.183 228.484,-70.0359 217.913,-70.7457 220.663,-77.183"/>
</g>
<!-- proc~test_euler~3 -->
<g id="node3" class="node"><title>proc~test_euler~3</title>
<a xlink:href="../proc/test_euler%7E3.html" xlink:title="test_euler">
<polygon fill="#d9534f" stroke="#d9534f" points="186,-70 126,-70 126,-44 186,-44 186,-70"/>
<text text-anchor="middle" x="156" y="-54.55" font-family="Helvetica,sans-Serif" font-size="10.50" fill="white">test_euler</text>
</a>
</g>
<!-- proc~test_euler~3&#45;&gt;proc~save_results~3 -->
<g id="edge10" class="edge"><title>proc~test_euler~3&#45;&gt;proc~save_results~3</title>
<path fill="none" stroke="black" d="M186.069,-57C194.178,-57 203.149,-57 211.947,-57"/>
<polygon fill="black" stroke="black" points="212.132,-60.5001 222.132,-57 212.132,-53.5001 212.132,-60.5001"/>
</g>
<!-- proc~test_rk~2 -->
<g id="node4" class="node"><title>proc~test_rk~2</title>
<a xlink:href="../proc/test_rk%7E2.html" xlink:title="test_rk">
<polygon fill="#d9534f" stroke="#d9534f" points="183,-26 129,-26 129,-1.24345e-14 183,-3.55271e-15 183,-26"/>
<text text-anchor="middle" x="156" y="-10.55" font-family="Helvetica,sans-Serif" font-size="10.50" fill="white">test_rk</text>
</a>
</g>
<!-- proc~test_rk~2&#45;&gt;proc~save_results~3 -->
<g id="edge12" class="edge"><title>proc~test_rk~2&#45;&gt;proc~save_results~3</title>
<path fill="none" stroke="black" d="M183.062,-24.5605C194.067,-29.2618 207.011,-34.791 219.063,-39.9397"/>
<polygon fill="black" stroke="black" points="217.913,-43.2543 228.484,-43.9641 220.663,-36.817 217.913,-43.2543"/>
</g>
<!-- program~integrate_lorenz -->
<g id="node5" class="node"><title>program~integrate_lorenz</title>
<a xlink:href="../program/integrate_lorenz.html" xlink:title="integrate_lorenz">
<polygon fill="#f0ad4e" stroke="#f0ad4e" points="90,-70 4.26326e-14,-70 0,-44 90,-44 90,-70"/>
<text text-anchor="middle" x="45" y="-54.55" font-family="Helvetica,sans-Serif" font-size="10.50" fill="white">integrate_lorenz</text>
</a>
</g>
<!-- program~integrate_lorenz&#45;&gt;proc~test_ab~2 -->
<g id="edge2" class="edge"><title>program~integrate_lorenz&#45;&gt;proc~test_ab~2</title>
<path fill="none" stroke="black" d="M78.0031,-70.0823C91.0649,-75.26 106.128,-81.2308 119.513,-86.5365"/>
<polygon fill="black" stroke="black" points="118.324,-89.8301 128.91,-90.2615 120.903,-83.3227 118.324,-89.8301"/>
</g>
<!-- program~integrate_lorenz&#45;&gt;proc~test_euler~3 -->
<g id="edge4" class="edge"><title>program~integrate_lorenz&#45;&gt;proc~test_euler~3</title>
<path fill="none" stroke="black" d="M90.1479,-57C98.5885,-57 107.36,-57 115.644,-57"/>
<polygon fill="black" stroke="black" points="115.815,-60.5001 125.815,-57 115.815,-53.5001 115.815,-60.5001"/>
</g>
<!-- program~integrate_lorenz&#45;&gt;proc~test_rk~2 -->
<g id="edge6" class="edge"><title>program~integrate_lorenz&#45;&gt;proc~test_rk~2</title>
<path fill="none" stroke="black" d="M78.0031,-43.9177C91.0649,-38.74 106.128,-32.7692 119.513,-27.4635"/>
<polygon fill="black" stroke="black" points="120.903,-30.6773 128.91,-23.7385 118.324,-24.1699 120.903,-30.6773"/>
</g>
</g>
</svg>
