<?xml version="1.0" encoding="UTF-8" standalone="no"?>
<!DOCTYPE svg PUBLIC "-//W3C//DTD SVG 1.1//EN"
 "http://www.w3.org/Graphics/SVG/1.1/DTD/svg11.dtd">
<!-- Generated by graphviz version 2.26.3 (20100126.1600)
 -->
<!-- Title: proc~~reconstruct_interfaces_states~2~~CallsGraph Pages: 1 -->
<svg width="366pt" height="254pt"
 viewBox="0.00 0.00 366.00 254.00" xmlns="http://www.w3.org/2000/svg" xmlns:xlink="http://www.w3.org/1999/xlink">
<g id="graph1" class="graph" transform="scale(1 1) rotate(0) translate(4 250)">
<title>proc~~reconstruct_interfaces_states~2~~CallsGraph</title>
<polygon fill="white" stroke="white" points="-4,5 -4,-250 363,-250 363,5 -4,5"/>
<!-- proc~reconstruct_interfaces_states~2 -->
<g id="node1" class="node"><title>proc~reconstruct_interfaces_states~2</title>
<polygon fill="none" stroke="black" points="153,-136 1,-136 1,-110 153,-110 153,-136"/>
<text text-anchor="middle" x="77" y="-120.55" font-family="Helvetica,sans-Serif" font-size="10.50">reconstruct_interfaces_states</text>
</g>
<!-- cr -->
<g id="node2" class="node"><title>cr</title>
<polygon fill="#777777" stroke="#777777" points="256,-246 202,-246 202,-220 256,-220 256,-246"/>
<text text-anchor="middle" x="229" y="-230.55" font-family="Helvetica,sans-Serif" font-size="10.50" fill="white">cr</text>
</g>
<!-- proc~reconstruct_interfaces_states~2&#45;&gt;cr -->
<g id="edge10" class="edge"><title>proc~reconstruct_interfaces_states~2&#45;&gt;cr</title>
<path fill="none" stroke="black" d="M92.538,-136.302C113.826,-154.243 153.578,-186.738 190,-211 191.84,-212.226 193.752,-213.45 195.698,-214.659"/>
<polygon fill="black" stroke="black" points="193.946,-217.689 204.325,-219.813 197.535,-211.68 193.946,-217.689"/>
</g>
<!-- none~eigen_vect_r~2 -->
<g id="node3" class="node"><title>none~eigen_vect_r~2</title>
<polygon fill="#d94e8f" stroke="#d94e8f" points="268,-202 190,-202 190,-176 268,-176 268,-202"/>
<text text-anchor="middle" x="229" y="-186.55" font-family="Helvetica,sans-Serif" font-size="10.50" fill="white">eigen_vect_R</text>
</g>
<!-- proc~reconstruct_interfaces_states~2&#45;&gt;none~eigen_vect_r~2 -->
<g id="edge12" class="edge"><title>proc~reconstruct_interfaces_states~2&#45;&gt;none~eigen_vect_r~2</title>
<path fill="none" stroke="black" d="M107.03,-136.039C130.659,-146.299 163.785,-160.683 189.552,-171.871"/>
<polygon fill="black" stroke="black" points="188.465,-175.215 199.032,-175.988 191.253,-168.794 188.465,-175.215"/>
</g>
<!-- pm -->
<g id="node4" class="node"><title>pm</title>
<polygon fill="#777777" stroke="#777777" points="256,-158 202,-158 202,-132 256,-132 256,-158"/>
<text text-anchor="middle" x="229" y="-142.55" font-family="Helvetica,sans-Serif" font-size="10.50" fill="white">pm</text>
</g>
<!-- proc~reconstruct_interfaces_states~2&#45;&gt;pm -->
<g id="edge14" class="edge"><title>proc~reconstruct_interfaces_states~2&#45;&gt;pm</title>
<path fill="none" stroke="black" d="M153.891,-134.129C167.083,-136.038 180.239,-137.942 191.769,-139.611"/>
<polygon fill="black" stroke="black" points="191.457,-143.103 201.856,-141.071 192.46,-136.175 191.457,-143.103"/>
</g>
<!-- lpm -->
<g id="node5" class="node"><title>lpm</title>
<polygon fill="#777777" stroke="#777777" points="256,-114 202,-114 202,-88 256,-88 256,-114"/>
<text text-anchor="middle" x="229" y="-98.55" font-family="Helvetica,sans-Serif" font-size="10.50" fill="white">lpm</text>
</g>
<!-- proc~reconstruct_interfaces_states~2&#45;&gt;lpm -->
<g id="edge16" class="edge"><title>proc~reconstruct_interfaces_states~2&#45;&gt;lpm</title>
<path fill="none" stroke="black" d="M153.891,-111.871C167.083,-109.962 180.239,-108.058 191.769,-106.389"/>
<polygon fill="black" stroke="black" points="192.46,-109.825 201.856,-104.929 191.457,-102.897 192.46,-109.825"/>
</g>
<!-- none~eigen_vect_l~2 -->
<g id="node6" class="node"><title>none~eigen_vect_l~2</title>
<polygon fill="#d94e8f" stroke="#d94e8f" points="267,-70 191,-70 191,-44 267,-44 267,-70"/>
<text text-anchor="middle" x="229" y="-54.55" font-family="Helvetica,sans-Serif" font-size="10.50" fill="white">eigen_vect_L</text>
</g>
<!-- proc~reconstruct_interfaces_states~2&#45;&gt;none~eigen_vect_l~2 -->
<g id="edge18" class="edge"><title>proc~reconstruct_interfaces_states~2&#45;&gt;none~eigen_vect_l~2</title>
<path fill="none" stroke="black" d="M107.03,-109.961C130.659,-99.7006 163.785,-85.3172 189.552,-74.1288"/>
<polygon fill="black" stroke="black" points="191.253,-77.2057 199.032,-70.0124 188.465,-70.7849 191.253,-77.2057"/>
</g>
<!-- rpm -->
<g id="node7" class="node"><title>rpm</title>
<polygon fill="#777777" stroke="#777777" points="256,-26 202,-26 202,-1.24345e-14 256,-3.55271e-15 256,-26"/>
<text text-anchor="middle" x="229" y="-10.55" font-family="Helvetica,sans-Serif" font-size="10.50" fill="white">rpm</text>
</g>
<!-- proc~reconstruct_interfaces_states~2&#45;&gt;rpm -->
<g id="edge20" class="edge"><title>proc~reconstruct_interfaces_states~2&#45;&gt;rpm</title>
<path fill="none" stroke="black" d="M92.538,-109.698C113.826,-91.7573 153.578,-59.2617 190,-35 191.84,-33.7744 193.752,-32.5497 195.698,-31.3406"/>
<polygon fill="black" stroke="black" points="197.535,-34.3202 204.325,-26.1872 193.946,-28.3107 197.535,-34.3202"/>
</g>
<!-- proc~a~2 -->
<g id="node8" class="node"><title>proc~a~2</title>
<a xlink:href="../proc/a%7E2.html" xlink:title="a">
<polygon fill="#d94e8f" stroke="#d94e8f" points="358,-136 304,-136 304,-110 358,-110 358,-136"/>
<text text-anchor="middle" x="331" y="-120.55" font-family="Helvetica,sans-Serif" font-size="10.50" fill="white">a</text>
</a>
</g>
<!-- none~eigen_vect_r~2&#45;&gt;proc~a~2 -->
<g id="edge2" class="edge"><title>none~eigen_vect_r~2&#45;&gt;proc~a~2</title>
<path fill="none" stroke="black" d="M253.138,-175.862C258.105,-173.025 263.263,-169.981 268,-167 280.296,-159.263 293.529,-150.148 304.679,-142.226"/>
<polygon fill="black" stroke="black" points="307.028,-144.848 313.116,-136.178 302.949,-139.159 307.028,-144.848"/>
</g>
<!-- proc~r~2 -->
<g id="node9" class="node"><title>proc~r~2</title>
<a xlink:href="../proc/r%7E2.html" xlink:title="r">
<polygon fill="#d94e8f" stroke="#d94e8f" points="358,-202 304,-202 304,-176 358,-176 358,-202"/>
<text text-anchor="middle" x="331" y="-186.55" font-family="Helvetica,sans-Serif" font-size="10.50" fill="white">r</text>
</a>
</g>
<!-- none~eigen_vect_r~2&#45;&gt;proc~r~2 -->
<g id="edge4" class="edge"><title>none~eigen_vect_r~2&#45;&gt;proc~r~2</title>
<path fill="none" stroke="black" d="M268.144,-189C276.519,-189 285.345,-189 293.649,-189"/>
<polygon fill="black" stroke="black" points="293.817,-192.5 303.817,-189 293.817,-185.5 293.817,-192.5"/>
</g>
<!-- none~eigen_vect_l~2&#45;&gt;proc~a~2 -->
<g id="edge6" class="edge"><title>none~eigen_vect_l~2&#45;&gt;proc~a~2</title>
<path fill="none" stroke="black" d="M253.138,-70.1384C258.105,-72.9748 263.263,-76.0191 268,-79 280.296,-86.7367 293.529,-95.8524 304.679,-103.774"/>
<polygon fill="black" stroke="black" points="302.949,-106.841 313.116,-109.822 307.028,-101.152 302.949,-106.841"/>
</g>
<!-- l -->
<g id="node12" class="node"><title>l</title>
<polygon fill="#777777" stroke="#777777" points="358,-70 304,-70 304,-44 358,-44 358,-70"/>
<text text-anchor="middle" x="331" y="-54.55" font-family="Helvetica,sans-Serif" font-size="10.50" fill="white">l</text>
</g>
<!-- none~eigen_vect_l~2&#45;&gt;l -->
<g id="edge8" class="edge"><title>none~eigen_vect_l~2&#45;&gt;l</title>
<path fill="none" stroke="black" d="M267.271,-57C275.952,-57 285.158,-57 293.794,-57"/>
<polygon fill="black" stroke="black" points="293.971,-60.5001 303.971,-57 293.971,-53.5001 293.971,-60.5001"/>
</g>
</g>
</svg>
