<?xml version="1.0" encoding="UTF-8" standalone="no"?>
<!DOCTYPE svg PUBLIC "-//W3C//DTD SVG 1.1//EN"
 "http://www.w3.org/Graphics/SVG/1.1/DTD/svg11.dtd">
<!-- Generated by graphviz version 2.26.3 (20100126.1600)
 -->
<!-- Title: proc~~deuler_dt~~CallsGraph Pages: 1 -->
<svg width="156pt" height="166pt"
 viewBox="0.00 0.00 156.00 166.00" xmlns="http://www.w3.org/2000/svg" xmlns:xlink="http://www.w3.org/1999/xlink">
<g id="graph1" class="graph" transform="scale(1 1) rotate(0) translate(4 162)">
<title>proc~~deuler_dt~~CallsGraph</title>
<polygon fill="white" stroke="white" points="-4,5 -4,-162 153,-162 153,5 -4,5"/>
<!-- proc~deuler_dt -->
<g id="node1" class="node"><title>proc~deuler_dt</title>
<polygon fill="none" stroke="black" points="58,-92 2.4869e-14,-92 0,-66 58,-66 58,-92"/>
<text text-anchor="middle" x="29" y="-76.55" font-family="Helvetica,sans-Serif" font-size="10.50">dEuler_dt</text>
</g>
<!-- pr -->
<g id="node2" class="node"><title>pr</title>
<polygon fill="#777777" stroke="#777777" points="148,-158 94,-158 94,-132 148,-132 148,-158"/>
<text text-anchor="middle" x="121" y="-142.55" font-family="Helvetica,sans-Serif" font-size="10.50" fill="white">pr</text>
</g>
<!-- proc~deuler_dt&#45;&gt;pr -->
<g id="edge2" class="edge"><title>proc~deuler_dt&#45;&gt;pr</title>
<path fill="none" stroke="black" d="M47.1762,-92.0395C60.659,-101.712 79.2499,-115.049 94.4021,-125.919"/>
<polygon fill="black" stroke="black" points="92.6959,-129.002 102.862,-131.988 96.7763,-123.315 92.6959,-129.002"/>
</g>
<!-- f -->
<g id="node3" class="node"><title>f</title>
<polygon fill="#777777" stroke="#777777" points="148,-114 94,-114 94,-88 148,-88 148,-114"/>
<text text-anchor="middle" x="121" y="-98.55" font-family="Helvetica,sans-Serif" font-size="10.50" fill="white">f</text>
</g>
<!-- proc~deuler_dt&#45;&gt;f -->
<g id="edge4" class="edge"><title>proc~deuler_dt&#45;&gt;f</title>
<path fill="none" stroke="black" d="M58.1094,-85.9609C66.3578,-87.9334 75.4477,-90.1071 84.0916,-92.1741"/>
<polygon fill="black" stroke="black" points="83.4168,-95.6113 93.9566,-94.5331 85.0448,-88.8033 83.4168,-95.6113"/>
</g>
<!-- u -->
<g id="node4" class="node"><title>u</title>
<polygon fill="#777777" stroke="#777777" points="148,-70 94,-70 94,-44 148,-44 148,-70"/>
<text text-anchor="middle" x="121" y="-54.55" font-family="Helvetica,sans-Serif" font-size="10.50" fill="white">u</text>
</g>
<!-- proc~deuler_dt&#45;&gt;u -->
<g id="edge6" class="edge"><title>proc~deuler_dt&#45;&gt;u</title>
<path fill="none" stroke="black" d="M58.1094,-72.0391C66.3578,-70.0666 75.4477,-67.8929 84.0916,-65.8259"/>
<polygon fill="black" stroke="black" points="85.0448,-69.1967 93.9566,-63.4669 83.4168,-62.3887 85.0448,-69.1967"/>
</g>
<!-- proc~p -->
<g id="node5" class="node"><title>proc~p</title>
<a xlink:href="../proc/p.html" xlink:title="p">
<polygon fill="#d94e8f" stroke="#d94e8f" points="148,-26 94,-26 94,-1.24345e-14 148,-3.55271e-15 148,-26"/>
<text text-anchor="middle" x="121" y="-10.55" font-family="Helvetica,sans-Serif" font-size="10.50" fill="white">p</text>
</a>
</g>
<!-- proc~deuler_dt&#45;&gt;proc~p -->
<g id="edge8" class="edge"><title>proc~deuler_dt&#45;&gt;proc~p</title>
<path fill="none" stroke="black" d="M47.1762,-65.9605C60.659,-56.2881 79.2499,-42.9511 94.4021,-32.0811"/>
<polygon fill="black" stroke="black" points="96.7763,-34.6854 102.862,-26.0124 92.6959,-28.9976 96.7763,-34.6854"/>
</g>
</g>
</svg>
