<?xml version="1.0" encoding="UTF-8" standalone="no"?>
<!DOCTYPE svg PUBLIC "-//W3C//DTD SVG 1.1//EN"
 "http://www.w3.org/Graphics/SVG/1.1/DTD/svg11.dtd">
<!-- Generated by graphviz version 2.26.3 (20100126.1600)
 -->
<!-- Title: proc~~init~6~~CallsGraph Pages: 1 -->
<svg width="236pt" height="34pt"
 viewBox="0.00 0.00 236.00 34.00" xmlns="http://www.w3.org/2000/svg" xmlns:xlink="http://www.w3.org/1999/xlink">
<g id="graph1" class="graph" transform="scale(1 1) rotate(0) translate(4 30)">
<title>proc~~init~6~~CallsGraph</title>
<polygon fill="white" stroke="white" points="-4,5 -4,-30 233,-30 233,5 -4,5"/>
<!-- proc~init~6 -->
<g id="node1" class="node"><title>proc~init~6</title>
<polygon fill="none" stroke="black" points="54,-26 2.13163e-14,-26 0,-1.24345e-14 54,-3.55271e-15 54,-26"/>
<text text-anchor="middle" x="27" y="-10.55" font-family="Helvetica,sans-Serif" font-size="10.50">init</text>
</g>
<!-- weno_constructor_upwind -->
<g id="node2" class="node"><title>weno_constructor_upwind</title>
<polygon fill="#777777" stroke="#777777" points="227,-26 91,-26 91,-1.24345e-14 227,-3.55271e-15 227,-26"/>
<text text-anchor="middle" x="159" y="-10.55" font-family="Helvetica,sans-Serif" font-size="10.50" fill="white">weno_constructor_upwind</text>
</g>
<!-- proc~init~6&#45;&gt;weno_constructor_upwind -->
<g id="edge2" class="edge"><title>proc~init~6&#45;&gt;weno_constructor_upwind</title>
<path fill="none" stroke="black" d="M54.0307,-13C61.8409,-13 70.7853,-13 80.0858,-13"/>
<polygon fill="black" stroke="black" points="80.2808,-16.5001 90.2808,-13 80.2808,-9.5001 80.2808,-16.5001"/>
</g>
</g>
</svg>
