<?xml version="1.0" encoding="UTF-8" standalone="no"?>
<!DOCTYPE svg PUBLIC "-//W3C//DTD SVG 1.1//EN"
 "http://www.w3.org/Graphics/SVG/1.1/DTD/svg11.dtd">
<!-- Generated by graphviz version 2.26.3 (20100126.1600)
 -->
<!-- Title: proc~~riemann_solver~~CallsGraph Pages: 1 -->
<svg width="336pt" height="254pt"
 viewBox="0.00 0.00 336.00 254.00" xmlns="http://www.w3.org/2000/svg" xmlns:xlink="http://www.w3.org/1999/xlink">
<g id="graph1" class="graph" transform="scale(1 1) rotate(0) translate(4 250)">
<title>proc~~riemann_solver~~CallsGraph</title>
<polygon fill="white" stroke="white" points="-4,5 -4,-250 333,-250 333,5 -4,5"/>
<!-- proc~riemann_solver -->
<g id="node1" class="node"><title>proc~riemann_solver</title>
<polygon fill="none" stroke="black" points="86,-136 4.26326e-14,-136 0,-110 86,-110 86,-136"/>
<text text-anchor="middle" x="43" y="-120.55" font-family="Helvetica,sans-Serif" font-size="10.50">riemann_solver</text>
</g>
<!-- proc~compute_inter_states -->
<g id="node2" class="node"><title>proc~compute_inter_states</title>
<a xlink:href="../proc/compute_inter_states.html" xlink:title="compute_inter_states">
<polygon fill="#d9534f" stroke="#d9534f" points="237,-246 123,-246 123,-220 237,-220 237,-246"/>
<text text-anchor="middle" x="180" y="-230.55" font-family="Helvetica,sans-Serif" font-size="10.50" fill="white">compute_inter_states</text>
</a>
</g>
<!-- proc~riemann_solver&#45;&gt;proc~compute_inter_states -->
<g id="edge6" class="edge"><title>proc~riemann_solver&#45;&gt;proc~compute_inter_states</title>
<path fill="none" stroke="black" d="M51.6942,-136.138C64.8448,-155.088 91.5178,-190.106 122,-211 124.254,-212.545 126.631,-214 129.085,-215.367"/>
<polygon fill="black" stroke="black" points="127.712,-218.594 138.221,-219.941 130.845,-212.335 127.712,-218.594"/>
</g>
<!-- none~fluxes -->
<g id="node3" class="node"><title>none~fluxes</title>
<polygon fill="#d94e8f" stroke="#d94e8f" points="207,-202 153,-202 153,-176 207,-176 207,-202"/>
<text text-anchor="middle" x="180" y="-186.55" font-family="Helvetica,sans-Serif" font-size="10.50" fill="white">fluxes</text>
</g>
<!-- proc~riemann_solver&#45;&gt;none~fluxes -->
<g id="edge8" class="edge"><title>proc~riemann_solver&#45;&gt;none~fluxes</title>
<path fill="none" stroke="black" d="M64.3524,-136.008C80.0021,-145.265 101.929,-157.665 122,-167 128.781,-170.154 136.15,-173.215 143.29,-176.002"/>
<polygon fill="black" stroke="black" points="142.216,-179.338 152.807,-179.616 144.701,-172.794 142.216,-179.338"/>
</g>
<!-- f1 -->
<g id="node4" class="node"><title>f1</title>
<polygon fill="#777777" stroke="#777777" points="207,-158 153,-158 153,-132 207,-132 207,-158"/>
<text text-anchor="middle" x="180" y="-142.55" font-family="Helvetica,sans-Serif" font-size="10.50" fill="white">f1</text>
</g>
<!-- proc~riemann_solver&#45;&gt;f1 -->
<g id="edge10" class="edge"><title>proc~riemann_solver&#45;&gt;f1</title>
<path fill="none" stroke="black" d="M86.3477,-129.961C104.395,-132.859 125.147,-136.192 142.523,-138.982"/>
<polygon fill="black" stroke="black" points="142.423,-142.51 152.851,-140.64 143.533,-135.599 142.423,-142.51"/>
</g>
<!-- f -->
<g id="node5" class="node"><title>f</title>
<polygon fill="#777777" stroke="#777777" points="207,-114 153,-114 153,-88 207,-88 207,-114"/>
<text text-anchor="middle" x="180" y="-98.55" font-family="Helvetica,sans-Serif" font-size="10.50" fill="white">f</text>
</g>
<!-- proc~riemann_solver&#45;&gt;f -->
<g id="edge12" class="edge"><title>proc~riemann_solver&#45;&gt;f</title>
<path fill="none" stroke="black" d="M86.3477,-116.039C104.395,-113.141 125.147,-109.808 142.523,-107.018"/>
<polygon fill="black" stroke="black" points="143.533,-110.401 152.851,-105.36 142.423,-103.49 143.533,-110.401"/>
</g>
<!-- proc~e -->
<g id="node6" class="node"><title>proc~e</title>
<a xlink:href="../proc/e.html" xlink:title="E">
<polygon fill="#d94e8f" stroke="#d94e8f" points="207,-70 153,-70 153,-44 207,-44 207,-70"/>
<text text-anchor="middle" x="180" y="-54.55" font-family="Helvetica,sans-Serif" font-size="10.50" fill="white">E</text>
</a>
</g>
<!-- proc~riemann_solver&#45;&gt;proc~e -->
<g id="edge14" class="edge"><title>proc~riemann_solver&#45;&gt;proc~e</title>
<path fill="none" stroke="black" d="M64.3524,-109.992C80.0021,-100.735 101.929,-88.3354 122,-79 128.781,-75.8462 136.15,-72.7848 143.29,-69.9975"/>
<polygon fill="black" stroke="black" points="144.701,-73.2057 152.807,-66.3838 142.216,-66.6616 144.701,-73.2057"/>
</g>
<!-- f4 -->
<g id="node7" class="node"><title>f4</title>
<polygon fill="#777777" stroke="#777777" points="207,-26 153,-26 153,-1.24345e-14 207,-3.55271e-15 207,-26"/>
<text text-anchor="middle" x="180" y="-10.55" font-family="Helvetica,sans-Serif" font-size="10.50" fill="white">f4</text>
</g>
<!-- proc~riemann_solver&#45;&gt;f4 -->
<g id="edge16" class="edge"><title>proc~riemann_solver&#45;&gt;f4</title>
<path fill="none" stroke="black" d="M51.6942,-109.862C64.8448,-90.9116 91.5178,-55.8939 122,-35 128.351,-30.6465 135.679,-27.0087 142.943,-24.0264"/>
<polygon fill="black" stroke="black" points="144.578,-27.1512 152.71,-20.3603 142.118,-20.5977 144.578,-27.1512"/>
</g>
<!-- fc -->
<g id="node8" class="node"><title>fc</title>
<polygon fill="#777777" stroke="#777777" points="328,-224 274,-224 274,-198 328,-198 328,-224"/>
<text text-anchor="middle" x="301" y="-208.55" font-family="Helvetica,sans-Serif" font-size="10.50" fill="white">fc</text>
</g>
<!-- none~fluxes&#45;&gt;fc -->
<g id="edge2" class="edge"><title>none~fluxes&#45;&gt;fc</title>
<path fill="none" stroke="black" d="M207.155,-193.937C223.891,-196.98 245.578,-200.923 263.887,-204.252"/>
<polygon fill="black" stroke="black" points="263.471,-207.734 273.936,-206.079 264.723,-200.847 263.471,-207.734"/>
</g>
<!-- proc~h -->
<g id="node9" class="node"><title>proc~h</title>
<a xlink:href="../proc/h.html" xlink:title="H">
<polygon fill="#d94e8f" stroke="#d94e8f" points="328,-180 274,-180 274,-154 328,-154 328,-180"/>
<text text-anchor="middle" x="301" y="-164.55" font-family="Helvetica,sans-Serif" font-size="10.50" fill="white">H</text>
</a>
</g>
<!-- none~fluxes&#45;&gt;proc~h -->
<g id="edge4" class="edge"><title>none~fluxes&#45;&gt;proc~h</title>
<path fill="none" stroke="black" d="M207.155,-184.063C223.891,-181.02 245.578,-177.077 263.887,-173.748"/>
<polygon fill="black" stroke="black" points="264.723,-177.153 273.936,-171.921 263.471,-170.266 264.723,-177.153"/>
</g>
</g>
</svg>
