<?xml version="1.0" encoding="UTF-8" standalone="no"?>
<!DOCTYPE svg PUBLIC "-//W3C//DTD SVG 1.1//EN"
 "http://www.w3.org/Graphics/SVG/1.1/DTD/svg11.dtd">
<!-- Generated by graphviz version 2.26.3 (20100126.1600)
 -->
<!-- Title: proc~~deuler_dt~~CallsGraph Pages: 1 -->
<svg width="156pt" height="210pt"
 viewBox="0.00 0.00 156.00 210.00" xmlns="http://www.w3.org/2000/svg" xmlns:xlink="http://www.w3.org/1999/xlink">
<g id="graph1" class="graph" transform="scale(1 1) rotate(0) translate(4 206)">
<title>proc~~deuler_dt~~CallsGraph</title>
<polygon fill="white" stroke="white" points="-4,5 -4,-206 153,-206 153,5 -4,5"/>
<!-- proc~deuler_dt -->
<g id="node1" class="node"><title>proc~deuler_dt</title>
<polygon fill="none" stroke="black" points="58,-114 2.4869e-14,-114 0,-88 58,-88 58,-114"/>
<text text-anchor="middle" x="29" y="-98.55" font-family="Helvetica,sans-Serif" font-size="10.50">dEuler_dt</text>
</g>
<!-- pr -->
<g id="node2" class="node"><title>pr</title>
<polygon fill="#777777" stroke="#777777" points="148,-202 94,-202 94,-176 148,-176 148,-202"/>
<text text-anchor="middle" x="121" y="-186.55" font-family="Helvetica,sans-Serif" font-size="10.50" fill="white">pr</text>
</g>
<!-- proc~deuler_dt&#45;&gt;pr -->
<g id="edge2" class="edge"><title>proc~deuler_dt&#45;&gt;pr</title>
<path fill="none" stroke="black" d="M41.0618,-114.068C53.8206,-127.692 74.7319,-149.464 94,-167 94.8049,-167.733 95.6301,-168.471 96.4688,-169.211"/>
<polygon fill="black" stroke="black" points="94.311,-171.97 104.196,-175.783 98.8464,-166.638 94.311,-171.97"/>
</g>
<!-- previous -->
<g id="node3" class="node"><title>previous</title>
<polygon fill="#777777" stroke="#777777" points="148,-158 94,-158 94,-132 148,-132 148,-158"/>
<text text-anchor="middle" x="121" y="-142.55" font-family="Helvetica,sans-Serif" font-size="10.50" fill="white">previous</text>
</g>
<!-- proc~deuler_dt&#45;&gt;previous -->
<g id="edge4" class="edge"><title>proc~deuler_dt&#45;&gt;previous</title>
<path fill="none" stroke="black" d="M56.603,-114.201C65.4156,-118.416 75.3066,-123.147 84.6428,-127.612"/>
<polygon fill="black" stroke="black" points="83.202,-130.802 93.7335,-131.959 86.2223,-124.487 83.202,-130.802"/>
</g>
<!-- f -->
<g id="node4" class="node"><title>f</title>
<polygon fill="#777777" stroke="#777777" points="148,-114 94,-114 94,-88 148,-88 148,-114"/>
<text text-anchor="middle" x="121" y="-98.55" font-family="Helvetica,sans-Serif" font-size="10.50" fill="white">f</text>
</g>
<!-- proc~deuler_dt&#45;&gt;f -->
<g id="edge6" class="edge"><title>proc~deuler_dt&#45;&gt;f</title>
<path fill="none" stroke="black" d="M58.1094,-101C66.2682,-101 75.2502,-101 83.8095,-101"/>
<polygon fill="black" stroke="black" points="83.9566,-104.5 93.9566,-101 83.9566,-97.5001 83.9566,-104.5"/>
</g>
<!-- u -->
<g id="node5" class="node"><title>u</title>
<polygon fill="#777777" stroke="#777777" points="148,-70 94,-70 94,-44 148,-44 148,-70"/>
<text text-anchor="middle" x="121" y="-54.55" font-family="Helvetica,sans-Serif" font-size="10.50" fill="white">u</text>
</g>
<!-- proc~deuler_dt&#45;&gt;u -->
<g id="edge8" class="edge"><title>proc~deuler_dt&#45;&gt;u</title>
<path fill="none" stroke="black" d="M56.603,-87.7985C65.4156,-83.5839 75.3066,-78.8534 84.6428,-74.3882"/>
<polygon fill="black" stroke="black" points="86.2223,-77.5126 93.7335,-70.0405 83.202,-71.1976 86.2223,-77.5126"/>
</g>
<!-- proc~p -->
<g id="node6" class="node"><title>proc~p</title>
<a xlink:href="../proc/p.html" xlink:title="p">
<polygon fill="#d94e8f" stroke="#d94e8f" points="148,-26 94,-26 94,-1.24345e-14 148,-3.55271e-15 148,-26"/>
<text text-anchor="middle" x="121" y="-10.55" font-family="Helvetica,sans-Serif" font-size="10.50" fill="white">p</text>
</a>
</g>
<!-- proc~deuler_dt&#45;&gt;proc~p -->
<g id="edge10" class="edge"><title>proc~deuler_dt&#45;&gt;proc~p</title>
<path fill="none" stroke="black" d="M41.0618,-87.9322C53.8206,-74.3078 74.7319,-52.536 94,-35 94.8049,-34.2674 95.6301,-33.5291 96.4688,-32.7895"/>
<polygon fill="black" stroke="black" points="98.8464,-35.362 104.196,-26.2168 94.311,-30.0301 98.8464,-35.362"/>
</g>
</g>
</svg>
