<?xml version="1.0" encoding="UTF-8" standalone="no"?>
<!DOCTYPE svg PUBLIC "-//W3C//DTD SVG 1.1//EN"
 "http://www.w3.org/Graphics/SVG/1.1/DTD/svg11.dtd">
<!-- Generated by graphviz version 2.26.3 (20100126.1600)
 -->
<!-- Title: proc~~deuler_dt~~CallsGraph Pages: 1 -->
<svg width="156pt" height="122pt"
 viewBox="0.00 0.00 156.00 122.00" xmlns="http://www.w3.org/2000/svg" xmlns:xlink="http://www.w3.org/1999/xlink">
<g id="graph1" class="graph" transform="scale(1 1) rotate(0) translate(4 118)">
<title>proc~~deuler_dt~~CallsGraph</title>
<polygon fill="white" stroke="white" points="-4,5 -4,-118 153,-118 153,5 -4,5"/>
<!-- proc~deuler_dt -->
<g id="node1" class="node"><title>proc~deuler_dt</title>
<polygon fill="none" stroke="black" points="58,-70 2.4869e-14,-70 0,-44 58,-44 58,-70"/>
<text text-anchor="middle" x="29" y="-54.55" font-family="Helvetica,sans-Serif" font-size="10.50">dEuler_dt</text>
</g>
<!-- f -->
<g id="node2" class="node"><title>f</title>
<polygon fill="#777777" stroke="#777777" points="148,-114 94,-114 94,-88 148,-88 148,-114"/>
<text text-anchor="middle" x="121" y="-98.55" font-family="Helvetica,sans-Serif" font-size="10.50" fill="white">f</text>
</g>
<!-- proc~deuler_dt&#45;&gt;f -->
<g id="edge2" class="edge"><title>proc~deuler_dt&#45;&gt;f</title>
<path fill="none" stroke="black" d="M56.603,-70.2015C65.4156,-74.4161 75.3066,-79.1466 84.6428,-83.6118"/>
<polygon fill="black" stroke="black" points="83.202,-86.8024 93.7335,-87.9595 86.2223,-80.4874 83.202,-86.8024"/>
</g>
<!-- pr -->
<g id="node3" class="node"><title>pr</title>
<polygon fill="#777777" stroke="#777777" points="148,-70 94,-70 94,-44 148,-44 148,-70"/>
<text text-anchor="middle" x="121" y="-54.55" font-family="Helvetica,sans-Serif" font-size="10.50" fill="white">pr</text>
</g>
<!-- proc~deuler_dt&#45;&gt;pr -->
<g id="edge4" class="edge"><title>proc~deuler_dt&#45;&gt;pr</title>
<path fill="none" stroke="black" d="M58.1094,-57C66.2682,-57 75.2502,-57 83.8095,-57"/>
<polygon fill="black" stroke="black" points="83.9566,-60.5001 93.9566,-57 83.9566,-53.5001 83.9566,-60.5001"/>
</g>
<!-- proc~p -->
<g id="node4" class="node"><title>proc~p</title>
<a xlink:href="../proc/p.html" xlink:title="p">
<polygon fill="#d94e8f" stroke="#d94e8f" points="148,-26 94,-26 94,-1.24345e-14 148,-3.55271e-15 148,-26"/>
<text text-anchor="middle" x="121" y="-10.55" font-family="Helvetica,sans-Serif" font-size="10.50" fill="white">p</text>
</a>
</g>
<!-- proc~deuler_dt&#45;&gt;proc~p -->
<g id="edge6" class="edge"><title>proc~deuler_dt&#45;&gt;proc~p</title>
<path fill="none" stroke="black" d="M56.603,-43.7985C65.4156,-39.5839 75.3066,-34.8534 84.6428,-30.3882"/>
<polygon fill="black" stroke="black" points="86.2223,-33.5126 93.7335,-26.0405 83.202,-27.1976 86.2223,-33.5126"/>
</g>
</g>
</svg>
