<?xml version="1.0" encoding="UTF-8" standalone="no"?>
<!DOCTYPE svg PUBLIC "-//W3C//DTD SVG 1.1//EN"
 "http://www.w3.org/Graphics/SVG/1.1/DTD/svg11.dtd">
<!-- Generated by graphviz version 2.26.3 (20100126.1600)
 -->
<!-- Title: proc~~save_results~~CalledByGraph Pages: 1 -->
<svg width="328pt" height="210pt"
 viewBox="0.00 0.00 328.00 210.00" xmlns="http://www.w3.org/2000/svg" xmlns:xlink="http://www.w3.org/1999/xlink">
<g id="graph1" class="graph" transform="scale(1 1) rotate(0) translate(4 206)">
<title>proc~~save_results~~CalledByGraph</title>
<polygon fill="white" stroke="white" points="-4,5 -4,-206 325,-206 325,5 -4,5"/>
<!-- proc~save_results -->
<g id="node1" class="node"><title>proc~save_results</title>
<polygon fill="none" stroke="black" points="319,-114 247,-114 247,-88 319,-88 319,-114"/>
<text text-anchor="middle" x="283" y="-98.55" font-family="Helvetica,sans-Serif" font-size="10.50">save_results</text>
</g>
<!-- proc~test_ab -->
<g id="node2" class="node"><title>proc~test_ab</title>
<a xlink:href="../proc/test_ab.html" xlink:title="test_ab">
<polygon fill="#d9534f" stroke="#d9534f" points="199,-202 145,-202 145,-176 199,-176 199,-202"/>
<text text-anchor="middle" x="172" y="-186.55" font-family="Helvetica,sans-Serif" font-size="10.50" fill="white">test_ab</text>
</a>
</g>
<!-- proc~test_ab&#45;&gt;proc~save_results -->
<g id="edge12" class="edge"><title>proc~test_ab&#45;&gt;proc~save_results</title>
<path fill="none" stroke="black" d="M196.604,-175.773C201.167,-173.037 205.811,-170.054 210,-167 229.104,-153.073 248.884,-134.918 263.028,-121.176"/>
<polygon fill="black" stroke="black" points="265.595,-123.56 270.265,-114.05 260.684,-118.572 265.595,-123.56"/>
</g>
<!-- proc~test_ls_rk -->
<g id="node3" class="node"><title>proc~test_ls_rk</title>
<a xlink:href="../proc/test_ls_rk.html" xlink:title="test_ls_rk">
<polygon fill="#d9534f" stroke="#d9534f" points="201,-158 143,-158 143,-132 201,-132 201,-158"/>
<text text-anchor="middle" x="172" y="-142.55" font-family="Helvetica,sans-Serif" font-size="10.50" fill="white">test_ls_rk</text>
</a>
</g>
<!-- proc~test_ls_rk&#45;&gt;proc~save_results -->
<g id="edge14" class="edge"><title>proc~test_ls_rk&#45;&gt;proc~save_results</title>
<path fill="none" stroke="black" d="M201.164,-133.44C213.259,-128.645 227.526,-122.99 240.732,-117.755"/>
<polygon fill="black" stroke="black" points="242.108,-120.975 250.114,-114.036 239.528,-114.467 242.108,-120.975"/>
</g>
<!-- proc~test_leapfrog -->
<g id="node4" class="node"><title>proc~test_leapfrog</title>
<a xlink:href="../proc/test_leapfrog.html" xlink:title="test_leapfrog">
<polygon fill="#d9534f" stroke="#d9534f" points="209,-114 135,-114 135,-88 209,-88 209,-114"/>
<text text-anchor="middle" x="172" y="-98.55" font-family="Helvetica,sans-Serif" font-size="10.50" fill="white">test_leapfrog</text>
</a>
</g>
<!-- proc~test_leapfrog&#45;&gt;proc~save_results -->
<g id="edge16" class="edge"><title>proc~test_leapfrog&#45;&gt;proc~save_results</title>
<path fill="none" stroke="black" d="M209.58,-101C218.078,-101 227.205,-101 236.036,-101"/>
<polygon fill="black" stroke="black" points="236.212,-104.5 246.212,-101 236.212,-97.5001 236.212,-104.5"/>
</g>
<!-- proc~test_tvd_rk -->
<g id="node5" class="node"><title>proc~test_tvd_rk</title>
<a xlink:href="../proc/test_tvd_rk.html" xlink:title="test_tvd_rk">
<polygon fill="#d9534f" stroke="#d9534f" points="204,-70 140,-70 140,-44 204,-44 204,-70"/>
<text text-anchor="middle" x="172" y="-54.55" font-family="Helvetica,sans-Serif" font-size="10.50" fill="white">test_tvd_rk</text>
</a>
</g>
<!-- proc~test_tvd_rk&#45;&gt;proc~save_results -->
<g id="edge18" class="edge"><title>proc~test_tvd_rk&#45;&gt;proc~save_results</title>
<path fill="none" stroke="black" d="M204.703,-69.9635C216.006,-74.444 228.836,-79.5297 240.792,-84.2689"/>
<polygon fill="black" stroke="black" points="239.561,-87.5458 250.147,-87.9771 242.14,-81.0384 239.561,-87.5458"/>
</g>
<!-- proc~test_euler -->
<g id="node6" class="node"><title>proc~test_euler</title>
<a xlink:href="../proc/test_euler.html" xlink:title="test_euler">
<polygon fill="#d9534f" stroke="#d9534f" points="202,-26 142,-26 142,-1.24345e-14 202,-3.55271e-15 202,-26"/>
<text text-anchor="middle" x="172" y="-10.55" font-family="Helvetica,sans-Serif" font-size="10.50" fill="white">test_euler</text>
</a>
</g>
<!-- proc~test_euler&#45;&gt;proc~save_results -->
<g id="edge20" class="edge"><title>proc~test_euler&#45;&gt;proc~save_results</title>
<path fill="none" stroke="black" d="M196.604,-26.2273C201.167,-28.9626 205.811,-31.9463 210,-35 229.104,-48.9274 248.884,-67.0817 263.028,-80.8243"/>
<polygon fill="black" stroke="black" points="260.684,-83.4283 270.265,-87.9503 265.595,-78.4403 260.684,-83.4283"/>
</g>
<!-- program~integrate_burgers -->
<g id="node7" class="node"><title>program~integrate_burgers</title>
<a xlink:href="../program/integrate_burgers.html" xlink:title="integrate_burgers">
<polygon fill="#f0ad4e" stroke="#f0ad4e" points="97,-114 1,-114 1,-88 97,-88 97,-114"/>
<text text-anchor="middle" x="49" y="-98.55" font-family="Helvetica,sans-Serif" font-size="10.50" fill="white">integrate_burgers</text>
</a>
</g>
<!-- program~integrate_burgers&#45;&gt;proc~test_ab -->
<g id="edge2" class="edge"><title>program~integrate_burgers&#45;&gt;proc~test_ab</title>
<path fill="none" stroke="black" d="M64.5009,-114.069C81.1853,-127.886 108.738,-149.993 134,-167 135.85,-168.245 137.773,-169.493 139.728,-170.727"/>
<polygon fill="black" stroke="black" points="138.021,-173.785 148.383,-175.992 141.659,-167.804 138.021,-173.785"/>
</g>
<!-- program~integrate_burgers&#45;&gt;proc~test_ls_rk -->
<g id="edge4" class="edge"><title>program~integrate_burgers&#45;&gt;proc~test_ls_rk</title>
<path fill="none" stroke="black" d="M85.571,-114.082C100.558,-119.444 117.923,-125.655 133.139,-131.099"/>
<polygon fill="black" stroke="black" points="132.187,-134.475 142.781,-134.548 134.544,-127.884 132.187,-134.475"/>
</g>
<!-- program~integrate_burgers&#45;&gt;proc~test_leapfrog -->
<g id="edge6" class="edge"><title>program~integrate_burgers&#45;&gt;proc~test_leapfrog</title>
<path fill="none" stroke="black" d="M97.6129,-101C106.397,-101 115.548,-101 124.306,-101"/>
<polygon fill="black" stroke="black" points="124.36,-104.5 134.36,-101 124.36,-97.5001 124.36,-104.5"/>
</g>
<!-- program~integrate_burgers&#45;&gt;proc~test_tvd_rk -->
<g id="edge8" class="edge"><title>program~integrate_burgers&#45;&gt;proc~test_tvd_rk</title>
<path fill="none" stroke="black" d="M85.571,-87.9177C99.3799,-82.9779 115.207,-77.3162 129.512,-72.1989"/>
<polygon fill="black" stroke="black" points="130.892,-75.4224 139.129,-68.7587 128.535,-68.8315 130.892,-75.4224"/>
</g>
<!-- program~integrate_burgers&#45;&gt;proc~test_euler -->
<g id="edge10" class="edge"><title>program~integrate_burgers&#45;&gt;proc~test_euler</title>
<path fill="none" stroke="black" d="M64.5009,-87.9311C81.1853,-74.1135 108.738,-52.0067 134,-35 135.85,-33.7548 137.773,-32.5069 139.728,-31.2733"/>
<polygon fill="black" stroke="black" points="141.659,-34.1955 148.383,-26.0079 138.021,-28.2153 141.659,-34.1955"/>
</g>
</g>
</svg>
