<?xml version="1.0" encoding="UTF-8" standalone="no"?>
<!DOCTYPE svg PUBLIC "-//W3C//DTD SVG 1.1//EN"
 "http://www.w3.org/Graphics/SVG/1.1/DTD/svg11.dtd">
<!-- Generated by graphviz version 2.26.3 (20100126.1600)
 -->
<!-- Title: proc~~save_results~4~~CalledByGraph Pages: 1 -->
<svg width="322pt" height="122pt"
 viewBox="0.00 0.00 322.00 122.00" xmlns="http://www.w3.org/2000/svg" xmlns:xlink="http://www.w3.org/1999/xlink">
<g id="graph1" class="graph" transform="scale(1 1) rotate(0) translate(4 118)">
<title>proc~~save_results~4~~CalledByGraph</title>
<polygon fill="white" stroke="white" points="-4,5 -4,-118 319,-118 319,5 -4,5"/>
<!-- proc~save_results~4 -->
<g id="node1" class="node"><title>proc~save_results~4</title>
<polygon fill="none" stroke="black" points="313,-70 241,-70 241,-44 313,-44 313,-70"/>
<text text-anchor="middle" x="277" y="-54.55" font-family="Helvetica,sans-Serif" font-size="10.50">save_results</text>
</g>
<!-- proc~test_ab~3 -->
<g id="node2" class="node"><title>proc~test_ab~3</title>
<a xlink:href="../proc/test_ab%7E3.html" xlink:title="test_ab">
<polygon fill="#d9534f" stroke="#d9534f" points="201,-114 147,-114 147,-88 201,-88 201,-114"/>
<text text-anchor="middle" x="174" y="-98.55" font-family="Helvetica,sans-Serif" font-size="10.50" fill="white">test_ab</text>
</a>
</g>
<!-- proc~test_ab~3&#45;&gt;proc~save_results~4 -->
<g id="edge8" class="edge"><title>proc~test_ab~3&#45;&gt;proc~save_results~4</title>
<path fill="none" stroke="black" d="M201.062,-89.4395C212.067,-84.7382 225.011,-79.209 237.063,-74.0603"/>
<polygon fill="black" stroke="black" points="238.663,-77.183 246.484,-70.0359 235.913,-70.7457 238.663,-77.183"/>
</g>
<!-- proc~test_euler~4 -->
<g id="node3" class="node"><title>proc~test_euler~4</title>
<a xlink:href="../proc/test_euler%7E4.html" xlink:title="test_euler">
<polygon fill="#d9534f" stroke="#d9534f" points="204,-70 144,-70 144,-44 204,-44 204,-70"/>
<text text-anchor="middle" x="174" y="-54.55" font-family="Helvetica,sans-Serif" font-size="10.50" fill="white">test_euler</text>
</a>
</g>
<!-- proc~test_euler~4&#45;&gt;proc~save_results~4 -->
<g id="edge10" class="edge"><title>proc~test_euler~4&#45;&gt;proc~save_results~4</title>
<path fill="none" stroke="black" d="M204.069,-57C212.178,-57 221.149,-57 229.947,-57"/>
<polygon fill="black" stroke="black" points="230.132,-60.5001 240.132,-57 230.132,-53.5001 230.132,-60.5001"/>
</g>
<!-- proc~test_rk~3 -->
<g id="node4" class="node"><title>proc~test_rk~3</title>
<a xlink:href="../proc/test_rk%7E3.html" xlink:title="test_rk">
<polygon fill="#d9534f" stroke="#d9534f" points="201,-26 147,-26 147,-1.24345e-14 201,-3.55271e-15 201,-26"/>
<text text-anchor="middle" x="174" y="-10.55" font-family="Helvetica,sans-Serif" font-size="10.50" fill="white">test_rk</text>
</a>
</g>
<!-- proc~test_rk~3&#45;&gt;proc~save_results~4 -->
<g id="edge12" class="edge"><title>proc~test_rk~3&#45;&gt;proc~save_results~4</title>
<path fill="none" stroke="black" d="M201.062,-24.5605C212.067,-29.2618 225.011,-34.791 237.063,-39.9397"/>
<polygon fill="black" stroke="black" points="235.913,-43.2543 246.484,-43.9641 238.663,-36.817 235.913,-43.2543"/>
</g>
<!-- program~integrate_oscillation -->
<g id="node5" class="node"><title>program~integrate_oscillation</title>
<a xlink:href="../program/integrate_oscillation.html" xlink:title="integrate_oscillation">
<polygon fill="#f0ad4e" stroke="#f0ad4e" points="107,-70 1,-70 1,-44 107,-44 107,-70"/>
<text text-anchor="middle" x="54" y="-54.55" font-family="Helvetica,sans-Serif" font-size="10.50" fill="white">integrate_oscillation</text>
</a>
</g>
<!-- program~integrate_oscillation&#45;&gt;proc~test_ab~3 -->
<g id="edge2" class="edge"><title>program~integrate_oscillation&#45;&gt;proc~test_ab~3</title>
<path fill="none" stroke="black" d="M89.6791,-70.0823C104.641,-75.5683 122.031,-81.9448 137.119,-87.477"/>
<polygon fill="black" stroke="black" points="136.059,-90.8162 146.653,-90.9727 138.469,-84.244 136.059,-90.8162"/>
</g>
<!-- program~integrate_oscillation&#45;&gt;proc~test_euler~4 -->
<g id="edge4" class="edge"><title>program~integrate_oscillation&#45;&gt;proc~test_euler~4</title>
<path fill="none" stroke="black" d="M107.682,-57C116.37,-57 125.236,-57 133.542,-57"/>
<polygon fill="black" stroke="black" points="133.707,-60.5001 143.707,-57 133.707,-53.5001 133.707,-60.5001"/>
</g>
<!-- program~integrate_oscillation&#45;&gt;proc~test_rk~3 -->
<g id="edge6" class="edge"><title>program~integrate_oscillation&#45;&gt;proc~test_rk~3</title>
<path fill="none" stroke="black" d="M89.6791,-43.9177C104.641,-38.4317 122.031,-32.0552 137.119,-26.523"/>
<polygon fill="black" stroke="black" points="138.469,-29.756 146.653,-23.0273 136.059,-23.1838 138.469,-29.756"/>
</g>
</g>
</svg>
