<?xml version="1.0" encoding="UTF-8" standalone="no"?>
<!DOCTYPE svg PUBLIC "-//W3C//DTD SVG 1.1//EN"
 "http://www.w3.org/Graphics/SVG/1.1/DTD/svg11.dtd">
<!-- Generated by graphviz version 2.26.3 (20100126.1600)
 -->
<!-- Title: proc~~reconstruct_interfaces_states~~CallsGraph Pages: 1 -->
<svg width="366pt" height="254pt"
 viewBox="0.00 0.00 366.00 254.00" xmlns="http://www.w3.org/2000/svg" xmlns:xlink="http://www.w3.org/1999/xlink">
<g id="graph1" class="graph" transform="scale(1 1) rotate(0) translate(4 250)">
<title>proc~~reconstruct_interfaces_states~~CallsGraph</title>
<polygon fill="white" stroke="white" points="-4,5 -4,-250 363,-250 363,5 -4,5"/>
<!-- proc~reconstruct_interfaces_states -->
<g id="node1" class="node"><title>proc~reconstruct_interfaces_states</title>
<polygon fill="none" stroke="black" points="153,-136 1,-136 1,-110 153,-110 153,-136"/>
<text text-anchor="middle" x="77" y="-120.55" font-family="Helvetica,sans-Serif" font-size="10.50">reconstruct_interfaces_states</text>
</g>
<!-- rpm -->
<g id="node2" class="node"><title>rpm</title>
<polygon fill="#777777" stroke="#777777" points="256,-246 202,-246 202,-220 256,-220 256,-246"/>
<text text-anchor="middle" x="229" y="-230.55" font-family="Helvetica,sans-Serif" font-size="10.50" fill="white">rpm</text>
</g>
<!-- proc~reconstruct_interfaces_states&#45;&gt;rpm -->
<g id="edge10" class="edge"><title>proc~reconstruct_interfaces_states&#45;&gt;rpm</title>
<path fill="none" stroke="black" d="M92.538,-136.302C113.826,-154.243 153.578,-186.738 190,-211 191.84,-212.226 193.752,-213.45 195.698,-214.659"/>
<polygon fill="black" stroke="black" points="193.946,-217.689 204.325,-219.813 197.535,-211.68 193.946,-217.689"/>
</g>
<!-- none~eigen_vect_r -->
<g id="node3" class="node"><title>none~eigen_vect_r</title>
<polygon fill="#d94e8f" stroke="#d94e8f" points="268,-202 190,-202 190,-176 268,-176 268,-202"/>
<text text-anchor="middle" x="229" y="-186.55" font-family="Helvetica,sans-Serif" font-size="10.50" fill="white">eigen_vect_R</text>
</g>
<!-- proc~reconstruct_interfaces_states&#45;&gt;none~eigen_vect_r -->
<g id="edge12" class="edge"><title>proc~reconstruct_interfaces_states&#45;&gt;none~eigen_vect_r</title>
<path fill="none" stroke="black" d="M107.03,-136.039C130.659,-146.299 163.785,-160.683 189.552,-171.871"/>
<polygon fill="black" stroke="black" points="188.465,-175.215 199.032,-175.988 191.253,-168.794 188.465,-175.215"/>
</g>
<!-- cr -->
<g id="node4" class="node"><title>cr</title>
<polygon fill="#777777" stroke="#777777" points="256,-158 202,-158 202,-132 256,-132 256,-158"/>
<text text-anchor="middle" x="229" y="-142.55" font-family="Helvetica,sans-Serif" font-size="10.50" fill="white">cr</text>
</g>
<!-- proc~reconstruct_interfaces_states&#45;&gt;cr -->
<g id="edge14" class="edge"><title>proc~reconstruct_interfaces_states&#45;&gt;cr</title>
<path fill="none" stroke="black" d="M153.891,-134.129C167.083,-136.038 180.239,-137.942 191.769,-139.611"/>
<polygon fill="black" stroke="black" points="191.457,-143.103 201.856,-141.071 192.46,-136.175 191.457,-143.103"/>
</g>
<!-- pm -->
<g id="node5" class="node"><title>pm</title>
<polygon fill="#777777" stroke="#777777" points="256,-114 202,-114 202,-88 256,-88 256,-114"/>
<text text-anchor="middle" x="229" y="-98.55" font-family="Helvetica,sans-Serif" font-size="10.50" fill="white">pm</text>
</g>
<!-- proc~reconstruct_interfaces_states&#45;&gt;pm -->
<g id="edge16" class="edge"><title>proc~reconstruct_interfaces_states&#45;&gt;pm</title>
<path fill="none" stroke="black" d="M153.891,-111.871C167.083,-109.962 180.239,-108.058 191.769,-106.389"/>
<polygon fill="black" stroke="black" points="192.46,-109.825 201.856,-104.929 191.457,-102.897 192.46,-109.825"/>
</g>
<!-- lpm -->
<g id="node6" class="node"><title>lpm</title>
<polygon fill="#777777" stroke="#777777" points="256,-70 202,-70 202,-44 256,-44 256,-70"/>
<text text-anchor="middle" x="229" y="-54.55" font-family="Helvetica,sans-Serif" font-size="10.50" fill="white">lpm</text>
</g>
<!-- proc~reconstruct_interfaces_states&#45;&gt;lpm -->
<g id="edge18" class="edge"><title>proc~reconstruct_interfaces_states&#45;&gt;lpm</title>
<path fill="none" stroke="black" d="M107.03,-109.961C131.611,-99.2873 166.468,-84.1519 192.628,-72.7929"/>
<polygon fill="black" stroke="black" points="194.059,-75.9875 201.838,-68.7941 191.271,-69.5666 194.059,-75.9875"/>
</g>
<!-- none~eigen_vect_l -->
<g id="node7" class="node"><title>none~eigen_vect_l</title>
<polygon fill="#d94e8f" stroke="#d94e8f" points="267,-26 191,-26 191,-1.24345e-14 267,-3.55271e-15 267,-26"/>
<text text-anchor="middle" x="229" y="-10.55" font-family="Helvetica,sans-Serif" font-size="10.50" fill="white">eigen_vect_L</text>
</g>
<!-- proc~reconstruct_interfaces_states&#45;&gt;none~eigen_vect_l -->
<g id="edge20" class="edge"><title>proc~reconstruct_interfaces_states&#45;&gt;none~eigen_vect_l</title>
<path fill="none" stroke="black" d="M92.538,-109.698C113.826,-91.7573 153.578,-59.2617 190,-35 191.84,-33.7744 193.752,-32.5497 195.698,-31.3406"/>
<polygon fill="black" stroke="black" points="197.535,-34.3202 204.325,-26.1872 193.946,-28.3107 197.535,-34.3202"/>
</g>
<!-- proc~a -->
<g id="node8" class="node"><title>proc~a</title>
<a xlink:href="../proc/a.html" xlink:title="a">
<polygon fill="#d94e8f" stroke="#d94e8f" points="358,-114 304,-114 304,-88 358,-88 358,-114"/>
<text text-anchor="middle" x="331" y="-98.55" font-family="Helvetica,sans-Serif" font-size="10.50" fill="white">a</text>
</a>
</g>
<!-- none~eigen_vect_r&#45;&gt;proc~a -->
<g id="edge2" class="edge"><title>none~eigen_vect_r&#45;&gt;proc~a</title>
<path fill="none" stroke="black" d="M254.868,-175.839C259.397,-173.139 263.95,-170.15 268,-167 285.084,-153.71 301.879,-135.804 313.826,-121.996"/>
<polygon fill="black" stroke="black" points="316.803,-123.898 320.598,-114.006 311.462,-119.372 316.803,-123.898"/>
</g>
<!-- proc~r -->
<g id="node9" class="node"><title>proc~r</title>
<a xlink:href="../proc/r.html" xlink:title="r">
<polygon fill="#d94e8f" stroke="#d94e8f" points="358,-202 304,-202 304,-176 358,-176 358,-202"/>
<text text-anchor="middle" x="331" y="-186.55" font-family="Helvetica,sans-Serif" font-size="10.50" fill="white">r</text>
</a>
</g>
<!-- none~eigen_vect_r&#45;&gt;proc~r -->
<g id="edge4" class="edge"><title>none~eigen_vect_r&#45;&gt;proc~r</title>
<path fill="none" stroke="black" d="M268.144,-189C276.519,-189 285.345,-189 293.649,-189"/>
<polygon fill="black" stroke="black" points="293.817,-192.5 303.817,-189 293.817,-185.5 293.817,-192.5"/>
</g>
<!-- none~eigen_vect_l&#45;&gt;proc~a -->
<g id="edge6" class="edge"><title>none~eigen_vect_l&#45;&gt;proc~a</title>
<path fill="none" stroke="black" d="M254.868,-26.1612C259.397,-28.8615 263.95,-31.8497 268,-35 285.084,-48.2899 301.879,-66.1957 313.826,-80.0036"/>
<polygon fill="black" stroke="black" points="311.462,-82.6278 320.598,-87.9935 316.803,-78.1019 311.462,-82.6278"/>
</g>
<!-- l -->
<g id="node12" class="node"><title>l</title>
<polygon fill="#777777" stroke="#777777" points="358,-26 304,-26 304,-1.24345e-14 358,-3.55271e-15 358,-26"/>
<text text-anchor="middle" x="331" y="-10.55" font-family="Helvetica,sans-Serif" font-size="10.50" fill="white">l</text>
</g>
<!-- none~eigen_vect_l&#45;&gt;l -->
<g id="edge8" class="edge"><title>none~eigen_vect_l&#45;&gt;l</title>
<path fill="none" stroke="black" d="M267.271,-13C275.952,-13 285.158,-13 293.794,-13"/>
<polygon fill="black" stroke="black" points="293.971,-16.5001 303.971,-13 293.971,-9.5001 293.971,-16.5001"/>
</g>
</g>
</svg>
