<?xml version="1.0" encoding="UTF-8" standalone="no"?>
<!DOCTYPE svg PUBLIC "-//W3C//DTD SVG 1.1//EN"
 "http://www.w3.org/Graphics/SVG/1.1/DTD/svg11.dtd">
<!-- Generated by graphviz version 2.26.3 (20100126.1600)
 -->
<!-- Title: proc~~save_results~~CalledByGraph Pages: 1 -->
<svg width="318pt" height="166pt"
 viewBox="0.00 0.00 318.00 166.00" xmlns="http://www.w3.org/2000/svg" xmlns:xlink="http://www.w3.org/1999/xlink">
<g id="graph1" class="graph" transform="scale(1 1) rotate(0) translate(4 162)">
<title>proc~~save_results~~CalledByGraph</title>
<polygon fill="white" stroke="white" points="-4,5 -4,-162 315,-162 315,5 -4,5"/>
<!-- proc~save_results -->
<g id="node1" class="node"><title>proc~save_results</title>
<polygon fill="none" stroke="black" points="309,-92 237,-92 237,-66 309,-66 309,-92"/>
<text text-anchor="middle" x="273" y="-76.55" font-family="Helvetica,sans-Serif" font-size="10.50">save_results</text>
</g>
<!-- proc~test_ab -->
<g id="node2" class="node"><title>proc~test_ab</title>
<a xlink:href="../proc/test_ab.html" xlink:title="test_ab">
<polygon fill="#d9534f" stroke="#d9534f" points="194,-158 140,-158 140,-132 194,-132 194,-158"/>
<text text-anchor="middle" x="167" y="-142.55" font-family="Helvetica,sans-Serif" font-size="10.50" fill="white">test_ab</text>
</a>
</g>
<!-- proc~test_ab&#45;&gt;proc~save_results -->
<g id="edge10" class="edge"><title>proc~test_ab&#45;&gt;proc~save_results</title>
<path fill="none" stroke="black" d="M187.942,-131.961C203.767,-122.107 225.699,-108.451 243.329,-97.4742"/>
<polygon fill="black" stroke="black" points="245.462,-100.269 252.101,-92.0124 241.762,-94.3269 245.462,-100.269"/>
</g>
<!-- proc~test_ls_rk -->
<g id="node3" class="node"><title>proc~test_ls_rk</title>
<a xlink:href="../proc/test_ls_rk.html" xlink:title="test_ls_rk">
<polygon fill="#d9534f" stroke="#d9534f" points="196,-114 138,-114 138,-88 196,-88 196,-114"/>
<text text-anchor="middle" x="167" y="-98.55" font-family="Helvetica,sans-Serif" font-size="10.50" fill="white">test_ls_rk</text>
</a>
</g>
<!-- proc~test_ls_rk&#45;&gt;proc~save_results -->
<g id="edge12" class="edge"><title>proc~test_ls_rk&#45;&gt;proc~save_results</title>
<path fill="none" stroke="black" d="M196.246,-94.9302C205.529,-93.0033 216.04,-90.822 226.237,-88.7055"/>
<polygon fill="black" stroke="black" points="227.194,-92.0816 236.274,-86.6224 225.771,-85.2277 227.194,-92.0816"/>
</g>
<!-- proc~test_euler -->
<g id="node4" class="node"><title>proc~test_euler</title>
<a xlink:href="../proc/test_euler.html" xlink:title="test_euler">
<polygon fill="#d9534f" stroke="#d9534f" points="197,-70 137,-70 137,-44 197,-44 197,-70"/>
<text text-anchor="middle" x="167" y="-54.55" font-family="Helvetica,sans-Serif" font-size="10.50" fill="white">test_euler</text>
</a>
</g>
<!-- proc~test_euler&#45;&gt;proc~save_results -->
<g id="edge14" class="edge"><title>proc~test_euler&#45;&gt;proc~save_results</title>
<path fill="none" stroke="black" d="M197.092,-63.2455C206.273,-65.151 216.59,-67.2922 226.589,-69.3675"/>
<polygon fill="black" stroke="black" points="225.925,-72.8043 236.428,-71.4096 227.348,-65.9504 225.925,-72.8043"/>
</g>
<!-- proc~test_tvd_rk -->
<g id="node5" class="node"><title>proc~test_tvd_rk</title>
<a xlink:href="../proc/test_tvd_rk.html" xlink:title="test_tvd_rk">
<polygon fill="#d9534f" stroke="#d9534f" points="199,-26 135,-26 135,-1.24345e-14 199,-3.55271e-15 199,-26"/>
<text text-anchor="middle" x="167" y="-10.55" font-family="Helvetica,sans-Serif" font-size="10.50" fill="white">test_tvd_rk</text>
</a>
</g>
<!-- proc~test_tvd_rk&#45;&gt;proc~save_results -->
<g id="edge16" class="edge"><title>proc~test_tvd_rk&#45;&gt;proc~save_results</title>
<path fill="none" stroke="black" d="M187.942,-26.0395C203.767,-35.8927 225.699,-49.5487 243.329,-60.5258"/>
<polygon fill="black" stroke="black" points="241.762,-63.6731 252.101,-65.9876 245.462,-57.7308 241.762,-63.6731"/>
</g>
<!-- program~integrate_burgers -->
<g id="node6" class="node"><title>program~integrate_burgers</title>
<a xlink:href="../program/integrate_burgers.html" xlink:title="integrate_burgers">
<polygon fill="#f0ad4e" stroke="#f0ad4e" points="97,-92 1,-92 1,-66 97,-66 97,-92"/>
<text text-anchor="middle" x="49" y="-76.55" font-family="Helvetica,sans-Serif" font-size="10.50" fill="white">integrate_burgers</text>
</a>
</g>
<!-- program~integrate_burgers&#45;&gt;proc~test_ab -->
<g id="edge2" class="edge"><title>program~integrate_burgers&#45;&gt;proc~test_ab</title>
<path fill="none" stroke="black" d="M72.313,-92.0395C90.1717,-102.028 115.018,-115.925 134.778,-126.977"/>
<polygon fill="black" stroke="black" points="133.299,-130.161 143.735,-131.988 136.716,-124.051 133.299,-130.161"/>
</g>
<!-- program~integrate_burgers&#45;&gt;proc~test_ls_rk -->
<g id="edge4" class="edge"><title>program~integrate_burgers&#45;&gt;proc~test_ls_rk</title>
<path fill="none" stroke="black" d="M97.6764,-88.0753C107.653,-89.9354 118.037,-91.8713 127.638,-93.6613"/>
<polygon fill="black" stroke="black" points="127.22,-97.1435 137.692,-95.5357 128.503,-90.2621 127.22,-97.1435"/>
</g>
<!-- program~integrate_burgers&#45;&gt;proc~test_euler -->
<g id="edge6" class="edge"><title>program~integrate_burgers&#45;&gt;proc~test_euler</title>
<path fill="none" stroke="black" d="M97.6764,-69.9247C107.374,-68.1168 117.455,-66.2372 126.828,-64.4896"/>
<polygon fill="black" stroke="black" points="127.48,-67.9284 136.67,-62.6548 126.197,-61.047 127.48,-67.9284"/>
</g>
<!-- program~integrate_burgers&#45;&gt;proc~test_tvd_rk -->
<g id="edge8" class="edge"><title>program~integrate_burgers&#45;&gt;proc~test_tvd_rk</title>
<path fill="none" stroke="black" d="M72.313,-65.9605C90.1717,-55.9718 115.018,-42.0747 134.778,-31.0225"/>
<polygon fill="black" stroke="black" points="136.716,-33.9486 143.735,-26.0124 133.299,-27.8393 136.716,-33.9486"/>
</g>
</g>
</svg>
