<?xml version="1.0" encoding="UTF-8" standalone="no"?>
<!DOCTYPE svg PUBLIC "-//W3C//DTD SVG 1.1//EN"
 "http://www.w3.org/Graphics/SVG/1.1/DTD/svg11.dtd">
<!-- Generated by graphviz version 2.26.3 (20100126.1600)
 -->
<!-- Title: proc~~save_results~5~~CalledByGraph Pages: 1 -->
<svg width="338pt" height="210pt"
 viewBox="0.00 0.00 338.00 210.00" xmlns="http://www.w3.org/2000/svg" xmlns:xlink="http://www.w3.org/1999/xlink">
<g id="graph1" class="graph" transform="scale(1 1) rotate(0) translate(4 206)">
<title>proc~~save_results~5~~CalledByGraph</title>
<polygon fill="white" stroke="white" points="-4,5 -4,-206 335,-206 335,5 -4,5"/>
<!-- proc~save_results~5 -->
<g id="node1" class="node"><title>proc~save_results~5</title>
<polygon fill="none" stroke="black" points="329,-114 257,-114 257,-88 329,-88 329,-114"/>
<text text-anchor="middle" x="293" y="-98.55" font-family="Helvetica,sans-Serif" font-size="10.50">save_results</text>
</g>
<!-- proc~test_tvd_rk~4 -->
<g id="node2" class="node"><title>proc~test_tvd_rk~4</title>
<a xlink:href="../proc/test_tvd_rk%7E4.html" xlink:title="test_tvd_rk">
<polygon fill="#d9534f" stroke="#d9534f" points="214,-202 150,-202 150,-176 214,-176 214,-202"/>
<text text-anchor="middle" x="182" y="-186.55" font-family="Helvetica,sans-Serif" font-size="10.50" fill="white">test_tvd_rk</text>
</a>
</g>
<!-- proc~test_tvd_rk~4&#45;&gt;proc~save_results~5 -->
<g id="edge12" class="edge"><title>proc~test_tvd_rk~4&#45;&gt;proc~save_results~5</title>
<path fill="none" stroke="black" d="M206.604,-175.773C211.167,-173.037 215.811,-170.054 220,-167 239.104,-153.073 258.884,-134.918 273.028,-121.176"/>
<polygon fill="black" stroke="black" points="275.595,-123.56 280.265,-114.05 270.684,-118.572 275.595,-123.56"/>
</g>
<!-- proc~test_leapfrog~4 -->
<g id="node3" class="node"><title>proc~test_leapfrog~4</title>
<a xlink:href="../proc/test_leapfrog%7E4.html" xlink:title="test_leapfrog">
<polygon fill="#d9534f" stroke="#d9534f" points="219,-158 145,-158 145,-132 219,-132 219,-158"/>
<text text-anchor="middle" x="182" y="-142.55" font-family="Helvetica,sans-Serif" font-size="10.50" fill="white">test_leapfrog</text>
</a>
</g>
<!-- proc~test_leapfrog~4&#45;&gt;proc~save_results~5 -->
<g id="edge14" class="edge"><title>proc~test_leapfrog~4&#45;&gt;proc~save_results~5</title>
<path fill="none" stroke="black" d="M215.003,-131.918C226.087,-127.524 238.611,-122.559 250.329,-117.915"/>
<polygon fill="black" stroke="black" points="251.926,-121.047 259.932,-114.108 249.346,-114.539 251.926,-121.047"/>
</g>
<!-- proc~test_ls_rk~4 -->
<g id="node4" class="node"><title>proc~test_ls_rk~4</title>
<a xlink:href="../proc/test_ls_rk%7E4.html" xlink:title="test_ls_rk">
<polygon fill="#d9534f" stroke="#d9534f" points="211,-114 153,-114 153,-88 211,-88 211,-114"/>
<text text-anchor="middle" x="182" y="-98.55" font-family="Helvetica,sans-Serif" font-size="10.50" fill="white">test_ls_rk</text>
</a>
</g>
<!-- proc~test_ls_rk~4&#45;&gt;proc~save_results~5 -->
<g id="edge16" class="edge"><title>proc~test_ls_rk~4&#45;&gt;proc~save_results~5</title>
<path fill="none" stroke="black" d="M211.164,-101C221.895,-101 234.336,-101 246.228,-101"/>
<polygon fill="black" stroke="black" points="246.482,-104.5 256.481,-101 246.481,-97.5001 246.482,-104.5"/>
</g>
<!-- proc~test_ab~4 -->
<g id="node5" class="node"><title>proc~test_ab~4</title>
<a xlink:href="../proc/test_ab%7E4.html" xlink:title="test_ab">
<polygon fill="#d9534f" stroke="#d9534f" points="209,-70 155,-70 155,-44 209,-44 209,-70"/>
<text text-anchor="middle" x="182" y="-54.55" font-family="Helvetica,sans-Serif" font-size="10.50" fill="white">test_ab</text>
</a>
</g>
<!-- proc~test_ab~4&#45;&gt;proc~save_results~5 -->
<g id="edge18" class="edge"><title>proc~test_ab~4&#45;&gt;proc~save_results~5</title>
<path fill="none" stroke="black" d="M209.154,-67.7636C221.669,-72.7247 236.814,-78.7279 250.769,-84.2598"/>
<polygon fill="black" stroke="black" points="249.608,-87.5643 260.194,-87.9957 252.187,-81.0569 249.608,-87.5643"/>
</g>
<!-- proc~test_euler~4 -->
<g id="node6" class="node"><title>proc~test_euler~4</title>
<a xlink:href="../proc/test_euler%7E4.html" xlink:title="test_euler">
<polygon fill="#d9534f" stroke="#d9534f" points="212,-26 152,-26 152,-1.24345e-14 212,-3.55271e-15 212,-26"/>
<text text-anchor="middle" x="182" y="-10.55" font-family="Helvetica,sans-Serif" font-size="10.50" fill="white">test_euler</text>
</a>
</g>
<!-- proc~test_euler~4&#45;&gt;proc~save_results~5 -->
<g id="edge20" class="edge"><title>proc~test_euler~4&#45;&gt;proc~save_results~5</title>
<path fill="none" stroke="black" d="M206.604,-26.2273C211.167,-28.9626 215.811,-31.9463 220,-35 239.104,-48.9274 258.884,-67.0817 273.028,-80.8243"/>
<polygon fill="black" stroke="black" points="270.684,-83.4283 280.265,-87.9503 275.595,-78.4403 270.684,-83.4283"/>
</g>
<!-- program~integrate_oscillation -->
<g id="node7" class="node"><title>program~integrate_oscillation</title>
<a xlink:href="../program/integrate_oscillation.html" xlink:title="integrate_oscillation">
<polygon fill="#f0ad4e" stroke="#f0ad4e" points="107,-114 1,-114 1,-88 107,-88 107,-114"/>
<text text-anchor="middle" x="54" y="-98.55" font-family="Helvetica,sans-Serif" font-size="10.50" fill="white">integrate_oscillation</text>
</a>
</g>
<!-- program~integrate_oscillation&#45;&gt;proc~test_tvd_rk~4 -->
<g id="edge2" class="edge"><title>program~integrate_oscillation&#45;&gt;proc~test_tvd_rk~4</title>
<path fill="none" stroke="black" d="M70.8634,-114.216C88.6621,-127.961 117.723,-149.83 144,-167 145.867,-168.22 147.803,-169.448 149.768,-170.667"/>
<polygon fill="black" stroke="black" points="148.076,-173.733 158.448,-175.895 151.688,-167.737 148.076,-173.733"/>
</g>
<!-- program~integrate_oscillation&#45;&gt;proc~test_leapfrog~4 -->
<g id="edge4" class="edge"><title>program~integrate_oscillation&#45;&gt;proc~test_leapfrog~4</title>
<path fill="none" stroke="black" d="M92.0577,-114.082C105.47,-118.693 120.712,-123.932 134.788,-128.771"/>
<polygon fill="black" stroke="black" points="133.715,-132.103 144.31,-132.044 135.991,-125.483 133.715,-132.103"/>
</g>
<!-- program~integrate_oscillation&#45;&gt;proc~test_ls_rk~4 -->
<g id="edge6" class="edge"><title>program~integrate_oscillation&#45;&gt;proc~test_ls_rk~4</title>
<path fill="none" stroke="black" d="M107.542,-101C119.275,-101 131.489,-101 142.551,-101"/>
<polygon fill="black" stroke="black" points="142.75,-104.5 152.75,-101 142.75,-97.5001 142.75,-104.5"/>
</g>
<!-- program~integrate_oscillation&#45;&gt;proc~test_ab~4 -->
<g id="edge8" class="edge"><title>program~integrate_oscillation&#45;&gt;proc~test_ab~4</title>
<path fill="none" stroke="black" d="M92.0577,-87.9177C108.779,-82.1697 128.345,-75.444 144.949,-69.7362"/>
<polygon fill="black" stroke="black" points="146.534,-72.8925 154.853,-66.3317 144.259,-66.2726 146.534,-72.8925"/>
</g>
<!-- program~integrate_oscillation&#45;&gt;proc~test_euler~4 -->
<g id="edge10" class="edge"><title>program~integrate_oscillation&#45;&gt;proc~test_euler~4</title>
<path fill="none" stroke="black" d="M70.8634,-87.7841C88.6621,-74.0389 117.723,-52.1698 144,-35 145.867,-33.7803 147.803,-32.5522 149.768,-31.3334"/>
<polygon fill="black" stroke="black" points="151.688,-34.2632 158.448,-26.1053 148.076,-28.2669 151.688,-34.2632"/>
</g>
</g>
</svg>
