<?xml version="1.0" encoding="UTF-8" standalone="no"?>
<!DOCTYPE svg PUBLIC "-//W3C//DTD SVG 1.1//EN"
 "http://www.w3.org/Graphics/SVG/1.1/DTD/svg11.dtd">
<!-- Generated by graphviz version 2.26.3 (20100126.1600)
 -->
<!-- Title: proc~~create~~CalledByGraph Pages: 1 -->
<svg width="474pt" height="342pt"
 viewBox="0.00 0.00 474.00 342.00" xmlns="http://www.w3.org/2000/svg" xmlns:xlink="http://www.w3.org/1999/xlink">
<g id="graph1" class="graph" transform="scale(1 1) rotate(0) translate(4 338)">
<title>proc~~create~~CalledByGraph</title>
<polygon fill="white" stroke="white" points="-4,5 -4,-338 471,-338 471,5 -4,5"/>
<!-- proc~create -->
<g id="node1" class="node"><title>proc~create</title>
<polygon fill="none" stroke="black" points="466,-180 412,-180 412,-154 466,-154 466,-180"/>
<text text-anchor="middle" x="439" y="-164.55" font-family="Helvetica,sans-Serif" font-size="10.50">create</text>
</g>
<!-- interface~tvd_runge_kutta_integrator -->
<g id="node2" class="node"><title>interface~tvd_runge_kutta_integrator</title>
<a xlink:href="../interface/tvd_runge_kutta_integrator.html" xlink:title="tvd_runge_kutta_integrator">
<polygon fill="#a7506f" stroke="#a7506f" points="376,-180 234,-180 234,-154 376,-154 376,-180"/>
<text text-anchor="middle" x="305" y="-164.55" font-family="Helvetica,sans-Serif" font-size="10.50" fill="white">tvd_runge_kutta_integrator</text>
</a>
</g>
<!-- interface~tvd_runge_kutta_integrator&#45;&gt;proc~create -->
<g id="edge34" class="edge"><title>interface~tvd_runge_kutta_integrator&#45;&gt;proc~create</title>
<path fill="none" stroke="black" stroke-dasharray="5,2" d="M376.316,-167C385.094,-167 393.774,-167 401.748,-167"/>
<polygon fill="black" stroke="black" points="401.773,-170.5 411.773,-167 401.773,-163.5 401.773,-170.5"/>
</g>
<!-- proc~test_ab~2 -->
<g id="node3" class="node"><title>proc~test_ab~2</title>
<a xlink:href="../proc/test_ab%7E2.html" xlink:title="test_ab">
<polygon fill="#d9534f" stroke="#d9534f" points="198,-334 144,-334 144,-308 198,-308 198,-334"/>
<text text-anchor="middle" x="171" y="-318.55" font-family="Helvetica,sans-Serif" font-size="10.50" fill="white">test_ab</text>
</a>
</g>
<!-- proc~test_ab~2&#45;&gt;interface~tvd_runge_kutta_integrator -->
<g id="edge18" class="edge"><title>proc~test_ab~2&#45;&gt;interface~tvd_runge_kutta_integrator</title>
<path fill="none" stroke="black" d="M188.314,-307.781C191.638,-304.999 195.011,-301.997 198,-299 233.937,-262.971 270.026,-215.563 289.745,-188.47"/>
<polygon fill="black" stroke="black" points="292.767,-190.263 295.781,-180.106 287.091,-186.167 292.767,-190.263"/>
</g>
<!-- proc~test_ab -->
<g id="node4" class="node"><title>proc~test_ab</title>
<a xlink:href="../proc/test_ab.html" xlink:title="test_ab">
<polygon fill="#d9534f" stroke="#d9534f" points="198,-246 144,-246 144,-220 198,-220 198,-246"/>
<text text-anchor="middle" x="171" y="-230.55" font-family="Helvetica,sans-Serif" font-size="10.50" fill="white">test_ab</text>
</a>
</g>
<!-- proc~test_ab&#45;&gt;interface~tvd_runge_kutta_integrator -->
<g id="edge20" class="edge"><title>proc~test_ab&#45;&gt;interface~tvd_runge_kutta_integrator</title>
<path fill="none" stroke="black" d="M197.474,-219.961C218.03,-209.836 246.737,-195.697 269.319,-184.574"/>
<polygon fill="black" stroke="black" points="271.157,-187.571 278.581,-180.012 268.064,-181.291 271.157,-187.571"/>
</g>
<!-- proc~test_rk~2 -->
<g id="node5" class="node"><title>proc~test_rk~2</title>
<a xlink:href="../proc/test_rk%7E2.html" xlink:title="test_rk">
<polygon fill="#d9534f" stroke="#d9534f" points="198,-290 144,-290 144,-264 198,-264 198,-290"/>
<text text-anchor="middle" x="171" y="-274.55" font-family="Helvetica,sans-Serif" font-size="10.50" fill="white">test_rk</text>
</a>
</g>
<!-- proc~test_rk~2&#45;&gt;interface~tvd_runge_kutta_integrator -->
<g id="edge22" class="edge"><title>proc~test_rk~2&#45;&gt;interface~tvd_runge_kutta_integrator</title>
<path fill="none" stroke="black" d="M187,-263.983C190.62,-261.032 194.444,-257.911 198,-255 226.715,-231.493 259.684,-204.356 281.349,-186.504"/>
<polygon fill="black" stroke="black" points="283.575,-189.204 289.066,-180.143 279.123,-183.802 283.575,-189.204"/>
</g>
<!-- proc~test_rk~4 -->
<g id="node6" class="node"><title>proc~test_rk~4</title>
<a xlink:href="../proc/test_rk%7E4.html" xlink:title="test_rk">
<polygon fill="#d9534f" stroke="#d9534f" points="198,-158 144,-158 144,-132 198,-132 198,-158"/>
<text text-anchor="middle" x="171" y="-142.55" font-family="Helvetica,sans-Serif" font-size="10.50" fill="white">test_rk</text>
</a>
</g>
<!-- proc~test_rk~4&#45;&gt;interface~tvd_runge_kutta_integrator -->
<g id="edge24" class="edge"><title>proc~test_rk~4&#45;&gt;interface~tvd_runge_kutta_integrator</title>
<path fill="none" stroke="black" d="M198.117,-149.452C205.811,-150.715 214.608,-152.16 223.778,-153.665"/>
<polygon fill="black" stroke="black" points="223.405,-157.151 233.84,-155.317 224.54,-150.243 223.405,-157.151"/>
</g>
<!-- proc~test_rk~3 -->
<g id="node7" class="node"><title>proc~test_rk~3</title>
<a xlink:href="../proc/test_rk%7E3.html" xlink:title="test_rk">
<polygon fill="#d9534f" stroke="#d9534f" points="198,-70 144,-70 144,-44 198,-44 198,-70"/>
<text text-anchor="middle" x="171" y="-54.55" font-family="Helvetica,sans-Serif" font-size="10.50" fill="white">test_rk</text>
</a>
</g>
<!-- proc~test_rk~3&#45;&gt;interface~tvd_runge_kutta_integrator -->
<g id="edge26" class="edge"><title>proc~test_rk~3&#45;&gt;interface~tvd_runge_kutta_integrator</title>
<path fill="none" stroke="black" d="M187,-70.0171C190.62,-72.9676 194.444,-76.0891 198,-79 226.715,-102.507 259.684,-129.644 281.349,-147.496"/>
<polygon fill="black" stroke="black" points="279.123,-150.198 289.066,-153.857 283.575,-144.796 279.123,-150.198"/>
</g>
<!-- proc~test_rk -->
<g id="node8" class="node"><title>proc~test_rk</title>
<a xlink:href="../proc/test_rk.html" xlink:title="test_rk">
<polygon fill="#d9534f" stroke="#d9534f" points="198,-202 144,-202 144,-176 198,-176 198,-202"/>
<text text-anchor="middle" x="171" y="-186.55" font-family="Helvetica,sans-Serif" font-size="10.50" fill="white">test_rk</text>
</a>
</g>
<!-- proc~test_rk&#45;&gt;interface~tvd_runge_kutta_integrator -->
<g id="edge28" class="edge"><title>proc~test_rk&#45;&gt;interface~tvd_runge_kutta_integrator</title>
<path fill="none" stroke="black" d="M198.117,-184.548C205.811,-183.285 214.608,-181.84 223.778,-180.335"/>
<polygon fill="black" stroke="black" points="224.54,-183.757 233.84,-178.683 223.405,-176.849 224.54,-183.757"/>
</g>
<!-- proc~test_ab~3 -->
<g id="node9" class="node"><title>proc~test_ab~3</title>
<a xlink:href="../proc/test_ab%7E3.html" xlink:title="test_ab">
<polygon fill="#d9534f" stroke="#d9534f" points="198,-26 144,-26 144,-1.24345e-14 198,-3.55271e-15 198,-26"/>
<text text-anchor="middle" x="171" y="-10.55" font-family="Helvetica,sans-Serif" font-size="10.50" fill="white">test_ab</text>
</a>
</g>
<!-- proc~test_ab~3&#45;&gt;interface~tvd_runge_kutta_integrator -->
<g id="edge30" class="edge"><title>proc~test_ab~3&#45;&gt;interface~tvd_runge_kutta_integrator</title>
<path fill="none" stroke="black" d="M188.314,-26.2191C191.638,-29.0005 195.011,-32.0033 198,-35 233.937,-71.0286 270.026,-118.437 289.745,-145.53"/>
<polygon fill="black" stroke="black" points="287.091,-147.833 295.781,-153.894 292.767,-143.737 287.091,-147.833"/>
</g>
<!-- proc~test_ab~4 -->
<g id="node10" class="node"><title>proc~test_ab~4</title>
<a xlink:href="../proc/test_ab%7E4.html" xlink:title="test_ab">
<polygon fill="#d9534f" stroke="#d9534f" points="198,-114 144,-114 144,-88 198,-88 198,-114"/>
<text text-anchor="middle" x="171" y="-98.55" font-family="Helvetica,sans-Serif" font-size="10.50" fill="white">test_ab</text>
</a>
</g>
<!-- proc~test_ab~4&#45;&gt;interface~tvd_runge_kutta_integrator -->
<g id="edge32" class="edge"><title>proc~test_ab~4&#45;&gt;interface~tvd_runge_kutta_integrator</title>
<path fill="none" stroke="black" d="M197.474,-114.039C218.03,-124.164 246.737,-138.303 269.319,-149.426"/>
<polygon fill="black" stroke="black" points="268.064,-152.709 278.581,-153.988 271.157,-146.429 268.064,-152.709"/>
</g>
<!-- program~integrate_euler_1d -->
<g id="node11" class="node"><title>program~integrate_euler_1d</title>
<a xlink:href="../program/integrate_euler_1d.html" xlink:title="integrate_euler_1D">
<polygon fill="#f0ad4e" stroke="#f0ad4e" points="106,-312 2,-312 2,-286 106,-286 106,-312"/>
<text text-anchor="middle" x="54" y="-296.55" font-family="Helvetica,sans-Serif" font-size="10.50" fill="white">integrate_euler_1D</text>
</a>
</g>
<!-- program~integrate_euler_1d&#45;&gt;proc~test_ab~2 -->
<g id="edge2" class="edge"><title>program~integrate_euler_1d&#45;&gt;proc~test_ab~2</title>
<path fill="none" stroke="black" d="M106.34,-308.842C115.611,-310.585 125.091,-312.368 133.834,-314.012"/>
<polygon fill="black" stroke="black" points="133.228,-317.459 143.703,-315.867 134.522,-310.579 133.228,-317.459"/>
</g>
<!-- program~integrate_euler_1d&#45;&gt;proc~test_rk~2 -->
<g id="edge6" class="edge"><title>program~integrate_euler_1d&#45;&gt;proc~test_rk~2</title>
<path fill="none" stroke="black" d="M106.34,-289.158C115.611,-287.415 125.091,-285.632 133.834,-283.988"/>
<polygon fill="black" stroke="black" points="134.522,-287.421 143.703,-282.133 133.228,-280.541 134.522,-287.421"/>
</g>
<!-- program~integrate_burgers -->
<g id="node13" class="node"><title>program~integrate_burgers</title>
<a xlink:href="../program/integrate_burgers.html" xlink:title="integrate_burgers">
<polygon fill="#f0ad4e" stroke="#f0ad4e" points="102,-224 6,-224 6,-198 102,-198 102,-224"/>
<text text-anchor="middle" x="54" y="-208.55" font-family="Helvetica,sans-Serif" font-size="10.50" fill="white">integrate_burgers</text>
</a>
</g>
<!-- program~integrate_burgers&#45;&gt;proc~test_ab -->
<g id="edge4" class="edge"><title>program~integrate_burgers&#45;&gt;proc~test_ab</title>
<path fill="none" stroke="black" d="M102.602,-220.139C113.04,-222.102 123.911,-224.146 133.833,-226.011"/>
<polygon fill="black" stroke="black" points="133.297,-229.472 143.772,-227.88 134.591,-222.592 133.297,-229.472"/>
</g>
<!-- program~integrate_burgers&#45;&gt;proc~test_rk -->
<g id="edge12" class="edge"><title>program~integrate_burgers&#45;&gt;proc~test_rk</title>
<path fill="none" stroke="black" d="M102.602,-201.861C113.04,-199.898 123.911,-197.854 133.833,-195.989"/>
<polygon fill="black" stroke="black" points="134.591,-199.408 143.772,-194.12 133.297,-192.528 134.591,-199.408"/>
</g>
<!-- program~integrate_oscillation -->
<g id="node16" class="node"><title>program~integrate_oscillation</title>
<a xlink:href="../program/integrate_oscillation.html" xlink:title="integrate_oscillation">
<polygon fill="#f0ad4e" stroke="#f0ad4e" points="107,-125 1,-125 1,-99 107,-99 107,-125"/>
<text text-anchor="middle" x="54" y="-109.55" font-family="Helvetica,sans-Serif" font-size="10.50" fill="white">integrate_oscillation</text>
</a>
</g>
<!-- program~integrate_oscillation&#45;&gt;proc~test_rk~4 -->
<g id="edge8" class="edge"><title>program~integrate_oscillation&#45;&gt;proc~test_rk~4</title>
<path fill="none" stroke="black" d="M100.241,-125.042C111.471,-128.21 123.332,-131.555 134.067,-134.583"/>
<polygon fill="black" stroke="black" points="133.381,-138.026 143.956,-137.372 135.281,-131.289 133.381,-138.026"/>
</g>
<!-- program~integrate_oscillation&#45;&gt;proc~test_ab~4 -->
<g id="edge16" class="edge"><title>program~integrate_oscillation&#45;&gt;proc~test_ab~4</title>
<path fill="none" stroke="black" d="M107.706,-106.951C116.492,-106.125 125.422,-105.285 133.699,-104.507"/>
<polygon fill="black" stroke="black" points="134.143,-107.981 143.772,-103.56 133.488,-101.011 134.143,-107.981"/>
</g>
<!-- program~integrate_lorenz -->
<g id="node18" class="node"><title>program~integrate_lorenz</title>
<a xlink:href="../program/integrate_lorenz.html" xlink:title="integrate_lorenz">
<polygon fill="#f0ad4e" stroke="#f0ad4e" points="99,-59 9,-59 9,-33 99,-33 99,-59"/>
<text text-anchor="middle" x="54" y="-43.55" font-family="Helvetica,sans-Serif" font-size="10.50" fill="white">integrate_lorenz</text>
</a>
</g>
<!-- program~integrate_lorenz&#45;&gt;proc~test_rk~3 -->
<g id="edge10" class="edge"><title>program~integrate_lorenz&#45;&gt;proc~test_rk~3</title>
<path fill="none" stroke="black" d="M99.2353,-50.2529C110.638,-51.325 122.751,-52.4638 133.714,-53.4945"/>
<polygon fill="black" stroke="black" points="133.528,-56.9924 143.812,-54.4439 134.184,-50.0231 133.528,-56.9924"/>
</g>
<!-- program~integrate_lorenz&#45;&gt;proc~test_ab~3 -->
<g id="edge14" class="edge"><title>program~integrate_lorenz&#45;&gt;proc~test_ab~3</title>
<path fill="none" stroke="black" d="M99.2353,-33.2413C110.756,-29.992 123.001,-26.5382 134.053,-23.421"/>
<polygon fill="black" stroke="black" points="135.138,-26.7517 143.812,-20.6684 133.237,-20.0145 135.138,-26.7517"/>
</g>
</g>
</svg>
