<?xml version="1.0" encoding="UTF-8" standalone="no"?>
<!DOCTYPE svg PUBLIC "-//W3C//DTD SVG 1.1//EN"
 "http://www.w3.org/Graphics/SVG/1.1/DTD/svg11.dtd">
<!-- Generated by graphviz version 2.26.3 (20100126.1600)
 -->
<!-- Title: proc~~save_time_serie~~CalledByGraph Pages: 1 -->
<svg width="352pt" height="210pt"
 viewBox="0.00 0.00 352.00 210.00" xmlns="http://www.w3.org/2000/svg" xmlns:xlink="http://www.w3.org/1999/xlink">
<g id="graph1" class="graph" transform="scale(1 1) rotate(0) translate(4 206)">
<title>proc~~save_time_serie~~CalledByGraph</title>
<polygon fill="white" stroke="white" points="-4,5 -4,-206 349,-206 349,5 -4,5"/>
<!-- proc~save_time_serie -->
<g id="node1" class="node"><title>proc~save_time_serie</title>
<polygon fill="none" stroke="black" points="343,-114 253,-114 253,-88 343,-88 343,-114"/>
<text text-anchor="middle" x="298" y="-98.55" font-family="Helvetica,sans-Serif" font-size="10.50">save_time_serie</text>
</g>
<!-- proc~test_tvd_rk~2 -->
<g id="node2" class="node"><title>proc~test_tvd_rk~2</title>
<a xlink:href="../proc/test_tvd_rk%7E2.html" xlink:title="test_tvd_rk">
<polygon fill="#d9534f" stroke="#d9534f" points="210,-202 146,-202 146,-176 210,-176 210,-202"/>
<text text-anchor="middle" x="178" y="-186.55" font-family="Helvetica,sans-Serif" font-size="10.50" fill="white">test_tvd_rk</text>
</a>
</g>
<!-- proc~test_tvd_rk~2&#45;&gt;proc~save_time_serie -->
<g id="edge12" class="edge"><title>proc~test_tvd_rk~2&#45;&gt;proc~save_time_serie</title>
<path fill="none" stroke="black" d="M202.061,-175.816C206.765,-173.031 211.6,-170.019 216,-167 236.917,-152.651 259.259,-134.459 275.33,-120.81"/>
<polygon fill="black" stroke="black" points="277.808,-123.296 283.123,-114.131 273.252,-117.982 277.808,-123.296"/>
</g>
<!-- proc~test_ab~2 -->
<g id="node3" class="node"><title>proc~test_ab~2</title>
<a xlink:href="../proc/test_ab%7E2.html" xlink:title="test_ab">
<polygon fill="#d9534f" stroke="#d9534f" points="205,-158 151,-158 151,-132 205,-132 205,-158"/>
<text text-anchor="middle" x="178" y="-142.55" font-family="Helvetica,sans-Serif" font-size="10.50" fill="white">test_ab</text>
</a>
</g>
<!-- proc~test_ab~2&#45;&gt;proc~save_time_serie -->
<g id="edge14" class="edge"><title>proc~test_ab~2&#45;&gt;proc~save_time_serie</title>
<path fill="none" stroke="black" d="M205.23,-135.016C219.203,-129.892 236.596,-123.515 252.533,-117.671"/>
<polygon fill="black" stroke="black" points="254.041,-120.846 262.225,-114.118 251.631,-114.274 254.041,-120.846"/>
</g>
<!-- proc~test_ls_rk~2 -->
<g id="node4" class="node"><title>proc~test_ls_rk~2</title>
<a xlink:href="../proc/test_ls_rk%7E2.html" xlink:title="test_ls_rk">
<polygon fill="#d9534f" stroke="#d9534f" points="207,-114 149,-114 149,-88 207,-88 207,-114"/>
<text text-anchor="middle" x="178" y="-98.55" font-family="Helvetica,sans-Serif" font-size="10.50" fill="white">test_ls_rk</text>
</a>
</g>
<!-- proc~test_ls_rk~2&#45;&gt;proc~save_time_serie -->
<g id="edge16" class="edge"><title>proc~test_ls_rk~2&#45;&gt;proc~save_time_serie</title>
<path fill="none" stroke="black" d="M207.049,-101C217.67,-101 230.073,-101 242.243,-101"/>
<polygon fill="black" stroke="black" points="242.366,-104.5 252.366,-101 242.366,-97.5001 242.366,-104.5"/>
</g>
<!-- proc~test_leapfrog~2 -->
<g id="node5" class="node"><title>proc~test_leapfrog~2</title>
<a xlink:href="../proc/test_leapfrog%7E2.html" xlink:title="test_leapfrog">
<polygon fill="#d9534f" stroke="#d9534f" points="215,-70 141,-70 141,-44 215,-44 215,-70"/>
<text text-anchor="middle" x="178" y="-54.55" font-family="Helvetica,sans-Serif" font-size="10.50" fill="white">test_leapfrog</text>
</a>
</g>
<!-- proc~test_leapfrog~2&#45;&gt;proc~save_time_serie -->
<g id="edge18" class="edge"><title>proc~test_leapfrog~2&#45;&gt;proc~save_time_serie</title>
<path fill="none" stroke="black" d="M213.679,-70.0823C225.901,-74.5637 239.744,-79.6394 252.628,-84.3636"/>
<polygon fill="black" stroke="black" points="251.658,-87.7356 262.251,-87.8921 254.067,-81.1634 251.658,-87.7356"/>
</g>
<!-- proc~test_euler~2 -->
<g id="node6" class="node"><title>proc~test_euler~2</title>
<a xlink:href="../proc/test_euler%7E2.html" xlink:title="test_euler">
<polygon fill="#d9534f" stroke="#d9534f" points="208,-26 148,-26 148,-1.24345e-14 208,-3.55271e-15 208,-26"/>
<text text-anchor="middle" x="178" y="-10.55" font-family="Helvetica,sans-Serif" font-size="10.50" fill="white">test_euler</text>
</a>
</g>
<!-- proc~test_euler~2&#45;&gt;proc~save_time_serie -->
<g id="edge20" class="edge"><title>proc~test_euler~2&#45;&gt;proc~save_time_serie</title>
<path fill="none" stroke="black" d="M202.061,-26.1845C206.765,-28.9688 211.6,-31.9815 216,-35 236.917,-49.3489 259.259,-67.5408 275.33,-81.19"/>
<polygon fill="black" stroke="black" points="273.252,-84.0185 283.123,-87.8691 277.808,-78.7037 273.252,-84.0185"/>
</g>
<!-- program~integrate_euler_1d -->
<g id="node7" class="node"><title>program~integrate_euler_1d</title>
<a xlink:href="../program/integrate_euler_1d.html" xlink:title="integrate_euler_1D">
<polygon fill="#f0ad4e" stroke="#f0ad4e" points="104,-114 3.55271e-14,-114 0,-88 104,-88 104,-114"/>
<text text-anchor="middle" x="52" y="-98.55" font-family="Helvetica,sans-Serif" font-size="10.50" fill="white">integrate_euler_1D</text>
</a>
</g>
<!-- program~integrate_euler_1d&#45;&gt;proc~test_tvd_rk~2 -->
<g id="edge2" class="edge"><title>program~integrate_euler_1d&#45;&gt;proc~test_tvd_rk~2</title>
<path fill="none" stroke="black" d="M68.1221,-114.005C85.4573,-127.77 114.033,-149.833 140,-167 141.86,-168.23 143.791,-169.466 145.753,-170.69"/>
<polygon fill="black" stroke="black" points="144.054,-173.753 154.423,-175.933 147.677,-167.763 144.054,-173.753"/>
</g>
<!-- program~integrate_euler_1d&#45;&gt;proc~test_ab~2 -->
<g id="edge4" class="edge"><title>program~integrate_euler_1d&#45;&gt;proc~test_ab~2</title>
<path fill="none" stroke="black" d="M89.463,-114.082C105.803,-119.788 124.902,-126.458 141.17,-132.139"/>
<polygon fill="black" stroke="black" points="140.288,-135.538 150.883,-135.53 142.596,-128.929 140.288,-135.538"/>
</g>
<!-- program~integrate_euler_1d&#45;&gt;proc~test_ls_rk~2 -->
<g id="edge6" class="edge"><title>program~integrate_euler_1d&#45;&gt;proc~test_ls_rk~2</title>
<path fill="none" stroke="black" d="M104.341,-101C115.818,-101 127.782,-101 138.648,-101"/>
<polygon fill="black" stroke="black" points="138.677,-104.5 148.677,-101 138.677,-97.5001 138.677,-104.5"/>
</g>
<!-- program~integrate_euler_1d&#45;&gt;proc~test_leapfrog~2 -->
<g id="edge8" class="edge"><title>program~integrate_euler_1d&#45;&gt;proc~test_leapfrog~2</title>
<path fill="none" stroke="black" d="M89.463,-87.9177C102.422,-83.3923 117.116,-78.2611 130.757,-73.4975"/>
<polygon fill="black" stroke="black" points="132.177,-76.7091 140.464,-70.1079 129.869,-70.1005 132.177,-76.7091"/>
</g>
<!-- program~integrate_euler_1d&#45;&gt;proc~test_euler~2 -->
<g id="edge10" class="edge"><title>program~integrate_euler_1d&#45;&gt;proc~test_euler~2</title>
<path fill="none" stroke="black" d="M68.1221,-87.9946C85.4573,-74.23 114.033,-52.167 140,-35 141.86,-33.7703 143.791,-32.5344 145.753,-31.3098"/>
<polygon fill="black" stroke="black" points="147.677,-34.2366 154.423,-26.067 144.054,-28.2466 147.677,-34.2366"/>
</g>
</g>
</svg>
