<?xml version="1.0" encoding="UTF-8" standalone="no"?>
<!DOCTYPE svg PUBLIC "-//W3C//DTD SVG 1.1//EN"
 "http://www.w3.org/Graphics/SVG/1.1/DTD/svg11.dtd">
<!-- Generated by graphviz version 2.38.0 (20140413.2041)
 -->
<!-- Title: proc~~save_plots~3~~CalledByGraph Pages: 1 -->
<svg width="301pt" height="116pt"
 viewBox="0.00 0.00 301.00 116.00" xmlns="http://www.w3.org/2000/svg" xmlns:xlink="http://www.w3.org/1999/xlink">
<g id="graph0" class="graph" transform="scale(1 1) rotate(0) translate(4 112)">
<title>proc~~save_plots~3~~CalledByGraph</title>
<polygon fill="white" stroke="none" points="-4,4 -4,-112 297,-112 297,4 -4,4"/>
<!-- proc~save_plots~3 -->
<g id="node1" class="node"><title>proc~save_plots~3</title>
<polygon fill="none" stroke="black" points="293,-66 229,-66 229,-42 293,-42 293,-66"/>
<text text-anchor="middle" x="261" y="-51.6" font-family="Helvetica,sans-Serif" font-size="10.50">save_plots</text>
</g>
<!-- proc~test_euler~3 -->
<g id="node2" class="node"><title>proc~test_euler~3</title>
<g id="a_node2"><a xlink:href="../proc/test_euler%7E3.html" xlink:title="test_euler">
<polygon fill="#d9534f" stroke="#d9534f" points="193,-108 133,-108 133,-84 193,-84 193,-108"/>
<text text-anchor="middle" x="163" y="-93.6" font-family="Helvetica,sans-Serif" font-size="10.50" fill="white">test_euler</text>
</a>
</g>
</g>
<!-- proc~test_euler~3&#45;&gt;proc~save_plots~3 -->
<g id="edge4" class="edge"><title>proc~test_euler~3&#45;&gt;proc~save_plots~3</title>
<path fill="none" stroke="black" d="M191.51,-83.9645C201.351,-79.6588 212.607,-74.7342 223.112,-70.1384"/>
<polygon fill="black" stroke="black" points="224.728,-73.2521 232.486,-66.0373 221.922,-66.839 224.728,-73.2521"/>
</g>
<!-- proc~test_ab~3 -->
<g id="node3" class="node"><title>proc~test_ab~3</title>
<g id="a_node3"><a xlink:href="../proc/test_ab%7E3.html" xlink:title="test_ab">
<polygon fill="#d9534f" stroke="#d9534f" points="190,-66 136,-66 136,-42 190,-42 190,-66"/>
<text text-anchor="middle" x="163" y="-51.6" font-family="Helvetica,sans-Serif" font-size="10.50" fill="white">test_ab</text>
</a>
</g>
</g>
<!-- proc~test_ab~3&#45;&gt;proc~save_plots~3 -->
<g id="edge5" class="edge"><title>proc~test_ab~3&#45;&gt;proc~save_plots~3</title>
<path fill="none" stroke="black" d="M190.232,-54C198.957,-54 208.899,-54 218.489,-54"/>
<polygon fill="black" stroke="black" points="218.682,-57.5001 228.682,-54 218.682,-50.5001 218.682,-57.5001"/>
</g>
<!-- proc~test_rk~3 -->
<g id="node4" class="node"><title>proc~test_rk~3</title>
<g id="a_node4"><a xlink:href="../proc/test_rk%7E3.html" xlink:title="test_rk">
<polygon fill="#d9534f" stroke="#d9534f" points="190,-24 136,-24 136,-0 190,-0 190,-24"/>
<text text-anchor="middle" x="163" y="-9.6" font-family="Helvetica,sans-Serif" font-size="10.50" fill="white">test_rk</text>
</a>
</g>
</g>
<!-- proc~test_rk~3&#45;&gt;proc~save_plots~3 -->
<g id="edge6" class="edge"><title>proc~test_rk~3&#45;&gt;proc~save_plots~3</title>
<path fill="none" stroke="black" d="M190.232,-23.4767C200.366,-27.91 212.141,-33.0617 223.1,-37.8561"/>
<polygon fill="black" stroke="black" points="221.894,-41.1487 232.458,-41.9504 224.699,-34.7356 221.894,-41.1487"/>
</g>
<!-- program~integrate_burgers -->
<g id="node5" class="node"><title>program~integrate_burgers</title>
<g id="a_node5"><a xlink:href="../program/integrate_burgers.html" xlink:title="integrate_burgers">
<polygon fill="#f0ad4e" stroke="#f0ad4e" points="97,-66 7.10543e-15,-66 7.10543e-15,-42 97,-42 97,-66"/>
<text text-anchor="middle" x="48.5" y="-51.6" font-family="Helvetica,sans-Serif" font-size="10.50" fill="white">integrate_burgers</text>
</a>
</g>
</g>
<!-- program~integrate_burgers&#45;&gt;proc~test_euler~3 -->
<g id="edge1" class="edge"><title>program~integrate_burgers&#45;&gt;proc~test_euler~3</title>
<path fill="none" stroke="black" d="M81.738,-66.0355C94.6953,-70.8729 109.745,-76.4916 123.288,-81.5476"/>
<polygon fill="black" stroke="black" points="122.239,-84.8919 132.832,-85.1105 124.688,-78.334 122.239,-84.8919"/>
</g>
<!-- program~integrate_burgers&#45;&gt;proc~test_ab~3 -->
<g id="edge2" class="edge"><title>program~integrate_burgers&#45;&gt;proc~test_ab~3</title>
<path fill="none" stroke="black" d="M97.2101,-54C106.766,-54 116.658,-54 125.749,-54"/>
<polygon fill="black" stroke="black" points="125.985,-57.5001 135.985,-54 125.985,-50.5001 125.985,-57.5001"/>
</g>
<!-- program~integrate_burgers&#45;&gt;proc~test_rk~3 -->
<g id="edge3" class="edge"><title>program~integrate_burgers&#45;&gt;proc~test_rk~3</title>
<path fill="none" stroke="black" d="M81.738,-41.9645C95.6652,-36.765 112.01,-30.6629 126.303,-25.327"/>
<polygon fill="black" stroke="black" points="127.67,-28.5525 135.814,-21.7759 125.222,-21.9946 127.67,-28.5525"/>
</g>
</g>
</svg>
