<?xml version="1.0" encoding="UTF-8" standalone="no"?>
<!DOCTYPE svg PUBLIC "-//W3C//DTD SVG 1.1//EN"
 "http://www.w3.org/Graphics/SVG/1.1/DTD/svg11.dtd">
<!-- Generated by graphviz version 2.26.3 (20100126.1600)
 -->
<!-- Title: proc~~save_results~3~~CalledByGraph Pages: 1 -->
<svg width="310pt" height="166pt"
 viewBox="0.00 0.00 310.00 166.00" xmlns="http://www.w3.org/2000/svg" xmlns:xlink="http://www.w3.org/1999/xlink">
<g id="graph1" class="graph" transform="scale(1 1) rotate(0) translate(4 162)">
<title>proc~~save_results~3~~CalledByGraph</title>
<polygon fill="white" stroke="white" points="-4,5 -4,-162 307,-162 307,5 -4,5"/>
<!-- proc~save_results~3 -->
<g id="node1" class="node"><title>proc~save_results~3</title>
<polygon fill="none" stroke="black" points="301,-92 229,-92 229,-66 301,-66 301,-92"/>
<text text-anchor="middle" x="265" y="-76.55" font-family="Helvetica,sans-Serif" font-size="10.50">save_results</text>
</g>
<!-- proc~test_euler~3 -->
<g id="node2" class="node"><title>proc~test_euler~3</title>
<a xlink:href="../proc/test_euler%7E3.html" xlink:title="test_euler">
<polygon fill="#d9534f" stroke="#d9534f" points="189,-158 129,-158 129,-132 189,-132 189,-158"/>
<text text-anchor="middle" x="159" y="-142.55" font-family="Helvetica,sans-Serif" font-size="10.50" fill="white">test_euler</text>
</a>
</g>
<!-- proc~test_euler~3&#45;&gt;proc~save_results~3 -->
<g id="edge10" class="edge"><title>proc~test_euler~3&#45;&gt;proc~save_results~3</title>
<path fill="none" stroke="black" d="M179.942,-131.961C195.767,-122.107 217.699,-108.451 235.329,-97.4742"/>
<polygon fill="black" stroke="black" points="237.462,-100.269 244.101,-92.0124 233.762,-94.3269 237.462,-100.269"/>
</g>
<!-- proc~test_ls_rk~3 -->
<g id="node3" class="node"><title>proc~test_ls_rk~3</title>
<a xlink:href="../proc/test_ls_rk%7E3.html" xlink:title="test_ls_rk">
<polygon fill="#d9534f" stroke="#d9534f" points="188,-114 130,-114 130,-88 188,-88 188,-114"/>
<text text-anchor="middle" x="159" y="-98.55" font-family="Helvetica,sans-Serif" font-size="10.50" fill="white">test_ls_rk</text>
</a>
</g>
<!-- proc~test_ls_rk~3&#45;&gt;proc~save_results~3 -->
<g id="edge12" class="edge"><title>proc~test_ls_rk~3&#45;&gt;proc~save_results~3</title>
<path fill="none" stroke="black" d="M188.246,-94.9302C197.529,-93.0033 208.04,-90.822 218.237,-88.7055"/>
<polygon fill="black" stroke="black" points="219.194,-92.0816 228.274,-86.6224 217.771,-85.2277 219.194,-92.0816"/>
</g>
<!-- proc~test_ab~3 -->
<g id="node4" class="node"><title>proc~test_ab~3</title>
<a xlink:href="../proc/test_ab%7E3.html" xlink:title="test_ab">
<polygon fill="#d9534f" stroke="#d9534f" points="186,-70 132,-70 132,-44 186,-44 186,-70"/>
<text text-anchor="middle" x="159" y="-54.55" font-family="Helvetica,sans-Serif" font-size="10.50" fill="white">test_ab</text>
</a>
</g>
<!-- proc~test_ab~3&#45;&gt;proc~save_results~3 -->
<g id="edge14" class="edge"><title>proc~test_ab~3&#45;&gt;proc~save_results~3</title>
<path fill="none" stroke="black" d="M186.023,-62.6085C195.885,-64.6553 207.341,-67.033 218.418,-69.332"/>
<polygon fill="black" stroke="black" points="217.924,-72.8041 228.427,-71.4094 219.347,-65.9501 217.924,-72.8041"/>
</g>
<!-- proc~test_tvd_rk~3 -->
<g id="node5" class="node"><title>proc~test_tvd_rk~3</title>
<a xlink:href="../proc/test_tvd_rk%7E3.html" xlink:title="test_tvd_rk">
<polygon fill="#d9534f" stroke="#d9534f" points="191,-26 127,-26 127,-1.24345e-14 191,-3.55271e-15 191,-26"/>
<text text-anchor="middle" x="159" y="-10.55" font-family="Helvetica,sans-Serif" font-size="10.50" fill="white">test_tvd_rk</text>
</a>
</g>
<!-- proc~test_tvd_rk~3&#45;&gt;proc~save_results~3 -->
<g id="edge16" class="edge"><title>proc~test_tvd_rk~3&#45;&gt;proc~save_results~3</title>
<path fill="none" stroke="black" d="M179.942,-26.0395C195.767,-35.8927 217.699,-49.5487 235.329,-60.5258"/>
<polygon fill="black" stroke="black" points="233.762,-63.6731 244.101,-65.9876 237.462,-57.7308 233.762,-63.6731"/>
</g>
<!-- program~integrate_lorenz -->
<g id="node6" class="node"><title>program~integrate_lorenz</title>
<a xlink:href="../program/integrate_lorenz.html" xlink:title="integrate_lorenz">
<polygon fill="#f0ad4e" stroke="#f0ad4e" points="90,-92 4.26326e-14,-92 0,-66 90,-66 90,-92"/>
<text text-anchor="middle" x="45" y="-76.55" font-family="Helvetica,sans-Serif" font-size="10.50" fill="white">integrate_lorenz</text>
</a>
</g>
<!-- program~integrate_lorenz&#45;&gt;proc~test_euler~3 -->
<g id="edge2" class="edge"><title>program~integrate_lorenz&#45;&gt;proc~test_euler~3</title>
<path fill="none" stroke="black" d="M67.5227,-92.0395C84.698,-101.983 108.563,-115.8 127.611,-126.827"/>
<polygon fill="black" stroke="black" points="126.116,-130.006 136.524,-131.988 129.623,-123.948 126.116,-130.006"/>
</g>
<!-- program~integrate_lorenz&#45;&gt;proc~test_ls_rk~3 -->
<g id="edge4" class="edge"><title>program~integrate_lorenz&#45;&gt;proc~test_ls_rk~3</title>
<path fill="none" stroke="black" d="M90.0558,-87.695C99.928,-89.6001 110.301,-91.6019 119.916,-93.4575"/>
<polygon fill="black" stroke="black" points="119.511,-96.9439 129.993,-95.4022 120.838,-90.0707 119.511,-96.9439"/>
</g>
<!-- program~integrate_lorenz&#45;&gt;proc~test_ab~3 -->
<g id="edge6" class="edge"><title>program~integrate_lorenz&#45;&gt;proc~test_ab~3</title>
<path fill="none" stroke="black" d="M90.0558,-70.305C100.698,-68.2512 111.922,-66.0852 122.152,-64.111"/>
<polygon fill="black" stroke="black" points="122.837,-67.5435 131.993,-62.212 121.511,-60.6703 122.837,-67.5435"/>
</g>
<!-- program~integrate_lorenz&#45;&gt;proc~test_tvd_rk~3 -->
<g id="edge8" class="edge"><title>program~integrate_lorenz&#45;&gt;proc~test_tvd_rk~3</title>
<path fill="none" stroke="black" d="M67.5227,-65.9605C84.698,-56.0169 108.563,-42.2004 127.611,-31.1727"/>
<polygon fill="black" stroke="black" points="129.623,-34.0518 136.524,-26.0124 126.116,-27.9938 129.623,-34.0518"/>
</g>
</g>
</svg>
