<?xml version="1.0" encoding="UTF-8" standalone="no"?>
<!DOCTYPE svg PUBLIC "-//W3C//DTD SVG 1.1//EN"
 "http://www.w3.org/Graphics/SVG/1.1/DTD/svg11.dtd">
<!-- Generated by graphviz version 2.26.3 (20100126.1600)
 -->
<!-- Title: proc~~r~~CalledByGraph Pages: 1 -->
<svg width="366pt" height="34pt"
 viewBox="0.00 0.00 366.00 34.00" xmlns="http://www.w3.org/2000/svg" xmlns:xlink="http://www.w3.org/1999/xlink">
<g id="graph1" class="graph" transform="scale(1 1) rotate(0) translate(4 30)">
<title>proc~~r~~CalledByGraph</title>
<polygon fill="white" stroke="white" points="-4,5 -4,-30 363,-30 363,5 -4,5"/>
<!-- proc~r -->
<g id="node1" class="node"><title>proc~r</title>
<polygon fill="none" stroke="black" points="358,-26 304,-26 304,-1.24345e-14 358,-3.55271e-15 358,-26"/>
<text text-anchor="middle" x="331" y="-10.55" font-family="Helvetica,sans-Serif" font-size="10.50">r</text>
</g>
<!-- none~eigen_vect_r -->
<g id="node2" class="node"><title>none~eigen_vect_r</title>
<polygon fill="#d94e8f" stroke="#d94e8f" points="268,-26 190,-26 190,-1.24345e-14 268,-3.55271e-15 268,-26"/>
<text text-anchor="middle" x="229" y="-10.55" font-family="Helvetica,sans-Serif" font-size="10.50" fill="white">eigen_vect_R</text>
</g>
<!-- none~eigen_vect_r&#45;&gt;proc~r -->
<g id="edge4" class="edge"><title>none~eigen_vect_r&#45;&gt;proc~r</title>
<path fill="none" stroke="black" d="M268.144,-13C276.519,-13 285.345,-13 293.649,-13"/>
<polygon fill="black" stroke="black" points="293.817,-16.5001 303.817,-13 293.817,-9.5001 293.817,-16.5001"/>
</g>
<!-- proc~reconstruct_interfaces_states -->
<g id="node3" class="node"><title>proc~reconstruct_interfaces_states</title>
<a xlink:href="../proc/reconstruct_interfaces_states.html" xlink:title="reconstruct_interfaces_states">
<polygon fill="#d9534f" stroke="#d9534f" points="153,-26 1,-26 1,-1.24345e-14 153,-3.55271e-15 153,-26"/>
<text text-anchor="middle" x="77" y="-10.55" font-family="Helvetica,sans-Serif" font-size="10.50" fill="white">reconstruct_interfaces_states</text>
</a>
</g>
<!-- proc~reconstruct_interfaces_states&#45;&gt;none~eigen_vect_r -->
<g id="edge2" class="edge"><title>proc~reconstruct_interfaces_states&#45;&gt;none~eigen_vect_r</title>
<path fill="none" stroke="black" d="M153.891,-13C162.692,-13 171.478,-13 179.775,-13"/>
<polygon fill="black" stroke="black" points="179.989,-16.5001 189.989,-13 179.989,-9.5001 179.989,-16.5001"/>
</g>
</g>
</svg>
