<?xml version="1.0" encoding="UTF-8" standalone="no"?>
<!DOCTYPE svg PUBLIC "-//W3C//DTD SVG 1.1//EN"
 "http://www.w3.org/Graphics/SVG/1.1/DTD/svg11.dtd">
<!-- Generated by graphviz version 2.26.3 (20100126.1600)
 -->
<!-- Title: proc~~h~2~~CalledByGraph Pages: 1 -->
<svg width="274pt" height="34pt"
 viewBox="0.00 0.00 274.00 34.00" xmlns="http://www.w3.org/2000/svg" xmlns:xlink="http://www.w3.org/1999/xlink">
<g id="graph1" class="graph" transform="scale(1 1) rotate(0) translate(4 30)">
<title>proc~~h~2~~CalledByGraph</title>
<polygon fill="white" stroke="white" points="-4,5 -4,-30 271,-30 271,5 -4,5"/>
<!-- proc~h~2 -->
<g id="node1" class="node"><title>proc~h~2</title>
<polygon fill="none" stroke="black" points="266,-26 212,-26 212,-1.24345e-14 266,-3.55271e-15 266,-26"/>
<text text-anchor="middle" x="239" y="-10.55" font-family="Helvetica,sans-Serif" font-size="10.50">H</text>
</g>
<!-- none~fluxes~2 -->
<g id="node2" class="node"><title>none~fluxes~2</title>
<polygon fill="#d94e8f" stroke="#d94e8f" points="176,-26 122,-26 122,-1.24345e-14 176,-3.55271e-15 176,-26"/>
<text text-anchor="middle" x="149" y="-10.55" font-family="Helvetica,sans-Serif" font-size="10.50" fill="white">fluxes</text>
</g>
<!-- none~fluxes~2&#45;&gt;proc~h~2 -->
<g id="edge4" class="edge"><title>none~fluxes~2&#45;&gt;proc~h~2</title>
<path fill="none" stroke="black" d="M176.003,-13C184.028,-13 192.967,-13 201.531,-13"/>
<polygon fill="black" stroke="black" points="201.705,-16.5001 211.705,-13 201.705,-9.5001 201.705,-16.5001"/>
</g>
<!-- proc~riemann_solver~2 -->
<g id="node3" class="node"><title>proc~riemann_solver~2</title>
<a xlink:href="../proc/riemann_solver%7E2.html" xlink:title="riemann_solver">
<polygon fill="#d9534f" stroke="#d9534f" points="86,-26 4.26326e-14,-26 0,-1.24345e-14 86,-3.55271e-15 86,-26"/>
<text text-anchor="middle" x="43" y="-10.55" font-family="Helvetica,sans-Serif" font-size="10.50" fill="white">riemann_solver</text>
</a>
</g>
<!-- proc~riemann_solver~2&#45;&gt;none~fluxes~2 -->
<g id="edge2" class="edge"><title>proc~riemann_solver~2&#45;&gt;none~fluxes~2</title>
<path fill="none" stroke="black" d="M86.1143,-13C94.5776,-13 103.39,-13 111.645,-13"/>
<polygon fill="black" stroke="black" points="111.737,-16.5001 121.737,-13 111.737,-9.5001 111.737,-16.5001"/>
</g>
</g>
</svg>
