<?xml version="1.0" encoding="UTF-8" standalone="no"?>
<!DOCTYPE svg PUBLIC "-//W3C//DTD SVG 1.1//EN"
 "http://www.w3.org/Graphics/SVG/1.1/DTD/svg11.dtd">
<!-- Generated by graphviz version 2.26.3 (20100126.1600)
 -->
<!-- Title: proc~~save_results~3~~CalledByGraph Pages: 1 -->
<svg width="320pt" height="210pt"
 viewBox="0.00 0.00 320.00 210.00" xmlns="http://www.w3.org/2000/svg" xmlns:xlink="http://www.w3.org/1999/xlink">
<g id="graph1" class="graph" transform="scale(1 1) rotate(0) translate(4 206)">
<title>proc~~save_results~3~~CalledByGraph</title>
<polygon fill="white" stroke="white" points="-4,5 -4,-206 317,-206 317,5 -4,5"/>
<!-- proc~save_results~3 -->
<g id="node1" class="node"><title>proc~save_results~3</title>
<polygon fill="none" stroke="black" points="311,-114 239,-114 239,-88 311,-88 311,-114"/>
<text text-anchor="middle" x="275" y="-98.55" font-family="Helvetica,sans-Serif" font-size="10.50">save_results</text>
</g>
<!-- proc~test_ab~3 -->
<g id="node2" class="node"><title>proc~test_ab~3</title>
<a xlink:href="../proc/test_ab%7E3.html" xlink:title="test_ab">
<polygon fill="#d9534f" stroke="#d9534f" points="191,-202 137,-202 137,-176 191,-176 191,-202"/>
<text text-anchor="middle" x="164" y="-186.55" font-family="Helvetica,sans-Serif" font-size="10.50" fill="white">test_ab</text>
</a>
</g>
<!-- proc~test_ab~3&#45;&gt;proc~save_results~3 -->
<g id="edge12" class="edge"><title>proc~test_ab~3&#45;&gt;proc~save_results~3</title>
<path fill="none" stroke="black" d="M188.604,-175.773C193.167,-173.037 197.811,-170.054 202,-167 221.104,-153.073 240.884,-134.918 255.028,-121.176"/>
<polygon fill="black" stroke="black" points="257.595,-123.56 262.265,-114.05 252.684,-118.572 257.595,-123.56"/>
</g>
<!-- proc~test_ls_rk~3 -->
<g id="node3" class="node"><title>proc~test_ls_rk~3</title>
<a xlink:href="../proc/test_ls_rk%7E3.html" xlink:title="test_ls_rk">
<polygon fill="#d9534f" stroke="#d9534f" points="193,-158 135,-158 135,-132 193,-132 193,-158"/>
<text text-anchor="middle" x="164" y="-142.55" font-family="Helvetica,sans-Serif" font-size="10.50" fill="white">test_ls_rk</text>
</a>
</g>
<!-- proc~test_ls_rk~3&#45;&gt;proc~save_results~3 -->
<g id="edge14" class="edge"><title>proc~test_ls_rk~3&#45;&gt;proc~save_results~3</title>
<path fill="none" stroke="black" d="M193.164,-133.44C205.259,-128.645 219.526,-122.99 232.732,-117.755"/>
<polygon fill="black" stroke="black" points="234.108,-120.975 242.114,-114.036 231.528,-114.467 234.108,-120.975"/>
</g>
<!-- proc~test_tvd_rk~3 -->
<g id="node4" class="node"><title>proc~test_tvd_rk~3</title>
<a xlink:href="../proc/test_tvd_rk%7E3.html" xlink:title="test_tvd_rk">
<polygon fill="#d9534f" stroke="#d9534f" points="196,-114 132,-114 132,-88 196,-88 196,-114"/>
<text text-anchor="middle" x="164" y="-98.55" font-family="Helvetica,sans-Serif" font-size="10.50" fill="white">test_tvd_rk</text>
</a>
</g>
<!-- proc~test_tvd_rk~3&#45;&gt;proc~save_results~3 -->
<g id="edge16" class="edge"><title>proc~test_tvd_rk~3&#45;&gt;proc~save_results~3</title>
<path fill="none" stroke="black" d="M196.703,-101C206.488,-101 217.416,-101 227.931,-101"/>
<polygon fill="black" stroke="black" points="228.251,-104.5 238.251,-101 228.251,-97.5001 228.251,-104.5"/>
</g>
<!-- proc~test_leapfrog~3 -->
<g id="node5" class="node"><title>proc~test_leapfrog~3</title>
<a xlink:href="../proc/test_leapfrog%7E3.html" xlink:title="test_leapfrog">
<polygon fill="#d9534f" stroke="#d9534f" points="201,-70 127,-70 127,-44 201,-44 201,-70"/>
<text text-anchor="middle" x="164" y="-54.55" font-family="Helvetica,sans-Serif" font-size="10.50" fill="white">test_leapfrog</text>
</a>
</g>
<!-- proc~test_leapfrog~3&#45;&gt;proc~save_results~3 -->
<g id="edge18" class="edge"><title>proc~test_leapfrog~3&#45;&gt;proc~save_results~3</title>
<path fill="none" stroke="black" d="M197.003,-70.0823C208.087,-74.4758 220.611,-79.4405 232.329,-84.0853"/>
<polygon fill="black" stroke="black" points="231.346,-87.4607 241.932,-87.8921 233.926,-80.9533 231.346,-87.4607"/>
</g>
<!-- proc~test_euler~3 -->
<g id="node6" class="node"><title>proc~test_euler~3</title>
<a xlink:href="../proc/test_euler%7E3.html" xlink:title="test_euler">
<polygon fill="#d9534f" stroke="#d9534f" points="194,-26 134,-26 134,-1.24345e-14 194,-3.55271e-15 194,-26"/>
<text text-anchor="middle" x="164" y="-10.55" font-family="Helvetica,sans-Serif" font-size="10.50" fill="white">test_euler</text>
</a>
</g>
<!-- proc~test_euler~3&#45;&gt;proc~save_results~3 -->
<g id="edge20" class="edge"><title>proc~test_euler~3&#45;&gt;proc~save_results~3</title>
<path fill="none" stroke="black" d="M188.604,-26.2273C193.167,-28.9626 197.811,-31.9463 202,-35 221.104,-48.9274 240.884,-67.0817 255.028,-80.8243"/>
<polygon fill="black" stroke="black" points="252.684,-83.4283 262.265,-87.9503 257.595,-78.4403 252.684,-83.4283"/>
</g>
<!-- program~integrate_lorenz -->
<g id="node7" class="node"><title>program~integrate_lorenz</title>
<a xlink:href="../program/integrate_lorenz.html" xlink:title="integrate_lorenz">
<polygon fill="#f0ad4e" stroke="#f0ad4e" points="90,-114 4.26326e-14,-114 0,-88 90,-88 90,-114"/>
<text text-anchor="middle" x="45" y="-98.55" font-family="Helvetica,sans-Serif" font-size="10.50" fill="white">integrate_lorenz</text>
</a>
</g>
<!-- program~integrate_lorenz&#45;&gt;proc~test_ab~3 -->
<g id="edge2" class="edge"><title>program~integrate_lorenz&#45;&gt;proc~test_ab~3</title>
<path fill="none" stroke="black" d="M59.6691,-114.151C75.483,-128.038 101.668,-150.201 126,-167 127.647,-168.137 129.355,-169.272 131.096,-170.394"/>
<polygon fill="black" stroke="black" points="129.575,-173.568 139.924,-175.836 133.249,-167.609 129.575,-173.568"/>
</g>
<!-- program~integrate_lorenz&#45;&gt;proc~test_ls_rk~3 -->
<g id="edge4" class="edge"><title>program~integrate_lorenz&#45;&gt;proc~test_ls_rk~3</title>
<path fill="none" stroke="black" d="M80.3817,-114.082C94.5208,-119.31 110.847,-125.347 125.3,-130.691"/>
<polygon fill="black" stroke="black" points="124.364,-134.076 134.957,-134.261 126.792,-127.511 124.364,-134.076"/>
</g>
<!-- program~integrate_lorenz&#45;&gt;proc~test_tvd_rk~3 -->
<g id="edge6" class="edge"><title>program~integrate_lorenz&#45;&gt;proc~test_tvd_rk~3</title>
<path fill="none" stroke="black" d="M90.3283,-101C100.468,-101 111.191,-101 121.223,-101"/>
<polygon fill="black" stroke="black" points="121.375,-104.5 131.375,-101 121.375,-97.5001 121.375,-104.5"/>
</g>
<!-- program~integrate_lorenz&#45;&gt;proc~test_leapfrog~3 -->
<g id="edge8" class="edge"><title>program~integrate_lorenz&#45;&gt;proc~test_leapfrog~3</title>
<path fill="none" stroke="black" d="M80.3817,-87.9177C92.5019,-83.4363 106.229,-78.3606 119.006,-73.6364"/>
<polygon fill="black" stroke="black" points="120.384,-76.8588 128.549,-70.1079 117.956,-70.2932 120.384,-76.8588"/>
</g>
<!-- program~integrate_lorenz&#45;&gt;proc~test_euler~3 -->
<g id="edge10" class="edge"><title>program~integrate_lorenz&#45;&gt;proc~test_euler~3</title>
<path fill="none" stroke="black" d="M59.6691,-87.8488C75.483,-73.9625 101.668,-51.7988 126,-35 127.647,-33.8631 129.355,-32.728 131.096,-31.6064"/>
<polygon fill="black" stroke="black" points="133.249,-34.3909 139.924,-26.1636 129.575,-28.4322 133.249,-34.3909"/>
</g>
</g>
</svg>
