<?xml version="1.0" encoding="UTF-8" standalone="no"?>
<!DOCTYPE svg PUBLIC "-//W3C//DTD SVG 1.1//EN"
 "http://www.w3.org/Graphics/SVG/1.1/DTD/svg11.dtd">
<!-- Generated by graphviz version 2.26.3 (20100126.1600)
 -->
<!-- Title: proc~~save_results~4~~CalledByGraph Pages: 1 -->
<svg width="322pt" height="122pt"
 viewBox="0.00 0.00 322.00 122.00" xmlns="http://www.w3.org/2000/svg" xmlns:xlink="http://www.w3.org/1999/xlink">
<g id="graph1" class="graph" transform="scale(1 1) rotate(0) translate(4 118)">
<title>proc~~save_results~4~~CalledByGraph</title>
<polygon fill="white" stroke="white" points="-4,5 -4,-118 319,-118 319,5 -4,5"/>
<!-- proc~save_results~4 -->
<g id="node1" class="node"><title>proc~save_results~4</title>
<polygon fill="none" stroke="black" points="313,-70 241,-70 241,-44 313,-44 313,-70"/>
<text text-anchor="middle" x="277" y="-54.55" font-family="Helvetica,sans-Serif" font-size="10.50">save_results</text>
</g>
<!-- proc~test_euler~4 -->
<g id="node2" class="node"><title>proc~test_euler~4</title>
<a xlink:href="../proc/test_euler%7E4.html" xlink:title="test_euler">
<polygon fill="#d9534f" stroke="#d9534f" points="204,-114 144,-114 144,-88 204,-88 204,-114"/>
<text text-anchor="middle" x="174" y="-98.55" font-family="Helvetica,sans-Serif" font-size="10.50" fill="white">test_euler</text>
</a>
</g>
<!-- proc~test_euler~4&#45;&gt;proc~save_results~4 -->
<g id="edge8" class="edge"><title>proc~test_euler~4&#45;&gt;proc~save_results~4</title>
<path fill="none" stroke="black" d="M204.069,-88.1551C214.356,-83.7605 226.032,-78.7727 236.979,-74.0964"/>
<polygon fill="black" stroke="black" points="238.537,-77.2369 246.358,-70.0898 235.787,-70.7996 238.537,-77.2369"/>
</g>
<!-- proc~test_ab~4 -->
<g id="node3" class="node"><title>proc~test_ab~4</title>
<a xlink:href="../proc/test_ab%7E4.html" xlink:title="test_ab">
<polygon fill="#d9534f" stroke="#d9534f" points="201,-70 147,-70 147,-44 201,-44 201,-70"/>
<text text-anchor="middle" x="174" y="-54.55" font-family="Helvetica,sans-Serif" font-size="10.50" fill="white">test_ab</text>
</a>
</g>
<!-- proc~test_ab~4&#45;&gt;proc~save_results~4 -->
<g id="edge10" class="edge"><title>proc~test_ab~4&#45;&gt;proc~save_results~4</title>
<path fill="none" stroke="black" d="M201.062,-57C209.998,-57 220.212,-57 230.189,-57"/>
<polygon fill="black" stroke="black" points="230.437,-60.5001 240.437,-57 230.437,-53.5001 230.437,-60.5001"/>
</g>
<!-- proc~test_rk~4 -->
<g id="node4" class="node"><title>proc~test_rk~4</title>
<a xlink:href="../proc/test_rk%7E4.html" xlink:title="test_rk">
<polygon fill="#d9534f" stroke="#d9534f" points="201,-26 147,-26 147,-1.24345e-14 201,-3.55271e-15 201,-26"/>
<text text-anchor="middle" x="174" y="-10.55" font-family="Helvetica,sans-Serif" font-size="10.50" fill="white">test_rk</text>
</a>
</g>
<!-- proc~test_rk~4&#45;&gt;proc~save_results~4 -->
<g id="edge12" class="edge"><title>proc~test_rk~4&#45;&gt;proc~save_results~4</title>
<path fill="none" stroke="black" d="M201.062,-24.5605C212.067,-29.2618 225.011,-34.791 237.063,-39.9397"/>
<polygon fill="black" stroke="black" points="235.913,-43.2543 246.484,-43.9641 238.663,-36.817 235.913,-43.2543"/>
</g>
<!-- program~integrate_oscillation -->
<g id="node5" class="node"><title>program~integrate_oscillation</title>
<a xlink:href="../program/integrate_oscillation.html" xlink:title="integrate_oscillation">
<polygon fill="#f0ad4e" stroke="#f0ad4e" points="107,-70 1,-70 1,-44 107,-44 107,-70"/>
<text text-anchor="middle" x="54" y="-54.55" font-family="Helvetica,sans-Serif" font-size="10.50" fill="white">integrate_oscillation</text>
</a>
</g>
<!-- program~integrate_oscillation&#45;&gt;proc~test_euler~4 -->
<g id="edge2" class="edge"><title>program~integrate_oscillation&#45;&gt;proc~test_euler~4</title>
<path fill="none" stroke="black" d="M89.6791,-70.0823C103.712,-75.2279 119.882,-81.1569 134.285,-86.4379"/>
<polygon fill="black" stroke="black" points="133.332,-89.8163 143.926,-89.9728 135.742,-83.2441 133.332,-89.8163"/>
</g>
<!-- program~integrate_oscillation&#45;&gt;proc~test_ab~4 -->
<g id="edge4" class="edge"><title>program~integrate_oscillation&#45;&gt;proc~test_ab~4</title>
<path fill="none" stroke="black" d="M107.682,-57C117.566,-57 127.682,-57 136.939,-57"/>
<polygon fill="black" stroke="black" points="136.969,-60.5001 146.969,-57 136.969,-53.5001 136.969,-60.5001"/>
</g>
<!-- program~integrate_oscillation&#45;&gt;proc~test_rk~4 -->
<g id="edge6" class="edge"><title>program~integrate_oscillation&#45;&gt;proc~test_rk~4</title>
<path fill="none" stroke="black" d="M89.6791,-43.9177C104.641,-38.4317 122.031,-32.0552 137.119,-26.523"/>
<polygon fill="black" stroke="black" points="138.469,-29.756 146.653,-23.0273 136.059,-23.1838 138.469,-29.756"/>
</g>
</g>
</svg>
