<?xml version="1.0" encoding="UTF-8" standalone="no"?>
<!DOCTYPE svg PUBLIC "-//W3C//DTD SVG 1.1//EN"
 "http://www.w3.org/Graphics/SVG/1.1/DTD/svg11.dtd">
<!-- Generated by graphviz version 2.26.3 (20100126.1600)
 -->
<!-- Title: proc~~save_time_serie~~CalledByGraph Pages: 1 -->
<svg width="286pt" height="34pt"
 viewBox="0.00 0.00 286.00 34.00" xmlns="http://www.w3.org/2000/svg" xmlns:xlink="http://www.w3.org/1999/xlink">
<g id="graph1" class="graph" transform="scale(1 1) rotate(0) translate(4 30)">
<title>proc~~save_time_serie~~CalledByGraph</title>
<polygon fill="white" stroke="white" points="-4,5 -4,-30 283,-30 283,5 -4,5"/>
<!-- proc~save_time_serie -->
<g id="node1" class="node"><title>proc~save_time_serie</title>
<polygon fill="none" stroke="black" points="277,-26 187,-26 187,-1.24345e-14 277,-3.55271e-15 277,-26"/>
<text text-anchor="middle" x="232" y="-10.55" font-family="Helvetica,sans-Serif" font-size="10.50">save_time_serie</text>
</g>
<!-- program~integrate_euler_1d_openmp -->
<g id="node2" class="node"><title>program~integrate_euler_1d_openmp</title>
<a xlink:href="../program/integrate_euler_1d_openmp.html" xlink:title="integrate_euler_1D_openmp">
<polygon fill="#f0ad4e" stroke="#f0ad4e" points="149,-26 1,-26 1,-1.24345e-14 149,-3.55271e-15 149,-26"/>
<text text-anchor="middle" x="75" y="-10.55" font-family="Helvetica,sans-Serif" font-size="10.50" fill="white">integrate_euler_1D_openmp</text>
</a>
</g>
<!-- program~integrate_euler_1d_openmp&#45;&gt;proc~save_time_serie -->
<g id="edge2" class="edge"><title>program~integrate_euler_1d_openmp&#45;&gt;proc~save_time_serie</title>
<path fill="none" stroke="black" d="M149.822,-13C158.693,-13 167.627,-13 176.17,-13"/>
<polygon fill="black" stroke="black" points="176.365,-16.5001 186.365,-13 176.365,-9.5001 176.365,-16.5001"/>
</g>
</g>
</svg>
