<?xml version="1.0" encoding="UTF-8" standalone="no"?>
<!DOCTYPE svg PUBLIC "-//W3C//DTD SVG 1.1//EN"
 "http://www.w3.org/Graphics/SVG/1.1/DTD/svg11.dtd">
<!-- Generated by graphviz version 2.26.3 (20100126.1600)
 -->
<!-- Title: program~~integrate_euler_1d~~UsesGraph Pages: 1 -->
<svg width="641pt" height="221pt"
 viewBox="0.00 0.00 641.00 220.58" xmlns="http://www.w3.org/2000/svg" xmlns:xlink="http://www.w3.org/1999/xlink">
<g id="graph1" class="graph" transform="scale(0.725113 0.725113) rotate(0) translate(4 300.197)">
<title>program~~integrate_euler_1d~~UsesGraph</title>
<polygon fill="white" stroke="white" points="-4,5 -4,-300.197 881,-300.197 881,5 -4,5"/>
<!-- program~integrate_euler_1d -->
<g id="node1" class="node"><title>program~integrate_euler_1d</title>
<polygon fill="none" stroke="black" points="876,-173 772,-173 772,-147 876,-147 876,-173"/>
<text text-anchor="middle" x="824" y="-157.55" font-family="Helvetica,sans-Serif" font-size="10.50">integrate_euler_1D</text>
</g>
<!-- IR_Precision -->
<g id="node2" class="node"><title>IR_Precision</title>
<polygon fill="#337ab7" stroke="#337ab7" points="73,-172 1,-172 1,-146 73,-146 73,-172"/>
<text text-anchor="middle" x="37" y="-156.55" font-family="Helvetica,sans-Serif" font-size="10.50" fill="white">IR_Precision</text>
</g>
<!-- IR_Precision&#45;&gt;program~integrate_euler_1d -->
<g id="edge30" class="edge"><title>IR_Precision&#45;&gt;program~integrate_euler_1d</title>
<path fill="none" stroke="black" stroke-dasharray="5,2" d="M152,-262C358.018,-326.904 422.995,-282.706 638,-262"/>
</g>
<!-- module~type_euler_1d -->
<g id="node6" class="node"><title>module~type_euler_1d</title>
<a xlink:href="../module/type_euler_1d.html" xlink:title="type_euler_1D">
<polygon fill="#337ab7" stroke="#337ab7" points="679,-87 597,-87 597,-61 679,-61 679,-87"/>
<text text-anchor="middle" x="638" y="-71.55" font-family="Helvetica,sans-Serif" font-size="10.50" fill="white">type_euler_1D</text>
</a>
</g>
<!-- IR_Precision&#45;&gt;module~type_euler_1d -->
<g id="edge24" class="edge"><title>IR_Precision&#45;&gt;module~type_euler_1d</title>
<path fill="none" stroke="black" stroke-dasharray="5,2" d="M54.0979,-145.728C75.556,-129.999 114.153,-104.703 152,-95"/>
<path fill="none" stroke="black" stroke-dasharray="5,2" d="M152,-95C186.891,-86.0546 194.321,-77.9354 230,-73 311.006,-61.7946 332.222,-72.8175 414,-73 473.169,-73.1321 541.129,-73.4604 586.531,-73.705"/>
<polygon fill="black" stroke="black" points="586.696,-77.2059 596.715,-73.7605 586.734,-70.206 586.696,-77.2059"/>
</g>
<!-- module~foodie_integrator_adams_bashforth -->
<g id="node7" class="node"><title>module~foodie_integrator_adams_bashforth</title>
<a xlink:href="../module/foodie_integrator_adams_bashforth.html" xlink:title="foodie_integrator_adams_bashforth">
<polygon fill="#337ab7" stroke="#337ab7" points="413,-152 231,-152 231,-126 413,-126 413,-152"/>
<text text-anchor="middle" x="322" y="-136.55" font-family="Helvetica,sans-Serif" font-size="10.50" fill="white">foodie_integrator_adams_bashforth</text>
</a>
</g>
<!-- IR_Precision&#45;&gt;module~foodie_integrator_adams_bashforth -->
<g id="edge2" class="edge"><title>IR_Precision&#45;&gt;module~foodie_integrator_adams_bashforth</title>
<path fill="none" stroke="black" stroke-dasharray="5,2" d="M152,-95C186.891,-86.0546 195.144,-107.921 230,-117 238.429,-119.196 247.315,-121.426 256.105,-123.582"/>
<polygon fill="black" stroke="black" points="255.417,-127.017 265.961,-125.979 257.072,-120.215 255.417,-127.017"/>
</g>
<!-- module~foodie_integrator_tvd_runge_kutta -->
<g id="node8" class="node"><title>module~foodie_integrator_tvd_runge_kutta</title>
<a xlink:href="../module/foodie_integrator_tvd_runge_kutta.html" xlink:title="foodie_integrator_tvd_runge_kutta">
<polygon fill="#337ab7" stroke="#337ab7" points="410,-108 234,-108 234,-82 410,-82 410,-108"/>
<text text-anchor="middle" x="322" y="-92.55" font-family="Helvetica,sans-Serif" font-size="10.50" fill="white">foodie_integrator_tvd_runge_kutta</text>
</a>
</g>
<!-- IR_Precision&#45;&gt;module~foodie_integrator_tvd_runge_kutta -->
<g id="edge6" class="edge"><title>IR_Precision&#45;&gt;module~foodie_integrator_tvd_runge_kutta</title>
<path fill="none" stroke="black" stroke-dasharray="5,2" d="M152,-95C174.639,-89.1957 199.539,-86.9823 223.134,-86.6935"/>
<polygon fill="black" stroke="black" points="223.16,-90.1936 233.156,-86.6828 223.152,-83.1936 223.16,-90.1936"/>
</g>
<!-- module~type_integrand -->
<g id="node9" class="node"><title>module~type_integrand</title>
<a xlink:href="../module/type_integrand.html" xlink:title="type_integrand">
<polygon fill="#337ab7" stroke="#337ab7" points="194,-172 110,-172 110,-146 194,-146 194,-172"/>
<text text-anchor="middle" x="152" y="-156.55" font-family="Helvetica,sans-Serif" font-size="10.50" fill="white">type_integrand</text>
</a>
</g>
<!-- IR_Precision&#45;&gt;module~type_integrand -->
<g id="edge10" class="edge"><title>IR_Precision&#45;&gt;module~type_integrand</title>
<path fill="none" stroke="black" stroke-dasharray="5,2" d="M73.7029,-159C81.9237,-159 90.8,-159 99.521,-159"/>
<polygon fill="black" stroke="black" points="99.6389,-162.5 109.639,-159 99.6388,-155.5 99.6389,-162.5"/>
</g>
<!-- module~foodie_integrator_euler_explicit -->
<g id="node10" class="node"><title>module~foodie_integrator_euler_explicit</title>
<a xlink:href="../module/foodie_integrator_euler_explicit.html" xlink:title="foodie_integrator_euler_explicit">
<polygon fill="#337ab7" stroke="#337ab7" points="403,-234 241,-234 241,-208 403,-208 403,-234"/>
<text text-anchor="middle" x="322" y="-218.55" font-family="Helvetica,sans-Serif" font-size="10.50" fill="white">foodie_integrator_euler_explicit</text>
</a>
</g>
<!-- IR_Precision&#45;&gt;module~foodie_integrator_euler_explicit -->
<g id="edge12" class="edge"><title>IR_Precision&#45;&gt;module~foodie_integrator_euler_explicit</title>
<path fill="none" stroke="black" stroke-dasharray="5,2" d="M45.7657,-172.194C62.7711,-196.331 102.917,-246.537 152,-262"/>
<path fill="none" stroke="black" stroke-dasharray="5,2" d="M152,-262C163.196,-265.527 222.906,-249.83 268.429,-236.848"/>
<polygon fill="black" stroke="black" points="269.55,-240.168 278.195,-234.043 267.618,-233.44 269.55,-240.168"/>
</g>
<!-- module~foodie -->
<g id="node3" class="node"><title>module~foodie</title>
<a xlink:href="../module/foodie.html" xlink:title="foodie">
<polygon fill="#337ab7" stroke="#337ab7" points="504,-172 450,-172 450,-146 504,-146 504,-172"/>
<text text-anchor="middle" x="477" y="-156.55" font-family="Helvetica,sans-Serif" font-size="10.50" fill="white">foodie</text>
</a>
</g>
<!-- module~foodie&#45;&gt;program~integrate_euler_1d -->
<g id="edge32" class="edge"><title>module~foodie&#45;&gt;program~integrate_euler_1d</title>
<path fill="none" stroke="black" stroke-dasharray="5,2" d="M486.908,-172.105C510.222,-201.251 571.611,-268.393 638,-262"/>
<path fill="none" stroke="black" stroke-dasharray="5,2" d="M638,-262C704.238,-255.621 769.632,-207.434 802.376,-179.633"/>
<polygon fill="black" stroke="black" points="804.715,-182.238 809.978,-173.042 800.13,-176.949 804.715,-182.238"/>
</g>
<!-- module~foodie&#45;&gt;module~type_euler_1d -->
<g id="edge28" class="edge"><title>module~foodie&#45;&gt;module~type_euler_1d</title>
<path fill="none" stroke="black" stroke-dasharray="5,2" d="M494.338,-145.814C506.677,-136.771 523.863,-124.855 540,-116 556.821,-106.769 576.087,-98.1276 593.061,-91.1116"/>
<polygon fill="black" stroke="black" points="594.805,-94.1811 602.754,-87.1764 592.171,-87.6952 594.805,-94.1811"/>
</g>
<!-- pyplot_module -->
<g id="node4" class="node"><title>pyplot_module</title>
<polygon fill="#337ab7" stroke="#337ab7" points="679,-195 597,-195 597,-169 679,-169 679,-195"/>
<text text-anchor="middle" x="638" y="-179.55" font-family="Helvetica,sans-Serif" font-size="10.50" fill="white">pyplot_module</text>
</g>
<!-- pyplot_module&#45;&gt;program~integrate_euler_1d -->
<g id="edge34" class="edge"><title>pyplot_module&#45;&gt;program~integrate_euler_1d</title>
<path fill="none" stroke="black" stroke-dasharray="5,2" d="M679.279,-177.117C703.479,-174.255 734.53,-170.582 761.661,-167.373"/>
<polygon fill="black" stroke="black" points="762.325,-170.819 771.845,-166.169 761.503,-163.868 762.325,-170.819"/>
</g>
<!-- Data_Type_Command_Line_Interface -->
<g id="node5" class="node"><title>Data_Type_Command_Line_Interface</title>
<polygon fill="#337ab7" stroke="#337ab7" points="735,-151 541,-151 541,-125 735,-125 735,-151"/>
<text text-anchor="middle" x="638" y="-135.55" font-family="Helvetica,sans-Serif" font-size="10.50" fill="white">Data_Type_Command_Line_Interface</text>
</g>
<!-- Data_Type_Command_Line_Interface&#45;&gt;program~integrate_euler_1d -->
<g id="edge36" class="edge"><title>Data_Type_Command_Line_Interface&#45;&gt;program~integrate_euler_1d</title>
<path fill="none" stroke="black" stroke-dasharray="5,2" d="M735.63,-149.548C744.485,-150.595 753.283,-151.636 761.703,-152.632"/>
<polygon fill="black" stroke="black" points="761.422,-156.123 771.764,-153.822 762.245,-149.171 761.422,-156.123"/>
</g>
<!-- module~type_euler_1d&#45;&gt;program~integrate_euler_1d -->
<g id="edge38" class="edge"><title>module~type_euler_1d&#45;&gt;program~integrate_euler_1d</title>
<path fill="none" stroke="black" stroke-dasharray="5,2" d="M669.987,-87.1497C689.239,-95.2027 714.17,-105.875 736,-116 753.876,-124.291 773.51,-134.044 789.689,-142.258"/>
<polygon fill="black" stroke="black" points="788.277,-145.468 798.776,-146.894 791.459,-139.232 788.277,-145.468"/>
</g>
<!-- module~foodie_integrator_adams_bashforth&#45;&gt;module~foodie -->
<g id="edge16" class="edge"><title>module~foodie_integrator_adams_bashforth&#45;&gt;module~foodie</title>
<path fill="none" stroke="black" stroke-dasharray="5,2" d="M413.508,-150.808C422.714,-151.995 431.647,-153.148 439.764,-154.195"/>
<polygon fill="black" stroke="black" points="439.554,-157.697 449.919,-155.506 440.45,-150.755 439.554,-157.697"/>
</g>
<!-- module~foodie_integrator_tvd_runge_kutta&#45;&gt;module~foodie -->
<g id="edge18" class="edge"><title>module~foodie_integrator_tvd_runge_kutta&#45;&gt;module~foodie</title>
<path fill="none" stroke="black" stroke-dasharray="5,2" d="M389.243,-108.141C397.729,-110.65 406.173,-113.585 414,-117 427.634,-122.948 441.524,-131.843 452.78,-139.919"/>
<polygon fill="black" stroke="black" points="450.705,-142.738 460.826,-145.872 454.868,-137.11 450.705,-142.738"/>
</g>
<!-- module~type_integrand&#45;&gt;module~foodie -->
<g id="edge20" class="edge"><title>module~type_integrand&#45;&gt;module~foodie</title>
<path fill="none" stroke="black" stroke-dasharray="5,2" d="M194.096,-160.277C205.726,-160.576 218.351,-160.851 230,-161 311.771,-162.048 332.233,-162.298 414,-161 422.323,-160.868 431.263,-160.638 439.718,-160.379"/>
<polygon fill="black" stroke="black" points="439.835,-163.878 449.716,-160.055 439.608,-156.881 439.835,-163.878"/>
</g>
<!-- module~type_integrand&#45;&gt;module~foodie_integrator_adams_bashforth -->
<g id="edge4" class="edge"><title>module~type_integrand&#45;&gt;module~foodie_integrator_adams_bashforth</title>
<path fill="none" stroke="black" stroke-dasharray="5,2" d="M194.022,-154.056C202.182,-153.096 211.058,-152.052 220.205,-150.976"/>
<polygon fill="black" stroke="black" points="220.692,-154.443 230.215,-149.798 219.874,-147.491 220.692,-154.443"/>
</g>
<!-- module~type_integrand&#45;&gt;module~foodie_integrator_tvd_runge_kutta -->
<g id="edge8" class="edge"><title>module~type_integrand&#45;&gt;module~foodie_integrator_tvd_runge_kutta</title>
<path fill="none" stroke="black" stroke-dasharray="5,2" d="M172.812,-145.866C188.133,-136.684 209.738,-124.727 230,-117 235.841,-114.773 241.978,-112.721 248.195,-110.843"/>
<polygon fill="black" stroke="black" points="249.351,-114.153 257.999,-108.033 247.422,-107.424 249.351,-114.153"/>
</g>
<!-- module~type_integrand&#45;&gt;module~foodie_integrator_euler_explicit -->
<g id="edge14" class="edge"><title>module~type_integrand&#45;&gt;module~foodie_integrator_euler_explicit</title>
<path fill="none" stroke="black" stroke-dasharray="5,2" d="M178.698,-172.068C193.59,-179.08 212.595,-187.575 230,-194 240.629,-197.923 252.109,-201.669 263.236,-205.054"/>
<polygon fill="black" stroke="black" points="262.311,-208.431 272.894,-207.932 264.31,-201.722 262.311,-208.431"/>
</g>
<!-- module~foodie_integrator_euler_explicit&#45;&gt;module~foodie -->
<g id="edge22" class="edge"><title>module~foodie_integrator_euler_explicit&#45;&gt;module~foodie</title>
<path fill="none" stroke="black" stroke-dasharray="5,2" d="M373.797,-207.98C387.103,-204.046 401.255,-199.333 414,-194 425.338,-189.256 437.25,-183 447.627,-177.09"/>
<polygon fill="black" stroke="black" points="449.423,-180.094 456.297,-172.033 445.896,-174.048 449.423,-180.094"/>
</g>
<!-- wenoof -->
<g id="node22" class="node"><title>wenoof</title>
<polygon fill="#337ab7" stroke="#337ab7" points="504,-26 450,-26 450,-1.24345e-14 504,-3.55271e-15 504,-26"/>
<text text-anchor="middle" x="477" y="-10.55" font-family="Helvetica,sans-Serif" font-size="10.50" fill="white">wenoof</text>
</g>
<!-- wenoof&#45;&gt;module~type_euler_1d -->
<g id="edge26" class="edge"><title>wenoof&#45;&gt;module~type_euler_1d</title>
<path fill="none" stroke="black" stroke-dasharray="5,2" d="M504.311,-23.3478C528.895,-32.6622 565.459,-46.5153 594.136,-57.3809"/>
<polygon fill="black" stroke="black" points="592.94,-60.6701 603.531,-60.9403 595.42,-54.1242 592.94,-60.6701"/>
</g>
</g>
</svg>
