<?xml version="1.0" encoding="UTF-8" standalone="no"?>
<!DOCTYPE svg PUBLIC "-//W3C//DTD SVG 1.1//EN"
 "http://www.w3.org/Graphics/SVG/1.1/DTD/svg11.dtd">
<!-- Generated by graphviz version 2.26.3 (20100126.1600)
 -->
<!-- Title: program~~integrate_euler_1d~~UsesGraph Pages: 1 -->
<svg width="641pt" height="256pt"
 viewBox="0.00 0.00 641.00 256.40" xmlns="http://www.w3.org/2000/svg" xmlns:xlink="http://www.w3.org/1999/xlink">
<g id="graph1" class="graph" transform="scale(0.696739 0.696739) rotate(0) translate(4 364)">
<title>program~~integrate_euler_1d~~UsesGraph</title>
<polygon fill="white" stroke="white" points="-4,5 -4,-364 917,-364 917,5 -4,5"/>
<!-- program~integrate_euler_1d -->
<g id="node1" class="node"><title>program~integrate_euler_1d</title>
<polygon fill="none" stroke="black" points="912,-266 808,-266 808,-240 912,-240 912,-266"/>
<text text-anchor="middle" x="860" y="-250.55" font-family="Helvetica,sans-Serif" font-size="10.50">integrate_euler_1D</text>
</g>
<!-- pyplot_module -->
<g id="node2" class="node"><title>pyplot_module</title>
<polygon fill="#337ab7" stroke="#337ab7" points="715,-360 633,-360 633,-334 715,-334 715,-360"/>
<text text-anchor="middle" x="674" y="-344.55" font-family="Helvetica,sans-Serif" font-size="10.50" fill="white">pyplot_module</text>
</g>
<!-- pyplot_module&#45;&gt;program~integrate_euler_1d -->
<g id="edge36" class="edge"><title>pyplot_module&#45;&gt;program~integrate_euler_1d</title>
<path fill="none" stroke="black" stroke-dasharray="5,2" d="M715.326,-339.308C733.315,-335.035 754.287,-328.771 772,-320 796.844,-307.698 821.654,-287.962 838.568,-273.09"/>
<polygon fill="black" stroke="black" points="841.1,-275.519 846.202,-266.233 836.423,-270.311 841.1,-275.519"/>
</g>
<!-- IR_Precision -->
<g id="node3" class="node"><title>IR_Precision</title>
<polygon fill="#337ab7" stroke="#337ab7" points="73,-193 1,-193 1,-167 73,-167 73,-193"/>
<text text-anchor="middle" x="37" y="-177.55" font-family="Helvetica,sans-Serif" font-size="10.50" fill="white">IR_Precision</text>
</g>
<!-- IR_Precision&#45;&gt;program~integrate_euler_1d -->
<g id="edge38" class="edge"><title>IR_Precision&#45;&gt;program~integrate_euler_1d</title>
<path fill="none" stroke="black" stroke-dasharray="5,2" d="M152,-306C373.25,-375.802 442.047,-301.31 674,-306"/>
</g>
<!-- module~type_euler_1d -->
<g id="node5" class="node"><title>module~type_euler_1d</title>
<a xlink:href="../module/type_euler_1d.html" xlink:title="type_euler_1D">
<polygon fill="#337ab7" stroke="#337ab7" points="715,-213 633,-213 633,-187 715,-187 715,-213"/>
<text text-anchor="middle" x="674" y="-197.55" font-family="Helvetica,sans-Serif" font-size="10.50" fill="white">type_euler_1D</text>
</a>
</g>
<!-- IR_Precision&#45;&gt;module~type_euler_1d -->
<g id="edge30" class="edge"><title>IR_Precision&#45;&gt;module~type_euler_1d</title>
<path fill="none" stroke="black" stroke-dasharray="5,2" d="M48.8681,-166.976C68.164,-146.887 108.574,-109.179 152,-95"/>
<path fill="none" stroke="black" stroke-dasharray="5,2" d="M152,-95C278.246,-53.7798 325.127,-27.7899 450,-73 518.542,-97.8155 510.61,-145.783 576,-178 590.499,-185.144 607.347,-189.998 622.942,-193.285"/>
<polygon fill="black" stroke="black" points="622.489,-196.762 632.972,-195.227 623.819,-189.89 622.489,-196.762"/>
</g>
<!-- module~foodie_integrator_low_storage_runge_kutta -->
<g id="node7" class="node"><title>module~foodie_integrator_low_storage_runge_kutta</title>
<a xlink:href="../module/foodie_integrator_low_storage_runge_kutta.html" xlink:title="foodie_integrator_low_storage_runge_kutta">
<polygon fill="#337ab7" stroke="#337ab7" points="450,-152 230,-152 230,-126 450,-126 450,-152"/>
<text text-anchor="middle" x="340" y="-136.55" font-family="Helvetica,sans-Serif" font-size="10.50" fill="white">foodie_integrator_low_storage_runge_kutta</text>
</a>
</g>
<!-- IR_Precision&#45;&gt;module~foodie_integrator_low_storage_runge_kutta -->
<g id="edge2" class="edge"><title>IR_Precision&#45;&gt;module~foodie_integrator_low_storage_runge_kutta</title>
<path fill="none" stroke="black" stroke-dasharray="5,2" d="M152,-95C186.24,-83.8203 194.981,-108.573 230,-117 239.901,-119.383 250.346,-121.71 260.701,-123.905"/>
<polygon fill="black" stroke="black" points="260.076,-127.349 270.58,-125.966 261.506,-120.497 260.076,-127.349"/>
</g>
<!-- module~foodie_integrator_tvd_runge_kutta -->
<g id="node8" class="node"><title>module~foodie_integrator_tvd_runge_kutta</title>
<a xlink:href="../module/foodie_integrator_tvd_runge_kutta.html" xlink:title="foodie_integrator_tvd_runge_kutta">
<polygon fill="#337ab7" stroke="#337ab7" points="428,-108 252,-108 252,-82 428,-82 428,-108"/>
<text text-anchor="middle" x="340" y="-92.55" font-family="Helvetica,sans-Serif" font-size="10.50" fill="white">foodie_integrator_tvd_runge_kutta</text>
</a>
</g>
<!-- IR_Precision&#45;&gt;module~foodie_integrator_tvd_runge_kutta -->
<g id="edge6" class="edge"><title>IR_Precision&#45;&gt;module~foodie_integrator_tvd_runge_kutta</title>
<path fill="none" stroke="black" stroke-dasharray="5,2" d="M152,-95C180.032,-85.8473 211.694,-83.155 240.932,-83.503"/>
<polygon fill="black" stroke="black" points="241.082,-87.0075 251.163,-83.7473 241.249,-80.0095 241.082,-87.0075"/>
</g>
<!-- module~type_integrand -->
<g id="node9" class="node"><title>module~type_integrand</title>
<a xlink:href="../module/type_integrand.html" xlink:title="type_integrand">
<polygon fill="#337ab7" stroke="#337ab7" points="194,-193 110,-193 110,-167 194,-167 194,-193"/>
<text text-anchor="middle" x="152" y="-177.55" font-family="Helvetica,sans-Serif" font-size="10.50" fill="white">type_integrand</text>
</a>
</g>
<!-- IR_Precision&#45;&gt;module~type_integrand -->
<g id="edge10" class="edge"><title>IR_Precision&#45;&gt;module~type_integrand</title>
<path fill="none" stroke="black" stroke-dasharray="5,2" d="M73.7029,-180C81.9237,-180 90.8,-180 99.521,-180"/>
<polygon fill="black" stroke="black" points="99.6389,-183.5 109.639,-180 99.6388,-176.5 99.6389,-183.5"/>
</g>
<!-- module~foodie_integrator_euler_explicit -->
<g id="node10" class="node"><title>module~foodie_integrator_euler_explicit</title>
<a xlink:href="../module/foodie_integrator_euler_explicit.html" xlink:title="foodie_integrator_euler_explicit">
<polygon fill="#337ab7" stroke="#337ab7" points="421,-278 259,-278 259,-252 421,-252 421,-278"/>
<text text-anchor="middle" x="340" y="-262.55" font-family="Helvetica,sans-Serif" font-size="10.50" fill="white">foodie_integrator_euler_explicit</text>
</a>
</g>
<!-- IR_Precision&#45;&gt;module~foodie_integrator_euler_explicit -->
<g id="edge12" class="edge"><title>IR_Precision&#45;&gt;module~foodie_integrator_euler_explicit</title>
<path fill="none" stroke="black" stroke-dasharray="5,2" d="M152,-306C158.098,-307.924 224.168,-292.876 276.281,-280.472"/>
<polygon fill="black" stroke="black" points="277.25,-283.839 286.164,-278.112 275.624,-277.031 277.25,-283.839"/>
</g>
<!-- module~foodie_integrator_adams_bashforth -->
<g id="node11" class="node"><title>module~foodie_integrator_adams_bashforth</title>
<a xlink:href="../module/foodie_integrator_adams_bashforth.html" xlink:title="foodie_integrator_adams_bashforth">
<polygon fill="#337ab7" stroke="#337ab7" points="431,-234 249,-234 249,-208 431,-208 431,-234"/>
<text text-anchor="middle" x="340" y="-218.55" font-family="Helvetica,sans-Serif" font-size="10.50" fill="white">foodie_integrator_adams_bashforth</text>
</a>
</g>
<!-- IR_Precision&#45;&gt;module~foodie_integrator_adams_bashforth -->
<g id="edge16" class="edge"><title>IR_Precision&#45;&gt;module~foodie_integrator_adams_bashforth</title>
<path fill="none" stroke="black" stroke-dasharray="5,2" d="M43.2055,-193.321C57.4806,-221.966 95.7943,-288.268 152,-306"/>
<path fill="none" stroke="black" stroke-dasharray="5,2" d="M152,-306C194.497,-319.407 189.652,-261.916 230,-243 234.567,-240.859 239.335,-238.926 244.218,-237.181"/>
<polygon fill="black" stroke="black" points="245.322,-240.502 253.726,-234.051 243.133,-233.853 245.322,-240.502"/>
</g>
<!-- module~foodie -->
<g id="node4" class="node"><title>module~foodie</title>
<a xlink:href="../module/foodie.html" xlink:title="foodie">
<polygon fill="#337ab7" stroke="#337ab7" points="540,-213 486,-213 486,-187 540,-187 540,-213"/>
<text text-anchor="middle" x="513" y="-197.55" font-family="Helvetica,sans-Serif" font-size="10.50" fill="white">foodie</text>
</a>
</g>
<!-- module~foodie&#45;&gt;program~integrate_euler_1d -->
<g id="edge40" class="edge"><title>module~foodie&#45;&gt;program~integrate_euler_1d</title>
<path fill="none" stroke="black" stroke-dasharray="5,2" d="M523.488,-213.225C547.063,-241.349 607.417,-304.654 674,-306"/>
<path fill="none" stroke="black" stroke-dasharray="5,2" d="M674,-306C727.775,-307.087 787.078,-286.063 823.936,-270.172"/>
<polygon fill="black" stroke="black" points="825.526,-273.296 833.26,-266.055 822.698,-266.893 825.526,-273.296"/>
</g>
<!-- module~foodie&#45;&gt;module~type_euler_1d -->
<g id="edge34" class="edge"><title>module~foodie&#45;&gt;module~type_euler_1d</title>
<path fill="none" stroke="black" stroke-dasharray="5,2" d="M540.311,-200C562.825,-200 595.384,-200 622.733,-200"/>
<polygon fill="black" stroke="black" points="622.929,-203.5 632.929,-200 622.929,-196.5 622.929,-203.5"/>
</g>
<!-- module~type_euler_1d&#45;&gt;program~integrate_euler_1d -->
<g id="edge42" class="edge"><title>module~type_euler_1d&#45;&gt;program~integrate_euler_1d</title>
<path fill="none" stroke="black" stroke-dasharray="5,2" d="M715.279,-211.762C741.512,-219.237 775.794,-229.006 804.407,-237.159"/>
<polygon fill="black" stroke="black" points="803.692,-240.595 814.269,-239.969 805.61,-233.863 803.692,-240.595"/>
</g>
<!-- Data_Type_Command_Line_Interface -->
<g id="node6" class="node"><title>Data_Type_Command_Line_Interface</title>
<polygon fill="#337ab7" stroke="#337ab7" points="771,-169 577,-169 577,-143 771,-143 771,-169"/>
<text text-anchor="middle" x="674" y="-153.55" font-family="Helvetica,sans-Serif" font-size="10.50" fill="white">Data_Type_Command_Line_Interface</text>
</g>
<!-- Data_Type_Command_Line_Interface&#45;&gt;program~integrate_euler_1d -->
<g id="edge44" class="edge"><title>Data_Type_Command_Line_Interface&#45;&gt;program~integrate_euler_1d</title>
<path fill="none" stroke="black" stroke-dasharray="5,2" d="M749.674,-169.053C757.401,-171.539 764.98,-174.493 772,-178 799.252,-191.615 825.118,-215.444 841.665,-232.593"/>
<polygon fill="black" stroke="black" points="839.18,-235.06 848.583,-239.941 844.277,-230.261 839.18,-235.06"/>
</g>
<!-- module~foodie_integrator_low_storage_runge_kutta&#45;&gt;module~foodie -->
<g id="edge20" class="edge"><title>module~foodie_integrator_low_storage_runge_kutta&#45;&gt;module~foodie</title>
<path fill="none" stroke="black" stroke-dasharray="5,2" d="M404.829,-152.009C419.885,-155.824 435.688,-160.485 450,-166 461.188,-170.311 472.89,-176.201 483.13,-181.868"/>
<polygon fill="black" stroke="black" points="481.645,-185.05 492.067,-186.958 485.109,-178.967 481.645,-185.05"/>
</g>
<!-- module~foodie_integrator_tvd_runge_kutta&#45;&gt;module~foodie -->
<g id="edge22" class="edge"><title>module~foodie_integrator_tvd_runge_kutta&#45;&gt;module~foodie</title>
<path fill="none" stroke="black" stroke-dasharray="5,2" d="M428.681,-106.726C436.173,-109.486 443.398,-112.865 450,-117 473.61,-131.784 491.61,-158.813 502.208,-178.007"/>
<polygon fill="black" stroke="black" points="499.174,-179.757 506.936,-186.967 505.365,-176.49 499.174,-179.757"/>
</g>
<!-- module~type_integrand&#45;&gt;module~foodie -->
<g id="edge24" class="edge"><title>module~type_integrand&#45;&gt;module~foodie</title>
<path fill="none" stroke="black" stroke-dasharray="5,2" d="M194.118,-182.333C265.266,-186.275 408.104,-194.189 475.792,-197.939"/>
<polygon fill="black" stroke="black" points="475.809,-201.445 485.987,-198.503 476.196,-194.456 475.809,-201.445"/>
</g>
<!-- module~type_integrand&#45;&gt;module~foodie_integrator_low_storage_runge_kutta -->
<g id="edge4" class="edge"><title>module~type_integrand&#45;&gt;module~foodie_integrator_low_storage_runge_kutta</title>
<path fill="none" stroke="black" stroke-dasharray="5,2" d="M194.191,-170.799C216.555,-165.922 244.609,-159.803 270.12,-154.24"/>
<polygon fill="black" stroke="black" points="271.101,-157.608 280.126,-152.058 269.61,-150.769 271.101,-157.608"/>
</g>
<!-- module~type_integrand&#45;&gt;module~foodie_integrator_tvd_runge_kutta -->
<g id="edge8" class="edge"><title>module~type_integrand&#45;&gt;module~foodie_integrator_tvd_runge_kutta</title>
<path fill="none" stroke="black" stroke-dasharray="5,2" d="M164.184,-166.925C178.506,-152.39 203.679,-129.34 230,-117 234.567,-114.859 239.335,-112.926 244.218,-111.181"/>
<polygon fill="black" stroke="black" points="245.322,-114.502 253.726,-108.051 243.133,-107.853 245.322,-114.502"/>
</g>
<!-- module~type_integrand&#45;&gt;module~foodie_integrator_euler_explicit -->
<g id="edge14" class="edge"><title>module~type_integrand&#45;&gt;module~foodie_integrator_euler_explicit</title>
<path fill="none" stroke="black" stroke-dasharray="5,2" d="M164.184,-193.075C178.506,-207.61 203.679,-230.66 230,-243 236.102,-245.861 242.563,-248.35 249.176,-250.516"/>
<polygon fill="black" stroke="black" points="248.364,-253.927 258.949,-253.464 250.386,-247.225 248.364,-253.927"/>
</g>
<!-- module~type_integrand&#45;&gt;module~foodie_integrator_adams_bashforth -->
<g id="edge18" class="edge"><title>module~type_integrand&#45;&gt;module~foodie_integrator_adams_bashforth</title>
<path fill="none" stroke="black" stroke-dasharray="5,2" d="M194.191,-189.201C216.555,-194.078 244.609,-200.197 270.12,-205.76"/>
<polygon fill="black" stroke="black" points="269.61,-209.231 280.126,-207.942 271.101,-202.392 269.61,-209.231"/>
</g>
<!-- module~foodie_integrator_euler_explicit&#45;&gt;module~foodie -->
<g id="edge26" class="edge"><title>module~foodie_integrator_euler_explicit&#45;&gt;module~foodie</title>
<path fill="none" stroke="black" stroke-dasharray="5,2" d="M421.029,-252.68C430.971,-250.041 440.844,-246.851 450,-243 464.007,-237.108 478.115,-227.859 489.419,-219.446"/>
<polygon fill="black" stroke="black" points="491.683,-222.12 497.469,-213.244 487.411,-216.575 491.683,-222.12"/>
</g>
<!-- module~foodie_integrator_adams_bashforth&#45;&gt;module~foodie -->
<g id="edge28" class="edge"><title>module~foodie_integrator_adams_bashforth&#45;&gt;module~foodie</title>
<path fill="none" stroke="black" stroke-dasharray="5,2" d="M431.566,-209.885C447.17,-207.991 462.554,-206.123 475.677,-204.531"/>
<polygon fill="black" stroke="black" points="476.172,-207.996 485.677,-203.317 475.328,-201.047 476.172,-207.996"/>
</g>
<!-- wenoof -->
<g id="node26" class="node"><title>wenoof</title>
<polygon fill="#337ab7" stroke="#337ab7" points="540,-26 486,-26 486,-1.24345e-14 540,-3.55271e-15 540,-26"/>
<text text-anchor="middle" x="513" y="-10.55" font-family="Helvetica,sans-Serif" font-size="10.50" fill="white">wenoof</text>
</g>
<!-- wenoof&#45;&gt;module~type_euler_1d -->
<g id="edge32" class="edge"><title>wenoof&#45;&gt;module~type_euler_1d</title>
<path fill="none" stroke="black" stroke-dasharray="5,2" d="M528.875,-26.0825C533.003,-30.1661 537.1,-34.9383 540,-40 571.511,-94.9984 530.416,-133.956 576,-178 588.358,-189.94 605.724,-195.948 622.41,-198.821"/>
<polygon fill="black" stroke="black" points="622.278,-202.336 632.662,-200.23 623.231,-195.401 622.278,-202.336"/>
</g>
</g>
</svg>
