<?xml version="1.0" encoding="UTF-8" standalone="no"?>
<!DOCTYPE svg PUBLIC "-//W3C//DTD SVG 1.1//EN"
 "http://www.w3.org/Graphics/SVG/1.1/DTD/svg11.dtd">
<!-- Generated by graphviz version 2.26.3 (20100126.1600)
 -->
<!-- Title: program~~integrate_burgers~~UsesGraph Pages: 1 -->
<svg width="641pt" height="256pt"
 viewBox="0.00 0.00 641.00 256.42" xmlns="http://www.w3.org/2000/svg" xmlns:xlink="http://www.w3.org/1999/xlink">
<g id="graph1" class="graph" transform="scale(0.701313 0.701313) rotate(0) translate(4 361.628)">
<title>program~~integrate_burgers~~UsesGraph</title>
<polygon fill="white" stroke="white" points="-4,5 -4,-361.628 911,-361.628 911,5 -4,5"/>
<!-- program~integrate_burgers -->
<g id="node1" class="node"><title>program~integrate_burgers</title>
<polygon fill="none" stroke="black" points="905,-102.628 809,-102.628 809,-76.6284 905,-76.6284 905,-102.628"/>
<text text-anchor="middle" x="857" y="-87.1784" font-family="Helvetica,sans-Serif" font-size="10.50">integrate_burgers</text>
</g>
<!-- Data_Type_Command_Line_Interface -->
<g id="node2" class="node"><title>Data_Type_Command_Line_Interface</title>
<polygon fill="#337ab7" stroke="#337ab7" points="771,-184.628 577,-184.628 577,-158.628 771,-158.628 771,-184.628"/>
<text text-anchor="middle" x="674" y="-169.178" font-family="Helvetica,sans-Serif" font-size="10.50" fill="white">Data_Type_Command_Line_Interface</text>
</g>
<!-- Data_Type_Command_Line_Interface&#45;&gt;program~integrate_burgers -->
<g id="edge40" class="edge"><title>Data_Type_Command_Line_Interface&#45;&gt;program~integrate_burgers</title>
<path fill="none" stroke="black" stroke-dasharray="5,2" d="M732.808,-158.569C745.974,-154.787 759.681,-150.153 772,-144.628 793.38,-135.04 815.544,-120.523 831.876,-108.811"/>
<polygon fill="black" stroke="black" points="834.304,-111.371 840.308,-102.642 830.171,-105.722 834.304,-111.371"/>
</g>
<!-- module~foodie -->
<g id="node3" class="node"><title>module~foodie</title>
<a xlink:href="../module/foodie.html" xlink:title="foodie">
<polygon fill="#337ab7" stroke="#337ab7" points="540,-207.628 486,-207.628 486,-181.628 540,-181.628 540,-207.628"/>
<text text-anchor="middle" x="513" y="-192.178" font-family="Helvetica,sans-Serif" font-size="10.50" fill="white">foodie</text>
</a>
</g>
<!-- module~foodie&#45;&gt;program~integrate_burgers -->
<g id="edge42" class="edge"><title>module~foodie&#45;&gt;program~integrate_burgers</title>
<path fill="none" stroke="black" stroke-dasharray="5,2" d="M527.419,-181.553C539.523,-171.296 557.723,-157.483 576,-149.628 657.524,-114.595 685.452,-131.199 772,-111.628 780.642,-109.674 789.741,-107.473 798.645,-105.239"/>
<polygon fill="black" stroke="black" points="799.751,-108.569 808.58,-102.712 798.026,-101.785 799.751,-108.569"/>
</g>
<!-- module~type_burgers -->
<g id="node6" class="node"><title>module~type_burgers</title>
<a xlink:href="../module/type_burgers.html" xlink:title="type_burgers">
<polygon fill="#337ab7" stroke="#337ab7" points="712,-102.628 636,-102.628 636,-76.6284 712,-76.6284 712,-102.628"/>
<text text-anchor="middle" x="674" y="-87.1784" font-family="Helvetica,sans-Serif" font-size="10.50" fill="white">type_burgers</text>
</a>
</g>
<!-- module~foodie&#45;&gt;module~type_burgers -->
<g id="edge38" class="edge"><title>module~foodie&#45;&gt;module~type_burgers</title>
<path fill="none" stroke="black" stroke-dasharray="5,2" d="M520.105,-181.457C530.207,-163.991 550.376,-133.421 576,-116.628 590.791,-106.936 609.017,-100.694 625.724,-96.6872"/>
<polygon fill="black" stroke="black" points="626.861,-100.021 635.885,-94.4701 625.369,-93.1823 626.861,-100.021"/>
</g>
<!-- IR_Precision -->
<g id="node4" class="node"><title>IR_Precision</title>
<polygon fill="#337ab7" stroke="#337ab7" points="73,-248.628 1,-248.628 1,-222.628 73,-222.628 73,-248.628"/>
<text text-anchor="middle" x="37" y="-233.178" font-family="Helvetica,sans-Serif" font-size="10.50" fill="white">IR_Precision</text>
</g>
<!-- IR_Precision&#45;&gt;program~integrate_burgers -->
<g id="edge44" class="edge"><title>IR_Precision&#45;&gt;program~integrate_burgers</title>
<path fill="none" stroke="black" stroke-dasharray="5,2" d="M46.156,-222.345C63.5116,-198.494 103.807,-149.173 152,-130.628"/>
<path fill="none" stroke="black" stroke-dasharray="5,2" d="M152,-130.628C302.704,-72.6388 352.867,-110.408 513,-89.6284"/>
<path fill="none" stroke="black" stroke-dasharray="5,2" d="M513,-89.6284C553.029,-83.1361 538.718,-39.5814 576,-23.6284 656.087,10.6409 689.592,4.60871 772,-23.6284 798.277,-32.6323 822.701,-53.438 838.562,-69.301"/>
<polygon fill="black" stroke="black" points="836.166,-71.8579 845.631,-76.6178 841.2,-66.9941 836.166,-71.8579"/>
</g>
<!-- IR_Precision&#45;&gt;module~type_burgers -->
<g id="edge36" class="edge"><title>IR_Precision&#45;&gt;module~type_burgers</title>
<path fill="none" stroke="black" stroke-dasharray="5,2" d="M513,-89.6284C550.643,-84.7437 593.655,-85.0415 625.747,-86.3979"/>
<polygon fill="black" stroke="black" points="625.608,-89.8952 635.762,-86.8703 625.938,-82.9029 625.608,-89.8952"/>
</g>
<!-- module~foodie_integrator_adams_bashforth -->
<g id="node7" class="node"><title>module~foodie_integrator_adams_bashforth</title>
<a xlink:href="../module/foodie_integrator_adams_bashforth.html" xlink:title="foodie_integrator_adams_bashforth">
<polygon fill="#337ab7" stroke="#337ab7" points="431,-313.628 249,-313.628 249,-287.628 431,-287.628 431,-313.628"/>
<text text-anchor="middle" x="340" y="-298.178" font-family="Helvetica,sans-Serif" font-size="10.50" fill="white">foodie_integrator_adams_bashforth</text>
</a>
</g>
<!-- IR_Precision&#45;&gt;module~foodie_integrator_adams_bashforth -->
<g id="edge4" class="edge"><title>IR_Precision&#45;&gt;module~foodie_integrator_adams_bashforth</title>
<path fill="none" stroke="black" stroke-dasharray="5,2" d="M152,-300.628C179.41,-307.839 209.856,-310.157 238.124,-310.074"/>
<polygon fill="black" stroke="black" points="238.477,-313.569 248.431,-309.939 238.386,-306.57 238.477,-313.569"/>
</g>
<!-- module~foodie_integrator_euler_explicit -->
<g id="node8" class="node"><title>module~foodie_integrator_euler_explicit</title>
<a xlink:href="../module/foodie_integrator_euler_explicit.html" xlink:title="foodie_integrator_euler_explicit">
<polygon fill="#337ab7" stroke="#337ab7" points="421,-269.628 259,-269.628 259,-243.628 421,-243.628 421,-269.628"/>
<text text-anchor="middle" x="340" y="-254.178" font-family="Helvetica,sans-Serif" font-size="10.50" fill="white">foodie_integrator_euler_explicit</text>
</a>
</g>
<!-- IR_Precision&#45;&gt;module~foodie_integrator_euler_explicit -->
<g id="edge8" class="edge"><title>IR_Precision&#45;&gt;module~foodie_integrator_euler_explicit</title>
<path fill="none" stroke="black" stroke-dasharray="5,2" d="M53.6975,-248.789C75.0524,-264.701 113.852,-290.593 152,-300.628"/>
<path fill="none" stroke="black" stroke-dasharray="5,2" d="M152,-300.628C186.834,-309.792 194.981,-287.056 230,-278.628 239.901,-276.246 250.346,-273.919 260.701,-271.724"/>
<polygon fill="black" stroke="black" points="261.506,-275.131 270.58,-269.662 260.076,-268.279 261.506,-275.131"/>
</g>
<!-- module~foodie_integrator_leapfrog -->
<g id="node9" class="node"><title>module~foodie_integrator_leapfrog</title>
<a xlink:href="../module/foodie_integrator_leapfrog.html" xlink:title="foodie_integrator_leapfrog">
<polygon fill="#337ab7" stroke="#337ab7" points="409,-187.628 271,-187.628 271,-161.628 409,-161.628 409,-187.628"/>
<text text-anchor="middle" x="340" y="-172.178" font-family="Helvetica,sans-Serif" font-size="10.50" fill="white">foodie_integrator_leapfrog</text>
</a>
</g>
<!-- IR_Precision&#45;&gt;module~foodie_integrator_leapfrog -->
<g id="edge12" class="edge"><title>IR_Precision&#45;&gt;module~foodie_integrator_leapfrog</title>
<path fill="none" stroke="black" stroke-dasharray="5,2" d="M152,-130.628C185.616,-117.693 194.981,-144.201 230,-152.628 239.901,-155.011 250.346,-157.338 260.701,-159.533"/>
<polygon fill="black" stroke="black" points="260.076,-162.978 270.58,-161.594 261.506,-156.125 260.076,-162.978"/>
</g>
<!-- module~foodie_integrator_low_storage_runge_kutta -->
<g id="node10" class="node"><title>module~foodie_integrator_low_storage_runge_kutta</title>
<a xlink:href="../module/foodie_integrator_low_storage_runge_kutta.html" xlink:title="foodie_integrator_low_storage_runge_kutta">
<polygon fill="#337ab7" stroke="#337ab7" points="450,-143.628 230,-143.628 230,-117.628 450,-117.628 450,-143.628"/>
<text text-anchor="middle" x="340" y="-128.178" font-family="Helvetica,sans-Serif" font-size="10.50" fill="white">foodie_integrator_low_storage_runge_kutta</text>
</a>
</g>
<!-- IR_Precision&#45;&gt;module~foodie_integrator_low_storage_runge_kutta -->
<g id="edge16" class="edge"><title>IR_Precision&#45;&gt;module~foodie_integrator_low_storage_runge_kutta</title>
<path fill="none" stroke="black" stroke-dasharray="5,2" d="M152,-130.628C179.521,-120.038 211.033,-116.923 240.29,-117.326"/>
<polygon fill="black" stroke="black" points="240.442,-120.831 250.535,-117.609 240.635,-113.834 240.442,-120.831"/>
</g>
<!-- module~foodie_integrator_tvd_runge_kutta -->
<g id="node11" class="node"><title>module~foodie_integrator_tvd_runge_kutta</title>
<a xlink:href="../module/foodie_integrator_tvd_runge_kutta.html" xlink:title="foodie_integrator_tvd_runge_kutta">
<polygon fill="#337ab7" stroke="#337ab7" points="428,-357.628 252,-357.628 252,-331.628 428,-331.628 428,-357.628"/>
<text text-anchor="middle" x="340" y="-342.178" font-family="Helvetica,sans-Serif" font-size="10.50" fill="white">foodie_integrator_tvd_runge_kutta</text>
</a>
</g>
<!-- IR_Precision&#45;&gt;module~foodie_integrator_tvd_runge_kutta -->
<g id="edge20" class="edge"><title>IR_Precision&#45;&gt;module~foodie_integrator_tvd_runge_kutta</title>
<path fill="none" stroke="black" stroke-dasharray="5,2" d="M152,-300.628C186.834,-309.792 194.981,-314.201 230,-322.628 239.901,-325.011 250.346,-327.338 260.701,-329.533"/>
<polygon fill="black" stroke="black" points="260.076,-332.978 270.58,-331.594 261.506,-326.125 260.076,-332.978"/>
</g>
<!-- module~type_integrand -->
<g id="node12" class="node"><title>module~type_integrand</title>
<a xlink:href="../module/type_integrand.html" xlink:title="type_integrand">
<polygon fill="#337ab7" stroke="#337ab7" points="194,-248.628 110,-248.628 110,-222.628 194,-222.628 194,-248.628"/>
<text text-anchor="middle" x="152" y="-233.178" font-family="Helvetica,sans-Serif" font-size="10.50" fill="white">type_integrand</text>
</a>
</g>
<!-- IR_Precision&#45;&gt;module~type_integrand -->
<g id="edge22" class="edge"><title>IR_Precision&#45;&gt;module~type_integrand</title>
<path fill="none" stroke="black" stroke-dasharray="5,2" d="M73.7029,-235.628C81.9237,-235.628 90.8,-235.628 99.521,-235.628"/>
<polygon fill="black" stroke="black" points="99.6389,-239.129 109.639,-235.628 99.6388,-232.129 99.6389,-239.129"/>
</g>
<!-- pyplot_module -->
<g id="node5" class="node"><title>pyplot_module</title>
<polygon fill="#337ab7" stroke="#337ab7" points="715,-58.6284 633,-58.6284 633,-32.6284 715,-32.6284 715,-58.6284"/>
<text text-anchor="middle" x="674" y="-43.1784" font-family="Helvetica,sans-Serif" font-size="10.50" fill="white">pyplot_module</text>
</g>
<!-- pyplot_module&#45;&gt;program~integrate_burgers -->
<g id="edge46" class="edge"><title>pyplot_module&#45;&gt;program~integrate_burgers</title>
<path fill="none" stroke="black" stroke-dasharray="5,2" d="M715.075,-54.5383C732.64,-58.4288 753.355,-63.1241 772,-67.6284 780.505,-69.6831 789.469,-71.9223 798.259,-74.1601"/>
<polygon fill="black" stroke="black" points="797.519,-77.5836 808.075,-76.6762 799.257,-70.8028 797.519,-77.5836"/>
</g>
<!-- module~type_burgers&#45;&gt;program~integrate_burgers -->
<g id="edge48" class="edge"><title>module~type_burgers&#45;&gt;program~integrate_burgers</title>
<path fill="none" stroke="black" stroke-dasharray="5,2" d="M712.363,-89.6284C737.192,-89.6284 770.011,-89.6284 798.109,-89.6284"/>
<polygon fill="black" stroke="black" points="798.224,-93.1285 808.224,-89.6284 798.224,-86.1285 798.224,-93.1285"/>
</g>
<!-- module~foodie_integrator_adams_bashforth&#45;&gt;module~foodie -->
<g id="edge24" class="edge"><title>module~foodie_integrator_adams_bashforth&#45;&gt;module~foodie</title>
<path fill="none" stroke="black" stroke-dasharray="5,2" d="M431.501,-287.875C437.987,-285.315 444.233,-282.263 450,-278.628 473.747,-263.662 491.72,-236.309 502.274,-216.885"/>
<polygon fill="black" stroke="black" points="505.48,-218.305 506.979,-207.817 499.266,-215.081 505.48,-218.305"/>
</g>
<!-- module~foodie_integrator_euler_explicit&#45;&gt;module~foodie -->
<g id="edge26" class="edge"><title>module~foodie_integrator_euler_explicit&#45;&gt;module~foodie</title>
<path fill="none" stroke="black" stroke-dasharray="5,2" d="M405.458,-243.598C420.337,-239.805 435.905,-235.159 450,-229.628 461.531,-225.104 473.565,-218.845 483.989,-212.869"/>
<polygon fill="black" stroke="black" points="485.847,-215.837 492.682,-207.741 482.29,-209.808 485.847,-215.837"/>
</g>
<!-- module~foodie_integrator_leapfrog&#45;&gt;module~foodie -->
<g id="edge28" class="edge"><title>module~foodie_integrator_leapfrog&#45;&gt;module~foodie</title>
<path fill="none" stroke="black" stroke-dasharray="5,2" d="M409.867,-182.706C432.338,-185.303 456.366,-188.081 475.571,-190.301"/>
<polygon fill="black" stroke="black" points="475.368,-193.801 485.704,-191.473 476.172,-186.847 475.368,-193.801"/>
</g>
<!-- module~foodie_integrator_low_storage_runge_kutta&#45;&gt;module~foodie -->
<g id="edge30" class="edge"><title>module~foodie_integrator_low_storage_runge_kutta&#45;&gt;module~foodie</title>
<path fill="none" stroke="black" stroke-dasharray="5,2" d="M423.329,-143.672C432.484,-146.167 441.543,-149.126 450,-152.628 463.839,-158.361 477.841,-167.312 489.118,-175.48"/>
<polygon fill="black" stroke="black" points="487.061,-178.313 497.163,-181.508 491.259,-172.711 487.061,-178.313"/>
</g>
<!-- module~foodie_integrator_tvd_runge_kutta&#45;&gt;module~foodie -->
<g id="edge32" class="edge"><title>module~foodie_integrator_tvd_runge_kutta&#45;&gt;module~foodie</title>
<path fill="none" stroke="black" stroke-dasharray="5,2" d="M428.769,-334.551C436.371,-331.462 443.592,-327.554 450,-322.628 484.102,-296.412 500.929,-246.856 508.225,-217.694"/>
<polygon fill="black" stroke="black" points="511.634,-218.487 510.496,-207.954 504.816,-216.898 511.634,-218.487"/>
</g>
<!-- module~type_integrand&#45;&gt;module~foodie -->
<g id="edge34" class="edge"><title>module~type_integrand&#45;&gt;module~foodie</title>
<path fill="none" stroke="black" stroke-dasharray="5,2" d="M194.118,-230.845C265.266,-222.764 408.104,-206.542 475.792,-198.854"/>
<polygon fill="black" stroke="black" points="476.446,-202.303 485.987,-197.696 475.656,-195.347 476.446,-202.303"/>
</g>
<!-- module~type_integrand&#45;&gt;module~foodie_integrator_adams_bashforth -->
<g id="edge2" class="edge"><title>module~type_integrand&#45;&gt;module~foodie_integrator_adams_bashforth</title>
<path fill="none" stroke="black" stroke-dasharray="5,2" d="M171.717,-248.727C187.022,-258.331 209.088,-270.98 230,-278.628 236.39,-280.966 243.085,-283.074 249.882,-284.974"/>
<polygon fill="black" stroke="black" points="249.329,-288.448 259.891,-287.609 251.112,-281.678 249.329,-288.448"/>
</g>
<!-- module~type_integrand&#45;&gt;module~foodie_integrator_euler_explicit -->
<g id="edge6" class="edge"><title>module~type_integrand&#45;&gt;module~foodie_integrator_euler_explicit</title>
<path fill="none" stroke="black" stroke-dasharray="5,2" d="M194.191,-240.341C210.416,-242.154 229.636,-244.301 248.708,-246.431"/>
<polygon fill="black" stroke="black" points="248.324,-249.91 258.651,-247.542 249.101,-242.953 248.324,-249.91"/>
</g>
<!-- module~type_integrand&#45;&gt;module~foodie_integrator_leapfrog -->
<g id="edge10" class="edge"><title>module~type_integrand&#45;&gt;module~foodie_integrator_leapfrog</title>
<path fill="none" stroke="black" stroke-dasharray="5,2" d="M178.986,-222.509C193.804,-215.653 212.646,-207.493 230,-201.628 242.47,-197.415 255.939,-193.558 269.033,-190.161"/>
<polygon fill="black" stroke="black" points="270.112,-193.498 278.95,-187.654 268.397,-186.712 270.112,-193.498"/>
</g>
<!-- module~type_integrand&#45;&gt;module~foodie_integrator_low_storage_runge_kutta -->
<g id="edge14" class="edge"><title>module~type_integrand&#45;&gt;module~foodie_integrator_low_storage_runge_kutta</title>
<path fill="none" stroke="black" stroke-dasharray="5,2" d="M160.314,-222.595C172.962,-203.922 198.883,-169.909 230,-152.628 233.445,-150.715 237.033,-148.967 240.719,-147.37"/>
<polygon fill="black" stroke="black" points="242.031,-150.615 250.06,-143.702 239.473,-144.099 242.031,-150.615"/>
</g>
<!-- module~type_integrand&#45;&gt;module~foodie_integrator_tvd_runge_kutta -->
<g id="edge18" class="edge"><title>module~type_integrand&#45;&gt;module~foodie_integrator_tvd_runge_kutta</title>
<path fill="none" stroke="black" stroke-dasharray="5,2" d="M162.905,-248.678C182.309,-271.761 221.587,-317.827 230,-322.628 233.758,-324.773 237.693,-326.712 241.744,-328.463"/>
<polygon fill="black" stroke="black" points="240.795,-331.85 251.384,-332.22 243.337,-325.328 240.795,-331.85"/>
</g>
</g>
</svg>
