<?xml version="1.0" encoding="UTF-8" standalone="no"?>
<!DOCTYPE svg PUBLIC "-//W3C//DTD SVG 1.1//EN"
 "http://www.w3.org/Graphics/SVG/1.1/DTD/svg11.dtd">
<!-- Generated by graphviz version 2.38.0 (20140413.2041)
 -->
<!-- Title: program~~integrate_oscillation~~UsesGraph Pages: 1 -->
<svg width="641pt" height="178pt"
 viewBox="0.00 0.00 641.00 178.47" xmlns="http://www.w3.org/2000/svg" xmlns:xlink="http://www.w3.org/1999/xlink">
<g id="graph0" class="graph" transform="scale(0.725113 0.725113) rotate(0) translate(4 242.134)">
<title>program~~integrate_oscillation~~UsesGraph</title>
<polygon fill="white" stroke="none" points="-4,4 -4,-242.134 880,-242.134 880,4 -4,4"/>
<!-- program~integrate_oscillation -->
<g id="node1" class="node"><title>program~integrate_oscillation</title>
<polygon fill="none" stroke="black" points="876,-112.876 769,-112.876 769,-88.8756 876,-88.8756 876,-112.876"/>
<text text-anchor="middle" x="822.5" y="-98.4756" font-family="Helvetica,sans-Serif" font-size="10.50">integrate_oscillation</text>
</g>
<!-- IR_Precision -->
<g id="node2" class="node"><title>IR_Precision</title>
<polygon fill="#337ab7" stroke="#337ab7" points="73,-102.876 0,-102.876 0,-78.8756 73,-78.8756 73,-102.876"/>
<text text-anchor="middle" x="36.5" y="-88.4756" font-family="Helvetica,sans-Serif" font-size="10.50" fill="white">IR_Precision</text>
</g>
<!-- IR_Precision&#45;&gt;program~integrate_oscillation -->
<g id="edge14" class="edge"><title>IR_Precision&#45;&gt;program~integrate_oscillation</title>
<path fill="none" stroke="black" stroke-dasharray="5,2" d="M152,-190.876C398.979,-267.336 488.13,-244.842 733,-161.876 759.124,-153.024 784.585,-134.058 801.439,-119.608"/>
<polygon fill="black" stroke="black" points="803.809,-122.185 808.987,-112.942 799.175,-116.939 803.809,-122.185"/>
</g>
<!-- module~type_oscillation -->
<g id="node5" class="node"><title>module~type_oscillation</title>
<g id="a_node5"><a xlink:href="../module/type_oscillation.html" xlink:title="type_oscillation">
<polygon fill="#337ab7" stroke="#337ab7" points="678,-72.8756 593,-72.8756 593,-48.8756 678,-48.8756 678,-72.8756"/>
<text text-anchor="middle" x="635.5" y="-58.4756" font-family="Helvetica,sans-Serif" font-size="10.50" fill="white">type_oscillation</text>
</a>
</g>
</g>
<!-- IR_Precision&#45;&gt;module~type_oscillation -->
<g id="edge12" class="edge"><title>IR_Precision&#45;&gt;module~type_oscillation</title>
<path fill="none" stroke="black" stroke-dasharray="5,2" d="M53.1494,-78.7778C73.9187,-63.576 112.366,-38.3319 150,-28.8756"/>
<path fill="none" stroke="black" stroke-dasharray="5,2" d="M152,-28.8756C186.403,-20.2312 193.842,-12.584 229,-7.87564 309.614,2.91999 331.295,2.21252 412,-7.87564 469.332,-15.0421 481.763,-26.6196 538,-39.8756 552.508,-43.2955 568.292,-46.8145 582.811,-49.9709"/>
<polygon fill="black" stroke="black" points="582.116,-53.4014 592.63,-52.0925 583.594,-46.5593 582.116,-53.4014"/>
</g>
<!-- module~foodie_integrator_adams_bashforth -->
<g id="node7" class="node"><title>module~foodie_integrator_adams_bashforth</title>
<g id="a_node7"><a xlink:href="../module/foodie_integrator_adams_bashforth.html" xlink:title="foodie_integrator_adams_bashforth">
<polygon fill="#337ab7" stroke="#337ab7" points="412,-82.8756 229,-82.8756 229,-58.8756 412,-58.8756 412,-82.8756"/>
<text text-anchor="middle" x="320.5" y="-68.4756" font-family="Helvetica,sans-Serif" font-size="10.50" fill="white">foodie_integrator_adams_bashforth</text>
</a>
</g>
</g>
<!-- IR_Precision&#45;&gt;module~foodie_integrator_adams_bashforth -->
<g id="edge1" class="edge"><title>IR_Precision&#45;&gt;module~foodie_integrator_adams_bashforth</title>
<path fill="none" stroke="black" stroke-dasharray="5,2" d="M152,-28.8756C186.403,-20.2312 194.606,-41.1984 229,-49.8756 237.729,-52.0778 246.953,-54.3179 256.042,-56.4747"/>
<polygon fill="black" stroke="black" points="255.285,-59.8922 265.821,-58.7766 256.889,-53.0784 255.285,-59.8922"/>
</g>
<!-- module~foodie_integrator_tvd_runge_kutta -->
<g id="node8" class="node"><title>module~foodie_integrator_tvd_runge_kutta</title>
<g id="a_node8"><a xlink:href="../module/foodie_integrator_tvd_runge_kutta.html" xlink:title="foodie_integrator_tvd_runge_kutta">
<polygon fill="#337ab7" stroke="#337ab7" points="409,-40.8756 232,-40.8756 232,-16.8756 409,-16.8756 409,-40.8756"/>
<text text-anchor="middle" x="320.5" y="-26.4756" font-family="Helvetica,sans-Serif" font-size="10.50" fill="white">foodie_integrator_tvd_runge_kutta</text>
</a>
</g>
</g>
<!-- IR_Precision&#45;&gt;module~foodie_integrator_tvd_runge_kutta -->
<g id="edge3" class="edge"><title>IR_Precision&#45;&gt;module~foodie_integrator_tvd_runge_kutta</title>
<path fill="none" stroke="black" stroke-dasharray="5,2" d="M152,-28.8756C174.111,-23.3198 198.388,-21.1669 221.431,-20.8536"/>
<polygon fill="black" stroke="black" points="221.577,-24.3534 231.569,-20.8304 221.561,-17.3534 221.577,-24.3534"/>
</g>
<!-- module~type_integrand -->
<g id="node9" class="node"><title>module~type_integrand</title>
<g id="a_node9"><a xlink:href="../module/type_integrand.html" xlink:title="type_integrand">
<polygon fill="#337ab7" stroke="#337ab7" points="193,-102.876 109,-102.876 109,-78.8756 193,-78.8756 193,-102.876"/>
<text text-anchor="middle" x="151" y="-88.4756" font-family="Helvetica,sans-Serif" font-size="10.50" fill="white">type_integrand</text>
</a>
</g>
</g>
<!-- IR_Precision&#45;&gt;module~type_integrand -->
<g id="edge5" class="edge"><title>IR_Precision&#45;&gt;module~type_integrand</title>
<path fill="none" stroke="black" stroke-dasharray="5,2" d="M73.0957,-90.8756C81.2389,-90.8756 90.0527,-90.8756 98.7087,-90.8756"/>
<polygon fill="black" stroke="black" points="98.748,-94.3757 108.748,-90.8756 98.7479,-87.3757 98.748,-94.3757"/>
</g>
<!-- module~foodie_integrator_euler_explicit -->
<g id="node10" class="node"><title>module~foodie_integrator_euler_explicit</title>
<g id="a_node10"><a xlink:href="../module/foodie_integrator_euler_explicit.html" xlink:title="foodie_integrator_euler_explicit">
<polygon fill="#337ab7" stroke="#337ab7" points="401.5,-162.876 239.5,-162.876 239.5,-138.876 401.5,-138.876 401.5,-162.876"/>
<text text-anchor="middle" x="320.5" y="-148.476" font-family="Helvetica,sans-Serif" font-size="10.50" fill="white">foodie_integrator_euler_explicit</text>
</a>
</g>
</g>
<!-- IR_Precision&#45;&gt;module~foodie_integrator_euler_explicit -->
<g id="edge6" class="edge"><title>IR_Precision&#45;&gt;module~foodie_integrator_euler_explicit</title>
<path fill="none" stroke="black" stroke-dasharray="5,2" d="M45.5781,-102.993C61.9361,-126.186 101.572,-175.883 150,-190.876"/>
<path fill="none" stroke="black" stroke-dasharray="5,2" d="M152,-190.876C163.242,-194.356 224.014,-178.425 269.139,-165.643"/>
<polygon fill="black" stroke="black" points="270.138,-168.998 278.794,-162.889 268.217,-162.266 270.138,-168.998"/>
</g>
<!-- pyplot_module -->
<g id="node3" class="node"><title>pyplot_module</title>
<polygon fill="#337ab7" stroke="#337ab7" points="676.5,-152.876 594.5,-152.876 594.5,-128.876 676.5,-128.876 676.5,-152.876"/>
<text text-anchor="middle" x="635.5" y="-138.476" font-family="Helvetica,sans-Serif" font-size="10.50" fill="white">pyplot_module</text>
</g>
<!-- pyplot_module&#45;&gt;program~integrate_oscillation -->
<g id="edge15" class="edge"><title>pyplot_module&#45;&gt;program~integrate_oscillation</title>
<path fill="none" stroke="black" stroke-dasharray="5,2" d="M676.642,-132.196C700.682,-126.998 731.758,-120.279 758.958,-114.398"/>
<polygon fill="black" stroke="black" points="759.75,-117.808 768.784,-112.274 758.27,-110.966 759.75,-117.808"/>
</g>
<!-- module~foodie -->
<g id="node4" class="node"><title>module~foodie</title>
<g id="a_node4"><a xlink:href="../module/foodie.html" xlink:title="foodie">
<polygon fill="#337ab7" stroke="#337ab7" points="502,-92.8756 448,-92.8756 448,-68.8756 502,-68.8756 502,-92.8756"/>
<text text-anchor="middle" x="475" y="-78.4756" font-family="Helvetica,sans-Serif" font-size="10.50" fill="white">foodie</text>
</a>
</g>
</g>
<!-- module~foodie&#45;&gt;program~integrate_oscillation -->
<g id="edge16" class="edge"><title>module~foodie&#45;&gt;program~integrate_oscillation</title>
<path fill="none" stroke="black" stroke-dasharray="5,2" d="M502.252,-82.3953C556.508,-85.536 682.304,-92.818 758.792,-97.2456"/>
<polygon fill="black" stroke="black" points="758.6,-100.74 768.785,-97.8241 759.004,-93.752 758.6,-100.74"/>
</g>
<!-- module~foodie&#45;&gt;module~type_oscillation -->
<g id="edge13" class="edge"><title>module~foodie&#45;&gt;module~type_oscillation</title>
<path fill="none" stroke="black" stroke-dasharray="5,2" d="M502.173,-77.573C524.004,-74.8184 555.779,-70.8089 582.72,-67.4094"/>
<polygon fill="black" stroke="black" points="583.295,-70.8647 592.778,-66.1402 582.419,-63.9197 583.295,-70.8647"/>
</g>
<!-- module~type_oscillation&#45;&gt;program~integrate_oscillation -->
<g id="edge17" class="edge"><title>module~type_oscillation&#45;&gt;program~integrate_oscillation</title>
<path fill="none" stroke="black" stroke-dasharray="5,2" d="M678.018,-69.8524C701.822,-74.9994 732.178,-81.5629 758.833,-87.326"/>
<polygon fill="black" stroke="black" points="758.332,-90.7986 768.846,-89.491 759.812,-83.9567 758.332,-90.7986"/>
</g>
<!-- Data_Type_Command_Line_Interface -->
<g id="node6" class="node"><title>Data_Type_Command_Line_Interface</title>
<polygon fill="#337ab7" stroke="#337ab7" points="733,-30.8756 538,-30.8756 538,-6.87564 733,-6.87564 733,-30.8756"/>
<text text-anchor="middle" x="635.5" y="-16.4756" font-family="Helvetica,sans-Serif" font-size="10.50" fill="white">Data_Type_Command_Line_Interface</text>
</g>
<!-- Data_Type_Command_Line_Interface&#45;&gt;program~integrate_oscillation -->
<g id="edge18" class="edge"><title>Data_Type_Command_Line_Interface&#45;&gt;program~integrate_oscillation</title>
<path fill="none" stroke="black" stroke-dasharray="5,2" d="M707.345,-30.9473C716.15,-33.417 724.898,-36.365 733,-39.8756 757.642,-50.5529 782.547,-68.5032 799.631,-82.1749"/>
<polygon fill="black" stroke="black" points="797.856,-85.2447 807.81,-88.8731 802.291,-79.8291 797.856,-85.2447"/>
</g>
<!-- module~foodie_integrator_adams_bashforth&#45;&gt;module~foodie -->
<g id="edge8" class="edge"><title>module~foodie_integrator_adams_bashforth&#45;&gt;module~foodie</title>
<path fill="none" stroke="black" stroke-dasharray="5,2" d="M412.412,-76.8371C421.27,-77.418 429.854,-77.9808 437.661,-78.4928"/>
<polygon fill="black" stroke="black" points="437.57,-81.9942 447.778,-79.1561 438.028,-75.0092 437.57,-81.9942"/>
</g>
<!-- module~foodie_integrator_tvd_runge_kutta&#45;&gt;module~foodie -->
<g id="edge9" class="edge"><title>module~foodie_integrator_tvd_runge_kutta&#45;&gt;module~foodie</title>
<path fill="none" stroke="black" stroke-dasharray="5,2" d="M382.438,-40.9369C392.433,-43.5062 402.592,-46.4858 412,-49.8756 422.725,-53.7399 434.002,-58.9889 443.954,-64.0687"/>
<polygon fill="black" stroke="black" points="442.548,-67.2836 453.028,-68.8366 445.804,-61.0869 442.548,-67.2836"/>
</g>
<!-- module~type_integrand&#45;&gt;module~foodie -->
<g id="edge10" class="edge"><title>module~type_integrand&#45;&gt;module~foodie</title>
<path fill="none" stroke="black" stroke-dasharray="5,2" d="M193.076,-93.3492C244.405,-95.9079 334.884,-98.6635 412,-91.8756 420.439,-91.1328 429.45,-89.8318 437.913,-88.3786"/>
<polygon fill="black" stroke="black" points="438.681,-91.7964 447.89,-86.5577 437.424,-84.9101 438.681,-91.7964"/>
</g>
<!-- module~type_integrand&#45;&gt;module~foodie_integrator_adams_bashforth -->
<g id="edge2" class="edge"><title>module~type_integrand&#45;&gt;module~foodie_integrator_adams_bashforth</title>
<path fill="none" stroke="black" stroke-dasharray="5,2" d="M193.405,-85.9318C201.288,-84.9905 209.851,-83.9681 218.678,-82.9141"/>
<polygon fill="black" stroke="black" points="219.219,-86.3744 228.734,-81.7134 218.389,-79.4238 219.219,-86.3744"/>
</g>
<!-- module~type_integrand&#45;&gt;module~foodie_integrator_tvd_runge_kutta -->
<g id="edge4" class="edge"><title>module~type_integrand&#45;&gt;module~foodie_integrator_tvd_runge_kutta</title>
<path fill="none" stroke="black" stroke-dasharray="5,2" d="M171.277,-78.7831C186.465,-69.7136 208.437,-57.5838 229,-49.8756 234.947,-47.6464 241.205,-45.6062 247.539,-43.7495"/>
<polygon fill="black" stroke="black" points="248.818,-47.0269 257.519,-40.9821 246.948,-40.2814 248.818,-47.0269"/>
</g>
<!-- module~type_integrand&#45;&gt;module~foodie_integrator_euler_explicit -->
<g id="edge7" class="edge"><title>module~type_integrand&#45;&gt;module~foodie_integrator_euler_explicit</title>
<path fill="none" stroke="black" stroke-dasharray="5,2" d="M176.964,-102.933C191.864,-109.868 211.277,-118.451 229,-124.876 239.936,-128.84 251.784,-132.609 263.193,-135.986"/>
<polygon fill="black" stroke="black" points="262.493,-139.427 273.072,-138.847 264.44,-132.703 262.493,-139.427"/>
</g>
<!-- module~foodie_integrator_euler_explicit&#45;&gt;module~foodie -->
<g id="edge11" class="edge"><title>module~foodie_integrator_euler_explicit&#45;&gt;module~foodie</title>
<path fill="none" stroke="black" stroke-dasharray="5,2" d="M374.775,-138.806C387.289,-135.095 400.363,-130.475 412,-124.876 426.027,-118.126 440.289,-108.257 451.592,-99.5752"/>
<polygon fill="black" stroke="black" points="453.932,-102.187 459.605,-93.2389 449.59,-96.6957 453.932,-102.187"/>
</g>
</g>
</svg>
