<?xml version="1.0" encoding="UTF-8" standalone="no"?>
<!DOCTYPE svg PUBLIC "-//W3C//DTD SVG 1.1//EN"
 "http://www.w3.org/Graphics/SVG/1.1/DTD/svg11.dtd">
<!-- Generated by graphviz version 2.26.3 (20100126.1600)
 -->
<!-- Title: program~~integrate_lorenz~~UsesGraph Pages: 1 -->
<svg width="641pt" height="293pt"
 viewBox="0.00 0.00 641.00 292.76" xmlns="http://www.w3.org/2000/svg" xmlns:xlink="http://www.w3.org/1999/xlink">
<g id="graph1" class="graph" transform="scale(0.707506 0.707506) rotate(0) translate(4 409.786)">
<title>program~~integrate_lorenz~~UsesGraph</title>
<polygon fill="white" stroke="white" points="-4,5 -4,-409.786 903,-409.786 903,5 -4,5"/>
<!-- program~integrate_lorenz -->
<g id="node1" class="node"><title>program~integrate_lorenz</title>
<polygon fill="none" stroke="black" points="898,-106.786 808,-106.786 808,-80.7861 898,-80.7861 898,-106.786"/>
<text text-anchor="middle" x="853" y="-91.3361" font-family="Helvetica,sans-Serif" font-size="10.50">integrate_lorenz</text>
</g>
<!-- module~foodie -->
<g id="node2" class="node"><title>module~foodie</title>
<a xlink:href="../module/foodie.html" xlink:title="foodie">
<polygon fill="#337ab7" stroke="#337ab7" points="540,-255.786 486,-255.786 486,-229.786 540,-229.786 540,-255.786"/>
<text text-anchor="middle" x="513" y="-240.336" font-family="Helvetica,sans-Serif" font-size="10.50" fill="white">foodie</text>
</a>
</g>
<!-- module~foodie&#45;&gt;program~integrate_lorenz -->
<g id="edge40" class="edge"><title>module~foodie&#45;&gt;program~integrate_lorenz</title>
<path fill="none" stroke="black" stroke-dasharray="5,2" d="M540.043,-237.608C588.668,-227.558 693.137,-202.554 772,-159.786 794.677,-147.488 817.155,-128.487 832.658,-114.024"/>
<polygon fill="black" stroke="black" points="835.271,-116.368 840.093,-106.934 830.44,-111.302 835.271,-116.368"/>
</g>
<!-- module~type_lorenz -->
<g id="node6" class="node"><title>module~type_lorenz</title>
<a xlink:href="../module/type_lorenz.html" xlink:title="type_lorenz">
<polygon fill="#337ab7" stroke="#337ab7" points="708,-150.786 640,-150.786 640,-124.786 708,-124.786 708,-150.786"/>
<text text-anchor="middle" x="674" y="-135.336" font-family="Helvetica,sans-Serif" font-size="10.50" fill="white">type_lorenz</text>
</a>
</g>
<!-- module~foodie&#45;&gt;module~type_lorenz -->
<g id="edge38" class="edge"><title>module~foodie&#45;&gt;module~type_lorenz</title>
<path fill="none" stroke="black" stroke-dasharray="5,2" d="M533.065,-229.7C561.343,-211.258 613.067,-177.525 645.374,-156.455"/>
<polygon fill="black" stroke="black" points="647.471,-159.266 653.935,-150.872 643.647,-153.403 647.471,-159.266"/>
</g>
<!-- IR_Precision -->
<g id="node3" class="node"><title>IR_Precision</title>
<polygon fill="#337ab7" stroke="#337ab7" points="73,-296.786 1,-296.786 1,-270.786 73,-270.786 73,-296.786"/>
<text text-anchor="middle" x="37" y="-281.336" font-family="Helvetica,sans-Serif" font-size="10.50" fill="white">IR_Precision</text>
</g>
<!-- IR_Precision&#45;&gt;program~integrate_lorenz -->
<g id="edge42" class="edge"><title>IR_Precision&#45;&gt;program~integrate_lorenz</title>
<path fill="none" stroke="black" stroke-dasharray="5,2" d="M46.156,-270.503C63.5116,-246.652 103.807,-197.33 152,-178.786"/>
<path fill="none" stroke="black" stroke-dasharray="5,2" d="M152,-178.786C302.704,-120.796 354.446,-168.365 513,-137.786"/>
<path fill="none" stroke="black" stroke-dasharray="5,2" d="M513,-137.786C567.881,-125.05 527.258,-56.0405 576,-27.7861 651.365,15.9005 689.93,1.41661 772,-27.7861 797.032,-36.6929 819.935,-57.0128 834.952,-72.7702"/>
<polygon fill="black" stroke="black" points="832.714,-75.509 842.055,-80.5099 837.872,-70.7758 832.714,-75.509"/>
</g>
<!-- IR_Precision&#45;&gt;module~type_lorenz -->
<g id="edge36" class="edge"><title>IR_Precision&#45;&gt;module~type_lorenz</title>
<path fill="none" stroke="black" stroke-dasharray="5,2" d="M513,-137.786C551.882,-130.287 597.035,-131.088 629.611,-133.299"/>
<polygon fill="black" stroke="black" points="629.488,-136.8 639.722,-134.058 630.012,-129.819 629.488,-136.8"/>
</g>
<!-- module~foodie_integrator_tvd_runge_kutta -->
<g id="node7" class="node"><title>module~foodie_integrator_tvd_runge_kutta</title>
<a xlink:href="../module/foodie_integrator_tvd_runge_kutta.html" xlink:title="foodie_integrator_tvd_runge_kutta">
<polygon fill="#337ab7" stroke="#337ab7" points="428,-361.786 252,-361.786 252,-335.786 428,-335.786 428,-361.786"/>
<text text-anchor="middle" x="340" y="-346.336" font-family="Helvetica,sans-Serif" font-size="10.50" fill="white">foodie_integrator_tvd_runge_kutta</text>
</a>
</g>
<!-- IR_Precision&#45;&gt;module~foodie_integrator_tvd_runge_kutta -->
<g id="edge2" class="edge"><title>IR_Precision&#45;&gt;module~foodie_integrator_tvd_runge_kutta</title>
<path fill="none" stroke="black" stroke-dasharray="5,2" d="M152,-348.786C180.377,-356.251 212.008,-358.473 241.109,-358.213"/>
<polygon fill="black" stroke="black" points="241.354,-361.71 251.287,-358.023 241.223,-354.711 241.354,-361.71"/>
</g>
<!-- module~type_integrand -->
<g id="node8" class="node"><title>module~type_integrand</title>
<a xlink:href="../module/type_integrand.html" xlink:title="type_integrand">
<polygon fill="#337ab7" stroke="#337ab7" points="194,-296.786 110,-296.786 110,-270.786 194,-270.786 194,-296.786"/>
<text text-anchor="middle" x="152" y="-281.336" font-family="Helvetica,sans-Serif" font-size="10.50" fill="white">type_integrand</text>
</a>
</g>
<!-- IR_Precision&#45;&gt;module~type_integrand -->
<g id="edge6" class="edge"><title>IR_Precision&#45;&gt;module~type_integrand</title>
<path fill="none" stroke="black" stroke-dasharray="5,2" d="M73.7029,-283.786C81.9237,-283.786 90.8,-283.786 99.521,-283.786"/>
<polygon fill="black" stroke="black" points="99.6389,-287.286 109.639,-283.786 99.6388,-280.286 99.6389,-287.286"/>
</g>
<!-- module~foodie_integrator_adams_bashforth -->
<g id="node9" class="node"><title>module~foodie_integrator_adams_bashforth</title>
<a xlink:href="../module/foodie_integrator_adams_bashforth.html" xlink:title="foodie_integrator_adams_bashforth">
<polygon fill="#337ab7" stroke="#337ab7" points="431,-317.786 249,-317.786 249,-291.786 431,-291.786 431,-317.786"/>
<text text-anchor="middle" x="340" y="-302.336" font-family="Helvetica,sans-Serif" font-size="10.50" fill="white">foodie_integrator_adams_bashforth</text>
</a>
</g>
<!-- IR_Precision&#45;&gt;module~foodie_integrator_adams_bashforth -->
<g id="edge8" class="edge"><title>IR_Precision&#45;&gt;module~foodie_integrator_adams_bashforth</title>
<path fill="none" stroke="black" stroke-dasharray="5,2" d="M53.6975,-296.947C75.0524,-312.859 113.852,-338.751 152,-348.786"/>
<path fill="none" stroke="black" stroke-dasharray="5,2" d="M152,-348.786C186.834,-357.949 194.981,-335.213 230,-326.786 239.901,-324.404 250.346,-322.076 260.701,-319.882"/>
<polygon fill="black" stroke="black" points="261.506,-323.289 270.58,-317.82 260.076,-316.437 261.506,-323.289"/>
</g>
<!-- module~foodie_integrator_euler_explicit -->
<g id="node10" class="node"><title>module~foodie_integrator_euler_explicit</title>
<a xlink:href="../module/foodie_integrator_euler_explicit.html" xlink:title="foodie_integrator_euler_explicit">
<polygon fill="#337ab7" stroke="#337ab7" points="421,-235.786 259,-235.786 259,-209.786 421,-209.786 421,-235.786"/>
<text text-anchor="middle" x="340" y="-220.336" font-family="Helvetica,sans-Serif" font-size="10.50" fill="white">foodie_integrator_euler_explicit</text>
</a>
</g>
<!-- IR_Precision&#45;&gt;module~foodie_integrator_euler_explicit -->
<g id="edge12" class="edge"><title>IR_Precision&#45;&gt;module~foodie_integrator_euler_explicit</title>
<path fill="none" stroke="black" stroke-dasharray="5,2" d="M152,-178.786C185.616,-165.851 194.981,-192.359 230,-200.786 239.901,-203.169 250.346,-205.496 260.701,-207.691"/>
<polygon fill="black" stroke="black" points="260.076,-211.136 270.58,-209.752 261.506,-204.283 260.076,-211.136"/>
</g>
<!-- module~foodie_integrator_leapfrog -->
<g id="node11" class="node"><title>module~foodie_integrator_leapfrog</title>
<a xlink:href="../module/foodie_integrator_leapfrog.html" xlink:title="foodie_integrator_leapfrog">
<polygon fill="#337ab7" stroke="#337ab7" points="409,-191.786 271,-191.786 271,-165.786 409,-165.786 409,-191.786"/>
<text text-anchor="middle" x="340" y="-176.336" font-family="Helvetica,sans-Serif" font-size="10.50" fill="white">foodie_integrator_leapfrog</text>
</a>
</g>
<!-- IR_Precision&#45;&gt;module~foodie_integrator_leapfrog -->
<g id="edge16" class="edge"><title>IR_Precision&#45;&gt;module~foodie_integrator_leapfrog</title>
<path fill="none" stroke="black" stroke-dasharray="5,2" d="M152,-178.786C185.963,-165.717 226.002,-164.032 260.384,-166.294"/>
<polygon fill="black" stroke="black" points="260.147,-169.786 270.388,-167.072 260.69,-162.807 260.147,-169.786"/>
</g>
<!-- module~foodie_integrator_low_storage_runge_kutta -->
<g id="node12" class="node"><title>module~foodie_integrator_low_storage_runge_kutta</title>
<a xlink:href="../module/foodie_integrator_low_storage_runge_kutta.html" xlink:title="foodie_integrator_low_storage_runge_kutta">
<polygon fill="#337ab7" stroke="#337ab7" points="450,-405.786 230,-405.786 230,-379.786 450,-379.786 450,-405.786"/>
<text text-anchor="middle" x="340" y="-390.336" font-family="Helvetica,sans-Serif" font-size="10.50" fill="white">foodie_integrator_low_storage_runge_kutta</text>
</a>
</g>
<!-- IR_Precision&#45;&gt;module~foodie_integrator_low_storage_runge_kutta -->
<g id="edge20" class="edge"><title>IR_Precision&#45;&gt;module~foodie_integrator_low_storage_runge_kutta</title>
<path fill="none" stroke="black" stroke-dasharray="5,2" d="M152,-348.786C186.834,-357.949 194.981,-362.359 230,-370.786 239.901,-373.169 250.346,-375.496 260.701,-377.691"/>
<polygon fill="black" stroke="black" points="260.076,-381.136 270.58,-379.752 261.506,-374.283 260.076,-381.136"/>
</g>
<!-- Data_Type_Command_Line_Interface -->
<g id="node4" class="node"><title>Data_Type_Command_Line_Interface</title>
<polygon fill="#337ab7" stroke="#337ab7" points="771,-106.786 577,-106.786 577,-80.7861 771,-80.7861 771,-106.786"/>
<text text-anchor="middle" x="674" y="-91.3361" font-family="Helvetica,sans-Serif" font-size="10.50" fill="white">Data_Type_Command_Line_Interface</text>
</g>
<!-- Data_Type_Command_Line_Interface&#45;&gt;program~integrate_lorenz -->
<g id="edge44" class="edge"><title>Data_Type_Command_Line_Interface&#45;&gt;program~integrate_lorenz</title>
<path fill="none" stroke="black" stroke-dasharray="5,2" d="M771.618,-93.7861C780.477,-93.7861 789.228,-93.7861 797.522,-93.7861"/>
<polygon fill="black" stroke="black" points="797.756,-97.2862 807.756,-93.7861 797.756,-90.2862 797.756,-97.2862"/>
</g>
<!-- pyplot_module -->
<g id="node5" class="node"><title>pyplot_module</title>
<polygon fill="#337ab7" stroke="#337ab7" points="715,-62.7861 633,-62.7861 633,-36.7861 715,-36.7861 715,-62.7861"/>
<text text-anchor="middle" x="674" y="-47.3361" font-family="Helvetica,sans-Serif" font-size="10.50" fill="white">pyplot_module</text>
</g>
<!-- pyplot_module&#45;&gt;program~integrate_lorenz -->
<g id="edge46" class="edge"><title>pyplot_module&#45;&gt;program~integrate_lorenz</title>
<path fill="none" stroke="black" stroke-dasharray="5,2" d="M715.101,-58.5873C732.671,-62.4595 753.383,-67.1705 772,-71.7861 780.427,-73.8752 789.318,-76.1835 798.002,-78.4958"/>
<polygon fill="black" stroke="black" points="797.116,-81.8818 807.682,-81.0967 798.932,-75.1216 797.116,-81.8818"/>
</g>
<!-- module~type_lorenz&#45;&gt;program~integrate_lorenz -->
<g id="edge48" class="edge"><title>module~type_lorenz&#45;&gt;program~integrate_lorenz</title>
<path fill="none" stroke="black" stroke-dasharray="5,2" d="M708.103,-130.52C726.983,-126.399 750.844,-121.031 772,-115.786 780.427,-113.697 789.318,-111.389 798.002,-109.076"/>
<polygon fill="black" stroke="black" points="798.932,-112.451 807.682,-106.476 797.116,-105.69 798.932,-112.451"/>
</g>
<!-- module~foodie_integrator_tvd_runge_kutta&#45;&gt;module~foodie -->
<g id="edge24" class="edge"><title>module~foodie_integrator_tvd_runge_kutta&#45;&gt;module~foodie</title>
<path fill="none" stroke="black" stroke-dasharray="5,2" d="M428.707,-337.1C436.193,-334.332 443.409,-330.94 450,-326.786 473.747,-311.82 491.72,-284.467 502.274,-265.043"/>
<polygon fill="black" stroke="black" points="505.48,-266.463 506.979,-255.975 499.266,-263.239 505.48,-266.463"/>
</g>
<!-- module~type_integrand&#45;&gt;module~foodie -->
<g id="edge26" class="edge"><title>module~type_integrand&#45;&gt;module~foodie</title>
<path fill="none" stroke="black" stroke-dasharray="5,2" d="M194.118,-279.003C265.266,-270.922 408.104,-254.699 475.792,-247.012"/>
<polygon fill="black" stroke="black" points="476.446,-250.46 485.987,-245.854 475.656,-243.505 476.446,-250.46"/>
</g>
<!-- module~type_integrand&#45;&gt;module~foodie_integrator_tvd_runge_kutta -->
<g id="edge4" class="edge"><title>module~type_integrand&#45;&gt;module~foodie_integrator_tvd_runge_kutta</title>
<path fill="none" stroke="black" stroke-dasharray="5,2" d="M171.717,-296.884C187.022,-306.489 209.088,-319.138 230,-326.786 236.39,-329.123 243.085,-331.232 249.882,-333.132"/>
<polygon fill="black" stroke="black" points="249.329,-336.605 259.891,-335.767 251.112,-329.836 249.329,-336.605"/>
</g>
<!-- module~type_integrand&#45;&gt;module~foodie_integrator_adams_bashforth -->
<g id="edge10" class="edge"><title>module~type_integrand&#45;&gt;module~foodie_integrator_adams_bashforth</title>
<path fill="none" stroke="black" stroke-dasharray="5,2" d="M194.191,-288.499C207.423,-289.977 222.647,-291.678 238.158,-293.41"/>
<polygon fill="black" stroke="black" points="238.047,-296.919 248.374,-294.551 238.824,-289.963 238.047,-296.919"/>
</g>
<!-- module~type_integrand&#45;&gt;module~foodie_integrator_euler_explicit -->
<g id="edge14" class="edge"><title>module~type_integrand&#45;&gt;module~foodie_integrator_euler_explicit</title>
<path fill="none" stroke="black" stroke-dasharray="5,2" d="M178.986,-270.667C193.804,-263.811 212.646,-255.65 230,-249.786 242.47,-245.572 255.939,-241.716 269.033,-238.318"/>
<polygon fill="black" stroke="black" points="270.112,-241.656 278.95,-235.811 268.397,-234.869 270.112,-241.656"/>
</g>
<!-- module~type_integrand&#45;&gt;module~foodie_integrator_leapfrog -->
<g id="edge18" class="edge"><title>module~type_integrand&#45;&gt;module~foodie_integrator_leapfrog</title>
<path fill="none" stroke="black" stroke-dasharray="5,2" d="M160.314,-270.753C172.962,-252.08 198.883,-218.066 230,-200.786 239.451,-195.538 249.975,-191.531 260.662,-188.474"/>
<polygon fill="black" stroke="black" points="261.695,-191.823 270.497,-185.926 259.939,-185.046 261.695,-191.823"/>
</g>
<!-- module~type_integrand&#45;&gt;module~foodie_integrator_low_storage_runge_kutta -->
<g id="edge22" class="edge"><title>module~type_integrand&#45;&gt;module~foodie_integrator_low_storage_runge_kutta</title>
<path fill="none" stroke="black" stroke-dasharray="5,2" d="M162.905,-296.835C182.309,-319.919 221.587,-365.984 230,-370.786 233.28,-372.658 236.694,-374.373 240.203,-375.943"/>
<polygon fill="black" stroke="black" points="239.104,-379.274 249.687,-379.772 241.724,-372.783 239.104,-379.274"/>
</g>
<!-- module~foodie_integrator_adams_bashforth&#45;&gt;module~foodie -->
<g id="edge28" class="edge"><title>module~foodie_integrator_adams_bashforth&#45;&gt;module~foodie</title>
<path fill="none" stroke="black" stroke-dasharray="5,2" d="M405.458,-291.756C420.337,-287.963 435.905,-283.316 450,-277.786 461.531,-273.262 473.565,-267.002 483.989,-261.027"/>
<polygon fill="black" stroke="black" points="485.847,-263.994 492.682,-255.899 482.29,-257.965 485.847,-263.994"/>
</g>
<!-- module~foodie_integrator_euler_explicit&#45;&gt;module~foodie -->
<g id="edge30" class="edge"><title>module~foodie_integrator_euler_explicit&#45;&gt;module~foodie</title>
<path fill="none" stroke="black" stroke-dasharray="5,2" d="M421.181,-232.171C440.337,-234.386 459.842,-236.641 475.92,-238.499"/>
<polygon fill="black" stroke="black" points="475.616,-241.987 485.952,-239.659 476.42,-235.034 475.616,-241.987"/>
</g>
<!-- module~foodie_integrator_leapfrog&#45;&gt;module~foodie -->
<g id="edge32" class="edge"><title>module~foodie_integrator_leapfrog&#45;&gt;module~foodie</title>
<path fill="none" stroke="black" stroke-dasharray="5,2" d="M409.586,-188.423C423.274,-191.503 437.315,-195.532 450,-200.786 463.839,-206.518 477.841,-215.469 489.118,-223.638"/>
<polygon fill="black" stroke="black" points="487.061,-226.47 497.163,-229.665 491.259,-220.868 487.061,-226.47"/>
</g>
<!-- module~foodie_integrator_low_storage_runge_kutta&#45;&gt;module~foodie -->
<g id="edge34" class="edge"><title>module~foodie_integrator_low_storage_runge_kutta&#45;&gt;module~foodie</title>
<path fill="none" stroke="black" stroke-dasharray="5,2" d="M435.523,-379.689C440.648,-377.173 445.522,-374.228 450,-370.786 484.102,-344.569 500.929,-295.014 508.225,-265.852"/>
<polygon fill="black" stroke="black" points="511.634,-266.645 510.496,-256.111 504.816,-265.055 511.634,-266.645"/>
</g>
</g>
</svg>
