<?xml version="1.0" encoding="UTF-8" standalone="no"?>
<!DOCTYPE svg PUBLIC "-//W3C//DTD SVG 1.1//EN"
 "http://www.w3.org/Graphics/SVG/1.1/DTD/svg11.dtd">
<!-- Generated by graphviz version 2.26.3 (20100126.1600)
 -->
<!-- Title: program~~integrate_burgers~~UsesGraph Pages: 1 -->
<svg width="641pt" height="220pt"
 viewBox="0.00 0.00 641.00 220.12" xmlns="http://www.w3.org/2000/svg" xmlns:xlink="http://www.w3.org/1999/xlink">
<g id="graph1" class="graph" transform="scale(0.701313 0.701313) rotate(0) translate(4 309.863)">
<title>program~~integrate_burgers~~UsesGraph</title>
<polygon fill="white" stroke="white" points="-4,5 -4,-309.863 911,-309.863 911,5 -4,5"/>
<!-- program~integrate_burgers -->
<g id="node1" class="node"><title>program~integrate_burgers</title>
<polygon fill="none" stroke="black" points="905,-243.863 809,-243.863 809,-217.863 905,-217.863 905,-243.863"/>
<text text-anchor="middle" x="857" y="-228.413" font-family="Helvetica,sans-Serif" font-size="10.50">integrate_burgers</text>
</g>
<!-- pyplot_module -->
<g id="node2" class="node"><title>pyplot_module</title>
<polygon fill="#337ab7" stroke="#337ab7" points="715,-305.863 633,-305.863 633,-279.863 715,-279.863 715,-305.863"/>
<text text-anchor="middle" x="674" y="-290.413" font-family="Helvetica,sans-Serif" font-size="10.50" fill="white">pyplot_module</text>
</g>
<!-- pyplot_module&#45;&gt;program~integrate_burgers -->
<g id="edge34" class="edge"><title>pyplot_module&#45;&gt;program~integrate_burgers</title>
<path fill="none" stroke="black" stroke-dasharray="5,2" d="M715.346,-282.667C732.956,-278.017 753.633,-272.148 772,-265.863 787.335,-260.615 803.881,-254.022 818.263,-247.978"/>
<polygon fill="black" stroke="black" points="820.003,-251.041 827.833,-243.904 817.261,-244.601 820.003,-251.041"/>
</g>
<!-- IR_Precision -->
<g id="node3" class="node"><title>IR_Precision</title>
<polygon fill="#337ab7" stroke="#337ab7" points="73,-138.863 1,-138.863 1,-112.863 73,-112.863 73,-138.863"/>
<text text-anchor="middle" x="37" y="-123.413" font-family="Helvetica,sans-Serif" font-size="10.50" fill="white">IR_Precision</text>
</g>
<!-- IR_Precision&#45;&gt;program~integrate_burgers -->
<g id="edge36" class="edge"><title>IR_Precision&#45;&gt;program~integrate_burgers</title>
<path fill="none" stroke="black" stroke-dasharray="5,2" d="M152,-251.863C373.25,-321.665 443.203,-228.267 674,-251.863"/>
</g>
<!-- module~type_burgers -->
<g id="node6" class="node"><title>module~type_burgers</title>
<a xlink:href="../module/type_burgers.html" xlink:title="type_burgers">
<polygon fill="#337ab7" stroke="#337ab7" points="712,-158.863 636,-158.863 636,-132.863 712,-132.863 712,-158.863"/>
<text text-anchor="middle" x="674" y="-143.413" font-family="Helvetica,sans-Serif" font-size="10.50" fill="white">type_burgers</text>
</a>
</g>
<!-- IR_Precision&#45;&gt;module~type_burgers -->
<g id="edge30" class="edge"><title>IR_Precision&#45;&gt;module~type_burgers</title>
<path fill="none" stroke="black" stroke-dasharray="5,2" d="M48.8681,-112.839C68.164,-92.7496 108.574,-55.0417 152,-40.8629"/>
<path fill="none" stroke="black" stroke-dasharray="5,2" d="M152,-40.8629C278.246,0.357278 321.587,15.0074 450,-18.8629 529.57,-39.8503 610.526,-96.3196 649.735,-126.393"/>
<polygon fill="black" stroke="black" points="647.852,-129.362 657.896,-132.736 652.148,-123.836 647.852,-129.362"/>
</g>
<!-- module~foodie_integrator_low_storage_runge_kutta -->
<g id="node7" class="node"><title>module~foodie_integrator_low_storage_runge_kutta</title>
<a xlink:href="../module/foodie_integrator_low_storage_runge_kutta.html" xlink:title="foodie_integrator_low_storage_runge_kutta">
<polygon fill="#337ab7" stroke="#337ab7" points="450,-97.8629 230,-97.8629 230,-71.8629 450,-71.8629 450,-97.8629"/>
<text text-anchor="middle" x="340" y="-82.4129" font-family="Helvetica,sans-Serif" font-size="10.50" fill="white">foodie_integrator_low_storage_runge_kutta</text>
</a>
</g>
<!-- IR_Precision&#45;&gt;module~foodie_integrator_low_storage_runge_kutta -->
<g id="edge2" class="edge"><title>IR_Precision&#45;&gt;module~foodie_integrator_low_storage_runge_kutta</title>
<path fill="none" stroke="black" stroke-dasharray="5,2" d="M152,-40.8629C186.24,-29.6832 194.981,-54.4357 230,-62.8629 239.901,-65.2455 250.346,-67.5726 260.701,-69.7675"/>
<polygon fill="black" stroke="black" points="260.076,-73.2124 270.58,-71.8289 261.506,-66.36 260.076,-73.2124"/>
</g>
<!-- module~foodie_integrator_tvd_runge_kutta -->
<g id="node8" class="node"><title>module~foodie_integrator_tvd_runge_kutta</title>
<a xlink:href="../module/foodie_integrator_tvd_runge_kutta.html" xlink:title="foodie_integrator_tvd_runge_kutta">
<polygon fill="#337ab7" stroke="#337ab7" points="428,-53.8629 252,-53.8629 252,-27.8629 428,-27.8629 428,-53.8629"/>
<text text-anchor="middle" x="340" y="-38.4129" font-family="Helvetica,sans-Serif" font-size="10.50" fill="white">foodie_integrator_tvd_runge_kutta</text>
</a>
</g>
<!-- IR_Precision&#45;&gt;module~foodie_integrator_tvd_runge_kutta -->
<g id="edge6" class="edge"><title>IR_Precision&#45;&gt;module~foodie_integrator_tvd_runge_kutta</title>
<path fill="none" stroke="black" stroke-dasharray="5,2" d="M152,-40.8629C180.032,-31.7102 211.694,-29.0179 240.932,-29.3659"/>
<polygon fill="black" stroke="black" points="241.082,-32.8704 251.163,-29.6102 241.249,-25.8724 241.082,-32.8704"/>
</g>
<!-- module~type_integrand -->
<g id="node9" class="node"><title>module~type_integrand</title>
<a xlink:href="../module/type_integrand.html" xlink:title="type_integrand">
<polygon fill="#337ab7" stroke="#337ab7" points="194,-138.863 110,-138.863 110,-112.863 194,-112.863 194,-138.863"/>
<text text-anchor="middle" x="152" y="-123.413" font-family="Helvetica,sans-Serif" font-size="10.50" fill="white">type_integrand</text>
</a>
</g>
<!-- IR_Precision&#45;&gt;module~type_integrand -->
<g id="edge10" class="edge"><title>IR_Precision&#45;&gt;module~type_integrand</title>
<path fill="none" stroke="black" stroke-dasharray="5,2" d="M73.7029,-125.863C81.9237,-125.863 90.8,-125.863 99.521,-125.863"/>
<polygon fill="black" stroke="black" points="99.6389,-129.363 109.639,-125.863 99.6388,-122.363 99.6389,-129.363"/>
</g>
<!-- module~foodie_integrator_euler_explicit -->
<g id="node10" class="node"><title>module~foodie_integrator_euler_explicit</title>
<a xlink:href="../module/foodie_integrator_euler_explicit.html" xlink:title="foodie_integrator_euler_explicit">
<polygon fill="#337ab7" stroke="#337ab7" points="421,-223.863 259,-223.863 259,-197.863 421,-197.863 421,-223.863"/>
<text text-anchor="middle" x="340" y="-208.413" font-family="Helvetica,sans-Serif" font-size="10.50" fill="white">foodie_integrator_euler_explicit</text>
</a>
</g>
<!-- IR_Precision&#45;&gt;module~foodie_integrator_euler_explicit -->
<g id="edge12" class="edge"><title>IR_Precision&#45;&gt;module~foodie_integrator_euler_explicit</title>
<path fill="none" stroke="black" stroke-dasharray="5,2" d="M152,-251.863C158.098,-253.787 224.168,-238.739 276.281,-226.335"/>
<polygon fill="black" stroke="black" points="277.25,-229.702 286.164,-223.975 275.624,-222.894 277.25,-229.702"/>
</g>
<!-- module~foodie_integrator_adams_bashforth -->
<g id="node11" class="node"><title>module~foodie_integrator_adams_bashforth</title>
<a xlink:href="../module/foodie_integrator_adams_bashforth.html" xlink:title="foodie_integrator_adams_bashforth">
<polygon fill="#337ab7" stroke="#337ab7" points="431,-179.863 249,-179.863 249,-153.863 431,-153.863 431,-179.863"/>
<text text-anchor="middle" x="340" y="-164.413" font-family="Helvetica,sans-Serif" font-size="10.50" fill="white">foodie_integrator_adams_bashforth</text>
</a>
</g>
<!-- IR_Precision&#45;&gt;module~foodie_integrator_adams_bashforth -->
<g id="edge16" class="edge"><title>IR_Precision&#45;&gt;module~foodie_integrator_adams_bashforth</title>
<path fill="none" stroke="black" stroke-dasharray="5,2" d="M43.2055,-139.184C57.4806,-167.829 95.7943,-234.131 152,-251.863"/>
<path fill="none" stroke="black" stroke-dasharray="5,2" d="M152,-251.863C194.497,-265.27 189.652,-207.779 230,-188.863 234.567,-186.722 239.335,-184.789 244.218,-183.044"/>
<polygon fill="black" stroke="black" points="245.322,-186.365 253.726,-179.914 243.133,-179.716 245.322,-186.365"/>
</g>
<!-- module~foodie -->
<g id="node4" class="node"><title>module~foodie</title>
<a xlink:href="../module/foodie.html" xlink:title="foodie">
<polygon fill="#337ab7" stroke="#337ab7" points="540,-158.863 486,-158.863 486,-132.863 540,-132.863 540,-158.863"/>
<text text-anchor="middle" x="513" y="-143.413" font-family="Helvetica,sans-Serif" font-size="10.50" fill="white">foodie</text>
</a>
</g>
<!-- module~foodie&#45;&gt;program~integrate_burgers -->
<g id="edge38" class="edge"><title>module~foodie&#45;&gt;program~integrate_burgers</title>
<path fill="none" stroke="black" stroke-dasharray="5,2" d="M518.576,-158.894C527.615,-178.339 547.385,-214.611 576,-232.863 613.405,-256.721 629.863,-247.351 674,-251.863"/>
<path fill="none" stroke="black" stroke-dasharray="5,2" d="M674,-251.863C715.551,-256.111 762.337,-250.558 798.202,-244.1"/>
<polygon fill="black" stroke="black" points="799.305,-247.454 808.488,-242.169 798.014,-240.574 799.305,-247.454"/>
</g>
<!-- module~foodie&#45;&gt;module~type_burgers -->
<g id="edge32" class="edge"><title>module~foodie&#45;&gt;module~type_burgers</title>
<path fill="none" stroke="black" stroke-dasharray="5,2" d="M540.311,-145.863C563.62,-145.863 597.697,-145.863 625.613,-145.863"/>
<polygon fill="black" stroke="black" points="625.974,-149.363 635.974,-145.863 625.974,-142.363 625.974,-149.363"/>
</g>
<!-- Data_Type_Command_Line_Interface -->
<g id="node5" class="node"><title>Data_Type_Command_Line_Interface</title>
<polygon fill="#337ab7" stroke="#337ab7" points="771,-223.863 577,-223.863 577,-197.863 771,-197.863 771,-223.863"/>
<text text-anchor="middle" x="674" y="-208.413" font-family="Helvetica,sans-Serif" font-size="10.50" fill="white">Data_Type_Command_Line_Interface</text>
</g>
<!-- Data_Type_Command_Line_Interface&#45;&gt;program~integrate_burgers -->
<g id="edge40" class="edge"><title>Data_Type_Command_Line_Interface&#45;&gt;program~integrate_burgers</title>
<path fill="none" stroke="black" stroke-dasharray="5,2" d="M771.661,-221.536C780.623,-222.516 789.505,-223.486 797.962,-224.411"/>
<polygon fill="black" stroke="black" points="797.723,-227.905 808.044,-225.513 798.483,-220.947 797.723,-227.905"/>
</g>
<!-- module~type_burgers&#45;&gt;program~integrate_burgers -->
<g id="edge42" class="edge"><title>module~type_burgers&#45;&gt;program~integrate_burgers</title>
<path fill="none" stroke="black" stroke-dasharray="5,2" d="M704.619,-158.873C724.026,-167.224 749.603,-178.422 772,-188.863 788.555,-196.58 806.729,-205.499 822.008,-213.127"/>
<polygon fill="black" stroke="black" points="820.599,-216.336 831.107,-217.688 823.735,-210.078 820.599,-216.336"/>
</g>
<!-- module~foodie_integrator_low_storage_runge_kutta&#45;&gt;module~foodie -->
<g id="edge20" class="edge"><title>module~foodie_integrator_low_storage_runge_kutta&#45;&gt;module~foodie</title>
<path fill="none" stroke="black" stroke-dasharray="5,2" d="M404.829,-97.8721C419.885,-101.687 435.688,-106.348 450,-111.863 461.188,-116.174 472.89,-122.064 483.13,-127.731"/>
<polygon fill="black" stroke="black" points="481.645,-130.913 492.067,-132.821 485.109,-124.83 481.645,-130.913"/>
</g>
<!-- module~foodie_integrator_tvd_runge_kutta&#45;&gt;module~foodie -->
<g id="edge22" class="edge"><title>module~foodie_integrator_tvd_runge_kutta&#45;&gt;module~foodie</title>
<path fill="none" stroke="black" stroke-dasharray="5,2" d="M428.681,-52.5892C436.173,-55.3488 443.398,-58.7284 450,-62.8629 473.61,-77.6474 491.61,-104.676 502.208,-123.87"/>
<polygon fill="black" stroke="black" points="499.174,-125.62 506.936,-132.83 505.365,-122.353 499.174,-125.62"/>
</g>
<!-- module~type_integrand&#45;&gt;module~foodie -->
<g id="edge24" class="edge"><title>module~type_integrand&#45;&gt;module~foodie</title>
<path fill="none" stroke="black" stroke-dasharray="5,2" d="M194.118,-128.196C265.266,-132.138 408.104,-140.052 475.792,-143.802"/>
<polygon fill="black" stroke="black" points="475.809,-147.308 485.987,-144.366 476.196,-140.318 475.809,-147.308"/>
</g>
<!-- module~type_integrand&#45;&gt;module~foodie_integrator_low_storage_runge_kutta -->
<g id="edge4" class="edge"><title>module~type_integrand&#45;&gt;module~foodie_integrator_low_storage_runge_kutta</title>
<path fill="none" stroke="black" stroke-dasharray="5,2" d="M194.191,-116.662C216.555,-111.784 244.609,-105.666 270.12,-100.103"/>
<polygon fill="black" stroke="black" points="271.101,-103.471 280.126,-97.9205 269.61,-96.6318 271.101,-103.471"/>
</g>
<!-- module~type_integrand&#45;&gt;module~foodie_integrator_tvd_runge_kutta -->
<g id="edge8" class="edge"><title>module~type_integrand&#45;&gt;module~foodie_integrator_tvd_runge_kutta</title>
<path fill="none" stroke="black" stroke-dasharray="5,2" d="M164.184,-112.788C178.506,-98.2529 203.679,-75.2029 230,-62.8629 234.567,-60.7218 239.335,-58.7888 244.218,-57.0436"/>
<polygon fill="black" stroke="black" points="245.322,-60.3652 253.726,-53.9138 243.133,-53.7162 245.322,-60.3652"/>
</g>
<!-- module~type_integrand&#45;&gt;module~foodie_integrator_euler_explicit -->
<g id="edge14" class="edge"><title>module~type_integrand&#45;&gt;module~foodie_integrator_euler_explicit</title>
<path fill="none" stroke="black" stroke-dasharray="5,2" d="M164.184,-138.938C178.506,-153.473 203.679,-176.523 230,-188.863 236.102,-191.724 242.563,-194.213 249.176,-196.379"/>
<polygon fill="black" stroke="black" points="248.364,-199.79 258.949,-199.326 250.386,-193.088 248.364,-199.79"/>
</g>
<!-- module~type_integrand&#45;&gt;module~foodie_integrator_adams_bashforth -->
<g id="edge18" class="edge"><title>module~type_integrand&#45;&gt;module~foodie_integrator_adams_bashforth</title>
<path fill="none" stroke="black" stroke-dasharray="5,2" d="M194.191,-135.064C216.555,-139.941 244.609,-146.059 270.12,-151.623"/>
<polygon fill="black" stroke="black" points="269.61,-155.094 280.126,-153.805 271.101,-148.255 269.61,-155.094"/>
</g>
<!-- module~foodie_integrator_euler_explicit&#45;&gt;module~foodie -->
<g id="edge26" class="edge"><title>module~foodie_integrator_euler_explicit&#45;&gt;module~foodie</title>
<path fill="none" stroke="black" stroke-dasharray="5,2" d="M421.029,-198.543C430.971,-195.904 440.844,-192.714 450,-188.863 464.007,-182.971 478.115,-173.722 489.419,-165.309"/>
<polygon fill="black" stroke="black" points="491.683,-167.983 497.469,-159.107 487.411,-162.437 491.683,-167.983"/>
</g>
<!-- module~foodie_integrator_adams_bashforth&#45;&gt;module~foodie -->
<g id="edge28" class="edge"><title>module~foodie_integrator_adams_bashforth&#45;&gt;module~foodie</title>
<path fill="none" stroke="black" stroke-dasharray="5,2" d="M431.566,-155.748C447.17,-153.854 462.554,-151.986 475.677,-150.393"/>
<polygon fill="black" stroke="black" points="476.172,-153.859 485.677,-149.18 475.328,-146.91 476.172,-153.859"/>
</g>
</g>
</svg>
