<?xml version="1.0" encoding="UTF-8" standalone="no"?>
<!DOCTYPE svg PUBLIC "-//W3C//DTD SVG 1.1//EN"
 "http://www.w3.org/Graphics/SVG/1.1/DTD/svg11.dtd">
<!-- Generated by graphviz version 2.26.3 (20100126.1600)
 -->
<!-- Title: program~~integrate_euler_1d~~UsesGraph Pages: 1 -->
<svg width="641pt" height="248pt"
 viewBox="0.00 0.00 641.00 248.46" xmlns="http://www.w3.org/2000/svg" xmlns:xlink="http://www.w3.org/1999/xlink">
<g id="graph1" class="graph" transform="scale(0.696739 0.696739) rotate(0) translate(4 352.601)">
<title>program~~integrate_euler_1d~~UsesGraph</title>
<polygon fill="white" stroke="white" points="-4,5 -4,-352.601 917,-352.601 917,5 -4,5"/>
<!-- program~integrate_euler_1d -->
<g id="node1" class="node"><title>program~integrate_euler_1d</title>
<polygon fill="none" stroke="black" points="912,-152 808,-152 808,-126 912,-126 912,-152"/>
<text text-anchor="middle" x="860" y="-136.55" font-family="Helvetica,sans-Serif" font-size="10.50">integrate_euler_1D</text>
</g>
<!-- module~foodie -->
<g id="node2" class="node"><title>module~foodie</title>
<a xlink:href="../module/foodie.html" xlink:title="foodie">
<polygon fill="#337ab7" stroke="#337ab7" points="540,-193 486,-193 486,-167 540,-167 540,-193"/>
<text text-anchor="middle" x="513" y="-177.55" font-family="Helvetica,sans-Serif" font-size="10.50" fill="white">foodie</text>
</a>
</g>
<!-- module~foodie&#45;&gt;program~integrate_euler_1d -->
<g id="edge36" class="edge"><title>module~foodie&#45;&gt;program~integrate_euler_1d</title>
<path fill="none" stroke="black" stroke-dasharray="5,2" d="M520.196,-193.017C540.474,-227.758 601.357,-319.168 674,-306"/>
<path fill="none" stroke="black" stroke-dasharray="5,2" d="M674,-306C756.971,-290.96 821.144,-202.545 847.255,-160.802"/>
<polygon fill="black" stroke="black" points="850.293,-162.543 852.518,-152.184 844.319,-158.894 850.293,-162.543"/>
</g>
<!-- module~type_euler_1d -->
<g id="node5" class="node"><title>module~type_euler_1d</title>
<a xlink:href="../module/type_euler_1d.html" xlink:title="type_euler_1D">
<polygon fill="#337ab7" stroke="#337ab7" points="715,-130 633,-130 633,-104 715,-104 715,-130"/>
<text text-anchor="middle" x="674" y="-114.55" font-family="Helvetica,sans-Serif" font-size="10.50" fill="white">type_euler_1D</text>
</a>
</g>
<!-- module~foodie&#45;&gt;module~type_euler_1d -->
<g id="edge34" class="edge"><title>module~foodie&#45;&gt;module~type_euler_1d</title>
<path fill="none" stroke="black" stroke-dasharray="5,2" d="M529.453,-166.939C541.655,-157.858 559.044,-146.146 576,-139 590.763,-132.778 607.552,-128.188 623.011,-124.861"/>
<polygon fill="black" stroke="black" points="623.835,-128.265 632.943,-122.852 622.448,-121.404 623.835,-128.265"/>
</g>
<!-- IR_Precision -->
<g id="node3" class="node"><title>IR_Precision</title>
<polygon fill="#337ab7" stroke="#337ab7" points="73,-193 1,-193 1,-167 73,-167 73,-193"/>
<text text-anchor="middle" x="37" y="-177.55" font-family="Helvetica,sans-Serif" font-size="10.50" fill="white">IR_Precision</text>
</g>
<!-- IR_Precision&#45;&gt;program~integrate_euler_1d -->
<g id="edge38" class="edge"><title>IR_Precision&#45;&gt;program~integrate_euler_1d</title>
<path fill="none" stroke="black" stroke-dasharray="5,2" d="M152,-306C373.25,-375.802 445.72,-347.379 674,-306"/>
</g>
<!-- IR_Precision&#45;&gt;module~type_euler_1d -->
<g id="edge30" class="edge"><title>IR_Precision&#45;&gt;module~type_euler_1d</title>
<path fill="none" stroke="black" stroke-dasharray="5,2" d="M48.8681,-166.976C68.164,-146.887 108.574,-109.179 152,-95"/>
<path fill="none" stroke="black" stroke-dasharray="5,2" d="M152,-95C186.24,-83.8203 194.321,-77.9354 230,-73 326.856,-59.6022 352.682,-63.5324 450,-73 482.771,-76.1881 567.367,-93.7737 622.708,-105.724"/>
<polygon fill="black" stroke="black" points="622.167,-109.188 632.681,-107.885 623.649,-102.347 622.167,-109.188"/>
</g>
<!-- module~foodie_integrator_low_storage_runge_kutta -->
<g id="node7" class="node"><title>module~foodie_integrator_low_storage_runge_kutta</title>
<a xlink:href="../module/foodie_integrator_low_storage_runge_kutta.html" xlink:title="foodie_integrator_low_storage_runge_kutta">
<polygon fill="#337ab7" stroke="#337ab7" points="450,-234 230,-234 230,-208 450,-208 450,-234"/>
<text text-anchor="middle" x="340" y="-218.55" font-family="Helvetica,sans-Serif" font-size="10.50" fill="white">foodie_integrator_low_storage_runge_kutta</text>
</a>
</g>
<!-- IR_Precision&#45;&gt;module~foodie_integrator_low_storage_runge_kutta -->
<g id="edge2" class="edge"><title>IR_Precision&#45;&gt;module~foodie_integrator_low_storage_runge_kutta</title>
<path fill="none" stroke="black" stroke-dasharray="5,2" d="M43.2055,-193.321C57.4806,-221.966 95.7943,-288.268 152,-306"/>
<path fill="none" stroke="black" stroke-dasharray="5,2" d="M152,-306C194.497,-319.407 189.652,-261.916 230,-243 234.567,-240.859 239.335,-238.926 244.218,-237.181"/>
<polygon fill="black" stroke="black" points="245.322,-240.502 253.726,-234.051 243.133,-233.853 245.322,-240.502"/>
</g>
<!-- module~foodie_integrator_tvd_runge_kutta -->
<g id="node8" class="node"><title>module~foodie_integrator_tvd_runge_kutta</title>
<a xlink:href="../module/foodie_integrator_tvd_runge_kutta.html" xlink:title="foodie_integrator_tvd_runge_kutta">
<polygon fill="#337ab7" stroke="#337ab7" points="428,-152 252,-152 252,-126 428,-126 428,-152"/>
<text text-anchor="middle" x="340" y="-136.55" font-family="Helvetica,sans-Serif" font-size="10.50" fill="white">foodie_integrator_tvd_runge_kutta</text>
</a>
</g>
<!-- IR_Precision&#45;&gt;module~foodie_integrator_tvd_runge_kutta -->
<g id="edge6" class="edge"><title>IR_Precision&#45;&gt;module~foodie_integrator_tvd_runge_kutta</title>
<path fill="none" stroke="black" stroke-dasharray="5,2" d="M152,-95C186.24,-83.8203 194.981,-108.573 230,-117 239.901,-119.383 250.346,-121.71 260.701,-123.905"/>
<polygon fill="black" stroke="black" points="260.076,-127.349 270.58,-125.966 261.506,-120.497 260.076,-127.349"/>
</g>
<!-- module~type_integrand -->
<g id="node9" class="node"><title>module~type_integrand</title>
<a xlink:href="../module/type_integrand.html" xlink:title="type_integrand">
<polygon fill="#337ab7" stroke="#337ab7" points="194,-193 110,-193 110,-167 194,-167 194,-193"/>
<text text-anchor="middle" x="152" y="-177.55" font-family="Helvetica,sans-Serif" font-size="10.50" fill="white">type_integrand</text>
</a>
</g>
<!-- IR_Precision&#45;&gt;module~type_integrand -->
<g id="edge10" class="edge"><title>IR_Precision&#45;&gt;module~type_integrand</title>
<path fill="none" stroke="black" stroke-dasharray="5,2" d="M73.7029,-180C81.9237,-180 90.8,-180 99.521,-180"/>
<polygon fill="black" stroke="black" points="99.6389,-183.5 109.639,-180 99.6388,-176.5 99.6389,-183.5"/>
</g>
<!-- module~foodie_integrator_euler_explicit -->
<g id="node10" class="node"><title>module~foodie_integrator_euler_explicit</title>
<a xlink:href="../module/foodie_integrator_euler_explicit.html" xlink:title="foodie_integrator_euler_explicit">
<polygon fill="#337ab7" stroke="#337ab7" points="421,-108 259,-108 259,-82 421,-82 421,-108"/>
<text text-anchor="middle" x="340" y="-92.55" font-family="Helvetica,sans-Serif" font-size="10.50" fill="white">foodie_integrator_euler_explicit</text>
</a>
</g>
<!-- IR_Precision&#45;&gt;module~foodie_integrator_euler_explicit -->
<g id="edge12" class="edge"><title>IR_Precision&#45;&gt;module~foodie_integrator_euler_explicit</title>
<path fill="none" stroke="black" stroke-dasharray="5,2" d="M152,-95C182.517,-85.0361 217.335,-82.7285 248.645,-83.6648"/>
<polygon fill="black" stroke="black" points="248.542,-87.1634 258.678,-84.0772 248.83,-80.1693 248.542,-87.1634"/>
</g>
<!-- module~foodie_integrator_adams_bashforth -->
<g id="node11" class="node"><title>module~foodie_integrator_adams_bashforth</title>
<a xlink:href="../module/foodie_integrator_adams_bashforth.html" xlink:title="foodie_integrator_adams_bashforth">
<polygon fill="#337ab7" stroke="#337ab7" points="431,-278 249,-278 249,-252 431,-252 431,-278"/>
<text text-anchor="middle" x="340" y="-262.55" font-family="Helvetica,sans-Serif" font-size="10.50" fill="white">foodie_integrator_adams_bashforth</text>
</a>
</g>
<!-- IR_Precision&#45;&gt;module~foodie_integrator_adams_bashforth -->
<g id="edge16" class="edge"><title>IR_Precision&#45;&gt;module~foodie_integrator_adams_bashforth</title>
<path fill="none" stroke="black" stroke-dasharray="5,2" d="M152,-306C158.098,-307.924 224.168,-292.876 276.281,-280.472"/>
<polygon fill="black" stroke="black" points="277.25,-283.839 286.164,-278.112 275.624,-277.031 277.25,-283.839"/>
</g>
<!-- pyplot_module -->
<g id="node4" class="node"><title>pyplot_module</title>
<polygon fill="#337ab7" stroke="#337ab7" points="715,-174 633,-174 633,-148 715,-148 715,-174"/>
<text text-anchor="middle" x="674" y="-158.55" font-family="Helvetica,sans-Serif" font-size="10.50" fill="white">pyplot_module</text>
</g>
<!-- pyplot_module&#45;&gt;program~integrate_euler_1d -->
<g id="edge40" class="edge"><title>pyplot_module&#45;&gt;program~integrate_euler_1d</title>
<path fill="none" stroke="black" stroke-dasharray="5,2" d="M715.279,-156.117C739.479,-153.255 770.53,-149.582 797.661,-146.373"/>
<polygon fill="black" stroke="black" points="798.325,-149.819 807.845,-145.169 797.503,-142.868 798.325,-149.819"/>
</g>
<!-- module~type_euler_1d&#45;&gt;program~integrate_euler_1d -->
<g id="edge42" class="edge"><title>module~type_euler_1d&#45;&gt;program~integrate_euler_1d</title>
<path fill="none" stroke="black" stroke-dasharray="5,2" d="M715.279,-121.883C739.479,-124.745 770.53,-128.418 797.661,-131.627"/>
<polygon fill="black" stroke="black" points="797.503,-135.132 807.845,-132.831 798.325,-128.181 797.503,-135.132"/>
</g>
<!-- Data_Type_Command_Line_Interface -->
<g id="node6" class="node"><title>Data_Type_Command_Line_Interface</title>
<polygon fill="#337ab7" stroke="#337ab7" points="771,-86 577,-86 577,-60 771,-60 771,-86"/>
<text text-anchor="middle" x="674" y="-70.55" font-family="Helvetica,sans-Serif" font-size="10.50" fill="white">Data_Type_Command_Line_Interface</text>
</g>
<!-- Data_Type_Command_Line_Interface&#45;&gt;program~integrate_euler_1d -->
<g id="edge44" class="edge"><title>Data_Type_Command_Line_Interface&#45;&gt;program~integrate_euler_1d</title>
<path fill="none" stroke="black" stroke-dasharray="5,2" d="M742.091,-86.0328C752.232,-88.6205 762.473,-91.6059 772,-95 791.369,-101.9 811.98,-112.04 828.382,-120.847"/>
<polygon fill="black" stroke="black" points="827.059,-124.113 837.512,-125.843 830.42,-117.972 827.059,-124.113"/>
</g>
<!-- module~foodie_integrator_low_storage_runge_kutta&#45;&gt;module~foodie -->
<g id="edge20" class="edge"><title>module~foodie_integrator_low_storage_runge_kutta&#45;&gt;module~foodie</title>
<path fill="none" stroke="black" stroke-dasharray="5,2" d="M395.214,-207.915C421.572,-201.668 452.41,-194.359 475.919,-188.788"/>
<polygon fill="black" stroke="black" points="476.913,-192.149 485.836,-186.438 475.299,-185.338 476.913,-192.149"/>
</g>
<!-- module~foodie_integrator_tvd_runge_kutta&#45;&gt;module~foodie -->
<g id="edge22" class="edge"><title>module~foodie_integrator_tvd_runge_kutta&#45;&gt;module~foodie</title>
<path fill="none" stroke="black" stroke-dasharray="5,2" d="M395.214,-152.085C421.572,-158.332 452.41,-165.641 475.919,-171.212"/>
<polygon fill="black" stroke="black" points="475.299,-174.662 485.836,-173.562 476.913,-167.851 475.299,-174.662"/>
</g>
<!-- module~type_integrand&#45;&gt;module~foodie -->
<g id="edge24" class="edge"><title>module~type_integrand&#45;&gt;module~foodie</title>
<path fill="none" stroke="black" stroke-dasharray="5,2" d="M194.118,-180C265.266,-180 408.104,-180 475.792,-180"/>
<polygon fill="black" stroke="black" points="475.987,-183.5 485.987,-180 475.987,-176.5 475.987,-183.5"/>
</g>
<!-- module~type_integrand&#45;&gt;module~foodie_integrator_low_storage_runge_kutta -->
<g id="edge4" class="edge"><title>module~type_integrand&#45;&gt;module~foodie_integrator_low_storage_runge_kutta</title>
<path fill="none" stroke="black" stroke-dasharray="5,2" d="M194.191,-189.201C216.555,-194.078 244.609,-200.197 270.12,-205.76"/>
<polygon fill="black" stroke="black" points="269.61,-209.231 280.126,-207.942 271.101,-202.392 269.61,-209.231"/>
</g>
<!-- module~type_integrand&#45;&gt;module~foodie_integrator_tvd_runge_kutta -->
<g id="edge8" class="edge"><title>module~type_integrand&#45;&gt;module~foodie_integrator_tvd_runge_kutta</title>
<path fill="none" stroke="black" stroke-dasharray="5,2" d="M194.191,-170.799C216.555,-165.922 244.609,-159.803 270.12,-154.24"/>
<polygon fill="black" stroke="black" points="271.101,-157.608 280.126,-152.058 269.61,-150.769 271.101,-157.608"/>
</g>
<!-- module~type_integrand&#45;&gt;module~foodie_integrator_euler_explicit -->
<g id="edge14" class="edge"><title>module~type_integrand&#45;&gt;module~foodie_integrator_euler_explicit</title>
<path fill="none" stroke="black" stroke-dasharray="5,2" d="M164.184,-166.925C178.506,-152.39 203.679,-129.34 230,-117 236.102,-114.139 242.563,-111.65 249.176,-109.484"/>
<polygon fill="black" stroke="black" points="250.386,-112.775 258.949,-106.536 248.364,-106.073 250.386,-112.775"/>
</g>
<!-- module~type_integrand&#45;&gt;module~foodie_integrator_adams_bashforth -->
<g id="edge18" class="edge"><title>module~type_integrand&#45;&gt;module~foodie_integrator_adams_bashforth</title>
<path fill="none" stroke="black" stroke-dasharray="5,2" d="M164.184,-193.075C178.506,-207.61 203.679,-230.66 230,-243 234.567,-245.141 239.335,-247.074 244.218,-248.819"/>
<polygon fill="black" stroke="black" points="243.133,-252.147 253.726,-251.949 245.322,-245.498 243.133,-252.147"/>
</g>
<!-- module~foodie_integrator_euler_explicit&#45;&gt;module~foodie -->
<g id="edge26" class="edge"><title>module~foodie_integrator_euler_explicit&#45;&gt;module~foodie</title>
<path fill="none" stroke="black" stroke-dasharray="5,2" d="M421.218,-105.542C431.231,-108.476 441.071,-112.221 450,-117 468.861,-127.094 485.729,-144.668 497.254,-158.694"/>
<polygon fill="black" stroke="black" points="494.765,-161.191 503.709,-166.871 500.26,-156.853 494.765,-161.191"/>
</g>
<!-- module~foodie_integrator_adams_bashforth&#45;&gt;module~foodie -->
<g id="edge28" class="edge"><title>module~foodie_integrator_adams_bashforth&#45;&gt;module~foodie</title>
<path fill="none" stroke="black" stroke-dasharray="5,2" d="M429.253,-251.907C436.463,-249.432 443.475,-246.492 450,-243 468.861,-232.906 485.729,-215.332 497.254,-201.306"/>
<polygon fill="black" stroke="black" points="500.26,-203.147 503.709,-193.129 494.765,-198.809 500.26,-203.147"/>
</g>
<!-- wenoof -->
<g id="node26" class="node"><title>wenoof</title>
<polygon fill="#337ab7" stroke="#337ab7" points="540,-26 486,-26 486,-1.24345e-14 540,-3.55271e-15 540,-26"/>
<text text-anchor="middle" x="513" y="-10.55" font-family="Helvetica,sans-Serif" font-size="10.50" fill="white">wenoof</text>
</g>
<!-- wenoof&#45;&gt;module~type_euler_1d -->
<g id="edge32" class="edge"><title>wenoof&#45;&gt;module~type_euler_1d</title>
<path fill="none" stroke="black" stroke-dasharray="5,2" d="M527.309,-26.2182C531.584,-30.4491 536.153,-35.2673 540,-40 558.427,-62.6713 551.988,-78.3587 576,-95 589.52,-104.37 606.384,-109.822 622.29,-112.97"/>
<polygon fill="black" stroke="black" points="622.114,-116.491 632.561,-114.725 623.293,-109.591 622.114,-116.491"/>
</g>
</g>
</svg>
