<?xml version="1.0" encoding="UTF-8" standalone="no"?>
<!DOCTYPE svg PUBLIC "-//W3C//DTD SVG 1.1//EN"
 "http://www.w3.org/Graphics/SVG/1.1/DTD/svg11.dtd">
<!-- Generated by graphviz version 2.26.3 (20100126.1600)
 -->
<!-- Title: program~~integrate_euler_1d~~CallsGraph Pages: 1 -->
<svg width="476pt" height="212pt"
 viewBox="0.00 0.00 476.00 212.01" xmlns="http://www.w3.org/2000/svg" xmlns:xlink="http://www.w3.org/1999/xlink">
<g id="graph1" class="graph" transform="scale(1 1) rotate(0) translate(4 208.006)">
<title>program~~integrate_euler_1d~~CallsGraph</title>
<polygon fill="white" stroke="white" points="-4,5 -4,-208.006 473,-208.006 473,5 -4,5"/>
<!-- program~integrate_euler_1d -->
<g id="node1" class="node"><title>program~integrate_euler_1d</title>
<polygon fill="none" stroke="black" points="104,-116.346 3.55271e-14,-116.346 0,-90.3459 104,-90.3459 104,-116.346"/>
<text text-anchor="middle" x="52" y="-100.896" font-family="Helvetica,sans-Serif" font-size="10.50">integrate_euler_1D</text>
</g>
<!-- proc~test_euler~2 -->
<g id="node2" class="node"><title>proc~test_euler~2</title>
<a xlink:href="../proc/test_euler%7E2.html" xlink:title="test_euler">
<polygon fill="#d9534f" stroke="#d9534f" points="200,-182.346 140,-182.346 140,-156.346 200,-156.346 200,-182.346"/>
<text text-anchor="middle" x="170" y="-166.896" font-family="Helvetica,sans-Serif" font-size="10.50" fill="white">test_euler</text>
</a>
</g>
<!-- program~integrate_euler_1d&#45;&gt;proc~test_euler~2 -->
<g id="edge30" class="edge"><title>program~integrate_euler_1d&#45;&gt;proc~test_euler~2</title>
<path fill="none" stroke="black" d="M75.313,-116.385C93.1717,-126.374 118.018,-140.271 137.778,-151.323"/>
<polygon fill="black" stroke="black" points="136.299,-154.507 146.735,-156.334 139.716,-148.397 136.299,-154.507"/>
</g>
<!-- proc~test_ab~2 -->
<g id="node3" class="node"><title>proc~test_ab~2</title>
<a xlink:href="../proc/test_ab%7E2.html" xlink:title="test_ab">
<polygon fill="#d9534f" stroke="#d9534f" points="197,-94.3459 143,-94.3459 143,-68.3459 197,-68.3459 197,-94.3459"/>
<text text-anchor="middle" x="170" y="-78.8959" font-family="Helvetica,sans-Serif" font-size="10.50" fill="white">test_ab</text>
</a>
</g>
<!-- program~integrate_euler_1d&#45;&gt;proc~test_ab~2 -->
<g id="edge32" class="edge"><title>program~integrate_euler_1d&#45;&gt;proc~test_ab~2</title>
<path fill="none" stroke="black" d="M104.1,-93.6324C113.789,-91.8259 123.73,-89.9725 132.858,-88.2707"/>
<polygon fill="black" stroke="black" points="133.573,-91.6979 142.762,-86.4243 132.29,-84.8165 133.573,-91.6979"/>
</g>
<!-- proc~init~5 -->
<g id="node4" class="node"><title>proc~init~5</title>
<a xlink:href="../proc/init%7E5.html" xlink:title="init">
<polygon fill="#d9534f" stroke="#d9534f" points="197,-50.3459 143,-50.3459 143,-24.3459 197,-24.3459 197,-50.3459"/>
<text text-anchor="middle" x="170" y="-34.8959" font-family="Helvetica,sans-Serif" font-size="10.50" fill="white">init</text>
</a>
</g>
<!-- program~integrate_euler_1d&#45;&gt;proc~init~5 -->
<g id="edge34" class="edge"><title>program~integrate_euler_1d&#45;&gt;proc~init~5</title>
<path fill="none" stroke="black" d="M75.313,-90.3065C93.1717,-80.3177 118.018,-66.4206 137.778,-55.3685"/>
<polygon fill="black" stroke="black" points="139.716,-58.2946 146.735,-50.3583 136.299,-52.1852 139.716,-58.2946"/>
</g>
<!-- proc~test_rk~2 -->
<g id="node5" class="node"><title>proc~test_rk~2</title>
<a xlink:href="../proc/test_rk%7E2.html" xlink:title="test_rk">
<polygon fill="#d9534f" stroke="#d9534f" points="197,-138.346 143,-138.346 143,-112.346 197,-112.346 197,-138.346"/>
<text text-anchor="middle" x="170" y="-122.896" font-family="Helvetica,sans-Serif" font-size="10.50" fill="white">test_rk</text>
</a>
</g>
<!-- program~integrate_euler_1d&#45;&gt;proc~test_rk~2 -->
<g id="edge36" class="edge"><title>program~integrate_euler_1d&#45;&gt;proc~test_rk~2</title>
<path fill="none" stroke="black" d="M104.1,-113.059C113.789,-114.866 123.73,-116.719 132.858,-118.421"/>
<polygon fill="black" stroke="black" points="132.29,-121.875 142.762,-120.268 133.573,-114.994 132.29,-121.875"/>
</g>
<!-- proc~save_time_serie -->
<g id="node6" class="node"><title>proc~save_time_serie</title>
<a xlink:href="../proc/save_time_serie.html" xlink:title="save_time_serie">
<polygon fill="#d9534f" stroke="#d9534f" points="352,-182.346 262,-182.346 262,-156.346 352,-156.346 352,-182.346"/>
<text text-anchor="middle" x="307" y="-166.896" font-family="Helvetica,sans-Serif" font-size="10.50" fill="white">save_time_serie</text>
</a>
</g>
<!-- proc~test_euler~2&#45;&gt;proc~save_time_serie -->
<g id="edge6" class="edge"><title>proc~test_euler~2&#45;&gt;proc~save_time_serie</title>
<path fill="none" stroke="black" d="M200.065,-169.346C215.078,-169.346 233.731,-169.346 251.235,-169.346"/>
<polygon fill="black" stroke="black" points="251.372,-172.846 261.372,-169.346 251.372,-165.846 251.372,-172.846"/>
</g>
<!-- str -->
<g id="node7" class="node"><title>str</title>
<polygon fill="#777777" stroke="#777777" points="468,-138.346 414,-138.346 414,-112.346 468,-112.346 468,-138.346"/>
<text text-anchor="middle" x="441" y="-122.896" font-family="Helvetica,sans-Serif" font-size="10.50" fill="white">str</text>
</g>
<!-- proc~test_euler~2&#45;&gt;str -->
<g id="edge8" class="edge"><title>proc~test_euler~2&#45;&gt;str</title>
<path fill="none" stroke="black" d="M200.317,-181.562C242.097,-196.435 318.909,-216.631 378,-191.346 398.939,-182.386 416.231,-162.671 427.367,-147.109"/>
<polygon fill="black" stroke="black" points="430.465,-148.776 433.193,-138.538 424.676,-144.841 430.465,-148.776"/>
</g>
<!-- proc~save_results~2 -->
<g id="node8" class="node"><title>proc~save_results~2</title>
<a xlink:href="../proc/save_results%7E2.html" xlink:title="save_results">
<polygon fill="#d9534f" stroke="#d9534f" points="343,-138.346 271,-138.346 271,-112.346 343,-112.346 343,-138.346"/>
<text text-anchor="middle" x="307" y="-122.896" font-family="Helvetica,sans-Serif" font-size="10.50" fill="white">save_results</text>
</a>
</g>
<!-- proc~test_euler~2&#45;&gt;proc~save_results~2 -->
<g id="edge10" class="edge"><title>proc~test_euler~2&#45;&gt;proc~save_results~2</title>
<path fill="none" stroke="black" d="M200.184,-159.135C211.412,-155.376 224.272,-151.117 236,-147.346 244.035,-144.762 252.599,-142.063 260.897,-139.475"/>
<polygon fill="black" stroke="black" points="261.957,-142.811 270.469,-136.503 259.88,-136.126 261.957,-142.811"/>
</g>
<!-- proc~test_ab~2&#45;&gt;proc~save_time_serie -->
<g id="edge14" class="edge"><title>proc~test_ab~2&#45;&gt;proc~save_time_serie</title>
<path fill="none" stroke="black" d="M189.302,-94.3838C192.99,-97.1802 196.72,-100.235 200,-103.346 218.333,-120.733 215.044,-133.23 236,-147.346 240.868,-150.625 246.248,-153.433 251.803,-155.835"/>
<polygon fill="black" stroke="black" points="250.671,-159.15 261.26,-159.503 253.203,-152.623 250.671,-159.15"/>
</g>
<!-- proc~test_ab~2&#45;&gt;str -->
<g id="edge18" class="edge"><title>proc~test_ab~2&#45;&gt;str</title>
<path fill="none" stroke="black" d="M189.127,-68.1161C192.829,-65.3356 196.609,-62.3359 200,-59.3459 217.451,-43.9606 214.629,-30.5384 236,-21.3459 293.975,3.59115 323.015,9.63257 378,-21.3459 393.971,-30.3439 417.267,-74.9977 430.599,-102.788"/>
<polygon fill="black" stroke="black" points="427.593,-104.618 435.028,-112.166 433.922,-101.629 427.593,-104.618"/>
</g>
<!-- proc~test_ab~2&#45;&gt;proc~save_results~2 -->
<g id="edge16" class="edge"><title>proc~test_ab~2&#45;&gt;proc~save_results~2</title>
<path fill="none" stroke="black" d="M197.067,-90.0389C215.176,-95.8549 239.473,-103.658 260.619,-110.45"/>
<polygon fill="black" stroke="black" points="259.801,-113.863 270.392,-113.589 261.941,-107.198 259.801,-113.863"/>
</g>
<!-- interface~tvd_runge_kutta_integrator -->
<g id="node14" class="node"><title>interface~tvd_runge_kutta_integrator</title>
<a xlink:href="../interface/tvd_runge_kutta_integrator.html" xlink:title="tvd_runge_kutta_integrator">
<polygon fill="#a7506f" stroke="#a7506f" points="378,-56.3459 236,-56.3459 236,-30.3459 378,-30.3459 378,-56.3459"/>
<text text-anchor="middle" x="307" y="-40.8959" font-family="Helvetica,sans-Serif" font-size="10.50" fill="white">tvd_runge_kutta_integrator</text>
</a>
</g>
<!-- proc~test_ab~2&#45;&gt;interface~tvd_runge_kutta_integrator -->
<g id="edge20" class="edge"><title>proc~test_ab~2&#45;&gt;interface~tvd_runge_kutta_integrator</title>
<path fill="none" stroke="black" d="M197.067,-73.8384C212.27,-69.6214 231.835,-64.1947 250.235,-59.091"/>
<polygon fill="black" stroke="black" points="251.31,-62.4249 260.011,-56.3794 249.439,-55.6796 251.31,-62.4249"/>
</g>
<!-- proc~test_rk~2&#45;&gt;proc~save_time_serie -->
<g id="edge22" class="edge"><title>proc~test_rk~2&#45;&gt;proc~save_time_serie</title>
<path fill="none" stroke="black" d="M197.252,-134.575C209.134,-138.561 223.237,-143.242 236,-147.346 241.966,-149.264 248.223,-151.247 254.447,-153.199"/>
<polygon fill="black" stroke="black" points="253.564,-156.59 264.152,-156.23 255.651,-149.908 253.564,-156.59"/>
</g>
<!-- proc~test_rk~2&#45;&gt;str -->
<g id="edge26" class="edge"><title>proc~test_rk~2&#45;&gt;str</title>
<path fill="none" stroke="black" d="M197.118,-114.118C208.856,-109.835 222.886,-105.474 236,-103.346 298.296,-93.2367 315.777,-92.7941 378,-103.346 386.702,-104.822 395.805,-107.368 404.298,-110.216"/>
<polygon fill="black" stroke="black" points="403.335,-113.588 413.929,-113.653 405.687,-106.995 403.335,-113.588"/>
</g>
<!-- proc~test_rk~2&#45;&gt;proc~save_results~2 -->
<g id="edge24" class="edge"><title>proc~test_rk~2&#45;&gt;proc~save_results~2</title>
<path fill="none" stroke="black" d="M197.067,-125.346C215.094,-125.346 239.253,-125.346 260.332,-125.346"/>
<polygon fill="black" stroke="black" points="260.392,-128.846 270.392,-125.346 260.392,-121.846 260.392,-128.846"/>
</g>
<!-- proc~test_rk~2&#45;&gt;interface~tvd_runge_kutta_integrator -->
<g id="edge28" class="edge"><title>proc~test_rk~2&#45;&gt;interface~tvd_runge_kutta_integrator</title>
<path fill="none" stroke="black" d="M188.645,-112.161C192.46,-109.328 196.406,-106.296 200,-103.346 216.777,-89.5743 217.526,-81.7403 236,-70.3459 242.096,-66.5859 248.801,-63.206 255.583,-60.2142"/>
<polygon fill="black" stroke="black" points="256.934,-63.4429 264.828,-56.3758 254.25,-56.978 256.934,-63.4429"/>
</g>
<!-- proc~save_time_serie&#45;&gt;str -->
<g id="edge2" class="edge"><title>proc~save_time_serie&#45;&gt;str</title>
<path fill="none" stroke="black" d="M349.879,-156.328C359.171,-153.432 368.93,-150.334 378,-147.346 386.554,-144.528 395.723,-141.393 404.344,-138.393"/>
<polygon fill="black" stroke="black" points="405.502,-141.696 413.783,-135.087 403.188,-135.089 405.502,-141.696"/>
</g>
<!-- proc~save_results~2&#45;&gt;str -->
<g id="edge4" class="edge"><title>proc~save_results~2&#45;&gt;str</title>
<path fill="none" stroke="black" d="M343.616,-125.346C362.229,-125.346 384.811,-125.346 403.541,-125.346"/>
<polygon fill="black" stroke="black" points="403.782,-128.846 413.782,-125.346 403.782,-121.846 403.782,-128.846"/>
</g>
<!-- proc~create -->
<g id="node15" class="node"><title>proc~create</title>
<a xlink:href="../proc/create.html" xlink:title="create">
<polygon fill="#d94e8f" stroke="#d94e8f" points="468,-56.3459 414,-56.3459 414,-30.3459 468,-30.3459 468,-56.3459"/>
<text text-anchor="middle" x="441" y="-40.8959" font-family="Helvetica,sans-Serif" font-size="10.50" fill="white">create</text>
</a>
</g>
<!-- interface~tvd_runge_kutta_integrator&#45;&gt;proc~create -->
<g id="edge12" class="edge"><title>interface~tvd_runge_kutta_integrator&#45;&gt;proc~create</title>
<path fill="none" stroke="black" stroke-dasharray="5,2" d="M378.316,-43.3459C387.094,-43.3459 395.774,-43.3459 403.748,-43.3459"/>
<polygon fill="black" stroke="black" points="403.773,-46.846 413.773,-43.3459 403.773,-39.846 403.773,-46.846"/>
</g>
</g>
</svg>
