<?xml version="1.0" encoding="UTF-8" standalone="no"?>
<!DOCTYPE svg PUBLIC "-//W3C//DTD SVG 1.1//EN"
 "http://www.w3.org/Graphics/SVG/1.1/DTD/svg11.dtd">
<!-- Generated by graphviz version 2.26.3 (20100126.1600)
 -->
<!-- Title: program~~integrate_oscillation~~UsesGraph Pages: 1 -->
<svg width="641pt" height="288pt"
 viewBox="0.00 0.00 641.00 287.90" xmlns="http://www.w3.org/2000/svg" xmlns:xlink="http://www.w3.org/1999/xlink">
<g id="graph1" class="graph" transform="scale(0.693723 0.693723) rotate(0) translate(4 411)">
<title>program~~integrate_oscillation~~UsesGraph</title>
<polygon fill="white" stroke="white" points="-4,5 -4,-411 921,-411 921,5 -4,5"/>
<!-- program~integrate_oscillation -->
<g id="node1" class="node"><title>program~integrate_oscillation</title>
<polygon fill="none" stroke="black" points="915,-108 809,-108 809,-82 915,-82 915,-108"/>
<text text-anchor="middle" x="862" y="-92.55" font-family="Helvetica,sans-Serif" font-size="10.50">integrate_oscillation</text>
</g>
<!-- module~foodie -->
<g id="node2" class="node"><title>module~foodie</title>
<a xlink:href="../module/foodie.html" xlink:title="foodie">
<polygon fill="#337ab7" stroke="#337ab7" points="540,-257 486,-257 486,-231 540,-231 540,-257"/>
<text text-anchor="middle" x="513" y="-241.55" font-family="Helvetica,sans-Serif" font-size="10.50" fill="white">foodie</text>
</a>
</g>
<!-- module~foodie&#45;&gt;program~integrate_oscillation -->
<g id="edge40" class="edge"><title>module~foodie&#45;&gt;program~integrate_oscillation</title>
<path fill="none" stroke="black" stroke-dasharray="5,2" d="M540.213,-238.334C588.666,-227.592 692.283,-201.638 772,-161 796.774,-148.371 822.057,-129.159 839.491,-114.714"/>
<polygon fill="black" stroke="black" points="841.997,-117.18 847.383,-108.056 837.483,-111.829 841.997,-117.18"/>
</g>
<!-- module~type_oscillation -->
<g id="node3" class="node"><title>module~type_oscillation</title>
<a xlink:href="../module/type_oscillation.html" xlink:title="type_oscillation">
<polygon fill="#337ab7" stroke="#337ab7" points="716,-152 632,-152 632,-126 716,-126 716,-152"/>
<text text-anchor="middle" x="674" y="-136.55" font-family="Helvetica,sans-Serif" font-size="10.50" fill="white">type_oscillation</text>
</a>
</g>
<!-- module~foodie&#45;&gt;module~type_oscillation -->
<g id="edge38" class="edge"><title>module~foodie&#45;&gt;module~type_oscillation</title>
<path fill="none" stroke="black" stroke-dasharray="5,2" d="M533.065,-230.914C561.343,-212.472 613.067,-178.739 645.374,-157.669"/>
<polygon fill="black" stroke="black" points="647.471,-160.48 653.935,-152.086 643.647,-154.617 647.471,-160.48"/>
</g>
<!-- module~type_oscillation&#45;&gt;program~integrate_oscillation -->
<g id="edge42" class="edge"><title>module~type_oscillation&#45;&gt;program~integrate_oscillation</title>
<path fill="none" stroke="black" stroke-dasharray="5,2" d="M716.973,-129.537C734.109,-125.716 754.004,-121.219 772,-117 780.855,-114.924 790.19,-112.692 799.36,-110.473"/>
<polygon fill="black" stroke="black" points="800.324,-113.841 809.215,-108.08 798.672,-107.039 800.324,-113.841"/>
</g>
<!-- pyplot_module -->
<g id="node4" class="node"><title>pyplot_module</title>
<polygon fill="#337ab7" stroke="#337ab7" points="715,-108 633,-108 633,-82 715,-82 715,-108"/>
<text text-anchor="middle" x="674" y="-92.55" font-family="Helvetica,sans-Serif" font-size="10.50" fill="white">pyplot_module</text>
</g>
<!-- pyplot_module&#45;&gt;program~integrate_oscillation -->
<g id="edge44" class="edge"><title>pyplot_module&#45;&gt;program~integrate_oscillation</title>
<path fill="none" stroke="black" stroke-dasharray="5,2" d="M715.257,-95C739.506,-95 770.677,-95 798.05,-95"/>
<polygon fill="black" stroke="black" points="798.332,-98.5001 808.332,-95 798.332,-91.5001 798.332,-98.5001"/>
</g>
<!-- IR_Precision -->
<g id="node5" class="node"><title>IR_Precision</title>
<polygon fill="#337ab7" stroke="#337ab7" points="73,-298 1,-298 1,-272 73,-272 73,-298"/>
<text text-anchor="middle" x="37" y="-282.55" font-family="Helvetica,sans-Serif" font-size="10.50" fill="white">IR_Precision</text>
</g>
<!-- IR_Precision&#45;&gt;program~integrate_oscillation -->
<g id="edge46" class="edge"><title>IR_Precision&#45;&gt;program~integrate_oscillation</title>
<path fill="none" stroke="black" stroke-dasharray="5,2" d="M46.156,-271.716C63.5116,-247.866 103.807,-198.544 152,-180"/>
<path fill="none" stroke="black" stroke-dasharray="5,2" d="M152,-180C302.704,-122.01 352.867,-159.78 513,-139"/>
<path fill="none" stroke="black" stroke-dasharray="5,2" d="M513,-139C553.029,-132.508 538.718,-88.953 576,-73 655.203,-39.1091 757.962,-61.0678 816.273,-78.8713"/>
<polygon fill="black" stroke="black" points="815.345,-82.2482 825.934,-81.9078 817.444,-75.5703 815.345,-82.2482"/>
</g>
<!-- IR_Precision&#45;&gt;module~type_oscillation -->
<g id="edge36" class="edge"><title>IR_Precision&#45;&gt;module~type_oscillation</title>
<path fill="none" stroke="black" stroke-dasharray="5,2" d="M513,-139C548.861,-134.346 589.596,-134.396 621.118,-135.584"/>
<polygon fill="black" stroke="black" points="621.295,-139.095 631.435,-136.026 621.594,-132.101 621.295,-139.095"/>
</g>
<!-- module~foodie_integrator_low_storage_runge_kutta -->
<g id="node7" class="node"><title>module~foodie_integrator_low_storage_runge_kutta</title>
<a xlink:href="../module/foodie_integrator_low_storage_runge_kutta.html" xlink:title="foodie_integrator_low_storage_runge_kutta">
<polygon fill="#337ab7" stroke="#337ab7" points="450,-363 230,-363 230,-337 450,-337 450,-363"/>
<text text-anchor="middle" x="340" y="-347.55" font-family="Helvetica,sans-Serif" font-size="10.50" fill="white">foodie_integrator_low_storage_runge_kutta</text>
</a>
</g>
<!-- IR_Precision&#45;&gt;module~foodie_integrator_low_storage_runge_kutta -->
<g id="edge4" class="edge"><title>IR_Precision&#45;&gt;module~foodie_integrator_low_storage_runge_kutta</title>
<path fill="none" stroke="black" stroke-dasharray="5,2" d="M152,-350C173.584,-355.678 197.052,-358.322 219.856,-359.149"/>
<polygon fill="black" stroke="black" points="219.843,-362.65 229.928,-359.401 220.018,-355.652 219.843,-362.65"/>
</g>
<!-- module~foodie_integrator_tvd_runge_kutta -->
<g id="node8" class="node"><title>module~foodie_integrator_tvd_runge_kutta</title>
<a xlink:href="../module/foodie_integrator_tvd_runge_kutta.html" xlink:title="foodie_integrator_tvd_runge_kutta">
<polygon fill="#337ab7" stroke="#337ab7" points="428,-319 252,-319 252,-293 428,-293 428,-319"/>
<text text-anchor="middle" x="340" y="-303.55" font-family="Helvetica,sans-Serif" font-size="10.50" fill="white">foodie_integrator_tvd_runge_kutta</text>
</a>
</g>
<!-- IR_Precision&#45;&gt;module~foodie_integrator_tvd_runge_kutta -->
<g id="edge8" class="edge"><title>IR_Precision&#45;&gt;module~foodie_integrator_tvd_runge_kutta</title>
<path fill="none" stroke="black" stroke-dasharray="5,2" d="M53.6975,-298.161C75.0524,-314.072 113.852,-339.965 152,-350"/>
<path fill="none" stroke="black" stroke-dasharray="5,2" d="M152,-350C186.834,-359.163 194.981,-336.427 230,-328 239.901,-325.617 250.346,-323.29 260.701,-321.095"/>
<polygon fill="black" stroke="black" points="261.506,-324.503 270.58,-319.034 260.076,-317.651 261.506,-324.503"/>
</g>
<!-- module~type_integrand -->
<g id="node9" class="node"><title>module~type_integrand</title>
<a xlink:href="../module/type_integrand.html" xlink:title="type_integrand">
<polygon fill="#337ab7" stroke="#337ab7" points="194,-298 110,-298 110,-272 194,-272 194,-298"/>
<text text-anchor="middle" x="152" y="-282.55" font-family="Helvetica,sans-Serif" font-size="10.50" fill="white">type_integrand</text>
</a>
</g>
<!-- IR_Precision&#45;&gt;module~type_integrand -->
<g id="edge10" class="edge"><title>IR_Precision&#45;&gt;module~type_integrand</title>
<path fill="none" stroke="black" stroke-dasharray="5,2" d="M73.7029,-285C81.9237,-285 90.8,-285 99.521,-285"/>
<polygon fill="black" stroke="black" points="99.6389,-288.5 109.639,-285 99.6388,-281.5 99.6389,-288.5"/>
</g>
<!-- module~foodie_integrator_adams_bashforth -->
<g id="node10" class="node"><title>module~foodie_integrator_adams_bashforth</title>
<a xlink:href="../module/foodie_integrator_adams_bashforth.html" xlink:title="foodie_integrator_adams_bashforth">
<polygon fill="#337ab7" stroke="#337ab7" points="431,-237 249,-237 249,-211 431,-211 431,-237"/>
<text text-anchor="middle" x="340" y="-221.55" font-family="Helvetica,sans-Serif" font-size="10.50" fill="white">foodie_integrator_adams_bashforth</text>
</a>
</g>
<!-- IR_Precision&#45;&gt;module~foodie_integrator_adams_bashforth -->
<g id="edge14" class="edge"><title>IR_Precision&#45;&gt;module~foodie_integrator_adams_bashforth</title>
<path fill="none" stroke="black" stroke-dasharray="5,2" d="M152,-180C185.616,-167.065 194.981,-193.573 230,-202 239.901,-204.383 250.346,-206.71 260.701,-208.905"/>
<polygon fill="black" stroke="black" points="260.076,-212.349 270.58,-210.966 261.506,-205.497 260.076,-212.349"/>
</g>
<!-- module~foodie_integrator_euler_explicit -->
<g id="node11" class="node"><title>module~foodie_integrator_euler_explicit</title>
<a xlink:href="../module/foodie_integrator_euler_explicit.html" xlink:title="foodie_integrator_euler_explicit">
<polygon fill="#337ab7" stroke="#337ab7" points="421,-193 259,-193 259,-167 421,-167 421,-193"/>
<text text-anchor="middle" x="340" y="-177.55" font-family="Helvetica,sans-Serif" font-size="10.50" fill="white">foodie_integrator_euler_explicit</text>
</a>
</g>
<!-- IR_Precision&#45;&gt;module~foodie_integrator_euler_explicit -->
<g id="edge18" class="edge"><title>IR_Precision&#45;&gt;module~foodie_integrator_euler_explicit</title>
<path fill="none" stroke="black" stroke-dasharray="5,2" d="M152,-180C182.235,-168.366 217.287,-165.753 248.875,-166.916"/>
<polygon fill="black" stroke="black" points="248.837,-170.418 258.998,-167.419 249.185,-163.427 248.837,-170.418"/>
</g>
<!-- module~foodie_integrator_leapfrog -->
<g id="node12" class="node"><title>module~foodie_integrator_leapfrog</title>
<a xlink:href="../module/foodie_integrator_leapfrog.html" xlink:title="foodie_integrator_leapfrog">
<polygon fill="#337ab7" stroke="#337ab7" points="409,-407 271,-407 271,-381 409,-381 409,-407"/>
<text text-anchor="middle" x="340" y="-391.55" font-family="Helvetica,sans-Serif" font-size="10.50" fill="white">foodie_integrator_leapfrog</text>
</a>
</g>
<!-- IR_Precision&#45;&gt;module~foodie_integrator_leapfrog -->
<g id="edge22" class="edge"><title>IR_Precision&#45;&gt;module~foodie_integrator_leapfrog</title>
<path fill="none" stroke="black" stroke-dasharray="5,2" d="M152,-350C186.834,-359.163 194.981,-363.573 230,-372 239.901,-374.383 250.346,-376.71 260.701,-378.905"/>
<polygon fill="black" stroke="black" points="260.076,-382.349 270.58,-380.966 261.506,-375.497 260.076,-382.349"/>
</g>
<!-- Data_Type_Command_Line_Interface -->
<g id="node6" class="node"><title>Data_Type_Command_Line_Interface</title>
<polygon fill="#337ab7" stroke="#337ab7" points="771,-26 577,-26 577,-1.24345e-14 771,-3.55271e-15 771,-26"/>
<text text-anchor="middle" x="674" y="-10.55" font-family="Helvetica,sans-Serif" font-size="10.50" fill="white">Data_Type_Command_Line_Interface</text>
</g>
<!-- Data_Type_Command_Line_Interface&#45;&gt;program~integrate_oscillation -->
<g id="edge48" class="edge"><title>Data_Type_Command_Line_Interface&#45;&gt;program~integrate_oscillation</title>
<path fill="none" stroke="black" stroke-dasharray="5,2" d="M731.672,-26.0003C745.156,-29.8266 759.287,-34.4944 772,-40 794.466,-49.7294 818.013,-64.2973 835.384,-75.9963"/>
<polygon fill="black" stroke="black" points="833.64,-79.0442 843.867,-81.8118 837.599,-73.2706 833.64,-79.0442"/>
</g>
<!-- module~foodie_integrator_low_storage_runge_kutta&#45;&gt;module~foodie -->
<g id="edge24" class="edge"><title>module~foodie_integrator_low_storage_runge_kutta&#45;&gt;module~foodie</title>
<path fill="none" stroke="black" stroke-dasharray="5,2" d="M432.333,-336.915C438.522,-334.423 444.48,-331.479 450,-328 473.747,-313.034 491.72,-285.68 502.274,-266.257"/>
<polygon fill="black" stroke="black" points="505.48,-267.677 506.979,-257.189 499.266,-264.453 505.48,-267.677"/>
</g>
<!-- module~foodie_integrator_tvd_runge_kutta&#45;&gt;module~foodie -->
<g id="edge26" class="edge"><title>module~foodie_integrator_tvd_runge_kutta&#45;&gt;module~foodie</title>
<path fill="none" stroke="black" stroke-dasharray="5,2" d="M405.458,-292.97C420.337,-289.176 435.905,-284.53 450,-279 461.531,-274.476 473.565,-268.216 483.989,-262.241"/>
<polygon fill="black" stroke="black" points="485.847,-265.208 492.682,-257.113 482.29,-259.179 485.847,-265.208"/>
</g>
<!-- module~type_integrand&#45;&gt;module~foodie -->
<g id="edge28" class="edge"><title>module~type_integrand&#45;&gt;module~foodie</title>
<path fill="none" stroke="black" stroke-dasharray="5,2" d="M194.118,-280.217C265.266,-272.136 408.104,-255.913 475.792,-248.226"/>
<polygon fill="black" stroke="black" points="476.446,-251.674 485.987,-247.068 475.656,-244.719 476.446,-251.674"/>
</g>
<!-- module~type_integrand&#45;&gt;module~foodie_integrator_low_storage_runge_kutta -->
<g id="edge2" class="edge"><title>module~type_integrand&#45;&gt;module~foodie_integrator_low_storage_runge_kutta</title>
<path fill="none" stroke="black" stroke-dasharray="5,2" d="M171.717,-298.098C187.022,-307.702 209.088,-320.352 230,-328 236.39,-330.337 243.085,-332.446 249.882,-334.345"/>
<polygon fill="black" stroke="black" points="249.329,-337.819 259.891,-336.981 251.112,-331.05 249.329,-337.819"/>
</g>
<!-- module~type_integrand&#45;&gt;module~foodie_integrator_tvd_runge_kutta -->
<g id="edge6" class="edge"><title>module~type_integrand&#45;&gt;module~foodie_integrator_tvd_runge_kutta</title>
<path fill="none" stroke="black" stroke-dasharray="5,2" d="M194.191,-289.713C208.266,-291.285 224.595,-293.109 241.126,-294.956"/>
<polygon fill="black" stroke="black" points="241.1,-298.474 251.427,-296.106 241.877,-291.518 241.1,-298.474"/>
</g>
<!-- module~type_integrand&#45;&gt;module~foodie_integrator_adams_bashforth -->
<g id="edge12" class="edge"><title>module~type_integrand&#45;&gt;module~foodie_integrator_adams_bashforth</title>
<path fill="none" stroke="black" stroke-dasharray="5,2" d="M178.986,-271.881C193.804,-265.025 212.646,-256.864 230,-251 242.47,-246.786 255.939,-242.93 269.033,-239.532"/>
<polygon fill="black" stroke="black" points="270.112,-242.87 278.95,-237.025 268.397,-236.083 270.112,-242.87"/>
</g>
<!-- module~type_integrand&#45;&gt;module~foodie_integrator_euler_explicit -->
<g id="edge16" class="edge"><title>module~type_integrand&#45;&gt;module~foodie_integrator_euler_explicit</title>
<path fill="none" stroke="black" stroke-dasharray="5,2" d="M160.314,-271.967C172.962,-253.294 198.883,-219.28 230,-202 236.006,-198.665 242.445,-195.831 249.084,-193.424"/>
<polygon fill="black" stroke="black" points="250.517,-196.637 258.927,-190.194 248.334,-189.987 250.517,-196.637"/>
</g>
<!-- module~type_integrand&#45;&gt;module~foodie_integrator_leapfrog -->
<g id="edge20" class="edge"><title>module~type_integrand&#45;&gt;module~foodie_integrator_leapfrog</title>
<path fill="none" stroke="black" stroke-dasharray="5,2" d="M162.905,-298.049C182.309,-321.133 221.587,-367.198 230,-372 239.389,-377.359 249.878,-381.428 260.548,-384.515"/>
<polygon fill="black" stroke="black" points="259.812,-387.94 270.372,-387.082 261.582,-381.168 259.812,-387.94"/>
</g>
<!-- module~foodie_integrator_adams_bashforth&#45;&gt;module~foodie -->
<g id="edge30" class="edge"><title>module~foodie_integrator_adams_bashforth&#45;&gt;module~foodie</title>
<path fill="none" stroke="black" stroke-dasharray="5,2" d="M431.566,-234.586C447.17,-236.39 462.554,-238.168 475.677,-239.685"/>
<polygon fill="black" stroke="black" points="475.341,-243.17 485.677,-240.841 476.145,-236.216 475.341,-243.17"/>
</g>
<!-- module~foodie_integrator_euler_explicit&#45;&gt;module~foodie -->
<g id="edge32" class="edge"><title>module~foodie_integrator_euler_explicit&#45;&gt;module~foodie</title>
<path fill="none" stroke="black" stroke-dasharray="5,2" d="M421.282,-192.494C431.132,-195.101 440.914,-198.236 450,-202 463.839,-207.732 477.841,-216.683 489.118,-224.852"/>
<polygon fill="black" stroke="black" points="487.061,-227.684 497.163,-230.879 491.259,-222.082 487.061,-227.684"/>
</g>
<!-- module~foodie_integrator_leapfrog&#45;&gt;module~foodie -->
<g id="edge34" class="edge"><title>module~foodie_integrator_leapfrog&#45;&gt;module~foodie</title>
<path fill="none" stroke="black" stroke-dasharray="5,2" d="M409.555,-389.978C423.994,-386.551 438.343,-380.962 450,-372 484.102,-345.783 500.929,-296.228 508.225,-267.065"/>
<polygon fill="black" stroke="black" points="511.634,-267.859 510.496,-257.325 504.816,-266.269 511.634,-267.859"/>
</g>
</g>
</svg>
