<?xml version="1.0" encoding="UTF-8" standalone="no"?>
<!DOCTYPE svg PUBLIC "-//W3C//DTD SVG 1.1//EN"
 "http://www.w3.org/Graphics/SVG/1.1/DTD/svg11.dtd">
<!-- Generated by graphviz version 2.26.3 (20100126.1600)
 -->
<!-- Title: program~~integrate_euler_1d~~UsesGraph Pages: 1 -->
<svg width="641pt" height="255pt"
 viewBox="0.00 0.00 641.00 254.92" xmlns="http://www.w3.org/2000/svg" xmlns:xlink="http://www.w3.org/1999/xlink">
<g id="graph1" class="graph" transform="scale(0.696739 0.696739) rotate(0) translate(4 361.876)">
<title>program~~integrate_euler_1d~~UsesGraph</title>
<polygon fill="white" stroke="white" points="-4,5 -4,-361.876 917,-361.876 917,5 -4,5"/>
<!-- program~integrate_euler_1d -->
<g id="node1" class="node"><title>program~integrate_euler_1d</title>
<polygon fill="none" stroke="black" points="912,-193 808,-193 808,-167 912,-167 912,-193"/>
<text text-anchor="middle" x="860" y="-177.55" font-family="Helvetica,sans-Serif" font-size="10.50">integrate_euler_1D</text>
</g>
<!-- IR_Precision -->
<g id="node2" class="node"><title>IR_Precision</title>
<polygon fill="#337ab7" stroke="#337ab7" points="73,-213 1,-213 1,-187 73,-187 73,-213"/>
<text text-anchor="middle" x="37" y="-197.55" font-family="Helvetica,sans-Serif" font-size="10.50" fill="white">IR_Precision</text>
</g>
<!-- IR_Precision&#45;&gt;program~integrate_euler_1d -->
<g id="edge42" class="edge"><title>IR_Precision&#45;&gt;program~integrate_euler_1d</title>
<path fill="none" stroke="black" stroke-dasharray="5,2" d="M152,-309C415.124,-395.933 521.762,-362.048 772,-243 796.059,-231.554 820.464,-213.46 837.45,-199.593"/>
<polygon fill="black" stroke="black" points="839.715,-202.262 845.159,-193.173 835.235,-196.883 839.715,-202.262"/>
</g>
<!-- module~type_euler_1d -->
<g id="node6" class="node"><title>module~type_euler_1d</title>
<a xlink:href="../module/type_euler_1d.html" xlink:title="type_euler_1D">
<polygon fill="#337ab7" stroke="#337ab7" points="715,-88 633,-88 633,-62 715,-62 715,-88"/>
<text text-anchor="middle" x="674" y="-72.55" font-family="Helvetica,sans-Serif" font-size="10.50" fill="white">type_euler_1D</text>
</a>
</g>
<!-- IR_Precision&#45;&gt;module~type_euler_1d -->
<g id="edge36" class="edge"><title>IR_Precision&#45;&gt;module~type_euler_1d</title>
<path fill="none" stroke="black" stroke-dasharray="5,2" d="M46.156,-186.716C63.5116,-162.866 103.807,-113.544 152,-95"/>
<path fill="none" stroke="black" stroke-dasharray="5,2" d="M152,-95C314.515,-32.4655 526.889,-52.4842 622.914,-66.4009"/>
<polygon fill="black" stroke="black" points="622.533,-69.8826 632.939,-67.8935 623.564,-62.9589 622.533,-69.8826"/>
</g>
<!-- module~foodie_integrator_tvd_runge_kutta -->
<g id="node7" class="node"><title>module~foodie_integrator_tvd_runge_kutta</title>
<a xlink:href="../module/foodie_integrator_tvd_runge_kutta.html" xlink:title="foodie_integrator_tvd_runge_kutta">
<polygon fill="#337ab7" stroke="#337ab7" points="428,-278 252,-278 252,-252 428,-252 428,-278"/>
<text text-anchor="middle" x="340" y="-262.55" font-family="Helvetica,sans-Serif" font-size="10.50" fill="white">foodie_integrator_tvd_runge_kutta</text>
</a>
</g>
<!-- IR_Precision&#45;&gt;module~foodie_integrator_tvd_runge_kutta -->
<g id="edge2" class="edge"><title>IR_Precision&#45;&gt;module~foodie_integrator_tvd_runge_kutta</title>
<path fill="none" stroke="black" stroke-dasharray="5,2" d="M152,-309C186.201,-320.3 194.981,-295.427 230,-287 239.901,-284.617 250.346,-282.29 260.701,-280.095"/>
<polygon fill="black" stroke="black" points="261.506,-283.503 270.58,-278.034 260.076,-276.651 261.506,-283.503"/>
</g>
<!-- module~type_integrand -->
<g id="node8" class="node"><title>module~type_integrand</title>
<a xlink:href="../module/type_integrand.html" xlink:title="type_integrand">
<polygon fill="#337ab7" stroke="#337ab7" points="194,-213 110,-213 110,-187 194,-187 194,-213"/>
<text text-anchor="middle" x="152" y="-197.55" font-family="Helvetica,sans-Serif" font-size="10.50" fill="white">type_integrand</text>
</a>
</g>
<!-- IR_Precision&#45;&gt;module~type_integrand -->
<g id="edge6" class="edge"><title>IR_Precision&#45;&gt;module~type_integrand</title>
<path fill="none" stroke="black" stroke-dasharray="5,2" d="M73.7029,-200C81.9237,-200 90.8,-200 99.521,-200"/>
<polygon fill="black" stroke="black" points="99.6389,-203.5 109.639,-200 99.6388,-196.5 99.6389,-203.5"/>
</g>
<!-- module~foodie_integrator_adams_bashforth -->
<g id="node9" class="node"><title>module~foodie_integrator_adams_bashforth</title>
<a xlink:href="../module/foodie_integrator_adams_bashforth.html" xlink:title="foodie_integrator_adams_bashforth">
<polygon fill="#337ab7" stroke="#337ab7" points="431,-234 249,-234 249,-208 431,-208 431,-234"/>
<text text-anchor="middle" x="340" y="-218.55" font-family="Helvetica,sans-Serif" font-size="10.50" fill="white">foodie_integrator_adams_bashforth</text>
</a>
</g>
<!-- IR_Precision&#45;&gt;module~foodie_integrator_adams_bashforth -->
<g id="edge8" class="edge"><title>IR_Precision&#45;&gt;module~foodie_integrator_adams_bashforth</title>
<path fill="none" stroke="black" stroke-dasharray="5,2" d="M45.0521,-213.137C61.4134,-238.294 101.328,-292.258 152,-309"/>
<path fill="none" stroke="black" stroke-dasharray="5,2" d="M152,-309C195.119,-323.246 189.106,-262.745 230,-243 234.321,-240.913 238.83,-239.025 243.45,-237.315"/>
<polygon fill="black" stroke="black" points="244.72,-240.58 253.064,-234.051 242.47,-233.952 244.72,-240.58"/>
</g>
<!-- module~foodie_integrator_euler_explicit -->
<g id="node10" class="node"><title>module~foodie_integrator_euler_explicit</title>
<a xlink:href="../module/foodie_integrator_euler_explicit.html" xlink:title="foodie_integrator_euler_explicit">
<polygon fill="#337ab7" stroke="#337ab7" points="421,-152 259,-152 259,-126 421,-126 421,-152"/>
<text text-anchor="middle" x="340" y="-136.55" font-family="Helvetica,sans-Serif" font-size="10.50" fill="white">foodie_integrator_euler_explicit</text>
</a>
</g>
<!-- IR_Precision&#45;&gt;module~foodie_integrator_euler_explicit -->
<g id="edge12" class="edge"><title>IR_Precision&#45;&gt;module~foodie_integrator_euler_explicit</title>
<path fill="none" stroke="black" stroke-dasharray="5,2" d="M152,-95C185.616,-82.0647 194.981,-108.573 230,-117 239.901,-119.383 250.346,-121.71 260.701,-123.905"/>
<polygon fill="black" stroke="black" points="260.076,-127.349 270.58,-125.966 261.506,-120.497 260.076,-127.349"/>
</g>
<!-- module~foodie_integrator_leapfrog -->
<g id="node11" class="node"><title>module~foodie_integrator_leapfrog</title>
<a xlink:href="../module/foodie_integrator_leapfrog.html" xlink:title="foodie_integrator_leapfrog">
<polygon fill="#337ab7" stroke="#337ab7" points="409,-108 271,-108 271,-82 409,-82 409,-108"/>
<text text-anchor="middle" x="340" y="-92.55" font-family="Helvetica,sans-Serif" font-size="10.50" fill="white">foodie_integrator_leapfrog</text>
</a>
</g>
<!-- IR_Precision&#45;&gt;module~foodie_integrator_leapfrog -->
<g id="edge16" class="edge"><title>IR_Precision&#45;&gt;module~foodie_integrator_leapfrog</title>
<path fill="none" stroke="black" stroke-dasharray="5,2" d="M152,-95C185.963,-81.9314 226.002,-80.2461 260.384,-82.5077"/>
<polygon fill="black" stroke="black" points="260.147,-85.9998 270.388,-83.2856 260.69,-79.0208 260.147,-85.9998"/>
</g>
<!-- module~foodie_integrator_low_storage_runge_kutta -->
<g id="node12" class="node"><title>module~foodie_integrator_low_storage_runge_kutta</title>
<a xlink:href="../module/foodie_integrator_low_storage_runge_kutta.html" xlink:title="foodie_integrator_low_storage_runge_kutta">
<polygon fill="#337ab7" stroke="#337ab7" points="450,-322 230,-322 230,-296 450,-296 450,-322"/>
<text text-anchor="middle" x="340" y="-306.55" font-family="Helvetica,sans-Serif" font-size="10.50" fill="white">foodie_integrator_low_storage_runge_kutta</text>
</a>
</g>
<!-- IR_Precision&#45;&gt;module~foodie_integrator_low_storage_runge_kutta -->
<g id="edge20" class="edge"><title>IR_Precision&#45;&gt;module~foodie_integrator_low_storage_runge_kutta</title>
<path fill="none" stroke="black" stroke-dasharray="5,2" d="M152,-309C173.327,-316.046 196.773,-319.304 219.658,-320.301"/>
<polygon fill="black" stroke="black" points="219.673,-323.803 229.772,-320.601 219.88,-316.806 219.673,-323.803"/>
</g>
<!-- pyplot_module -->
<g id="node3" class="node"><title>pyplot_module</title>
<polygon fill="#337ab7" stroke="#337ab7" points="715,-234 633,-234 633,-208 715,-208 715,-234"/>
<text text-anchor="middle" x="674" y="-218.55" font-family="Helvetica,sans-Serif" font-size="10.50" fill="white">pyplot_module</text>
</g>
<!-- pyplot_module&#45;&gt;program~integrate_euler_1d -->
<g id="edge44" class="edge"><title>pyplot_module&#45;&gt;program~integrate_euler_1d</title>
<path fill="none" stroke="black" stroke-dasharray="5,2" d="M715.279,-211.901C739.586,-206.543 770.804,-199.662 798.019,-193.662"/>
<polygon fill="black" stroke="black" points="798.832,-197.067 807.845,-191.497 797.326,-190.231 798.832,-197.067"/>
</g>
<!-- module~foodie -->
<g id="node4" class="node"><title>module~foodie</title>
<a xlink:href="../module/foodie.html" xlink:title="foodie">
<polygon fill="#337ab7" stroke="#337ab7" points="540,-193 486,-193 486,-167 540,-167 540,-193"/>
<text text-anchor="middle" x="513" y="-177.55" font-family="Helvetica,sans-Serif" font-size="10.50" fill="white">foodie</text>
</a>
</g>
<!-- module~foodie&#45;&gt;program~integrate_euler_1d -->
<g id="edge46" class="edge"><title>module~foodie&#45;&gt;program~integrate_euler_1d</title>
<path fill="none" stroke="black" stroke-dasharray="5,2" d="M540.229,-180C595.238,-180 720.869,-180 797.264,-180"/>
<polygon fill="black" stroke="black" points="797.704,-183.5 807.704,-180 797.704,-176.5 797.704,-183.5"/>
</g>
<!-- module~foodie&#45;&gt;module~type_euler_1d -->
<g id="edge38" class="edge"><title>module~foodie&#45;&gt;module~type_euler_1d</title>
<path fill="none" stroke="black" stroke-dasharray="5,2" d="M523.423,-166.949C535.047,-153.077 554.994,-131.222 576,-117 590.863,-106.937 608.527,-98.4714 624.738,-91.8368"/>
<polygon fill="black" stroke="black" points="626.069,-95.0744 634.082,-88.1438 623.496,-88.5643 626.069,-95.0744"/>
</g>
<!-- Data_Type_Command_Line_Interface -->
<g id="node5" class="node"><title>Data_Type_Command_Line_Interface</title>
<polygon fill="#337ab7" stroke="#337ab7" points="771,-152 577,-152 577,-126 771,-126 771,-152"/>
<text text-anchor="middle" x="674" y="-136.55" font-family="Helvetica,sans-Serif" font-size="10.50" fill="white">Data_Type_Command_Line_Interface</text>
</g>
<!-- Data_Type_Command_Line_Interface&#45;&gt;program~integrate_euler_1d -->
<g id="edge48" class="edge"><title>Data_Type_Command_Line_Interface&#45;&gt;program~integrate_euler_1d</title>
<path fill="none" stroke="black" stroke-dasharray="5,2" d="M733.107,-152.029C753.767,-156.583 777.012,-161.707 797.908,-166.313"/>
<polygon fill="black" stroke="black" points="797.437,-169.793 807.956,-168.528 798.944,-162.957 797.437,-169.793"/>
</g>
<!-- module~type_euler_1d&#45;&gt;program~integrate_euler_1d -->
<g id="edge50" class="edge"><title>module~type_euler_1d&#45;&gt;program~integrate_euler_1d</title>
<path fill="none" stroke="black" stroke-dasharray="5,2" d="M709.808,-88.1798C728.766,-95.6912 752.164,-105.823 772,-117 794.583,-129.724 818.381,-147.029 835.527,-160.283"/>
<polygon fill="black" stroke="black" points="833.815,-163.388 843.845,-166.799 838.131,-157.877 833.815,-163.388"/>
</g>
<!-- module~foodie_integrator_tvd_runge_kutta&#45;&gt;module~foodie -->
<g id="edge24" class="edge"><title>module~foodie_integrator_tvd_runge_kutta&#45;&gt;module~foodie</title>
<path fill="none" stroke="black" stroke-dasharray="5,2" d="M428.684,-252.102C436.094,-249.587 443.303,-246.584 450,-243 468.861,-232.906 485.729,-215.332 497.254,-201.306"/>
<polygon fill="black" stroke="black" points="500.26,-203.147 503.709,-193.129 494.765,-198.809 500.26,-203.147"/>
</g>
<!-- module~type_integrand&#45;&gt;module~foodie -->
<g id="edge26" class="edge"><title>module~type_integrand&#45;&gt;module~foodie</title>
<path fill="none" stroke="black" stroke-dasharray="5,2" d="M194.118,-197.667C265.266,-193.725 408.104,-185.811 475.792,-182.061"/>
<polygon fill="black" stroke="black" points="476.196,-185.544 485.987,-181.497 475.809,-178.555 476.196,-185.544"/>
</g>
<!-- module~type_integrand&#45;&gt;module~foodie_integrator_tvd_runge_kutta -->
<g id="edge4" class="edge"><title>module~type_integrand&#45;&gt;module~foodie_integrator_tvd_runge_kutta</title>
<path fill="none" stroke="black" stroke-dasharray="5,2" d="M171.717,-213.098C187.022,-222.702 209.088,-235.352 230,-243 236.39,-245.337 243.085,-247.446 249.882,-249.345"/>
<polygon fill="black" stroke="black" points="249.329,-252.819 259.891,-251.981 251.112,-246.05 249.329,-252.819"/>
</g>
<!-- module~type_integrand&#45;&gt;module~foodie_integrator_adams_bashforth -->
<g id="edge10" class="edge"><title>module~type_integrand&#45;&gt;module~foodie_integrator_adams_bashforth</title>
<path fill="none" stroke="black" stroke-dasharray="5,2" d="M194.191,-204.713C207.423,-206.191 222.647,-207.891 238.158,-209.624"/>
<polygon fill="black" stroke="black" points="238.047,-213.133 248.374,-210.765 238.824,-206.177 238.047,-213.133"/>
</g>
<!-- module~type_integrand&#45;&gt;module~foodie_integrator_euler_explicit -->
<g id="edge14" class="edge"><title>module~type_integrand&#45;&gt;module~foodie_integrator_euler_explicit</title>
<path fill="none" stroke="black" stroke-dasharray="5,2" d="M178.986,-186.881C193.804,-180.025 212.646,-171.864 230,-166 242.47,-161.786 255.939,-157.93 269.033,-154.532"/>
<polygon fill="black" stroke="black" points="270.112,-157.87 278.95,-152.025 268.397,-151.083 270.112,-157.87"/>
</g>
<!-- module~type_integrand&#45;&gt;module~foodie_integrator_leapfrog -->
<g id="edge18" class="edge"><title>module~type_integrand&#45;&gt;module~foodie_integrator_leapfrog</title>
<path fill="none" stroke="black" stroke-dasharray="5,2" d="M160.314,-186.967C172.962,-168.294 198.883,-134.28 230,-117 239.451,-111.752 249.975,-107.745 260.662,-104.688"/>
<polygon fill="black" stroke="black" points="261.695,-108.036 270.497,-102.14 259.939,-101.26 261.695,-108.036"/>
</g>
<!-- module~type_integrand&#45;&gt;module~foodie_integrator_low_storage_runge_kutta -->
<g id="edge22" class="edge"><title>module~type_integrand&#45;&gt;module~foodie_integrator_low_storage_runge_kutta</title>
<path fill="none" stroke="black" stroke-dasharray="5,2" d="M159.747,-213.018C172.039,-232.447 197.935,-268.699 230,-287 233.28,-288.872 236.694,-290.587 240.203,-292.157"/>
<polygon fill="black" stroke="black" points="239.104,-295.488 249.687,-295.986 241.724,-288.997 239.104,-295.488"/>
</g>
<!-- module~foodie_integrator_adams_bashforth&#45;&gt;module~foodie -->
<g id="edge28" class="edge"><title>module~foodie_integrator_adams_bashforth&#45;&gt;module~foodie</title>
<path fill="none" stroke="black" stroke-dasharray="5,2" d="M395.214,-207.915C421.572,-201.668 452.41,-194.359 475.919,-188.788"/>
<polygon fill="black" stroke="black" points="476.913,-192.149 485.836,-186.438 475.299,-185.338 476.913,-192.149"/>
</g>
<!-- module~foodie_integrator_euler_explicit&#45;&gt;module~foodie -->
<g id="edge30" class="edge"><title>module~foodie_integrator_euler_explicit&#45;&gt;module~foodie</title>
<path fill="none" stroke="black" stroke-dasharray="5,2" d="M395.214,-152.085C421.572,-158.332 452.41,-165.641 475.919,-171.212"/>
<polygon fill="black" stroke="black" points="475.299,-174.662 485.836,-173.562 476.913,-167.851 475.299,-174.662"/>
</g>
<!-- module~foodie_integrator_leapfrog&#45;&gt;module~foodie -->
<g id="edge32" class="edge"><title>module~foodie_integrator_leapfrog&#45;&gt;module~foodie</title>
<path fill="none" stroke="black" stroke-dasharray="5,2" d="M409.63,-102.504C423.527,-105.748 437.637,-110.383 450,-117 468.861,-127.094 485.729,-144.668 497.254,-158.694"/>
<polygon fill="black" stroke="black" points="494.765,-161.191 503.709,-166.871 500.26,-156.853 494.765,-161.191"/>
</g>
<!-- module~foodie_integrator_low_storage_runge_kutta&#45;&gt;module~foodie -->
<g id="edge34" class="edge"><title>module~foodie_integrator_low_storage_runge_kutta&#45;&gt;module~foodie</title>
<path fill="none" stroke="black" stroke-dasharray="5,2" d="M434.149,-295.997C439.738,-293.472 445.079,-290.498 450,-287 479.056,-266.343 496.862,-227.723 505.828,-202.968"/>
<polygon fill="black" stroke="black" points="509.21,-203.895 509.137,-193.3 502.587,-201.628 509.21,-203.895"/>
</g>
<!-- wenoof -->
<g id="node30" class="node"><title>wenoof</title>
<polygon fill="#337ab7" stroke="#337ab7" points="540,-26 486,-26 486,-1.24345e-14 540,-3.55271e-15 540,-26"/>
<text text-anchor="middle" x="513" y="-10.55" font-family="Helvetica,sans-Serif" font-size="10.50" fill="white">wenoof</text>
</g>
<!-- wenoof&#45;&gt;module~type_euler_1d -->
<g id="edge40" class="edge"><title>wenoof&#45;&gt;module~type_euler_1d</title>
<path fill="none" stroke="black" stroke-dasharray="5,2" d="M540.311,-23.5175C565.057,-33.0467 601.939,-47.2496 630.7,-58.3253"/>
<polygon fill="black" stroke="black" points="629.523,-61.6227 640.113,-61.9502 632.038,-55.0903 629.523,-61.6227"/>
</g>
</g>
</svg>
