<?xml version="1.0" encoding="UTF-8" standalone="no"?>
<!DOCTYPE svg PUBLIC "-//W3C//DTD SVG 1.1//EN"
 "http://www.w3.org/Graphics/SVG/1.1/DTD/svg11.dtd">
<!-- Generated by graphviz version 2.26.3 (20100126.1600)
 -->
<!-- Title: program~~integrate_lorenz~~UsesGraph Pages: 1 -->
<svg width="641pt" height="230pt"
 viewBox="0.00 0.00 641.00 230.23" xmlns="http://www.w3.org/2000/svg" xmlns:xlink="http://www.w3.org/1999/xlink">
<g id="graph1" class="graph" transform="scale(0.707506 0.707506) rotate(0) translate(4 321.404)">
<title>program~~integrate_lorenz~~UsesGraph</title>
<polygon fill="white" stroke="white" points="-4,5 -4,-321.404 903,-321.404 903,5 -4,5"/>
<!-- program~integrate_lorenz -->
<g id="node1" class="node"><title>program~integrate_lorenz</title>
<polygon fill="none" stroke="black" points="898,-190.114 808,-190.114 808,-164.114 898,-164.114 898,-190.114"/>
<text text-anchor="middle" x="853" y="-174.664" font-family="Helvetica,sans-Serif" font-size="10.50">integrate_lorenz</text>
</g>
<!-- IR_Precision -->
<g id="node2" class="node"><title>IR_Precision</title>
<polygon fill="#337ab7" stroke="#337ab7" points="73,-156.114 1,-156.114 1,-130.114 73,-130.114 73,-156.114"/>
<text text-anchor="middle" x="37" y="-140.664" font-family="Helvetica,sans-Serif" font-size="10.50" fill="white">IR_Precision</text>
</g>
<!-- IR_Precision&#45;&gt;program~integrate_lorenz -->
<g id="edge40" class="edge"><title>IR_Precision&#45;&gt;program~integrate_lorenz</title>
<path fill="none" stroke="black" stroke-dasharray="5,2" d="M152,-252.114C413.694,-338.575 516.374,-343.141 772,-240.114 795.639,-230.587 818.154,-212.033 833.418,-197.517"/>
<polygon fill="black" stroke="black" points="836.022,-199.866 840.707,-190.363 831.118,-194.87 836.022,-199.866"/>
</g>
<!-- module~type_lorenz -->
<g id="node6" class="node"><title>module~type_lorenz</title>
<a xlink:href="../module/type_lorenz.html" xlink:title="type_lorenz">
<polygon fill="#337ab7" stroke="#337ab7" points="708,-105.114 640,-105.114 640,-79.1144 708,-79.1144 708,-105.114"/>
<text text-anchor="middle" x="674" y="-89.6644" font-family="Helvetica,sans-Serif" font-size="10.50" fill="white">type_lorenz</text>
</a>
</g>
<!-- IR_Precision&#45;&gt;module~type_lorenz -->
<g id="edge36" class="edge"><title>IR_Precision&#45;&gt;module~type_lorenz</title>
<path fill="none" stroke="black" stroke-dasharray="5,2" d="M46.156,-129.831C63.5116,-105.98 103.807,-56.6587 152,-38.1144"/>
<path fill="none" stroke="black" stroke-dasharray="5,2" d="M152,-38.1144C275.946,9.57888 318.967,5.50902 450,-16.1144 517.616,-27.2727 592.264,-56.1785 636.043,-74.9522"/>
<polygon fill="black" stroke="black" points="634.864,-78.2555 645.43,-79.0258 637.65,-71.8341 634.864,-78.2555"/>
</g>
<!-- module~foodie_integrator_tvd_runge_kutta -->
<g id="node7" class="node"><title>module~foodie_integrator_tvd_runge_kutta</title>
<a xlink:href="../module/foodie_integrator_tvd_runge_kutta.html" xlink:title="foodie_integrator_tvd_runge_kutta">
<polygon fill="#337ab7" stroke="#337ab7" points="428,-221.114 252,-221.114 252,-195.114 428,-195.114 428,-221.114"/>
<text text-anchor="middle" x="340" y="-205.664" font-family="Helvetica,sans-Serif" font-size="10.50" fill="white">foodie_integrator_tvd_runge_kutta</text>
</a>
</g>
<!-- IR_Precision&#45;&gt;module~foodie_integrator_tvd_runge_kutta -->
<g id="edge2" class="edge"><title>IR_Precision&#45;&gt;module~foodie_integrator_tvd_runge_kutta</title>
<path fill="none" stroke="black" stroke-dasharray="5,2" d="M152,-252.114C186.201,-263.414 194.981,-238.542 230,-230.114 239.901,-227.732 250.346,-225.405 260.701,-223.21"/>
<polygon fill="black" stroke="black" points="261.506,-226.617 270.58,-221.148 260.076,-219.765 261.506,-226.617"/>
</g>
<!-- module~type_integrand -->
<g id="node8" class="node"><title>module~type_integrand</title>
<a xlink:href="../module/type_integrand.html" xlink:title="type_integrand">
<polygon fill="#337ab7" stroke="#337ab7" points="194,-156.114 110,-156.114 110,-130.114 194,-130.114 194,-156.114"/>
<text text-anchor="middle" x="152" y="-140.664" font-family="Helvetica,sans-Serif" font-size="10.50" fill="white">type_integrand</text>
</a>
</g>
<!-- IR_Precision&#45;&gt;module~type_integrand -->
<g id="edge6" class="edge"><title>IR_Precision&#45;&gt;module~type_integrand</title>
<path fill="none" stroke="black" stroke-dasharray="5,2" d="M73.7029,-143.114C81.9237,-143.114 90.8,-143.114 99.521,-143.114"/>
<polygon fill="black" stroke="black" points="99.6389,-146.614 109.639,-143.114 99.6388,-139.614 99.6389,-146.614"/>
</g>
<!-- module~foodie_integrator_adams_bashforth -->
<g id="node9" class="node"><title>module~foodie_integrator_adams_bashforth</title>
<a xlink:href="../module/foodie_integrator_adams_bashforth.html" xlink:title="foodie_integrator_adams_bashforth">
<polygon fill="#337ab7" stroke="#337ab7" points="431,-177.114 249,-177.114 249,-151.114 431,-151.114 431,-177.114"/>
<text text-anchor="middle" x="340" y="-161.664" font-family="Helvetica,sans-Serif" font-size="10.50" fill="white">foodie_integrator_adams_bashforth</text>
</a>
</g>
<!-- IR_Precision&#45;&gt;module~foodie_integrator_adams_bashforth -->
<g id="edge8" class="edge"><title>IR_Precision&#45;&gt;module~foodie_integrator_adams_bashforth</title>
<path fill="none" stroke="black" stroke-dasharray="5,2" d="M45.0521,-156.252C61.4134,-181.409 101.328,-235.373 152,-252.114"/>
<path fill="none" stroke="black" stroke-dasharray="5,2" d="M152,-252.114C195.119,-266.36 189.106,-205.86 230,-186.114 234.321,-184.028 238.83,-182.139 243.45,-180.429"/>
<polygon fill="black" stroke="black" points="244.72,-183.694 253.064,-177.166 242.47,-177.066 244.72,-183.694"/>
</g>
<!-- module~foodie_integrator_euler_explicit -->
<g id="node10" class="node"><title>module~foodie_integrator_euler_explicit</title>
<a xlink:href="../module/foodie_integrator_euler_explicit.html" xlink:title="foodie_integrator_euler_explicit">
<polygon fill="#337ab7" stroke="#337ab7" points="421,-95.1144 259,-95.1144 259,-69.1144 421,-69.1144 421,-95.1144"/>
<text text-anchor="middle" x="340" y="-79.6644" font-family="Helvetica,sans-Serif" font-size="10.50" fill="white">foodie_integrator_euler_explicit</text>
</a>
</g>
<!-- IR_Precision&#45;&gt;module~foodie_integrator_euler_explicit -->
<g id="edge12" class="edge"><title>IR_Precision&#45;&gt;module~foodie_integrator_euler_explicit</title>
<path fill="none" stroke="black" stroke-dasharray="5,2" d="M152,-38.1144C185.616,-25.1791 194.981,-51.6872 230,-60.1144 239.901,-62.497 250.346,-64.8241 260.701,-67.019"/>
<polygon fill="black" stroke="black" points="260.076,-70.4638 270.58,-69.0803 261.506,-63.6114 260.076,-70.4638"/>
</g>
<!-- module~foodie_integrator_leapfrog -->
<g id="node11" class="node"><title>module~foodie_integrator_leapfrog</title>
<a xlink:href="../module/foodie_integrator_leapfrog.html" xlink:title="foodie_integrator_leapfrog">
<polygon fill="#337ab7" stroke="#337ab7" points="409,-51.1144 271,-51.1144 271,-25.1144 409,-25.1144 409,-51.1144"/>
<text text-anchor="middle" x="340" y="-35.6644" font-family="Helvetica,sans-Serif" font-size="10.50" fill="white">foodie_integrator_leapfrog</text>
</a>
</g>
<!-- IR_Precision&#45;&gt;module~foodie_integrator_leapfrog -->
<g id="edge16" class="edge"><title>IR_Precision&#45;&gt;module~foodie_integrator_leapfrog</title>
<path fill="none" stroke="black" stroke-dasharray="5,2" d="M152,-38.1144C185.963,-25.0457 226.002,-23.3605 260.384,-25.6221"/>
<polygon fill="black" stroke="black" points="260.147,-29.1142 270.388,-26.4 260.69,-22.1352 260.147,-29.1142"/>
</g>
<!-- module~foodie_integrator_low_storage_runge_kutta -->
<g id="node12" class="node"><title>module~foodie_integrator_low_storage_runge_kutta</title>
<a xlink:href="../module/foodie_integrator_low_storage_runge_kutta.html" xlink:title="foodie_integrator_low_storage_runge_kutta">
<polygon fill="#337ab7" stroke="#337ab7" points="450,-265.114 230,-265.114 230,-239.114 450,-239.114 450,-265.114"/>
<text text-anchor="middle" x="340" y="-249.664" font-family="Helvetica,sans-Serif" font-size="10.50" fill="white">foodie_integrator_low_storage_runge_kutta</text>
</a>
</g>
<!-- IR_Precision&#45;&gt;module~foodie_integrator_low_storage_runge_kutta -->
<g id="edge20" class="edge"><title>IR_Precision&#45;&gt;module~foodie_integrator_low_storage_runge_kutta</title>
<path fill="none" stroke="black" stroke-dasharray="5,2" d="M152,-252.114C173.327,-259.161 196.773,-262.419 219.658,-263.416"/>
<polygon fill="black" stroke="black" points="219.673,-266.918 229.772,-263.715 219.88,-259.921 219.673,-266.918"/>
</g>
<!-- pyplot_module -->
<g id="node3" class="node"><title>pyplot_module</title>
<polygon fill="#337ab7" stroke="#337ab7" points="715,-231.114 633,-231.114 633,-205.114 715,-205.114 715,-231.114"/>
<text text-anchor="middle" x="674" y="-215.664" font-family="Helvetica,sans-Serif" font-size="10.50" fill="white">pyplot_module</text>
</g>
<!-- pyplot_module&#45;&gt;program~integrate_lorenz -->
<g id="edge42" class="edge"><title>pyplot_module&#45;&gt;program~integrate_lorenz</title>
<path fill="none" stroke="black" stroke-dasharray="5,2" d="M715.066,-208.708C739.595,-203.09 771.069,-195.881 797.756,-189.768"/>
<polygon fill="black" stroke="black" points="798.76,-193.129 807.726,-187.484 797.197,-186.306 798.76,-193.129"/>
</g>
<!-- module~foodie -->
<g id="node4" class="node"><title>module~foodie</title>
<a xlink:href="../module/foodie.html" xlink:title="foodie">
<polygon fill="#337ab7" stroke="#337ab7" points="540,-156.114 486,-156.114 486,-130.114 540,-130.114 540,-156.114"/>
<text text-anchor="middle" x="513" y="-140.664" font-family="Helvetica,sans-Serif" font-size="10.50" fill="white">foodie</text>
</a>
</g>
<!-- module~foodie&#45;&gt;program~integrate_lorenz -->
<g id="edge44" class="edge"><title>module~foodie&#45;&gt;program~integrate_lorenz</title>
<path fill="none" stroke="black" stroke-dasharray="5,2" d="M540.096,-150.603C551.15,-153.386 564.107,-156.303 576,-158.114 652.265,-169.728 741.431,-174.246 797.563,-176.002"/>
<polygon fill="black" stroke="black" points="797.55,-179.503 807.649,-176.299 797.756,-172.506 797.55,-179.503"/>
</g>
<!-- module~foodie&#45;&gt;module~type_lorenz -->
<g id="edge38" class="edge"><title>module~foodie&#45;&gt;module~type_lorenz</title>
<path fill="none" stroke="black" stroke-dasharray="5,2" d="M538.249,-130.011C549.57,-124.525 563.225,-118.435 576,-114.114 593.236,-108.285 612.702,-103.553 629.717,-99.9921"/>
<polygon fill="black" stroke="black" points="630.843,-103.336 639.953,-97.9269 629.458,-96.4739 630.843,-103.336"/>
</g>
<!-- Data_Type_Command_Line_Interface -->
<g id="node5" class="node"><title>Data_Type_Command_Line_Interface</title>
<polygon fill="#337ab7" stroke="#337ab7" points="771,-149.114 577,-149.114 577,-123.114 771,-123.114 771,-149.114"/>
<text text-anchor="middle" x="674" y="-133.664" font-family="Helvetica,sans-Serif" font-size="10.50" fill="white">Data_Type_Command_Line_Interface</text>
</g>
<!-- Data_Type_Command_Line_Interface&#45;&gt;program~integrate_lorenz -->
<g id="edge46" class="edge"><title>Data_Type_Command_Line_Interface&#45;&gt;program~integrate_lorenz</title>
<path fill="none" stroke="black" stroke-dasharray="5,2" d="M731.129,-149.2C752.504,-154.096 776.726,-159.644 797.913,-164.497"/>
<polygon fill="black" stroke="black" points="797.199,-167.924 807.728,-166.745 798.762,-161.1 797.199,-167.924"/>
</g>
<!-- module~type_lorenz&#45;&gt;program~integrate_lorenz -->
<g id="edge48" class="edge"><title>module~type_lorenz&#45;&gt;program~integrate_lorenz</title>
<path fill="none" stroke="black" stroke-dasharray="5,2" d="M708.318,-96.0436C727.698,-99.1748 751.973,-104.663 772,-114.114 794.775,-124.862 817.095,-142.95 832.519,-156.994"/>
<polygon fill="black" stroke="black" points="830.225,-159.641 839.922,-163.91 835.004,-154.525 830.225,-159.641"/>
</g>
<!-- module~foodie_integrator_tvd_runge_kutta&#45;&gt;module~foodie -->
<g id="edge24" class="edge"><title>module~foodie_integrator_tvd_runge_kutta&#45;&gt;module~foodie</title>
<path fill="none" stroke="black" stroke-dasharray="5,2" d="M423.659,-195.083C432.708,-192.587 441.652,-189.626 450,-186.114 464.007,-180.223 478.115,-170.973 489.419,-162.56"/>
<polygon fill="black" stroke="black" points="491.683,-165.234 497.469,-156.359 487.411,-159.689 491.683,-165.234"/>
</g>
<!-- module~type_integrand&#45;&gt;module~foodie -->
<g id="edge26" class="edge"><title>module~type_integrand&#45;&gt;module~foodie</title>
<path fill="none" stroke="black" stroke-dasharray="5,2" d="M194.099,-142.476C205.729,-142.326 218.353,-142.189 230,-142.114 327.776,-141.488 352.225,-141.338 450,-142.114 458.23,-142.18 467.063,-142.293 475.435,-142.42"/>
<polygon fill="black" stroke="black" points="475.657,-145.924 485.712,-142.587 475.77,-138.925 475.657,-145.924"/>
</g>
<!-- module~type_integrand&#45;&gt;module~foodie_integrator_tvd_runge_kutta -->
<g id="edge4" class="edge"><title>module~type_integrand&#45;&gt;module~foodie_integrator_tvd_runge_kutta</title>
<path fill="none" stroke="black" stroke-dasharray="5,2" d="M171.717,-156.212C187.022,-165.817 209.088,-178.466 230,-186.114 236.39,-188.451 243.085,-190.56 249.882,-192.46"/>
<polygon fill="black" stroke="black" points="249.329,-195.933 259.891,-195.095 251.112,-189.164 249.329,-195.933"/>
</g>
<!-- module~type_integrand&#45;&gt;module~foodie_integrator_adams_bashforth -->
<g id="edge10" class="edge"><title>module~type_integrand&#45;&gt;module~foodie_integrator_adams_bashforth</title>
<path fill="none" stroke="black" stroke-dasharray="5,2" d="M194.191,-147.827C207.423,-149.305 222.647,-151.006 238.158,-152.738"/>
<polygon fill="black" stroke="black" points="238.047,-156.248 248.374,-153.88 238.824,-149.291 238.047,-156.248"/>
</g>
<!-- module~type_integrand&#45;&gt;module~foodie_integrator_euler_explicit -->
<g id="edge14" class="edge"><title>module~type_integrand&#45;&gt;module~foodie_integrator_euler_explicit</title>
<path fill="none" stroke="black" stroke-dasharray="5,2" d="M178.986,-129.995C193.804,-123.139 212.646,-114.979 230,-109.114 242.47,-104.9 255.939,-101.044 269.033,-97.6468"/>
<polygon fill="black" stroke="black" points="270.112,-100.984 278.95,-95.1398 268.397,-94.1975 270.112,-100.984"/>
</g>
<!-- module~type_integrand&#45;&gt;module~foodie_integrator_leapfrog -->
<g id="edge18" class="edge"><title>module~type_integrand&#45;&gt;module~foodie_integrator_leapfrog</title>
<path fill="none" stroke="black" stroke-dasharray="5,2" d="M160.314,-130.081C172.962,-111.408 198.883,-77.3945 230,-60.1144 239.451,-54.8661 249.975,-50.8594 260.662,-47.8027"/>
<polygon fill="black" stroke="black" points="261.695,-51.1508 270.497,-45.2542 259.939,-44.3746 261.695,-51.1508"/>
</g>
<!-- module~type_integrand&#45;&gt;module~foodie_integrator_low_storage_runge_kutta -->
<g id="edge22" class="edge"><title>module~type_integrand&#45;&gt;module~foodie_integrator_low_storage_runge_kutta</title>
<path fill="none" stroke="black" stroke-dasharray="5,2" d="M159.747,-156.133C172.039,-175.561 197.935,-211.813 230,-230.114 233.28,-231.986 236.694,-233.701 240.203,-235.271"/>
<polygon fill="black" stroke="black" points="239.104,-238.602 249.687,-239.1 241.724,-232.111 239.104,-238.602"/>
</g>
<!-- module~foodie_integrator_adams_bashforth&#45;&gt;module~foodie -->
<g id="edge28" class="edge"><title>module~foodie_integrator_adams_bashforth&#45;&gt;module~foodie</title>
<path fill="none" stroke="black" stroke-dasharray="5,2" d="M431.566,-152.999C447.17,-151.105 462.554,-149.238 475.677,-147.645"/>
<polygon fill="black" stroke="black" points="476.172,-151.111 485.677,-146.431 475.328,-144.162 476.172,-151.111"/>
</g>
<!-- module~foodie_integrator_euler_explicit&#45;&gt;module~foodie -->
<g id="edge30" class="edge"><title>module~foodie_integrator_euler_explicit&#45;&gt;module~foodie</title>
<path fill="none" stroke="black" stroke-dasharray="5,2" d="M404.829,-95.1236C419.885,-98.9388 435.688,-103.6 450,-109.114 461.188,-113.425 472.89,-119.315 483.13,-124.982"/>
<polygon fill="black" stroke="black" points="481.645,-128.164 492.067,-130.072 485.109,-122.082 481.645,-128.164"/>
</g>
<!-- module~foodie_integrator_leapfrog&#45;&gt;module~foodie -->
<g id="edge32" class="edge"><title>module~foodie_integrator_leapfrog&#45;&gt;module~foodie</title>
<path fill="none" stroke="black" stroke-dasharray="5,2" d="M409.507,-44.1323C423.635,-47.469 437.868,-52.5172 450,-60.1144 473.61,-74.8989 491.61,-101.927 502.208,-121.121"/>
<polygon fill="black" stroke="black" points="499.174,-122.871 506.936,-130.082 505.365,-119.604 499.174,-122.871"/>
</g>
<!-- module~foodie_integrator_low_storage_runge_kutta&#45;&gt;module~foodie -->
<g id="edge34" class="edge"><title>module~foodie_integrator_low_storage_runge_kutta&#45;&gt;module~foodie</title>
<path fill="none" stroke="black" stroke-dasharray="5,2" d="M432.676,-239.021C438.75,-236.529 444.592,-233.586 450,-230.114 474.545,-214.357 492.614,-185.379 502.958,-165.217"/>
<polygon fill="black" stroke="black" points="506.156,-166.644 507.41,-156.124 499.87,-163.566 506.156,-166.644"/>
</g>
</g>
</svg>
