<?xml version="1.0" encoding="UTF-8" standalone="no"?>
<!DOCTYPE svg PUBLIC "-//W3C//DTD SVG 1.1//EN"
 "http://www.w3.org/Graphics/SVG/1.1/DTD/svg11.dtd">
<!-- Generated by graphviz version 2.26.3 (20100126.1600)
 -->
<!-- Title: program~~integrate_oscillation~~CallsGraph Pages: 1 -->
<svg width="338pt" height="210pt"
 viewBox="0.00 0.00 338.00 210.00" xmlns="http://www.w3.org/2000/svg" xmlns:xlink="http://www.w3.org/1999/xlink">
<g id="graph1" class="graph" transform="scale(1 1) rotate(0) translate(4 206)">
<title>program~~integrate_oscillation~~CallsGraph</title>
<polygon fill="white" stroke="white" points="-4,5 -4,-206 335,-206 335,5 -4,5"/>
<!-- program~integrate_oscillation -->
<g id="node1" class="node"><title>program~integrate_oscillation</title>
<polygon fill="none" stroke="black" points="107,-114 1,-114 1,-88 107,-88 107,-114"/>
<text text-anchor="middle" x="54" y="-98.55" font-family="Helvetica,sans-Serif" font-size="10.50">integrate_oscillation</text>
</g>
<!-- proc~test_tvd_rk~4 -->
<g id="node2" class="node"><title>proc~test_tvd_rk~4</title>
<a xlink:href="../proc/test_tvd_rk%7E4.html" xlink:title="test_tvd_rk">
<polygon fill="#d9534f" stroke="#d9534f" points="214,-114 150,-114 150,-88 214,-88 214,-114"/>
<text text-anchor="middle" x="182" y="-98.55" font-family="Helvetica,sans-Serif" font-size="10.50" fill="white">test_tvd_rk</text>
</a>
</g>
<!-- program~integrate_oscillation&#45;&gt;proc~test_tvd_rk~4 -->
<g id="edge18" class="edge"><title>program~integrate_oscillation&#45;&gt;proc~test_tvd_rk~4</title>
<path fill="none" stroke="black" d="M107.542,-101C118.118,-101 129.085,-101 139.246,-101"/>
<polygon fill="black" stroke="black" points="139.493,-104.5 149.493,-101 139.493,-97.5001 139.493,-104.5"/>
</g>
<!-- proc~test_leapfrog~4 -->
<g id="node3" class="node"><title>proc~test_leapfrog~4</title>
<a xlink:href="../proc/test_leapfrog%7E4.html" xlink:title="test_leapfrog">
<polygon fill="#d9534f" stroke="#d9534f" points="219,-158 145,-158 145,-132 219,-132 219,-158"/>
<text text-anchor="middle" x="182" y="-142.55" font-family="Helvetica,sans-Serif" font-size="10.50" fill="white">test_leapfrog</text>
</a>
</g>
<!-- program~integrate_oscillation&#45;&gt;proc~test_leapfrog~4 -->
<g id="edge20" class="edge"><title>program~integrate_oscillation&#45;&gt;proc~test_leapfrog~4</title>
<path fill="none" stroke="black" d="M92.0577,-114.082C105.47,-118.693 120.712,-123.932 134.788,-128.771"/>
<polygon fill="black" stroke="black" points="133.715,-132.103 144.31,-132.044 135.991,-125.483 133.715,-132.103"/>
</g>
<!-- proc~test_ls_rk~4 -->
<g id="node4" class="node"><title>proc~test_ls_rk~4</title>
<a xlink:href="../proc/test_ls_rk%7E4.html" xlink:title="test_ls_rk">
<polygon fill="#d9534f" stroke="#d9534f" points="211,-70 153,-70 153,-44 211,-44 211,-70"/>
<text text-anchor="middle" x="182" y="-54.55" font-family="Helvetica,sans-Serif" font-size="10.50" fill="white">test_ls_rk</text>
</a>
</g>
<!-- program~integrate_oscillation&#45;&gt;proc~test_ls_rk~4 -->
<g id="edge22" class="edge"><title>program~integrate_oscillation&#45;&gt;proc~test_ls_rk~4</title>
<path fill="none" stroke="black" d="M92.0577,-87.9177C108.169,-82.3795 126.92,-75.9337 143.12,-70.3651"/>
<polygon fill="black" stroke="black" points="144.511,-73.5881 152.83,-67.0273 142.235,-66.9682 144.511,-73.5881"/>
</g>
<!-- proc~test_ab~4 -->
<g id="node5" class="node"><title>proc~test_ab~4</title>
<a xlink:href="../proc/test_ab%7E4.html" xlink:title="test_ab">
<polygon fill="#d9534f" stroke="#d9534f" points="209,-26 155,-26 155,-1.24345e-14 209,-3.55271e-15 209,-26"/>
<text text-anchor="middle" x="182" y="-10.55" font-family="Helvetica,sans-Serif" font-size="10.50" fill="white">test_ab</text>
</a>
</g>
<!-- program~integrate_oscillation&#45;&gt;proc~test_ab~4 -->
<g id="edge24" class="edge"><title>program~integrate_oscillation&#45;&gt;proc~test_ab~4</title>
<path fill="none" stroke="black" d="M70.8634,-87.7841C88.6621,-74.0389 117.723,-52.1698 144,-35 145.867,-33.7803 147.803,-32.5522 149.768,-31.3334"/>
<polygon fill="black" stroke="black" points="151.688,-34.2632 158.448,-26.1053 148.076,-28.2669 151.688,-34.2632"/>
</g>
<!-- proc~test_euler~4 -->
<g id="node6" class="node"><title>proc~test_euler~4</title>
<a xlink:href="../proc/test_euler%7E4.html" xlink:title="test_euler">
<polygon fill="#d9534f" stroke="#d9534f" points="212,-202 152,-202 152,-176 212,-176 212,-202"/>
<text text-anchor="middle" x="182" y="-186.55" font-family="Helvetica,sans-Serif" font-size="10.50" fill="white">test_euler</text>
</a>
</g>
<!-- program~integrate_oscillation&#45;&gt;proc~test_euler~4 -->
<g id="edge26" class="edge"><title>program~integrate_oscillation&#45;&gt;proc~test_euler~4</title>
<path fill="none" stroke="black" d="M70.8634,-114.216C88.6621,-127.961 117.723,-149.83 144,-167 145.867,-168.22 147.803,-169.448 149.768,-170.667"/>
<polygon fill="black" stroke="black" points="148.076,-173.733 158.448,-175.895 151.688,-167.737 148.076,-173.733"/>
</g>
<!-- proc~save_results~5 -->
<g id="node7" class="node"><title>proc~save_results~5</title>
<a xlink:href="../proc/save_results%7E5.html" xlink:title="save_results">
<polygon fill="#d9534f" stroke="#d9534f" points="329,-114 257,-114 257,-88 329,-88 329,-114"/>
<text text-anchor="middle" x="293" y="-98.55" font-family="Helvetica,sans-Serif" font-size="10.50" fill="white">save_results</text>
</a>
</g>
<!-- proc~test_tvd_rk~4&#45;&gt;proc~save_results~5 -->
<g id="edge2" class="edge"><title>proc~test_tvd_rk~4&#45;&gt;proc~save_results~5</title>
<path fill="none" stroke="black" d="M214.703,-101C224.488,-101 235.416,-101 245.931,-101"/>
<polygon fill="black" stroke="black" points="246.251,-104.5 256.251,-101 246.251,-97.5001 246.251,-104.5"/>
</g>
<!-- str -->
<g id="node8" class="node"><title>str</title>
<polygon fill="#777777" stroke="#777777" points="320,-70 266,-70 266,-44 320,-44 320,-70"/>
<text text-anchor="middle" x="293" y="-54.55" font-family="Helvetica,sans-Serif" font-size="10.50" fill="white">str</text>
</g>
<!-- proc~test_tvd_rk~4&#45;&gt;str -->
<g id="edge4" class="edge"><title>proc~test_tvd_rk~4&#45;&gt;str</title>
<path fill="none" stroke="black" d="M214.703,-88.0365C227.774,-82.8553 242.887,-76.8648 256.328,-71.5368"/>
<polygon fill="black" stroke="black" points="257.76,-74.7341 265.766,-67.7953 255.18,-68.2267 257.76,-74.7341"/>
</g>
<!-- proc~test_leapfrog~4&#45;&gt;proc~save_results~5 -->
<g id="edge6" class="edge"><title>proc~test_leapfrog~4&#45;&gt;proc~save_results~5</title>
<path fill="none" stroke="black" d="M215.003,-131.918C226.087,-127.524 238.611,-122.559 250.329,-117.915"/>
<polygon fill="black" stroke="black" points="251.926,-121.047 259.932,-114.108 249.346,-114.539 251.926,-121.047"/>
</g>
<!-- proc~test_ls_rk~4&#45;&gt;proc~save_results~5 -->
<g id="edge8" class="edge"><title>proc~test_ls_rk~4&#45;&gt;proc~save_results~5</title>
<path fill="none" stroke="black" d="M211.164,-68.5605C223.259,-73.3549 237.526,-79.0103 250.732,-84.2451"/>
<polygon fill="black" stroke="black" points="249.528,-87.5328 260.114,-87.9641 252.108,-81.0254 249.528,-87.5328"/>
</g>
<!-- proc~test_ls_rk~4&#45;&gt;str -->
<g id="edge10" class="edge"><title>proc~test_ls_rk~4&#45;&gt;str</title>
<path fill="none" stroke="black" d="M211.164,-57C224.809,-57 241.22,-57 255.752,-57"/>
<polygon fill="black" stroke="black" points="255.935,-60.5001 265.935,-57 255.935,-53.5001 255.935,-60.5001"/>
</g>
<!-- proc~test_ab~4&#45;&gt;proc~save_results~5 -->
<g id="edge12" class="edge"><title>proc~test_ab~4&#45;&gt;proc~save_results~5</title>
<path fill="none" stroke="black" d="M207.792,-26.2277C212.051,-28.883 216.284,-31.8386 220,-35 239.245,-51.3725 236.851,-62.5157 256,-79 257.285,-80.1062 258.633,-81.189 260.022,-82.2441"/>
<polygon fill="black" stroke="black" points="258.069,-85.149 268.287,-87.9506 262.047,-79.3886 258.069,-85.149"/>
</g>
<!-- proc~test_ab~4&#45;&gt;str -->
<g id="edge14" class="edge"><title>proc~test_ab~4&#45;&gt;str</title>
<path fill="none" stroke="black" d="M209.154,-23.7636C223.264,-29.3568 240.715,-36.2745 256.037,-42.3481"/>
<polygon fill="black" stroke="black" points="255.156,-45.7636 265.742,-46.195 257.735,-39.2562 255.156,-45.7636"/>
</g>
<!-- proc~test_euler~4&#45;&gt;proc~save_results~5 -->
<g id="edge16" class="edge"><title>proc~test_euler~4&#45;&gt;proc~save_results~5</title>
<path fill="none" stroke="black" d="M206.604,-175.773C211.167,-173.037 215.811,-170.054 220,-167 239.104,-153.073 258.884,-134.918 273.028,-121.176"/>
<polygon fill="black" stroke="black" points="275.595,-123.56 280.265,-114.05 270.684,-118.572 275.595,-123.56"/>
</g>
</g>
</svg>
