<?xml version="1.0" encoding="UTF-8" standalone="no"?>
<!DOCTYPE svg PUBLIC "-//W3C//DTD SVG 1.1//EN"
 "http://www.w3.org/Graphics/SVG/1.1/DTD/svg11.dtd">
<!-- Generated by graphviz version 2.26.3 (20100126.1600)
 -->
<!-- Title: program~~integrate_burgers~~CallsGraph Pages: 1 -->
<svg width="318pt" height="210pt"
 viewBox="0.00 0.00 318.00 210.00" xmlns="http://www.w3.org/2000/svg" xmlns:xlink="http://www.w3.org/1999/xlink">
<g id="graph1" class="graph" transform="scale(1 1) rotate(0) translate(4 206)">
<title>program~~integrate_burgers~~CallsGraph</title>
<polygon fill="white" stroke="white" points="-4,5 -4,-206 315,-206 315,5 -4,5"/>
<!-- program~integrate_burgers -->
<g id="node1" class="node"><title>program~integrate_burgers</title>
<polygon fill="none" stroke="black" points="97,-114 1,-114 1,-88 97,-88 97,-114"/>
<text text-anchor="middle" x="49" y="-98.55" font-family="Helvetica,sans-Serif" font-size="10.50">integrate_burgers</text>
</g>
<!-- proc~test_ab -->
<g id="node2" class="node"><title>proc~test_ab</title>
<a xlink:href="../proc/test_ab.html" xlink:title="test_ab">
<polygon fill="#d9534f" stroke="#d9534f" points="194,-202 140,-202 140,-176 194,-176 194,-202"/>
<text text-anchor="middle" x="167" y="-186.55" font-family="Helvetica,sans-Serif" font-size="10.50" fill="white">test_ab</text>
</a>
</g>
<!-- program~integrate_burgers&#45;&gt;proc~test_ab -->
<g id="edge16" class="edge"><title>program~integrate_burgers&#45;&gt;proc~test_ab</title>
<path fill="none" stroke="black" d="M65.0303,-114.007C81.9247,-127.581 109.439,-149.313 134,-167 135.421,-168.024 136.886,-169.061 138.371,-170.099"/>
<polygon fill="black" stroke="black" points="136.718,-173.209 146.948,-175.967 140.671,-167.432 136.718,-173.209"/>
</g>
<!-- proc~init~4 -->
<g id="node3" class="node"><title>proc~init~4</title>
<a xlink:href="../proc/init%7E4.html" xlink:title="init">
<polygon fill="#d9534f" stroke="#d9534f" points="194,-26 140,-26 140,-1.24345e-14 194,-3.55271e-15 194,-26"/>
<text text-anchor="middle" x="167" y="-10.55" font-family="Helvetica,sans-Serif" font-size="10.50" fill="white">init</text>
</a>
</g>
<!-- program~integrate_burgers&#45;&gt;proc~init~4 -->
<g id="edge18" class="edge"><title>program~integrate_burgers&#45;&gt;proc~init~4</title>
<path fill="none" stroke="black" d="M65.0303,-87.9933C81.9247,-74.4189 109.439,-52.6873 134,-35 135.421,-33.9764 136.886,-32.9391 138.371,-31.9008"/>
<polygon fill="black" stroke="black" points="140.671,-34.5684 146.948,-26.033 136.718,-28.7912 140.671,-34.5684"/>
</g>
<!-- proc~test_euler -->
<g id="node4" class="node"><title>proc~test_euler</title>
<a xlink:href="../proc/test_euler.html" xlink:title="test_euler">
<polygon fill="#d9534f" stroke="#d9534f" points="197,-70 137,-70 137,-44 197,-44 197,-70"/>
<text text-anchor="middle" x="167" y="-54.55" font-family="Helvetica,sans-Serif" font-size="10.50" fill="white">test_euler</text>
</a>
</g>
<!-- program~integrate_burgers&#45;&gt;proc~test_euler -->
<g id="edge20" class="edge"><title>program~integrate_burgers&#45;&gt;proc~test_euler</title>
<path fill="none" stroke="black" d="M84.0844,-87.9177C97.6631,-82.8544 113.276,-77.0326 127.266,-71.8161"/>
<polygon fill="black" stroke="black" points="128.5,-75.0915 136.647,-68.3181 126.054,-68.5326 128.5,-75.0915"/>
</g>
<!-- proc~test_ls_rk -->
<g id="node5" class="node"><title>proc~test_ls_rk</title>
<a xlink:href="../proc/test_ls_rk.html" xlink:title="test_ls_rk">
<polygon fill="#d9534f" stroke="#d9534f" points="196,-158 138,-158 138,-132 196,-132 196,-158"/>
<text text-anchor="middle" x="167" y="-142.55" font-family="Helvetica,sans-Serif" font-size="10.50" fill="white">test_ls_rk</text>
</a>
</g>
<!-- program~integrate_burgers&#45;&gt;proc~test_ls_rk -->
<g id="edge22" class="edge"><title>program~integrate_burgers&#45;&gt;proc~test_ls_rk</title>
<path fill="none" stroke="black" d="M84.0844,-114.082C97.9943,-119.269 114.039,-125.252 128.287,-130.564"/>
<polygon fill="black" stroke="black" points="127.222,-133.903 137.815,-134.117 129.668,-127.344 127.222,-133.903"/>
</g>
<!-- proc~test_tvd_rk -->
<g id="node6" class="node"><title>proc~test_tvd_rk</title>
<a xlink:href="../proc/test_tvd_rk.html" xlink:title="test_tvd_rk">
<polygon fill="#d9534f" stroke="#d9534f" points="199,-114 135,-114 135,-88 199,-88 199,-114"/>
<text text-anchor="middle" x="167" y="-98.55" font-family="Helvetica,sans-Serif" font-size="10.50" fill="white">test_tvd_rk</text>
</a>
</g>
<!-- program~integrate_burgers&#45;&gt;proc~test_tvd_rk -->
<g id="edge24" class="edge"><title>program~integrate_burgers&#45;&gt;proc~test_tvd_rk</title>
<path fill="none" stroke="black" d="M97.6764,-101C106.432,-101 115.501,-101 124.08,-101"/>
<polygon fill="black" stroke="black" points="124.246,-104.5 134.246,-101 124.245,-97.5001 124.246,-104.5"/>
</g>
<!-- str -->
<g id="node7" class="node"><title>str</title>
<polygon fill="#777777" stroke="#777777" points="300,-158 246,-158 246,-132 300,-132 300,-158"/>
<text text-anchor="middle" x="273" y="-142.55" font-family="Helvetica,sans-Serif" font-size="10.50" fill="white">str</text>
</g>
<!-- proc~test_ab&#45;&gt;str -->
<g id="edge2" class="edge"><title>proc~test_ab&#45;&gt;str</title>
<path fill="none" stroke="black" d="M194.023,-177.783C206.881,-172.446 222.449,-165.984 236.352,-160.212"/>
<polygon fill="black" stroke="black" points="237.764,-163.416 245.658,-156.349 235.08,-156.951 237.764,-163.416"/>
</g>
<!-- proc~save_results -->
<g id="node8" class="node"><title>proc~save_results</title>
<a xlink:href="../proc/save_results.html" xlink:title="save_results">
<polygon fill="#d9534f" stroke="#d9534f" points="309,-114 237,-114 237,-88 309,-88 309,-114"/>
<text text-anchor="middle" x="273" y="-98.55" font-family="Helvetica,sans-Serif" font-size="10.50" fill="white">save_results</text>
</a>
</g>
<!-- proc~test_ab&#45;&gt;proc~save_results -->
<g id="edge4" class="edge"><title>proc~test_ab&#45;&gt;proc~save_results</title>
<path fill="none" stroke="black" d="M188.64,-175.921C192.577,-173.172 196.531,-170.145 200,-167 218.718,-150.028 216.851,-139.484 236,-123 237.285,-121.894 238.633,-120.811 240.022,-119.756"/>
<polygon fill="black" stroke="black" points="242.047,-122.611 248.287,-114.049 238.069,-116.851 242.047,-122.611"/>
</g>
<!-- proc~test_euler&#45;&gt;proc~save_results -->
<g id="edge6" class="edge"><title>proc~test_euler&#45;&gt;proc~save_results</title>
<path fill="none" stroke="black" d="M197.092,-69.4909C207.899,-73.9768 220.279,-79.1159 231.863,-83.9242"/>
<polygon fill="black" stroke="black" points="230.776,-87.2625 241.354,-87.8637 233.459,-80.7973 230.776,-87.2625"/>
</g>
<!-- proc~test_ls_rk&#45;&gt;str -->
<g id="edge8" class="edge"><title>proc~test_ls_rk&#45;&gt;str</title>
<path fill="none" stroke="black" d="M196.246,-145C208.431,-145 222.728,-145 235.659,-145"/>
<polygon fill="black" stroke="black" points="235.67,-148.5 245.67,-145 235.67,-141.5 235.67,-148.5"/>
</g>
<!-- proc~test_ls_rk&#45;&gt;proc~save_results -->
<g id="edge10" class="edge"><title>proc~test_ls_rk&#45;&gt;proc~save_results</title>
<path fill="none" stroke="black" d="M196.246,-132.86C207.367,-128.244 220.248,-122.897 232.243,-117.918"/>
<polygon fill="black" stroke="black" points="233.729,-121.091 241.623,-114.024 231.046,-114.626 233.729,-121.091"/>
</g>
<!-- proc~test_tvd_rk&#45;&gt;str -->
<g id="edge12" class="edge"><title>proc~test_tvd_rk&#45;&gt;str</title>
<path fill="none" stroke="black" d="M198.517,-114.082C210.362,-119 223.932,-124.632 236.216,-129.731"/>
<polygon fill="black" stroke="black" points="235.156,-133.081 245.734,-133.682 237.839,-126.615 235.156,-133.081"/>
</g>
<!-- proc~test_tvd_rk&#45;&gt;proc~save_results -->
<g id="edge14" class="edge"><title>proc~test_tvd_rk&#45;&gt;proc~save_results</title>
<path fill="none" stroke="black" d="M199.668,-101C207.976,-101 217.068,-101 225.936,-101"/>
<polygon fill="black" stroke="black" points="226.183,-104.5 236.183,-101 226.183,-97.5001 226.183,-104.5"/>
</g>
</g>
</svg>
