<?xml version="1.0" encoding="UTF-8" standalone="no"?>
<!DOCTYPE svg PUBLIC "-//W3C//DTD SVG 1.1//EN"
 "http://www.w3.org/Graphics/SVG/1.1/DTD/svg11.dtd">
<!-- Generated by graphviz version 2.26.3 (20100126.1600)
 -->
<!-- Title: program~~integrate_lorenz~~CallsGraph Pages: 1 -->
<svg width="462pt" height="122pt"
 viewBox="0.00 0.00 462.00 122.00" xmlns="http://www.w3.org/2000/svg" xmlns:xlink="http://www.w3.org/1999/xlink">
<g id="graph1" class="graph" transform="scale(1 1) rotate(0) translate(4 118)">
<title>program~~integrate_lorenz~~CallsGraph</title>
<polygon fill="white" stroke="white" points="-4,5 -4,-118 459,-118 459,5 -4,5"/>
<!-- program~integrate_lorenz -->
<g id="node1" class="node"><title>program~integrate_lorenz</title>
<polygon fill="none" stroke="black" points="90,-70 4.26326e-14,-70 0,-44 90,-44 90,-70"/>
<text text-anchor="middle" x="45" y="-54.55" font-family="Helvetica,sans-Serif" font-size="10.50">integrate_lorenz</text>
</g>
<!-- proc~test_ab~2 -->
<g id="node2" class="node"><title>proc~test_ab~2</title>
<a xlink:href="../proc/test_ab%7E2.html" xlink:title="test_ab">
<polygon fill="#d9534f" stroke="#d9534f" points="183,-26 129,-26 129,-1.24345e-14 183,-3.55271e-15 183,-26"/>
<text text-anchor="middle" x="156" y="-10.55" font-family="Helvetica,sans-Serif" font-size="10.50" fill="white">test_ab</text>
</a>
</g>
<!-- program~integrate_lorenz&#45;&gt;proc~test_ab~2 -->
<g id="edge18" class="edge"><title>program~integrate_lorenz&#45;&gt;proc~test_ab~2</title>
<path fill="none" stroke="black" d="M78.0031,-43.9177C91.0649,-38.74 106.128,-32.7692 119.513,-27.4635"/>
<polygon fill="black" stroke="black" points="120.903,-30.6773 128.91,-23.7385 118.324,-24.1699 120.903,-30.6773"/>
</g>
<!-- proc~test_euler~3 -->
<g id="node3" class="node"><title>proc~test_euler~3</title>
<a xlink:href="../proc/test_euler%7E3.html" xlink:title="test_euler">
<polygon fill="#d9534f" stroke="#d9534f" points="186,-114 126,-114 126,-88 186,-88 186,-114"/>
<text text-anchor="middle" x="156" y="-98.55" font-family="Helvetica,sans-Serif" font-size="10.50" fill="white">test_euler</text>
</a>
</g>
<!-- program~integrate_lorenz&#45;&gt;proc~test_euler~3 -->
<g id="edge20" class="edge"><title>program~integrate_lorenz&#45;&gt;proc~test_euler~3</title>
<path fill="none" stroke="black" d="M78.0031,-70.0823C90.1233,-74.8867 103.966,-80.3741 116.593,-85.3792"/>
<polygon fill="black" stroke="black" points="115.377,-88.662 125.963,-89.0934 117.956,-82.1546 115.377,-88.662"/>
</g>
<!-- proc~test_rk~2 -->
<g id="node4" class="node"><title>proc~test_rk~2</title>
<a xlink:href="../proc/test_rk%7E2.html" xlink:title="test_rk">
<polygon fill="#d9534f" stroke="#d9534f" points="183,-70 129,-70 129,-44 183,-44 183,-70"/>
<text text-anchor="middle" x="156" y="-54.55" font-family="Helvetica,sans-Serif" font-size="10.50" fill="white">test_rk</text>
</a>
</g>
<!-- program~integrate_lorenz&#45;&gt;proc~test_rk~2 -->
<g id="edge22" class="edge"><title>program~integrate_lorenz&#45;&gt;proc~test_rk~2</title>
<path fill="none" stroke="black" d="M90.1479,-57C99.5526,-57 109.368,-57 118.463,-57"/>
<polygon fill="black" stroke="black" points="118.74,-60.5001 128.74,-57 118.74,-53.5001 118.74,-60.5001"/>
</g>
<!-- proc~save_results~3 -->
<g id="node5" class="node"><title>proc~save_results~3</title>
<a xlink:href="../proc/save_results%7E3.html" xlink:title="save_results">
<polygon fill="#d9534f" stroke="#d9534f" points="329,-114 257,-114 257,-88 329,-88 329,-114"/>
<text text-anchor="middle" x="293" y="-98.55" font-family="Helvetica,sans-Serif" font-size="10.50" fill="white">save_results</text>
</a>
</g>
<!-- proc~test_ab~2&#45;&gt;proc~save_results~3 -->
<g id="edge4" class="edge"><title>proc~test_ab~2&#45;&gt;proc~save_results~3</title>
<path fill="none" stroke="black" d="M175.302,-26.0379C178.99,-28.8343 182.72,-31.8889 186,-35 204.333,-52.3869 201.044,-64.8843 222,-79 229.388,-83.9761 237.953,-87.8682 246.524,-90.8991"/>
<polygon fill="black" stroke="black" points="245.55,-94.2621 256.14,-93.967 247.677,-87.5932 245.55,-94.2621"/>
</g>
<!-- str -->
<g id="node6" class="node"><title>str</title>
<polygon fill="#777777" stroke="#777777" points="320,-26 266,-26 266,-1.24345e-14 320,-3.55271e-15 320,-26"/>
<text text-anchor="middle" x="293" y="-10.55" font-family="Helvetica,sans-Serif" font-size="10.50" fill="white">str</text>
</g>
<!-- proc~test_ab~2&#45;&gt;str -->
<g id="edge6" class="edge"><title>proc~test_ab~2&#45;&gt;str</title>
<path fill="none" stroke="black" d="M183.067,-13C203.895,-13 232.909,-13 255.901,-13"/>
<polygon fill="black" stroke="black" points="255.989,-16.5001 265.989,-13 255.989,-9.5001 255.989,-16.5001"/>
</g>
<!-- interface~tvd_runge_kutta_integrator -->
<g id="node7" class="node"><title>interface~tvd_runge_kutta_integrator</title>
<a xlink:href="../interface/tvd_runge_kutta_integrator.html" xlink:title="tvd_runge_kutta_integrator">
<polygon fill="#a7506f" stroke="#a7506f" points="364,-70 222,-70 222,-44 364,-44 364,-70"/>
<text text-anchor="middle" x="293" y="-54.55" font-family="Helvetica,sans-Serif" font-size="10.50" fill="white">tvd_runge_kutta_integrator</text>
</a>
</g>
<!-- proc~test_ab~2&#45;&gt;interface~tvd_runge_kutta_integrator -->
<g id="edge8" class="edge"><title>proc~test_ab~2&#45;&gt;interface~tvd_runge_kutta_integrator</title>
<path fill="none" stroke="black" d="M183.252,-22.2286C195.134,-26.2148 209.237,-30.8959 222,-35 227.966,-36.9184 234.223,-38.9006 240.447,-40.8534"/>
<polygon fill="black" stroke="black" points="239.564,-44.2442 250.152,-43.8845 241.651,-37.5625 239.564,-44.2442"/>
</g>
<!-- proc~test_euler~3&#45;&gt;proc~save_results~3 -->
<g id="edge10" class="edge"><title>proc~test_euler~3&#45;&gt;proc~save_results~3</title>
<path fill="none" stroke="black" d="M186.065,-101C203.706,-101 226.374,-101 246.297,-101"/>
<polygon fill="black" stroke="black" points="246.424,-104.5 256.424,-101 246.424,-97.5001 246.424,-104.5"/>
</g>
<!-- proc~test_rk~2&#45;&gt;proc~save_results~3 -->
<g id="edge12" class="edge"><title>proc~test_rk~2&#45;&gt;proc~save_results~3</title>
<path fill="none" stroke="black" d="M183.252,-66.2286C195.134,-70.2148 209.237,-74.8959 222,-79 230.035,-81.5838 238.599,-84.2834 246.897,-86.8709"/>
<polygon fill="black" stroke="black" points="245.88,-90.22 256.469,-89.8434 247.957,-83.5349 245.88,-90.22"/>
</g>
<!-- proc~test_rk~2&#45;&gt;str -->
<g id="edge14" class="edge"><title>proc~test_rk~2&#45;&gt;str</title>
<path fill="none" stroke="black" d="M183.252,-47.7714C195.134,-43.7852 209.237,-39.1041 222,-35 233.099,-31.4311 245.206,-27.6413 256.229,-24.2309"/>
<polygon fill="black" stroke="black" points="257.461,-27.5136 265.986,-21.2228 255.398,-20.8243 257.461,-27.5136"/>
</g>
<!-- proc~test_rk~2&#45;&gt;interface~tvd_runge_kutta_integrator -->
<g id="edge16" class="edge"><title>proc~test_rk~2&#45;&gt;interface~tvd_runge_kutta_integrator</title>
<path fill="none" stroke="black" d="M183.067,-57C191.636,-57 201.59,-57 211.94,-57"/>
<polygon fill="black" stroke="black" points="211.953,-60.5001 221.953,-57 211.953,-53.5001 211.953,-60.5001"/>
</g>
<!-- proc~create -->
<g id="node8" class="node"><title>proc~create</title>
<a xlink:href="../proc/create.html" xlink:title="create">
<polygon fill="#d94e8f" stroke="#d94e8f" points="454,-70 400,-70 400,-44 454,-44 454,-70"/>
<text text-anchor="middle" x="427" y="-54.55" font-family="Helvetica,sans-Serif" font-size="10.50" fill="white">create</text>
</a>
</g>
<!-- interface~tvd_runge_kutta_integrator&#45;&gt;proc~create -->
<g id="edge2" class="edge"><title>interface~tvd_runge_kutta_integrator&#45;&gt;proc~create</title>
<path fill="none" stroke="black" stroke-dasharray="5,2" d="M364.316,-57C373.094,-57 381.774,-57 389.748,-57"/>
<polygon fill="black" stroke="black" points="389.773,-60.5001 399.773,-57 389.773,-53.5001 389.773,-60.5001"/>
</g>
</g>
</svg>
