<?xml version="1.0" encoding="UTF-8" standalone="no"?>
<!DOCTYPE svg PUBLIC "-//W3C//DTD SVG 1.1//EN"
 "http://www.w3.org/Graphics/SVG/1.1/DTD/svg11.dtd">
<!-- Generated by graphviz version 2.26.3 (20100126.1600)
 -->
<!-- Title: program~~integrate_oscillation~~UsesGraph Pages: 1 -->
<svg width="641pt" height="169pt"
 viewBox="0.00 0.00 641.00 169.43" xmlns="http://www.w3.org/2000/svg" xmlns:xlink="http://www.w3.org/1999/xlink">
<g id="graph1" class="graph" transform="scale(0.721847 0.721847) rotate(0) translate(4 230.724)">
<title>program~~integrate_oscillation~~UsesGraph</title>
<polygon fill="white" stroke="white" points="-4,5 -4,-230.724 885,-230.724 885,5 -4,5"/>
<!-- program~integrate_oscillation -->
<g id="node1" class="node"><title>program~integrate_oscillation</title>
<polygon fill="none" stroke="black" points="879,-147.237 773,-147.237 773,-121.237 879,-121.237 879,-147.237"/>
<text text-anchor="middle" x="826" y="-131.787" font-family="Helvetica,sans-Serif" font-size="10.50">integrate_oscillation</text>
</g>
<!-- IR_Precision -->
<g id="node2" class="node"><title>IR_Precision</title>
<polygon fill="#337ab7" stroke="#337ab7" points="73,-107.237 1,-107.237 1,-81.2369 73,-81.2369 73,-107.237"/>
<text text-anchor="middle" x="37" y="-91.7869" font-family="Helvetica,sans-Serif" font-size="10.50" fill="white">IR_Precision</text>
</g>
<!-- IR_Precision&#45;&gt;program~integrate_oscillation -->
<g id="edge28" class="edge"><title>IR_Precision&#45;&gt;program~integrate_oscillation</title>
<path fill="none" stroke="black" stroke-dasharray="5,2" d="M152,-197.237C358.018,-262.141 422.005,-198.722 638,-197.237"/>
</g>
<!-- module~type_oscillation -->
<g id="node6" class="node"><title>module~type_oscillation</title>
<a xlink:href="../module/type_oscillation.html" xlink:title="type_oscillation">
<polygon fill="#337ab7" stroke="#337ab7" points="680,-81.2369 596,-81.2369 596,-55.2369 680,-55.2369 680,-81.2369"/>
<text text-anchor="middle" x="638" y="-65.7869" font-family="Helvetica,sans-Serif" font-size="10.50" fill="white">type_oscillation</text>
</a>
</g>
<!-- IR_Precision&#45;&gt;module~type_oscillation -->
<g id="edge24" class="edge"><title>IR_Precision&#45;&gt;module~type_oscillation</title>
<path fill="none" stroke="black" stroke-dasharray="5,2" d="M54.0979,-80.9646C75.556,-65.2363 114.153,-39.9404 152,-30.2369"/>
<path fill="none" stroke="black" stroke-dasharray="5,2" d="M152,-30.2369C186.891,-21.2916 194.321,-13.1724 230,-8.23694 311.006,2.96845 332.921,2.43372 414,-8.23694 476.714,-16.4907 546.823,-37.2137 591.628,-51.9912"/>
<polygon fill="black" stroke="black" points="590.751,-55.3884 601.345,-55.2341 592.967,-48.7484 590.751,-55.3884"/>
</g>
<!-- module~foodie_integrator_adams_bashforth -->
<g id="node7" class="node"><title>module~foodie_integrator_adams_bashforth</title>
<a xlink:href="../module/foodie_integrator_adams_bashforth.html" xlink:title="foodie_integrator_adams_bashforth">
<polygon fill="#337ab7" stroke="#337ab7" points="413,-87.2369 231,-87.2369 231,-61.2369 413,-61.2369 413,-87.2369"/>
<text text-anchor="middle" x="322" y="-71.7869" font-family="Helvetica,sans-Serif" font-size="10.50" fill="white">foodie_integrator_adams_bashforth</text>
</a>
</g>
<!-- IR_Precision&#45;&gt;module~foodie_integrator_adams_bashforth -->
<g id="edge2" class="edge"><title>IR_Precision&#45;&gt;module~foodie_integrator_adams_bashforth</title>
<path fill="none" stroke="black" stroke-dasharray="5,2" d="M152,-30.2369C186.891,-21.2916 195.144,-43.1577 230,-52.2369 238.429,-54.4325 247.315,-56.6627 256.105,-58.8189"/>
<polygon fill="black" stroke="black" points="255.417,-62.2534 265.961,-61.216 257.072,-55.4517 255.417,-62.2534"/>
</g>
<!-- module~foodie_integrator_tvd_runge_kutta -->
<g id="node8" class="node"><title>module~foodie_integrator_tvd_runge_kutta</title>
<a xlink:href="../module/foodie_integrator_tvd_runge_kutta.html" xlink:title="foodie_integrator_tvd_runge_kutta">
<polygon fill="#337ab7" stroke="#337ab7" points="410,-43.2369 234,-43.2369 234,-17.2369 410,-17.2369 410,-43.2369"/>
<text text-anchor="middle" x="322" y="-27.7869" font-family="Helvetica,sans-Serif" font-size="10.50" fill="white">foodie_integrator_tvd_runge_kutta</text>
</a>
</g>
<!-- IR_Precision&#45;&gt;module~foodie_integrator_tvd_runge_kutta -->
<g id="edge6" class="edge"><title>IR_Precision&#45;&gt;module~foodie_integrator_tvd_runge_kutta</title>
<path fill="none" stroke="black" stroke-dasharray="5,2" d="M152,-30.2369C174.639,-24.4327 199.539,-22.2192 223.134,-21.9305"/>
<polygon fill="black" stroke="black" points="223.16,-25.4306 233.156,-21.9197 223.152,-18.4306 223.16,-25.4306"/>
</g>
<!-- module~type_integrand -->
<g id="node9" class="node"><title>module~type_integrand</title>
<a xlink:href="../module/type_integrand.html" xlink:title="type_integrand">
<polygon fill="#337ab7" stroke="#337ab7" points="194,-107.237 110,-107.237 110,-81.2369 194,-81.2369 194,-107.237"/>
<text text-anchor="middle" x="152" y="-91.7869" font-family="Helvetica,sans-Serif" font-size="10.50" fill="white">type_integrand</text>
</a>
</g>
<!-- IR_Precision&#45;&gt;module~type_integrand -->
<g id="edge10" class="edge"><title>IR_Precision&#45;&gt;module~type_integrand</title>
<path fill="none" stroke="black" stroke-dasharray="5,2" d="M73.7029,-94.2369C81.9237,-94.2369 90.8,-94.2369 99.521,-94.2369"/>
<polygon fill="black" stroke="black" points="99.6389,-97.737 109.639,-94.2369 99.6388,-90.737 99.6389,-97.737"/>
</g>
<!-- module~foodie_integrator_euler_explicit -->
<g id="node10" class="node"><title>module~foodie_integrator_euler_explicit</title>
<a xlink:href="../module/foodie_integrator_euler_explicit.html" xlink:title="foodie_integrator_euler_explicit">
<polygon fill="#337ab7" stroke="#337ab7" points="403,-169.237 241,-169.237 241,-143.237 403,-143.237 403,-169.237"/>
<text text-anchor="middle" x="322" y="-153.787" font-family="Helvetica,sans-Serif" font-size="10.50" fill="white">foodie_integrator_euler_explicit</text>
</a>
</g>
<!-- IR_Precision&#45;&gt;module~foodie_integrator_euler_explicit -->
<g id="edge12" class="edge"><title>IR_Precision&#45;&gt;module~foodie_integrator_euler_explicit</title>
<path fill="none" stroke="black" stroke-dasharray="5,2" d="M45.7657,-107.431C62.7711,-131.568 102.917,-181.774 152,-197.237"/>
<path fill="none" stroke="black" stroke-dasharray="5,2" d="M152,-197.237C163.196,-200.764 222.906,-185.067 268.429,-172.085"/>
<polygon fill="black" stroke="black" points="269.55,-175.405 278.195,-169.28 267.618,-168.677 269.55,-175.405"/>
</g>
<!-- module~foodie -->
<g id="node3" class="node"><title>module~foodie</title>
<a xlink:href="../module/foodie.html" xlink:title="foodie">
<polygon fill="#337ab7" stroke="#337ab7" points="504,-107.237 450,-107.237 450,-81.2369 504,-81.2369 504,-107.237"/>
<text text-anchor="middle" x="477" y="-91.7869" font-family="Helvetica,sans-Serif" font-size="10.50" fill="white">foodie</text>
</a>
</g>
<!-- module~foodie&#45;&gt;program~integrate_oscillation -->
<g id="edge30" class="edge"><title>module~foodie&#45;&gt;program~integrate_oscillation</title>
<path fill="none" stroke="black" stroke-dasharray="5,2" d="M483.007,-107.447C492.341,-126.37 512.189,-160.824 540,-178.237 577.604,-201.781 593.634,-197.542 638,-197.237"/>
<path fill="none" stroke="black" stroke-dasharray="5,2" d="M638,-197.237C682.366,-196.932 693.929,-192.324 736,-178.237 756.177,-171.481 777.624,-161.133 794.519,-152.169"/>
<polygon fill="black" stroke="black" points="796.271,-155.201 803.4,-147.364 792.939,-149.045 796.271,-155.201"/>
</g>
<!-- module~foodie&#45;&gt;module~type_oscillation -->
<g id="edge26" class="edge"><title>module~foodie&#45;&gt;module~type_oscillation</title>
<path fill="none" stroke="black" stroke-dasharray="5,2" d="M504.311,-89.8264C526.427,-86.255 558.236,-81.118 585.279,-76.7509"/>
<polygon fill="black" stroke="black" points="586.066,-80.1693 595.38,-75.1197 584.95,-73.2588 586.066,-80.1693"/>
</g>
<!-- pyplot_module -->
<g id="node4" class="node"><title>pyplot_module</title>
<polygon fill="#337ab7" stroke="#337ab7" points="679,-169.237 597,-169.237 597,-143.237 679,-143.237 679,-169.237"/>
<text text-anchor="middle" x="638" y="-153.787" font-family="Helvetica,sans-Serif" font-size="10.50" fill="white">pyplot_module</text>
</g>
<!-- pyplot_module&#45;&gt;program~integrate_oscillation -->
<g id="edge32" class="edge"><title>pyplot_module&#45;&gt;program~integrate_oscillation</title>
<path fill="none" stroke="black" stroke-dasharray="5,2" d="M679.257,-151.409C703.506,-148.571 734.677,-144.924 762.05,-141.72"/>
<polygon fill="black" stroke="black" points="762.807,-145.156 772.332,-140.517 761.993,-138.203 762.807,-145.156"/>
</g>
<!-- Data_Type_Command_Line_Interface -->
<g id="node5" class="node"><title>Data_Type_Command_Line_Interface</title>
<polygon fill="#337ab7" stroke="#337ab7" points="735,-125.237 541,-125.237 541,-99.2369 735,-99.2369 735,-125.237"/>
<text text-anchor="middle" x="638" y="-109.787" font-family="Helvetica,sans-Serif" font-size="10.50" fill="white">Data_Type_Command_Line_Interface</text>
</g>
<!-- Data_Type_Command_Line_Interface&#45;&gt;program~integrate_oscillation -->
<g id="edge34" class="edge"><title>Data_Type_Command_Line_Interface&#45;&gt;program~integrate_oscillation</title>
<path fill="none" stroke="black" stroke-dasharray="5,2" d="M735.579,-123.656C744.705,-124.724 753.785,-125.786 762.475,-126.803"/>
<polygon fill="black" stroke="black" points="762.138,-130.288 772.478,-127.974 762.952,-123.335 762.138,-130.288"/>
</g>
<!-- module~type_oscillation&#45;&gt;program~integrate_oscillation -->
<g id="edge36" class="edge"><title>module~type_oscillation&#45;&gt;program~integrate_oscillation</title>
<path fill="none" stroke="black" stroke-dasharray="5,2" d="M680.575,-75.5365C698.014,-79.1055 718.232,-83.9961 736,-90.2369 755.938,-97.2397 777.223,-107.507 794.086,-116.362"/>
<polygon fill="black" stroke="black" points="792.493,-119.479 802.962,-121.106 795.793,-113.305 792.493,-119.479"/>
</g>
<!-- module~foodie_integrator_adams_bashforth&#45;&gt;module~foodie -->
<g id="edge16" class="edge"><title>module~foodie_integrator_adams_bashforth&#45;&gt;module~foodie</title>
<path fill="none" stroke="black" stroke-dasharray="5,2" d="M413.508,-86.0445C422.714,-87.2323 431.647,-88.385 439.764,-89.4323"/>
<polygon fill="black" stroke="black" points="439.554,-92.9341 449.919,-90.7427 440.45,-85.9916 439.554,-92.9341"/>
</g>
<!-- module~foodie_integrator_tvd_runge_kutta&#45;&gt;module~foodie -->
<g id="edge18" class="edge"><title>module~foodie_integrator_tvd_runge_kutta&#45;&gt;module~foodie</title>
<path fill="none" stroke="black" stroke-dasharray="5,2" d="M389.243,-43.3775C397.729,-45.8871 406.173,-48.8223 414,-52.2369 427.634,-58.1847 441.524,-67.0803 452.78,-75.1558"/>
<polygon fill="black" stroke="black" points="450.705,-77.9747 460.826,-81.1088 454.868,-72.3474 450.705,-77.9747"/>
</g>
<!-- module~type_integrand&#45;&gt;module~foodie -->
<g id="edge20" class="edge"><title>module~type_integrand&#45;&gt;module~foodie</title>
<path fill="none" stroke="black" stroke-dasharray="5,2" d="M194.096,-95.5139C205.726,-95.8129 218.351,-96.0876 230,-96.2369 311.771,-97.2851 332.233,-97.5345 414,-96.2369 422.323,-96.1049 431.263,-95.8747 439.718,-95.6164"/>
<polygon fill="black" stroke="black" points="439.835,-99.1145 449.716,-95.292 439.608,-92.1182 439.835,-99.1145"/>
</g>
<!-- module~type_integrand&#45;&gt;module~foodie_integrator_adams_bashforth -->
<g id="edge4" class="edge"><title>module~type_integrand&#45;&gt;module~foodie_integrator_adams_bashforth</title>
<path fill="none" stroke="black" stroke-dasharray="5,2" d="M194.022,-89.2931C202.182,-88.3332 211.058,-87.2889 220.205,-86.2129"/>
<polygon fill="black" stroke="black" points="220.692,-89.6797 230.215,-85.0352 219.874,-82.7277 220.692,-89.6797"/>
</g>
<!-- module~type_integrand&#45;&gt;module~foodie_integrator_tvd_runge_kutta -->
<g id="edge8" class="edge"><title>module~type_integrand&#45;&gt;module~foodie_integrator_tvd_runge_kutta</title>
<path fill="none" stroke="black" stroke-dasharray="5,2" d="M172.812,-81.1032C188.133,-71.9205 209.738,-59.9642 230,-52.2369 235.841,-50.0096 241.978,-47.9583 248.195,-46.0798"/>
<polygon fill="black" stroke="black" points="249.351,-49.3897 257.999,-43.2699 247.422,-42.6606 249.351,-49.3897"/>
</g>
<!-- module~type_integrand&#45;&gt;module~foodie_integrator_euler_explicit -->
<g id="edge14" class="edge"><title>module~type_integrand&#45;&gt;module~foodie_integrator_euler_explicit</title>
<path fill="none" stroke="black" stroke-dasharray="5,2" d="M178.698,-107.305C193.59,-114.317 212.595,-122.812 230,-129.237 240.629,-133.16 252.109,-136.906 263.236,-140.291"/>
<polygon fill="black" stroke="black" points="262.311,-143.668 272.894,-143.169 264.31,-136.959 262.311,-143.668"/>
</g>
<!-- module~foodie_integrator_euler_explicit&#45;&gt;module~foodie -->
<g id="edge22" class="edge"><title>module~foodie_integrator_euler_explicit&#45;&gt;module~foodie</title>
<path fill="none" stroke="black" stroke-dasharray="5,2" d="M373.797,-143.217C387.103,-139.283 401.255,-134.57 414,-129.237 425.338,-124.493 437.25,-118.237 447.627,-112.327"/>
<polygon fill="black" stroke="black" points="449.423,-115.331 456.297,-107.27 445.896,-109.285 449.423,-115.331"/>
</g>
</g>
</svg>
