<?xml version="1.0" encoding="UTF-8" standalone="no"?>
<!DOCTYPE svg PUBLIC "-//W3C//DTD SVG 1.1//EN"
 "http://www.w3.org/Graphics/SVG/1.1/DTD/svg11.dtd">
<!-- Generated by graphviz version 2.26.3 (20100126.1600)
 -->
<!-- Title: program~~integrate_euler_1d~~CallsGraph Pages: 1 -->
<svg width="432pt" height="210pt"
 viewBox="0.00 0.00 432.00 210.00" xmlns="http://www.w3.org/2000/svg" xmlns:xlink="http://www.w3.org/1999/xlink">
<g id="graph1" class="graph" transform="scale(1 1) rotate(0) translate(4 206)">
<title>program~~integrate_euler_1d~~CallsGraph</title>
<polygon fill="white" stroke="white" points="-4,5 -4,-206 429,-206 429,5 -4,5"/>
<!-- program~integrate_euler_1d -->
<g id="node1" class="node"><title>program~integrate_euler_1d</title>
<polygon fill="none" stroke="black" points="104,-114 3.55271e-14,-114 0,-88 104,-88 104,-114"/>
<text text-anchor="middle" x="52" y="-98.55" font-family="Helvetica,sans-Serif" font-size="10.50">integrate_euler_1D</text>
</g>
<!-- proc~test_ab~2 -->
<g id="node2" class="node"><title>proc~test_ab~2</title>
<a xlink:href="../proc/test_ab%7E2.html" xlink:title="test_ab">
<polygon fill="#d9534f" stroke="#d9534f" points="200,-202 146,-202 146,-176 200,-176 200,-202"/>
<text text-anchor="middle" x="173" y="-186.55" font-family="Helvetica,sans-Serif" font-size="10.50" fill="white">test_ab</text>
</a>
</g>
<!-- program~integrate_euler_1d&#45;&gt;proc~test_ab~2 -->
<g id="edge30" class="edge"><title>program~integrate_euler_1d&#45;&gt;proc~test_ab~2</title>
<path fill="none" stroke="black" d="M68.9919,-114.184C86.5654,-127.715 114.9,-149.242 140,-167 141.43,-168.012 142.901,-169.039 144.392,-170.07"/>
<polygon fill="black" stroke="black" points="142.748,-173.185 152.985,-175.914 146.685,-167.397 142.748,-173.185"/>
</g>
<!-- proc~init~6 -->
<g id="node3" class="node"><title>proc~init~6</title>
<a xlink:href="../proc/init%7E6.html" xlink:title="init">
<polygon fill="#d9534f" stroke="#d9534f" points="200,-26 146,-26 146,-1.24345e-14 200,-3.55271e-15 200,-26"/>
<text text-anchor="middle" x="173" y="-10.55" font-family="Helvetica,sans-Serif" font-size="10.50" fill="white">init</text>
</a>
</g>
<!-- program~integrate_euler_1d&#45;&gt;proc~init~6 -->
<g id="edge32" class="edge"><title>program~integrate_euler_1d&#45;&gt;proc~init~6</title>
<path fill="none" stroke="black" d="M68.9919,-87.8155C86.5654,-74.2845 114.9,-52.7583 140,-35 141.43,-33.9884 142.901,-32.9606 144.392,-31.9298"/>
<polygon fill="black" stroke="black" points="146.685,-34.6035 152.985,-26.0856 142.748,-28.8153 146.685,-34.6035"/>
</g>
<!-- proc~test_euler~2 -->
<g id="node4" class="node"><title>proc~test_euler~2</title>
<a xlink:href="../proc/test_euler%7E2.html" xlink:title="test_euler">
<polygon fill="#d9534f" stroke="#d9534f" points="203,-158 143,-158 143,-132 203,-132 203,-158"/>
<text text-anchor="middle" x="173" y="-142.55" font-family="Helvetica,sans-Serif" font-size="10.50" fill="white">test_euler</text>
</a>
</g>
<!-- program~integrate_euler_1d&#45;&gt;proc~test_euler~2 -->
<g id="edge34" class="edge"><title>program~integrate_euler_1d&#45;&gt;proc~test_euler~2</title>
<path fill="none" stroke="black" d="M87.9764,-114.082C102.127,-119.228 118.432,-125.157 132.954,-130.438"/>
<polygon fill="black" stroke="black" points="132.081,-133.845 142.675,-133.973 134.473,-127.266 132.081,-133.845"/>
</g>
<!-- proc~test_ls_rk~2 -->
<g id="node5" class="node"><title>proc~test_ls_rk~2</title>
<a xlink:href="../proc/test_ls_rk%7E2.html" xlink:title="test_ls_rk">
<polygon fill="#d9534f" stroke="#d9534f" points="202,-114 144,-114 144,-88 202,-88 202,-114"/>
<text text-anchor="middle" x="173" y="-98.55" font-family="Helvetica,sans-Serif" font-size="10.50" fill="white">test_ls_rk</text>
</a>
</g>
<!-- program~integrate_euler_1d&#45;&gt;proc~test_ls_rk~2 -->
<g id="edge36" class="edge"><title>program~integrate_euler_1d&#45;&gt;proc~test_ls_rk~2</title>
<path fill="none" stroke="black" d="M104.017,-101C113.883,-101 124.056,-101 133.459,-101"/>
<polygon fill="black" stroke="black" points="133.69,-104.5 143.69,-101 133.69,-97.5001 133.69,-104.5"/>
</g>
<!-- proc~test_tvd_rk~2 -->
<g id="node6" class="node"><title>proc~test_tvd_rk~2</title>
<a xlink:href="../proc/test_tvd_rk%7E2.html" xlink:title="test_tvd_rk">
<polygon fill="#d9534f" stroke="#d9534f" points="205,-70 141,-70 141,-44 205,-44 205,-70"/>
<text text-anchor="middle" x="173" y="-54.55" font-family="Helvetica,sans-Serif" font-size="10.50" fill="white">test_tvd_rk</text>
</a>
</g>
<!-- program~integrate_euler_1d&#45;&gt;proc~test_tvd_rk~2 -->
<g id="edge38" class="edge"><title>program~integrate_euler_1d&#45;&gt;proc~test_tvd_rk~2</title>
<path fill="none" stroke="black" d="M87.9764,-87.9177C101.447,-83.0191 116.871,-77.4105 130.851,-72.3269"/>
<polygon fill="black" stroke="black" points="132.055,-75.6134 140.257,-68.9066 129.663,-69.0348 132.055,-75.6134"/>
</g>
<!-- str -->
<g id="node7" class="node"><title>str</title>
<polygon fill="#777777" stroke="#777777" points="424,-136 370,-136 370,-110 424,-110 424,-136"/>
<text text-anchor="middle" x="397" y="-120.55" font-family="Helvetica,sans-Serif" font-size="10.50" fill="white">str</text>
</g>
<!-- proc~test_ab~2&#45;&gt;str -->
<g id="edge6" class="edge"><title>proc~test_ab~2&#45;&gt;str</title>
<path fill="none" stroke="black" d="M200.186,-193.915C233.251,-198.625 290.087,-202.574 334,-184 353.508,-175.749 370.419,-158.45 381.794,-144.374"/>
<polygon fill="black" stroke="black" points="384.809,-146.196 388.136,-136.136 379.262,-141.926 384.809,-146.196"/>
</g>
<!-- proc~save_time_serie -->
<g id="node8" class="node"><title>proc~save_time_serie</title>
<a xlink:href="../proc/save_time_serie.html" xlink:title="save_time_serie">
<polygon fill="#d9534f" stroke="#d9534f" points="333,-158 243,-158 243,-132 333,-132 333,-158"/>
<text text-anchor="middle" x="288" y="-142.55" font-family="Helvetica,sans-Serif" font-size="10.50" fill="white">save_time_serie</text>
</a>
</g>
<!-- proc~test_ab~2&#45;&gt;proc~save_time_serie -->
<g id="edge8" class="edge"><title>proc~test_ab~2&#45;&gt;proc~save_time_serie</title>
<path fill="none" stroke="black" d="M200.253,-178.573C213.439,-173.528 229.591,-167.348 244.426,-161.672"/>
<polygon fill="black" stroke="black" points="245.852,-164.874 253.941,-158.031 243.351,-158.336 245.852,-164.874"/>
</g>
<!-- proc~save_results~2 -->
<g id="node9" class="node"><title>proc~save_results~2</title>
<a xlink:href="../proc/save_results%7E2.html" xlink:title="save_results">
<polygon fill="#d9534f" stroke="#d9534f" points="324,-114 252,-114 252,-88 324,-88 324,-114"/>
<text text-anchor="middle" x="288" y="-98.55" font-family="Helvetica,sans-Serif" font-size="10.50" fill="white">save_results</text>
</a>
</g>
<!-- proc~test_ab~2&#45;&gt;proc~save_results~2 -->
<g id="edge10" class="edge"><title>proc~test_ab~2&#45;&gt;proc~save_results~2</title>
<path fill="none" stroke="black" d="M194.64,-175.921C198.577,-173.172 202.531,-170.145 206,-167 224.718,-150.028 222.126,-138.603 242,-123 243.567,-121.77 245.213,-120.586 246.914,-119.45"/>
<polygon fill="black" stroke="black" points="248.955,-122.308 255.743,-114.173 245.364,-116.299 248.955,-122.308"/>
</g>
<!-- proc~test_euler~2&#45;&gt;str -->
<g id="edge12" class="edge"><title>proc~test_euler~2&#45;&gt;str</title>
<path fill="none" stroke="black" d="M203.035,-156.76C235.877,-167.873 289.732,-180.928 334,-167 349.361,-162.167 364.242,-152.11 375.681,-142.829"/>
<polygon fill="black" stroke="black" points="378.012,-145.441 383.359,-136.295 373.475,-140.11 378.012,-145.441"/>
</g>
<!-- proc~test_euler~2&#45;&gt;proc~save_time_serie -->
<g id="edge14" class="edge"><title>proc~test_euler~2&#45;&gt;proc~save_time_serie</title>
<path fill="none" stroke="black" d="M203.215,-145C212.105,-145 222.129,-145 232.088,-145"/>
<polygon fill="black" stroke="black" points="232.394,-148.5 242.394,-145 232.394,-141.5 232.394,-148.5"/>
</g>
<!-- proc~test_euler~2&#45;&gt;proc~save_results~2 -->
<g id="edge16" class="edge"><title>proc~test_euler~2&#45;&gt;proc~save_results~2</title>
<path fill="none" stroke="black" d="M203.215,-133.44C215.746,-128.645 230.527,-122.99 244.209,-117.755"/>
<polygon fill="black" stroke="black" points="245.84,-120.878 253.929,-114.036 243.339,-114.34 245.84,-120.878"/>
</g>
<!-- proc~test_ls_rk~2&#45;&gt;str -->
<g id="edge18" class="edge"><title>proc~test_ls_rk~2&#45;&gt;str</title>
<path fill="none" stroke="black" d="M202.142,-89.543C234.894,-78.3677 289.328,-64.9447 334,-79 349.361,-83.833 364.242,-93.8901 375.681,-103.171"/>
<polygon fill="black" stroke="black" points="373.475,-105.89 383.359,-109.705 378.012,-100.559 373.475,-105.89"/>
</g>
<!-- proc~test_ls_rk~2&#45;&gt;proc~save_time_serie -->
<g id="edge20" class="edge"><title>proc~test_ls_rk~2&#45;&gt;proc~save_time_serie</title>
<path fill="none" stroke="black" d="M202.019,-112.103C214.778,-116.985 230.04,-122.824 244.14,-128.219"/>
<polygon fill="black" stroke="black" points="243.081,-131.561 253.671,-131.866 245.582,-125.023 243.081,-131.561"/>
</g>
<!-- proc~test_ls_rk~2&#45;&gt;proc~save_results~2 -->
<g id="edge22" class="edge"><title>proc~test_ls_rk~2&#45;&gt;proc~save_results~2</title>
<path fill="none" stroke="black" d="M202.019,-101C213.78,-101 227.667,-101 240.812,-101"/>
<polygon fill="black" stroke="black" points="241.139,-104.5 251.139,-101 241.139,-97.5001 241.139,-104.5"/>
</g>
<!-- proc~test_tvd_rk~2&#45;&gt;str -->
<g id="edge24" class="edge"><title>proc~test_tvd_rk~2&#45;&gt;str</title>
<path fill="none" stroke="black" d="M205.532,-53.3073C239.066,-50.8306 292.202,-50.6739 334,-68 351.824,-75.3884 368.119,-89.9269 379.67,-102.201"/>
<polygon fill="black" stroke="black" points="377.254,-104.749 386.544,-109.842 382.458,-100.067 377.254,-104.749"/>
</g>
<!-- proc~test_tvd_rk~2&#45;&gt;proc~save_time_serie -->
<g id="edge26" class="edge"><title>proc~test_tvd_rk~2&#45;&gt;proc~save_time_serie</title>
<path fill="none" stroke="black" d="M194.64,-70.0793C198.577,-72.8283 202.531,-75.8548 206,-79 224.718,-95.9725 222.126,-107.397 242,-123 243.567,-124.23 245.213,-125.414 246.914,-126.55"/>
<polygon fill="black" stroke="black" points="245.364,-129.701 255.743,-131.827 248.955,-123.692 245.364,-129.701"/>
</g>
<!-- proc~test_tvd_rk~2&#45;&gt;proc~save_results~2 -->
<g id="edge28" class="edge"><title>proc~test_tvd_rk~2&#45;&gt;proc~save_results~2</title>
<path fill="none" stroke="black" d="M205.647,-69.4909C217.606,-74.0666 231.341,-79.3217 244.123,-84.2123"/>
<polygon fill="black" stroke="black" points="243.076,-87.5591 253.667,-87.8637 245.578,-81.0213 243.076,-87.5591"/>
</g>
<!-- proc~save_time_serie&#45;&gt;str -->
<g id="edge2" class="edge"><title>proc~save_time_serie&#45;&gt;str</title>
<path fill="none" stroke="black" d="M333.594,-135.797C342.387,-134.023 351.497,-132.184 359.976,-130.473"/>
<polygon fill="black" stroke="black" points="360.833,-133.871 369.942,-128.461 359.448,-127.009 360.833,-133.871"/>
</g>
<!-- proc~save_results~2&#45;&gt;str -->
<g id="edge4" class="edge"><title>proc~save_results~2&#45;&gt;str</title>
<path fill="none" stroke="black" d="M324.599,-108.387C335.963,-110.681 348.496,-113.21 359.894,-115.511"/>
<polygon fill="black" stroke="black" points="359.483,-118.998 369.977,-117.546 360.868,-112.137 359.483,-118.998"/>
</g>
</g>
</svg>
