<?xml version="1.0" encoding="UTF-8" standalone="no"?>
<!DOCTYPE svg PUBLIC "-//W3C//DTD SVG 1.1//EN"
 "http://www.w3.org/Graphics/SVG/1.1/DTD/svg11.dtd">
<!-- Generated by graphviz version 2.26.3 (20100126.1600)
 -->
<!-- Title: program~~integrate_euler_1d~~UsesGraph Pages: 1 -->
<svg width="641pt" height="257pt"
 viewBox="0.00 0.00 641.00 257.38" xmlns="http://www.w3.org/2000/svg" xmlns:xlink="http://www.w3.org/1999/xlink">
<g id="graph1" class="graph" transform="scale(0.696739 0.696739) rotate(0) translate(4 365.407)">
<title>program~~integrate_euler_1d~~UsesGraph</title>
<polygon fill="white" stroke="white" points="-4,5 -4,-365.407 917,-365.407 917,5 -4,5"/>
<!-- program~integrate_euler_1d -->
<g id="node1" class="node"><title>program~integrate_euler_1d</title>
<polygon fill="none" stroke="black" points="912,-258 808,-258 808,-232 912,-232 912,-258"/>
<text text-anchor="middle" x="860" y="-242.55" font-family="Helvetica,sans-Serif" font-size="10.50">integrate_euler_1D</text>
</g>
<!-- IR_Precision -->
<g id="node2" class="node"><title>IR_Precision</title>
<polygon fill="#337ab7" stroke="#337ab7" points="73,-213 1,-213 1,-187 73,-187 73,-213"/>
<text text-anchor="middle" x="37" y="-197.55" font-family="Helvetica,sans-Serif" font-size="10.50" fill="white">IR_Precision</text>
</g>
<!-- IR_Precision&#45;&gt;program~integrate_euler_1d -->
<g id="edge42" class="edge"><title>IR_Precision&#45;&gt;program~integrate_euler_1d</title>
<path fill="none" stroke="black" stroke-dasharray="5,2" d="M152,-309C372.967,-382.005 441.462,-359.07 674,-350"/>
</g>
<!-- module~type_euler_1d -->
<g id="node6" class="node"><title>module~type_euler_1d</title>
<a xlink:href="../module/type_euler_1d.html" xlink:title="type_euler_1D">
<polygon fill="#337ab7" stroke="#337ab7" points="715,-109 633,-109 633,-83 715,-83 715,-109"/>
<text text-anchor="middle" x="674" y="-93.55" font-family="Helvetica,sans-Serif" font-size="10.50" fill="white">type_euler_1D</text>
</a>
</g>
<!-- IR_Precision&#45;&gt;module~type_euler_1d -->
<g id="edge36" class="edge"><title>IR_Precision&#45;&gt;module~type_euler_1d</title>
<path fill="none" stroke="black" stroke-dasharray="5,2" d="M46.156,-186.716C63.5116,-162.866 103.807,-113.544 152,-95"/>
<path fill="none" stroke="black" stroke-dasharray="5,2" d="M152,-95C314.396,-32.5112 526.83,-64.32 622.892,-84.1286"/>
<polygon fill="black" stroke="black" points="622.414,-87.6047 632.921,-86.2409 623.857,-80.755 622.414,-87.6047"/>
</g>
<!-- module~foodie_integrator_leapfrog -->
<g id="node7" class="node"><title>module~foodie_integrator_leapfrog</title>
<a xlink:href="../module/foodie_integrator_leapfrog.html" xlink:title="foodie_integrator_leapfrog">
<polygon fill="#337ab7" stroke="#337ab7" points="409,-278 271,-278 271,-252 409,-252 409,-278"/>
<text text-anchor="middle" x="340" y="-262.55" font-family="Helvetica,sans-Serif" font-size="10.50" fill="white">foodie_integrator_leapfrog</text>
</a>
</g>
<!-- IR_Precision&#45;&gt;module~foodie_integrator_leapfrog -->
<g id="edge2" class="edge"><title>IR_Precision&#45;&gt;module~foodie_integrator_leapfrog</title>
<path fill="none" stroke="black" stroke-dasharray="5,2" d="M152,-309C186.201,-320.3 194.981,-295.427 230,-287 239.901,-284.617 250.346,-282.29 260.701,-280.095"/>
<polygon fill="black" stroke="black" points="261.506,-283.503 270.58,-278.034 260.076,-276.651 261.506,-283.503"/>
</g>
<!-- module~foodie_integrator_low_storage_runge_kutta -->
<g id="node8" class="node"><title>module~foodie_integrator_low_storage_runge_kutta</title>
<a xlink:href="../module/foodie_integrator_low_storage_runge_kutta.html" xlink:title="foodie_integrator_low_storage_runge_kutta">
<polygon fill="#337ab7" stroke="#337ab7" points="450,-234 230,-234 230,-208 450,-208 450,-234"/>
<text text-anchor="middle" x="340" y="-218.55" font-family="Helvetica,sans-Serif" font-size="10.50" fill="white">foodie_integrator_low_storage_runge_kutta</text>
</a>
</g>
<!-- IR_Precision&#45;&gt;module~foodie_integrator_low_storage_runge_kutta -->
<g id="edge6" class="edge"><title>IR_Precision&#45;&gt;module~foodie_integrator_low_storage_runge_kutta</title>
<path fill="none" stroke="black" stroke-dasharray="5,2" d="M45.0521,-213.137C61.4134,-238.294 101.328,-292.258 152,-309"/>
<path fill="none" stroke="black" stroke-dasharray="5,2" d="M152,-309C195.119,-323.246 189.106,-262.745 230,-243 234.321,-240.913 238.83,-239.025 243.45,-237.315"/>
<polygon fill="black" stroke="black" points="244.72,-240.58 253.064,-234.051 242.47,-233.952 244.72,-240.58"/>
</g>
<!-- module~foodie_integrator_tvd_runge_kutta -->
<g id="node9" class="node"><title>module~foodie_integrator_tvd_runge_kutta</title>
<a xlink:href="../module/foodie_integrator_tvd_runge_kutta.html" xlink:title="foodie_integrator_tvd_runge_kutta">
<polygon fill="#337ab7" stroke="#337ab7" points="428,-152 252,-152 252,-126 428,-126 428,-152"/>
<text text-anchor="middle" x="340" y="-136.55" font-family="Helvetica,sans-Serif" font-size="10.50" fill="white">foodie_integrator_tvd_runge_kutta</text>
</a>
</g>
<!-- IR_Precision&#45;&gt;module~foodie_integrator_tvd_runge_kutta -->
<g id="edge10" class="edge"><title>IR_Precision&#45;&gt;module~foodie_integrator_tvd_runge_kutta</title>
<path fill="none" stroke="black" stroke-dasharray="5,2" d="M152,-95C185.616,-82.0647 194.981,-108.573 230,-117 239.901,-119.383 250.346,-121.71 260.701,-123.905"/>
<polygon fill="black" stroke="black" points="260.076,-127.349 270.58,-125.966 261.506,-120.497 260.076,-127.349"/>
</g>
<!-- module~type_integrand -->
<g id="node10" class="node"><title>module~type_integrand</title>
<a xlink:href="../module/type_integrand.html" xlink:title="type_integrand">
<polygon fill="#337ab7" stroke="#337ab7" points="194,-213 110,-213 110,-187 194,-187 194,-213"/>
<text text-anchor="middle" x="152" y="-197.55" font-family="Helvetica,sans-Serif" font-size="10.50" fill="white">type_integrand</text>
</a>
</g>
<!-- IR_Precision&#45;&gt;module~type_integrand -->
<g id="edge14" class="edge"><title>IR_Precision&#45;&gt;module~type_integrand</title>
<path fill="none" stroke="black" stroke-dasharray="5,2" d="M73.7029,-200C81.9237,-200 90.8,-200 99.521,-200"/>
<polygon fill="black" stroke="black" points="99.6389,-203.5 109.639,-200 99.6388,-196.5 99.6389,-203.5"/>
</g>
<!-- module~foodie_integrator_adams_bashforth -->
<g id="node11" class="node"><title>module~foodie_integrator_adams_bashforth</title>
<a xlink:href="../module/foodie_integrator_adams_bashforth.html" xlink:title="foodie_integrator_adams_bashforth">
<polygon fill="#337ab7" stroke="#337ab7" points="431,-108 249,-108 249,-82 431,-82 431,-108"/>
<text text-anchor="middle" x="340" y="-92.55" font-family="Helvetica,sans-Serif" font-size="10.50" fill="white">foodie_integrator_adams_bashforth</text>
</a>
</g>
<!-- IR_Precision&#45;&gt;module~foodie_integrator_adams_bashforth -->
<g id="edge16" class="edge"><title>IR_Precision&#45;&gt;module~foodie_integrator_adams_bashforth</title>
<path fill="none" stroke="black" stroke-dasharray="5,2" d="M152,-95C179.521,-84.41 211.033,-81.2949 240.29,-81.6975"/>
<polygon fill="black" stroke="black" points="240.442,-85.203 250.535,-81.9802 240.635,-78.2056 240.442,-85.203"/>
</g>
<!-- module~foodie_integrator_euler_explicit -->
<g id="node12" class="node"><title>module~foodie_integrator_euler_explicit</title>
<a xlink:href="../module/foodie_integrator_euler_explicit.html" xlink:title="foodie_integrator_euler_explicit">
<polygon fill="#337ab7" stroke="#337ab7" points="421,-322 259,-322 259,-296 421,-296 421,-322"/>
<text text-anchor="middle" x="340" y="-306.55" font-family="Helvetica,sans-Serif" font-size="10.50" fill="white">foodie_integrator_euler_explicit</text>
</a>
</g>
<!-- IR_Precision&#45;&gt;module~foodie_integrator_euler_explicit -->
<g id="edge20" class="edge"><title>IR_Precision&#45;&gt;module~foodie_integrator_euler_explicit</title>
<path fill="none" stroke="black" stroke-dasharray="5,2" d="M152,-309C182.482,-319.071 217.292,-321.403 248.605,-320.457"/>
<polygon fill="black" stroke="black" points="248.793,-323.952 258.639,-320.04 248.502,-316.958 248.793,-323.952"/>
</g>
<!-- module~foodie -->
<g id="node3" class="node"><title>module~foodie</title>
<a xlink:href="../module/foodie.html" xlink:title="foodie">
<polygon fill="#337ab7" stroke="#337ab7" points="540,-213 486,-213 486,-187 540,-187 540,-213"/>
<text text-anchor="middle" x="513" y="-197.55" font-family="Helvetica,sans-Serif" font-size="10.50" fill="white">foodie</text>
</a>
</g>
<!-- module~foodie&#45;&gt;program~integrate_euler_1d -->
<g id="edge44" class="edge"><title>module~foodie&#45;&gt;program~integrate_euler_1d</title>
<path fill="none" stroke="black" stroke-dasharray="5,2" d="M518.962,-213.092C536.852,-250.187 593.835,-353.127 674,-350"/>
<path fill="none" stroke="black" stroke-dasharray="5,2" d="M674,-350C741.634,-347.362 807.38,-295.105 839.546,-265.328"/>
<polygon fill="black" stroke="black" points="842.128,-267.704 846.982,-258.286 837.314,-262.622 842.128,-267.704"/>
</g>
<!-- module~foodie&#45;&gt;module~type_euler_1d -->
<g id="edge40" class="edge"><title>module~foodie&#45;&gt;module~type_euler_1d</title>
<path fill="none" stroke="black" stroke-dasharray="5,2" d="M533.391,-186.828C561.698,-168.543 613.046,-135.374 645.238,-114.579"/>
<polygon fill="black" stroke="black" points="647.274,-117.431 653.775,-109.065 643.476,-111.551 647.274,-117.431"/>
</g>
<!-- Data_Type_Command_Line_Interface -->
<g id="node4" class="node"><title>Data_Type_Command_Line_Interface</title>
<polygon fill="#337ab7" stroke="#337ab7" points="771,-280 577,-280 577,-254 771,-254 771,-280"/>
<text text-anchor="middle" x="674" y="-264.55" font-family="Helvetica,sans-Serif" font-size="10.50" fill="white">Data_Type_Command_Line_Interface</text>
</g>
<!-- Data_Type_Command_Line_Interface&#45;&gt;program~integrate_euler_1d -->
<g id="edge46" class="edge"><title>Data_Type_Command_Line_Interface&#45;&gt;program~integrate_euler_1d</title>
<path fill="none" stroke="black" stroke-dasharray="5,2" d="M771.63,-255.452C780.485,-254.405 789.283,-253.364 797.703,-252.368"/>
<polygon fill="black" stroke="black" points="798.245,-255.829 807.764,-251.178 797.422,-248.877 798.245,-255.829"/>
</g>
<!-- pyplot_module -->
<g id="node5" class="node"><title>pyplot_module</title>
<polygon fill="#337ab7" stroke="#337ab7" points="715,-236 633,-236 633,-210 715,-210 715,-236"/>
<text text-anchor="middle" x="674" y="-220.55" font-family="Helvetica,sans-Serif" font-size="10.50" fill="white">pyplot_module</text>
</g>
<!-- pyplot_module&#45;&gt;program~integrate_euler_1d -->
<g id="edge48" class="edge"><title>pyplot_module&#45;&gt;program~integrate_euler_1d</title>
<path fill="none" stroke="black" stroke-dasharray="5,2" d="M715.279,-227.883C739.479,-230.745 770.53,-234.418 797.661,-237.627"/>
<polygon fill="black" stroke="black" points="797.503,-241.132 807.845,-238.831 798.325,-234.181 797.503,-241.132"/>
</g>
<!-- module~type_euler_1d&#45;&gt;program~integrate_euler_1d -->
<g id="edge50" class="edge"><title>module~type_euler_1d&#45;&gt;program~integrate_euler_1d</title>
<path fill="none" stroke="black" stroke-dasharray="5,2" d="M690.506,-109.223C723.321,-135.51 796.904,-194.455 835.425,-225.314"/>
<polygon fill="black" stroke="black" points="833.538,-228.286 843.531,-231.807 837.914,-222.823 833.538,-228.286"/>
</g>
<!-- module~foodie_integrator_leapfrog&#45;&gt;module~foodie -->
<g id="edge24" class="edge"><title>module~foodie_integrator_leapfrog&#45;&gt;module~foodie</title>
<path fill="none" stroke="black" stroke-dasharray="5,2" d="M409.632,-255.472C423.316,-252.383 437.344,-248.323 450,-243 464.007,-237.108 478.115,-227.859 489.419,-219.446"/>
<polygon fill="black" stroke="black" points="491.683,-222.12 497.469,-213.244 487.411,-216.575 491.683,-222.12"/>
</g>
<!-- module~foodie_integrator_low_storage_runge_kutta&#45;&gt;module~foodie -->
<g id="edge26" class="edge"><title>module~foodie_integrator_low_storage_runge_kutta&#45;&gt;module~foodie</title>
<path fill="none" stroke="black" stroke-dasharray="5,2" d="M447.103,-207.999C457.226,-206.77 466.95,-205.59 475.674,-204.531"/>
<polygon fill="black" stroke="black" points="476.275,-207.984 485.78,-203.304 475.431,-201.035 476.275,-207.984"/>
</g>
<!-- module~foodie_integrator_tvd_runge_kutta&#45;&gt;module~foodie -->
<g id="edge28" class="edge"><title>module~foodie_integrator_tvd_runge_kutta&#45;&gt;module~foodie</title>
<path fill="none" stroke="black" stroke-dasharray="5,2" d="M404.829,-152.009C419.885,-155.824 435.688,-160.485 450,-166 461.188,-170.311 472.89,-176.201 483.13,-181.868"/>
<polygon fill="black" stroke="black" points="481.645,-185.05 492.067,-186.958 485.109,-178.967 481.645,-185.05"/>
</g>
<!-- module~type_integrand&#45;&gt;module~foodie -->
<g id="edge30" class="edge"><title>module~type_integrand&#45;&gt;module~foodie</title>
<path fill="none" stroke="black" stroke-dasharray="5,2" d="M194.099,-199.362C205.729,-199.212 218.353,-199.075 230,-199 327.776,-198.373 352.225,-198.224 450,-199 458.23,-199.065 467.063,-199.179 475.435,-199.306"/>
<polygon fill="black" stroke="black" points="475.657,-202.81 485.712,-199.472 475.77,-195.811 475.657,-202.81"/>
</g>
<!-- module~type_integrand&#45;&gt;module~foodie_integrator_leapfrog -->
<g id="edge4" class="edge"><title>module~type_integrand&#45;&gt;module~foodie_integrator_leapfrog</title>
<path fill="none" stroke="black" stroke-dasharray="5,2" d="M171.717,-213.098C187.022,-222.702 209.088,-235.352 230,-243 239.703,-246.548 250.107,-249.571 260.507,-252.133"/>
<polygon fill="black" stroke="black" points="259.919,-255.59 270.452,-254.451 261.507,-248.772 259.919,-255.59"/>
</g>
<!-- module~type_integrand&#45;&gt;module~foodie_integrator_low_storage_runge_kutta -->
<g id="edge8" class="edge"><title>module~type_integrand&#45;&gt;module~foodie_integrator_low_storage_runge_kutta</title>
<path fill="none" stroke="black" stroke-dasharray="5,2" d="M194.191,-204.713C202.057,-205.591 210.626,-206.549 219.541,-207.545"/>
<polygon fill="black" stroke="black" points="219.408,-211.051 229.735,-208.683 220.185,-204.095 219.408,-211.051"/>
</g>
<!-- module~type_integrand&#45;&gt;module~foodie_integrator_tvd_runge_kutta -->
<g id="edge12" class="edge"><title>module~type_integrand&#45;&gt;module~foodie_integrator_tvd_runge_kutta</title>
<path fill="none" stroke="black" stroke-dasharray="5,2" d="M178.986,-186.881C193.804,-180.025 212.646,-171.864 230,-166 242.47,-161.786 255.939,-157.93 269.033,-154.532"/>
<polygon fill="black" stroke="black" points="270.112,-157.87 278.95,-152.025 268.397,-151.083 270.112,-157.87"/>
</g>
<!-- module~type_integrand&#45;&gt;module~foodie_integrator_adams_bashforth -->
<g id="edge18" class="edge"><title>module~type_integrand&#45;&gt;module~foodie_integrator_adams_bashforth</title>
<path fill="none" stroke="black" stroke-dasharray="5,2" d="M160.314,-186.967C172.962,-168.294 198.883,-134.28 230,-117 233.445,-115.087 237.033,-113.339 240.719,-111.741"/>
<polygon fill="black" stroke="black" points="242.031,-114.986 250.06,-108.074 239.473,-108.471 242.031,-114.986"/>
</g>
<!-- module~type_integrand&#45;&gt;module~foodie_integrator_euler_explicit -->
<g id="edge22" class="edge"><title>module~type_integrand&#45;&gt;module~foodie_integrator_euler_explicit</title>
<path fill="none" stroke="black" stroke-dasharray="5,2" d="M159.747,-213.018C172.039,-232.447 197.935,-268.699 230,-287 235.966,-290.405 242.377,-293.29 248.996,-295.733"/>
<polygon fill="black" stroke="black" points="248.222,-299.164 258.815,-299.004 250.434,-292.523 248.222,-299.164"/>
</g>
<!-- module~foodie_integrator_adams_bashforth&#45;&gt;module~foodie -->
<g id="edge32" class="edge"><title>module~foodie_integrator_adams_bashforth&#45;&gt;module~foodie</title>
<path fill="none" stroke="black" stroke-dasharray="5,2" d="M431.756,-107.9C438.148,-110.43 444.305,-113.434 450,-117 473.61,-131.784 491.61,-158.813 502.208,-178.007"/>
<polygon fill="black" stroke="black" points="499.174,-179.757 506.936,-186.967 505.365,-176.49 499.174,-179.757"/>
</g>
<!-- module~foodie_integrator_euler_explicit&#45;&gt;module~foodie -->
<g id="edge34" class="edge"><title>module~foodie_integrator_euler_explicit&#45;&gt;module~foodie</title>
<path fill="none" stroke="black" stroke-dasharray="5,2" d="M421.137,-300.047C431.325,-296.866 441.232,-292.629 450,-287 474.545,-271.243 492.614,-242.265 502.958,-222.103"/>
<polygon fill="black" stroke="black" points="506.156,-223.53 507.41,-213.009 499.87,-220.452 506.156,-223.53"/>
</g>
<!-- wenoof -->
<g id="node30" class="node"><title>wenoof</title>
<polygon fill="#337ab7" stroke="#337ab7" points="540,-26 486,-26 486,-1.24345e-14 540,-3.55271e-15 540,-26"/>
<text text-anchor="middle" x="513" y="-10.55" font-family="Helvetica,sans-Serif" font-size="10.50" fill="white">wenoof</text>
</g>
<!-- wenoof&#45;&gt;module~type_euler_1d -->
<g id="edge38" class="edge"><title>wenoof&#45;&gt;module~type_euler_1d</title>
<path fill="none" stroke="black" stroke-dasharray="5,2" d="M538.511,-26.1516C565.832,-40.2361 609.339,-62.6654 639.656,-78.2946"/>
<polygon fill="black" stroke="black" points="638.116,-81.4386 648.608,-82.9099 641.324,-75.2167 638.116,-81.4386"/>
</g>
</g>
</svg>
