<?xml version="1.0" encoding="UTF-8" standalone="no"?>
<!DOCTYPE svg PUBLIC "-//W3C//DTD SVG 1.1//EN"
 "http://www.w3.org/Graphics/SVG/1.1/DTD/svg11.dtd">
<!-- Generated by graphviz version 2.26.3 (20100126.1600)
 -->
<!-- Title: program~~integrate_lorenz~~CallsGraph Pages: 1 -->
<svg width="320pt" height="210pt"
 viewBox="0.00 0.00 320.00 210.00" xmlns="http://www.w3.org/2000/svg" xmlns:xlink="http://www.w3.org/1999/xlink">
<g id="graph1" class="graph" transform="scale(1 1) rotate(0) translate(4 206)">
<title>program~~integrate_lorenz~~CallsGraph</title>
<polygon fill="white" stroke="white" points="-4,5 -4,-206 317,-206 317,5 -4,5"/>
<!-- program~integrate_lorenz -->
<g id="node1" class="node"><title>program~integrate_lorenz</title>
<polygon fill="none" stroke="black" points="90,-114 4.26326e-14,-114 0,-88 90,-88 90,-114"/>
<text text-anchor="middle" x="45" y="-98.55" font-family="Helvetica,sans-Serif" font-size="10.50">integrate_lorenz</text>
</g>
<!-- proc~test_ls_rk~3 -->
<g id="node2" class="node"><title>proc~test_ls_rk~3</title>
<a xlink:href="../proc/test_ls_rk%7E3.html" xlink:title="test_ls_rk">
<polygon fill="#d9534f" stroke="#d9534f" points="193,-202 135,-202 135,-176 193,-176 193,-202"/>
<text text-anchor="middle" x="164" y="-186.55" font-family="Helvetica,sans-Serif" font-size="10.50" fill="white">test_ls_rk</text>
</a>
</g>
<!-- program~integrate_lorenz&#45;&gt;proc~test_ls_rk~3 -->
<g id="edge18" class="edge"><title>program~integrate_lorenz&#45;&gt;proc~test_ls_rk~3</title>
<path fill="none" stroke="black" d="M59.6691,-114.151C75.483,-128.038 101.668,-150.201 126,-167 127.647,-168.137 129.355,-169.272 131.096,-170.394"/>
<polygon fill="black" stroke="black" points="129.575,-173.568 139.924,-175.836 133.249,-167.609 129.575,-173.568"/>
</g>
<!-- proc~test_leapfrog~3 -->
<g id="node3" class="node"><title>proc~test_leapfrog~3</title>
<a xlink:href="../proc/test_leapfrog%7E3.html" xlink:title="test_leapfrog">
<polygon fill="#d9534f" stroke="#d9534f" points="201,-26 127,-26 127,-1.24345e-14 201,-3.55271e-15 201,-26"/>
<text text-anchor="middle" x="164" y="-10.55" font-family="Helvetica,sans-Serif" font-size="10.50" fill="white">test_leapfrog</text>
</a>
</g>
<!-- program~integrate_lorenz&#45;&gt;proc~test_leapfrog~3 -->
<g id="edge20" class="edge"><title>program~integrate_lorenz&#45;&gt;proc~test_leapfrog~3</title>
<path fill="none" stroke="black" d="M59.6691,-87.8488C75.483,-73.9625 101.668,-51.7988 126,-35 127.647,-33.8631 129.355,-32.728 131.096,-31.6064"/>
<polygon fill="black" stroke="black" points="133.249,-34.3909 139.924,-26.1636 129.575,-28.4322 133.249,-34.3909"/>
</g>
<!-- proc~test_ab~3 -->
<g id="node4" class="node"><title>proc~test_ab~3</title>
<a xlink:href="../proc/test_ab%7E3.html" xlink:title="test_ab">
<polygon fill="#d9534f" stroke="#d9534f" points="191,-158 137,-158 137,-132 191,-132 191,-158"/>
<text text-anchor="middle" x="164" y="-142.55" font-family="Helvetica,sans-Serif" font-size="10.50" fill="white">test_ab</text>
</a>
</g>
<!-- program~integrate_lorenz&#45;&gt;proc~test_ab~3 -->
<g id="edge22" class="edge"><title>program~integrate_lorenz&#45;&gt;proc~test_ab~3</title>
<path fill="none" stroke="black" d="M80.3817,-114.082C95.2188,-119.568 112.464,-125.945 127.426,-131.477"/>
<polygon fill="black" stroke="black" points="126.288,-134.787 136.881,-134.973 128.715,-128.222 126.288,-134.787"/>
</g>
<!-- proc~test_tvd_rk~3 -->
<g id="node5" class="node"><title>proc~test_tvd_rk~3</title>
<a xlink:href="../proc/test_tvd_rk%7E3.html" xlink:title="test_tvd_rk">
<polygon fill="#d9534f" stroke="#d9534f" points="196,-114 132,-114 132,-88 196,-88 196,-114"/>
<text text-anchor="middle" x="164" y="-98.55" font-family="Helvetica,sans-Serif" font-size="10.50" fill="white">test_tvd_rk</text>
</a>
</g>
<!-- program~integrate_lorenz&#45;&gt;proc~test_tvd_rk~3 -->
<g id="edge24" class="edge"><title>program~integrate_lorenz&#45;&gt;proc~test_tvd_rk~3</title>
<path fill="none" stroke="black" d="M90.3283,-101C100.468,-101 111.191,-101 121.223,-101"/>
<polygon fill="black" stroke="black" points="121.375,-104.5 131.375,-101 121.375,-97.5001 121.375,-104.5"/>
</g>
<!-- proc~test_euler~3 -->
<g id="node6" class="node"><title>proc~test_euler~3</title>
<a xlink:href="../proc/test_euler%7E3.html" xlink:title="test_euler">
<polygon fill="#d9534f" stroke="#d9534f" points="194,-70 134,-70 134,-44 194,-44 194,-70"/>
<text text-anchor="middle" x="164" y="-54.55" font-family="Helvetica,sans-Serif" font-size="10.50" fill="white">test_euler</text>
</a>
</g>
<!-- program~integrate_lorenz&#45;&gt;proc~test_euler~3 -->
<g id="edge26" class="edge"><title>program~integrate_lorenz&#45;&gt;proc~test_euler~3</title>
<path fill="none" stroke="black" d="M80.3817,-87.9177C94.1868,-82.8133 110.077,-76.9379 124.273,-71.689"/>
<polygon fill="black" stroke="black" points="125.618,-74.9233 133.784,-68.1724 123.191,-68.3577 125.618,-74.9233"/>
</g>
<!-- str -->
<g id="node7" class="node"><title>str</title>
<polygon fill="#777777" stroke="#777777" points="302,-158 248,-158 248,-132 302,-132 302,-158"/>
<text text-anchor="middle" x="275" y="-142.55" font-family="Helvetica,sans-Serif" font-size="10.50" fill="white">str</text>
</g>
<!-- proc~test_ls_rk~3&#45;&gt;str -->
<g id="edge2" class="edge"><title>proc~test_ls_rk~3&#45;&gt;str</title>
<path fill="none" stroke="black" d="M193.164,-177.44C207.074,-171.925 223.858,-165.272 238.596,-159.43"/>
<polygon fill="black" stroke="black" points="239.929,-162.667 247.935,-155.728 237.349,-156.16 239.929,-162.667"/>
</g>
<!-- proc~save_results~3 -->
<g id="node8" class="node"><title>proc~save_results~3</title>
<a xlink:href="../proc/save_results%7E3.html" xlink:title="save_results">
<polygon fill="#d9534f" stroke="#d9534f" points="311,-114 239,-114 239,-88 311,-88 311,-114"/>
<text text-anchor="middle" x="275" y="-98.55" font-family="Helvetica,sans-Serif" font-size="10.50" fill="white">save_results</text>
</a>
</g>
<!-- proc~test_ls_rk~3&#45;&gt;proc~save_results~3 -->
<g id="edge4" class="edge"><title>proc~test_ls_rk~3&#45;&gt;proc~save_results~3</title>
<path fill="none" stroke="black" d="M189.792,-175.772C194.051,-173.117 198.284,-170.161 202,-167 221.245,-150.627 218.851,-139.484 238,-123 239.285,-121.894 240.633,-120.811 242.022,-119.756"/>
<polygon fill="black" stroke="black" points="244.047,-122.611 250.287,-114.049 240.069,-116.851 244.047,-122.611"/>
</g>
<!-- proc~test_leapfrog~3&#45;&gt;proc~save_results~3 -->
<g id="edge6" class="edge"><title>proc~test_leapfrog~3&#45;&gt;proc~save_results~3</title>
<path fill="none" stroke="black" d="M188.604,-26.2273C193.167,-28.9626 197.811,-31.9463 202,-35 221.104,-48.9274 240.884,-67.0817 255.028,-80.8243"/>
<polygon fill="black" stroke="black" points="252.684,-83.4283 262.265,-87.9503 257.595,-78.4403 252.684,-83.4283"/>
</g>
<!-- proc~test_ab~3&#45;&gt;str -->
<g id="edge8" class="edge"><title>proc~test_ab~3&#45;&gt;str</title>
<path fill="none" stroke="black" d="M191.154,-145C205.129,-145 222.383,-145 237.599,-145"/>
<polygon fill="black" stroke="black" points="237.742,-148.5 247.742,-145 237.742,-141.5 237.742,-148.5"/>
</g>
<!-- proc~test_ab~3&#45;&gt;proc~save_results~3 -->
<g id="edge10" class="edge"><title>proc~test_ab~3&#45;&gt;proc~save_results~3</title>
<path fill="none" stroke="black" d="M191.154,-134.236C203.669,-129.275 218.814,-123.272 232.769,-117.74"/>
<polygon fill="black" stroke="black" points="234.187,-120.943 242.194,-114.004 231.608,-114.436 234.187,-120.943"/>
</g>
<!-- proc~test_tvd_rk~3&#45;&gt;str -->
<g id="edge12" class="edge"><title>proc~test_tvd_rk~3&#45;&gt;str</title>
<path fill="none" stroke="black" d="M196.703,-113.963C209.774,-119.145 224.887,-125.135 238.328,-130.463"/>
<polygon fill="black" stroke="black" points="237.18,-133.773 247.766,-134.205 239.76,-127.266 237.18,-133.773"/>
</g>
<!-- proc~test_tvd_rk~3&#45;&gt;proc~save_results~3 -->
<g id="edge14" class="edge"><title>proc~test_tvd_rk~3&#45;&gt;proc~save_results~3</title>
<path fill="none" stroke="black" d="M196.703,-101C206.488,-101 217.416,-101 227.931,-101"/>
<polygon fill="black" stroke="black" points="228.251,-104.5 238.251,-101 228.251,-97.5001 228.251,-104.5"/>
</g>
<!-- proc~test_euler~3&#45;&gt;proc~save_results~3 -->
<g id="edge16" class="edge"><title>proc~test_euler~3&#45;&gt;proc~save_results~3</title>
<path fill="none" stroke="black" d="M194.038,-68.907C205.806,-73.5717 219.523,-79.0092 232.287,-84.0685"/>
<polygon fill="black" stroke="black" points="231.227,-87.4133 241.813,-87.8447 233.806,-80.9059 231.227,-87.4133"/>
</g>
</g>
</svg>
