<?xml version="1.0" encoding="UTF-8" standalone="no"?>
<!DOCTYPE svg PUBLIC "-//W3C//DTD SVG 1.1//EN"
 "http://www.w3.org/Graphics/SVG/1.1/DTD/svg11.dtd">
<!-- Generated by graphviz version 2.26.3 (20100126.1600)
 -->
<!-- Title: program~~integrate_oscillation~~CallsGraph Pages: 1 -->
<svg width="338pt" height="210pt"
 viewBox="0.00 0.00 338.00 210.00" xmlns="http://www.w3.org/2000/svg" xmlns:xlink="http://www.w3.org/1999/xlink">
<g id="graph1" class="graph" transform="scale(1 1) rotate(0) translate(4 206)">
<title>program~~integrate_oscillation~~CallsGraph</title>
<polygon fill="white" stroke="white" points="-4,5 -4,-206 335,-206 335,5 -4,5"/>
<!-- program~integrate_oscillation -->
<g id="node1" class="node"><title>program~integrate_oscillation</title>
<polygon fill="none" stroke="black" points="107,-114 1,-114 1,-88 107,-88 107,-114"/>
<text text-anchor="middle" x="54" y="-98.55" font-family="Helvetica,sans-Serif" font-size="10.50">integrate_oscillation</text>
</g>
<!-- proc~test_ls_rk~4 -->
<g id="node2" class="node"><title>proc~test_ls_rk~4</title>
<a xlink:href="../proc/test_ls_rk%7E4.html" xlink:title="test_ls_rk">
<polygon fill="#d9534f" stroke="#d9534f" points="211,-202 153,-202 153,-176 211,-176 211,-202"/>
<text text-anchor="middle" x="182" y="-186.55" font-family="Helvetica,sans-Serif" font-size="10.50" fill="white">test_ls_rk</text>
</a>
</g>
<!-- program~integrate_oscillation&#45;&gt;proc~test_ls_rk~4 -->
<g id="edge18" class="edge"><title>program~integrate_oscillation&#45;&gt;proc~test_ls_rk~4</title>
<path fill="none" stroke="black" d="M70.8634,-114.216C88.6621,-127.961 117.723,-149.83 144,-167 145.867,-168.22 147.803,-169.448 149.768,-170.667"/>
<polygon fill="black" stroke="black" points="148.076,-173.733 158.448,-175.895 151.688,-167.737 148.076,-173.733"/>
</g>
<!-- proc~test_tvd_rk~4 -->
<g id="node3" class="node"><title>proc~test_tvd_rk~4</title>
<a xlink:href="../proc/test_tvd_rk%7E4.html" xlink:title="test_tvd_rk">
<polygon fill="#d9534f" stroke="#d9534f" points="214,-158 150,-158 150,-132 214,-132 214,-158"/>
<text text-anchor="middle" x="182" y="-142.55" font-family="Helvetica,sans-Serif" font-size="10.50" fill="white">test_tvd_rk</text>
</a>
</g>
<!-- program~integrate_oscillation&#45;&gt;proc~test_tvd_rk~4 -->
<g id="edge20" class="edge"><title>program~integrate_oscillation&#45;&gt;proc~test_tvd_rk~4</title>
<path fill="none" stroke="black" d="M92.0577,-114.082C107.05,-119.236 124.328,-125.175 139.708,-130.462"/>
<polygon fill="black" stroke="black" points="138.904,-133.887 149.498,-133.828 141.179,-127.267 138.904,-133.887"/>
</g>
<!-- proc~test_ab~4 -->
<g id="node4" class="node"><title>proc~test_ab~4</title>
<a xlink:href="../proc/test_ab%7E4.html" xlink:title="test_ab">
<polygon fill="#d9534f" stroke="#d9534f" points="209,-114 155,-114 155,-88 209,-88 209,-114"/>
<text text-anchor="middle" x="182" y="-98.55" font-family="Helvetica,sans-Serif" font-size="10.50" fill="white">test_ab</text>
</a>
</g>
<!-- program~integrate_oscillation&#45;&gt;proc~test_ab~4 -->
<g id="edge22" class="edge"><title>program~integrate_oscillation&#45;&gt;proc~test_ab~4</title>
<path fill="none" stroke="black" d="M107.542,-101C120.025,-101 133.054,-101 144.659,-101"/>
<polygon fill="black" stroke="black" points="144.859,-104.5 154.859,-101 144.859,-97.5001 144.859,-104.5"/>
</g>
<!-- proc~test_leapfrog~4 -->
<g id="node5" class="node"><title>proc~test_leapfrog~4</title>
<a xlink:href="../proc/test_leapfrog%7E4.html" xlink:title="test_leapfrog">
<polygon fill="#d9534f" stroke="#d9534f" points="219,-26 145,-26 145,-1.24345e-14 219,-3.55271e-15 219,-26"/>
<text text-anchor="middle" x="182" y="-10.55" font-family="Helvetica,sans-Serif" font-size="10.50" fill="white">test_leapfrog</text>
</a>
</g>
<!-- program~integrate_oscillation&#45;&gt;proc~test_leapfrog~4 -->
<g id="edge24" class="edge"><title>program~integrate_oscillation&#45;&gt;proc~test_leapfrog~4</title>
<path fill="none" stroke="black" d="M70.8634,-87.7841C88.6621,-74.0389 117.723,-52.1698 144,-35 145.867,-33.7803 147.803,-32.5522 149.768,-31.3334"/>
<polygon fill="black" stroke="black" points="151.688,-34.2632 158.448,-26.1053 148.076,-28.2669 151.688,-34.2632"/>
</g>
<!-- proc~test_euler~4 -->
<g id="node6" class="node"><title>proc~test_euler~4</title>
<a xlink:href="../proc/test_euler%7E4.html" xlink:title="test_euler">
<polygon fill="#d9534f" stroke="#d9534f" points="212,-70 152,-70 152,-44 212,-44 212,-70"/>
<text text-anchor="middle" x="182" y="-54.55" font-family="Helvetica,sans-Serif" font-size="10.50" fill="white">test_euler</text>
</a>
</g>
<!-- program~integrate_oscillation&#45;&gt;proc~test_euler~4 -->
<g id="edge26" class="edge"><title>program~integrate_oscillation&#45;&gt;proc~test_euler~4</title>
<path fill="none" stroke="black" d="M92.0577,-87.9177C107.803,-82.5053 126.069,-76.2262 142.011,-70.7462"/>
<polygon fill="black" stroke="black" points="143.274,-74.013 151.594,-67.4522 140.999,-67.3932 143.274,-74.013"/>
</g>
<!-- str -->
<g id="node7" class="node"><title>str</title>
<polygon fill="#777777" stroke="#777777" points="320,-158 266,-158 266,-132 320,-132 320,-158"/>
<text text-anchor="middle" x="293" y="-142.55" font-family="Helvetica,sans-Serif" font-size="10.50" fill="white">str</text>
</g>
<!-- proc~test_ls_rk~4&#45;&gt;str -->
<g id="edge2" class="edge"><title>proc~test_ls_rk~4&#45;&gt;str</title>
<path fill="none" stroke="black" d="M211.164,-177.44C225.074,-171.925 241.858,-165.272 256.596,-159.43"/>
<polygon fill="black" stroke="black" points="257.929,-162.667 265.935,-155.728 255.349,-156.16 257.929,-162.667"/>
</g>
<!-- proc~save_results~4 -->
<g id="node8" class="node"><title>proc~save_results~4</title>
<a xlink:href="../proc/save_results%7E4.html" xlink:title="save_results">
<polygon fill="#d9534f" stroke="#d9534f" points="329,-114 257,-114 257,-88 329,-88 329,-114"/>
<text text-anchor="middle" x="293" y="-98.55" font-family="Helvetica,sans-Serif" font-size="10.50" fill="white">save_results</text>
</a>
</g>
<!-- proc~test_ls_rk~4&#45;&gt;proc~save_results~4 -->
<g id="edge4" class="edge"><title>proc~test_ls_rk~4&#45;&gt;proc~save_results~4</title>
<path fill="none" stroke="black" d="M207.792,-175.772C212.051,-173.117 216.284,-170.161 220,-167 239.245,-150.627 236.851,-139.484 256,-123 257.285,-121.894 258.633,-120.811 260.022,-119.756"/>
<polygon fill="black" stroke="black" points="262.047,-122.611 268.287,-114.049 258.069,-116.851 262.047,-122.611"/>
</g>
<!-- proc~test_tvd_rk~4&#45;&gt;str -->
<g id="edge6" class="edge"><title>proc~test_tvd_rk~4&#45;&gt;str</title>
<path fill="none" stroke="black" d="M214.703,-145C227.52,-145 242.3,-145 255.543,-145"/>
<polygon fill="black" stroke="black" points="255.766,-148.5 265.766,-145 255.766,-141.5 255.766,-148.5"/>
</g>
<!-- proc~test_tvd_rk~4&#45;&gt;proc~save_results~4 -->
<g id="edge8" class="edge"><title>proc~test_tvd_rk~4&#45;&gt;proc~save_results~4</title>
<path fill="none" stroke="black" d="M214.703,-132.037C226.006,-127.556 238.836,-122.47 250.792,-117.731"/>
<polygon fill="black" stroke="black" points="252.14,-120.962 260.147,-114.023 249.561,-114.454 252.14,-120.962"/>
</g>
<!-- proc~test_ab~4&#45;&gt;str -->
<g id="edge10" class="edge"><title>proc~test_ab~4&#45;&gt;str</title>
<path fill="none" stroke="black" d="M209.154,-111.764C223.264,-117.357 240.715,-124.275 256.037,-130.348"/>
<polygon fill="black" stroke="black" points="255.156,-133.764 265.742,-134.195 257.735,-127.256 255.156,-133.764"/>
</g>
<!-- proc~test_ab~4&#45;&gt;proc~save_results~4 -->
<g id="edge12" class="edge"><title>proc~test_ab~4&#45;&gt;proc~save_results~4</title>
<path fill="none" stroke="black" d="M209.154,-101C220.397,-101 233.761,-101 246.479,-101"/>
<polygon fill="black" stroke="black" points="246.488,-104.5 256.487,-101 246.487,-97.5001 246.488,-104.5"/>
</g>
<!-- proc~test_leapfrog~4&#45;&gt;proc~save_results~4 -->
<g id="edge14" class="edge"><title>proc~test_leapfrog~4&#45;&gt;proc~save_results~4</title>
<path fill="none" stroke="black" d="M206.604,-26.2273C211.167,-28.9626 215.811,-31.9463 220,-35 239.104,-48.9274 258.884,-67.0817 273.028,-80.8243"/>
<polygon fill="black" stroke="black" points="270.684,-83.4283 280.265,-87.9503 275.595,-78.4403 270.684,-83.4283"/>
</g>
<!-- proc~test_euler~4&#45;&gt;proc~save_results~4 -->
<g id="edge16" class="edge"><title>proc~test_euler~4&#45;&gt;proc~save_results~4</title>
<path fill="none" stroke="black" d="M212.038,-68.907C223.806,-73.5717 237.523,-79.0092 250.287,-84.0685"/>
<polygon fill="black" stroke="black" points="249.227,-87.4133 259.813,-87.8447 251.806,-80.9059 249.227,-87.4133"/>
</g>
</g>
</svg>
