<?xml version="1.0" encoding="UTF-8" standalone="no"?>
<!DOCTYPE svg PUBLIC "-//W3C//DTD SVG 1.1//EN"
 "http://www.w3.org/Graphics/SVG/1.1/DTD/svg11.dtd">
<!-- Generated by graphviz version 2.38.0 (20140413.2041)
 -->
<!-- Title: program~~integrate_lorenz~~UsesGraph Pages: 1 -->
<svg width="641pt" height="183pt"
 viewBox="0.00 0.00 641.00 183.29" xmlns="http://www.w3.org/2000/svg" xmlns:xlink="http://www.w3.org/1999/xlink">
<g id="graph0" class="graph" transform="scale(0.739331 0.739331) rotate(0) translate(4 243.916)">
<title>program~~integrate_lorenz~~UsesGraph</title>
<polygon fill="white" stroke="none" points="-4,4 -4,-243.916 863,-243.916 863,4 -4,4"/>
<!-- program~integrate_lorenz -->
<g id="node1" class="node"><title>program~integrate_lorenz</title>
<polygon fill="none" stroke="black" points="859,-112.876 769,-112.876 769,-88.8756 859,-88.8756 859,-112.876"/>
<text text-anchor="middle" x="814" y="-98.4756" font-family="Helvetica,sans-Serif" font-size="10.50">integrate_lorenz</text>
</g>
<!-- IR_Precision -->
<g id="node2" class="node"><title>IR_Precision</title>
<polygon fill="#337ab7" stroke="#337ab7" points="73,-102.876 0,-102.876 0,-78.8756 73,-78.8756 73,-102.876"/>
<text text-anchor="middle" x="36.5" y="-88.4756" font-family="Helvetica,sans-Serif" font-size="10.50" fill="white">IR_Precision</text>
</g>
<!-- IR_Precision&#45;&gt;program~integrate_lorenz -->
<g id="edge14" class="edge"><title>IR_Precision&#45;&gt;program~integrate_lorenz</title>
<path fill="none" stroke="black" stroke-dasharray="5,2" d="M152,-190.876C398.979,-267.336 490.19,-250.691 733,-161.876 757.025,-153.088 779.747,-134.387 794.791,-119.994"/>
<polygon fill="black" stroke="black" points="797.279,-122.457 801.925,-112.935 792.355,-117.481 797.279,-122.457"/>
</g>
<!-- module~type_lorenz -->
<g id="node5" class="node"><title>module~type_lorenz</title>
<g id="a_node5"><a xlink:href="../module/type_lorenz.html" xlink:title="type_lorenz">
<polygon fill="#337ab7" stroke="#337ab7" points="669.5,-72.8756 601.5,-72.8756 601.5,-48.8756 669.5,-48.8756 669.5,-72.8756"/>
<text text-anchor="middle" x="635.5" y="-58.4756" font-family="Helvetica,sans-Serif" font-size="10.50" fill="white">type_lorenz</text>
</a>
</g>
</g>
<!-- IR_Precision&#45;&gt;module~type_lorenz -->
<g id="edge12" class="edge"><title>IR_Precision&#45;&gt;module~type_lorenz</title>
<path fill="none" stroke="black" stroke-dasharray="5,2" d="M53.1494,-78.7778C73.9187,-63.576 112.366,-38.3319 150,-28.8756"/>
<path fill="none" stroke="black" stroke-dasharray="5,2" d="M152,-28.8756C186.403,-20.2312 193.842,-12.584 229,-7.87564 309.614,2.91999 331.295,2.21252 412,-7.87564 469.332,-15.0421 481.763,-26.6196 538,-39.8756 555.413,-43.9802 574.663,-48.2276 591.36,-51.8194"/>
<polygon fill="black" stroke="black" points="590.875,-55.295 601.386,-53.964 592.34,-48.4498 590.875,-55.295"/>
</g>
<!-- module~foodie_integrator_adams_bashforth -->
<g id="node7" class="node"><title>module~foodie_integrator_adams_bashforth</title>
<g id="a_node7"><a xlink:href="../module/foodie_integrator_adams_bashforth.html" xlink:title="foodie_integrator_adams_bashforth">
<polygon fill="#337ab7" stroke="#337ab7" points="412,-82.8756 229,-82.8756 229,-58.8756 412,-58.8756 412,-82.8756"/>
<text text-anchor="middle" x="320.5" y="-68.4756" font-family="Helvetica,sans-Serif" font-size="10.50" fill="white">foodie_integrator_adams_bashforth</text>
</a>
</g>
</g>
<!-- IR_Precision&#45;&gt;module~foodie_integrator_adams_bashforth -->
<g id="edge1" class="edge"><title>IR_Precision&#45;&gt;module~foodie_integrator_adams_bashforth</title>
<path fill="none" stroke="black" stroke-dasharray="5,2" d="M152,-28.8756C186.403,-20.2312 194.606,-41.1984 229,-49.8756 237.729,-52.0778 246.953,-54.3179 256.042,-56.4747"/>
<polygon fill="black" stroke="black" points="255.285,-59.8922 265.821,-58.7766 256.889,-53.0784 255.285,-59.8922"/>
</g>
<!-- module~foodie_integrator_tvd_runge_kutta -->
<g id="node8" class="node"><title>module~foodie_integrator_tvd_runge_kutta</title>
<g id="a_node8"><a xlink:href="../module/foodie_integrator_tvd_runge_kutta.html" xlink:title="foodie_integrator_tvd_runge_kutta">
<polygon fill="#337ab7" stroke="#337ab7" points="409,-40.8756 232,-40.8756 232,-16.8756 409,-16.8756 409,-40.8756"/>
<text text-anchor="middle" x="320.5" y="-26.4756" font-family="Helvetica,sans-Serif" font-size="10.50" fill="white">foodie_integrator_tvd_runge_kutta</text>
</a>
</g>
</g>
<!-- IR_Precision&#45;&gt;module~foodie_integrator_tvd_runge_kutta -->
<g id="edge3" class="edge"><title>IR_Precision&#45;&gt;module~foodie_integrator_tvd_runge_kutta</title>
<path fill="none" stroke="black" stroke-dasharray="5,2" d="M152,-28.8756C174.111,-23.3198 198.388,-21.1669 221.431,-20.8536"/>
<polygon fill="black" stroke="black" points="221.577,-24.3534 231.569,-20.8304 221.561,-17.3534 221.577,-24.3534"/>
</g>
<!-- module~type_integrand -->
<g id="node9" class="node"><title>module~type_integrand</title>
<g id="a_node9"><a xlink:href="../module/type_integrand.html" xlink:title="type_integrand">
<polygon fill="#337ab7" stroke="#337ab7" points="193,-102.876 109,-102.876 109,-78.8756 193,-78.8756 193,-102.876"/>
<text text-anchor="middle" x="151" y="-88.4756" font-family="Helvetica,sans-Serif" font-size="10.50" fill="white">type_integrand</text>
</a>
</g>
</g>
<!-- IR_Precision&#45;&gt;module~type_integrand -->
<g id="edge5" class="edge"><title>IR_Precision&#45;&gt;module~type_integrand</title>
<path fill="none" stroke="black" stroke-dasharray="5,2" d="M73.0957,-90.8756C81.2389,-90.8756 90.0527,-90.8756 98.7087,-90.8756"/>
<polygon fill="black" stroke="black" points="98.748,-94.3757 108.748,-90.8756 98.7479,-87.3757 98.748,-94.3757"/>
</g>
<!-- module~foodie_integrator_euler_explicit -->
<g id="node10" class="node"><title>module~foodie_integrator_euler_explicit</title>
<g id="a_node10"><a xlink:href="../module/foodie_integrator_euler_explicit.html" xlink:title="foodie_integrator_euler_explicit">
<polygon fill="#337ab7" stroke="#337ab7" points="401.5,-162.876 239.5,-162.876 239.5,-138.876 401.5,-138.876 401.5,-162.876"/>
<text text-anchor="middle" x="320.5" y="-148.476" font-family="Helvetica,sans-Serif" font-size="10.50" fill="white">foodie_integrator_euler_explicit</text>
</a>
</g>
</g>
<!-- IR_Precision&#45;&gt;module~foodie_integrator_euler_explicit -->
<g id="edge6" class="edge"><title>IR_Precision&#45;&gt;module~foodie_integrator_euler_explicit</title>
<path fill="none" stroke="black" stroke-dasharray="5,2" d="M45.5781,-102.993C61.9361,-126.186 101.572,-175.883 150,-190.876"/>
<path fill="none" stroke="black" stroke-dasharray="5,2" d="M152,-190.876C163.242,-194.356 224.014,-178.425 269.139,-165.643"/>
<polygon fill="black" stroke="black" points="270.138,-168.998 278.794,-162.889 268.217,-162.266 270.138,-168.998"/>
</g>
<!-- pyplot_module -->
<g id="node3" class="node"><title>pyplot_module</title>
<polygon fill="#337ab7" stroke="#337ab7" points="676.5,-152.876 594.5,-152.876 594.5,-128.876 676.5,-128.876 676.5,-152.876"/>
<text text-anchor="middle" x="635.5" y="-138.476" font-family="Helvetica,sans-Serif" font-size="10.50" fill="white">pyplot_module</text>
</g>
<!-- pyplot_module&#45;&gt;program~integrate_lorenz -->
<g id="edge15" class="edge"><title>pyplot_module&#45;&gt;program~integrate_lorenz</title>
<path fill="none" stroke="black" stroke-dasharray="5,2" d="M676.551,-131.799C700.901,-126.28 732.314,-119.161 758.86,-113.145"/>
<polygon fill="black" stroke="black" points="759.792,-116.523 768.771,-110.899 758.245,-109.696 759.792,-116.523"/>
</g>
<!-- module~foodie -->
<g id="node4" class="node"><title>module~foodie</title>
<g id="a_node4"><a xlink:href="../module/foodie.html" xlink:title="foodie">
<polygon fill="#337ab7" stroke="#337ab7" points="502,-92.8756 448,-92.8756 448,-68.8756 502,-68.8756 502,-92.8756"/>
<text text-anchor="middle" x="475" y="-78.4756" font-family="Helvetica,sans-Serif" font-size="10.50" fill="white">foodie</text>
</a>
</g>
</g>
<!-- module~foodie&#45;&gt;program~integrate_lorenz -->
<g id="edge16" class="edge"><title>module~foodie&#45;&gt;program~integrate_lorenz</title>
<path fill="none" stroke="black" stroke-dasharray="5,2" d="M502.163,-82.4284C557.108,-85.6892 685.475,-93.3074 758.908,-97.6654"/>
<polygon fill="black" stroke="black" points="758.702,-101.159 768.892,-98.2579 759.117,-94.1716 758.702,-101.159"/>
</g>
<!-- module~foodie&#45;&gt;module~type_lorenz -->
<g id="edge13" class="edge"><title>module~foodie&#45;&gt;module~type_lorenz</title>
<path fill="none" stroke="black" stroke-dasharray="5,2" d="M502.173,-77.573C526.371,-74.5197 562.787,-69.9247 591.295,-66.3274"/>
<polygon fill="black" stroke="black" points="591.92,-69.7764 601.403,-65.0519 591.043,-62.8315 591.92,-69.7764"/>
</g>
<!-- module~type_lorenz&#45;&gt;program~integrate_lorenz -->
<g id="edge17" class="edge"><title>module~type_lorenz&#45;&gt;program~integrate_lorenz</title>
<path fill="none" stroke="black" stroke-dasharray="5,2" d="M669.698,-68.3993C694.799,-74.0879 729.793,-82.0186 758.916,-88.6188"/>
<polygon fill="black" stroke="black" points="758.421,-92.0951 768.947,-90.892 759.968,-85.2682 758.421,-92.0951"/>
</g>
<!-- Data_Type_Command_Line_Interface -->
<g id="node6" class="node"><title>Data_Type_Command_Line_Interface</title>
<polygon fill="#337ab7" stroke="#337ab7" points="733,-30.8756 538,-30.8756 538,-6.87564 733,-6.87564 733,-30.8756"/>
<text text-anchor="middle" x="635.5" y="-16.4756" font-family="Helvetica,sans-Serif" font-size="10.50" fill="white">Data_Type_Command_Line_Interface</text>
</g>
<!-- Data_Type_Command_Line_Interface&#45;&gt;program~integrate_lorenz -->
<g id="edge18" class="edge"><title>Data_Type_Command_Line_Interface&#45;&gt;program~integrate_lorenz</title>
<path fill="none" stroke="black" stroke-dasharray="5,2" d="M708.788,-30.9496C717.131,-33.4071 725.374,-36.3515 733,-39.8756 755.608,-50.3227 777.851,-68.0572 793.121,-81.7196"/>
<polygon fill="black" stroke="black" points="791.114,-84.6288 800.845,-88.8188 795.851,-79.4749 791.114,-84.6288"/>
</g>
<!-- module~foodie_integrator_adams_bashforth&#45;&gt;module~foodie -->
<g id="edge8" class="edge"><title>module~foodie_integrator_adams_bashforth&#45;&gt;module~foodie</title>
<path fill="none" stroke="black" stroke-dasharray="5,2" d="M412.412,-76.8371C421.27,-77.418 429.854,-77.9808 437.661,-78.4928"/>
<polygon fill="black" stroke="black" points="437.57,-81.9942 447.778,-79.1561 438.028,-75.0092 437.57,-81.9942"/>
</g>
<!-- module~foodie_integrator_tvd_runge_kutta&#45;&gt;module~foodie -->
<g id="edge9" class="edge"><title>module~foodie_integrator_tvd_runge_kutta&#45;&gt;module~foodie</title>
<path fill="none" stroke="black" stroke-dasharray="5,2" d="M382.438,-40.9369C392.433,-43.5062 402.592,-46.4858 412,-49.8756 422.725,-53.7399 434.002,-58.9889 443.954,-64.0687"/>
<polygon fill="black" stroke="black" points="442.548,-67.2836 453.028,-68.8366 445.804,-61.0869 442.548,-67.2836"/>
</g>
<!-- module~type_integrand&#45;&gt;module~foodie -->
<g id="edge10" class="edge"><title>module~type_integrand&#45;&gt;module~foodie</title>
<path fill="none" stroke="black" stroke-dasharray="5,2" d="M193.076,-93.3492C244.405,-95.9079 334.884,-98.6635 412,-91.8756 420.439,-91.1328 429.45,-89.8318 437.913,-88.3786"/>
<polygon fill="black" stroke="black" points="438.681,-91.7964 447.89,-86.5577 437.424,-84.9101 438.681,-91.7964"/>
</g>
<!-- module~type_integrand&#45;&gt;module~foodie_integrator_adams_bashforth -->
<g id="edge2" class="edge"><title>module~type_integrand&#45;&gt;module~foodie_integrator_adams_bashforth</title>
<path fill="none" stroke="black" stroke-dasharray="5,2" d="M193.405,-85.9318C201.288,-84.9905 209.851,-83.9681 218.678,-82.9141"/>
<polygon fill="black" stroke="black" points="219.219,-86.3744 228.734,-81.7134 218.389,-79.4238 219.219,-86.3744"/>
</g>
<!-- module~type_integrand&#45;&gt;module~foodie_integrator_tvd_runge_kutta -->
<g id="edge4" class="edge"><title>module~type_integrand&#45;&gt;module~foodie_integrator_tvd_runge_kutta</title>
<path fill="none" stroke="black" stroke-dasharray="5,2" d="M171.277,-78.7831C186.465,-69.7136 208.437,-57.5838 229,-49.8756 234.947,-47.6464 241.205,-45.6062 247.539,-43.7495"/>
<polygon fill="black" stroke="black" points="248.818,-47.0269 257.519,-40.9821 246.948,-40.2814 248.818,-47.0269"/>
</g>
<!-- module~type_integrand&#45;&gt;module~foodie_integrator_euler_explicit -->
<g id="edge7" class="edge"><title>module~type_integrand&#45;&gt;module~foodie_integrator_euler_explicit</title>
<path fill="none" stroke="black" stroke-dasharray="5,2" d="M176.964,-102.933C191.864,-109.868 211.277,-118.451 229,-124.876 239.936,-128.84 251.784,-132.609 263.193,-135.986"/>
<polygon fill="black" stroke="black" points="262.493,-139.427 273.072,-138.847 264.44,-132.703 262.493,-139.427"/>
</g>
<!-- module~foodie_integrator_euler_explicit&#45;&gt;module~foodie -->
<g id="edge11" class="edge"><title>module~foodie_integrator_euler_explicit&#45;&gt;module~foodie</title>
<path fill="none" stroke="black" stroke-dasharray="5,2" d="M374.775,-138.806C387.289,-135.095 400.363,-130.475 412,-124.876 426.027,-118.126 440.289,-108.257 451.592,-99.5752"/>
<polygon fill="black" stroke="black" points="453.932,-102.187 459.605,-93.2389 449.59,-96.6957 453.932,-102.187"/>
</g>
</g>
</svg>
