<?xml version="1.0" encoding="UTF-8" standalone="no"?>
<!DOCTYPE svg PUBLIC "-//W3C//DTD SVG 1.1//EN"
 "http://www.w3.org/Graphics/SVG/1.1/DTD/svg11.dtd">
<!-- Generated by graphviz version 2.26.3 (20100126.1600)
 -->
<!-- Title: program~~integrate_oscillation~~UsesGraph Pages: 1 -->
<svg width="641pt" height="257pt"
 viewBox="0.00 0.00 641.00 257.37" xmlns="http://www.w3.org/2000/svg" xmlns:xlink="http://www.w3.org/1999/xlink">
<g id="graph1" class="graph" transform="scale(0.693723 0.693723) rotate(0) translate(4 367)">
<title>program~~integrate_oscillation~~UsesGraph</title>
<polygon fill="white" stroke="white" points="-4,5 -4,-367 921,-367 921,5 -4,5"/>
<!-- program~integrate_oscillation -->
<g id="node1" class="node"><title>program~integrate_oscillation</title>
<polygon fill="none" stroke="black" points="915,-108 809,-108 809,-82 915,-82 915,-108"/>
<text text-anchor="middle" x="862" y="-92.55" font-family="Helvetica,sans-Serif" font-size="10.50">integrate_oscillation</text>
</g>
<!-- pyplot_module -->
<g id="node2" class="node"><title>pyplot_module</title>
<polygon fill="#337ab7" stroke="#337ab7" points="715,-190 633,-190 633,-164 715,-164 715,-190"/>
<text text-anchor="middle" x="674" y="-174.55" font-family="Helvetica,sans-Serif" font-size="10.50" fill="white">pyplot_module</text>
</g>
<!-- pyplot_module&#45;&gt;program~integrate_oscillation -->
<g id="edge40" class="edge"><title>pyplot_module&#45;&gt;program~integrate_oscillation</title>
<path fill="none" stroke="black" stroke-dasharray="5,2" d="M715.404,-168.319C733.213,-163.895 754.024,-157.785 772,-150 794.466,-140.271 818.013,-125.703 835.384,-114.004"/>
<polygon fill="black" stroke="black" points="837.599,-116.729 843.867,-108.188 833.64,-110.956 837.599,-116.729"/>
</g>
<!-- module~type_oscillation -->
<g id="node3" class="node"><title>module~type_oscillation</title>
<a xlink:href="../module/type_oscillation.html" xlink:title="type_oscillation">
<polygon fill="#337ab7" stroke="#337ab7" points="716,-108 632,-108 632,-82 716,-82 716,-108"/>
<text text-anchor="middle" x="674" y="-92.55" font-family="Helvetica,sans-Serif" font-size="10.50" fill="white">type_oscillation</text>
</a>
</g>
<!-- module~type_oscillation&#45;&gt;program~integrate_oscillation -->
<g id="edge42" class="edge"><title>module~type_oscillation&#45;&gt;program~integrate_oscillation</title>
<path fill="none" stroke="black" stroke-dasharray="5,2" d="M716.66,-95C740.772,-95 771.385,-95 798.291,-95"/>
<polygon fill="black" stroke="black" points="798.4,-98.5001 808.4,-95 798.4,-91.5001 798.4,-98.5001"/>
</g>
<!-- module~foodie -->
<g id="node4" class="node"><title>module~foodie</title>
<a xlink:href="../module/foodie.html" xlink:title="foodie">
<polygon fill="#337ab7" stroke="#337ab7" points="540,-213 486,-213 486,-187 540,-187 540,-213"/>
<text text-anchor="middle" x="513" y="-197.55" font-family="Helvetica,sans-Serif" font-size="10.50" fill="white">foodie</text>
</a>
</g>
<!-- module~foodie&#45;&gt;program~integrate_oscillation -->
<g id="edge44" class="edge"><title>module~foodie&#45;&gt;program~integrate_oscillation</title>
<path fill="none" stroke="black" stroke-dasharray="5,2" d="M527.419,-186.924C539.523,-176.667 557.723,-162.854 576,-155 657.524,-119.966 685.322,-135.985 772,-117 781.213,-114.982 790.926,-112.735 800.429,-110.468"/>
<polygon fill="black" stroke="black" points="801.322,-113.853 810.224,-108.109 799.683,-107.048 801.322,-113.853"/>
</g>
<!-- module~foodie&#45;&gt;module~type_oscillation -->
<g id="edge4" class="edge"><title>module~foodie&#45;&gt;module~type_oscillation</title>
<path fill="none" stroke="black" stroke-dasharray="5,2" d="M520.105,-186.829C530.207,-169.362 550.376,-138.792 576,-122 589.44,-113.192 605.718,-107.234 621.113,-103.213"/>
<polygon fill="black" stroke="black" points="622.15,-106.564 631.065,-100.84 620.526,-99.7551 622.15,-106.564"/>
</g>
<!-- IR_Precision -->
<g id="node5" class="node"><title>IR_Precision</title>
<polygon fill="#337ab7" stroke="#337ab7" points="73,-254 1,-254 1,-228 73,-228 73,-254"/>
<text text-anchor="middle" x="37" y="-238.55" font-family="Helvetica,sans-Serif" font-size="10.50" fill="white">IR_Precision</text>
</g>
<!-- IR_Precision&#45;&gt;program~integrate_oscillation -->
<g id="edge46" class="edge"><title>IR_Precision&#45;&gt;program~integrate_oscillation</title>
<path fill="none" stroke="black" stroke-dasharray="5,2" d="M46.156,-227.716C63.5116,-203.866 103.807,-154.544 152,-136"/>
<path fill="none" stroke="black" stroke-dasharray="5,2" d="M152,-136C302.704,-78.0103 351.848,-105.218 513,-95"/>
<path fill="none" stroke="black" stroke-dasharray="5,2" d="M513,-95C542.547,-92.4399 546.759,-77.9587 576,-73 661.885,-58.4355 685.514,-62.5828 772,-73 783.61,-74.3985 795.885,-76.777 807.51,-79.4661"/>
<polygon fill="black" stroke="black" points="806.983,-82.9396 817.526,-81.8925 808.631,-76.1364 806.983,-82.9396"/>
</g>
<!-- IR_Precision&#45;&gt;module~type_oscillation -->
<g id="edge2" class="edge"><title>IR_Precision&#45;&gt;module~type_oscillation</title>
<path fill="none" stroke="black" stroke-dasharray="5,2" d="M513,-95C548.964,-92.7196 589.539,-92.736 620.958,-93.3143"/>
<polygon fill="black" stroke="black" points="621.171,-96.8194 631.242,-93.5295 621.318,-89.821 621.171,-96.8194"/>
</g>
<!-- module~foodie_integrator_adams_bashforth -->
<g id="node9" class="node"><title>module~foodie_integrator_adams_bashforth</title>
<a xlink:href="../module/foodie_integrator_adams_bashforth.html" xlink:title="foodie_integrator_adams_bashforth">
<polygon fill="#337ab7" stroke="#337ab7" points="431,-319 249,-319 249,-293 431,-293 431,-319"/>
<text text-anchor="middle" x="340" y="-303.55" font-family="Helvetica,sans-Serif" font-size="10.50" fill="white">foodie_integrator_adams_bashforth</text>
</a>
</g>
<!-- IR_Precision&#45;&gt;module~foodie_integrator_adams_bashforth -->
<g id="edge8" class="edge"><title>IR_Precision&#45;&gt;module~foodie_integrator_adams_bashforth</title>
<path fill="none" stroke="black" stroke-dasharray="5,2" d="M152,-306C179.41,-313.21 209.856,-315.529 238.124,-315.445"/>
<polygon fill="black" stroke="black" points="238.477,-318.941 248.431,-315.31 238.386,-311.941 238.477,-318.941"/>
</g>
<!-- module~foodie_integrator_euler_explicit -->
<g id="node10" class="node"><title>module~foodie_integrator_euler_explicit</title>
<a xlink:href="../module/foodie_integrator_euler_explicit.html" xlink:title="foodie_integrator_euler_explicit">
<polygon fill="#337ab7" stroke="#337ab7" points="421,-275 259,-275 259,-249 421,-249 421,-275"/>
<text text-anchor="middle" x="340" y="-259.55" font-family="Helvetica,sans-Serif" font-size="10.50" fill="white">foodie_integrator_euler_explicit</text>
</a>
</g>
<!-- IR_Precision&#45;&gt;module~foodie_integrator_euler_explicit -->
<g id="edge12" class="edge"><title>IR_Precision&#45;&gt;module~foodie_integrator_euler_explicit</title>
<path fill="none" stroke="black" stroke-dasharray="5,2" d="M53.6975,-254.161C75.0524,-270.072 113.852,-295.965 152,-306"/>
<path fill="none" stroke="black" stroke-dasharray="5,2" d="M152,-306C186.834,-315.163 194.981,-292.427 230,-284 239.901,-281.617 250.346,-279.29 260.701,-277.095"/>
<polygon fill="black" stroke="black" points="261.506,-280.503 270.58,-275.034 260.076,-273.651 261.506,-280.503"/>
</g>
<!-- module~foodie_integrator_leapfrog -->
<g id="node11" class="node"><title>module~foodie_integrator_leapfrog</title>
<a xlink:href="../module/foodie_integrator_leapfrog.html" xlink:title="foodie_integrator_leapfrog">
<polygon fill="#337ab7" stroke="#337ab7" points="409,-193 271,-193 271,-167 409,-167 409,-193"/>
<text text-anchor="middle" x="340" y="-177.55" font-family="Helvetica,sans-Serif" font-size="10.50" fill="white">foodie_integrator_leapfrog</text>
</a>
</g>
<!-- IR_Precision&#45;&gt;module~foodie_integrator_leapfrog -->
<g id="edge16" class="edge"><title>IR_Precision&#45;&gt;module~foodie_integrator_leapfrog</title>
<path fill="none" stroke="black" stroke-dasharray="5,2" d="M152,-136C185.616,-123.065 194.981,-149.573 230,-158 239.901,-160.383 250.346,-162.71 260.701,-164.905"/>
<polygon fill="black" stroke="black" points="260.076,-168.349 270.58,-166.966 261.506,-161.497 260.076,-168.349"/>
</g>
<!-- module~foodie_integrator_low_storage_runge_kutta -->
<g id="node12" class="node"><title>module~foodie_integrator_low_storage_runge_kutta</title>
<a xlink:href="../module/foodie_integrator_low_storage_runge_kutta.html" xlink:title="foodie_integrator_low_storage_runge_kutta">
<polygon fill="#337ab7" stroke="#337ab7" points="450,-149 230,-149 230,-123 450,-123 450,-149"/>
<text text-anchor="middle" x="340" y="-133.55" font-family="Helvetica,sans-Serif" font-size="10.50" fill="white">foodie_integrator_low_storage_runge_kutta</text>
</a>
</g>
<!-- IR_Precision&#45;&gt;module~foodie_integrator_low_storage_runge_kutta -->
<g id="edge20" class="edge"><title>IR_Precision&#45;&gt;module~foodie_integrator_low_storage_runge_kutta</title>
<path fill="none" stroke="black" stroke-dasharray="5,2" d="M152,-136C179.521,-125.41 211.033,-122.295 240.29,-122.698"/>
<polygon fill="black" stroke="black" points="240.442,-126.203 250.535,-122.98 240.635,-119.206 240.442,-126.203"/>
</g>
<!-- module~foodie_integrator_tvd_runge_kutta -->
<g id="node13" class="node"><title>module~foodie_integrator_tvd_runge_kutta</title>
<a xlink:href="../module/foodie_integrator_tvd_runge_kutta.html" xlink:title="foodie_integrator_tvd_runge_kutta">
<polygon fill="#337ab7" stroke="#337ab7" points="428,-363 252,-363 252,-337 428,-337 428,-363"/>
<text text-anchor="middle" x="340" y="-347.55" font-family="Helvetica,sans-Serif" font-size="10.50" fill="white">foodie_integrator_tvd_runge_kutta</text>
</a>
</g>
<!-- IR_Precision&#45;&gt;module~foodie_integrator_tvd_runge_kutta -->
<g id="edge24" class="edge"><title>IR_Precision&#45;&gt;module~foodie_integrator_tvd_runge_kutta</title>
<path fill="none" stroke="black" stroke-dasharray="5,2" d="M152,-306C186.834,-315.163 194.981,-319.573 230,-328 239.901,-330.383 250.346,-332.71 260.701,-334.905"/>
<polygon fill="black" stroke="black" points="260.076,-338.349 270.58,-336.966 261.506,-331.497 260.076,-338.349"/>
</g>
<!-- module~type_integrand -->
<g id="node14" class="node"><title>module~type_integrand</title>
<a xlink:href="../module/type_integrand.html" xlink:title="type_integrand">
<polygon fill="#337ab7" stroke="#337ab7" points="194,-254 110,-254 110,-228 194,-228 194,-254"/>
<text text-anchor="middle" x="152" y="-238.55" font-family="Helvetica,sans-Serif" font-size="10.50" fill="white">type_integrand</text>
</a>
</g>
<!-- IR_Precision&#45;&gt;module~type_integrand -->
<g id="edge26" class="edge"><title>IR_Precision&#45;&gt;module~type_integrand</title>
<path fill="none" stroke="black" stroke-dasharray="5,2" d="M73.7029,-241C81.9237,-241 90.8,-241 99.521,-241"/>
<polygon fill="black" stroke="black" points="99.6389,-244.5 109.639,-241 99.6388,-237.5 99.6389,-244.5"/>
</g>
<!-- Data_Type_Command_Line_Interface -->
<g id="node6" class="node"><title>Data_Type_Command_Line_Interface</title>
<polygon fill="#337ab7" stroke="#337ab7" points="771,-26 577,-26 577,-1.24345e-14 771,-3.55271e-15 771,-26"/>
<text text-anchor="middle" x="674" y="-10.55" font-family="Helvetica,sans-Serif" font-size="10.50" fill="white">Data_Type_Command_Line_Interface</text>
</g>
<!-- Data_Type_Command_Line_Interface&#45;&gt;program~integrate_oscillation -->
<g id="edge48" class="edge"><title>Data_Type_Command_Line_Interface&#45;&gt;program~integrate_oscillation</title>
<path fill="none" stroke="black" stroke-dasharray="5,2" d="M731.672,-26.0003C745.156,-29.8266 759.287,-34.4944 772,-40 794.466,-49.7294 818.013,-64.2973 835.384,-75.9963"/>
<polygon fill="black" stroke="black" points="833.64,-79.0442 843.867,-81.8118 837.599,-73.2706 833.64,-79.0442"/>
</g>
<!-- module~foodie_integrator_adams_bashforth&#45;&gt;module~foodie -->
<g id="edge28" class="edge"><title>module~foodie_integrator_adams_bashforth&#45;&gt;module~foodie</title>
<path fill="none" stroke="black" stroke-dasharray="5,2" d="M431.501,-293.247C437.987,-290.686 444.233,-287.634 450,-284 473.747,-269.034 491.72,-241.68 502.274,-222.257"/>
<polygon fill="black" stroke="black" points="505.48,-223.677 506.979,-213.189 499.266,-220.453 505.48,-223.677"/>
</g>
<!-- module~foodie_integrator_euler_explicit&#45;&gt;module~foodie -->
<g id="edge30" class="edge"><title>module~foodie_integrator_euler_explicit&#45;&gt;module~foodie</title>
<path fill="none" stroke="black" stroke-dasharray="5,2" d="M405.458,-248.97C420.337,-245.176 435.905,-240.53 450,-235 461.531,-230.476 473.565,-224.216 483.989,-218.241"/>
<polygon fill="black" stroke="black" points="485.847,-221.208 492.682,-213.113 482.29,-215.179 485.847,-221.208"/>
</g>
<!-- module~foodie_integrator_leapfrog&#45;&gt;module~foodie -->
<g id="edge32" class="edge"><title>module~foodie_integrator_leapfrog&#45;&gt;module~foodie</title>
<path fill="none" stroke="black" stroke-dasharray="5,2" d="M409.867,-188.077C432.338,-190.675 456.366,-193.453 475.571,-195.673"/>
<polygon fill="black" stroke="black" points="475.368,-199.173 485.704,-196.844 476.172,-192.219 475.368,-199.173"/>
</g>
<!-- module~foodie_integrator_low_storage_runge_kutta&#45;&gt;module~foodie -->
<g id="edge34" class="edge"><title>module~foodie_integrator_low_storage_runge_kutta&#45;&gt;module~foodie</title>
<path fill="none" stroke="black" stroke-dasharray="5,2" d="M423.329,-149.043C432.484,-151.539 441.543,-154.497 450,-158 463.839,-163.732 477.841,-172.683 489.118,-180.852"/>
<polygon fill="black" stroke="black" points="487.061,-183.684 497.163,-186.879 491.259,-178.082 487.061,-183.684"/>
</g>
<!-- module~foodie_integrator_tvd_runge_kutta&#45;&gt;module~foodie -->
<g id="edge36" class="edge"><title>module~foodie_integrator_tvd_runge_kutta&#45;&gt;module~foodie</title>
<path fill="none" stroke="black" stroke-dasharray="5,2" d="M428.769,-339.922C436.371,-336.833 443.592,-332.926 450,-328 484.102,-301.783 500.929,-252.228 508.225,-223.065"/>
<polygon fill="black" stroke="black" points="511.634,-223.859 510.496,-213.325 504.816,-222.269 511.634,-223.859"/>
</g>
<!-- module~type_integrand&#45;&gt;module~foodie -->
<g id="edge38" class="edge"><title>module~type_integrand&#45;&gt;module~foodie</title>
<path fill="none" stroke="black" stroke-dasharray="5,2" d="M194.118,-236.217C265.266,-228.136 408.104,-211.913 475.792,-204.226"/>
<polygon fill="black" stroke="black" points="476.446,-207.674 485.987,-203.068 475.656,-200.719 476.446,-207.674"/>
</g>
<!-- module~type_integrand&#45;&gt;module~foodie_integrator_adams_bashforth -->
<g id="edge6" class="edge"><title>module~type_integrand&#45;&gt;module~foodie_integrator_adams_bashforth</title>
<path fill="none" stroke="black" stroke-dasharray="5,2" d="M171.717,-254.098C187.022,-263.702 209.088,-276.352 230,-284 236.39,-286.337 243.085,-288.446 249.882,-290.345"/>
<polygon fill="black" stroke="black" points="249.329,-293.819 259.891,-292.981 251.112,-287.05 249.329,-293.819"/>
</g>
<!-- module~type_integrand&#45;&gt;module~foodie_integrator_euler_explicit -->
<g id="edge10" class="edge"><title>module~type_integrand&#45;&gt;module~foodie_integrator_euler_explicit</title>
<path fill="none" stroke="black" stroke-dasharray="5,2" d="M194.191,-245.713C210.416,-247.525 229.636,-249.672 248.708,-251.802"/>
<polygon fill="black" stroke="black" points="248.324,-255.281 258.651,-252.913 249.101,-248.325 248.324,-255.281"/>
</g>
<!-- module~type_integrand&#45;&gt;module~foodie_integrator_leapfrog -->
<g id="edge14" class="edge"><title>module~type_integrand&#45;&gt;module~foodie_integrator_leapfrog</title>
<path fill="none" stroke="black" stroke-dasharray="5,2" d="M178.986,-227.881C193.804,-221.025 212.646,-212.864 230,-207 242.47,-202.786 255.939,-198.93 269.033,-195.532"/>
<polygon fill="black" stroke="black" points="270.112,-198.87 278.95,-193.025 268.397,-192.083 270.112,-198.87"/>
</g>
<!-- module~type_integrand&#45;&gt;module~foodie_integrator_low_storage_runge_kutta -->
<g id="edge18" class="edge"><title>module~type_integrand&#45;&gt;module~foodie_integrator_low_storage_runge_kutta</title>
<path fill="none" stroke="black" stroke-dasharray="5,2" d="M160.314,-227.967C172.962,-209.294 198.883,-175.28 230,-158 233.445,-156.087 237.033,-154.339 240.719,-152.741"/>
<polygon fill="black" stroke="black" points="242.031,-155.986 250.06,-149.074 239.473,-149.471 242.031,-155.986"/>
</g>
<!-- module~type_integrand&#45;&gt;module~foodie_integrator_tvd_runge_kutta -->
<g id="edge22" class="edge"><title>module~type_integrand&#45;&gt;module~foodie_integrator_tvd_runge_kutta</title>
<path fill="none" stroke="black" stroke-dasharray="5,2" d="M162.905,-254.049C182.309,-277.133 221.587,-323.198 230,-328 233.758,-330.145 237.693,-332.083 241.744,-333.835"/>
<polygon fill="black" stroke="black" points="240.795,-337.221 251.384,-337.592 243.337,-330.699 240.795,-337.221"/>
</g>
</g>
</svg>
