<?xml version="1.0" encoding="UTF-8" standalone="no"?>
<!DOCTYPE svg PUBLIC "-//W3C//DTD SVG 1.1//EN"
 "http://www.w3.org/Graphics/SVG/1.1/DTD/svg11.dtd">
<!-- Generated by graphviz version 2.26.3 (20100126.1600)
 -->
<!-- Title: program~~integrate_burgers~~UsesGraph Pages: 1 -->
<svg width="641pt" height="221pt"
 viewBox="0.00 0.00 641.00 220.56" xmlns="http://www.w3.org/2000/svg" xmlns:xlink="http://www.w3.org/1999/xlink">
<g id="graph1" class="graph" transform="scale(0.701313 0.701313) rotate(0) translate(4 310.501)">
<title>program~~integrate_burgers~~UsesGraph</title>
<polygon fill="white" stroke="white" points="-4,5 -4,-310.501 911,-310.501 911,5 -4,5"/>
<!-- program~integrate_burgers -->
<g id="node1" class="node"><title>program~integrate_burgers</title>
<polygon fill="none" stroke="black" points="905,-92.5006 809,-92.5006 809,-66.5006 905,-66.5006 905,-92.5006"/>
<text text-anchor="middle" x="857" y="-77.0506" font-family="Helvetica,sans-Serif" font-size="10.50">integrate_burgers</text>
</g>
<!-- Data_Type_Command_Line_Interface -->
<g id="node2" class="node"><title>Data_Type_Command_Line_Interface</title>
<polygon fill="#337ab7" stroke="#337ab7" points="771,-177.501 577,-177.501 577,-151.501 771,-151.501 771,-177.501"/>
<text text-anchor="middle" x="674" y="-162.051" font-family="Helvetica,sans-Serif" font-size="10.50" fill="white">Data_Type_Command_Line_Interface</text>
</g>
<!-- Data_Type_Command_Line_Interface&#45;&gt;program~integrate_burgers -->
<g id="edge40" class="edge"><title>Data_Type_Command_Line_Interface&#45;&gt;program~integrate_burgers</title>
<path fill="none" stroke="black" stroke-dasharray="5,2" d="M747.884,-151.431C756.188,-148.936 764.39,-145.985 772,-142.501 795.609,-131.692 819.062,-113.611 835.333,-99.5846"/>
<polygon fill="black" stroke="black" points="837.972,-101.923 843.15,-92.6792 833.338,-96.6769 837.972,-101.923"/>
</g>
<!-- pyplot_module -->
<g id="node3" class="node"><title>pyplot_module</title>
<polygon fill="#337ab7" stroke="#337ab7" points="715,-133.501 633,-133.501 633,-107.501 715,-107.501 715,-133.501"/>
<text text-anchor="middle" x="674" y="-118.051" font-family="Helvetica,sans-Serif" font-size="10.50" fill="white">pyplot_module</text>
</g>
<!-- pyplot_module&#45;&gt;program~integrate_burgers -->
<g id="edge42" class="edge"><title>pyplot_module&#45;&gt;program~integrate_burgers</title>
<path fill="none" stroke="black" stroke-dasharray="5,2" d="M715.069,-111.299C739.659,-105.79 771.315,-98.6978 798.489,-92.6096"/>
<polygon fill="black" stroke="black" points="799.284,-96.0184 808.277,-90.4168 797.753,-89.1878 799.284,-96.0184"/>
</g>
<!-- module~foodie -->
<g id="node4" class="node"><title>module~foodie</title>
<a xlink:href="../module/foodie.html" xlink:title="foodie">
<polygon fill="#337ab7" stroke="#337ab7" points="540,-156.501 486,-156.501 486,-130.501 540,-130.501 540,-156.501"/>
<text text-anchor="middle" x="513" y="-141.051" font-family="Helvetica,sans-Serif" font-size="10.50" fill="white">foodie</text>
</a>
</g>
<!-- module~foodie&#45;&gt;program~integrate_burgers -->
<g id="edge44" class="edge"><title>module~foodie&#45;&gt;program~integrate_burgers</title>
<path fill="none" stroke="black" stroke-dasharray="5,2" d="M526.696,-130.24C538.652,-119.579 557.019,-105.298 576,-98.5006 649.281,-72.2578 740.083,-71.3058 798.279,-74.3385"/>
<polygon fill="black" stroke="black" points="798.212,-77.8404 808.398,-74.9232 798.616,-70.8521 798.212,-77.8404"/>
</g>
<!-- module~type_burgers -->
<g id="node6" class="node"><title>module~type_burgers</title>
<a xlink:href="../module/type_burgers.html" xlink:title="type_burgers">
<polygon fill="#337ab7" stroke="#337ab7" points="712,-51.5006 636,-51.5006 636,-25.5006 712,-25.5006 712,-51.5006"/>
<text text-anchor="middle" x="674" y="-36.0506" font-family="Helvetica,sans-Serif" font-size="10.50" fill="white">type_burgers</text>
</a>
</g>
<!-- module~foodie&#45;&gt;module~type_burgers -->
<g id="edge38" class="edge"><title>module~foodie&#45;&gt;module~type_burgers</title>
<path fill="none" stroke="black" stroke-dasharray="5,2" d="M520.105,-130.329C530.207,-112.863 550.376,-82.293 576,-65.5006 590.791,-55.8079 609.017,-49.5664 625.724,-45.5593"/>
<polygon fill="black" stroke="black" points="626.861,-48.8936 635.885,-43.3423 625.369,-42.0545 626.861,-48.8936"/>
</g>
<!-- IR_Precision -->
<g id="node5" class="node"><title>IR_Precision</title>
<polygon fill="#337ab7" stroke="#337ab7" points="73,-197.501 1,-197.501 1,-171.501 73,-171.501 73,-197.501"/>
<text text-anchor="middle" x="37" y="-182.051" font-family="Helvetica,sans-Serif" font-size="10.50" fill="white">IR_Precision</text>
</g>
<!-- IR_Precision&#45;&gt;program~integrate_burgers -->
<g id="edge46" class="edge"><title>IR_Precision&#45;&gt;program~integrate_burgers</title>
<path fill="none" stroke="black" stroke-dasharray="5,2" d="M46.156,-171.217C63.5116,-147.367 103.807,-98.0449 152,-79.5006"/>
<path fill="none" stroke="black" stroke-dasharray="5,2" d="M152,-79.5006C302.704,-21.5109 351.848,-48.7191 513,-38.5006"/>
<path fill="none" stroke="black" stroke-dasharray="5,2" d="M513,-38.5006C542.54,-35.8553 546.759,-21.4593 576,-16.5006 661.885,-1.93611 689.281,10.8119 772,-16.5006 797.25,-24.8379 821.124,-43.892 837.104,-58.8763"/>
<polygon fill="black" stroke="black" points="835.095,-61.8045 844.706,-66.2628 839.973,-56.784 835.095,-61.8045"/>
</g>
<!-- IR_Precision&#45;&gt;module~type_burgers -->
<g id="edge36" class="edge"><title>IR_Precision&#45;&gt;module~type_burgers</title>
<path fill="none" stroke="black" stroke-dasharray="5,2" d="M513,-38.5006C550.719,-36.109 593.508,-36.2438 625.489,-36.9034"/>
<polygon fill="black" stroke="black" points="625.819,-40.4119 635.897,-37.1443 625.981,-33.4137 625.819,-40.4119"/>
</g>
<!-- module~foodie_integrator_adams_bashforth -->
<g id="node7" class="node"><title>module~foodie_integrator_adams_bashforth</title>
<a xlink:href="../module/foodie_integrator_adams_bashforth.html" xlink:title="foodie_integrator_adams_bashforth">
<polygon fill="#337ab7" stroke="#337ab7" points="431,-262.501 249,-262.501 249,-236.501 431,-236.501 431,-262.501"/>
<text text-anchor="middle" x="340" y="-247.051" font-family="Helvetica,sans-Serif" font-size="10.50" fill="white">foodie_integrator_adams_bashforth</text>
</a>
</g>
<!-- IR_Precision&#45;&gt;module~foodie_integrator_adams_bashforth -->
<g id="edge4" class="edge"><title>IR_Precision&#45;&gt;module~foodie_integrator_adams_bashforth</title>
<path fill="none" stroke="black" stroke-dasharray="5,2" d="M152,-249.501C179.41,-256.711 209.856,-259.03 238.124,-258.946"/>
<polygon fill="black" stroke="black" points="238.477,-262.442 248.431,-258.811 238.386,-255.442 238.477,-262.442"/>
</g>
<!-- module~foodie_integrator_euler_explicit -->
<g id="node8" class="node"><title>module~foodie_integrator_euler_explicit</title>
<a xlink:href="../module/foodie_integrator_euler_explicit.html" xlink:title="foodie_integrator_euler_explicit">
<polygon fill="#337ab7" stroke="#337ab7" points="421,-218.501 259,-218.501 259,-192.501 421,-192.501 421,-218.501"/>
<text text-anchor="middle" x="340" y="-203.051" font-family="Helvetica,sans-Serif" font-size="10.50" fill="white">foodie_integrator_euler_explicit</text>
</a>
</g>
<!-- IR_Precision&#45;&gt;module~foodie_integrator_euler_explicit -->
<g id="edge8" class="edge"><title>IR_Precision&#45;&gt;module~foodie_integrator_euler_explicit</title>
<path fill="none" stroke="black" stroke-dasharray="5,2" d="M53.6975,-197.662C75.0524,-213.573 113.852,-239.466 152,-249.501"/>
<path fill="none" stroke="black" stroke-dasharray="5,2" d="M152,-249.501C186.834,-258.664 194.981,-235.928 230,-227.501 239.901,-225.118 250.346,-222.791 260.701,-220.596"/>
<polygon fill="black" stroke="black" points="261.506,-224.004 270.58,-218.535 260.076,-217.151 261.506,-224.004"/>
</g>
<!-- module~foodie_integrator_leapfrog -->
<g id="node9" class="node"><title>module~foodie_integrator_leapfrog</title>
<a xlink:href="../module/foodie_integrator_leapfrog.html" xlink:title="foodie_integrator_leapfrog">
<polygon fill="#337ab7" stroke="#337ab7" points="409,-136.501 271,-136.501 271,-110.501 409,-110.501 409,-136.501"/>
<text text-anchor="middle" x="340" y="-121.051" font-family="Helvetica,sans-Serif" font-size="10.50" fill="white">foodie_integrator_leapfrog</text>
</a>
</g>
<!-- IR_Precision&#45;&gt;module~foodie_integrator_leapfrog -->
<g id="edge12" class="edge"><title>IR_Precision&#45;&gt;module~foodie_integrator_leapfrog</title>
<path fill="none" stroke="black" stroke-dasharray="5,2" d="M152,-79.5006C185.616,-66.5653 194.981,-93.0734 230,-101.501 239.901,-103.883 250.346,-106.21 260.701,-108.405"/>
<polygon fill="black" stroke="black" points="260.076,-111.85 270.58,-110.467 261.506,-104.998 260.076,-111.85"/>
</g>
<!-- module~foodie_integrator_low_storage_runge_kutta -->
<g id="node10" class="node"><title>module~foodie_integrator_low_storage_runge_kutta</title>
<a xlink:href="../module/foodie_integrator_low_storage_runge_kutta.html" xlink:title="foodie_integrator_low_storage_runge_kutta">
<polygon fill="#337ab7" stroke="#337ab7" points="450,-92.5006 230,-92.5006 230,-66.5006 450,-66.5006 450,-92.5006"/>
<text text-anchor="middle" x="340" y="-77.0506" font-family="Helvetica,sans-Serif" font-size="10.50" fill="white">foodie_integrator_low_storage_runge_kutta</text>
</a>
</g>
<!-- IR_Precision&#45;&gt;module~foodie_integrator_low_storage_runge_kutta -->
<g id="edge16" class="edge"><title>IR_Precision&#45;&gt;module~foodie_integrator_low_storage_runge_kutta</title>
<path fill="none" stroke="black" stroke-dasharray="5,2" d="M152,-79.5006C179.521,-68.9107 211.033,-65.7955 240.29,-66.1982"/>
<polygon fill="black" stroke="black" points="240.442,-69.7036 250.535,-66.4808 240.635,-62.7063 240.442,-69.7036"/>
</g>
<!-- module~foodie_integrator_tvd_runge_kutta -->
<g id="node11" class="node"><title>module~foodie_integrator_tvd_runge_kutta</title>
<a xlink:href="../module/foodie_integrator_tvd_runge_kutta.html" xlink:title="foodie_integrator_tvd_runge_kutta">
<polygon fill="#337ab7" stroke="#337ab7" points="428,-306.501 252,-306.501 252,-280.501 428,-280.501 428,-306.501"/>
<text text-anchor="middle" x="340" y="-291.051" font-family="Helvetica,sans-Serif" font-size="10.50" fill="white">foodie_integrator_tvd_runge_kutta</text>
</a>
</g>
<!-- IR_Precision&#45;&gt;module~foodie_integrator_tvd_runge_kutta -->
<g id="edge20" class="edge"><title>IR_Precision&#45;&gt;module~foodie_integrator_tvd_runge_kutta</title>
<path fill="none" stroke="black" stroke-dasharray="5,2" d="M152,-249.501C186.834,-258.664 194.981,-263.073 230,-271.501 239.901,-273.883 250.346,-276.21 260.701,-278.405"/>
<polygon fill="black" stroke="black" points="260.076,-281.85 270.58,-280.467 261.506,-274.998 260.076,-281.85"/>
</g>
<!-- module~type_integrand -->
<g id="node12" class="node"><title>module~type_integrand</title>
<a xlink:href="../module/type_integrand.html" xlink:title="type_integrand">
<polygon fill="#337ab7" stroke="#337ab7" points="194,-197.501 110,-197.501 110,-171.501 194,-171.501 194,-197.501"/>
<text text-anchor="middle" x="152" y="-182.051" font-family="Helvetica,sans-Serif" font-size="10.50" fill="white">type_integrand</text>
</a>
</g>
<!-- IR_Precision&#45;&gt;module~type_integrand -->
<g id="edge22" class="edge"><title>IR_Precision&#45;&gt;module~type_integrand</title>
<path fill="none" stroke="black" stroke-dasharray="5,2" d="M73.7029,-184.501C81.9237,-184.501 90.8,-184.501 99.521,-184.501"/>
<polygon fill="black" stroke="black" points="99.6389,-188.001 109.639,-184.501 99.6388,-181.001 99.6389,-188.001"/>
</g>
<!-- module~type_burgers&#45;&gt;program~integrate_burgers -->
<g id="edge48" class="edge"><title>module~type_burgers&#45;&gt;program~integrate_burgers</title>
<path fill="none" stroke="black" stroke-dasharray="5,2" d="M712.363,-47.0956C737.192,-52.6585 770.011,-60.0113 798.109,-66.3065"/>
<polygon fill="black" stroke="black" points="797.701,-69.8017 808.224,-68.5727 799.231,-62.9711 797.701,-69.8017"/>
</g>
<!-- module~foodie_integrator_adams_bashforth&#45;&gt;module~foodie -->
<g id="edge24" class="edge"><title>module~foodie_integrator_adams_bashforth&#45;&gt;module~foodie</title>
<path fill="none" stroke="black" stroke-dasharray="5,2" d="M431.501,-236.747C437.987,-234.187 444.233,-231.135 450,-227.501 473.747,-212.534 491.72,-185.181 502.274,-165.757"/>
<polygon fill="black" stroke="black" points="505.48,-167.177 506.979,-156.689 499.266,-163.953 505.48,-167.177"/>
</g>
<!-- module~foodie_integrator_euler_explicit&#45;&gt;module~foodie -->
<g id="edge26" class="edge"><title>module~foodie_integrator_euler_explicit&#45;&gt;module~foodie</title>
<path fill="none" stroke="black" stroke-dasharray="5,2" d="M405.458,-192.471C420.337,-188.677 435.905,-184.031 450,-178.501 461.531,-173.976 473.565,-167.717 483.989,-161.741"/>
<polygon fill="black" stroke="black" points="485.847,-164.709 492.682,-156.613 482.29,-158.68 485.847,-164.709"/>
</g>
<!-- module~foodie_integrator_leapfrog&#45;&gt;module~foodie -->
<g id="edge28" class="edge"><title>module~foodie_integrator_leapfrog&#45;&gt;module~foodie</title>
<path fill="none" stroke="black" stroke-dasharray="5,2" d="M409.867,-131.578C432.338,-134.176 456.366,-136.953 475.571,-139.174"/>
<polygon fill="black" stroke="black" points="475.368,-142.673 485.704,-140.345 476.172,-135.72 475.368,-142.673"/>
</g>
<!-- module~foodie_integrator_low_storage_runge_kutta&#45;&gt;module~foodie -->
<g id="edge30" class="edge"><title>module~foodie_integrator_low_storage_runge_kutta&#45;&gt;module~foodie</title>
<path fill="none" stroke="black" stroke-dasharray="5,2" d="M423.329,-92.5441C432.484,-95.0396 441.543,-97.9978 450,-101.501 463.839,-107.233 477.841,-116.184 489.118,-124.352"/>
<polygon fill="black" stroke="black" points="487.061,-127.185 497.163,-130.38 491.259,-121.583 487.061,-127.185"/>
</g>
<!-- module~foodie_integrator_tvd_runge_kutta&#45;&gt;module~foodie -->
<g id="edge32" class="edge"><title>module~foodie_integrator_tvd_runge_kutta&#45;&gt;module~foodie</title>
<path fill="none" stroke="black" stroke-dasharray="5,2" d="M428.769,-283.423C436.371,-280.334 443.592,-276.427 450,-271.501 484.102,-245.284 500.929,-195.728 508.225,-166.566"/>
<polygon fill="black" stroke="black" points="511.634,-167.359 510.496,-156.826 504.816,-165.77 511.634,-167.359"/>
</g>
<!-- module~type_integrand&#45;&gt;module~foodie -->
<g id="edge34" class="edge"><title>module~type_integrand&#45;&gt;module~foodie</title>
<path fill="none" stroke="black" stroke-dasharray="5,2" d="M194.118,-179.717C265.266,-171.637 408.104,-155.414 475.792,-147.727"/>
<polygon fill="black" stroke="black" points="476.446,-151.175 485.987,-146.569 475.656,-144.219 476.446,-151.175"/>
</g>
<!-- module~type_integrand&#45;&gt;module~foodie_integrator_adams_bashforth -->
<g id="edge2" class="edge"><title>module~type_integrand&#45;&gt;module~foodie_integrator_adams_bashforth</title>
<path fill="none" stroke="black" stroke-dasharray="5,2" d="M171.717,-197.599C187.022,-207.203 209.088,-219.853 230,-227.501 236.39,-229.838 243.085,-231.947 249.882,-233.846"/>
<polygon fill="black" stroke="black" points="249.329,-237.32 259.891,-236.482 251.112,-230.55 249.329,-237.32"/>
</g>
<!-- module~type_integrand&#45;&gt;module~foodie_integrator_euler_explicit -->
<g id="edge6" class="edge"><title>module~type_integrand&#45;&gt;module~foodie_integrator_euler_explicit</title>
<path fill="none" stroke="black" stroke-dasharray="5,2" d="M194.191,-189.213C210.416,-191.026 229.636,-193.173 248.708,-195.303"/>
<polygon fill="black" stroke="black" points="248.324,-198.782 258.651,-196.414 249.101,-191.825 248.324,-198.782"/>
</g>
<!-- module~type_integrand&#45;&gt;module~foodie_integrator_leapfrog -->
<g id="edge10" class="edge"><title>module~type_integrand&#45;&gt;module~foodie_integrator_leapfrog</title>
<path fill="none" stroke="black" stroke-dasharray="5,2" d="M178.986,-171.381C193.804,-164.525 212.646,-156.365 230,-150.501 242.47,-146.287 255.939,-142.43 269.033,-139.033"/>
<polygon fill="black" stroke="black" points="270.112,-142.37 278.95,-136.526 268.397,-135.584 270.112,-142.37"/>
</g>
<!-- module~type_integrand&#45;&gt;module~foodie_integrator_low_storage_runge_kutta -->
<g id="edge14" class="edge"><title>module~type_integrand&#45;&gt;module~foodie_integrator_low_storage_runge_kutta</title>
<path fill="none" stroke="black" stroke-dasharray="5,2" d="M160.314,-171.467C172.962,-152.795 198.883,-118.781 230,-101.501 233.445,-99.5875 237.033,-97.8393 240.719,-96.242"/>
<polygon fill="black" stroke="black" points="242.031,-99.487 250.06,-92.5742 239.473,-92.9713 242.031,-99.487"/>
</g>
<!-- module~type_integrand&#45;&gt;module~foodie_integrator_tvd_runge_kutta -->
<g id="edge18" class="edge"><title>module~type_integrand&#45;&gt;module~foodie_integrator_tvd_runge_kutta</title>
<path fill="none" stroke="black" stroke-dasharray="5,2" d="M162.905,-197.55C182.309,-220.633 221.587,-266.699 230,-271.501 233.758,-273.646 237.693,-275.584 241.744,-277.335"/>
<polygon fill="black" stroke="black" points="240.795,-280.722 251.384,-281.092 243.337,-274.2 240.795,-280.722"/>
</g>
</g>
</svg>
