<?xml version="1.0" encoding="UTF-8" standalone="no"?>
<!DOCTYPE svg PUBLIC "-//W3C//DTD SVG 1.1//EN"
 "http://www.w3.org/Graphics/SVG/1.1/DTD/svg11.dtd">
<!-- Generated by graphviz version 2.26.3 (20100126.1600)
 -->
<!-- Title: program~~integrate_euler_1d~~UsesGraph Pages: 1 -->
<svg width="641pt" height="287pt"
 viewBox="0.00 0.00 641.00 287.06" xmlns="http://www.w3.org/2000/svg" xmlns:xlink="http://www.w3.org/1999/xlink">
<g id="graph1" class="graph" transform="scale(0.696739 0.696739) rotate(0) translate(4 408)">
<title>program~~integrate_euler_1d~~UsesGraph</title>
<polygon fill="white" stroke="white" points="-4,5 -4,-408 917,-408 917,5 -4,5"/>
<!-- program~integrate_euler_1d -->
<g id="node1" class="node"><title>program~integrate_euler_1d</title>
<polygon fill="none" stroke="black" points="912,-342 808,-342 808,-316 912,-316 912,-342"/>
<text text-anchor="middle" x="860" y="-326.55" font-family="Helvetica,sans-Serif" font-size="10.50">integrate_euler_1D</text>
</g>
<!-- Data_Type_Command_Line_Interface -->
<g id="node2" class="node"><title>Data_Type_Command_Line_Interface</title>
<polygon fill="#337ab7" stroke="#337ab7" points="771,-404 577,-404 577,-378 771,-378 771,-404"/>
<text text-anchor="middle" x="674" y="-388.55" font-family="Helvetica,sans-Serif" font-size="10.50" fill="white">Data_Type_Command_Line_Interface</text>
</g>
<!-- Data_Type_Command_Line_Interface&#45;&gt;program~integrate_euler_1d -->
<g id="edge42" class="edge"><title>Data_Type_Command_Line_Interface&#45;&gt;program~integrate_euler_1d</title>
<path fill="none" stroke="black" stroke-dasharray="5,2" d="M725.438,-377.968C740.543,-373.835 757.025,-369.024 772,-364 787.856,-358.68 805.005,-352.063 819.916,-346.018"/>
<polygon fill="black" stroke="black" points="821.43,-349.18 829.355,-342.148 818.775,-342.703 821.43,-349.18"/>
</g>
<!-- module~foodie -->
<g id="node3" class="node"><title>module~foodie</title>
<a xlink:href="../module/foodie.html" xlink:title="foodie">
<polygon fill="#337ab7" stroke="#337ab7" points="540,-213 486,-213 486,-187 540,-187 540,-213"/>
<text text-anchor="middle" x="513" y="-197.55" font-family="Helvetica,sans-Serif" font-size="10.50" fill="white">foodie</text>
</a>
</g>
<!-- module~foodie&#45;&gt;program~integrate_euler_1d -->
<g id="edge44" class="edge"><title>module~foodie&#45;&gt;program~integrate_euler_1d</title>
<path fill="none" stroke="black" stroke-dasharray="5,2" d="M515.306,-213.237C520.712,-240.049 536.834,-300.79 576,-331 611.13,-358.097 630.213,-342.855 674,-350"/>
<path fill="none" stroke="black" stroke-dasharray="5,2" d="M674,-350C715.922,-356.841 763.525,-351.222 800.078,-344.082"/>
<polygon fill="black" stroke="black" points="800.985,-347.469 810.081,-342.037 799.583,-340.611 800.985,-347.469"/>
</g>
<!-- module~type_euler_1d -->
<g id="node6" class="node"><title>module~type_euler_1d</title>
<a xlink:href="../module/type_euler_1d.html" xlink:title="type_euler_1D">
<polygon fill="#337ab7" stroke="#337ab7" points="715,-130 633,-130 633,-104 715,-104 715,-130"/>
<text text-anchor="middle" x="674" y="-114.55" font-family="Helvetica,sans-Serif" font-size="10.50" fill="white">type_euler_1D</text>
</a>
</g>
<!-- module~foodie&#45;&gt;module~type_euler_1d -->
<g id="edge40" class="edge"><title>module~foodie&#45;&gt;module~type_euler_1d</title>
<path fill="none" stroke="black" stroke-dasharray="5,2" d="M538.511,-186.848C565.832,-172.764 609.339,-150.335 639.656,-134.705"/>
<polygon fill="black" stroke="black" points="641.324,-137.783 648.608,-130.09 638.116,-131.561 641.324,-137.783"/>
</g>
<!-- IR_Precision -->
<g id="node4" class="node"><title>IR_Precision</title>
<polygon fill="#337ab7" stroke="#337ab7" points="73,-213 1,-213 1,-187 73,-187 73,-213"/>
<text text-anchor="middle" x="37" y="-197.55" font-family="Helvetica,sans-Serif" font-size="10.50" fill="white">IR_Precision</text>
</g>
<!-- IR_Precision&#45;&gt;program~integrate_euler_1d -->
<g id="edge46" class="edge"><title>IR_Precision&#45;&gt;program~integrate_euler_1d</title>
<path fill="none" stroke="black" stroke-dasharray="5,2" d="M152,-309C186.201,-320.3 194.434,-325.303 230,-331 425.028,-362.241 479.065,-318.189 674,-350"/>
</g>
<!-- IR_Precision&#45;&gt;module~type_euler_1d -->
<g id="edge38" class="edge"><title>IR_Precision&#45;&gt;module~type_euler_1d</title>
<path fill="none" stroke="black" stroke-dasharray="5,2" d="M46.156,-186.716C63.5116,-162.866 103.807,-113.544 152,-95"/>
<path fill="none" stroke="black" stroke-dasharray="5,2" d="M152,-95C275.946,-47.3067 317.819,-60.1408 450,-73 509.959,-78.8331 577.688,-93.2517 622.82,-104.004"/>
<polygon fill="black" stroke="black" points="622.118,-107.435 632.66,-106.375 623.758,-100.63 622.118,-107.435"/>
</g>
<!-- module~foodie_integrator_adams_bashforth -->
<g id="node7" class="node"><title>module~foodie_integrator_adams_bashforth</title>
<a xlink:href="../module/foodie_integrator_adams_bashforth.html" xlink:title="foodie_integrator_adams_bashforth">
<polygon fill="#337ab7" stroke="#337ab7" points="431,-322 249,-322 249,-296 431,-296 431,-322"/>
<text text-anchor="middle" x="340" y="-306.55" font-family="Helvetica,sans-Serif" font-size="10.50" fill="white">foodie_integrator_adams_bashforth</text>
</a>
</g>
<!-- IR_Precision&#45;&gt;module~foodie_integrator_adams_bashforth -->
<g id="edge4" class="edge"><title>IR_Precision&#45;&gt;module~foodie_integrator_adams_bashforth</title>
<path fill="none" stroke="black" stroke-dasharray="5,2" d="M152,-309C179.05,-317.937 209.508,-320.78 237.906,-320.645"/>
<polygon fill="black" stroke="black" points="238.327,-324.139 248.266,-320.467 238.207,-317.14 238.327,-324.139"/>
</g>
<!-- module~foodie_integrator_euler_explicit -->
<g id="node8" class="node"><title>module~foodie_integrator_euler_explicit</title>
<a xlink:href="../module/foodie_integrator_euler_explicit.html" xlink:title="foodie_integrator_euler_explicit">
<polygon fill="#337ab7" stroke="#337ab7" points="421,-278 259,-278 259,-252 421,-252 421,-278"/>
<text text-anchor="middle" x="340" y="-262.55" font-family="Helvetica,sans-Serif" font-size="10.50" fill="white">foodie_integrator_euler_explicit</text>
</a>
</g>
<!-- IR_Precision&#45;&gt;module~foodie_integrator_euler_explicit -->
<g id="edge8" class="edge"><title>IR_Precision&#45;&gt;module~foodie_integrator_euler_explicit</title>
<path fill="none" stroke="black" stroke-dasharray="5,2" d="M152,-309C186.201,-320.3 194.981,-295.427 230,-287 239.901,-284.617 250.346,-282.29 260.701,-280.095"/>
<polygon fill="black" stroke="black" points="261.506,-283.503 270.58,-278.034 260.076,-276.651 261.506,-283.503"/>
</g>
<!-- module~foodie_integrator_leapfrog -->
<g id="node9" class="node"><title>module~foodie_integrator_leapfrog</title>
<a xlink:href="../module/foodie_integrator_leapfrog.html" xlink:title="foodie_integrator_leapfrog">
<polygon fill="#337ab7" stroke="#337ab7" points="409,-234 271,-234 271,-208 409,-208 409,-234"/>
<text text-anchor="middle" x="340" y="-218.55" font-family="Helvetica,sans-Serif" font-size="10.50" fill="white">foodie_integrator_leapfrog</text>
</a>
</g>
<!-- IR_Precision&#45;&gt;module~foodie_integrator_leapfrog -->
<g id="edge12" class="edge"><title>IR_Precision&#45;&gt;module~foodie_integrator_leapfrog</title>
<path fill="none" stroke="black" stroke-dasharray="5,2" d="M45.0521,-213.137C61.4134,-238.294 101.328,-292.258 152,-309"/>
<path fill="none" stroke="black" stroke-dasharray="5,2" d="M152,-309C195.119,-323.246 189.106,-262.745 230,-243 239.601,-238.364 250.125,-234.705 260.74,-231.817"/>
<polygon fill="black" stroke="black" points="261.639,-235.2 270.489,-229.376 259.938,-228.41 261.639,-235.2"/>
</g>
<!-- module~foodie_integrator_low_storage_runge_kutta -->
<g id="node10" class="node"><title>module~foodie_integrator_low_storage_runge_kutta</title>
<a xlink:href="../module/foodie_integrator_low_storage_runge_kutta.html" xlink:title="foodie_integrator_low_storage_runge_kutta">
<polygon fill="#337ab7" stroke="#337ab7" points="450,-152 230,-152 230,-126 450,-126 450,-152"/>
<text text-anchor="middle" x="340" y="-136.55" font-family="Helvetica,sans-Serif" font-size="10.50" fill="white">foodie_integrator_low_storage_runge_kutta</text>
</a>
</g>
<!-- IR_Precision&#45;&gt;module~foodie_integrator_low_storage_runge_kutta -->
<g id="edge16" class="edge"><title>IR_Precision&#45;&gt;module~foodie_integrator_low_storage_runge_kutta</title>
<path fill="none" stroke="black" stroke-dasharray="5,2" d="M152,-95C185.616,-82.0647 194.981,-108.573 230,-117 239.901,-119.383 250.346,-121.71 260.701,-123.905"/>
<polygon fill="black" stroke="black" points="260.076,-127.349 270.58,-125.966 261.506,-120.497 260.076,-127.349"/>
</g>
<!-- module~foodie_integrator_tvd_runge_kutta -->
<g id="node11" class="node"><title>module~foodie_integrator_tvd_runge_kutta</title>
<a xlink:href="../module/foodie_integrator_tvd_runge_kutta.html" xlink:title="foodie_integrator_tvd_runge_kutta">
<polygon fill="#337ab7" stroke="#337ab7" points="428,-108 252,-108 252,-82 428,-82 428,-108"/>
<text text-anchor="middle" x="340" y="-92.55" font-family="Helvetica,sans-Serif" font-size="10.50" fill="white">foodie_integrator_tvd_runge_kutta</text>
</a>
</g>
<!-- IR_Precision&#45;&gt;module~foodie_integrator_tvd_runge_kutta -->
<g id="edge20" class="edge"><title>IR_Precision&#45;&gt;module~foodie_integrator_tvd_runge_kutta</title>
<path fill="none" stroke="black" stroke-dasharray="5,2" d="M152,-95C179.794,-84.3052 211.657,-81.2339 241.159,-81.7105"/>
<polygon fill="black" stroke="black" points="241.384,-85.2188 251.485,-82.0204 241.594,-78.2219 241.384,-85.2188"/>
</g>
<!-- module~type_integrand -->
<g id="node12" class="node"><title>module~type_integrand</title>
<a xlink:href="../module/type_integrand.html" xlink:title="type_integrand">
<polygon fill="#337ab7" stroke="#337ab7" points="194,-213 110,-213 110,-187 194,-187 194,-213"/>
<text text-anchor="middle" x="152" y="-197.55" font-family="Helvetica,sans-Serif" font-size="10.50" fill="white">type_integrand</text>
</a>
</g>
<!-- IR_Precision&#45;&gt;module~type_integrand -->
<g id="edge22" class="edge"><title>IR_Precision&#45;&gt;module~type_integrand</title>
<path fill="none" stroke="black" stroke-dasharray="5,2" d="M73.7029,-200C81.9237,-200 90.8,-200 99.521,-200"/>
<polygon fill="black" stroke="black" points="99.6389,-203.5 109.639,-200 99.6388,-196.5 99.6389,-203.5"/>
</g>
<!-- pyplot_module -->
<g id="node5" class="node"><title>pyplot_module</title>
<polygon fill="#337ab7" stroke="#337ab7" points="715,-322 633,-322 633,-296 715,-296 715,-322"/>
<text text-anchor="middle" x="674" y="-306.55" font-family="Helvetica,sans-Serif" font-size="10.50" fill="white">pyplot_module</text>
</g>
<!-- pyplot_module&#45;&gt;program~integrate_euler_1d -->
<g id="edge48" class="edge"><title>pyplot_module&#45;&gt;program~integrate_euler_1d</title>
<path fill="none" stroke="black" stroke-dasharray="5,2" d="M715.279,-313.439C739.479,-316.041 770.53,-319.38 797.661,-322.297"/>
<polygon fill="black" stroke="black" points="797.528,-325.803 807.845,-323.392 798.276,-318.843 797.528,-325.803"/>
</g>
<!-- module~type_euler_1d&#45;&gt;program~integrate_euler_1d -->
<g id="edge50" class="edge"><title>module~type_euler_1d&#45;&gt;program~integrate_euler_1d</title>
<path fill="none" stroke="black" stroke-dasharray="5,2" d="M685.635,-130.262C717.016,-166.029 803.584,-264.698 841.643,-308.077"/>
<polygon fill="black" stroke="black" points="839.143,-310.535 848.369,-315.743 844.405,-305.918 839.143,-310.535"/>
</g>
<!-- module~foodie_integrator_adams_bashforth&#45;&gt;module~foodie -->
<g id="edge24" class="edge"><title>module~foodie_integrator_adams_bashforth&#45;&gt;module~foodie</title>
<path fill="none" stroke="black" stroke-dasharray="5,2" d="M431.569,-296.354C438.04,-293.769 444.264,-290.683 450,-287 474.545,-271.243 492.614,-242.265 502.958,-222.103"/>
<polygon fill="black" stroke="black" points="506.156,-223.53 507.41,-213.009 499.87,-220.452 506.156,-223.53"/>
</g>
<!-- module~foodie_integrator_euler_explicit&#45;&gt;module~foodie -->
<g id="edge26" class="edge"><title>module~foodie_integrator_euler_explicit&#45;&gt;module~foodie</title>
<path fill="none" stroke="black" stroke-dasharray="5,2" d="M421.029,-252.68C430.971,-250.041 440.844,-246.851 450,-243 464.007,-237.108 478.115,-227.859 489.419,-219.446"/>
<polygon fill="black" stroke="black" points="491.683,-222.12 497.469,-213.244 487.411,-216.575 491.683,-222.12"/>
</g>
<!-- module~foodie_integrator_leapfrog&#45;&gt;module~foodie -->
<g id="edge28" class="edge"><title>module~foodie_integrator_leapfrog&#45;&gt;module~foodie</title>
<path fill="none" stroke="black" stroke-dasharray="5,2" d="M409.867,-212.519C432.338,-209.791 456.366,-206.875 475.571,-204.543"/>
<polygon fill="black" stroke="black" points="476.199,-207.993 485.704,-203.313 475.355,-201.044 476.199,-207.993"/>
</g>
<!-- module~foodie_integrator_low_storage_runge_kutta&#45;&gt;module~foodie -->
<g id="edge30" class="edge"><title>module~foodie_integrator_low_storage_runge_kutta&#45;&gt;module~foodie</title>
<path fill="none" stroke="black" stroke-dasharray="5,2" d="M404.829,-152.009C419.885,-155.824 435.688,-160.485 450,-166 461.188,-170.311 472.89,-176.201 483.13,-181.868"/>
<polygon fill="black" stroke="black" points="481.645,-185.05 492.067,-186.958 485.109,-178.967 481.645,-185.05"/>
</g>
<!-- module~foodie_integrator_tvd_runge_kutta&#45;&gt;module~foodie -->
<g id="edge32" class="edge"><title>module~foodie_integrator_tvd_runge_kutta&#45;&gt;module~foodie</title>
<path fill="none" stroke="black" stroke-dasharray="5,2" d="M428.681,-106.726C436.173,-109.486 443.398,-112.865 450,-117 473.61,-131.784 491.61,-158.813 502.208,-178.007"/>
<polygon fill="black" stroke="black" points="499.174,-179.757 506.936,-186.967 505.365,-176.49 499.174,-179.757"/>
</g>
<!-- module~type_integrand&#45;&gt;module~foodie -->
<g id="edge34" class="edge"><title>module~type_integrand&#45;&gt;module~foodie</title>
<path fill="none" stroke="black" stroke-dasharray="5,2" d="M194.099,-199.362C205.729,-199.212 218.353,-199.075 230,-199 327.776,-198.373 352.225,-198.224 450,-199 458.23,-199.065 467.063,-199.179 475.435,-199.306"/>
<polygon fill="black" stroke="black" points="475.657,-202.81 485.712,-199.472 475.77,-195.811 475.657,-202.81"/>
</g>
<!-- module~type_integrand&#45;&gt;module~foodie_integrator_adams_bashforth -->
<g id="edge2" class="edge"><title>module~type_integrand&#45;&gt;module~foodie_integrator_adams_bashforth</title>
<path fill="none" stroke="black" stroke-dasharray="5,2" d="M159.747,-213.018C172.039,-232.447 197.935,-268.699 230,-287 233.28,-288.872 236.694,-290.587 240.203,-292.157"/>
<polygon fill="black" stroke="black" points="239.104,-295.488 249.687,-295.986 241.724,-288.997 239.104,-295.488"/>
</g>
<!-- module~type_integrand&#45;&gt;module~foodie_integrator_euler_explicit -->
<g id="edge6" class="edge"><title>module~type_integrand&#45;&gt;module~foodie_integrator_euler_explicit</title>
<path fill="none" stroke="black" stroke-dasharray="5,2" d="M171.717,-213.098C187.022,-222.702 209.088,-235.352 230,-243 236.39,-245.337 243.085,-247.446 249.882,-249.345"/>
<polygon fill="black" stroke="black" points="249.329,-252.819 259.891,-251.981 251.112,-246.05 249.329,-252.819"/>
</g>
<!-- module~type_integrand&#45;&gt;module~foodie_integrator_leapfrog -->
<g id="edge10" class="edge"><title>module~type_integrand&#45;&gt;module~foodie_integrator_leapfrog</title>
<path fill="none" stroke="black" stroke-dasharray="5,2" d="M194.191,-204.713C213.712,-206.893 237.568,-209.558 260.284,-212.096"/>
<polygon fill="black" stroke="black" points="259.95,-215.58 270.276,-213.212 260.727,-208.623 259.95,-215.58"/>
</g>
<!-- module~type_integrand&#45;&gt;module~foodie_integrator_low_storage_runge_kutta -->
<g id="edge14" class="edge"><title>module~type_integrand&#45;&gt;module~foodie_integrator_low_storage_runge_kutta</title>
<path fill="none" stroke="black" stroke-dasharray="5,2" d="M178.986,-186.881C193.804,-180.025 212.646,-171.864 230,-166 242.47,-161.786 255.939,-157.93 269.033,-154.532"/>
<polygon fill="black" stroke="black" points="270.112,-157.87 278.95,-152.025 268.397,-151.083 270.112,-157.87"/>
</g>
<!-- module~type_integrand&#45;&gt;module~foodie_integrator_tvd_runge_kutta -->
<g id="edge18" class="edge"><title>module~type_integrand&#45;&gt;module~foodie_integrator_tvd_runge_kutta</title>
<path fill="none" stroke="black" stroke-dasharray="5,2" d="M160.314,-186.967C172.962,-168.294 198.883,-134.28 230,-117 233.783,-114.899 237.738,-112.997 241.807,-111.276"/>
<polygon fill="black" stroke="black" points="243.388,-114.418 251.479,-107.577 240.888,-107.88 243.388,-114.418"/>
</g>
<!-- wenoof -->
<g id="node30" class="node"><title>wenoof</title>
<polygon fill="#337ab7" stroke="#337ab7" points="540,-26 486,-26 486,-1.24345e-14 540,-3.55271e-15 540,-26"/>
<text text-anchor="middle" x="513" y="-10.55" font-family="Helvetica,sans-Serif" font-size="10.50" fill="white">wenoof</text>
</g>
<!-- wenoof&#45;&gt;module~type_euler_1d -->
<g id="edge36" class="edge"><title>wenoof&#45;&gt;module~type_euler_1d</title>
<path fill="none" stroke="black" stroke-dasharray="5,2" d="M533.391,-26.1717C561.698,-44.4574 613.046,-77.6258 645.238,-98.4208"/>
<polygon fill="black" stroke="black" points="643.476,-101.449 653.775,-103.935 647.274,-95.5692 643.476,-101.449"/>
</g>
</g>
</svg>
