<?xml version="1.0" encoding="UTF-8" standalone="no"?>
<!DOCTYPE svg PUBLIC "-//W3C//DTD SVG 1.1//EN"
 "http://www.w3.org/Graphics/SVG/1.1/DTD/svg11.dtd">
<!-- Generated by graphviz version 2.26.3 (20100126.1600)
 -->
<!-- Title: program~~integrate_euler_1d~~UsesGraph Pages: 1 -->
<svg width="641pt" height="261pt"
 viewBox="0.00 0.00 641.00 260.58" xmlns="http://www.w3.org/2000/svg" xmlns:xlink="http://www.w3.org/1999/xlink">
<g id="graph1" class="graph" transform="scale(0.696739 0.696739) rotate(0) translate(4 370)">
<title>program~~integrate_euler_1d~~UsesGraph</title>
<polygon fill="white" stroke="white" points="-4,5 -4,-370 917,-370 917,5 -4,5"/>
<!-- program~integrate_euler_1d -->
<g id="node1" class="node"><title>program~integrate_euler_1d</title>
<polygon fill="none" stroke="black" points="912,-281 808,-281 808,-255 912,-255 912,-281"/>
<text text-anchor="middle" x="860" y="-265.55" font-family="Helvetica,sans-Serif" font-size="10.50">integrate_euler_1D</text>
</g>
<!-- Data_Type_Command_Line_Interface -->
<g id="node2" class="node"><title>Data_Type_Command_Line_Interface</title>
<polygon fill="#337ab7" stroke="#337ab7" points="771,-366 577,-366 577,-340 771,-340 771,-366"/>
<text text-anchor="middle" x="674" y="-350.55" font-family="Helvetica,sans-Serif" font-size="10.50" fill="white">Data_Type_Command_Line_Interface</text>
</g>
<!-- Data_Type_Command_Line_Interface&#45;&gt;program~integrate_euler_1d -->
<g id="edge42" class="edge"><title>Data_Type_Command_Line_Interface&#45;&gt;program~integrate_euler_1d</title>
<path fill="none" stroke="black" stroke-dasharray="5,2" d="M747.308,-339.96C755.799,-337.454 764.202,-334.492 772,-331 796.463,-320.044 820.988,-301.735 837.91,-287.67"/>
<polygon fill="black" stroke="black" points="840.22,-290.301 845.573,-281.158 835.687,-284.967 840.22,-290.301"/>
</g>
<!-- pyplot_module -->
<g id="node3" class="node"><title>pyplot_module</title>
<polygon fill="#337ab7" stroke="#337ab7" points="715,-322 633,-322 633,-296 715,-296 715,-322"/>
<text text-anchor="middle" x="674" y="-306.55" font-family="Helvetica,sans-Serif" font-size="10.50" fill="white">pyplot_module</text>
</g>
<!-- pyplot_module&#45;&gt;program~integrate_euler_1d -->
<g id="edge44" class="edge"><title>pyplot_module&#45;&gt;program~integrate_euler_1d</title>
<path fill="none" stroke="black" stroke-dasharray="5,2" d="M715.279,-299.901C739.586,-294.543 770.804,-287.662 798.019,-281.662"/>
<polygon fill="black" stroke="black" points="798.832,-285.067 807.845,-279.497 797.326,-278.231 798.832,-285.067"/>
</g>
<!-- module~foodie -->
<g id="node4" class="node"><title>module~foodie</title>
<a xlink:href="../module/foodie.html" xlink:title="foodie">
<polygon fill="#337ab7" stroke="#337ab7" points="540,-164 486,-164 486,-138 540,-138 540,-164"/>
<text text-anchor="middle" x="513" y="-148.55" font-family="Helvetica,sans-Serif" font-size="10.50" fill="white">foodie</text>
</a>
</g>
<!-- module~foodie&#45;&gt;program~integrate_euler_1d -->
<g id="edge46" class="edge"><title>module~foodie&#45;&gt;program~integrate_euler_1d</title>
<path fill="none" stroke="black" stroke-dasharray="5,2" d="M540.215,-152.959C588.671,-157.243 692.292,-170.03 772,-205 796.546,-215.769 821.062,-234.099 837.959,-248.219"/>
<polygon fill="black" stroke="black" points="835.734,-250.922 845.609,-254.762 840.284,-245.602 835.734,-250.922"/>
</g>
<!-- module~type_euler_1d -->
<g id="node6" class="node"><title>module~type_euler_1d</title>
<a xlink:href="../module/type_euler_1d.html" xlink:title="type_euler_1D">
<polygon fill="#337ab7" stroke="#337ab7" points="715,-240 633,-240 633,-214 715,-214 715,-240"/>
<text text-anchor="middle" x="674" y="-224.55" font-family="Helvetica,sans-Serif" font-size="10.50" fill="white">type_euler_1D</text>
</a>
</g>
<!-- module~foodie&#45;&gt;module~type_euler_1d -->
<g id="edge40" class="edge"><title>module~foodie&#45;&gt;module~type_euler_1d</title>
<path fill="none" stroke="black" stroke-dasharray="5,2" d="M540.311,-163.892C566.945,-176.465 607.639,-195.674 637.134,-209.597"/>
<polygon fill="black" stroke="black" points="635.747,-212.813 646.284,-213.917 638.735,-206.483 635.747,-212.813"/>
</g>
<!-- IR_Precision -->
<g id="node5" class="node"><title>IR_Precision</title>
<polygon fill="#337ab7" stroke="#337ab7" points="73,-131 1,-131 1,-105 73,-105 73,-131"/>
<text text-anchor="middle" x="37" y="-115.55" font-family="Helvetica,sans-Serif" font-size="10.50" fill="white">IR_Precision</text>
</g>
<!-- IR_Precision&#45;&gt;program~integrate_euler_1d -->
<g id="edge48" class="edge"><title>IR_Precision&#45;&gt;program~integrate_euler_1d</title>
<path fill="none" stroke="black" stroke-dasharray="5,2" d="M513,-268C612.456,-263.423 728.117,-264.755 797.61,-266.275"/>
<polygon fill="black" stroke="black" points="797.862,-269.782 807.939,-266.51 798.021,-262.783 797.862,-269.782"/>
</g>
<!-- IR_Precision&#45;&gt;module~type_euler_1d -->
<g id="edge38" class="edge"><title>IR_Precision&#45;&gt;module~type_euler_1d</title>
<path fill="none" stroke="black" stroke-dasharray="5,2" d="M152,-227C305.324,-277.656 351.848,-278.218 513,-268"/>
<path fill="none" stroke="black" stroke-dasharray="5,2" d="M513,-268C524.093,-267.489 580.105,-252.755 622.976,-241.096"/>
<polygon fill="black" stroke="black" points="624.002,-244.444 632.728,-238.435 622.16,-237.691 624.002,-244.444"/>
</g>
<!-- module~foodie_integrator_adams_bashforth -->
<g id="node7" class="node"><title>module~foodie_integrator_adams_bashforth</title>
<a xlink:href="../module/foodie_integrator_adams_bashforth.html" xlink:title="foodie_integrator_adams_bashforth">
<polygon fill="#337ab7" stroke="#337ab7" points="431,-196 249,-196 249,-170 431,-170 431,-196"/>
<text text-anchor="middle" x="340" y="-180.55" font-family="Helvetica,sans-Serif" font-size="10.50" fill="white">foodie_integrator_adams_bashforth</text>
</a>
</g>
<!-- IR_Precision&#45;&gt;module~foodie_integrator_adams_bashforth -->
<g id="edge4" class="edge"><title>IR_Precision&#45;&gt;module~foodie_integrator_adams_bashforth</title>
<path fill="none" stroke="black" stroke-dasharray="5,2" d="M152,-227C186.201,-238.3 194.981,-213.427 230,-205 239.901,-202.617 250.346,-200.29 260.701,-198.095"/>
<polygon fill="black" stroke="black" points="261.506,-201.503 270.58,-196.034 260.076,-194.651 261.506,-201.503"/>
</g>
<!-- module~foodie_integrator_euler_explicit -->
<g id="node8" class="node"><title>module~foodie_integrator_euler_explicit</title>
<a xlink:href="../module/foodie_integrator_euler_explicit.html" xlink:title="foodie_integrator_euler_explicit">
<polygon fill="#337ab7" stroke="#337ab7" points="421,-152 259,-152 259,-126 421,-126 421,-152"/>
<text text-anchor="middle" x="340" y="-136.55" font-family="Helvetica,sans-Serif" font-size="10.50" fill="white">foodie_integrator_euler_explicit</text>
</a>
</g>
<!-- IR_Precision&#45;&gt;module~foodie_integrator_euler_explicit -->
<g id="edge8" class="edge"><title>IR_Precision&#45;&gt;module~foodie_integrator_euler_explicit</title>
<path fill="none" stroke="black" stroke-dasharray="5,2" d="M45.0521,-131.137C61.4134,-156.294 101.328,-210.258 152,-227"/>
<path fill="none" stroke="black" stroke-dasharray="5,2" d="M152,-227C195.119,-241.246 189.106,-180.745 230,-161 236.068,-158.07 242.506,-155.53 249.102,-153.328"/>
<polygon fill="black" stroke="black" points="250.32,-156.616 258.855,-150.338 248.268,-149.923 250.32,-156.616"/>
</g>
<!-- module~foodie_integrator_leapfrog -->
<g id="node9" class="node"><title>module~foodie_integrator_leapfrog</title>
<a xlink:href="../module/foodie_integrator_leapfrog.html" xlink:title="foodie_integrator_leapfrog">
<polygon fill="#337ab7" stroke="#337ab7" points="409,-70 271,-70 271,-44 409,-44 409,-70"/>
<text text-anchor="middle" x="340" y="-54.55" font-family="Helvetica,sans-Serif" font-size="10.50" fill="white">foodie_integrator_leapfrog</text>
</a>
</g>
<!-- IR_Precision&#45;&gt;module~foodie_integrator_leapfrog -->
<g id="edge12" class="edge"><title>IR_Precision&#45;&gt;module~foodie_integrator_leapfrog</title>
<path fill="none" stroke="black" stroke-dasharray="5,2" d="M152,-57C186.311,-46.3076 225.886,-44.8131 259.85,-46.5823"/>
<polygon fill="black" stroke="black" points="259.999,-50.0984 270.198,-47.2295 260.436,-43.112 259.999,-50.0984"/>
</g>
<!-- module~foodie_integrator_low_storage_runge_kutta -->
<g id="node10" class="node"><title>module~foodie_integrator_low_storage_runge_kutta</title>
<a xlink:href="../module/foodie_integrator_low_storage_runge_kutta.html" xlink:title="foodie_integrator_low_storage_runge_kutta">
<polygon fill="#337ab7" stroke="#337ab7" points="450,-26 230,-26 230,-1.24345e-14 450,-3.55271e-15 450,-26"/>
<text text-anchor="middle" x="340" y="-10.55" font-family="Helvetica,sans-Serif" font-size="10.50" fill="white">foodie_integrator_low_storage_runge_kutta</text>
</a>
</g>
<!-- IR_Precision&#45;&gt;module~foodie_integrator_low_storage_runge_kutta -->
<g id="edge16" class="edge"><title>IR_Precision&#45;&gt;module~foodie_integrator_low_storage_runge_kutta</title>
<path fill="none" stroke="black" stroke-dasharray="5,2" d="M56.3661,-104.822C78.4618,-90.4969 116.183,-68.1619 152,-57"/>
<path fill="none" stroke="black" stroke-dasharray="5,2" d="M152,-57C186.388,-46.2835 194.981,-43.4272 230,-35 239.901,-32.6174 250.346,-30.2903 260.701,-28.0954"/>
<polygon fill="black" stroke="black" points="261.506,-31.503 270.58,-26.034 260.076,-24.6506 261.506,-31.503"/>
</g>
<!-- module~foodie_integrator_tvd_runge_kutta -->
<g id="node11" class="node"><title>module~foodie_integrator_tvd_runge_kutta</title>
<a xlink:href="../module/foodie_integrator_tvd_runge_kutta.html" xlink:title="foodie_integrator_tvd_runge_kutta">
<polygon fill="#337ab7" stroke="#337ab7" points="428,-240 252,-240 252,-214 428,-214 428,-240"/>
<text text-anchor="middle" x="340" y="-224.55" font-family="Helvetica,sans-Serif" font-size="10.50" fill="white">foodie_integrator_tvd_runge_kutta</text>
</a>
</g>
<!-- IR_Precision&#45;&gt;module~foodie_integrator_tvd_runge_kutta -->
<g id="edge20" class="edge"><title>IR_Precision&#45;&gt;module~foodie_integrator_tvd_runge_kutta</title>
<path fill="none" stroke="black" stroke-dasharray="5,2" d="M152,-227C180,-236.251 211.652,-238.972 240.892,-238.62"/>
<polygon fill="black" stroke="black" points="241.211,-242.114 251.123,-238.373 241.042,-235.116 241.211,-242.114"/>
</g>
<!-- module~type_integrand -->
<g id="node12" class="node"><title>module~type_integrand</title>
<a xlink:href="../module/type_integrand.html" xlink:title="type_integrand">
<polygon fill="#337ab7" stroke="#337ab7" points="194,-131 110,-131 110,-105 194,-105 194,-131"/>
<text text-anchor="middle" x="152" y="-115.55" font-family="Helvetica,sans-Serif" font-size="10.50" fill="white">type_integrand</text>
</a>
</g>
<!-- IR_Precision&#45;&gt;module~type_integrand -->
<g id="edge22" class="edge"><title>IR_Precision&#45;&gt;module~type_integrand</title>
<path fill="none" stroke="black" stroke-dasharray="5,2" d="M73.7029,-118C81.9237,-118 90.8,-118 99.521,-118"/>
<polygon fill="black" stroke="black" points="99.6389,-121.5 109.639,-118 99.6388,-114.5 99.6389,-121.5"/>
</g>
<!-- module~type_euler_1d&#45;&gt;program~integrate_euler_1d -->
<g id="edge50" class="edge"><title>module~type_euler_1d&#45;&gt;program~integrate_euler_1d</title>
<path fill="none" stroke="black" stroke-dasharray="5,2" d="M715.279,-236.099C739.586,-241.457 770.804,-248.338 798.019,-254.338"/>
<polygon fill="black" stroke="black" points="797.326,-257.769 807.845,-256.503 798.832,-250.933 797.326,-257.769"/>
</g>
<!-- module~foodie_integrator_adams_bashforth&#45;&gt;module~foodie -->
<g id="edge24" class="edge"><title>module~foodie_integrator_adams_bashforth&#45;&gt;module~foodie</title>
<path fill="none" stroke="black" stroke-dasharray="5,2" d="M410.366,-169.984C432.782,-165.838 456.697,-161.414 475.798,-157.881"/>
<polygon fill="black" stroke="black" points="476.677,-161.278 485.874,-156.018 475.404,-154.395 476.677,-161.278"/>
</g>
<!-- module~foodie_integrator_euler_explicit&#45;&gt;module~foodie -->
<g id="edge26" class="edge"><title>module~foodie_integrator_euler_explicit&#45;&gt;module~foodie</title>
<path fill="none" stroke="black" stroke-dasharray="5,2" d="M421.181,-144.631C440.337,-145.96 459.842,-147.313 475.92,-148.428"/>
<polygon fill="black" stroke="black" points="475.733,-151.923 485.952,-149.124 476.218,-144.94 475.733,-151.923"/>
</g>
<!-- module~foodie_integrator_leapfrog&#45;&gt;module~foodie -->
<g id="edge28" class="edge"><title>module~foodie_integrator_leapfrog&#45;&gt;module~foodie</title>
<path fill="none" stroke="black" stroke-dasharray="5,2" d="M409.552,-67.6509C423.527,-71.5302 437.688,-76.8122 450,-84 469.48,-95.3724 486.646,-114.597 498.119,-129.544"/>
<polygon fill="black" stroke="black" points="495.432,-131.798 504.191,-137.759 501.062,-127.637 495.432,-131.798"/>
</g>
<!-- module~foodie_integrator_low_storage_runge_kutta&#45;&gt;module~foodie -->
<g id="edge30" class="edge"><title>module~foodie_integrator_low_storage_runge_kutta&#45;&gt;module~foodie</title>
<path fill="none" stroke="black" stroke-dasharray="5,2" d="M434.827,-26.0577C440.186,-28.576 445.297,-31.5327 450,-35 481.265,-58.0522 498.747,-101.431 506.991,-128.114"/>
<polygon fill="black" stroke="black" points="503.646,-129.145 509.797,-137.771 510.368,-127.192 503.646,-129.145"/>
</g>
<!-- module~foodie_integrator_tvd_runge_kutta&#45;&gt;module~foodie -->
<g id="edge32" class="edge"><title>module~foodie_integrator_tvd_runge_kutta&#45;&gt;module~foodie</title>
<path fill="none" stroke="black" stroke-dasharray="5,2" d="M426.959,-213.997C434.931,-211.506 442.733,-208.537 450,-205 466.788,-196.828 482.725,-183.089 494.37,-171.515"/>
<polygon fill="black" stroke="black" points="496.917,-173.916 501.369,-164.302 491.893,-169.042 496.917,-173.916"/>
</g>
<!-- module~type_integrand&#45;&gt;module~foodie -->
<g id="edge34" class="edge"><title>module~type_integrand&#45;&gt;module~foodie</title>
<path fill="none" stroke="black" stroke-dasharray="5,2" d="M194.256,-111.365C252.747,-103.635 361.216,-94.5713 450,-117 462.489,-120.155 475.191,-126.328 485.887,-132.558"/>
<polygon fill="black" stroke="black" points="484.361,-135.728 494.715,-137.974 488.021,-129.761 484.361,-135.728"/>
</g>
<!-- module~type_integrand&#45;&gt;module~foodie_integrator_adams_bashforth -->
<g id="edge2" class="edge"><title>module~type_integrand&#45;&gt;module~foodie_integrator_adams_bashforth</title>
<path fill="none" stroke="black" stroke-dasharray="5,2" d="M171.717,-131.098C187.022,-140.702 209.088,-153.352 230,-161 236.39,-163.337 243.085,-165.446 249.882,-167.345"/>
<polygon fill="black" stroke="black" points="249.329,-170.819 259.891,-169.981 251.112,-164.05 249.329,-170.819"/>
</g>
<!-- module~type_integrand&#45;&gt;module~foodie_integrator_euler_explicit -->
<g id="edge6" class="edge"><title>module~type_integrand&#45;&gt;module~foodie_integrator_euler_explicit</title>
<path fill="none" stroke="black" stroke-dasharray="5,2" d="M194.191,-122.713C210.416,-124.525 229.636,-126.672 248.708,-128.802"/>
<polygon fill="black" stroke="black" points="248.324,-132.281 258.651,-129.913 249.101,-125.325 248.324,-132.281"/>
</g>
<!-- module~type_integrand&#45;&gt;module~foodie_integrator_leapfrog -->
<g id="edge10" class="edge"><title>module~type_integrand&#45;&gt;module~foodie_integrator_leapfrog</title>
<path fill="none" stroke="black" stroke-dasharray="5,2" d="M178.986,-104.881C193.804,-98.0246 212.646,-89.8642 230,-84 242.47,-79.7861 255.939,-75.9299 269.033,-72.5324"/>
<polygon fill="black" stroke="black" points="270.112,-75.8696 278.95,-70.0254 268.397,-69.0831 270.112,-75.8696"/>
</g>
<!-- module~type_integrand&#45;&gt;module~foodie_integrator_low_storage_runge_kutta -->
<g id="edge14" class="edge"><title>module~type_integrand&#45;&gt;module~foodie_integrator_low_storage_runge_kutta</title>
<path fill="none" stroke="black" stroke-dasharray="5,2" d="M164.061,-104.749C184.917,-81.8955 225.894,-37.28 230,-35 233.445,-33.0868 237.033,-31.3386 240.719,-29.7413"/>
<polygon fill="black" stroke="black" points="242.031,-32.9864 250.06,-26.0735 239.473,-26.4707 242.031,-32.9864"/>
</g>
<!-- module~type_integrand&#45;&gt;module~foodie_integrator_tvd_runge_kutta -->
<g id="edge18" class="edge"><title>module~type_integrand&#45;&gt;module~foodie_integrator_tvd_runge_kutta</title>
<path fill="none" stroke="black" stroke-dasharray="5,2" d="M159.747,-131.018C172.039,-150.447 197.935,-186.699 230,-205 233.758,-207.145 237.693,-209.083 241.744,-210.835"/>
<polygon fill="black" stroke="black" points="240.795,-214.221 251.384,-214.592 243.337,-207.699 240.795,-214.221"/>
</g>
<!-- wenoof -->
<g id="node30" class="node"><title>wenoof</title>
<polygon fill="#337ab7" stroke="#337ab7" points="540,-240 486,-240 486,-214 540,-214 540,-240"/>
<text text-anchor="middle" x="513" y="-224.55" font-family="Helvetica,sans-Serif" font-size="10.50" fill="white">wenoof</text>
</g>
<!-- wenoof&#45;&gt;module~type_euler_1d -->
<g id="edge36" class="edge"><title>wenoof&#45;&gt;module~type_euler_1d</title>
<path fill="none" stroke="black" stroke-dasharray="5,2" d="M540.311,-227C562.825,-227 595.384,-227 622.733,-227"/>
<polygon fill="black" stroke="black" points="622.929,-230.5 632.929,-227 622.929,-223.5 622.929,-230.5"/>
</g>
</g>
</svg>
