<?xml version="1.0" encoding="UTF-8" standalone="no"?>
<!DOCTYPE svg PUBLIC "-//W3C//DTD SVG 1.1//EN"
 "http://www.w3.org/Graphics/SVG/1.1/DTD/svg11.dtd">
<!-- Generated by graphviz version 2.26.3 (20100126.1600)
 -->
<!-- Title: program~~integrate_lorenz~~UsesGraph Pages: 1 -->
<svg width="641pt" height="262pt"
 viewBox="0.00 0.00 641.00 262.48" xmlns="http://www.w3.org/2000/svg" xmlns:xlink="http://www.w3.org/1999/xlink">
<g id="graph1" class="graph" transform="scale(0.707506 0.707506) rotate(0) translate(4 367)">
<title>program~~integrate_lorenz~~UsesGraph</title>
<polygon fill="white" stroke="white" points="-4,5 -4,-367 903,-367 903,5 -4,5"/>
<!-- program~integrate_lorenz -->
<g id="node1" class="node"><title>program~integrate_lorenz</title>
<polygon fill="none" stroke="black" points="898,-108 808,-108 808,-82 898,-82 898,-108"/>
<text text-anchor="middle" x="853" y="-92.55" font-family="Helvetica,sans-Serif" font-size="10.50">integrate_lorenz</text>
</g>
<!-- module~foodie -->
<g id="node2" class="node"><title>module~foodie</title>
<a xlink:href="../module/foodie.html" xlink:title="foodie">
<polygon fill="#337ab7" stroke="#337ab7" points="540,-237 486,-237 486,-211 540,-211 540,-237"/>
<text text-anchor="middle" x="513" y="-221.55" font-family="Helvetica,sans-Serif" font-size="10.50" fill="white">foodie</text>
</a>
</g>
<!-- module~foodie&#45;&gt;program~integrate_lorenz -->
<g id="edge34" class="edge"><title>module~foodie&#45;&gt;program~integrate_lorenz</title>
<path fill="none" stroke="black" stroke-dasharray="5,2" d="M540.068,-221.399C588.731,-215.877 693.26,-200.126 772,-161 795.24,-149.452 817.802,-130.199 833.185,-115.459"/>
<polygon fill="black" stroke="black" points="835.864,-117.734 840.541,-108.228 830.956,-112.743 835.864,-117.734"/>
</g>
<!-- module~type_lorenz -->
<g id="node5" class="node"><title>module~type_lorenz</title>
<a xlink:href="../module/type_lorenz.html" xlink:title="type_lorenz">
<polygon fill="#337ab7" stroke="#337ab7" points="708,-152 640,-152 640,-126 708,-126 708,-152"/>
<text text-anchor="middle" x="674" y="-136.55" font-family="Helvetica,sans-Serif" font-size="10.50" fill="white">type_lorenz</text>
</a>
</g>
<!-- module~foodie&#45;&gt;module~type_lorenz -->
<g id="edge32" class="edge"><title>module~foodie&#45;&gt;module~type_lorenz</title>
<path fill="none" stroke="black" stroke-dasharray="5,2" d="M535.283,-210.866C547.262,-203.907 562.339,-195.311 576,-188 596.23,-177.173 619.153,-165.671 637.74,-156.533"/>
<polygon fill="black" stroke="black" points="639.313,-159.66 646.755,-152.119 636.235,-153.373 639.313,-159.66"/>
</g>
<!-- IR_Precision -->
<g id="node3" class="node"><title>IR_Precision</title>
<polygon fill="#337ab7" stroke="#337ab7" points="73,-278 1,-278 1,-252 73,-252 73,-278"/>
<text text-anchor="middle" x="37" y="-262.55" font-family="Helvetica,sans-Serif" font-size="10.50" fill="white">IR_Precision</text>
</g>
<!-- IR_Precision&#45;&gt;program~integrate_lorenz -->
<g id="edge36" class="edge"><title>IR_Precision&#45;&gt;program~integrate_lorenz</title>
<path fill="none" stroke="black" stroke-dasharray="5,2" d="M48.8681,-251.976C68.164,-231.887 108.574,-194.179 152,-180"/>
<path fill="none" stroke="black" stroke-dasharray="5,2" d="M152,-180C186.24,-168.82 194.506,-164.128 230,-158 354.223,-136.552 387.987,-155.222 513,-139"/>
<path fill="none" stroke="black" stroke-dasharray="5,2" d="M513,-139C553.01,-132.392 538.718,-88.953 576,-73 652.148,-40.4161 750.75,-61.4338 807.436,-78.8113"/>
<polygon fill="black" stroke="black" points="806.589,-82.2143 817.179,-81.8897 808.698,-75.5396 806.589,-82.2143"/>
</g>
<!-- IR_Precision&#45;&gt;module~type_lorenz -->
<g id="edge30" class="edge"><title>IR_Precision&#45;&gt;module~type_lorenz</title>
<path fill="none" stroke="black" stroke-dasharray="5,2" d="M513,-139C552.269,-133.904 597.381,-134.448 629.843,-135.951"/>
<polygon fill="black" stroke="black" points="629.748,-139.45 639.914,-136.466 630.106,-132.46 629.748,-139.45"/>
</g>
<!-- module~foodie_integrator_low_storage_runge_kutta -->
<g id="node7" class="node"><title>module~foodie_integrator_low_storage_runge_kutta</title>
<a xlink:href="../module/foodie_integrator_low_storage_runge_kutta.html" xlink:title="foodie_integrator_low_storage_runge_kutta">
<polygon fill="#337ab7" stroke="#337ab7" points="450,-237 230,-237 230,-211 450,-211 450,-237"/>
<text text-anchor="middle" x="340" y="-221.55" font-family="Helvetica,sans-Serif" font-size="10.50" fill="white">foodie_integrator_low_storage_runge_kutta</text>
</a>
</g>
<!-- IR_Precision&#45;&gt;module~foodie_integrator_low_storage_runge_kutta -->
<g id="edge2" class="edge"><title>IR_Precision&#45;&gt;module~foodie_integrator_low_storage_runge_kutta</title>
<path fill="none" stroke="black" stroke-dasharray="5,2" d="M152,-180C186.24,-168.82 194.981,-193.573 230,-202 239.901,-204.383 250.346,-206.71 260.701,-208.905"/>
<polygon fill="black" stroke="black" points="260.076,-212.349 270.58,-210.966 261.506,-205.497 260.076,-212.349"/>
</g>
<!-- module~foodie_integrator_tvd_runge_kutta -->
<g id="node8" class="node"><title>module~foodie_integrator_tvd_runge_kutta</title>
<a xlink:href="../module/foodie_integrator_tvd_runge_kutta.html" xlink:title="foodie_integrator_tvd_runge_kutta">
<polygon fill="#337ab7" stroke="#337ab7" points="428,-193 252,-193 252,-167 428,-167 428,-193"/>
<text text-anchor="middle" x="340" y="-177.55" font-family="Helvetica,sans-Serif" font-size="10.50" fill="white">foodie_integrator_tvd_runge_kutta</text>
</a>
</g>
<!-- IR_Precision&#45;&gt;module~foodie_integrator_tvd_runge_kutta -->
<g id="edge6" class="edge"><title>IR_Precision&#45;&gt;module~foodie_integrator_tvd_runge_kutta</title>
<path fill="none" stroke="black" stroke-dasharray="5,2" d="M152,-180C180.032,-170.847 211.694,-168.155 240.932,-168.503"/>
<polygon fill="black" stroke="black" points="241.082,-172.007 251.163,-168.747 241.249,-165.009 241.082,-172.007"/>
</g>
<!-- module~type_integrand -->
<g id="node9" class="node"><title>module~type_integrand</title>
<a xlink:href="../module/type_integrand.html" xlink:title="type_integrand">
<polygon fill="#337ab7" stroke="#337ab7" points="194,-278 110,-278 110,-252 194,-252 194,-278"/>
<text text-anchor="middle" x="152" y="-262.55" font-family="Helvetica,sans-Serif" font-size="10.50" fill="white">type_integrand</text>
</a>
</g>
<!-- IR_Precision&#45;&gt;module~type_integrand -->
<g id="edge10" class="edge"><title>IR_Precision&#45;&gt;module~type_integrand</title>
<path fill="none" stroke="black" stroke-dasharray="5,2" d="M73.7029,-265C81.9237,-265 90.8,-265 99.521,-265"/>
<polygon fill="black" stroke="black" points="99.6389,-268.5 109.639,-265 99.6388,-261.5 99.6389,-268.5"/>
</g>
<!-- module~foodie_integrator_euler_explicit -->
<g id="node10" class="node"><title>module~foodie_integrator_euler_explicit</title>
<a xlink:href="../module/foodie_integrator_euler_explicit.html" xlink:title="foodie_integrator_euler_explicit">
<polygon fill="#337ab7" stroke="#337ab7" points="421,-363 259,-363 259,-337 421,-337 421,-363"/>
<text text-anchor="middle" x="340" y="-347.55" font-family="Helvetica,sans-Serif" font-size="10.50" fill="white">foodie_integrator_euler_explicit</text>
</a>
</g>
<!-- IR_Precision&#45;&gt;module~foodie_integrator_euler_explicit -->
<g id="edge12" class="edge"><title>IR_Precision&#45;&gt;module~foodie_integrator_euler_explicit</title>
<path fill="none" stroke="black" stroke-dasharray="5,2" d="M152,-328C182.89,-335.907 217.372,-340.98 248.286,-344.233"/>
<polygon fill="black" stroke="black" points="248.324,-347.754 258.622,-345.267 249.021,-340.789 248.324,-347.754"/>
</g>
<!-- module~foodie_integrator_adams_bashforth -->
<g id="node11" class="node"><title>module~foodie_integrator_adams_bashforth</title>
<a xlink:href="../module/foodie_integrator_adams_bashforth.html" xlink:title="foodie_integrator_adams_bashforth">
<polygon fill="#337ab7" stroke="#337ab7" points="431,-319 249,-319 249,-293 431,-293 431,-319"/>
<text text-anchor="middle" x="340" y="-303.55" font-family="Helvetica,sans-Serif" font-size="10.50" fill="white">foodie_integrator_adams_bashforth</text>
</a>
</g>
<!-- IR_Precision&#45;&gt;module~foodie_integrator_adams_bashforth -->
<g id="edge16" class="edge"><title>IR_Precision&#45;&gt;module~foodie_integrator_adams_bashforth</title>
<path fill="none" stroke="black" stroke-dasharray="5,2" d="M54.1427,-278.031C75.6458,-293.48 114.288,-318.347 152,-328"/>
<path fill="none" stroke="black" stroke-dasharray="5,2" d="M152,-328C172.557,-333.262 220.219,-327.616 262.406,-320.728"/>
<polygon fill="black" stroke="black" points="263.144,-324.154 272.43,-319.053 261.989,-317.249 263.144,-324.154"/>
</g>
<!-- pyplot_module -->
<g id="node4" class="node"><title>pyplot_module</title>
<polygon fill="#337ab7" stroke="#337ab7" points="715,-108 633,-108 633,-82 715,-82 715,-108"/>
<text text-anchor="middle" x="674" y="-92.55" font-family="Helvetica,sans-Serif" font-size="10.50" fill="white">pyplot_module</text>
</g>
<!-- pyplot_module&#45;&gt;program~integrate_lorenz -->
<g id="edge38" class="edge"><title>pyplot_module&#45;&gt;program~integrate_lorenz</title>
<path fill="none" stroke="black" stroke-dasharray="5,2" d="M715.066,-95C739.487,-95 770.791,-95 797.403,-95"/>
<polygon fill="black" stroke="black" points="797.726,-98.5001 807.726,-95 797.726,-91.5001 797.726,-98.5001"/>
</g>
<!-- module~type_lorenz&#45;&gt;program~integrate_lorenz -->
<g id="edge40" class="edge"><title>module~type_lorenz&#45;&gt;program~integrate_lorenz</title>
<path fill="none" stroke="black" stroke-dasharray="5,2" d="M708.103,-131.734C726.983,-127.613 750.844,-122.245 772,-117 780.427,-114.911 789.318,-112.603 798.002,-110.29"/>
<polygon fill="black" stroke="black" points="798.932,-113.664 807.682,-107.689 797.116,-106.904 798.932,-113.664"/>
</g>
<!-- Data_Type_Command_Line_Interface -->
<g id="node6" class="node"><title>Data_Type_Command_Line_Interface</title>
<polygon fill="#337ab7" stroke="#337ab7" points="771,-26 577,-26 577,-1.24345e-14 771,-3.55271e-15 771,-26"/>
<text text-anchor="middle" x="674" y="-10.55" font-family="Helvetica,sans-Serif" font-size="10.50" fill="white">Data_Type_Command_Line_Interface</text>
</g>
<!-- Data_Type_Command_Line_Interface&#45;&gt;program~integrate_lorenz -->
<g id="edge42" class="edge"><title>Data_Type_Command_Line_Interface&#45;&gt;program~integrate_lorenz</title>
<path fill="none" stroke="black" stroke-dasharray="5,2" d="M733.416,-26.0078C746.418,-29.7734 759.904,-34.4132 772,-40 792.572,-49.5014 813.684,-64.0221 829.195,-75.7579"/>
<polygon fill="black" stroke="black" points="827.144,-78.5962 837.197,-81.9417 831.424,-73.0574 827.144,-78.5962"/>
</g>
<!-- module~foodie_integrator_low_storage_runge_kutta&#45;&gt;module~foodie -->
<g id="edge20" class="edge"><title>module~foodie_integrator_low_storage_runge_kutta&#45;&gt;module~foodie</title>
<path fill="none" stroke="black" stroke-dasharray="5,2" d="M450.054,-224C459.125,-224 467.822,-224 475.703,-224"/>
<polygon fill="black" stroke="black" points="475.902,-227.5 485.902,-224 475.902,-220.5 475.902,-227.5"/>
</g>
<!-- module~foodie_integrator_tvd_runge_kutta&#45;&gt;module~foodie -->
<g id="edge22" class="edge"><title>module~foodie_integrator_tvd_runge_kutta&#45;&gt;module~foodie</title>
<path fill="none" stroke="black" stroke-dasharray="5,2" d="M412.523,-193.02C425.089,-195.698 437.976,-198.715 450,-202 458.688,-204.374 467.91,-207.334 476.539,-210.307"/>
<polygon fill="black" stroke="black" points="475.375,-213.608 485.97,-213.637 477.706,-207.007 475.375,-213.608"/>
</g>
<!-- module~type_integrand&#45;&gt;module~foodie -->
<g id="edge24" class="edge"><title>module~type_integrand&#45;&gt;module~foodie</title>
<path fill="none" stroke="black" stroke-dasharray="5,2" d="M194.421,-265.896C252.648,-266.312 360.321,-264.162 450,-246 458.651,-244.248 467.733,-241.59 476.222,-238.721"/>
<polygon fill="black" stroke="black" points="477.605,-241.944 485.856,-235.297 475.261,-235.348 477.605,-241.944"/>
</g>
<!-- module~type_integrand&#45;&gt;module~foodie_integrator_low_storage_runge_kutta -->
<g id="edge4" class="edge"><title>module~type_integrand&#45;&gt;module~foodie_integrator_low_storage_runge_kutta</title>
<path fill="none" stroke="black" stroke-dasharray="5,2" d="M194.191,-255.799C216.555,-250.922 244.609,-244.803 270.12,-239.24"/>
<polygon fill="black" stroke="black" points="271.101,-242.608 280.126,-237.058 269.61,-235.769 271.101,-242.608"/>
</g>
<!-- module~type_integrand&#45;&gt;module~foodie_integrator_tvd_runge_kutta -->
<g id="edge8" class="edge"><title>module~type_integrand&#45;&gt;module~foodie_integrator_tvd_runge_kutta</title>
<path fill="none" stroke="black" stroke-dasharray="5,2" d="M164.184,-251.925C178.506,-237.39 203.679,-214.34 230,-202 234.567,-199.859 239.335,-197.926 244.218,-196.181"/>
<polygon fill="black" stroke="black" points="245.322,-199.502 253.726,-193.051 243.133,-192.853 245.322,-199.502"/>
</g>
<!-- module~type_integrand&#45;&gt;module~foodie_integrator_euler_explicit -->
<g id="edge14" class="edge"><title>module~type_integrand&#45;&gt;module~foodie_integrator_euler_explicit</title>
<path fill="none" stroke="black" stroke-dasharray="5,2" d="M164.184,-278.075C178.506,-292.61 203.679,-315.66 230,-328 236.102,-330.861 242.563,-333.35 249.176,-335.516"/>
<polygon fill="black" stroke="black" points="248.364,-338.927 258.949,-338.464 250.386,-332.225 248.364,-338.927"/>
</g>
<!-- module~type_integrand&#45;&gt;module~foodie_integrator_adams_bashforth -->
<g id="edge18" class="edge"><title>module~type_integrand&#45;&gt;module~foodie_integrator_adams_bashforth</title>
<path fill="none" stroke="black" stroke-dasharray="5,2" d="M194.191,-274.201C216.555,-279.078 244.609,-285.197 270.12,-290.76"/>
<polygon fill="black" stroke="black" points="269.61,-294.231 280.126,-292.942 271.101,-287.392 269.61,-294.231"/>
</g>
<!-- module~foodie_integrator_euler_explicit&#45;&gt;module~foodie -->
<g id="edge26" class="edge"><title>module~foodie_integrator_euler_explicit&#45;&gt;module~foodie</title>
<path fill="none" stroke="black" stroke-dasharray="5,2" d="M421.017,-341.897C431.336,-338.593 441.311,-334.096 450,-328 478.428,-308.056 496.335,-270.801 505.503,-246.717"/>
<polygon fill="black" stroke="black" points="508.803,-247.885 508.903,-237.291 502.218,-245.51 508.803,-247.885"/>
</g>
<!-- module~foodie_integrator_adams_bashforth&#45;&gt;module~foodie -->
<g id="edge28" class="edge"><title>module~foodie_integrator_adams_bashforth&#45;&gt;module~foodie</title>
<path fill="none" stroke="black" stroke-dasharray="5,2" d="M414.258,-292.926C426.568,-289.32 438.92,-284.757 450,-279 466.699,-270.324 482.637,-256.335 494.305,-244.637"/>
<polygon fill="black" stroke="black" points="496.9,-246.988 501.321,-237.359 491.861,-242.129 496.9,-246.988"/>
</g>
</g>
</svg>
