<?xml version="1.0" encoding="UTF-8" standalone="no"?>
<!DOCTYPE svg PUBLIC "-//W3C//DTD SVG 1.1//EN"
 "http://www.w3.org/Graphics/SVG/1.1/DTD/svg11.dtd">
<!-- Generated by graphviz version 2.26.3 (20100126.1600)
 -->
<!-- Title: program~~integrate_oscillation~~UsesGraph Pages: 1 -->
<svg width="641pt" height="256pt"
 viewBox="0.00 0.00 641.00 256.03" xmlns="http://www.w3.org/2000/svg" xmlns:xlink="http://www.w3.org/1999/xlink">
<g id="graph1" class="graph" transform="scale(0.693723 0.693723) rotate(0) translate(4 365.064)">
<title>program~~integrate_oscillation~~UsesGraph</title>
<polygon fill="white" stroke="white" points="-4,5 -4,-365.064 921,-365.064 921,5 -4,5"/>
<!-- program~integrate_oscillation -->
<g id="node1" class="node"><title>program~integrate_oscillation</title>
<polygon fill="none" stroke="black" points="915,-106.064 809,-106.064 809,-80.0641 915,-80.0641 915,-106.064"/>
<text text-anchor="middle" x="862" y="-90.6141" font-family="Helvetica,sans-Serif" font-size="10.50">integrate_oscillation</text>
</g>
<!-- module~foodie -->
<g id="node2" class="node"><title>module~foodie</title>
<a xlink:href="../module/foodie.html" xlink:title="foodie">
<polygon fill="#337ab7" stroke="#337ab7" points="540,-235.064 486,-235.064 486,-209.064 540,-209.064 540,-235.064"/>
<text text-anchor="middle" x="513" y="-219.614" font-family="Helvetica,sans-Serif" font-size="10.50" fill="white">foodie</text>
</a>
</g>
<!-- module~foodie&#45;&gt;program~integrate_oscillation -->
<g id="edge34" class="edge"><title>module~foodie&#45;&gt;program~integrate_oscillation</title>
<path fill="none" stroke="black" stroke-dasharray="5,2" d="M540.257,-219.011C588.778,-212.812 692.498,-196.073 772,-159.064 797.361,-147.258 822.742,-127.777 840.054,-113.032"/>
<polygon fill="black" stroke="black" points="842.624,-115.435 847.869,-106.229 838.028,-110.155 842.624,-115.435"/>
</g>
<!-- module~type_oscillation -->
<g id="node6" class="node"><title>module~type_oscillation</title>
<a xlink:href="../module/type_oscillation.html" xlink:title="type_oscillation">
<polygon fill="#337ab7" stroke="#337ab7" points="716,-150.064 632,-150.064 632,-124.064 716,-124.064 716,-150.064"/>
<text text-anchor="middle" x="674" y="-134.614" font-family="Helvetica,sans-Serif" font-size="10.50" fill="white">type_oscillation</text>
</a>
</g>
<!-- module~foodie&#45;&gt;module~type_oscillation -->
<g id="edge32" class="edge"><title>module~foodie&#45;&gt;module~type_oscillation</title>
<path fill="none" stroke="black" stroke-dasharray="5,2" d="M535.283,-208.93C547.262,-201.972 562.339,-193.375 576,-186.064 596.23,-175.237 619.153,-163.735 637.74,-154.597"/>
<polygon fill="black" stroke="black" points="639.313,-157.724 646.755,-150.183 636.235,-151.437 639.313,-157.724"/>
</g>
<!-- IR_Precision -->
<g id="node3" class="node"><title>IR_Precision</title>
<polygon fill="#337ab7" stroke="#337ab7" points="73,-276.064 1,-276.064 1,-250.064 73,-250.064 73,-276.064"/>
<text text-anchor="middle" x="37" y="-260.614" font-family="Helvetica,sans-Serif" font-size="10.50" fill="white">IR_Precision</text>
</g>
<!-- IR_Precision&#45;&gt;program~integrate_oscillation -->
<g id="edge36" class="edge"><title>IR_Precision&#45;&gt;program~integrate_oscillation</title>
<path fill="none" stroke="black" stroke-dasharray="5,2" d="M48.8681,-250.04C68.164,-229.951 108.574,-192.243 152,-178.064"/>
<path fill="none" stroke="black" stroke-dasharray="5,2" d="M152,-178.064C186.24,-166.884 194.506,-162.192 230,-156.064 354.223,-134.616 389.22,-160.936 513,-137.064"/>
<path fill="none" stroke="black" stroke-dasharray="5,2" d="M513,-137.064C567.844,-124.171 527.258,-55.3185 576,-27.0641 651.365,16.6225 689.212,0.0382075 772,-27.0641 799.377,-36.0265 825.31,-56.8389 842.243,-72.7148"/>
<polygon fill="black" stroke="black" points="840.182,-75.592 849.799,-80.0383 845.054,-70.5654 840.182,-75.592"/>
</g>
<!-- IR_Precision&#45;&gt;module~type_oscillation -->
<g id="edge30" class="edge"><title>IR_Precision&#45;&gt;module~type_oscillation</title>
<path fill="none" stroke="black" stroke-dasharray="5,2" d="M513,-137.064C548.508,-130.216 589.246,-130.29 620.859,-132.038"/>
<polygon fill="black" stroke="black" points="621.01,-135.554 631.209,-132.687 621.448,-128.568 621.01,-135.554"/>
</g>
<!-- module~foodie_integrator_low_storage_runge_kutta -->
<g id="node7" class="node"><title>module~foodie_integrator_low_storage_runge_kutta</title>
<a xlink:href="../module/foodie_integrator_low_storage_runge_kutta.html" xlink:title="foodie_integrator_low_storage_runge_kutta">
<polygon fill="#337ab7" stroke="#337ab7" points="450,-235.064 230,-235.064 230,-209.064 450,-209.064 450,-235.064"/>
<text text-anchor="middle" x="340" y="-219.614" font-family="Helvetica,sans-Serif" font-size="10.50" fill="white">foodie_integrator_low_storage_runge_kutta</text>
</a>
</g>
<!-- IR_Precision&#45;&gt;module~foodie_integrator_low_storage_runge_kutta -->
<g id="edge2" class="edge"><title>IR_Precision&#45;&gt;module~foodie_integrator_low_storage_runge_kutta</title>
<path fill="none" stroke="black" stroke-dasharray="5,2" d="M152,-178.064C186.24,-166.884 194.981,-191.637 230,-200.064 239.901,-202.447 250.346,-204.774 260.701,-206.969"/>
<polygon fill="black" stroke="black" points="260.076,-210.413 270.58,-209.03 261.506,-203.561 260.076,-210.413"/>
</g>
<!-- module~foodie_integrator_tvd_runge_kutta -->
<g id="node8" class="node"><title>module~foodie_integrator_tvd_runge_kutta</title>
<a xlink:href="../module/foodie_integrator_tvd_runge_kutta.html" xlink:title="foodie_integrator_tvd_runge_kutta">
<polygon fill="#337ab7" stroke="#337ab7" points="428,-191.064 252,-191.064 252,-165.064 428,-165.064 428,-191.064"/>
<text text-anchor="middle" x="340" y="-175.614" font-family="Helvetica,sans-Serif" font-size="10.50" fill="white">foodie_integrator_tvd_runge_kutta</text>
</a>
</g>
<!-- IR_Precision&#45;&gt;module~foodie_integrator_tvd_runge_kutta -->
<g id="edge6" class="edge"><title>IR_Precision&#45;&gt;module~foodie_integrator_tvd_runge_kutta</title>
<path fill="none" stroke="black" stroke-dasharray="5,2" d="M152,-178.064C180.032,-168.911 211.694,-166.219 240.932,-166.567"/>
<polygon fill="black" stroke="black" points="241.082,-170.072 251.163,-166.811 241.249,-163.074 241.082,-170.072"/>
</g>
<!-- module~type_integrand -->
<g id="node9" class="node"><title>module~type_integrand</title>
<a xlink:href="../module/type_integrand.html" xlink:title="type_integrand">
<polygon fill="#337ab7" stroke="#337ab7" points="194,-276.064 110,-276.064 110,-250.064 194,-250.064 194,-276.064"/>
<text text-anchor="middle" x="152" y="-260.614" font-family="Helvetica,sans-Serif" font-size="10.50" fill="white">type_integrand</text>
</a>
</g>
<!-- IR_Precision&#45;&gt;module~type_integrand -->
<g id="edge10" class="edge"><title>IR_Precision&#45;&gt;module~type_integrand</title>
<path fill="none" stroke="black" stroke-dasharray="5,2" d="M73.7029,-263.064C81.9237,-263.064 90.8,-263.064 99.521,-263.064"/>
<polygon fill="black" stroke="black" points="99.6389,-266.564 109.639,-263.064 99.6388,-259.564 99.6389,-266.564"/>
</g>
<!-- module~foodie_integrator_euler_explicit -->
<g id="node10" class="node"><title>module~foodie_integrator_euler_explicit</title>
<a xlink:href="../module/foodie_integrator_euler_explicit.html" xlink:title="foodie_integrator_euler_explicit">
<polygon fill="#337ab7" stroke="#337ab7" points="421,-361.064 259,-361.064 259,-335.064 421,-335.064 421,-361.064"/>
<text text-anchor="middle" x="340" y="-345.614" font-family="Helvetica,sans-Serif" font-size="10.50" fill="white">foodie_integrator_euler_explicit</text>
</a>
</g>
<!-- IR_Precision&#45;&gt;module~foodie_integrator_euler_explicit -->
<g id="edge12" class="edge"><title>IR_Precision&#45;&gt;module~foodie_integrator_euler_explicit</title>
<path fill="none" stroke="black" stroke-dasharray="5,2" d="M152,-326.064C182.89,-333.971 217.372,-339.044 248.286,-342.297"/>
<polygon fill="black" stroke="black" points="248.324,-345.818 258.622,-343.331 249.021,-338.853 248.324,-345.818"/>
</g>
<!-- module~foodie_integrator_adams_bashforth -->
<g id="node11" class="node"><title>module~foodie_integrator_adams_bashforth</title>
<a xlink:href="../module/foodie_integrator_adams_bashforth.html" xlink:title="foodie_integrator_adams_bashforth">
<polygon fill="#337ab7" stroke="#337ab7" points="431,-317.064 249,-317.064 249,-291.064 431,-291.064 431,-317.064"/>
<text text-anchor="middle" x="340" y="-301.614" font-family="Helvetica,sans-Serif" font-size="10.50" fill="white">foodie_integrator_adams_bashforth</text>
</a>
</g>
<!-- IR_Precision&#45;&gt;module~foodie_integrator_adams_bashforth -->
<g id="edge16" class="edge"><title>IR_Precision&#45;&gt;module~foodie_integrator_adams_bashforth</title>
<path fill="none" stroke="black" stroke-dasharray="5,2" d="M54.1427,-276.096C75.6458,-291.544 114.288,-316.411 152,-326.064"/>
<path fill="none" stroke="black" stroke-dasharray="5,2" d="M152,-326.064C172.557,-331.326 220.219,-325.68 262.406,-318.792"/>
<polygon fill="black" stroke="black" points="263.144,-322.218 272.43,-317.117 261.989,-315.313 263.144,-322.218"/>
</g>
<!-- pyplot_module -->
<g id="node4" class="node"><title>pyplot_module</title>
<polygon fill="#337ab7" stroke="#337ab7" points="715,-106.064 633,-106.064 633,-80.0641 715,-80.0641 715,-106.064"/>
<text text-anchor="middle" x="674" y="-90.6141" font-family="Helvetica,sans-Serif" font-size="10.50" fill="white">pyplot_module</text>
</g>
<!-- pyplot_module&#45;&gt;program~integrate_oscillation -->
<g id="edge38" class="edge"><title>pyplot_module&#45;&gt;program~integrate_oscillation</title>
<path fill="none" stroke="black" stroke-dasharray="5,2" d="M715.257,-93.0641C739.506,-93.0641 770.677,-93.0641 798.05,-93.0641"/>
<polygon fill="black" stroke="black" points="798.332,-96.5642 808.332,-93.0641 798.332,-89.5642 798.332,-96.5642"/>
</g>
<!-- Data_Type_Command_Line_Interface -->
<g id="node5" class="node"><title>Data_Type_Command_Line_Interface</title>
<polygon fill="#337ab7" stroke="#337ab7" points="771,-62.0641 577,-62.0641 577,-36.0641 771,-36.0641 771,-62.0641"/>
<text text-anchor="middle" x="674" y="-46.6141" font-family="Helvetica,sans-Serif" font-size="10.50" fill="white">Data_Type_Command_Line_Interface</text>
</g>
<!-- Data_Type_Command_Line_Interface&#45;&gt;program~integrate_oscillation -->
<g id="edge40" class="edge"><title>Data_Type_Command_Line_Interface&#45;&gt;program~integrate_oscillation</title>
<path fill="none" stroke="black" stroke-dasharray="5,2" d="M732.859,-62.0874C745.766,-64.9963 759.352,-68.0988 772,-71.0641 780.855,-73.1402 790.19,-75.3725 799.36,-77.5908"/>
<polygon fill="black" stroke="black" points="798.672,-81.0253 809.215,-79.9842 800.324,-74.223 798.672,-81.0253"/>
</g>
<!-- module~type_oscillation&#45;&gt;program~integrate_oscillation -->
<g id="edge42" class="edge"><title>module~type_oscillation&#45;&gt;program~integrate_oscillation</title>
<path fill="none" stroke="black" stroke-dasharray="5,2" d="M716.973,-127.601C734.109,-123.78 754.004,-119.283 772,-115.064 780.855,-112.988 790.19,-110.756 799.36,-108.537"/>
<polygon fill="black" stroke="black" points="800.324,-111.905 809.215,-106.144 798.672,-105.103 800.324,-111.905"/>
</g>
<!-- module~foodie_integrator_low_storage_runge_kutta&#45;&gt;module~foodie -->
<g id="edge20" class="edge"><title>module~foodie_integrator_low_storage_runge_kutta&#45;&gt;module~foodie</title>
<path fill="none" stroke="black" stroke-dasharray="5,2" d="M450.054,-222.064C459.125,-222.064 467.822,-222.064 475.703,-222.064"/>
<polygon fill="black" stroke="black" points="475.902,-225.564 485.902,-222.064 475.902,-218.564 475.902,-225.564"/>
</g>
<!-- module~foodie_integrator_tvd_runge_kutta&#45;&gt;module~foodie -->
<g id="edge22" class="edge"><title>module~foodie_integrator_tvd_runge_kutta&#45;&gt;module~foodie</title>
<path fill="none" stroke="black" stroke-dasharray="5,2" d="M412.523,-191.084C425.089,-193.762 437.976,-196.779 450,-200.064 458.688,-202.438 467.91,-205.398 476.539,-208.371"/>
<polygon fill="black" stroke="black" points="475.375,-211.672 485.97,-211.701 477.706,-205.071 475.375,-211.672"/>
</g>
<!-- module~type_integrand&#45;&gt;module~foodie -->
<g id="edge24" class="edge"><title>module~type_integrand&#45;&gt;module~foodie</title>
<path fill="none" stroke="black" stroke-dasharray="5,2" d="M194.421,-263.96C252.648,-264.376 360.321,-262.226 450,-244.064 458.651,-242.312 467.733,-239.654 476.222,-236.785"/>
<polygon fill="black" stroke="black" points="477.605,-240.008 485.856,-233.361 475.261,-233.412 477.605,-240.008"/>
</g>
<!-- module~type_integrand&#45;&gt;module~foodie_integrator_low_storage_runge_kutta -->
<g id="edge4" class="edge"><title>module~type_integrand&#45;&gt;module~foodie_integrator_low_storage_runge_kutta</title>
<path fill="none" stroke="black" stroke-dasharray="5,2" d="M194.191,-253.863C216.555,-248.986 244.609,-242.868 270.12,-237.304"/>
<polygon fill="black" stroke="black" points="271.101,-240.672 280.126,-235.122 269.61,-233.833 271.101,-240.672"/>
</g>
<!-- module~type_integrand&#45;&gt;module~foodie_integrator_tvd_runge_kutta -->
<g id="edge8" class="edge"><title>module~type_integrand&#45;&gt;module~foodie_integrator_tvd_runge_kutta</title>
<path fill="none" stroke="black" stroke-dasharray="5,2" d="M164.184,-249.989C178.506,-235.454 203.679,-212.404 230,-200.064 234.567,-197.923 239.335,-195.99 244.218,-194.245"/>
<polygon fill="black" stroke="black" points="245.322,-197.566 253.726,-191.115 243.133,-190.917 245.322,-197.566"/>
</g>
<!-- module~type_integrand&#45;&gt;module~foodie_integrator_euler_explicit -->
<g id="edge14" class="edge"><title>module~type_integrand&#45;&gt;module~foodie_integrator_euler_explicit</title>
<path fill="none" stroke="black" stroke-dasharray="5,2" d="M164.184,-276.139C178.506,-290.674 203.679,-313.724 230,-326.064 236.102,-328.925 242.563,-331.414 249.176,-333.58"/>
<polygon fill="black" stroke="black" points="248.364,-336.991 258.949,-336.528 250.386,-330.289 248.364,-336.991"/>
</g>
<!-- module~type_integrand&#45;&gt;module~foodie_integrator_adams_bashforth -->
<g id="edge18" class="edge"><title>module~type_integrand&#45;&gt;module~foodie_integrator_adams_bashforth</title>
<path fill="none" stroke="black" stroke-dasharray="5,2" d="M194.191,-272.265C216.555,-277.143 244.609,-283.261 270.12,-288.824"/>
<polygon fill="black" stroke="black" points="269.61,-292.295 280.126,-291.006 271.101,-285.456 269.61,-292.295"/>
</g>
<!-- module~foodie_integrator_euler_explicit&#45;&gt;module~foodie -->
<g id="edge26" class="edge"><title>module~foodie_integrator_euler_explicit&#45;&gt;module~foodie</title>
<path fill="none" stroke="black" stroke-dasharray="5,2" d="M421.017,-339.961C431.336,-336.657 441.311,-332.16 450,-326.064 478.428,-306.12 496.335,-268.865 505.503,-244.781"/>
<polygon fill="black" stroke="black" points="508.803,-245.949 508.903,-235.355 502.218,-243.574 508.803,-245.949"/>
</g>
<!-- module~foodie_integrator_adams_bashforth&#45;&gt;module~foodie -->
<g id="edge28" class="edge"><title>module~foodie_integrator_adams_bashforth&#45;&gt;module~foodie</title>
<path fill="none" stroke="black" stroke-dasharray="5,2" d="M414.258,-290.99C426.568,-287.384 438.92,-282.821 450,-277.064 466.699,-268.388 482.637,-254.399 494.305,-242.701"/>
<polygon fill="black" stroke="black" points="496.9,-245.052 501.321,-235.423 491.861,-240.193 496.9,-245.052"/>
</g>
</g>
</svg>
