<?xml version="1.0" encoding="UTF-8" standalone="no"?>
<!DOCTYPE svg PUBLIC "-//W3C//DTD SVG 1.1//EN"
 "http://www.w3.org/Graphics/SVG/1.1/DTD/svg11.dtd">
<!-- Generated by graphviz version 2.26.3 (20100126.1600)
 -->
<!-- Title: program~~integrate_euler_1d~~CallsGraph Pages: 1 -->
<svg width="442pt" height="254pt"
 viewBox="0.00 0.00 442.00 254.00" xmlns="http://www.w3.org/2000/svg" xmlns:xlink="http://www.w3.org/1999/xlink">
<g id="graph1" class="graph" transform="scale(1 1) rotate(0) translate(4 250)">
<title>program~~integrate_euler_1d~~CallsGraph</title>
<polygon fill="white" stroke="white" points="-4,5 -4,-250 439,-250 439,5 -4,5"/>
<!-- program~integrate_euler_1d -->
<g id="node1" class="node"><title>program~integrate_euler_1d</title>
<polygon fill="none" stroke="black" points="104,-136 3.55271e-14,-136 0,-110 104,-110 104,-136"/>
<text text-anchor="middle" x="52" y="-120.55" font-family="Helvetica,sans-Serif" font-size="10.50">integrate_euler_1D</text>
</g>
<!-- proc~test_ab~2 -->
<g id="node2" class="node"><title>proc~test_ab~2</title>
<a xlink:href="../proc/test_ab%7E2.html" xlink:title="test_ab">
<polygon fill="#d9534f" stroke="#d9534f" points="205,-246 151,-246 151,-220 205,-220 205,-246"/>
<text text-anchor="middle" x="178" y="-230.55" font-family="Helvetica,sans-Serif" font-size="10.50" fill="white">test_ab</text>
</a>
</g>
<!-- program~integrate_euler_1d&#45;&gt;proc~test_ab~2 -->
<g id="edge36" class="edge"><title>program~integrate_euler_1d&#45;&gt;proc~test_ab~2</title>
<path fill="none" stroke="black" d="M63.0364,-136.005C78.8712,-154.178 109.503,-187.57 140,-211 141.541,-212.184 143.153,-213.351 144.805,-214.492"/>
<polygon fill="black" stroke="black" points="142.967,-217.471 153.27,-219.942 146.756,-211.585 142.967,-217.471"/>
</g>
<!-- proc~test_euler~2 -->
<g id="node3" class="node"><title>proc~test_euler~2</title>
<a xlink:href="../proc/test_euler%7E2.html" xlink:title="test_euler">
<polygon fill="#d9534f" stroke="#d9534f" points="208,-202 148,-202 148,-176 208,-176 208,-202"/>
<text text-anchor="middle" x="178" y="-186.55" font-family="Helvetica,sans-Serif" font-size="10.50" fill="white">test_euler</text>
</a>
</g>
<!-- program~integrate_euler_1d&#45;&gt;proc~test_euler~2 -->
<g id="edge38" class="edge"><title>program~integrate_euler_1d&#45;&gt;proc~test_euler~2</title>
<path fill="none" stroke="black" d="M76.8935,-136.039C96.1356,-146.119 122.975,-160.177 144.165,-171.277"/>
<polygon fill="black" stroke="black" points="142.676,-174.448 153.158,-175.988 145.924,-168.247 142.676,-174.448"/>
</g>
<!-- proc~test_tvd_rk~2 -->
<g id="node4" class="node"><title>proc~test_tvd_rk~2</title>
<a xlink:href="../proc/test_tvd_rk%7E2.html" xlink:title="test_tvd_rk">
<polygon fill="#d9534f" stroke="#d9534f" points="210,-158 146,-158 146,-132 210,-132 210,-158"/>
<text text-anchor="middle" x="178" y="-142.55" font-family="Helvetica,sans-Serif" font-size="10.50" fill="white">test_tvd_rk</text>
</a>
</g>
<!-- program~integrate_euler_1d&#45;&gt;proc~test_tvd_rk~2 -->
<g id="edge40" class="edge"><title>program~integrate_euler_1d&#45;&gt;proc~test_tvd_rk~2</title>
<path fill="none" stroke="black" d="M104.341,-132.139C114.678,-133.944 125.41,-135.818 135.379,-137.558"/>
<polygon fill="black" stroke="black" points="134.99,-141.043 145.443,-139.315 136.194,-134.148 134.99,-141.043"/>
</g>
<!-- proc~init~7 -->
<g id="node5" class="node"><title>proc~init~7</title>
<a xlink:href="../proc/init%7E7.html" xlink:title="init">
<polygon fill="#d9534f" stroke="#d9534f" points="205,-26 151,-26 151,-1.24345e-14 205,-3.55271e-15 205,-26"/>
<text text-anchor="middle" x="178" y="-10.55" font-family="Helvetica,sans-Serif" font-size="10.50" fill="white">init</text>
</a>
</g>
<!-- program~integrate_euler_1d&#45;&gt;proc~init~7 -->
<g id="edge42" class="edge"><title>program~integrate_euler_1d&#45;&gt;proc~init~7</title>
<path fill="none" stroke="black" d="M63.0364,-109.995C78.8712,-91.8224 109.503,-58.4305 140,-35 141.541,-33.8157 143.153,-32.6491 144.805,-31.5083"/>
<polygon fill="black" stroke="black" points="146.756,-34.4147 153.27,-26.0583 142.967,-28.5291 146.756,-34.4147"/>
</g>
<!-- proc~test_ls_rk~2 -->
<g id="node6" class="node"><title>proc~test_ls_rk~2</title>
<a xlink:href="../proc/test_ls_rk%7E2.html" xlink:title="test_ls_rk">
<polygon fill="#d9534f" stroke="#d9534f" points="207,-114 149,-114 149,-88 207,-88 207,-114"/>
<text text-anchor="middle" x="178" y="-98.55" font-family="Helvetica,sans-Serif" font-size="10.50" fill="white">test_ls_rk</text>
</a>
</g>
<!-- program~integrate_euler_1d&#45;&gt;proc~test_ls_rk~2 -->
<g id="edge44" class="edge"><title>program~integrate_euler_1d&#45;&gt;proc~test_ls_rk~2</title>
<path fill="none" stroke="black" d="M104.341,-113.861C115.818,-111.857 127.782,-109.768 138.648,-107.871"/>
<polygon fill="black" stroke="black" points="139.428,-111.288 148.677,-106.12 138.224,-104.392 139.428,-111.288"/>
</g>
<!-- proc~test_leapfrog~2 -->
<g id="node7" class="node"><title>proc~test_leapfrog~2</title>
<a xlink:href="../proc/test_leapfrog%7E2.html" xlink:title="test_leapfrog">
<polygon fill="#d9534f" stroke="#d9534f" points="215,-70 141,-70 141,-44 215,-44 215,-70"/>
<text text-anchor="middle" x="178" y="-54.55" font-family="Helvetica,sans-Serif" font-size="10.50" fill="white">test_leapfrog</text>
</a>
</g>
<!-- program~integrate_euler_1d&#45;&gt;proc~test_leapfrog~2 -->
<g id="edge46" class="edge"><title>program~integrate_euler_1d&#45;&gt;proc~test_leapfrog~2</title>
<path fill="none" stroke="black" d="M76.8935,-109.961C96.1356,-99.8814 122.975,-85.8229 144.165,-74.7232"/>
<polygon fill="black" stroke="black" points="145.924,-77.7529 153.158,-70.0124 142.676,-71.5521 145.924,-77.7529"/>
</g>
<!-- str -->
<g id="node8" class="node"><title>str</title>
<polygon fill="#777777" stroke="#777777" points="434,-158 380,-158 380,-132 434,-132 434,-158"/>
<text text-anchor="middle" x="407" y="-142.55" font-family="Helvetica,sans-Serif" font-size="10.50" fill="white">str</text>
</g>
<!-- proc~test_ab~2&#45;&gt;str -->
<g id="edge6" class="edge"><title>proc~test_ab~2&#45;&gt;str</title>
<path fill="none" stroke="black" d="M205.294,-232.409C239.413,-230.686 298.816,-224.388 344,-202 361.563,-193.298 377.869,-178.27 389.49,-165.83"/>
<polygon fill="black" stroke="black" points="392.336,-167.899 396.416,-158.121 387.129,-163.22 392.336,-167.899"/>
</g>
<!-- proc~save_time_serie -->
<g id="node9" class="node"><title>proc~save_time_serie</title>
<a xlink:href="../proc/save_time_serie.html" xlink:title="save_time_serie">
<polygon fill="#d9534f" stroke="#d9534f" points="343,-158 253,-158 253,-132 343,-132 343,-158"/>
<text text-anchor="middle" x="298" y="-142.55" font-family="Helvetica,sans-Serif" font-size="10.50" fill="white">save_time_serie</text>
</a>
</g>
<!-- proc~test_ab~2&#45;&gt;proc~save_time_serie -->
<g id="edge8" class="edge"><title>proc~test_ab~2&#45;&gt;proc~save_time_serie</title>
<path fill="none" stroke="black" d="M202.061,-219.816C206.765,-217.031 211.6,-214.019 216,-211 236.917,-196.651 259.259,-178.459 275.33,-164.81"/>
<polygon fill="black" stroke="black" points="277.808,-167.296 283.123,-158.131 273.252,-161.982 277.808,-167.296"/>
</g>
<!-- proc~save_results~2 -->
<g id="node10" class="node"><title>proc~save_results~2</title>
<a xlink:href="../proc/save_results%7E2.html" xlink:title="save_results">
<polygon fill="#d9534f" stroke="#d9534f" points="334,-114 262,-114 262,-88 334,-88 334,-114"/>
<text text-anchor="middle" x="298" y="-98.55" font-family="Helvetica,sans-Serif" font-size="10.50" fill="white">save_results</text>
</a>
</g>
<!-- proc~test_ab~2&#45;&gt;proc~save_results~2 -->
<g id="edge10" class="edge"><title>proc~test_ab~2&#45;&gt;proc~save_results~2</title>
<path fill="none" stroke="black" d="M205.041,-220.383C209.063,-217.689 212.894,-214.562 216,-211 243.773,-179.152 222.995,-153.731 252,-123 252.889,-122.058 253.826,-121.153 254.803,-120.282"/>
<polygon fill="black" stroke="black" points="256.979,-123.026 262.942,-114.268 252.819,-117.396 256.979,-123.026"/>
</g>
<!-- proc~test_euler~2&#45;&gt;str -->
<g id="edge12" class="edge"><title>proc~test_euler~2&#45;&gt;str</title>
<path fill="none" stroke="black" d="M208.113,-192.363C241.942,-195.13 298.12,-196.663 344,-183 357.62,-178.944 371.301,-171.236 382.417,-163.817"/>
<polygon fill="black" stroke="black" points="384.542,-166.602 390.732,-158.003 380.531,-160.865 384.542,-166.602"/>
</g>
<!-- proc~test_euler~2&#45;&gt;proc~save_time_serie -->
<g id="edge14" class="edge"><title>proc~test_euler~2&#45;&gt;proc~save_time_serie</title>
<path fill="none" stroke="black" d="M208.281,-177.897C221.723,-172.968 237.826,-167.064 252.657,-161.626"/>
<polygon fill="black" stroke="black" points="253.995,-164.863 262.179,-158.134 251.585,-158.291 253.995,-164.863"/>
</g>
<!-- proc~test_euler~2&#45;&gt;proc~save_results~2 -->
<g id="edge16" class="edge"><title>proc~test_euler~2&#45;&gt;proc~save_results~2</title>
<path fill="none" stroke="black" d="M203.792,-175.772C208.051,-173.117 212.284,-170.161 216,-167 235.245,-150.627 232.126,-138.603 252,-123 253.567,-121.77 255.213,-120.586 256.914,-119.45"/>
<polygon fill="black" stroke="black" points="258.955,-122.308 265.743,-114.173 255.364,-116.299 258.955,-122.308"/>
</g>
<!-- proc~test_tvd_rk~2&#45;&gt;str -->
<g id="edge18" class="edge"><title>proc~test_tvd_rk~2&#45;&gt;str</title>
<path fill="none" stroke="black" d="M210.696,-156.935C223.407,-160.986 238.206,-164.993 252,-167 292.463,-172.887 303.687,-173.836 344,-167 352.702,-165.524 361.805,-162.978 370.298,-160.13"/>
<polygon fill="black" stroke="black" points="371.687,-163.351 379.929,-156.693 369.335,-156.758 371.687,-163.351"/>
</g>
<!-- proc~test_tvd_rk~2&#45;&gt;proc~save_time_serie -->
<g id="edge20" class="edge"><title>proc~test_tvd_rk~2&#45;&gt;proc~save_time_serie</title>
<path fill="none" stroke="black" d="M210.791,-145C220.467,-145 231.341,-145 242.042,-145"/>
<polygon fill="black" stroke="black" points="242.205,-148.5 252.205,-145 242.205,-141.5 242.205,-148.5"/>
</g>
<!-- proc~test_tvd_rk~2&#45;&gt;proc~save_results~2 -->
<g id="edge22" class="edge"><title>proc~test_tvd_rk~2&#45;&gt;proc~save_results~2</title>
<path fill="none" stroke="black" d="M210.791,-132.977C223.759,-128.222 238.878,-122.678 252.851,-117.555"/>
<polygon fill="black" stroke="black" points="254.117,-120.818 262.301,-114.09 251.707,-114.246 254.117,-120.818"/>
</g>
<!-- proc~test_ls_rk~2&#45;&gt;str -->
<g id="edge24" class="edge"><title>proc~test_ls_rk~2&#45;&gt;str</title>
<path fill="none" stroke="black" d="M207.138,-88.2926C241.298,-75.3577 298.964,-59.7292 344,-79 364.939,-87.9599 382.231,-107.675 393.367,-123.237"/>
<polygon fill="black" stroke="black" points="390.676,-125.505 399.193,-131.807 396.465,-121.57 390.676,-125.505"/>
</g>
<!-- proc~test_ls_rk~2&#45;&gt;proc~save_time_serie -->
<g id="edge26" class="edge"><title>proc~test_ls_rk~2&#45;&gt;proc~save_time_serie</title>
<path fill="none" stroke="black" d="M207.049,-111.651C220.705,-116.658 237.306,-122.746 252.569,-128.342"/>
<polygon fill="black" stroke="black" points="251.768,-131.776 262.362,-131.933 254.178,-125.204 251.768,-131.776"/>
</g>
<!-- proc~test_ls_rk~2&#45;&gt;proc~save_results~2 -->
<g id="edge28" class="edge"><title>proc~test_ls_rk~2&#45;&gt;proc~save_results~2</title>
<path fill="none" stroke="black" d="M207.049,-101C220.349,-101 236.444,-101 251.375,-101"/>
<polygon fill="black" stroke="black" points="251.477,-104.5 261.477,-101 251.477,-97.5001 251.477,-104.5"/>
</g>
<!-- proc~test_leapfrog~2&#45;&gt;str -->
<g id="edge30" class="edge"><title>proc~test_leapfrog~2&#45;&gt;str</title>
<path fill="none" stroke="black" d="M215.548,-50.3101C250.762,-45.928 303.864,-44.3113 344,-65 368.197,-77.4725 386.078,-103.885 396.488,-122.955"/>
<polygon fill="black" stroke="black" points="393.409,-124.621 401.118,-131.889 399.624,-121.4 393.409,-124.621"/>
</g>
<!-- proc~test_leapfrog~2&#45;&gt;proc~save_time_serie -->
<g id="edge32" class="edge"><title>proc~test_leapfrog~2&#45;&gt;proc~save_time_serie</title>
<path fill="none" stroke="black" d="M203.792,-70.2277C208.051,-72.883 212.284,-75.8386 216,-79 235.245,-95.3725 232.126,-107.397 252,-123 253.567,-124.23 255.213,-125.414 256.914,-126.55"/>
<polygon fill="black" stroke="black" points="255.364,-129.701 265.743,-131.827 258.955,-123.692 255.364,-129.701"/>
</g>
<!-- proc~test_leapfrog~2&#45;&gt;proc~save_results~2 -->
<g id="edge34" class="edge"><title>proc~test_leapfrog~2&#45;&gt;proc~save_results~2</title>
<path fill="none" stroke="black" d="M213.679,-70.0823C225.901,-74.5637 239.744,-79.6394 252.628,-84.3636"/>
<polygon fill="black" stroke="black" points="251.658,-87.7356 262.251,-87.8921 254.067,-81.1634 251.658,-87.7356"/>
</g>
<!-- proc~save_time_serie&#45;&gt;str -->
<g id="edge2" class="edge"><title>proc~save_time_serie&#45;&gt;str</title>
<path fill="none" stroke="black" d="M343.594,-145C352.29,-145 361.297,-145 369.697,-145"/>
<polygon fill="black" stroke="black" points="369.942,-148.5 379.942,-145 369.942,-141.5 369.942,-148.5"/>
</g>
<!-- proc~save_results~2&#45;&gt;str -->
<g id="edge4" class="edge"><title>proc~save_results~2&#45;&gt;str</title>
<path fill="none" stroke="black" d="M330.408,-114.082C342.91,-119.129 357.279,-124.929 370.169,-130.132"/>
<polygon fill="black" stroke="black" points="369.099,-133.475 379.683,-133.973 371.72,-126.984 369.099,-133.475"/>
</g>
</g>
</svg>
