<?xml version="1.0" encoding="UTF-8" standalone="no"?>
<!DOCTYPE svg PUBLIC "-//W3C//DTD SVG 1.1//EN"
 "http://www.w3.org/Graphics/SVG/1.1/DTD/svg11.dtd">
<!-- Generated by graphviz version 2.38.0 (20140413.2041)
 -->
<!-- Title: program~~integrate_oscillation~~CallsGraph Pages: 1 -->
<svg width="479pt" height="116pt"
 viewBox="0.00 0.00 479.00 116.00" xmlns="http://www.w3.org/2000/svg" xmlns:xlink="http://www.w3.org/1999/xlink">
<g id="graph0" class="graph" transform="scale(1 1) rotate(0) translate(4 112)">
<title>program~~integrate_oscillation~~CallsGraph</title>
<polygon fill="white" stroke="none" points="-4,4 -4,-112 475,-112 475,4 -4,4"/>
<!-- program~integrate_oscillation -->
<g id="node1" class="node"><title>program~integrate_oscillation</title>
<polygon fill="none" stroke="black" points="107,-66 0,-66 0,-42 107,-42 107,-66"/>
<text text-anchor="middle" x="53.5" y="-51.6" font-family="Helvetica,sans-Serif" font-size="10.50">integrate_oscillation</text>
</g>
<!-- proc~test_euler -->
<g id="node2" class="node"><title>proc~test_euler</title>
<g id="a_node2"><a xlink:href="../proc/test_euler.html" xlink:title="test_euler">
<polygon fill="#d9534f" stroke="#d9534f" points="203,-108 143,-108 143,-84 203,-84 203,-108"/>
<text text-anchor="middle" x="173" y="-93.6" font-family="Helvetica,sans-Serif" font-size="10.50" fill="white">test_euler</text>
</a>
</g>
</g>
<!-- program~integrate_oscillation&#45;&gt;proc~test_euler -->
<g id="edge9" class="edge"><title>program~integrate_oscillation&#45;&gt;proc~test_euler</title>
<path fill="none" stroke="black" d="M88.1708,-66.0355C102.166,-71.0381 118.499,-76.8761 133.011,-82.0634"/>
<polygon fill="black" stroke="black" points="132.121,-85.4622 142.716,-85.5324 134.477,-78.8706 132.121,-85.4622"/>
</g>
<!-- proc~test_rk -->
<g id="node3" class="node"><title>proc~test_rk</title>
<g id="a_node3"><a xlink:href="../proc/test_rk.html" xlink:title="test_rk">
<polygon fill="#d9534f" stroke="#d9534f" points="200,-24 146,-24 146,-0 200,-0 200,-24"/>
<text text-anchor="middle" x="173" y="-9.6" font-family="Helvetica,sans-Serif" font-size="10.50" fill="white">test_rk</text>
</a>
</g>
</g>
<!-- program~integrate_oscillation&#45;&gt;proc~test_rk -->
<g id="edge10" class="edge"><title>program~integrate_oscillation&#45;&gt;proc~test_rk</title>
<path fill="none" stroke="black" d="M88.1708,-41.9645C103.191,-36.5957 120.903,-30.2645 136.167,-24.8083"/>
<polygon fill="black" stroke="black" points="137.553,-28.0298 145.792,-21.368 135.197,-21.4382 137.553,-28.0298"/>
</g>
<!-- proc~test_ab -->
<g id="node4" class="node"><title>proc~test_ab</title>
<g id="a_node4"><a xlink:href="../proc/test_ab.html" xlink:title="test_ab">
<polygon fill="#d9534f" stroke="#d9534f" points="200,-66 146,-66 146,-42 200,-42 200,-66"/>
<text text-anchor="middle" x="173" y="-51.6" font-family="Helvetica,sans-Serif" font-size="10.50" fill="white">test_ab</text>
</a>
</g>
</g>
<!-- program~integrate_oscillation&#45;&gt;proc~test_ab -->
<g id="edge11" class="edge"><title>program~integrate_oscillation&#45;&gt;proc~test_ab</title>
<path fill="none" stroke="black" d="M107.064,-54C116.726,-54 126.614,-54 135.666,-54"/>
<polygon fill="black" stroke="black" points="135.845,-57.5001 145.845,-54 135.845,-50.5001 135.845,-57.5001"/>
</g>
<!-- proc~save_plots -->
<g id="node5" class="node"><title>proc~save_plots</title>
<g id="a_node5"><a xlink:href="../proc/save_plots.html" xlink:title="save_plots">
<polygon fill="#d9534f" stroke="#d9534f" points="342,-108 278,-108 278,-84 342,-84 342,-108"/>
<text text-anchor="middle" x="310" y="-93.6" font-family="Helvetica,sans-Serif" font-size="10.50" fill="white">save_plots</text>
</a>
</g>
</g>
<!-- proc~test_euler&#45;&gt;proc~save_plots -->
<g id="edge1" class="edge"><title>proc~test_euler&#45;&gt;proc~save_plots</title>
<path fill="none" stroke="black" d="M203.293,-96C222.134,-96 246.895,-96 267.717,-96"/>
<polygon fill="black" stroke="black" points="267.885,-99.5001 277.885,-96 267.885,-92.5001 267.885,-99.5001"/>
</g>
<!-- proc~test_rk&#45;&gt;proc~save_plots -->
<g id="edge3" class="edge"><title>proc~test_rk&#45;&gt;proc~save_plots</title>
<path fill="none" stroke="black" d="M192.002,-24.0243C195.767,-26.8136 199.617,-29.8832 203,-33 221.082,-49.6584 218.392,-61.5922 239,-75 247.694,-80.6566 257.974,-84.842 267.94,-87.9189"/>
<polygon fill="black" stroke="black" points="267.159,-91.3345 277.731,-90.6398 269.033,-84.5901 267.159,-91.3345"/>
</g>
<!-- str -->
<g id="node6" class="node"><title>str</title>
<polygon fill="#777777" stroke="#777777" points="337,-24 283,-24 283,-0 337,-0 337,-24"/>
<text text-anchor="middle" x="310" y="-9.6" font-family="Helvetica,sans-Serif" font-size="10.50" fill="white">str</text>
</g>
<!-- proc~test_rk&#45;&gt;str -->
<g id="edge4" class="edge"><title>proc~test_rk&#45;&gt;str</title>
<path fill="none" stroke="black" d="M200.029,-12C220.627,-12 249.636,-12 272.545,-12"/>
<polygon fill="black" stroke="black" points="272.59,-15.5001 282.59,-12 272.59,-8.5001 272.59,-15.5001"/>
</g>
<!-- interface~tvd_runge_kutta_integrator -->
<g id="node7" class="node"><title>interface~tvd_runge_kutta_integrator</title>
<g id="a_node7"><a xlink:href="../interface/tvd_runge_kutta_integrator.html" xlink:title="tvd_runge_kutta_integrator">
<polygon fill="#a7506f" stroke="#a7506f" points="381,-66 239,-66 239,-42 381,-42 381,-66"/>
<text text-anchor="middle" x="310" y="-51.6" font-family="Helvetica,sans-Serif" font-size="10.50" fill="white">tvd_runge_kutta_integrator</text>
</a>
</g>
</g>
<!-- proc~test_rk&#45;&gt;interface~tvd_runge_kutta_integrator -->
<g id="edge5" class="edge"><title>proc~test_rk&#45;&gt;interface~tvd_runge_kutta_integrator</title>
<path fill="none" stroke="black" d="M200.21,-20.6065C212.042,-24.4559 226.206,-29.0145 239,-33 245.348,-34.9775 252.031,-37.0254 258.645,-39.0321"/>
<polygon fill="black" stroke="black" points="257.655,-42.389 268.24,-41.9295 259.678,-35.6879 257.655,-42.389"/>
</g>
<!-- proc~test_ab&#45;&gt;proc~save_plots -->
<g id="edge6" class="edge"><title>proc~test_ab&#45;&gt;proc~save_plots</title>
<path fill="none" stroke="black" d="M200.21,-62.6065C212.042,-66.4559 226.206,-71.0145 239,-75 248.44,-77.9406 258.62,-81.0369 268.214,-83.9217"/>
<polygon fill="black" stroke="black" points="267.36,-87.3196 277.944,-86.8358 269.368,-80.6139 267.36,-87.3196"/>
</g>
<!-- proc~test_ab&#45;&gt;str -->
<g id="edge7" class="edge"><title>proc~test_ab&#45;&gt;str</title>
<path fill="none" stroke="black" d="M200.21,-45.3935C212.042,-41.5441 226.206,-36.9855 239,-33 250.037,-29.562 262.084,-25.9113 273.025,-22.6347"/>
<polygon fill="black" stroke="black" points="274.118,-25.9609 282.7,-19.7476 272.117,-19.2531 274.118,-25.9609"/>
</g>
<!-- proc~test_ab&#45;&gt;interface~tvd_runge_kutta_integrator -->
<g id="edge8" class="edge"><title>proc~test_ab&#45;&gt;interface~tvd_runge_kutta_integrator</title>
<path fill="none" stroke="black" d="M200.029,-54C208.565,-54 218.544,-54 228.936,-54"/>
<polygon fill="black" stroke="black" points="228.992,-57.5001 238.992,-54 228.991,-50.5001 228.992,-57.5001"/>
</g>
<!-- proc~create -->
<g id="node8" class="node"><title>proc~create</title>
<g id="a_node8"><a xlink:href="../proc/create.html" xlink:title="create">
<polygon fill="#d94e8f" stroke="#d94e8f" points="471,-66 417,-66 417,-42 471,-42 471,-66"/>
<text text-anchor="middle" x="444" y="-51.6" font-family="Helvetica,sans-Serif" font-size="10.50" fill="white">create</text>
</a>
</g>
</g>
<!-- interface~tvd_runge_kutta_integrator&#45;&gt;proc~create -->
<g id="edge2" class="edge"><title>interface~tvd_runge_kutta_integrator&#45;&gt;proc~create</title>
<path fill="none" stroke="black" stroke-dasharray="5,2" d="M381.251,-54C390.07,-54 398.787,-54 406.77,-54"/>
<polygon fill="black" stroke="black" points="406.787,-57.5001 416.787,-54 406.787,-50.5001 406.787,-57.5001"/>
</g>
</g>
</svg>
