<?xml version="1.0" encoding="UTF-8" standalone="no"?>
<!DOCTYPE svg PUBLIC "-//W3C//DTD SVG 1.1//EN"
 "http://www.w3.org/Graphics/SVG/1.1/DTD/svg11.dtd">
<!-- Generated by graphviz version 2.26.3 (20100126.1600)
 -->
<!-- Title: program~~integrate_lorenz~~UsesGraph Pages: 1 -->
<svg width="641pt" height="294pt"
 viewBox="0.00 0.00 641.00 293.61" xmlns="http://www.w3.org/2000/svg" xmlns:xlink="http://www.w3.org/1999/xlink">
<g id="graph1" class="graph" transform="scale(0.707506 0.707506) rotate(0) translate(4 411)">
<title>program~~integrate_lorenz~~UsesGraph</title>
<polygon fill="white" stroke="white" points="-4,5 -4,-411 903,-411 903,5 -4,5"/>
<!-- program~integrate_lorenz -->
<g id="node1" class="node"><title>program~integrate_lorenz</title>
<polygon fill="none" stroke="black" points="898,-108 808,-108 808,-82 898,-82 898,-108"/>
<text text-anchor="middle" x="853" y="-92.55" font-family="Helvetica,sans-Serif" font-size="10.50">integrate_lorenz</text>
</g>
<!-- module~foodie -->
<g id="node2" class="node"><title>module~foodie</title>
<a xlink:href="../module/foodie.html" xlink:title="foodie">
<polygon fill="#337ab7" stroke="#337ab7" points="540,-257 486,-257 486,-231 540,-231 540,-257"/>
<text text-anchor="middle" x="513" y="-241.55" font-family="Helvetica,sans-Serif" font-size="10.50" fill="white">foodie</text>
</a>
</g>
<!-- module~foodie&#45;&gt;program~integrate_lorenz -->
<g id="edge40" class="edge"><title>module~foodie&#45;&gt;program~integrate_lorenz</title>
<path fill="none" stroke="black" stroke-dasharray="5,2" d="M540.043,-238.822C588.668,-228.772 693.137,-203.768 772,-161 794.677,-148.702 817.155,-129.701 832.658,-115.238"/>
<polygon fill="black" stroke="black" points="835.271,-117.582 840.093,-108.148 830.44,-112.516 835.271,-117.582"/>
</g>
<!-- module~type_lorenz -->
<g id="node3" class="node"><title>module~type_lorenz</title>
<a xlink:href="../module/type_lorenz.html" xlink:title="type_lorenz">
<polygon fill="#337ab7" stroke="#337ab7" points="708,-152 640,-152 640,-126 708,-126 708,-152"/>
<text text-anchor="middle" x="674" y="-136.55" font-family="Helvetica,sans-Serif" font-size="10.50" fill="white">type_lorenz</text>
</a>
</g>
<!-- module~foodie&#45;&gt;module~type_lorenz -->
<g id="edge38" class="edge"><title>module~foodie&#45;&gt;module~type_lorenz</title>
<path fill="none" stroke="black" stroke-dasharray="5,2" d="M533.065,-230.914C561.343,-212.472 613.067,-178.739 645.374,-157.669"/>
<polygon fill="black" stroke="black" points="647.471,-160.48 653.935,-152.086 643.647,-154.617 647.471,-160.48"/>
</g>
<!-- module~type_lorenz&#45;&gt;program~integrate_lorenz -->
<g id="edge42" class="edge"><title>module~type_lorenz&#45;&gt;program~integrate_lorenz</title>
<path fill="none" stroke="black" stroke-dasharray="5,2" d="M708.103,-131.734C726.983,-127.613 750.844,-122.245 772,-117 780.427,-114.911 789.318,-112.603 798.002,-110.29"/>
<polygon fill="black" stroke="black" points="798.932,-113.664 807.682,-107.689 797.116,-106.904 798.932,-113.664"/>
</g>
<!-- pyplot_module -->
<g id="node4" class="node"><title>pyplot_module</title>
<polygon fill="#337ab7" stroke="#337ab7" points="715,-108 633,-108 633,-82 715,-82 715,-108"/>
<text text-anchor="middle" x="674" y="-92.55" font-family="Helvetica,sans-Serif" font-size="10.50" fill="white">pyplot_module</text>
</g>
<!-- pyplot_module&#45;&gt;program~integrate_lorenz -->
<g id="edge44" class="edge"><title>pyplot_module&#45;&gt;program~integrate_lorenz</title>
<path fill="none" stroke="black" stroke-dasharray="5,2" d="M715.066,-95C739.487,-95 770.791,-95 797.403,-95"/>
<polygon fill="black" stroke="black" points="797.726,-98.5001 807.726,-95 797.726,-91.5001 797.726,-98.5001"/>
</g>
<!-- IR_Precision -->
<g id="node5" class="node"><title>IR_Precision</title>
<polygon fill="#337ab7" stroke="#337ab7" points="73,-298 1,-298 1,-272 73,-272 73,-298"/>
<text text-anchor="middle" x="37" y="-282.55" font-family="Helvetica,sans-Serif" font-size="10.50" fill="white">IR_Precision</text>
</g>
<!-- IR_Precision&#45;&gt;program~integrate_lorenz -->
<g id="edge46" class="edge"><title>IR_Precision&#45;&gt;program~integrate_lorenz</title>
<path fill="none" stroke="black" stroke-dasharray="5,2" d="M46.156,-271.716C63.5116,-247.866 103.807,-198.544 152,-180"/>
<path fill="none" stroke="black" stroke-dasharray="5,2" d="M152,-180C302.704,-122.01 352.867,-159.78 513,-139"/>
<path fill="none" stroke="black" stroke-dasharray="5,2" d="M513,-139C553.029,-132.508 538.718,-88.953 576,-73 652.148,-40.4161 750.75,-61.4338 807.436,-78.8113"/>
<polygon fill="black" stroke="black" points="806.589,-82.2143 817.179,-81.8897 808.698,-75.5396 806.589,-82.2143"/>
</g>
<!-- IR_Precision&#45;&gt;module~type_lorenz -->
<g id="edge36" class="edge"><title>IR_Precision&#45;&gt;module~type_lorenz</title>
<path fill="none" stroke="black" stroke-dasharray="5,2" d="M513,-139C552.269,-133.904 597.381,-134.448 629.843,-135.951"/>
<polygon fill="black" stroke="black" points="629.748,-139.45 639.914,-136.466 630.106,-132.46 629.748,-139.45"/>
</g>
<!-- module~foodie_integrator_adams_bashforth -->
<g id="node7" class="node"><title>module~foodie_integrator_adams_bashforth</title>
<a xlink:href="../module/foodie_integrator_adams_bashforth.html" xlink:title="foodie_integrator_adams_bashforth">
<polygon fill="#337ab7" stroke="#337ab7" points="431,-363 249,-363 249,-337 431,-337 431,-363"/>
<text text-anchor="middle" x="340" y="-347.55" font-family="Helvetica,sans-Serif" font-size="10.50" fill="white">foodie_integrator_adams_bashforth</text>
</a>
</g>
<!-- IR_Precision&#45;&gt;module~foodie_integrator_adams_bashforth -->
<g id="edge4" class="edge"><title>IR_Precision&#45;&gt;module~foodie_integrator_adams_bashforth</title>
<path fill="none" stroke="black" stroke-dasharray="5,2" d="M152,-350C179.41,-357.21 209.856,-359.529 238.124,-359.445"/>
<polygon fill="black" stroke="black" points="238.477,-362.941 248.431,-359.31 238.386,-355.941 238.477,-362.941"/>
</g>
<!-- module~foodie_integrator_euler_explicit -->
<g id="node8" class="node"><title>module~foodie_integrator_euler_explicit</title>
<a xlink:href="../module/foodie_integrator_euler_explicit.html" xlink:title="foodie_integrator_euler_explicit">
<polygon fill="#337ab7" stroke="#337ab7" points="421,-319 259,-319 259,-293 421,-293 421,-319"/>
<text text-anchor="middle" x="340" y="-303.55" font-family="Helvetica,sans-Serif" font-size="10.50" fill="white">foodie_integrator_euler_explicit</text>
</a>
</g>
<!-- IR_Precision&#45;&gt;module~foodie_integrator_euler_explicit -->
<g id="edge8" class="edge"><title>IR_Precision&#45;&gt;module~foodie_integrator_euler_explicit</title>
<path fill="none" stroke="black" stroke-dasharray="5,2" d="M53.6975,-298.161C75.0524,-314.072 113.852,-339.965 152,-350"/>
<path fill="none" stroke="black" stroke-dasharray="5,2" d="M152,-350C186.834,-359.163 194.981,-336.427 230,-328 239.901,-325.617 250.346,-323.29 260.701,-321.095"/>
<polygon fill="black" stroke="black" points="261.506,-324.503 270.58,-319.034 260.076,-317.651 261.506,-324.503"/>
</g>
<!-- module~foodie_integrator_leapfrog -->
<g id="node9" class="node"><title>module~foodie_integrator_leapfrog</title>
<a xlink:href="../module/foodie_integrator_leapfrog.html" xlink:title="foodie_integrator_leapfrog">
<polygon fill="#337ab7" stroke="#337ab7" points="409,-237 271,-237 271,-211 409,-211 409,-237"/>
<text text-anchor="middle" x="340" y="-221.55" font-family="Helvetica,sans-Serif" font-size="10.50" fill="white">foodie_integrator_leapfrog</text>
</a>
</g>
<!-- IR_Precision&#45;&gt;module~foodie_integrator_leapfrog -->
<g id="edge12" class="edge"><title>IR_Precision&#45;&gt;module~foodie_integrator_leapfrog</title>
<path fill="none" stroke="black" stroke-dasharray="5,2" d="M152,-180C185.616,-167.065 194.981,-193.573 230,-202 239.901,-204.383 250.346,-206.71 260.701,-208.905"/>
<polygon fill="black" stroke="black" points="260.076,-212.349 270.58,-210.966 261.506,-205.497 260.076,-212.349"/>
</g>
<!-- module~foodie_integrator_low_storage_runge_kutta -->
<g id="node10" class="node"><title>module~foodie_integrator_low_storage_runge_kutta</title>
<a xlink:href="../module/foodie_integrator_low_storage_runge_kutta.html" xlink:title="foodie_integrator_low_storage_runge_kutta">
<polygon fill="#337ab7" stroke="#337ab7" points="450,-193 230,-193 230,-167 450,-167 450,-193"/>
<text text-anchor="middle" x="340" y="-177.55" font-family="Helvetica,sans-Serif" font-size="10.50" fill="white">foodie_integrator_low_storage_runge_kutta</text>
</a>
</g>
<!-- IR_Precision&#45;&gt;module~foodie_integrator_low_storage_runge_kutta -->
<g id="edge16" class="edge"><title>IR_Precision&#45;&gt;module~foodie_integrator_low_storage_runge_kutta</title>
<path fill="none" stroke="black" stroke-dasharray="5,2" d="M152,-180C179.521,-169.41 211.033,-166.295 240.29,-166.698"/>
<polygon fill="black" stroke="black" points="240.442,-170.203 250.535,-166.98 240.635,-163.206 240.442,-170.203"/>
</g>
<!-- module~foodie_integrator_tvd_runge_kutta -->
<g id="node11" class="node"><title>module~foodie_integrator_tvd_runge_kutta</title>
<a xlink:href="../module/foodie_integrator_tvd_runge_kutta.html" xlink:title="foodie_integrator_tvd_runge_kutta">
<polygon fill="#337ab7" stroke="#337ab7" points="428,-407 252,-407 252,-381 428,-381 428,-407"/>
<text text-anchor="middle" x="340" y="-391.55" font-family="Helvetica,sans-Serif" font-size="10.50" fill="white">foodie_integrator_tvd_runge_kutta</text>
</a>
</g>
<!-- IR_Precision&#45;&gt;module~foodie_integrator_tvd_runge_kutta -->
<g id="edge20" class="edge"><title>IR_Precision&#45;&gt;module~foodie_integrator_tvd_runge_kutta</title>
<path fill="none" stroke="black" stroke-dasharray="5,2" d="M152,-350C186.834,-359.163 194.981,-363.573 230,-372 239.901,-374.383 250.346,-376.71 260.701,-378.905"/>
<polygon fill="black" stroke="black" points="260.076,-382.349 270.58,-380.966 261.506,-375.497 260.076,-382.349"/>
</g>
<!-- module~type_integrand -->
<g id="node12" class="node"><title>module~type_integrand</title>
<a xlink:href="../module/type_integrand.html" xlink:title="type_integrand">
<polygon fill="#337ab7" stroke="#337ab7" points="194,-298 110,-298 110,-272 194,-272 194,-298"/>
<text text-anchor="middle" x="152" y="-282.55" font-family="Helvetica,sans-Serif" font-size="10.50" fill="white">type_integrand</text>
</a>
</g>
<!-- IR_Precision&#45;&gt;module~type_integrand -->
<g id="edge22" class="edge"><title>IR_Precision&#45;&gt;module~type_integrand</title>
<path fill="none" stroke="black" stroke-dasharray="5,2" d="M73.7029,-285C81.9237,-285 90.8,-285 99.521,-285"/>
<polygon fill="black" stroke="black" points="99.6389,-288.5 109.639,-285 99.6388,-281.5 99.6389,-288.5"/>
</g>
<!-- Data_Type_Command_Line_Interface -->
<g id="node6" class="node"><title>Data_Type_Command_Line_Interface</title>
<polygon fill="#337ab7" stroke="#337ab7" points="771,-26 577,-26 577,-1.24345e-14 771,-3.55271e-15 771,-26"/>
<text text-anchor="middle" x="674" y="-10.55" font-family="Helvetica,sans-Serif" font-size="10.50" fill="white">Data_Type_Command_Line_Interface</text>
</g>
<!-- Data_Type_Command_Line_Interface&#45;&gt;program~integrate_lorenz -->
<g id="edge48" class="edge"><title>Data_Type_Command_Line_Interface&#45;&gt;program~integrate_lorenz</title>
<path fill="none" stroke="black" stroke-dasharray="5,2" d="M733.416,-26.0078C746.418,-29.7734 759.904,-34.4132 772,-40 792.572,-49.5014 813.684,-64.0221 829.195,-75.7579"/>
<polygon fill="black" stroke="black" points="827.144,-78.5962 837.197,-81.9417 831.424,-73.0574 827.144,-78.5962"/>
</g>
<!-- module~foodie_integrator_adams_bashforth&#45;&gt;module~foodie -->
<g id="edge24" class="edge"><title>module~foodie_integrator_adams_bashforth&#45;&gt;module~foodie</title>
<path fill="none" stroke="black" stroke-dasharray="5,2" d="M431.501,-337.247C437.987,-334.686 444.233,-331.634 450,-328 473.747,-313.034 491.72,-285.68 502.274,-266.257"/>
<polygon fill="black" stroke="black" points="505.48,-267.677 506.979,-257.189 499.266,-264.453 505.48,-267.677"/>
</g>
<!-- module~foodie_integrator_euler_explicit&#45;&gt;module~foodie -->
<g id="edge26" class="edge"><title>module~foodie_integrator_euler_explicit&#45;&gt;module~foodie</title>
<path fill="none" stroke="black" stroke-dasharray="5,2" d="M405.458,-292.97C420.337,-289.176 435.905,-284.53 450,-279 461.531,-274.476 473.565,-268.216 483.989,-262.241"/>
<polygon fill="black" stroke="black" points="485.847,-265.208 492.682,-257.113 482.29,-259.179 485.847,-265.208"/>
</g>
<!-- module~foodie_integrator_leapfrog&#45;&gt;module~foodie -->
<g id="edge28" class="edge"><title>module~foodie_integrator_leapfrog&#45;&gt;module~foodie</title>
<path fill="none" stroke="black" stroke-dasharray="5,2" d="M409.867,-232.077C432.338,-234.675 456.366,-237.453 475.571,-239.673"/>
<polygon fill="black" stroke="black" points="475.368,-243.173 485.704,-240.844 476.172,-236.219 475.368,-243.173"/>
</g>
<!-- module~foodie_integrator_low_storage_runge_kutta&#45;&gt;module~foodie -->
<g id="edge30" class="edge"><title>module~foodie_integrator_low_storage_runge_kutta&#45;&gt;module~foodie</title>
<path fill="none" stroke="black" stroke-dasharray="5,2" d="M423.329,-193.043C432.484,-195.539 441.543,-198.497 450,-202 463.839,-207.732 477.841,-216.683 489.118,-224.852"/>
<polygon fill="black" stroke="black" points="487.061,-227.684 497.163,-230.879 491.259,-222.082 487.061,-227.684"/>
</g>
<!-- module~foodie_integrator_tvd_runge_kutta&#45;&gt;module~foodie -->
<g id="edge32" class="edge"><title>module~foodie_integrator_tvd_runge_kutta&#45;&gt;module~foodie</title>
<path fill="none" stroke="black" stroke-dasharray="5,2" d="M428.769,-383.922C436.371,-380.833 443.592,-376.926 450,-372 484.102,-345.783 500.929,-296.228 508.225,-267.065"/>
<polygon fill="black" stroke="black" points="511.634,-267.859 510.496,-257.325 504.816,-266.269 511.634,-267.859"/>
</g>
<!-- module~type_integrand&#45;&gt;module~foodie -->
<g id="edge34" class="edge"><title>module~type_integrand&#45;&gt;module~foodie</title>
<path fill="none" stroke="black" stroke-dasharray="5,2" d="M194.118,-280.217C265.266,-272.136 408.104,-255.913 475.792,-248.226"/>
<polygon fill="black" stroke="black" points="476.446,-251.674 485.987,-247.068 475.656,-244.719 476.446,-251.674"/>
</g>
<!-- module~type_integrand&#45;&gt;module~foodie_integrator_adams_bashforth -->
<g id="edge2" class="edge"><title>module~type_integrand&#45;&gt;module~foodie_integrator_adams_bashforth</title>
<path fill="none" stroke="black" stroke-dasharray="5,2" d="M171.717,-298.098C187.022,-307.702 209.088,-320.352 230,-328 236.39,-330.337 243.085,-332.446 249.882,-334.345"/>
<polygon fill="black" stroke="black" points="249.329,-337.819 259.891,-336.981 251.112,-331.05 249.329,-337.819"/>
</g>
<!-- module~type_integrand&#45;&gt;module~foodie_integrator_euler_explicit -->
<g id="edge6" class="edge"><title>module~type_integrand&#45;&gt;module~foodie_integrator_euler_explicit</title>
<path fill="none" stroke="black" stroke-dasharray="5,2" d="M194.191,-289.713C210.416,-291.525 229.636,-293.672 248.708,-295.802"/>
<polygon fill="black" stroke="black" points="248.324,-299.281 258.651,-296.913 249.101,-292.325 248.324,-299.281"/>
</g>
<!-- module~type_integrand&#45;&gt;module~foodie_integrator_leapfrog -->
<g id="edge10" class="edge"><title>module~type_integrand&#45;&gt;module~foodie_integrator_leapfrog</title>
<path fill="none" stroke="black" stroke-dasharray="5,2" d="M178.986,-271.881C193.804,-265.025 212.646,-256.864 230,-251 242.47,-246.786 255.939,-242.93 269.033,-239.532"/>
<polygon fill="black" stroke="black" points="270.112,-242.87 278.95,-237.025 268.397,-236.083 270.112,-242.87"/>
</g>
<!-- module~type_integrand&#45;&gt;module~foodie_integrator_low_storage_runge_kutta -->
<g id="edge14" class="edge"><title>module~type_integrand&#45;&gt;module~foodie_integrator_low_storage_runge_kutta</title>
<path fill="none" stroke="black" stroke-dasharray="5,2" d="M160.314,-271.967C172.962,-253.294 198.883,-219.28 230,-202 233.445,-200.087 237.033,-198.339 240.719,-196.741"/>
<polygon fill="black" stroke="black" points="242.031,-199.986 250.06,-193.074 239.473,-193.471 242.031,-199.986"/>
</g>
<!-- module~type_integrand&#45;&gt;module~foodie_integrator_tvd_runge_kutta -->
<g id="edge18" class="edge"><title>module~type_integrand&#45;&gt;module~foodie_integrator_tvd_runge_kutta</title>
<path fill="none" stroke="black" stroke-dasharray="5,2" d="M162.905,-298.049C182.309,-321.133 221.587,-367.198 230,-372 233.758,-374.145 237.693,-376.083 241.744,-377.835"/>
<polygon fill="black" stroke="black" points="240.795,-381.221 251.384,-381.592 243.337,-374.699 240.795,-381.221"/>
</g>
</g>
</svg>
