<?xml version="1.0" encoding="UTF-8" standalone="no"?>
<!DOCTYPE svg PUBLIC "-//W3C//DTD SVG 1.1//EN"
 "http://www.w3.org/Graphics/SVG/1.1/DTD/svg11.dtd">
<!-- Generated by graphviz version 2.26.3 (20100126.1600)
 -->
<!-- Title: program~~integrate_lorenz~~UsesGraph Pages: 1 -->
<svg width="641pt" height="229pt"
 viewBox="0.00 0.00 641.00 228.90" xmlns="http://www.w3.org/2000/svg" xmlns:xlink="http://www.w3.org/1999/xlink">
<g id="graph1" class="graph" transform="scale(0.707506 0.707506) rotate(0) translate(4 319.525)">
<title>program~~integrate_lorenz~~UsesGraph</title>
<polygon fill="white" stroke="white" points="-4,5 -4,-319.525 903,-319.525 903,5 -4,5"/>
<!-- program~integrate_lorenz -->
<g id="node1" class="node"><title>program~integrate_lorenz</title>
<polygon fill="none" stroke="black" points="898,-242.525 808,-242.525 808,-216.525 898,-216.525 898,-242.525"/>
<text text-anchor="middle" x="853" y="-227.075" font-family="Helvetica,sans-Serif" font-size="10.50">integrate_lorenz</text>
</g>
<!-- pyplot_module -->
<g id="node2" class="node"><title>pyplot_module</title>
<polygon fill="#337ab7" stroke="#337ab7" points="715,-315.525 633,-315.525 633,-289.525 715,-289.525 715,-315.525"/>
<text text-anchor="middle" x="674" y="-300.075" font-family="Helvetica,sans-Serif" font-size="10.50" fill="white">pyplot_module</text>
</g>
<!-- pyplot_module&#45;&gt;program~integrate_lorenz -->
<g id="edge34" class="edge"><title>pyplot_module&#45;&gt;program~integrate_lorenz</title>
<path fill="none" stroke="black" stroke-dasharray="5,2" d="M715.286,-293.566C733.074,-289.093 753.902,-283.021 772,-275.525 790.065,-268.044 809.134,-257.368 824.229,-248.185"/>
<polygon fill="black" stroke="black" points="826.416,-250.947 833.069,-242.702 822.726,-244.998 826.416,-250.947"/>
</g>
<!-- IR_Precision -->
<g id="node3" class="node"><title>IR_Precision</title>
<polygon fill="#337ab7" stroke="#337ab7" points="73,-148.525 1,-148.525 1,-122.525 73,-122.525 73,-148.525"/>
<text text-anchor="middle" x="37" y="-133.075" font-family="Helvetica,sans-Serif" font-size="10.50" fill="white">IR_Precision</text>
</g>
<!-- IR_Precision&#45;&gt;program~integrate_lorenz -->
<g id="edge36" class="edge"><title>IR_Precision&#45;&gt;program~integrate_lorenz</title>
<path fill="none" stroke="black" stroke-dasharray="5,2" d="M152,-261.525C373.25,-331.328 442.191,-252.11 674,-261.525"/>
</g>
<!-- module~type_lorenz -->
<g id="node5" class="node"><title>module~type_lorenz</title>
<a xlink:href="../module/type_lorenz.html" xlink:title="type_lorenz">
<polygon fill="#337ab7" stroke="#337ab7" points="708,-211.525 640,-211.525 640,-185.525 708,-185.525 708,-211.525"/>
<text text-anchor="middle" x="674" y="-196.075" font-family="Helvetica,sans-Serif" font-size="10.50" fill="white">type_lorenz</text>
</a>
</g>
<!-- IR_Precision&#45;&gt;module~type_lorenz -->
<g id="edge30" class="edge"><title>IR_Precision&#45;&gt;module~type_lorenz</title>
<path fill="none" stroke="black" stroke-dasharray="5,2" d="M48.8681,-122.501C68.164,-102.412 108.574,-64.7042 152,-50.5254"/>
<path fill="none" stroke="black" stroke-dasharray="5,2" d="M152,-50.5254C278.246,-9.30524 329.438,27.1699 450,-28.5254 528.423,-64.7542 502.046,-131.876 576,-176.525 592.097,-186.244 612.022,-191.679 629.694,-194.714"/>
<polygon fill="black" stroke="black" points="629.382,-198.207 639.792,-196.238 630.426,-191.285 629.382,-198.207"/>
</g>
<!-- module~foodie_integrator_low_storage_runge_kutta -->
<g id="node7" class="node"><title>module~foodie_integrator_low_storage_runge_kutta</title>
<a xlink:href="../module/foodie_integrator_low_storage_runge_kutta.html" xlink:title="foodie_integrator_low_storage_runge_kutta">
<polygon fill="#337ab7" stroke="#337ab7" points="450,-107.525 230,-107.525 230,-81.5254 450,-81.5254 450,-107.525"/>
<text text-anchor="middle" x="340" y="-92.0754" font-family="Helvetica,sans-Serif" font-size="10.50" fill="white">foodie_integrator_low_storage_runge_kutta</text>
</a>
</g>
<!-- IR_Precision&#45;&gt;module~foodie_integrator_low_storage_runge_kutta -->
<g id="edge2" class="edge"><title>IR_Precision&#45;&gt;module~foodie_integrator_low_storage_runge_kutta</title>
<path fill="none" stroke="black" stroke-dasharray="5,2" d="M152,-50.5254C186.24,-39.3457 194.981,-64.0983 230,-72.5254 239.901,-74.908 250.346,-77.2351 260.701,-79.43"/>
<polygon fill="black" stroke="black" points="260.076,-82.8749 270.58,-81.4914 261.506,-76.0225 260.076,-82.8749"/>
</g>
<!-- module~foodie_integrator_tvd_runge_kutta -->
<g id="node8" class="node"><title>module~foodie_integrator_tvd_runge_kutta</title>
<a xlink:href="../module/foodie_integrator_tvd_runge_kutta.html" xlink:title="foodie_integrator_tvd_runge_kutta">
<polygon fill="#337ab7" stroke="#337ab7" points="428,-63.5254 252,-63.5254 252,-37.5254 428,-37.5254 428,-63.5254"/>
<text text-anchor="middle" x="340" y="-48.0754" font-family="Helvetica,sans-Serif" font-size="10.50" fill="white">foodie_integrator_tvd_runge_kutta</text>
</a>
</g>
<!-- IR_Precision&#45;&gt;module~foodie_integrator_tvd_runge_kutta -->
<g id="edge6" class="edge"><title>IR_Precision&#45;&gt;module~foodie_integrator_tvd_runge_kutta</title>
<path fill="none" stroke="black" stroke-dasharray="5,2" d="M152,-50.5254C180.032,-41.3728 211.694,-38.6804 240.932,-39.0284"/>
<polygon fill="black" stroke="black" points="241.082,-42.5329 251.163,-39.2727 241.249,-35.5349 241.082,-42.5329"/>
</g>
<!-- module~type_integrand -->
<g id="node9" class="node"><title>module~type_integrand</title>
<a xlink:href="../module/type_integrand.html" xlink:title="type_integrand">
<polygon fill="#337ab7" stroke="#337ab7" points="194,-148.525 110,-148.525 110,-122.525 194,-122.525 194,-148.525"/>
<text text-anchor="middle" x="152" y="-133.075" font-family="Helvetica,sans-Serif" font-size="10.50" fill="white">type_integrand</text>
</a>
</g>
<!-- IR_Precision&#45;&gt;module~type_integrand -->
<g id="edge10" class="edge"><title>IR_Precision&#45;&gt;module~type_integrand</title>
<path fill="none" stroke="black" stroke-dasharray="5,2" d="M73.7029,-135.525C81.9237,-135.525 90.8,-135.525 99.521,-135.525"/>
<polygon fill="black" stroke="black" points="99.6389,-139.026 109.639,-135.525 99.6388,-132.026 99.6389,-139.026"/>
</g>
<!-- module~foodie_integrator_euler_explicit -->
<g id="node10" class="node"><title>module~foodie_integrator_euler_explicit</title>
<a xlink:href="../module/foodie_integrator_euler_explicit.html" xlink:title="foodie_integrator_euler_explicit">
<polygon fill="#337ab7" stroke="#337ab7" points="421,-233.525 259,-233.525 259,-207.525 421,-207.525 421,-233.525"/>
<text text-anchor="middle" x="340" y="-218.075" font-family="Helvetica,sans-Serif" font-size="10.50" fill="white">foodie_integrator_euler_explicit</text>
</a>
</g>
<!-- IR_Precision&#45;&gt;module~foodie_integrator_euler_explicit -->
<g id="edge12" class="edge"><title>IR_Precision&#45;&gt;module~foodie_integrator_euler_explicit</title>
<path fill="none" stroke="black" stroke-dasharray="5,2" d="M152,-261.525C158.098,-263.449 224.168,-248.402 276.281,-235.998"/>
<polygon fill="black" stroke="black" points="277.25,-239.365 286.164,-233.638 275.624,-232.556 277.25,-239.365"/>
</g>
<!-- module~foodie_integrator_adams_bashforth -->
<g id="node11" class="node"><title>module~foodie_integrator_adams_bashforth</title>
<a xlink:href="../module/foodie_integrator_adams_bashforth.html" xlink:title="foodie_integrator_adams_bashforth">
<polygon fill="#337ab7" stroke="#337ab7" points="431,-189.525 249,-189.525 249,-163.525 431,-163.525 431,-189.525"/>
<text text-anchor="middle" x="340" y="-174.075" font-family="Helvetica,sans-Serif" font-size="10.50" fill="white">foodie_integrator_adams_bashforth</text>
</a>
</g>
<!-- IR_Precision&#45;&gt;module~foodie_integrator_adams_bashforth -->
<g id="edge16" class="edge"><title>IR_Precision&#45;&gt;module~foodie_integrator_adams_bashforth</title>
<path fill="none" stroke="black" stroke-dasharray="5,2" d="M43.2055,-148.846C57.4806,-177.492 95.7943,-243.793 152,-261.525"/>
<path fill="none" stroke="black" stroke-dasharray="5,2" d="M152,-261.525C194.497,-274.933 189.652,-217.442 230,-198.525 234.567,-196.384 239.335,-194.451 244.218,-192.706"/>
<polygon fill="black" stroke="black" points="245.322,-196.028 253.726,-189.576 243.133,-189.379 245.322,-196.028"/>
</g>
<!-- module~foodie -->
<g id="node4" class="node"><title>module~foodie</title>
<a xlink:href="../module/foodie.html" xlink:title="foodie">
<polygon fill="#337ab7" stroke="#337ab7" points="540,-189.525 486,-189.525 486,-163.525 540,-163.525 540,-189.525"/>
<text text-anchor="middle" x="513" y="-174.075" font-family="Helvetica,sans-Serif" font-size="10.50" fill="white">foodie</text>
</a>
</g>
<!-- module~foodie&#45;&gt;program~integrate_lorenz -->
<g id="edge38" class="edge"><title>module~foodie&#45;&gt;program~integrate_lorenz</title>
<path fill="none" stroke="black" stroke-dasharray="5,2" d="M527.201,-189.708C553.747,-212.966 613.679,-259.076 674,-261.525"/>
<path fill="none" stroke="black" stroke-dasharray="5,2" d="M674,-261.525C716.92,-263.269 764.784,-254.118 800.211,-245.162"/>
<polygon fill="black" stroke="black" points="801.528,-248.436 810.322,-242.527 799.762,-241.662 801.528,-248.436"/>
</g>
<!-- module~foodie&#45;&gt;module~type_lorenz -->
<g id="edge32" class="edge"><title>module~foodie&#45;&gt;module~type_lorenz</title>
<path fill="none" stroke="black" stroke-dasharray="5,2" d="M540.311,-180.257C564.762,-183.598 601.061,-188.559 629.667,-192.468"/>
<polygon fill="black" stroke="black" points="629.44,-195.969 639.822,-193.855 630.388,-189.033 629.44,-195.969"/>
</g>
<!-- module~type_lorenz&#45;&gt;program~integrate_lorenz -->
<g id="edge40" class="edge"><title>module~type_lorenz&#45;&gt;program~integrate_lorenz</title>
<path fill="none" stroke="black" stroke-dasharray="5,2" d="M708.09,-204.429C733.406,-208.814 768.473,-214.887 797.769,-219.96"/>
<polygon fill="black" stroke="black" points="797.415,-223.451 807.866,-221.709 798.61,-216.554 797.415,-223.451"/>
</g>
<!-- Data_Type_Command_Line_Interface -->
<g id="node6" class="node"><title>Data_Type_Command_Line_Interface</title>
<polygon fill="#337ab7" stroke="#337ab7" points="771,-167.525 577,-167.525 577,-141.525 771,-141.525 771,-167.525"/>
<text text-anchor="middle" x="674" y="-152.075" font-family="Helvetica,sans-Serif" font-size="10.50" fill="white">Data_Type_Command_Line_Interface</text>
</g>
<!-- Data_Type_Command_Line_Interface&#45;&gt;program~integrate_lorenz -->
<g id="edge42" class="edge"><title>Data_Type_Command_Line_Interface&#45;&gt;program~integrate_lorenz</title>
<path fill="none" stroke="black" stroke-dasharray="5,2" d="M746.125,-167.59C754.993,-170.104 763.809,-173.061 772,-176.525 792.503,-185.197 813.476,-199.086 828.943,-210.47"/>
<polygon fill="black" stroke="black" points="826.838,-213.266 836.931,-216.488 831.05,-207.675 826.838,-213.266"/>
</g>
<!-- module~foodie_integrator_low_storage_runge_kutta&#45;&gt;module~foodie -->
<g id="edge20" class="edge"><title>module~foodie_integrator_low_storage_runge_kutta&#45;&gt;module~foodie</title>
<path fill="none" stroke="black" stroke-dasharray="5,2" d="M414.258,-107.6C426.568,-111.206 438.92,-115.768 450,-121.525 466.699,-130.202 482.637,-144.191 494.305,-155.889"/>
<polygon fill="black" stroke="black" points="491.861,-158.396 501.321,-163.166 496.9,-153.538 491.861,-158.396"/>
</g>
<!-- module~foodie_integrator_tvd_runge_kutta&#45;&gt;module~foodie -->
<g id="edge22" class="edge"><title>module~foodie_integrator_tvd_runge_kutta&#45;&gt;module~foodie</title>
<path fill="none" stroke="black" stroke-dasharray="5,2" d="M428.607,-61.3095C436.199,-64.2583 443.463,-67.9396 450,-72.5254 478.428,-92.4692 496.335,-129.724 505.503,-153.808"/>
<polygon fill="black" stroke="black" points="502.218,-155.015 508.903,-163.235 508.803,-152.64 502.218,-155.015"/>
</g>
<!-- module~type_integrand&#45;&gt;module~foodie -->
<g id="edge24" class="edge"><title>module~type_integrand&#45;&gt;module~foodie</title>
<path fill="none" stroke="black" stroke-dasharray="5,2" d="M194.421,-134.63C252.648,-134.214 360.321,-136.363 450,-154.525 458.651,-156.277 467.733,-158.935 476.222,-161.804"/>
<polygon fill="black" stroke="black" points="475.261,-165.177 485.856,-165.228 477.605,-158.581 475.261,-165.177"/>
</g>
<!-- module~type_integrand&#45;&gt;module~foodie_integrator_low_storage_runge_kutta -->
<g id="edge4" class="edge"><title>module~type_integrand&#45;&gt;module~foodie_integrator_low_storage_runge_kutta</title>
<path fill="none" stroke="black" stroke-dasharray="5,2" d="M194.191,-126.324C216.555,-121.447 244.609,-115.329 270.12,-109.765"/>
<polygon fill="black" stroke="black" points="271.101,-113.134 280.126,-107.583 269.61,-106.294 271.101,-113.134"/>
</g>
<!-- module~type_integrand&#45;&gt;module~foodie_integrator_tvd_runge_kutta -->
<g id="edge8" class="edge"><title>module~type_integrand&#45;&gt;module~foodie_integrator_tvd_runge_kutta</title>
<path fill="none" stroke="black" stroke-dasharray="5,2" d="M164.184,-122.451C178.506,-107.915 203.679,-84.8654 230,-72.5254 234.567,-70.3844 239.335,-68.4513 244.218,-66.7062"/>
<polygon fill="black" stroke="black" points="245.322,-70.0277 253.726,-63.5764 243.133,-63.3787 245.322,-70.0277"/>
</g>
<!-- module~type_integrand&#45;&gt;module~foodie_integrator_euler_explicit -->
<g id="edge14" class="edge"><title>module~type_integrand&#45;&gt;module~foodie_integrator_euler_explicit</title>
<path fill="none" stroke="black" stroke-dasharray="5,2" d="M164.184,-148.6C178.506,-163.135 203.679,-186.185 230,-198.525 236.102,-201.386 242.563,-203.875 249.176,-206.041"/>
<polygon fill="black" stroke="black" points="248.364,-209.452 258.949,-208.989 250.386,-202.75 248.364,-209.452"/>
</g>
<!-- module~type_integrand&#45;&gt;module~foodie_integrator_adams_bashforth -->
<g id="edge18" class="edge"><title>module~type_integrand&#45;&gt;module~foodie_integrator_adams_bashforth</title>
<path fill="none" stroke="black" stroke-dasharray="5,2" d="M194.191,-144.727C216.555,-149.604 244.609,-155.722 270.12,-161.286"/>
<polygon fill="black" stroke="black" points="269.61,-164.757 280.126,-163.468 271.101,-157.917 269.61,-164.757"/>
</g>
<!-- module~foodie_integrator_euler_explicit&#45;&gt;module~foodie -->
<g id="edge26" class="edge"><title>module~foodie_integrator_euler_explicit&#45;&gt;module~foodie</title>
<path fill="none" stroke="black" stroke-dasharray="5,2" d="M412.523,-207.506C425.089,-204.828 437.976,-201.81 450,-198.525 458.688,-196.152 467.91,-193.191 476.539,-190.219"/>
<polygon fill="black" stroke="black" points="477.706,-193.518 485.97,-186.888 475.375,-186.918 477.706,-193.518"/>
</g>
<!-- module~foodie_integrator_adams_bashforth&#45;&gt;module~foodie -->
<g id="edge28" class="edge"><title>module~foodie_integrator_adams_bashforth&#45;&gt;module~foodie</title>
<path fill="none" stroke="black" stroke-dasharray="5,2" d="M431.566,-176.525C447.17,-176.525 462.554,-176.525 475.677,-176.525"/>
<polygon fill="black" stroke="black" points="475.677,-180.026 485.677,-176.525 475.677,-173.026 475.677,-180.026"/>
</g>
</g>
</svg>
