<?xml version="1.0" encoding="UTF-8" standalone="no"?>
<!DOCTYPE svg PUBLIC "-//W3C//DTD SVG 1.1//EN"
 "http://www.w3.org/Graphics/SVG/1.1/DTD/svg11.dtd">
<!-- Generated by graphviz version 2.26.3 (20100126.1600)
 -->
<!-- Title: program~~integrate_burgers~~UsesGraph Pages: 1 -->
<svg width="641pt" height="290pt"
 viewBox="0.00 0.00 641.00 289.96" xmlns="http://www.w3.org/2000/svg" xmlns:xlink="http://www.w3.org/1999/xlink">
<g id="graph1" class="graph" transform="scale(0.701313 0.701313) rotate(0) translate(4 409.454)">
<title>program~~integrate_burgers~~UsesGraph</title>
<polygon fill="white" stroke="white" points="-4,5 -4,-409.454 911,-409.454 911,5 -4,5"/>
<!-- program~integrate_burgers -->
<g id="node1" class="node"><title>program~integrate_burgers</title>
<polygon fill="none" stroke="black" points="905,-106.454 809,-106.454 809,-80.4542 905,-80.4542 905,-106.454"/>
<text text-anchor="middle" x="857" y="-91.0042" font-family="Helvetica,sans-Serif" font-size="10.50">integrate_burgers</text>
</g>
<!-- module~foodie -->
<g id="node2" class="node"><title>module~foodie</title>
<a xlink:href="../module/foodie.html" xlink:title="foodie">
<polygon fill="#337ab7" stroke="#337ab7" points="540,-255.454 486,-255.454 486,-229.454 540,-229.454 540,-255.454"/>
<text text-anchor="middle" x="513" y="-240.004" font-family="Helvetica,sans-Serif" font-size="10.50" fill="white">foodie</text>
</a>
</g>
<!-- module~foodie&#45;&gt;program~integrate_burgers -->
<g id="edge40" class="edge"><title>module~foodie&#45;&gt;program~integrate_burgers</title>
<path fill="none" stroke="black" stroke-dasharray="5,2" d="M540.328,-237.009C588.96,-226.613 692.849,-201.183 772,-159.454 795.503,-147.063 819.124,-128.072 835.479,-113.637"/>
<polygon fill="black" stroke="black" points="838.244,-115.857 843.33,-106.563 833.558,-110.656 838.244,-115.857"/>
</g>
<!-- module~type_burgers -->
<g id="node6" class="node"><title>module~type_burgers</title>
<a xlink:href="../module/type_burgers.html" xlink:title="type_burgers">
<polygon fill="#337ab7" stroke="#337ab7" points="712,-150.454 636,-150.454 636,-124.454 712,-124.454 712,-150.454"/>
<text text-anchor="middle" x="674" y="-135.004" font-family="Helvetica,sans-Serif" font-size="10.50" fill="white">type_burgers</text>
</a>
</g>
<!-- module~foodie&#45;&gt;module~type_burgers -->
<g id="edge38" class="edge"><title>module~foodie&#45;&gt;module~type_burgers</title>
<path fill="none" stroke="black" stroke-dasharray="5,2" d="M533.065,-229.368C561.343,-210.926 613.067,-177.193 645.374,-156.124"/>
<polygon fill="black" stroke="black" points="647.471,-158.934 653.935,-150.54 643.647,-153.071 647.471,-158.934"/>
</g>
<!-- IR_Precision -->
<g id="node3" class="node"><title>IR_Precision</title>
<polygon fill="#337ab7" stroke="#337ab7" points="73,-296.454 1,-296.454 1,-270.454 73,-270.454 73,-296.454"/>
<text text-anchor="middle" x="37" y="-281.004" font-family="Helvetica,sans-Serif" font-size="10.50" fill="white">IR_Precision</text>
</g>
<!-- IR_Precision&#45;&gt;program~integrate_burgers -->
<g id="edge42" class="edge"><title>IR_Precision&#45;&gt;program~integrate_burgers</title>
<path fill="none" stroke="black" stroke-dasharray="5,2" d="M46.156,-270.171C63.5116,-246.32 103.807,-196.998 152,-178.454"/>
<path fill="none" stroke="black" stroke-dasharray="5,2" d="M152,-178.454C302.704,-120.464 354.446,-168.033 513,-137.454"/>
<path fill="none" stroke="black" stroke-dasharray="5,2" d="M513,-137.454C567.881,-124.719 527.258,-55.7086 576,-27.4542 651.365,16.2324 689.592,0.782974 772,-27.4542 798.277,-36.458 822.701,-57.2637 838.562,-73.1267"/>
<polygon fill="black" stroke="black" points="836.166,-75.6836 845.631,-80.4436 841.2,-70.8198 836.166,-75.6836"/>
</g>
<!-- IR_Precision&#45;&gt;module~type_burgers -->
<g id="edge36" class="edge"><title>IR_Precision&#45;&gt;module~type_burgers</title>
<path fill="none" stroke="black" stroke-dasharray="5,2" d="M513,-137.454C550.396,-130.242 593.593,-130.707 625.822,-132.72"/>
<polygon fill="black" stroke="black" points="625.66,-136.217 635.879,-133.42 626.147,-129.234 625.66,-136.217"/>
</g>
<!-- module~foodie_integrator_tvd_runge_kutta -->
<g id="node7" class="node"><title>module~foodie_integrator_tvd_runge_kutta</title>
<a xlink:href="../module/foodie_integrator_tvd_runge_kutta.html" xlink:title="foodie_integrator_tvd_runge_kutta">
<polygon fill="#337ab7" stroke="#337ab7" points="428,-361.454 252,-361.454 252,-335.454 428,-335.454 428,-361.454"/>
<text text-anchor="middle" x="340" y="-346.004" font-family="Helvetica,sans-Serif" font-size="10.50" fill="white">foodie_integrator_tvd_runge_kutta</text>
</a>
</g>
<!-- IR_Precision&#45;&gt;module~foodie_integrator_tvd_runge_kutta -->
<g id="edge2" class="edge"><title>IR_Precision&#45;&gt;module~foodie_integrator_tvd_runge_kutta</title>
<path fill="none" stroke="black" stroke-dasharray="5,2" d="M152,-348.454C180.377,-355.919 212.008,-358.141 241.109,-357.882"/>
<polygon fill="black" stroke="black" points="241.354,-361.378 251.287,-357.691 241.223,-354.379 241.354,-361.378"/>
</g>
<!-- module~type_integrand -->
<g id="node8" class="node"><title>module~type_integrand</title>
<a xlink:href="../module/type_integrand.html" xlink:title="type_integrand">
<polygon fill="#337ab7" stroke="#337ab7" points="194,-296.454 110,-296.454 110,-270.454 194,-270.454 194,-296.454"/>
<text text-anchor="middle" x="152" y="-281.004" font-family="Helvetica,sans-Serif" font-size="10.50" fill="white">type_integrand</text>
</a>
</g>
<!-- IR_Precision&#45;&gt;module~type_integrand -->
<g id="edge6" class="edge"><title>IR_Precision&#45;&gt;module~type_integrand</title>
<path fill="none" stroke="black" stroke-dasharray="5,2" d="M73.7029,-283.454C81.9237,-283.454 90.8,-283.454 99.521,-283.454"/>
<polygon fill="black" stroke="black" points="99.6389,-286.954 109.639,-283.454 99.6388,-279.954 99.6389,-286.954"/>
</g>
<!-- module~foodie_integrator_adams_bashforth -->
<g id="node9" class="node"><title>module~foodie_integrator_adams_bashforth</title>
<a xlink:href="../module/foodie_integrator_adams_bashforth.html" xlink:title="foodie_integrator_adams_bashforth">
<polygon fill="#337ab7" stroke="#337ab7" points="431,-317.454 249,-317.454 249,-291.454 431,-291.454 431,-317.454"/>
<text text-anchor="middle" x="340" y="-302.004" font-family="Helvetica,sans-Serif" font-size="10.50" fill="white">foodie_integrator_adams_bashforth</text>
</a>
</g>
<!-- IR_Precision&#45;&gt;module~foodie_integrator_adams_bashforth -->
<g id="edge8" class="edge"><title>IR_Precision&#45;&gt;module~foodie_integrator_adams_bashforth</title>
<path fill="none" stroke="black" stroke-dasharray="5,2" d="M53.6975,-296.615C75.0524,-312.527 113.852,-338.419 152,-348.454"/>
<path fill="none" stroke="black" stroke-dasharray="5,2" d="M152,-348.454C186.834,-357.617 194.981,-334.881 230,-326.454 239.901,-324.072 250.346,-321.744 260.701,-319.55"/>
<polygon fill="black" stroke="black" points="261.506,-322.957 270.58,-317.488 260.076,-316.105 261.506,-322.957"/>
</g>
<!-- module~foodie_integrator_euler_explicit -->
<g id="node10" class="node"><title>module~foodie_integrator_euler_explicit</title>
<a xlink:href="../module/foodie_integrator_euler_explicit.html" xlink:title="foodie_integrator_euler_explicit">
<polygon fill="#337ab7" stroke="#337ab7" points="421,-235.454 259,-235.454 259,-209.454 421,-209.454 421,-235.454"/>
<text text-anchor="middle" x="340" y="-220.004" font-family="Helvetica,sans-Serif" font-size="10.50" fill="white">foodie_integrator_euler_explicit</text>
</a>
</g>
<!-- IR_Precision&#45;&gt;module~foodie_integrator_euler_explicit -->
<g id="edge12" class="edge"><title>IR_Precision&#45;&gt;module~foodie_integrator_euler_explicit</title>
<path fill="none" stroke="black" stroke-dasharray="5,2" d="M152,-178.454C185.616,-165.519 194.981,-192.027 230,-200.454 239.901,-202.837 250.346,-205.164 260.701,-207.359"/>
<polygon fill="black" stroke="black" points="260.076,-210.804 270.58,-209.42 261.506,-203.951 260.076,-210.804"/>
</g>
<!-- module~foodie_integrator_leapfrog -->
<g id="node11" class="node"><title>module~foodie_integrator_leapfrog</title>
<a xlink:href="../module/foodie_integrator_leapfrog.html" xlink:title="foodie_integrator_leapfrog">
<polygon fill="#337ab7" stroke="#337ab7" points="409,-191.454 271,-191.454 271,-165.454 409,-165.454 409,-191.454"/>
<text text-anchor="middle" x="340" y="-176.004" font-family="Helvetica,sans-Serif" font-size="10.50" fill="white">foodie_integrator_leapfrog</text>
</a>
</g>
<!-- IR_Precision&#45;&gt;module~foodie_integrator_leapfrog -->
<g id="edge16" class="edge"><title>IR_Precision&#45;&gt;module~foodie_integrator_leapfrog</title>
<path fill="none" stroke="black" stroke-dasharray="5,2" d="M152,-178.454C185.963,-165.386 226.002,-163.7 260.384,-165.962"/>
<polygon fill="black" stroke="black" points="260.147,-169.454 270.388,-166.74 260.69,-162.475 260.147,-169.454"/>
</g>
<!-- module~foodie_integrator_low_storage_runge_kutta -->
<g id="node12" class="node"><title>module~foodie_integrator_low_storage_runge_kutta</title>
<a xlink:href="../module/foodie_integrator_low_storage_runge_kutta.html" xlink:title="foodie_integrator_low_storage_runge_kutta">
<polygon fill="#337ab7" stroke="#337ab7" points="450,-405.454 230,-405.454 230,-379.454 450,-379.454 450,-405.454"/>
<text text-anchor="middle" x="340" y="-390.004" font-family="Helvetica,sans-Serif" font-size="10.50" fill="white">foodie_integrator_low_storage_runge_kutta</text>
</a>
</g>
<!-- IR_Precision&#45;&gt;module~foodie_integrator_low_storage_runge_kutta -->
<g id="edge20" class="edge"><title>IR_Precision&#45;&gt;module~foodie_integrator_low_storage_runge_kutta</title>
<path fill="none" stroke="black" stroke-dasharray="5,2" d="M152,-348.454C186.834,-357.617 194.981,-362.027 230,-370.454 239.901,-372.837 250.346,-375.164 260.701,-377.359"/>
<polygon fill="black" stroke="black" points="260.076,-380.804 270.58,-379.42 261.506,-373.951 260.076,-380.804"/>
</g>
<!-- Data_Type_Command_Line_Interface -->
<g id="node4" class="node"><title>Data_Type_Command_Line_Interface</title>
<polygon fill="#337ab7" stroke="#337ab7" points="771,-106.454 577,-106.454 577,-80.4542 771,-80.4542 771,-106.454"/>
<text text-anchor="middle" x="674" y="-91.0042" font-family="Helvetica,sans-Serif" font-size="10.50" fill="white">Data_Type_Command_Line_Interface</text>
</g>
<!-- Data_Type_Command_Line_Interface&#45;&gt;program~integrate_burgers -->
<g id="edge44" class="edge"><title>Data_Type_Command_Line_Interface&#45;&gt;program~integrate_burgers</title>
<path fill="none" stroke="black" stroke-dasharray="5,2" d="M771.661,-93.4542C780.623,-93.4542 789.505,-93.4542 797.962,-93.4542"/>
<polygon fill="black" stroke="black" points="798.044,-96.9543 808.044,-93.4542 798.044,-89.9543 798.044,-96.9543"/>
</g>
<!-- pyplot_module -->
<g id="node5" class="node"><title>pyplot_module</title>
<polygon fill="#337ab7" stroke="#337ab7" points="715,-62.4542 633,-62.4542 633,-36.4542 715,-36.4542 715,-62.4542"/>
<text text-anchor="middle" x="674" y="-47.0042" font-family="Helvetica,sans-Serif" font-size="10.50" fill="white">pyplot_module</text>
</g>
<!-- pyplot_module&#45;&gt;program~integrate_burgers -->
<g id="edge46" class="edge"><title>pyplot_module&#45;&gt;program~integrate_burgers</title>
<path fill="none" stroke="black" stroke-dasharray="5,2" d="M715.075,-58.364C732.64,-62.2545 753.355,-66.9498 772,-71.4542 780.505,-73.5088 789.469,-75.7481 798.259,-77.9859"/>
<polygon fill="black" stroke="black" points="797.519,-81.4094 808.075,-80.5019 799.257,-74.6286 797.519,-81.4094"/>
</g>
<!-- module~type_burgers&#45;&gt;program~integrate_burgers -->
<g id="edge48" class="edge"><title>module~type_burgers&#45;&gt;program~integrate_burgers</title>
<path fill="none" stroke="black" stroke-dasharray="5,2" d="M712.23,-129.174C730.373,-125.167 752.338,-120.204 772,-115.454 780.505,-113.4 789.469,-111.16 798.259,-108.922"/>
<polygon fill="black" stroke="black" points="799.257,-112.28 808.075,-106.406 797.519,-105.499 799.257,-112.28"/>
</g>
<!-- module~foodie_integrator_tvd_runge_kutta&#45;&gt;module~foodie -->
<g id="edge24" class="edge"><title>module~foodie_integrator_tvd_runge_kutta&#45;&gt;module~foodie</title>
<path fill="none" stroke="black" stroke-dasharray="5,2" d="M428.707,-336.768C436.193,-334 443.409,-330.608 450,-326.454 473.747,-311.488 491.72,-284.135 502.274,-264.711"/>
<polygon fill="black" stroke="black" points="505.48,-266.131 506.979,-255.643 499.266,-262.907 505.48,-266.131"/>
</g>
<!-- module~type_integrand&#45;&gt;module~foodie -->
<g id="edge26" class="edge"><title>module~type_integrand&#45;&gt;module~foodie</title>
<path fill="none" stroke="black" stroke-dasharray="5,2" d="M194.118,-278.671C265.266,-270.59 408.104,-254.368 475.792,-246.68"/>
<polygon fill="black" stroke="black" points="476.446,-250.128 485.987,-245.522 475.656,-243.173 476.446,-250.128"/>
</g>
<!-- module~type_integrand&#45;&gt;module~foodie_integrator_tvd_runge_kutta -->
<g id="edge4" class="edge"><title>module~type_integrand&#45;&gt;module~foodie_integrator_tvd_runge_kutta</title>
<path fill="none" stroke="black" stroke-dasharray="5,2" d="M171.717,-296.552C187.022,-306.157 209.088,-318.806 230,-326.454 236.39,-328.791 243.085,-330.9 249.882,-332.8"/>
<polygon fill="black" stroke="black" points="249.329,-336.273 259.891,-335.435 251.112,-329.504 249.329,-336.273"/>
</g>
<!-- module~type_integrand&#45;&gt;module~foodie_integrator_adams_bashforth -->
<g id="edge10" class="edge"><title>module~type_integrand&#45;&gt;module~foodie_integrator_adams_bashforth</title>
<path fill="none" stroke="black" stroke-dasharray="5,2" d="M194.191,-288.167C207.423,-289.645 222.647,-291.346 238.158,-293.078"/>
<polygon fill="black" stroke="black" points="238.047,-296.588 248.374,-294.219 238.824,-289.631 238.047,-296.588"/>
</g>
<!-- module~type_integrand&#45;&gt;module~foodie_integrator_euler_explicit -->
<g id="edge14" class="edge"><title>module~type_integrand&#45;&gt;module~foodie_integrator_euler_explicit</title>
<path fill="none" stroke="black" stroke-dasharray="5,2" d="M178.986,-270.335C193.804,-263.479 212.646,-255.318 230,-249.454 242.47,-245.24 255.939,-241.384 269.033,-237.987"/>
<polygon fill="black" stroke="black" points="270.112,-241.324 278.95,-235.48 268.397,-234.537 270.112,-241.324"/>
</g>
<!-- module~type_integrand&#45;&gt;module~foodie_integrator_leapfrog -->
<g id="edge18" class="edge"><title>module~type_integrand&#45;&gt;module~foodie_integrator_leapfrog</title>
<path fill="none" stroke="black" stroke-dasharray="5,2" d="M160.314,-270.421C172.962,-251.748 198.883,-217.734 230,-200.454 239.451,-195.206 249.975,-191.199 260.662,-188.143"/>
<polygon fill="black" stroke="black" points="261.695,-191.491 270.497,-185.594 259.939,-184.714 261.695,-191.491"/>
</g>
<!-- module~type_integrand&#45;&gt;module~foodie_integrator_low_storage_runge_kutta -->
<g id="edge22" class="edge"><title>module~type_integrand&#45;&gt;module~foodie_integrator_low_storage_runge_kutta</title>
<path fill="none" stroke="black" stroke-dasharray="5,2" d="M162.905,-296.504C182.309,-319.587 221.587,-365.653 230,-370.454 233.28,-372.326 236.694,-374.041 240.203,-375.611"/>
<polygon fill="black" stroke="black" points="239.104,-378.942 249.687,-379.44 241.724,-372.451 239.104,-378.942"/>
</g>
<!-- module~foodie_integrator_adams_bashforth&#45;&gt;module~foodie -->
<g id="edge28" class="edge"><title>module~foodie_integrator_adams_bashforth&#45;&gt;module~foodie</title>
<path fill="none" stroke="black" stroke-dasharray="5,2" d="M405.458,-291.424C420.337,-287.631 435.905,-282.984 450,-277.454 461.531,-272.93 473.565,-266.671 483.989,-260.695"/>
<polygon fill="black" stroke="black" points="485.847,-263.662 492.682,-255.567 482.29,-257.633 485.847,-263.662"/>
</g>
<!-- module~foodie_integrator_euler_explicit&#45;&gt;module~foodie -->
<g id="edge30" class="edge"><title>module~foodie_integrator_euler_explicit&#45;&gt;module~foodie</title>
<path fill="none" stroke="black" stroke-dasharray="5,2" d="M421.181,-231.839C440.337,-234.054 459.842,-236.309 475.92,-238.167"/>
<polygon fill="black" stroke="black" points="475.616,-241.656 485.952,-239.327 476.42,-234.702 475.616,-241.656"/>
</g>
<!-- module~foodie_integrator_leapfrog&#45;&gt;module~foodie -->
<g id="edge32" class="edge"><title>module~foodie_integrator_leapfrog&#45;&gt;module~foodie</title>
<path fill="none" stroke="black" stroke-dasharray="5,2" d="M409.586,-188.091C423.274,-191.171 437.315,-195.2 450,-200.454 463.839,-206.187 477.841,-215.138 489.118,-223.306"/>
<polygon fill="black" stroke="black" points="487.061,-226.138 497.163,-229.333 491.259,-220.536 487.061,-226.138"/>
</g>
<!-- module~foodie_integrator_low_storage_runge_kutta&#45;&gt;module~foodie -->
<g id="edge34" class="edge"><title>module~foodie_integrator_low_storage_runge_kutta&#45;&gt;module~foodie</title>
<path fill="none" stroke="black" stroke-dasharray="5,2" d="M435.523,-379.357C440.648,-376.841 445.522,-373.896 450,-370.454 484.102,-344.237 500.929,-294.682 508.225,-265.52"/>
<polygon fill="black" stroke="black" points="511.634,-266.313 510.496,-255.779 504.816,-264.723 511.634,-266.313"/>
</g>
</g>
</svg>
