<?xml version="1.0" encoding="UTF-8" standalone="no"?>
<!DOCTYPE svg PUBLIC "-//W3C//DTD SVG 1.1//EN"
 "http://www.w3.org/Graphics/SVG/1.1/DTD/svg11.dtd">
<!-- Generated by graphviz version 2.26.3 (20100126.1600)
 -->
<!-- Title: type~~euler_1d~~InheritsGraph Pages: 1 -->
<svg width="262pt" height="78pt"
 viewBox="0.00 0.00 262.00 78.00" xmlns="http://www.w3.org/2000/svg" xmlns:xlink="http://www.w3.org/1999/xlink">
<g id="graph1" class="graph" transform="scale(1 1) rotate(0) translate(4 74)">
<title>type~~euler_1d~~InheritsGraph</title>
<polygon fill="white" stroke="white" points="-4,5 -4,-74 259,-74 259,5 -4,5"/>
<!-- type~euler_1d -->
<g id="node1" class="node"><title>type~euler_1d</title>
<polygon fill="none" stroke="black" points="254,-48 198,-48 198,-22 254,-22 254,-48"/>
<text text-anchor="middle" x="226" y="-32.55" font-family="Helvetica,sans-Serif" font-size="10.50">euler_1D</text>
</g>
<!-- weno_interpolator_upwind -->
<g id="node2" class="node"><title>weno_interpolator_upwind</title>
<polygon fill="#5cb85c" stroke="#5cb85c" points="138,-70 7.10543e-14,-70 0,-44 138,-44 138,-70"/>
<text text-anchor="middle" x="69" y="-54.55" font-family="Helvetica,sans-Serif" font-size="10.50" fill="white">weno_interpolator_upwind</text>
</g>
<!-- weno_interpolator_upwind&#45;&gt;type~euler_1d -->
<g id="edge2" class="edge"><title>weno_interpolator_upwind&#45;&gt;type~euler_1d</title>
<path fill="none" stroke="black" stroke-dasharray="5,2" d="M138.319,-47.2864C155.241,-44.9152 172.74,-42.4632 187.612,-40.3792"/>
<polygon fill="black" stroke="black" points="188.514,-43.7871 197.932,-38.9332 187.543,-36.8548 188.514,-43.7871"/>
<text text-anchor="middle" x="168" y="-48.45" font-family="Helvetica,sans-Serif" font-size="9.50">weno</text>
</g>
<!-- integrand -->
<g id="node4" class="node"><title>integrand</title>
<polygon fill="#5cb85c" stroke="#5cb85c" points="98,-26 40,-26 40,-1.24345e-14 98,-3.55271e-15 98,-26"/>
<text text-anchor="middle" x="69" y="-10.55" font-family="Helvetica,sans-Serif" font-size="10.50" fill="white">integrand</text>
</g>
<!-- integrand&#45;&gt;type~euler_1d -->
<g id="edge4" class="edge"><title>integrand&#45;&gt;type~euler_1d</title>
<path fill="none" stroke="black" d="M98.1626,-17.0865C123.404,-20.6234 160.089,-25.7641 187.694,-29.6323"/>
<polygon fill="black" stroke="black" points="187.397,-33.1248 197.786,-31.0465 188.369,-26.1926 187.397,-33.1248"/>
</g>
</g>
</svg>
