<?xml version="1.0" encoding="UTF-8" standalone="no"?>
<!DOCTYPE svg PUBLIC "-//W3C//DTD SVG 1.1//EN"
 "http://www.w3.org/Graphics/SVG/1.1/DTD/svg11.dtd">
<!-- Generated by graphviz version 2.26.3 (20100126.1600)
 -->
<!-- Title: type~~euler_1d_openmp~~InheritsGraph Pages: 1 -->
<svg width="308pt" height="78pt"
 viewBox="0.00 0.00 308.00 78.00" xmlns="http://www.w3.org/2000/svg" xmlns:xlink="http://www.w3.org/1999/xlink">
<g id="graph1" class="graph" transform="scale(1 1) rotate(0) translate(4 74)">
<title>type~~euler_1d_openmp~~InheritsGraph</title>
<polygon fill="white" stroke="white" points="-4,5 -4,-74 305,-74 305,5 -4,5"/>
<!-- type~euler_1d_openmp -->
<g id="node1" class="node"><title>type~euler_1d_openmp</title>
<polygon fill="none" stroke="black" points="299,-48 199,-48 199,-22 299,-22 299,-48"/>
<text text-anchor="middle" x="249" y="-32.55" font-family="Helvetica,sans-Serif" font-size="10.50">euler_1D_openmp</text>
</g>
<!-- weno_interpolator_upwind -->
<g id="node2" class="node"><title>weno_interpolator_upwind</title>
<polygon fill="#5cb85c" stroke="#5cb85c" points="138,-70 7.10543e-14,-70 0,-44 138,-44 138,-70"/>
<text text-anchor="middle" x="69" y="-54.55" font-family="Helvetica,sans-Serif" font-size="10.50" fill="white">weno_interpolator_upwind</text>
</g>
<!-- weno_interpolator_upwind&#45;&gt;type~euler_1d_openmp -->
<g id="edge2" class="edge"><title>weno_interpolator_upwind&#45;&gt;type~euler_1d_openmp</title>
<path fill="none" stroke="black" stroke-dasharray="5,2" d="M138.078,-48.5571C154.506,-46.5493 171.919,-44.421 187.958,-42.4606"/>
<polygon fill="black" stroke="black" points="188.775,-45.887 198.276,-41.1996 187.925,-38.9387 188.775,-45.887"/>
<text text-anchor="middle" x="168" y="-50.45" font-family="Helvetica,sans-Serif" font-size="9.50">weno</text>
</g>
<!-- integrand -->
<g id="node4" class="node"><title>integrand</title>
<polygon fill="#5cb85c" stroke="#5cb85c" points="98,-26 40,-26 40,-1.24345e-14 98,-3.55271e-15 98,-26"/>
<text text-anchor="middle" x="69" y="-10.55" font-family="Helvetica,sans-Serif" font-size="10.50" fill="white">integrand</text>
</g>
<!-- integrand&#45;&gt;type~euler_1d_openmp -->
<g id="edge4" class="edge"><title>integrand&#45;&gt;type~euler_1d_openmp</title>
<path fill="none" stroke="black" d="M98.3207,-16.5836C122.576,-19.5481 157.837,-23.8578 188.151,-27.5629"/>
<polygon fill="black" stroke="black" points="187.868,-31.0543 198.219,-28.7934 188.717,-24.106 187.868,-31.0543"/>
</g>
</g>
</svg>
