<?xml version="1.0" encoding="UTF-8" standalone="no"?>
<!DOCTYPE svg PUBLIC "-//W3C//DTD SVG 1.1//EN"
 "http://www.w3.org/Graphics/SVG/1.1/DTD/svg11.dtd">
<!-- Generated by graphviz version 2.26.3 (20100126.1600)
 -->
<!-- Title: type~~graph~~TypeGraph Pages: 1 -->
<svg width="318pt" height="406pt"
 viewBox="0.00 0.00 318.00 406.00" xmlns="http://www.w3.org/2000/svg" xmlns:xlink="http://www.w3.org/1999/xlink">
<g id="graph1" class="graph" transform="scale(1 1) rotate(0) translate(4 402)">
<title>type~~graph~~TypeGraph</title>
<polygon fill="white" stroke="white" points="-4,5 -4,-402 315,-402 315,5 -4,5"/>
<!-- type~integrand -->
<g id="node1" class="node"><title>type~integrand</title>
<a xlink:href="../type/integrand.html" xlink:title="integrand">
<polygon fill="#5cb85c" stroke="#5cb85c" points="103,-70 45,-70 45,-44 103,-44 103,-70"/>
<text text-anchor="middle" x="74" y="-54.55" font-family="Helvetica,sans-Serif" font-size="10.50" fill="white">integrand</text>
</a>
</g>
<!-- type~euler_1d -->
<g id="node2" class="node"><title>type~euler_1d</title>
<a xlink:href="../type/euler_1d.html" xlink:title="euler_1D">
<polygon fill="#5cb85c" stroke="#5cb85c" points="287,-202 231,-202 231,-176 287,-176 287,-202"/>
<text text-anchor="middle" x="259" y="-186.55" font-family="Helvetica,sans-Serif" font-size="10.50" fill="white">euler_1D</text>
</a>
</g>
<!-- type~burgers -->
<g id="node3" class="node"><title>type~burgers</title>
<a xlink:href="../type/burgers.html" xlink:title="burgers">
<polygon fill="#5cb85c" stroke="#5cb85c" points="286,-114 232,-114 232,-88 286,-88 286,-114"/>
<text text-anchor="middle" x="259" y="-98.55" font-family="Helvetica,sans-Serif" font-size="10.50" fill="white">burgers</text>
</a>
</g>
<!-- type~oscillation -->
<g id="node4" class="node"><title>type~oscillation</title>
<a xlink:href="../type/oscillation.html" xlink:title="oscillation">
<polygon fill="#5cb85c" stroke="#5cb85c" points="288,-70 230,-70 230,-44 288,-44 288,-70"/>
<text text-anchor="middle" x="259" y="-54.55" font-family="Helvetica,sans-Serif" font-size="10.50" fill="white">oscillation</text>
</a>
</g>
<!-- type~adams_bashforth_integrator -->
<g id="node5" class="node"><title>type~adams_bashforth_integrator</title>
<a xlink:href="../type/adams_bashforth_integrator.html" xlink:title="adams_bashforth_integrator">
<polygon fill="#5cb85c" stroke="#5cb85c" points="148,-222 7.10543e-14,-222 0,-196 148,-196 148,-222"/>
<text text-anchor="middle" x="74" y="-206.55" font-family="Helvetica,sans-Serif" font-size="10.50" fill="white">adams_bashforth_integrator</text>
</a>
</g>
<!-- type~lorenz -->
<g id="node6" class="node"><title>type~lorenz</title>
<a xlink:href="../type/lorenz.html" xlink:title="lorenz">
<polygon fill="#5cb85c" stroke="#5cb85c" points="286,-26 232,-26 232,-1.24345e-14 286,-3.55271e-15 286,-26"/>
<text text-anchor="middle" x="259" y="-10.55" font-family="Helvetica,sans-Serif" font-size="10.50" fill="white">lorenz</text>
</a>
</g>
<!-- type~euler_explicit_integrator -->
<g id="node7" class="node"><title>type~euler_explicit_integrator</title>
<a xlink:href="../type/euler_explicit_integrator.html" xlink:title="euler_explicit_integrator">
<polygon fill="#5cb85c" stroke="#5cb85c" points="137,-266 11,-266 11,-240 137,-240 137,-266"/>
<text text-anchor="middle" x="74" y="-250.55" font-family="Helvetica,sans-Serif" font-size="10.50" fill="white">euler_explicit_integrator</text>
</a>
</g>
<!-- type~euler_1d_openmp -->
<g id="node8" class="node"><title>type~euler_1d_openmp</title>
<a xlink:href="../type/euler_1d_openmp.html" xlink:title="euler_1D_openmp">
<polygon fill="#5cb85c" stroke="#5cb85c" points="309,-158 209,-158 209,-132 309,-132 309,-158"/>
<text text-anchor="middle" x="259" y="-142.55" font-family="Helvetica,sans-Serif" font-size="10.50" fill="white">euler_1D_openmp</text>
</a>
</g>
<!-- type~leapfrog_integrator -->
<g id="node9" class="node"><title>type~leapfrog_integrator</title>
<a xlink:href="../type/leapfrog_integrator.html" xlink:title="leapfrog_integrator">
<polygon fill="#5cb85c" stroke="#5cb85c" points="125,-310 23,-310 23,-284 125,-284 125,-310"/>
<text text-anchor="middle" x="74" y="-294.55" font-family="Helvetica,sans-Serif" font-size="10.50" fill="white">leapfrog_integrator</text>
</a>
</g>
<!-- type~tvd_runge_kutta_integrator -->
<g id="node10" class="node"><title>type~tvd_runge_kutta_integrator</title>
<a xlink:href="../type/tvd_runge_kutta_integrator.html" xlink:title="tvd_runge_kutta_integrator">
<polygon fill="#5cb85c" stroke="#5cb85c" points="145,-354 3,-354 3,-328 145,-328 145,-354"/>
<text text-anchor="middle" x="74" y="-338.55" font-family="Helvetica,sans-Serif" font-size="10.50" fill="white">tvd_runge_kutta_integrator</text>
</a>
</g>
<!-- type~ls_runge_kutta_integrator -->
<g id="node11" class="node"><title>type~ls_runge_kutta_integrator</title>
<a xlink:href="../type/ls_runge_kutta_integrator.html" xlink:title="ls_runge_kutta_integrator">
<polygon fill="#5cb85c" stroke="#5cb85c" points="141,-398 7,-398 7,-372 141,-372 141,-398"/>
<text text-anchor="middle" x="74" y="-382.55" font-family="Helvetica,sans-Serif" font-size="10.50" fill="white">ls_runge_kutta_integrator</text>
</a>
</g>
<!-- weno_interpolator_upwind -->
<g id="node12" class="node"><title>weno_interpolator_upwind</title>
<polygon fill="#5cb85c" stroke="#5cb85c" points="143,-178 5,-178 5,-152 143,-152 143,-178"/>
<text text-anchor="middle" x="74" y="-162.55" font-family="Helvetica,sans-Serif" font-size="10.50" fill="white">weno_interpolator_upwind</text>
</g>
<!-- weno_interpolator_upwind&#45;&gt;type~euler_1d -->
<g id="edge2" class="edge"><title>weno_interpolator_upwind&#45;&gt;type~euler_1d</title>
<path fill="none" stroke="black" stroke-dasharray="5,2" d="M143.15,-173.971C169.375,-177.373 198.28,-181.123 220.657,-184.026"/>
<polygon fill="black" stroke="black" points="220.394,-187.521 230.761,-185.337 221.294,-180.579 220.394,-187.521"/>
<text text-anchor="middle" x="178" y="-183.45" font-family="Helvetica,sans-Serif" font-size="9.50">weno</text>
</g>
<!-- weno_interpolator_upwind&#45;&gt;type~euler_1d_openmp -->
<g id="edge12" class="edge"><title>weno_interpolator_upwind&#45;&gt;type~euler_1d_openmp</title>
<path fill="none" stroke="black" stroke-dasharray="5,2" d="M143.264,-154.719C150.926,-153.729 158.623,-152.798 166,-152 176.369,-150.878 187.408,-149.878 198.123,-149.009"/>
<polygon fill="black" stroke="black" points="198.568,-152.485 208.265,-148.216 198.023,-145.506 198.568,-152.485"/>
<text text-anchor="middle" x="178" y="-156.45" font-family="Helvetica,sans-Serif" font-size="9.50">weno</text>
</g>
<!-- integrand -->
<g id="node14" class="node"><title>integrand</title>
<polygon fill="#5cb85c" stroke="#5cb85c" points="103,-114 45,-114 45,-88 103,-88 103,-114"/>
<text text-anchor="middle" x="74" y="-98.55" font-family="Helvetica,sans-Serif" font-size="10.50" fill="white">integrand</text>
</g>
<!-- integrand&#45;&gt;type~euler_1d -->
<g id="edge4" class="edge"><title>integrand&#45;&gt;type~euler_1d</title>
<path fill="none" stroke="black" d="M178,-101C210.221,-101 184.996,-144.438 208,-167 211.958,-170.882 216.712,-174.131 221.703,-176.834"/>
<polygon fill="black" stroke="black" points="220.286,-180.035 230.824,-181.13 223.268,-173.702 220.286,-180.035"/>
</g>
<!-- integrand&#45;&gt;type~burgers -->
<g id="edge6" class="edge"><title>integrand&#45;&gt;type~burgers</title>
<path fill="none" stroke="black" d="M178,-101C192.344,-101 208.116,-101 221.902,-101"/>
<polygon fill="black" stroke="black" points="222,-104.5 232,-101 222,-97.5001 222,-104.5"/>
</g>
<!-- integrand&#45;&gt;type~oscillation -->
<g id="edge8" class="edge"><title>integrand&#45;&gt;type~oscillation</title>
<path fill="none" stroke="black" d="M178,-101C194.534,-101 193.651,-87.2156 208,-79 211.87,-76.784 216.007,-74.6506 220.187,-72.6424"/>
<polygon fill="black" stroke="black" points="221.685,-75.8061 229.321,-68.4623 218.772,-69.4409 221.685,-75.8061"/>
</g>
<!-- integrand&#45;&gt;type~lorenz -->
<g id="edge10" class="edge"><title>integrand&#45;&gt;type~lorenz</title>
<path fill="none" stroke="black" d="M103.139,-101C123.988,-101 152.722,-101 178,-101"/>
<path fill="none" stroke="black" d="M178,-101C210.221,-101 184.996,-57.5623 208,-35 212.234,-30.8474 217.377,-27.4204 222.748,-24.6099"/>
<polygon fill="black" stroke="black" points="224.236,-27.7778 231.881,-20.4429 221.331,-21.4093 224.236,-27.7778"/>
</g>
<!-- integrand&#45;&gt;type~euler_1d_openmp -->
<g id="edge14" class="edge"><title>integrand&#45;&gt;type~euler_1d_openmp</title>
<path fill="none" stroke="black" d="M178,-101C194.534,-101 193.651,-114.784 208,-123 210.803,-124.605 213.746,-126.167 216.744,-127.669"/>
<polygon fill="black" stroke="black" points="215.285,-130.851 225.819,-131.981 218.289,-124.528 215.285,-130.851"/>
</g>
</g>
</svg>
