<?xml version="1.0" encoding="UTF-8" standalone="no"?>
<!DOCTYPE svg PUBLIC "-//W3C//DTD SVG 1.1//EN"
 "http://www.w3.org/Graphics/SVG/1.1/DTD/svg11.dtd">
<!-- Generated by graphviz version 2.26.3 (20100126.1600)
 -->
<!-- Title: type~~graph~~TypeGraph Pages: 1 -->
<svg width="252pt" height="232pt"
 viewBox="0.00 0.00 252.00 232.00" xmlns="http://www.w3.org/2000/svg" xmlns:xlink="http://www.w3.org/1999/xlink">
<g id="graph1" class="graph" transform="scale(1 1) rotate(0) translate(4 228)">
<title>type~~graph~~TypeGraph</title>
<polygon fill="white" stroke="white" points="-4,5 -4,-228 249,-228 249,5 -4,5"/>
<!-- type~euler_explicit_integrator -->
<g id="node1" class="node"><title>type~euler_explicit_integrator</title>
<a xlink:href="../type/euler_explicit_integrator.html" xlink:title="euler_explicit_integrator">
<polygon fill="#5cb85c" stroke="#5cb85c" points="137,-48 11,-48 11,-22 137,-22 137,-48"/>
<text text-anchor="middle" x="74" y="-32.55" font-family="Helvetica,sans-Serif" font-size="10.50" fill="white">euler_explicit_integrator</text>
</a>
</g>
<!-- type~lorenz -->
<g id="node2" class="node"><title>type~lorenz</title>
<a xlink:href="../type/lorenz.html" xlink:title="lorenz">
<polygon fill="#5cb85c" stroke="#5cb85c" points="241,-158 187,-158 187,-132 241,-132 241,-158"/>
<text text-anchor="middle" x="214" y="-142.55" font-family="Helvetica,sans-Serif" font-size="10.50" fill="white">lorenz</text>
</a>
</g>
<!-- type~oscillation -->
<g id="node3" class="node"><title>type~oscillation</title>
<a xlink:href="../type/oscillation.html" xlink:title="oscillation">
<polygon fill="#5cb85c" stroke="#5cb85c" points="243,-114 185,-114 185,-88 243,-88 243,-114"/>
<text text-anchor="middle" x="214" y="-98.55" font-family="Helvetica,sans-Serif" font-size="10.50" fill="white">oscillation</text>
</a>
</g>
<!-- type~euler_1d -->
<g id="node4" class="node"><title>type~euler_1d</title>
<a xlink:href="../type/euler_1d.html" xlink:title="euler_1D">
<polygon fill="#5cb85c" stroke="#5cb85c" points="242,-70 186,-70 186,-44 242,-44 242,-70"/>
<text text-anchor="middle" x="214" y="-54.55" font-family="Helvetica,sans-Serif" font-size="10.50" fill="white">euler_1D</text>
</a>
</g>
<!-- type~tvd_runge_kutta_integrator -->
<g id="node5" class="node"><title>type~tvd_runge_kutta_integrator</title>
<a xlink:href="../type/tvd_runge_kutta_integrator.html" xlink:title="tvd_runge_kutta_integrator">
<polygon fill="#5cb85c" stroke="#5cb85c" points="145,-136 3,-136 3,-110 145,-110 145,-136"/>
<text text-anchor="middle" x="74" y="-120.55" font-family="Helvetica,sans-Serif" font-size="10.50" fill="white">tvd_runge_kutta_integrator</text>
</a>
</g>
<!-- type~burgers -->
<g id="node6" class="node"><title>type~burgers</title>
<a xlink:href="../type/burgers.html" xlink:title="burgers">
<polygon fill="#5cb85c" stroke="#5cb85c" points="241,-26 187,-26 187,-1.24345e-14 241,-3.55271e-15 241,-26"/>
<text text-anchor="middle" x="214" y="-10.55" font-family="Helvetica,sans-Serif" font-size="10.50" fill="white">burgers</text>
</a>
</g>
<!-- type~integrand -->
<g id="node7" class="node"><title>type~integrand</title>
<a xlink:href="../type/integrand.html" xlink:title="integrand">
<polygon fill="#5cb85c" stroke="#5cb85c" points="103,-180 45,-180 45,-154 103,-154 103,-180"/>
<text text-anchor="middle" x="74" y="-164.55" font-family="Helvetica,sans-Serif" font-size="10.50" fill="white">integrand</text>
</a>
</g>
<!-- type~adams_bashforth_integrator -->
<g id="node8" class="node"><title>type~adams_bashforth_integrator</title>
<a xlink:href="../type/adams_bashforth_integrator.html" xlink:title="adams_bashforth_integrator">
<polygon fill="#5cb85c" stroke="#5cb85c" points="148,-224 7.10543e-14,-224 0,-198 148,-198 148,-224"/>
<text text-anchor="middle" x="74" y="-208.55" font-family="Helvetica,sans-Serif" font-size="10.50" fill="white">adams_bashforth_integrator</text>
</a>
</g>
<!-- integrand -->
<g id="node9" class="node"><title>integrand</title>
<polygon fill="#5cb85c" stroke="#5cb85c" points="103,-92 45,-92 45,-66 103,-66 103,-92"/>
<text text-anchor="middle" x="74" y="-76.55" font-family="Helvetica,sans-Serif" font-size="10.50" fill="white">integrand</text>
</g>
<!-- integrand&#45;&gt;type~lorenz -->
<g id="edge2" class="edge"><title>integrand&#45;&gt;type~lorenz</title>
<path fill="none" stroke="black" d="M103.201,-85.5259C117.125,-89.1746 133.802,-94.3421 148,-101 156.078,-104.788 172.886,-116.013 187.518,-126.176"/>
<polygon fill="black" stroke="black" points="185.599,-129.106 195.799,-131.974 189.614,-123.371 185.599,-129.106"/>
</g>
<!-- integrand&#45;&gt;type~oscillation -->
<g id="edge4" class="edge"><title>integrand&#45;&gt;type~oscillation</title>
<path fill="none" stroke="black" d="M103.008,-83.5584C123.567,-86.789 151.409,-91.1642 174.064,-94.7243"/>
<polygon fill="black" stroke="black" points="173.641,-98.2007 184.063,-96.2956 174.728,-91.2856 173.641,-98.2007"/>
</g>
<!-- integrand&#45;&gt;type~euler_1d -->
<g id="edge6" class="edge"><title>integrand&#45;&gt;type~euler_1d</title>
<path fill="none" stroke="black" d="M103.008,-74.4416C124.122,-71.1237 152.919,-66.5985 175.889,-62.9889"/>
<polygon fill="black" stroke="black" points="176.649,-66.4125 185.984,-61.4025 175.562,-59.4973 176.649,-66.4125"/>
</g>
<!-- integrand&#45;&gt;type~burgers -->
<g id="edge8" class="edge"><title>integrand&#45;&gt;type~burgers</title>
<path fill="none" stroke="black" d="M103.201,-72.4741C117.125,-68.8254 133.802,-63.6579 148,-57 156.078,-53.2121 172.886,-41.987 187.518,-31.8235"/>
<polygon fill="black" stroke="black" points="189.614,-34.6285 195.799,-26.0263 185.599,-28.894 189.614,-34.6285"/>
</g>
</g>
</svg>
